<svg width="352" height="289" fill="none" xmlns="http://www.w3.org/2000/svg"><g filter="url(#a)"><g clip-path="url(#b)"><rect x="6" y="6" width="336" height="273" rx="30" fill="#fff"/><rect x="6" y="6" width="336" height="273" rx="30" fill="#C6FFC6"/><path d="M154 6v69" stroke="#A9ECA9" stroke-width="5" stroke-linecap="round" stroke-linejoin="round" stroke-dasharray="15 15"/><path d="M305 214c-.221 4.737-3.051 13.953-12.601 12.92" stroke="#A9ECA9" stroke-width="5" stroke-linejoin="round" stroke-dasharray="15 15"/><path d="M43 84.453v73.649M305 84v131M53.664 75h239.413M54.633 169h249.105" stroke="#A9ECA9" stroke-width="5" stroke-linecap="round" stroke-linejoin="round" stroke-dasharray="15 15"/><path d="M43 84.387c.221-3.421 3.05-10.075 12.6-9.33M304.707 84.387c-.221-3.421-3.051-10.075-12.601-9.33M43 156c.221 4.737 3.05 13.953 12.6 12.92" stroke="#A9ECA9" stroke-width="5" stroke-linejoin="round" stroke-dasharray="15 15"/><path d="M154 236v36M165 227h128" stroke="#A9ECA9" stroke-width="5" stroke-linecap="round" stroke-linejoin="round" stroke-dasharray="15 15"/><path d="M154 236.387c.221-3.421 3.051-10.075 12.601-9.329" stroke="#A9ECA9" stroke-width="5" stroke-linejoin="round" stroke-dasharray="15 15"/><g filter="url(#c)"><circle cx="174" cy="142" r="48" fill="#C6F4FF"/><g filter="url(#d)" fill="#CC510B" stroke="#973E0B" stroke-linecap="round"><path d="M175.292 167.311h-4.328a.3.3 0 0 1-.3-.3v-51.763a.3.3 0 0 1 .3-.3H175.292a.3.3 0 0 1 .3.3v51.763a.3.3 0 0 1-.3.3z"/><path d="M155.875 126.281V119.9a.3.3 0 0 1 .3-.3h30.948c.047 0 .094.011.136.032l6.284 3.191a.3.3 0 0 1 0 .535l-6.284 3.191a.305.305 0 0 1-.136.032h-30.948a.3.3 0 0 1-.3-.3zM187.906 139.082V132.7a.3.3 0 0 0-.3-.3h-27.808a.301.301 0 0 0-.126.028l-6.907 3.191a.3.3 0 0 0 0 .545l6.907 3.19a.287.287 0 0 0 .126.028h27.808a.3.3 0 0 0 .3-.3zM180.219 167.31h-14.185a.299.299 0 0 1-.299-.3c.007-3.052.227-6.66 7.118-6.682 7.422-.023 7.659 3.627 7.666 6.682a.3.3 0 0 1-.3.3z"/></g></g><g filter="url(#e)"><path d="M290.063 65.924c0 1.263-.773 5.684 3.095 10.104 3.714 4.547 5.158 7.368 5.416 8.21h14.701c1.547-2.947 3.365-5.532 5.415-8.21 3.869-5.052 2.837-6.526 3.869-10.104" stroke="#fff"/><path d="M306.279 79.99c9.203 0 16.78-6.542 16.78-14.745 0-8.204-7.577-14.745-16.78-14.745-9.202 0-16.779 6.54-16.779 14.745 0 8.203 7.577 14.744 16.779 14.744z" stroke="#fff"/><path d="M298.875 83.543h6.436c-.805-1.357-.732-2.783 0-3.387.812-.67 1.073-.677 1.609-.677.981 0 .812.685 3.218.677.812-.002 1.616-.67 1.609-2.033-.008-1.347-.008-1.363-.805-2.71-.797-1.348-2.406.007-4.022 0-.797.007-1.602-.67-1.609-1.356l1.616-6.086c-.007-.015.028-.007-.007-.015-3.211-.668-6.454-2.718-7.266-2.048-.797.68-1.931 1.359-1.609 2.714.483 2.033.804 1.762-1.609 2.033-1.609 0-.811.36-.805-1.355.008-2.031.845-1.342.033-2.699h-5.638c-.268 2.485 1.616 6.779 3.218 8.81 2.227 2.824 4.022 4.745 5.631 8.132z" fill="#FF686C" stroke="#fff" stroke-width=".3"/><path d="M305.316 74.062c0-1.627 1.072-4.744 1.609-6.1 1.34.226 3.184-.02 6.436 1.356.804.34 1.575-2.054.804-3.388-.269-.678.644-2.034 3.218-2.034s1.609 3.615.804 5.422c2.38-.021 4.023-.197 4.023 0-.001 2.033-4.023 6.777-4.023 6.777l-4.826 7.454c-4.827 0-4.828.021-8.045 0-3.251-.021-.837-3.41.804-4.066 1.576-.699 4.183 1.084 4.827 0 .804-1.355.804-2.71 0-4.066-.644-1.084-1.423-.209-2.414 0-1.072.226-3.217.271-3.217-1.355z" fill="#73ABFF" stroke="#fff" stroke-width=".3"/><path d="m313.362 69.318-6.436-1.355c1.062-1.362 3.092-6.12.772-6.12h-4.023c-1.609 0-2.413-1.085-2.413-2.71 0-1.627 1.072-2.034 1.609-2.034.268-.226.965-.406 1.609.678.643 1.084 2.145 1.355 3.218 1.355.536-.226 2.735-1.084 4.022-2.71 1.609-2.034-4.022-5.422-3.218-5.422 14.159 2.169 14.782 13.123 13.709 18.318-.804.452-4.022 0-4.022 0s2.413-5.421-.805-5.421-3.218 2.033-2.413 2.71c.804.678 0 2.711-1.609 2.711z" fill="#F3FC77" stroke="#fff" stroke-width=".3"/><path d="M290 66.587c.804-12.188 8.849-15.576 17.699-15.587 5.148-.008 4.827 3.618 4.022 5.432 0 0-1.609 2.71-4.022 2.71-4.023-.677-3.218-2.032-4.827-2.032-1.821 0-2.035 3.03-.805 4.066 1.609 1.355 1.963.27 4.827.27 3.218 0 1.609 4.248 0 6.507l-3.218-.678c-1.609-.678-3.379-1.762-4.022-.678-.805 1.356 0 1.752 0 2.71 0 .678-.483 2.034-2.414 2.034-2.413 0-2.413-1.355-2.413-2.033 0-.678.268-1.807.804-2.71L290 66.586z" fill="#019444" stroke="#fff" stroke-width=".3"/><path d="m298.285 88.986 14.364 2.714M303.914 94.414l-4.629-.511a.257.257 0 0 0-.285.255v0c0 .141.115.256.256.256h12.521m0-1.085.097.018c.644.118.558 1.067-.097 1.067v0m0-1.085v1.085m0-1.085L299 91.7M307.013 86.273l4.63.512a.256.256 0 0 0 .284-.255v0a.256.256 0 0 0-.256-.257h-12.52m0 1.086-.098-.018c-.644-.119-.557-1.068.098-1.068v0m0 1.086v-1.086m0 1.086 12.776 1.628" stroke="#9E9E9E" stroke-linecap="round"/><path d="M310.282 95.348c.552 0 1.013.464.797.972-.257.604-.752 1.16-1.447 1.61-1.057.685-2.491 1.07-3.985 1.07-1.495 0-2.928-.385-3.985-1.07-.695-.45-1.19-1.006-1.447-1.61-.216-.508.244-.972.797-.972h9.27z" fill="url(#f)"/></g><g filter="url(#g)"><path d="m134.474 81.638.236.472.459-.262 9.13-5.217.149-.085.065-.16 3.2-7.825.323-.791-.848.106c-5.276.66-9.273 2.382-11.554 4.816-1.146 1.223-1.86 2.629-2.07 4.159-.21 1.529.09 3.146.91 4.787zM159.819 75.974l-.236-.473-.459.262-9.13 5.217-.149.085-.065.16-3.2 7.825-.323.792.848-.106c5.276-.66 9.273-2.383 11.554-4.817 1.146-1.223 1.86-2.628 2.07-4.158.21-1.53-.09-3.147-.91-4.787z" fill="#FD5151" stroke="#C6FFC6"/><path d="m174.878 51.529.108-.403-.377-.178c-.206-.098-.456-.138-.703-.154a6.332 6.332 0 0 0-.887.016c-.66.052-1.484.182-2.415.373-1.865.383-4.201 1.021-6.6 1.813s-4.872 1.741-7.01 2.75c-2.125 1.004-3.966 2.088-5.06 3.162l-.001.001c-4.002 3.959-9.239 11.027-11.268 24.104l-.097.628.633-.053c15.822-1.318 23.074-9.183 25.138-11.936 1.967-2.623 3.297-4.615 4.54-7.486 1.236-2.858 2.379-6.573 3.999-12.637z" fill="#FD5151" stroke="#C6FFC6"/><circle cx="157.871" cy="66.156" r="3" fill="#C6FFC6"/><path d="M162.97 53.494C161.5 58.001 166.5 63.5 171.501 63" stroke="#C6FFC6"/></g><g filter="url(#h)" fill="#C191FF" stroke="#9747FF" stroke-width=".5"><rect x="34.75" y="129.68" width="22.186" height="14.3" rx="7.15"/><circle cx="51.755" cy="146.687" r="1.236"/><circle cx="55.701" cy="150.628" r="1.236"/></g><g filter="url(#i)" stroke="#57A2DD" stroke-width=".5"><rect x=".25" y="-.25" width="22.186" height="14.3" rx="7.15" transform="matrix(-1 0 0 1 73.012 127)" fill="#fff"/><circle cx=".986" cy=".986" r="1.236" transform="matrix(-1 0 0 1 56.742 142.771)" fill="#EDF4FF"/><circle cx=".986" cy=".986" r="1.236" transform="matrix(-1 0 0 1 52.797 146.713)" fill="#EDF4FF"/></g><g filter="url(#j)"><g filter="url(#k)"><path d="M316.423 157c2.109 0 2.636 1.909 2.636 2.864v17.184c0 3.409 0 2.864-2.636 2.864h-21.082c-2.108 0-2.635-1.91-2.635-2.864v-14.32c0-2.291 1.757-2.864 2.635-2.864h10.541l2.636-2.864h7.905z" fill="#EAB07F"/><path d="m308.15 156.661.148-.161h8.125c1.236 0 2.045.573 2.525 1.298.463.698.611 1.517.611 2.066V177.079c0 .825 0 1.45-.044 1.902-.042.437-.133.869-.455 1.153-.319.28-.746.307-1.11.309-.177.001-.378-.005-.595-.012l-.078-.003a26.025 26.025 0 0 0-.854-.016h-21.082c-1.235 0-2.044-.574-2.525-1.298-.462-.698-.61-1.517-.61-2.066v-14.32c0-1.292.504-2.156 1.18-2.685a3.284 3.284 0 0 1 1.955-.679h10.322l2.487-2.703z" stroke="#A07550"/></g><path fill="#fff" d="M294.59 161.361h22.588v17.456H294.59z"/><path d="M290.388 163.545h24.072a1 1 0 0 1 .965.736l4.229 15.456a1 1 0 0 1-.965 1.264h-25.15a1 1 0 0 1-.964-.736l-4.229-15.456a1 1 0 0 1 .964-1.264h1.078z" fill="#A07550" stroke="#A07550" stroke-width=".1"/></g><mask id="l" fill="#fff"><path d="M23.535 162.488h68.681v12.11h-68.68v-12.11z"/></mask><path d="M23.535 162.488h68.681v12.11h-68.68v-12.11z" fill="#7E9CF6"/><path d="M23.535 163.488h68.681v-2h-68.68v2z" fill="#3766AC" mask="url(#l)"/><path d="M22 159.125h72.781v3.364H22v-3.364z" fill="#7E9CF6"/><mask id="m" maskUnits="userSpaceOnUse" x="22.539" y="153.422" width="13" height="7" fill="#000"><path fill="#fff" d="M22.539 153.422h13v7h-13z"/><path d="M23.54 156.44c0-1.104.895-2.018 2-2.018h9.275v4.036h-9.276c-1.105 0-2-.913-2-2.018z"/></mask><path d="M23.54 156.44c0-1.104.895-2.018 2-2.018h9.275v4.036h-9.276c-1.105 0-2-.913-2-2.018z" fill="#fff"/><path d="M22.54 156.422a3 3 0 0 1 3-3h9.275v2h-9.276a1 1 0 0 0-1 1h-2zm12.275 3.036h-9.276a3 3 0 0 1-3-3h2a1 1 0 0 0 1 1h9.276v2zm-9.276 0a3 3 0 0 1-3-3v-.036a3 3 0 0 1 3-3v2a1 1 0 0 0-1 1v.036a1 1 0 0 0 1 1v2zm9.276-5.036v4.036-4.036z" fill="#FF6738" mask="url(#m)"/><path stroke="#FF6738" d="M34.816 153.922h1.026M34.816 158.633h1.026"/><mask id="n" maskUnits="userSpaceOnUse" x="23.051" y="148.709" width="12" height="6" fill="#000"><path fill="#fff" d="M23.051 148.709h12v6h-12z"/><path d="M24.05 151.391c0-.929.754-1.682 1.683-1.682h8.569v3.364h-8.57a1.682 1.682 0 0 1-1.681-1.682z"/></mask><path d="M24.05 151.391c0-.929.754-1.682 1.683-1.682h8.569v3.364h-8.57a1.682 1.682 0 0 1-1.681-1.682z" fill="#fff"/><path d="M23.05 151.391c0-1.481 1.201-2.682 2.683-2.682h8.569v2h-8.57a.682.682 0 0 0-.681.682h-2zm11.252 2.682h-8.57a2.682 2.682 0 0 1-2.681-2.682h2c0 .376.305.682.682.682h8.569v2zm-8.57 0a2.682 2.682 0 0 1 0-5.364v2a.682.682 0 1 0 0 1.364v2zm8.57-4.364v3.364-3.364z" fill="#FF6738" mask="url(#n)"/><path stroke="#FF6738" d="M34.301 149.209h.902M34.301 153.244h.902"/><path stroke="#D8DCDB" d="M24.566 150.553h5.638"/><path stroke="#B6A5B8" d="M28.664 151.898h5.638"/><path stroke="#9C9E9B" d="M25.59 155.938h5.638"/><path stroke="#D6D4D7" d="M28.668 157.283h5.638"/><mask id="o" maskUnits="userSpaceOnUse" x="75.328" y="149.379" width="16" height="6" fill="#000"><path fill="#fff" d="M75.328 149.379h16v6h-16z"/><path d="M76.328 152.061c0-.929.753-1.682 1.682-1.682h12.67v3.364H78.01a1.682 1.682 0 0 1-1.682-1.682z"/></mask><path d="M76.328 152.061c0-.929.753-1.682 1.682-1.682h12.67v3.364H78.01a1.682 1.682 0 0 1-1.682-1.682z" fill="#fff"/><path d="M75.328 152.061c0-1.481 1.2-2.682 2.682-2.682h12.67v2H78.01a.682.682 0 0 0-.682.682h-2zm15.351 2.682H78.01a2.682 2.682 0 0 1-2.682-2.682h2c0 .376.305.682.682.682h12.67v2zm-12.669 0a2.682 2.682 0 0 1 0-5.364v2a.682.682 0 1 0 0 1.364v2zm12.67-4.364v3.364-3.364z" fill="#F6A7FA" mask="url(#o)"/><path stroke="#F6A7FA" d="M90.477 149.879h1.23M90.68 153.914h1.025"/><mask id="p" maskUnits="userSpaceOnUse" x="73.789" y="154.086" width="17" height="6" fill="#000"><path fill="#fff" d="M73.789 154.086h17v6h-17z"/><path d="M74.79 156.768c0-.929.752-1.682 1.681-1.682h13.694v3.364H76.471a1.682 1.682 0 0 1-1.682-1.682z"/></mask><path d="M74.79 156.768c0-.929.752-1.682 1.681-1.682h13.694v3.364H76.471a1.682 1.682 0 0 1-1.682-1.682z" fill="#fff"/><path d="M73.79 156.768c0-1.481 1.2-2.682 2.681-2.682h13.694v2H76.471a.682.682 0 0 0-.682.682h-2zm16.375 2.682H76.471a2.682 2.682 0 0 1-2.682-2.682h2c0 .376.305.682.682.682h13.694v2zm-13.694 0a2.682 2.682 0 0 1 0-5.364v2a.682.682 0 1 0 0 1.364v2zm13.694-4.364v3.364-3.364z" fill="#F7DB60" mask="url(#p)"/><path stroke="#F7DB60" d="M89.879 154.586h1.312M89.879 158.621h1.312"/><path stroke="#979899" d="M77.352 151.896h4.1M77.352 151.896h4.1M81.449 150.551h4.101"/><path stroke="#646369" d="M81.449 150.551h4.101"/><path stroke="#979899" d="M76.328 157.279h6.663M76.328 157.279h6.663M78.891 155.934h6.15"/><path stroke="#646369" d="M78.891 155.934h6.15"/><path fill="#7A93ED" d="m41.89 145 1.467.268-.706 6.664-1.467-.268z"/><path fill="#6480E3" d="m42.938 145.191.419.077-.707 6.663-.42-.076z"/><path fill="#C94212" d="m38.305 145.191-.42.077.707 6.663.42-.076z"/><path fill="#D9E8FF" d="M39.262 154.471h.423v-6.728h-.423z"/><path fill="#8CD3CE" d="m43.434 147.068-.42.077.707 6.663.42-.076z"/><path fill="#D38CC4" d="m43.723 147.068.419.077-.707 6.663-.419-.076z"/><path fill="#A55C96" d="m44.234 147.744.42.077-.707 6.663-.42-.076z"/><path d="M38.402 151.104h6.15l-.512 8.073h-5.125l-.513-8.073z" fill="#FBD661"/><path d="M49.166 156.773c3.588.078 5.587-1.757 9.482.934M68.388 157.111c-3.075 1.009-5.586-2.094-9.482.597" stroke="#fff"/><path d="M49.168 158.106c5.728-.001 5.385-2.455 9.738.351" stroke="#EF6354" stroke-width="1.5" stroke-linecap="round"/><path d="M68.645 158.106c-5.729-.001-5.385-2.455-9.739.351" stroke="#EF6354" stroke-width="1.5" stroke-linecap="round"/><path d="M68.388 155.352c-3.075 1.009-5.586-1.008-9.482 1.683M49.166 155.766c2.82-1.266 7.689-.414 9.482 1.268" stroke="#fff"/><g filter="url(#q)"><g filter="url(#r)"><path d="M39.004 80.325a6.843 6.843 0 0 1-4.834-1.999 6.819 6.819 0 0 1 0-9.652 6.843 6.843 0 0 1 9.669 0 6.82 6.82 0 0 1 0 9.652 6.843 6.843 0 0 1-4.835 1.999zm14.513-4.934c.078-.624.137-1.248.137-1.891 0-.644-.059-1.287-.137-1.95l4.122-3.178a.983.983 0 0 0 .234-1.248l-3.906-6.747c-.235-.43-.762-.605-1.192-.43l-4.864 1.95c-1.015-.76-2.07-1.423-3.3-1.91l-.723-5.168A.987.987 0 0 0 42.91 54h-7.813a.987.987 0 0 0-.977.819l-.723 5.167c-1.23.488-2.285 1.151-3.3 1.912l-4.864-1.95a.96.96 0 0 0-1.192.428l-3.907 6.748a.96.96 0 0 0 .235 1.248l4.121 3.178a16.653 16.653 0 0 0-.136 1.95c0 .644.058 1.267.136 1.891l-4.121 3.237a.96.96 0 0 0-.235 1.248l3.907 6.748c.234.428.762.585 1.191.428l4.864-1.969c1.016.78 2.07 1.443 3.301 1.93l.723 5.168a.987.987 0 0 0 .977.819h7.813a.987.987 0 0 0 .977-.819l.722-5.168c1.23-.507 2.286-1.15 3.301-1.93l4.864 1.97c.43.156.957 0 1.192-.43l3.906-6.747a.983.983 0 0 0-.234-1.248l-4.122-3.237z" fill="url(#s)"/></g><path d="M38.238 77.521a1.857 1.857 0 0 0 0-3.714 1.857 1.857 0 0 0 0 3.714zm5.538-8.357c1.015 0 1.845.836 1.845 1.857v9.286c0 1.021-.83 1.857-1.846 1.857H32.702a1.857 1.857 0 0 1-1.846-1.857V71.02c0-1.021.831-1.857 1.846-1.857h.923v-1.857c0-2.6 2.03-4.643 4.614-4.643s4.615 2.043 4.615 4.643v1.857h.922zm-5.538-4.643c-1.569 0-2.768 1.207-2.768 2.786v1.857h5.537v-1.857c0-1.579-1.2-2.786-2.769-2.786zm11.075 9.286h-1.846v-5.572h1.846v5.572zm0 3.714h-1.846v-1.857h1.846v1.857z" fill="url(#t)"/></g><g filter="url(#u)"><path stroke="#BD2831" stroke-width=".5" d="M282.48 235.67v-9.38M290.367 225.506v-10.943M319.527 225.506v-10.943M295.879 232.537v-7.035M281.941 235.42h7.095M289.828 226.043h6.306"/><path transform="scale(1.00422 .99577) rotate(45 -132.23 467.368)" stroke="#BD2831" stroke-width=".5" d="M0-.25h3.33"/><path transform="matrix(-.71009 .70411 .71009 .70411 298.5 229.414)" stroke="#BD2831" stroke-width=".5" d="M0-.25h3.33"/><path transform="scale(1.00422 .99577) rotate(45 -112.876 492.656)" stroke="#BD2831" stroke-width=".5" d="M0-.25h3.33"/><path transform="scale(-1.00422 .99577) rotate(45 -430.923 -275.179)" stroke="#BD2831" stroke-width=".5" d="M0-.25h3.33"/><path transform="scale(1.00422 .99577) rotate(-45 431.269 -225.082)" stroke="#BD2831" stroke-width=".5" d="M0-.25h3.33"/><path transform="scale(1.00422 -.99577) rotate(-45 -139.16 -461.36)" stroke="#BD2831" stroke-width=".5" d="M0-.25h3.33"/><path stroke="#BD2831" stroke-width=".5" d="M301.648 235.42h7.883M289.828 215.086h29.955"/><path fill="#FFBF75" stroke="#BD2831" stroke-width=".5" d="M277.75 208.844h9.171v17.696h-9.171z"/><path fill="#2DA639" stroke="#BD2831" stroke-width=".5" d="M289.578 239.045v-6.753h11.536v6.753z"/><path d="m303.862 220.232.142.104.146-.097 8.278-5.472.313-.207-.314-.207-8.278-5.477-.146-.097-.142.104-7.488 5.476-.274.201.275.2 7.488 5.472z" fill="#4BFBF0" stroke="#BD2831" stroke-width=".5"/><g filter="url(#v)"><ellipse cx="320.177" cy="236.058" rx="10.642" ry="10.552" fill="#90EA66"/><path d="M320.177 246.86c6.013 0 10.892-4.834 10.892-10.802s-4.879-10.802-10.892-10.802-10.892 4.834-10.892 10.802 4.879 10.802 10.892 10.802z" stroke="#106D19" stroke-width=".5"/></g><path d="m314.945 236.7 2.644 2.621a.499.499 0 0 0 .704 0l7.635-7.571" stroke="#D32F2F" stroke-linecap="round"/><path d="m314.945 236.7 2.644 2.621a.499.499 0 0 0 .704 0l7.635-7.571" stroke="#D32F2F" stroke-linecap="round"/><path d="m314.945 236.7 2.644 2.621a.499.499 0 0 0 .704 0l7.635-7.571" stroke="#106D19" stroke-linecap="round"/></g></g></g><defs><filter id="k" x="283.707" y="156" width="44.352" height="40.943" filterUnits="userSpaceOnUse" color-interpolation-filters="sRGB"><feFlood flood-opacity="0" result="BackgroundImageFix"/><feColorMatrix in="SourceAlpha" values="0 0 0 0 0 0 0 0 0 0 0 0 0 0 0 0 0 0 127 0" result="hardAlpha"/><feOffset dy="8"/><feGaussianBlur stdDeviation="4"/><feComposite in2="hardAlpha" operator="out"/><feColorMatrix values="0 0 0 0 0 0 0 0 0 0 0 0 0 0 0 0 0 0 0.1 0"/><feBlend in2="BackgroundImageFix" result="effect1_dropShadow_884_16798"/><feBlend in="SourceGraphic" in2="effect1_dropShadow_884_16798" result="shape"/></filter><filter id="a" x="0" y="0" width="352" height="289" filterUnits="userSpaceOnUse" color-interpolation-filters="sRGB"><feFlood flood-opacity="0" result="BackgroundImageFix"/><feColorMatrix in="SourceAlpha" values="0 0 0 0 0 0 0 0 0 0 0 0 0 0 0 0 0 0 127 0" result="hardAlpha"/><feOffset dx="2" dy="2"/><feGaussianBlur stdDeviation="4"/><feComposite in2="hardAlpha" operator="out"/><feColorMatrix values="0 0 0 0 0 0 0 0 0 0 0 0 0 0 0 0 0 0 0.25 0"/><feBlend in2="BackgroundImageFix" result="effect1_dropShadow_884_16798"/><feBlend in="SourceGraphic" in2="effect1_dropShadow_884_16798" result="shape"/></filter><filter id="d" x="148.09" y="114.447" width="50.117" height="61.363" filterUnits="userSpaceOnUse" color-interpolation-filters="sRGB"><feFlood flood-opacity="0" result="BackgroundImageFix"/><feColorMatrix in="SourceAlpha" values="0 0 0 0 0 0 0 0 0 0 0 0 0 0 0 0 0 0 127 0" result="hardAlpha"/><feOffset dy="4"/><feGaussianBlur stdDeviation="2"/><feComposite in2="hardAlpha" operator="out"/><feColorMatrix values="0 0 0 0 0 0 0 0 0 0 0 0 0 0 0 0 0 0 0.25 0"/><feBlend in2="BackgroundImageFix" result="effect1_dropShadow_884_16798"/><feBlend in="SourceGraphic" in2="effect1_dropShadow_884_16798" result="shape"/></filter><filter id="e" x="283" y="44" width="46.559" height="61" filterUnits="userSpaceOnUse" color-interpolation-filters="sRGB"><feFlood flood-opacity="0" result="BackgroundImageFix"/><feColorMatrix in="SourceAlpha" values="0 0 0 0 0 0 0 0 0 0 0 0 0 0 0 0 0 0 127 0" result="hardAlpha"/><feOffset/><feGaussianBlur stdDeviation="3"/><feComposite in2="hardAlpha" operator="out"/><feColorMatrix values="0 0 0 0 1 0 0 0 0 0.952941 0 0 0 0 0.533333 0 0 0 1 0"/><feBlend in2="BackgroundImageFix" result="effect1_dropShadow_884_16798"/><feBlend in="SourceGraphic" in2="effect1_dropShadow_884_16798" result="shape"/></filter><filter id="g" x="129" y="50.285" width="50.578" height="48.158" filterUnits="userSpaceOnUse" color-interpolation-filters="sRGB"><feFlood flood-opacity="0" result="BackgroundImageFix"/><feColorMatrix in="SourceAlpha" values="0 0 0 0 0 0 0 0 0 0 0 0 0 0 0 0 0 0 127 0" result="hardAlpha"/><feOffset dy="4"/><feGaussianBlur stdDeviation="2"/><feComposite in2="hardAlpha" operator="out"/><feColorMatrix values="0 0 0 0 0 0 0 0 0 0 0 0 0 0 0 0 0 0 0.25 0"/><feBlend in2="BackgroundImageFix" result="effect1_dropShadow_884_16798"/><feBlend in="SourceGraphic" in2="effect1_dropShadow_884_16798" result="shape"/></filter><filter id="h" x="30.5" y="129.43" width="30.688" height="30.684" filterUnits="userSpaceOnUse" color-interpolation-filters="sRGB"><feFlood flood-opacity="0" result="BackgroundImageFix"/><feColorMatrix in="SourceAlpha" values="0 0 0 0 0 0 0 0 0 0 0 0 0 0 0 0 0 0 127 0" result="hardAlpha"/><feOffset dy="4"/><feGaussianBlur stdDeviation="2"/><feComposite in2="hardAlpha" operator="out"/><feColorMatrix values="0 0 0 0 0 0 0 0 0 0 0 0 0 0 0 0 0 0 0.25 0"/><feBlend in2="BackgroundImageFix" result="effect1_dropShadow_884_16798"/><feBlend in="SourceGraphic" in2="effect1_dropShadow_884_16798" result="shape"/></filter><filter id="i" x="46.324" y="126.5" width="30.688" height="30.684" filterUnits="userSpaceOnUse" color-interpolation-filters="sRGB"><feFlood flood-opacity="0" result="BackgroundImageFix"/><feColorMatrix in="SourceAlpha" values="0 0 0 0 0 0 0 0 0 0 0 0 0 0 0 0 0 0 127 0" result="hardAlpha"/><feOffset dy="4"/><feGaussianBlur stdDeviation="2"/><feComposite in2="hardAlpha" operator="out"/><feColorMatrix values="0 0 0 0 0 0 0 0 0 0 0 0 0 0 0 0 0 0 0.25 0"/><feBlend in2="BackgroundImageFix" result="effect1_dropShadow_884_16798"/><feBlend in="SourceGraphic" in2="effect1_dropShadow_884_16798" result="shape"/></filter><filter id="j" x="284.258" y="156" width="39.801" height="33.051" filterUnits="userSpaceOnUse" color-interpolation-filters="sRGB"><feFlood flood-opacity="0" result="BackgroundImageFix"/><feColorMatrix in="SourceAlpha" values="0 0 0 0 0 0 0 0 0 0 0 0 0 0 0 0 0 0 127 0" result="hardAlpha"/><feOffset dy="4"/><feGaussianBlur stdDeviation="2"/><feComposite in2="hardAlpha" operator="out"/><feColorMatrix values="0 0 0 0 0 0 0 0 0 0 0 0 0 0 0 0 0 0 0.25 0"/><feBlend in2="BackgroundImageFix" result="effect1_dropShadow_884_16798"/><feBlend in="SourceGraphic" in2="effect1_dropShadow_884_16798" result="shape"/></filter><filter id="c" x="122" y="94" width="104" height="104" filterUnits="userSpaceOnUse" color-interpolation-filters="sRGB"><feFlood flood-opacity="0" result="BackgroundImageFix"/><feColorMatrix in="SourceAlpha" values="0 0 0 0 0 0 0 0 0 0 0 0 0 0 0 0 0 0 127 0" result="hardAlpha"/><feOffset dy="4"/><feGaussianBlur stdDeviation="2"/><feComposite in2="hardAlpha" operator="out"/><feColorMatrix values="0 0 0 0 0 0 0 0 0 0 0 0 0 0 0 0 0 0 0.25 0"/><feBlend in2="BackgroundImageFix" result="effect1_dropShadow_884_16798"/><feBlend in="SourceGraphic" in2="effect1_dropShadow_884_16798" result="shape"/></filter><filter id="q" x="12" y="54" width="54" height="55" filterUnits="userSpaceOnUse" color-interpolation-filters="sRGB"><feFlood flood-opacity="0" result="BackgroundImageFix"/><feColorMatrix in="SourceAlpha" values="0 0 0 0 0 0 0 0 0 0 0 0 0 0 0 0 0 0 127 0" result="hardAlpha"/><feOffset dy="8"/><feGaussianBlur stdDeviation="4"/><feComposite in2="hardAlpha" operator="out"/><feColorMatrix values="0 0 0 0 0 0 0 0 0 0 0 0 0 0 0 0 0 0 0.2 0"/><feBlend in2="BackgroundImageFix" result="effect1_dropShadow_884_16798"/><feBlend in="SourceGraphic" in2="effect1_dropShadow_884_16798" result="shape"/></filter><filter id="r" x="16" y="54" width="46" height="47" filterUnits="userSpaceOnUse" color-interpolation-filters="sRGB"><feFlood flood-opacity="0" result="BackgroundImageFix"/><feColorMatrix in="SourceAlpha" values="0 0 0 0 0 0 0 0 0 0 0 0 0 0 0 0 0 0 127 0" result="hardAlpha"/><feOffset dy="4"/><feGaussianBlur stdDeviation="2"/><feComposite in2="hardAlpha" operator="out"/><feColorMatrix values="0 0 0 0 0 0 0 0 0 0 0 0 0 0 0 0 0 0 0.25 0"/><feBlend in2="BackgroundImageFix" result="effect1_dropShadow_884_16798"/><feBlend in="SourceGraphic" in2="effect1_dropShadow_884_16798" result="shape"/></filter><filter id="u" x="273.5" y="208.475" width="61.82" height="46.637" filterUnits="userSpaceOnUse" color-interpolation-filters="sRGB"><feFlood flood-opacity="0" result="BackgroundImageFix"/><feColorMatrix in="SourceAlpha" values="0 0 0 0 0 0 0 0 0 0 0 0 0 0 0 0 0 0 127 0" result="hardAlpha"/><feOffset dy="4"/><feGaussianBlur stdDeviation="2"/><feComposite in2="hardAlpha" operator="out"/><feColorMatrix values="0 0 0 0 0 0 0 0 0 0 0 0 0 0 0 0 0 0 0.25 0"/><feBlend in2="BackgroundImageFix" result="effect1_dropShadow_884_16798"/><feBlend in="SourceGraphic" in2="effect1_dropShadow_884_16798" result="shape"/></filter><filter id="v" x="305.035" y="225.006" width="30.285" height="30.105" filterUnits="userSpaceOnUse" color-interpolation-filters="sRGB"><feFlood flood-opacity="0" result="BackgroundImageFix"/><feColorMatrix in="SourceAlpha" values="0 0 0 0 0 0 0 0 0 0 0 0 0 0 0 0 0 0 127 0" result="hardAlpha"/><feOffset dy="4"/><feGaussianBlur stdDeviation="2"/><feComposite in2="hardAlpha" operator="out"/><feColorMatrix values="0 0 0 0 0 0 0 0 0 0 0 0 0 0 0 0 0 0 0.25 0"/><feBlend in2="BackgroundImageFix" result="effect1_dropShadow_884_16798"/><feBlend in="SourceGraphic" in2="effect1_dropShadow_884_16798" result="shape"/></filter><linearGradient id="s" x1="20" y1="54" x2="57.914" y2="93.083" gradientUnits="userSpaceOnUse"><stop stop-color="#FE8B8B"/><stop offset=".475" stop-color="#FE8C8C"/><stop offset="1" stop-color="#F70000"/></linearGradient><linearGradient id="t" x1="30.855" y1="62.664" x2="49.432" y2="82.049" gradientUnits="userSpaceOnUse"><stop stop-color="#FFFB95"/><stop offset=".49" stop-color="#F9F366"/><stop offset="1" stop-color="#F2EB4D"/></linearGradient><radialGradient id="f" cx="0" cy="0" r="1" gradientUnits="userSpaceOnUse" gradientTransform="matrix(0 2.08711 -3.22011 0 305.647 96.913)"><stop stop-color="#242427"/><stop offset="1" stop-color="#525259"/></radialGradient><clipPath id="b"><rect x="6" y="6" width="336" height="273" rx="30" fill="#fff"/></clipPath></defs></svg>