<svg width="352" height="282" fill="none" xmlns="http://www.w3.org/2000/svg"><g filter="url(#a)"><g clip-path="url(#b)"><rect x="6" y="6" width="336" height="266" rx="30" fill="#fff"/><rect x="6" y="6" width="336" height="266" rx="30" fill="#F2FEFE"/><path d="M154 6v69M304.707 225c-.221 4.737-3.051 13.953-12.601 12.92M43 84.453v73.649M304.703 84.453l.303 76.547M53.664 75h239.413M54.633 169h249.105M43 84.387c.221-3.421 3.05-10.075 12.6-9.33M304.707 84.387c-.221-3.421-3.051-10.075-12.601-9.33M43 156c.221 4.737 3.05 13.953 12.6 12.92M304.707 156v70M154 236v36M165 227h140M154 236.387c.221-3.421 3.051-10.075 12.601-9.329" stroke="#C5FFFF" stroke-width="5" stroke-linecap="round" stroke-linejoin="round" stroke-dasharray="15 15"/><g filter="url(#c)"><rect x="75" y="61" width="73" height="62.141" rx="4" fill="#fff"/></g><rect x="81.031" y="67.033" width="60.934" height="24.132" rx="4" fill="#EFEEF3"/><path d="M88.262 81.156h4.223M99.723 81.098h5.43M94.637 83.78l-1.2-6.806M96.566 74.457l-1.676 9.506M96.688 74.457l2.095 11.882M99.723 81.094l-.943 5.347M93.316 76.848l-.758 4.303M115.414 81.219h5.43M128.988 80.977h6.034M123.258 83.664l-1.393-6.805M125.25 74.342l-1.946 9.506M125.25 74.342l2.432 11.882M128.867 80.977l-1.094 5.347M121.805 76.732l-.881 4.304M105.91 76.848l-.759 4.303M106.062 76.848l1.258 7.13M114.387 75.549l.995 5.644M109.426 72.022l-2.095 11.882M114.328 75.428l-2.095 11.882M109.441 71.86l2.724 15.446" stroke="#9747FF" stroke-linecap="round"/><rect x="81.031" y="95.389" width="28.959" height="2.413" rx="1.207" fill="#D9D9D9"/><rect x="81.031" y="100.215" width="28.959" height="1.207" rx=".603" fill="#F2F3F4"/><rect x="81.031" y="105.041" width="28.959" height="1.207" rx=".603" fill="#F2F3F4"/><rect x="81.031" y="109.867" width="28.959" height="1.207" rx=".603" fill="#F2F3F4"/><rect x="113.008" y="95.389" width="28.959" height="2.413" rx="1.207" fill="#D9D9D9"/><rect x="113.008" y="100.215" width="28.959" height="1.207" rx=".603" fill="#F2F3F4"/><rect x="113.008" y="105.041" width="28.959" height="1.207" rx=".603" fill="#F2F3F4"/><rect x="120.352" y="111.781" width="22.116" height="5.826" rx="2.5" stroke="#60BB42"/><g filter="url(#d)"><path d="M61.816 150.035h-.5V162.5h47.709a1.5 1.5 0 0 0 1.322-.791l5.864-10.938.394-.736H61.816z" fill="#F7DB71" stroke="#EDE48E"/><path d="M69.125 152.953h0a.488.488 0 0 0-.347-.144l.347.144zm0 0 1.74 1.739h0m-1.74-1.739 1.74 1.739m0 0a.49.49 0 0 1 .143.347h.25-.25m-.144-.347.144.347m-.144 2.805h0a.49.49 0 0 0 .144-.348s0 0 0 0m-.144.348.394-2.805v2.457h-.25m-.144.348-1.739 1.739h0m1.74-1.739-1.74 1.739m1.883-2.087v-2.457m0 2.457v-2.457m-1.883 4.544a.493.493 0 0 1-.347.144s0 0 0 0m.347-.144-.347.144m-2.805-.144h0a.493.493 0 0 0 .348.144s0 0 0 0m-.348-.144.348.144m-.348-.144-1.739-1.739h0m1.739 1.739-1.739-1.739m2.087 1.883h2.457m-2.457 0h2.457m-4.544-1.883a.491.491 0 0 1-.144-.348m.144.348-.144-.348m.144-2.804h0a.49.49 0 0 0-.144.347l.144-.347zm0 0 1.739-1.739h0m-1.739 1.739 1.739-1.739m0 0a.488.488 0 0 1 .348-.144m-.348.144.348-.144m-2.231 4.687s0 0 0 0m0 0v0m0 0v-2.457 2.457zm2.23-4.687s0 0 0 0m0 0h0m0 0h2.458-2.457zm1.23 4.693a.25.25 0 0 0 0 .5h.003a.25.25 0 0 0 0-.5h-.004zm.25-2.718a.25.25 0 0 0-.5 0v1.484a.25.25 0 0 0 .5 0v-1.484z" fill="#3766AC" stroke="#F7DB71" stroke-width=".5" stroke-linecap="round" stroke-linejoin="round"/><path d="M73.957 156.268c0-.931.755-1.686 1.686-1.686h30.349a1.686 1.686 0 0 1 0 3.372H75.643a1.686 1.686 0 0 1-1.686-1.686z" fill="#3766AC"/></g><g filter="url(#e)"><path d="M49 132.5h-.5v12.465h47.708a1.5 1.5 0 0 0 1.322-.791l5.864-10.938.395-.736H49z" fill="#D32F2F" stroke="#BD2831"/><mask id="f" fill="#fff"><path d="m58.343 141.207-2.965-5.766a.794.794 0 0 0-.272-.306.688.688 0 0 0-.373-.112.688.688 0 0 0-.373.112.794.794 0 0 0-.272.306l-2.965 5.766a.89.89 0 0 0 .001.826c.066.126.16.23.274.301a.685.685 0 0 0 .373.108h5.93c.13 0 .258-.038.37-.111a.784.784 0 0 0 .272-.301.893.893 0 0 0 0-.823zM54.736 137.5v1.647zM54.736 140.795h.004z"/></mask><path d="m58.343 141.207-2.965-5.766a.794.794 0 0 0-.272-.306.688.688 0 0 0-.373-.112.688.688 0 0 0-.373.112.794.794 0 0 0-.272.306l-2.965 5.766a.89.89 0 0 0 .001.826c.066.126.16.23.274.301a.685.685 0 0 0 .373.108h5.93c.13 0 .258-.038.37-.111a.784.784 0 0 0 .272-.301.893.893 0 0 0 0-.823zM54.736 137.5v1.647zM54.736 140.795h.004z" fill="#fff"/><path d="m58.343 141.207-.445.228.001.002.444-.23zm-2.965-5.766-.446.227.001.002.445-.229zm-.645-.418v.5-.5zm-.645.418.444.229.001-.002-.445-.227zm-2.965 5.766.443.23.001-.002-.444-.228zm.648 1.235v-.5h-.005l.005.5zm5.93 0v.5h.001v-.5zm-2.465-4.942a.5.5 0 0 0-1 0h1zm-1 1.647a.5.5 0 1 0 1 0h-1zm.5 1.148a.5.5 0 0 0 0 1v-1zm.004 1a.5.5 0 0 0 0-1v1zm4.047-.317-2.965-5.766-.889.458 2.965 5.765.89-.457zm-2.964-5.764a1.281 1.281 0 0 0-.445-.498l-.544.839c.036.023.071.06.098.113l.891-.454zm-.445-.498a1.187 1.187 0 0 0-.645-.193v1c.032 0 .066.01.101.032l.544-.839zm-.645-.193c-.23 0-.453.069-.645.193l.543.839a.191.191 0 0 1 .102-.032v-1zm-.645.193a1.281 1.281 0 0 0-.446.498l.891.454a.289.289 0 0 1 .098-.113l-.543-.839zm-.445.496-2.965 5.766.89.457 2.965-5.765-.89-.458zm-2.964 5.764a1.393 1.393 0 0 0-.156.645l1-.002a.4.4 0 0 1 .043-.182l-.887-.461zm-.156.645c0 .224.054.446.159.645l.885-.465a.395.395 0 0 1-.044-.182l-1 .002zm.159.645c.104.199.257.37.45.491l.533-.845a.293.293 0 0 1-.098-.111l-.885.465zm.45.491c.192.122.415.187.644.185l-.01-1a.186.186 0 0 1-.1-.03l-.535.845zm.64.185h5.93v-1h-5.93v1zm5.93 0c.229 0 .45-.068.64-.19l-.54-.841a.187.187 0 0 1-.101.031l.001 1zm.64-.19c.19-.122.342-.294.445-.492l-.888-.461a.288.288 0 0 1-.097.112l.54.841zm.445-.492c.103-.198.155-.419.155-.642h-1a.39.39 0 0 1-.043.181l.888.461zm.155-.642c0-.223-.053-.444-.156-.642l-.887.461a.395.395 0 0 1 .043.181h1zm-4.706-4.118v1.647h1V137.5h-1zm.5 3.795h.004v-1h-.004v1z" fill="#BD2831" mask="url(#f)"/><path d="M93.175 136.547H62.828a2.186 2.186 0 0 0 0 4.372h30.349a2.186 2.186 0 0 0 0-4.372z" fill="#fff" stroke="#BD2831"/></g><g filter="url(#g)"><rect x="228" y="124" width="38" height="38" rx="2" fill="#6AB772"/><path d="M244.146 145.409h-3.952l-.728 2.015h-1.248l3.276-9.009h1.365l3.263 9.009h-1.248l-.728-2.015zm-.338-.962-1.638-4.576-1.638 4.576h3.276zm3.46-.611c0-.728.147-1.365.442-1.911a3.197 3.197 0 0 1 1.209-1.287 3.361 3.361 0 0 1 1.729-.455c.624 0 1.165.134 1.625.403.459.268.801.606 1.027 1.014v-1.3h1.196v7.124H253.3v-1.326c-.234.416-.585.762-1.053 1.04-.46.268-.997.403-1.612.403a3.228 3.228 0 0 1-1.716-.468 3.275 3.275 0 0 1-1.209-1.313c-.295-.564-.442-1.205-.442-1.924zm6.032.013c0-.538-.109-1.006-.325-1.404a2.242 2.242 0 0 0-.884-.91 2.316 2.316 0 0 0-1.209-.325c-.442 0-.845.104-1.209.312a2.257 2.257 0 0 0-.871.91c-.217.398-.325.866-.325 1.404 0 .546.108 1.022.325 1.43.216.398.507.706.871.923.364.208.767.312 1.209.312.442 0 .845-.104 1.209-.312a2.34 2.34 0 0 0 .884-.923c.216-.408.325-.88.325-1.417z" fill="#fff"/><path stroke="#235811" d="M232.5 150.484v5M261.664 150.484v5M232 154.984h30M238.332 152.359v3.125M244.164 152.359v3.125M250.004 152.359v3.125M255.836 152.359v3.125"/></g><g filter="url(#h)"><rect x="190.855" y="58.5" width="86.645" height="34.548" rx="1.5" fill="#fff" stroke="#417B88"/><rect x="197.098" y="64.742" width="14.71" height="3.065" rx="1.532" fill="#D7D8DA"/><rect x="197.098" y="73.322" width="22.677" height="2.452" rx="1.226" fill="#EBEBED"/><rect x="223.453" y="73.322" width="11.645" height="2.452" rx="1.226" fill="#EBEBED"/><rect x="249.559" y="73.686" width="9.081" height="4.177" rx="1.25" fill="#fff" stroke="#235811" stroke-width=".5"/><rect x="262.43" y="73.686" width="9.081" height="4.177" rx="1.25" fill="#3B8E1F" stroke="#235811" stroke-width=".5"/><rect x="214.871" y="64.742" width="30.645" height="3.065" rx="1.532" fill="#D7D8DA"/><path d="M262.811 91.281v-2.145a.86.86 0 0 0-.25-.607.851.851 0 0 0-1.457.607" fill="#fff"/><path d="M261.104 90.852v-2.574a.86.86 0 0 0-.25-.607.851.851 0 0 0-1.457.607v.858" fill="#fff"/><path d="M259.397 91.067v-1.93a.86.86 0 0 0-.25-.608.851.851 0 0 0-1.457.607v3.432" fill="#fff"/><path d="M262.811 89.994a.86.86 0 0 1 .25-.607.851.851 0 0 1 1.457.607v2.574c0 .91-.36 1.784-1 2.427a3.405 3.405 0 0 1-2.414 1.006h-.854c-1.195 0-1.92-.37-2.556-1.004l-1.536-1.545a.86.86 0 0 1 .614-1.433.85.85 0 0 1 .593.223l.751.755" fill="#fff"/><path d="M262.811 91.281v-2.145a.86.86 0 0 0-.25-.607.851.851 0 0 0-1.457.607m0 1.716v-2.574a.86.86 0 0 0-.25-.607.851.851 0 0 0-1.457.607v.858m0 0v1.93m0-1.93a.86.86 0 0 0-.25-.607.851.851 0 0 0-1.457.607v3.432m5.121-2.574a.86.86 0 0 1 .25-.607.851.851 0 0 1 1.457.607v2.574c0 .91-.36 1.784-1 2.427a3.405 3.405 0 0 1-2.414 1.006h-.854c-1.195 0-1.92-.37-2.556-1.004l-1.536-1.545a.86.86 0 0 1 .614-1.433.85.85 0 0 1 .593.223l.751.755" stroke="#000" stroke-width=".5" stroke-linecap="round" stroke-linejoin="round"/><path d="M208.102 80.947v.444h-1.14v3.738h-.546V81.39h-1.146v-.444h2.832zm.469 2.526c0-.336.068-.63.204-.882a1.482 1.482 0 0 1 1.356-.804c.288 0 .538.062.75.186.212.124.37.28.474.468v-.6h.552v3.288h-.552v-.612c-.108.192-.27.352-.486.48-.212.124-.46.186-.744.186a1.49 1.49 0 0 1-1.35-.822 1.887 1.887 0 0 1-.204-.888zm2.784.006c0-.248-.05-.464-.15-.648a1.033 1.033 0 0 0-.408-.42 1.07 1.07 0 0 0-.558-.15c-.204 0-.39.048-.558.144a1.045 1.045 0 0 0-.402.42c-.1.184-.15.4-.15.648 0 .252.05.472.15.66.1.184.234.326.402.426.168.096.354.144.558.144.204 0 .39-.048.558-.144.172-.1.308-.242.408-.426.1-.188.15-.406.15-.654zm2.638 1.704c-.252 0-.478-.042-.678-.126a1.178 1.178 0 0 1-.474-.36.973.973 0 0 1-.192-.534h.564a.556.556 0 0 0 .228.402c.14.104.322.156.546.156.208 0 .372-.046.492-.138a.422.422 0 0 0 .18-.348.337.337 0 0 0-.192-.318 2.57 2.57 0 0 0-.594-.21 4.888 4.888 0 0 1-.6-.192 1.14 1.14 0 0 1-.396-.294.789.789 0 0 1-.162-.516c0-.168.05-.322.15-.462.1-.14.242-.25.426-.33.184-.084.394-.126.63-.126.364 0 .658.092.882.276.224.184.344.436.36.756h-.546a.56.56 0 0 0-.21-.414c-.124-.104-.292-.156-.504-.156-.196 0-.352.042-.468.126a.39.39 0 0 0-.174.33c0 .108.034.198.102.27.072.068.16.124.264.168.108.04.256.086.444.138.236.064.428.128.576.192.148.06.274.152.378.276a.737.737 0 0 1 .168.486c0 .18-.05.342-.15.486-.1.144-.242.258-.426.342-.18.08-.388.12-.624.12zm3.807-.054-1.29-1.452v1.452h-.546v-4.44h.546v2.61l1.266-1.458h.762l-1.548 1.638 1.554 1.65h-.744zm4.177.042c-.276 0-.524-.048-.744-.144a1.27 1.27 0 0 1-.51-.408 1.06 1.06 0 0 1-.192-.606h.582c.02.196.1.362.24.498.144.132.352.198.624.198.26 0 .464-.064.612-.192a.638.638 0 0 0 .228-.504c0-.16-.044-.29-.132-.39a.843.843 0 0 0-.33-.228 5.156 5.156 0 0 0-.534-.168 4.851 4.851 0 0 1-.666-.216 1.106 1.106 0 0 1-.426-.336c-.116-.156-.174-.364-.174-.624a1.076 1.076 0 0 1 .66-1.014c.212-.096.454-.144.726-.144.392 0 .712.098.96.294.252.196.394.456.426.78h-.6a.637.637 0 0 0-.252-.42c-.148-.124-.344-.186-.588-.186a.842.842 0 0 0-.558.18c-.144.116-.216.28-.216.492 0 .152.042.276.126.372.088.096.194.17.318.222.128.048.306.104.534.168.276.076.498.152.666.228.168.072.312.186.432.342.12.152.18.36.18.624 0 .204-.054.396-.162.576a1.19 1.19 0 0 1-.48.438 1.584 1.584 0 0 1-.75.168zm5.112-3.33v3.288h-.546v-.486c-.104.168-.25.3-.438.396a1.35 1.35 0 0 1-.612.138c-.256 0-.486-.052-.69-.156a1.194 1.194 0 0 1-.486-.48 1.593 1.593 0 0 1-.174-.774V81.84h.54v1.854c0 .324.082.574.246.75.164.172.388.258.672.258.292 0 .522-.09.69-.27.168-.18.252-.442.252-.786V81.84h.546zm.718 1.638c0-.34.068-.636.204-.888a1.47 1.47 0 0 1 .564-.594c.244-.14.522-.21.834-.21.404 0 .736.098.996.294.264.196.438.468.522.816h-.588a.84.84 0 0 0-.33-.474.996.996 0 0 0-.6-.174.963.963 0 0 0-.756.324c-.192.212-.288.514-.288.906 0 .396.096.702.288.918a.963.963 0 0 0 .756.324c.24 0 .44-.056.6-.168a.852.852 0 0 0 .33-.48h.588a1.46 1.46 0 0 1-.528.81c-.264.2-.594.3-.99.3-.312 0-.59-.07-.834-.21a1.47 1.47 0 0 1-.564-.594 1.891 1.891 0 0 1-.204-.9zm3.644 0c0-.34.068-.636.204-.888a1.47 1.47 0 0 1 .564-.594c.244-.14.522-.21.834-.21.404 0 .736.098.996.294.264.196.438.468.522.816h-.588a.84.84 0 0 0-.33-.474.996.996 0 0 0-.6-.174.963.963 0 0 0-.756.324c-.192.212-.288.514-.288.906 0 .396.096.702.288.918a.963.963 0 0 0 .756.324c.24 0 .44-.056.6-.168a.852.852 0 0 0 .33-.48h.588a1.46 1.46 0 0 1-.528.81c-.264.2-.594.3-.99.3-.312 0-.59-.07-.834-.21a1.47 1.47 0 0 1-.564-.594 1.891 1.891 0 0 1-.204-.9zm6.849-.12c0 .104-.006.214-.018.33h-2.628c.02.324.13.578.33.762.204.18.45.27.738.27.236 0 .432-.054.588-.162a.884.884 0 0 0 .336-.444h.588a1.428 1.428 0 0 1-.528.774c-.264.196-.592.294-.984.294-.312 0-.592-.07-.84-.21a1.497 1.497 0 0 1-.576-.594c-.14-.26-.21-.56-.21-.9 0-.34.068-.638.204-.894.136-.256.326-.452.57-.588.248-.14.532-.21.852-.21.312 0 .588.068.828.204.24.136.424.324.552.564.132.236.198.504.198.804zm-.564-.114a.992.992 0 0 0-.138-.534.868.868 0 0 0-.378-.342c-.156-.08-.33-.12-.522-.12-.276 0-.512.088-.708.264-.192.176-.302.42-.33.732h2.076zm2.449 1.938c-.252 0-.478-.042-.678-.126a1.178 1.178 0 0 1-.474-.36.973.973 0 0 1-.192-.534h.564a.556.556 0 0 0 .228.402c.14.104.322.156.546.156.208 0 .372-.046.492-.138a.422.422 0 0 0 .18-.348.337.337 0 0 0-.192-.318 2.57 2.57 0 0 0-.594-.21 4.888 4.888 0 0 1-.6-.192 1.14 1.14 0 0 1-.396-.294.789.789 0 0 1-.162-.516c0-.168.05-.322.15-.462.1-.14.242-.25.426-.33.184-.084.394-.126.63-.126.364 0 .658.092.882.276.224.184.344.436.36.756h-.546a.56.56 0 0 0-.21-.414c-.124-.104-.292-.156-.504-.156-.196 0-.352.042-.468.126a.39.39 0 0 0-.174.33c0 .108.034.198.102.27.072.068.16.124.264.168.108.04.256.086.444.138.236.064.428.128.576.192.148.06.274.152.378.276a.737.737 0 0 1 .168.486c0 .18-.05.342-.15.486-.1.144-.242.258-.426.342-.18.08-.388.12-.624.12zm3.134 0c-.252 0-.478-.042-.678-.126a1.178 1.178 0 0 1-.474-.36.973.973 0 0 1-.192-.534h.564a.556.556 0 0 0 .228.402c.14.104.322.156.546.156.208 0 .372-.046.492-.138a.422.422 0 0 0 .18-.348.337.337 0 0 0-.192-.318 2.57 2.57 0 0 0-.594-.21 4.888 4.888 0 0 1-.6-.192 1.14 1.14 0 0 1-.396-.294.789.789 0 0 1-.162-.516c0-.168.05-.322.15-.462.1-.14.242-.25.426-.33.184-.084.394-.126.63-.126.364 0 .658.092.882.276.224.184.344.436.36.756h-.546a.56.56 0 0 0-.21-.414c-.124-.104-.292-.156-.504-.156-.196 0-.352.042-.468.126a.39.39 0 0 0-.174.33c0 .108.034.198.102.27.072.068.16.124.264.168.108.04.256.086.444.138.236.064.428.128.576.192.148.06.274.152.378.276a.737.737 0 0 1 .168.486c0 .18-.05.342-.15.486-.1.144-.242.258-.426.342-.18.08-.388.12-.624.12zm3.309-2.892h-.69v2.838h-.546V82.29h-.426v-.45h.426v-.234c0-.368.094-.636.282-.804.192-.172.498-.258.918-.258V81c-.24 0-.41.048-.51.144-.096.092-.144.246-.144.462v.234h.69v.45zm3.553-.45v3.288h-.546v-.486c-.104.168-.25.3-.438.396a1.35 1.35 0 0 1-.612.138c-.256 0-.486-.052-.69-.156a1.194 1.194 0 0 1-.486-.48 1.593 1.593 0 0 1-.174-.774V81.84h.54v1.854c0 .324.082.574.246.75.164.172.388.258.672.258.292 0 .522-.09.69-.27.168-.18.252-.442.252-.786V81.84h.546zm1.468-1.152v4.44h-.546v-4.44h.546z" fill="#EBEBED"/><path d="M200.469 86.806a3.371 3.371 0 1 0 0-6.743 3.371 3.371 0 0 0 0 6.743z" fill="#235811"/><path d="m199.457 83.435.675.675 1.348-1.349" fill="#235811"/><path d="m199.457 83.435.675.675 1.348-1.349m2.36.674a3.371 3.371 0 1 1-6.743 0 3.371 3.371 0 0 1 6.743 0z" stroke="#fff" stroke-width=".5" stroke-linecap="round" stroke-linejoin="round"/><path d="M258.243 64.837a.16.16 0 0 1 .232-.07c.025.018.046.041.06.07l.707 1.504a.68.68 0 0 0 .201.25.633.633 0 0 0 .288.122l1.583.243c.03.005.058.018.081.039a.175.175 0 0 1 .009.252l-1.145 1.169a.706.706 0 0 0-.187.603l.27 1.652a.166.166 0 0 1-.009.094.164.164 0 0 1-.139.106.157.157 0 0 1-.088-.02l-1.415-.78a.625.625 0 0 0-.604 0l-1.415.78a.156.156 0 0 1-.172-.013.18.18 0 0 1-.055-.073.184.184 0 0 1-.009-.094l.27-1.651a.707.707 0 0 0-.187-.604l-1.145-1.169a.17.17 0 0 1-.045-.081.186.186 0 0 1 .003-.094.178.178 0 0 1 .05-.078.159.159 0 0 1 .082-.038l1.583-.243a.632.632 0 0 0 .288-.123.68.68 0 0 0 .201-.25l.707-1.503z" fill="#F3D441"/><path d="M270.339 66.58a.919.919 0 1 0 0-1.837.919.919 0 0 0 0 1.838zM266.662 68.726a.92.92 0 1 0-.001-1.84.92.92 0 0 0 .001 1.84zM270.339 70.871a.919.919 0 1 0 0-1.838.919.919 0 0 0 0 1.838z" fill="#DEDFDC"/><path d="m267.455 68.27 2.093 1.22m-.003-3.366-2.09 1.22m3.803-1.682a.919.919 0 1 1-1.838 0 .919.919 0 0 1 1.838 0zm-3.677 2.145a.92.92 0 1 1-1.84 0 .92.92 0 0 1 1.84 0zm3.677 2.145a.919.919 0 1 1-1.838 0 .919.919 0 0 1 1.838 0z" stroke="#E1DFDE" stroke-width=".5" stroke-linecap="round" stroke-linejoin="round"/></g><g filter="url(#i)"><rect x="215" y="167" width="70" height="15.242" rx="1" fill="#fff"/><path d="M225.302 175.355c.103-.508.362-.864.776-1.271.517-.457.776-1.117.776-1.778a3.02 3.02 0 0 0-.909-2.155 3.133 3.133 0 0 0-2.196-.893c-.823 0-1.613.321-2.195.893a3.02 3.02 0 0 0-.909 2.155c0 .508.103 1.118.776 1.778.362.356.672.763.776 1.271m0 2.032h3.105m-2.588 2.032h2.07M227.136 177.16l.564.565 1.13-1.129m1.975.564a2.822 2.822 0 1 1-5.645.001 2.822 2.822 0 0 1 5.645-.001zM246.611 174.621h-1.26a.975.975 0 0 0-.616.217c-.177.141-.305.34-.365.566l-1.194 4.483a.14.14 0 0 1-.046.07.124.124 0 0 1-.076.027.126.126 0 0 1-.076-.027.14.14 0 0 1-.046-.07l-2.804-10.533a.132.132 0 0 0-.046-.069.12.12 0 0 0-.153 0 .125.125 0 0 0-.045.069l-1.194 4.484c-.06.225-.187.423-.364.564a.986.986 0 0 1-.612.219h-1.265M252.878 174.621h3.19l.254-.596 1.016 2.681 1.017-4.171.762 2.086h2.677m-.899 1.191c.757-.87 1.524-1.912 1.524-3.277 0-.869-.294-1.703-.818-2.317-.524-.615-1.235-.96-1.976-.96-.894 0-1.524.298-2.287 1.192-.762-.894-1.392-1.192-2.286-1.192-.741 0-1.452.345-1.976.96-.524.614-.818 1.448-.818 2.317 0 1.371.762 2.413 1.524 3.277l3.556 4.172 3.557-4.172zM273.708 174.903v2.258m1.129-1.129h-2.258m3.387-3.952v-1.129a1.129 1.129 0 0 0-1.129-1.129h-2.258a1.13 1.13 0 0 0-1.129 1.129v1.129m5.645 0v7.904m-6.774-7.904v7.904m-1.129-7.904h9.032a1.13 1.13 0 0 1 1.129 1.129v5.646a1.13 1.13 0 0 1-1.129 1.129h-9.032a1.13 1.13 0 0 1-1.13-1.129v-5.646a1.13 1.13 0 0 1 1.13-1.129z" stroke="#5D5D5D" stroke-width=".5" stroke-linecap="round" stroke-linejoin="round"/></g><g filter="url(#j)"><path d="M140.714 182.676c5.412 11.913-11.503 15.999-18.5 13.5-18.4-9.2-12.003-16-6.5-14.5 3.497 1.5 10.011 2.838 8.5-2-2.503-8.008 11.497-8.01 16.5 3z" fill="#fff" stroke="#606466" stroke-width=".5" stroke-linecap="square"/><circle cx="117.5" cy="187.5" r="2.5" fill="#D32F2F"/><circle cx="126" cy="191" r="3" fill="#E6E686"/><circle cx="134.5" cy="188.5" r="2.5" fill="#235811"/><circle cx="133" cy="181" r="2" fill="#D9D9D9"/></g><g filter="url(#k)"><g filter="url(#l)"><circle cx="174" cy="139" r="48" fill="#FEF9F2"/></g><g filter="url(#m)"><path d="M174.006 149.081a10.514 10.514 0 0 1-7.328-2.952c-1.943-1.891-3.035-4.454-3.035-7.128a9.943 9.943 0 0 1 3.035-7.127 10.51 10.51 0 0 1 7.328-2.953c2.748 0 5.384 1.062 7.327 2.953a9.94 9.94 0 0 1 3.036 7.127c0 2.674-1.092 5.237-3.036 7.128a10.512 10.512 0 0 1-7.327 2.952zm21.998-7.286c.119-.922.208-1.843.208-2.794 0-.95-.089-1.901-.208-2.88l6.248-4.694c.562-.432.71-1.21.355-1.843l-5.922-9.965c-.355-.634-1.154-.893-1.806-.634l-7.372 2.88c-1.54-1.123-3.138-2.102-5.004-2.822l-1.095-7.632c-.119-.691-.74-1.21-1.481-1.21h-11.843c-.74 0-1.362.519-1.48 1.21l-1.096 7.632c-1.865.72-3.464 1.699-5.003 2.822l-7.373-2.88c-.651-.259-1.451 0-1.806.634l-5.922 9.965a1.395 1.395 0 0 0 .356 1.843l6.247 4.694c-.118.979-.207 1.93-.207 2.88 0 .951.089 1.872.207 2.794l-6.247 4.781a1.395 1.395 0 0 0-.356 1.843l5.922 9.965c.355.633 1.155.864 1.806.633l7.373-2.909c1.539 1.152 3.138 2.132 5.003 2.852l1.096 7.632c.118.691.74 1.209 1.48 1.209h11.843c.741 0 1.362-.518 1.481-1.209l1.095-7.632c1.866-.749 3.464-1.7 5.004-2.852l7.372 2.909c.652.231 1.451 0 1.806-.633l5.922-9.965c.355-.634.207-1.411-.355-1.843l-6.248-4.781z" fill="#90D4FF"/><path d="m202.552 131.827.004-.004c.769-.59.958-1.643.487-2.484l-.006-.011-5.919-9.96c-.483-.855-1.549-1.195-2.422-.848l-.002.001-7.115 2.779c-1.419-1.019-2.91-1.923-4.622-2.616l-1.054-7.344-.002-.014c-.162-.942-1.001-1.625-1.974-1.625h-11.843c-.973 0-1.812.683-1.973 1.625l-.002.014-1.054 7.344c-1.713.693-3.203 1.597-4.623 2.616l-7.115-2.779-.002-.001c-.873-.347-1.938-.007-2.422.848l-5.916 9.956-.001.002c-.523.863-.274 1.919.479 2.497l.004.003 6.018 4.522a23.009 23.009 0 0 0-.177 2.653c0 .881.074 1.732.175 2.571l-6.019 4.606-.001.001c-.753.578-1.002 1.634-.479 2.497l.001.002 5.916 9.956c.493.871 1.56 1.154 2.406.855l.008-.003.009-.004 7.114-2.807c1.422 1.045 2.912 1.95 4.625 2.643l1.054 7.345.002.013c.161.942 1 1.625 1.973 1.625h11.843c.973 0 1.812-.683 1.974-1.625l.002-.013 1.054-7.349c1.708-.712 3.198-1.593 4.625-2.639l7.114 2.807.008.004.009.003c.845.299 1.913.016 2.405-.855l5.919-9.96.006-.011c.471-.84.282-1.894-.487-2.484v-.001l-6.02-4.606c.102-.839.176-1.69.176-2.571 0-.885-.075-1.764-.177-2.653l6.017-4.521zm-28.546 16.754c-2.62 0-5.131-1.012-6.979-2.811a9.442 9.442 0 0 1-2.884-6.769c0-2.536 1.036-4.971 2.884-6.769a10.012 10.012 0 0 1 6.979-2.811c2.62 0 5.13 1.013 6.979 2.811 1.848 1.798 2.884 4.233 2.884 6.769a9.442 9.442 0 0 1-2.884 6.769 10.01 10.01 0 0 1-6.979 2.811z" stroke="#35A9F2"/></g><path d="M187.572 126.739c-3.678-3.151-9.111-2.561-12.441.894l-.881.913-.881-.912v-.001c-3.325-3.456-8.765-4.045-12.441-.894h-.001c-4.177 3.586-4.395 10.013-.658 13.898l12.19 12.659a2.466 2.466 0 0 0 3.574 0l12.191-12.658v-.001c3.743-3.884 3.526-10.312-.652-13.898z" fill="#F96868" stroke="#FF5252"/></g><g filter="url(#n)"><circle cx="305.5" cy="231.5" r="27.5" fill="#CAA2FF"/><g filter="url(#o)"><path d="M310.066 246.901c5.615-1.128 13.897-4.362 2.106-8.272-11.791-3.911-7.591-2.618-7.169-2.242-12.633-1.504-13.465-6.788-6.306-8.663 8.081-2.117 16.423-6.021 8.422-9.024-5.802-2.178-10.948 2.381-12.633 4.512M309.942 246.9h-11.52" stroke="#5B5B5B" stroke-width="2" stroke-linecap="round"/><path d="m307.805 222.059 1.132 1.428-15.214 18.031-1.132-1.428 15.214-18.031zM312.781 228.35l.91 1.147-15.58 18.468-.909-1.148 15.579-18.467z" fill="#D32F2F"/><path d="m308.945 223.484 2.047 2.582-14.896 17.654-2.047-2.582 14.896-17.654z" fill="#FF4141"/><path d="m310.98 226.066 1.811 2.285-14.495 17.179-1.811-2.285 14.495-17.179z" fill="#F15050"/><path d="m292.057 245.708.131-5.144.483-.572h2.338l-.059 2.287h2.339l-.059 2.286 1.388.572-.058 2.286-.483.571h-4.208l-1.812-2.286z" fill="#FFDFAE"/><path d="m292 247.996.059-2.287 1.812 2.287H292z" fill="#000"/><path d="M312.257 216.774c.361-.428.928-.428 1.266 0l4.669 5.891c.339.428.321 1.121-.039 1.548l-3.326 3.942-5.896-7.439 3.326-3.942z" fill="#FF8CB5"/></g></g></g></g><defs><filter id="j" x="105.75" y="173.75" width="40.266" height="31.379" filterUnits="userSpaceOnUse" color-interpolation-filters="sRGB"><feFlood flood-opacity="0" result="BackgroundImageFix"/><feColorMatrix in="SourceAlpha" values="0 0 0 0 0 0 0 0 0 0 0 0 0 0 0 0 0 0 127 0" result="hardAlpha"/><feOffset dy="4"/><feGaussianBlur stdDeviation="2"/><feComposite in2="hardAlpha" operator="out"/><feColorMatrix values="0 0 0 0 0 0 0 0 0 0 0 0 0 0 0 0 0 0 0.25 0"/><feBlend in2="BackgroundImageFix" result="effect1_dropShadow_888_16311"/><feBlend in="SourceGraphic" in2="effect1_dropShadow_888_16311" result="shape"/></filter><filter id="a" x="0" y="0" width="352" height="282" filterUnits="userSpaceOnUse" color-interpolation-filters="sRGB"><feFlood flood-opacity="0" result="BackgroundImageFix"/><feColorMatrix in="SourceAlpha" values="0 0 0 0 0 0 0 0 0 0 0 0 0 0 0 0 0 0 127 0" result="hardAlpha"/><feOffset dx="2" dy="2"/><feGaussianBlur stdDeviation="4"/><feComposite in2="hardAlpha" operator="out"/><feColorMatrix values="0 0 0 0 0 0 0 0 0 0 0 0 0 0 0 0 0 0 0.25 0"/><feBlend in2="BackgroundImageFix" result="effect1_dropShadow_888_16311"/><feBlend in="SourceGraphic" in2="effect1_dropShadow_888_16311" result="shape"/></filter><filter id="d" x="56.816" y="149.535" width="64.625" height="21.465" filterUnits="userSpaceOnUse" color-interpolation-filters="sRGB"><feFlood flood-opacity="0" result="BackgroundImageFix"/><feColorMatrix in="SourceAlpha" values="0 0 0 0 0 0 0 0 0 0 0 0 0 0 0 0 0 0 127 0" result="hardAlpha"/><feOffset dy="4"/><feGaussianBlur stdDeviation="2"/><feComposite in2="hardAlpha" operator="out"/><feColorMatrix values="0 0 0 0 0 0 0 0 0 0 0 0 0 0 0 0 0 0 0.25 0"/><feBlend in2="BackgroundImageFix" result="effect1_dropShadow_888_16311"/><feBlend in="SourceGraphic" in2="effect1_dropShadow_888_16311" result="shape"/></filter><filter id="e" x="44" y="132" width="64.625" height="21.465" filterUnits="userSpaceOnUse" color-interpolation-filters="sRGB"><feFlood flood-opacity="0" result="BackgroundImageFix"/><feColorMatrix in="SourceAlpha" values="0 0 0 0 0 0 0 0 0 0 0 0 0 0 0 0 0 0 127 0" result="hardAlpha"/><feOffset dy="4"/><feGaussianBlur stdDeviation="2"/><feComposite in2="hardAlpha" operator="out"/><feColorMatrix values="0 0 0 0 0 0 0 0 0 0 0 0 0 0 0 0 0 0 0.25 0"/><feBlend in2="BackgroundImageFix" result="effect1_dropShadow_888_16311"/><feBlend in="SourceGraphic" in2="effect1_dropShadow_888_16311" result="shape"/></filter><filter id="g" x="224" y="124" width="46" height="46" filterUnits="userSpaceOnUse" color-interpolation-filters="sRGB"><feFlood flood-opacity="0" result="BackgroundImageFix"/><feColorMatrix in="SourceAlpha" values="0 0 0 0 0 0 0 0 0 0 0 0 0 0 0 0 0 0 127 0" result="hardAlpha"/><feOffset dy="4"/><feGaussianBlur stdDeviation="2"/><feComposite in2="hardAlpha" operator="out"/><feColorMatrix values="0 0 0 0 0 0 0 0 0 0 0 0 0 0 0 0 0 0 0.25 0"/><feBlend in2="BackgroundImageFix" result="effect1_dropShadow_888_16311"/><feBlend in="SourceGraphic" in2="effect1_dropShadow_888_16311" result="shape"/></filter><filter id="h" x="186.355" y="58" width="95.644" height="46.25" filterUnits="userSpaceOnUse" color-interpolation-filters="sRGB"><feFlood flood-opacity="0" result="BackgroundImageFix"/><feColorMatrix in="SourceAlpha" values="0 0 0 0 0 0 0 0 0 0 0 0 0 0 0 0 0 0 127 0" result="hardAlpha"/><feOffset dy="4"/><feGaussianBlur stdDeviation="2"/><feComposite in2="hardAlpha" operator="out"/><feColorMatrix values="0 0 0 0 0 0 0 0 0 0 0 0 0 0 0 0 0 0 0.25 0"/><feBlend in2="BackgroundImageFix" result="effect1_dropShadow_888_16311"/><feBlend in="SourceGraphic" in2="effect1_dropShadow_888_16311" result="shape"/></filter><filter id="i" x="211" y="167" width="78" height="23.242" filterUnits="userSpaceOnUse" color-interpolation-filters="sRGB"><feFlood flood-opacity="0" result="BackgroundImageFix"/><feColorMatrix in="SourceAlpha" values="0 0 0 0 0 0 0 0 0 0 0 0 0 0 0 0 0 0 127 0" result="hardAlpha"/><feOffset dy="4"/><feGaussianBlur stdDeviation="2"/><feComposite in2="hardAlpha" operator="out"/><feColorMatrix values="0 0 0 0 0 0 0 0 0 0 0 0 0 0 0 0 0 0 0.25 0"/><feBlend in2="BackgroundImageFix" result="effect1_dropShadow_888_16311"/><feBlend in="SourceGraphic" in2="effect1_dropShadow_888_16311" result="shape"/></filter><filter id="c" x="71" y="61" width="81" height="70.141" filterUnits="userSpaceOnUse" color-interpolation-filters="sRGB"><feFlood flood-opacity="0" result="BackgroundImageFix"/><feColorMatrix in="SourceAlpha" values="0 0 0 0 0 0 0 0 0 0 0 0 0 0 0 0 0 0 127 0" result="hardAlpha"/><feOffset dy="4"/><feGaussianBlur stdDeviation="2"/><feComposite in2="hardAlpha" operator="out"/><feColorMatrix values="0 0 0 0 0 0 0 0 0 0 0 0 0 0 0 0 0 0 0.25 0"/><feBlend in2="BackgroundImageFix" result="effect1_dropShadow_888_16311"/><feBlend in="SourceGraphic" in2="effect1_dropShadow_888_16311" result="shape"/></filter><filter id="k" x="122" y="91" width="104" height="104" filterUnits="userSpaceOnUse" color-interpolation-filters="sRGB"><feFlood flood-opacity="0" result="BackgroundImageFix"/><feColorMatrix in="SourceAlpha" values="0 0 0 0 0 0 0 0 0 0 0 0 0 0 0 0 0 0 127 0" result="hardAlpha"/><feOffset dy="4"/><feGaussianBlur stdDeviation="2"/><feComposite in2="hardAlpha" operator="out"/><feColorMatrix values="0 0 0 0 0 0 0 0 0 0 0 0 0 0 0 0 0 0 0.25 0"/><feBlend in2="BackgroundImageFix" result="effect1_dropShadow_888_16311"/><feBlend in="SourceGraphic" in2="effect1_dropShadow_888_16311" result="shape"/></filter><filter id="l" x="122" y="91" width="104" height="104" filterUnits="userSpaceOnUse" color-interpolation-filters="sRGB"><feFlood flood-opacity="0" result="BackgroundImageFix"/><feColorMatrix in="SourceAlpha" values="0 0 0 0 0 0 0 0 0 0 0 0 0 0 0 0 0 0 127 0" result="hardAlpha"/><feOffset dy="4"/><feGaussianBlur stdDeviation="2"/><feComposite in2="hardAlpha" operator="out"/><feColorMatrix values="0 0 0 0 0 0 0 0 0 0 0 0 0 0 0 0 0 0 0.25 0"/><feBlend in2="BackgroundImageFix" result="effect1_dropShadow_888_16311"/><feBlend in="SourceGraphic" in2="effect1_dropShadow_888_16311" result="shape"/></filter><filter id="m" x="140.199" y="109.201" width="67.598" height="67.6" filterUnits="userSpaceOnUse" color-interpolation-filters="sRGB"><feFlood flood-opacity="0" result="BackgroundImageFix"/><feColorMatrix in="SourceAlpha" values="0 0 0 0 0 0 0 0 0 0 0 0 0 0 0 0 0 0 127 0" result="hardAlpha"/><feOffset dy="4"/><feGaussianBlur stdDeviation="2"/><feComposite in2="hardAlpha" operator="out"/><feColorMatrix values="0 0 0 0 0 0 0 0 0 0 0 0 0 0 0 0 0 0 0.25 0"/><feBlend in2="BackgroundImageFix" result="effect1_dropShadow_888_16311"/><feBlend in="SourceGraphic" in2="effect1_dropShadow_888_16311" result="shape"/></filter><filter id="n" x="274" y="204" width="63" height="63" filterUnits="userSpaceOnUse" color-interpolation-filters="sRGB"><feFlood flood-opacity="0" result="BackgroundImageFix"/><feColorMatrix in="SourceAlpha" values="0 0 0 0 0 0 0 0 0 0 0 0 0 0 0 0 0 0 127 0" result="hardAlpha"/><feOffset dy="4"/><feGaussianBlur stdDeviation="2"/><feComposite in2="hardAlpha" operator="out"/><feColorMatrix values="0 0 0 0 0 0 0 0 0 0 0 0 0 0 0 0 0 0 0.25 0"/><feBlend in2="BackgroundImageFix" result="effect1_dropShadow_888_16311"/><feBlend in="SourceGraphic" in2="effect1_dropShadow_888_16311" result="shape"/></filter><filter id="o" x="288" y="216.453" width="35.168" height="39.543" filterUnits="userSpaceOnUse" color-interpolation-filters="sRGB"><feFlood flood-opacity="0" result="BackgroundImageFix"/><feColorMatrix in="SourceAlpha" values="0 0 0 0 0 0 0 0 0 0 0 0 0 0 0 0 0 0 127 0" result="hardAlpha"/><feOffset dy="4"/><feGaussianBlur stdDeviation="2"/><feComposite in2="hardAlpha" operator="out"/><feColorMatrix values="0 0 0 0 0 0 0 0 0 0 0 0 0 0 0 0 0 0 0.25 0"/><feBlend in2="BackgroundImageFix" result="effect1_dropShadow_888_16311"/><feBlend in="SourceGraphic" in2="effect1_dropShadow_888_16311" result="shape"/></filter><clipPath id="b"><rect x="6" y="6" width="336" height="266" rx="30" fill="#fff"/></clipPath></defs></svg>