<svg width="352" height="282" fill="none" xmlns="http://www.w3.org/2000/svg"><g filter="url(#a)"><g clip-path="url(#b)"><rect x="6" y="6" width="336" height="266" rx="30" fill="#fff"/><rect x="6" y="6" width="336" height="266" rx="30" fill="#9EFBE6"/><path d="M154 6v69M304.707 225c-.221 4.737-3.051 13.953-12.601 12.92M43 84.453v73.649M304.703 84.453l.303 76.547M53.664 75h239.413M54.633 169h249.105M43 84.387c.221-3.421 3.05-10.075 12.6-9.33M304.707 84.387c-.221-3.421-3.051-10.075-12.601-9.33M43 156c.221 4.737 3.05 13.953 12.6 12.92M304.707 156v70M154 236v36M165 227h140M154 236.387c.221-3.421 3.051-10.075 12.601-9.329" stroke="#36E7BB" stroke-width="5" stroke-linecap="round" stroke-linejoin="round" stroke-dasharray="15 15"/><g filter="url(#c)"><path d="M193 6h151v33.5l-142.711 2.439a4 4 0 0 1-4.034-3.48L193 6z" fill="#fff"/></g><rect width="2" height="9" rx="1" transform="matrix(.99448 -.0582 .16756 .98972 299.605 31.988)" fill="#ABABB3"/><rect width="2" height="9" rx="1" transform="matrix(.99448 -.0582 .16756 .98972 306.914 31.816)" fill="#ABABB3"/><rect width="2" height="9" rx="1" transform="matrix(.99448 -.0582 .16756 .98972 314.227 31.643)" fill="#ABABB3"/><rect width="2" height="9" rx="1" transform="matrix(.99448 -.0582 .16756 .98972 321.535 31.47)" fill="#ABABB3"/><rect width="2" height="16" rx="1" transform="matrix(.99448 -.0582 .16756 .98972 327.918 24.363)" fill="#ABABB3"/><rect width="2" height="9" rx="1" transform="matrix(.99448 -.0582 .16756 .98972 336.402 31.12)" fill="#ABABB3"/><rect width="2" height="9" rx="1" transform="matrix(.99448 -.0582 .16756 .98972 251.992 32.621)" fill="#ABABB3"/><rect width="2" height="9" rx="1" transform="matrix(.99448 -.0582 .16756 .98972 259.301 32.45)" fill="#ABABB3"/><rect width="2" height="9" rx="1" transform="matrix(.99448 -.0582 .16756 .98972 266.613 32.275)" fill="#ABABB3"/><rect width="2" height="9" rx="1" transform="matrix(.99448 -.0582 .16756 .98972 273.922 32.103)" fill="#ABABB3"/><rect width="2" height="16" rx="1" transform="matrix(.99448 -.0582 .16756 .98972 280.305 24.996)" fill="#ABABB3"/><rect width="2" height="9" rx="1" transform="matrix(.99448 -.0582 .16756 .98972 288.789 31.752)" fill="#ABABB3"/><rect width="2" height="9" rx="1" transform="matrix(.99448 -.0582 .16756 .98972 204.035 33.264)" fill="#ABABB3"/><rect width="2" height="9" rx="1" transform="matrix(.99448 -.0582 .16756 .98972 211.344 33.092)" fill="#ABABB3"/><rect width="2" height="9" rx="1" transform="matrix(.99448 -.0582 .16756 .98972 218.656 32.918)" fill="#ABABB3"/><rect width="2" height="9" rx="1" transform="matrix(.99448 -.0582 .16756 .98972 225.965 32.746)" fill="#ABABB3"/><rect width="2" height="16" rx="1" transform="matrix(.99448 -.0582 .16756 .98972 232.348 25.639)" fill="#ABABB3"/><rect width="2" height="9" rx="1" transform="matrix(.99448 -.0582 .16756 .98972 240.832 32.395)" fill="#ABABB3"/><g filter="url(#d)"><path d="m308.604 91.748 11.757 1.96-1.22 6.112-5.699 3.673-4.838-11.745z" fill="#FFDFD8"/><path d="m308.604 91.748 11.757 1.96-1.22 6.112-5.699 3.673-4.838-11.745z" fill="#FFDFD8"/><path d="m308.599 91.762 2.867.465-.289 1.646-.771.703-.515.275-1.292-3.089z" fill="#333"/><path d="m313.394 103.422 1.634-1.409 82.216 66.918-1.737 1.696-82.113-67.205z" fill="#FFB200"/><path d="m315.013 102.04 2.388-2.759 82.243 66.834-2.418 2.865-82.213-66.94z" fill="#FF9E00"/><path d="m317.372 99.322 2.956-5.638 82.114 67.118-2.823 5.296-82.247-66.777z" fill="#FFB200"/></g><g filter="url(#e)"><rect x="222" y="68.738" width="71.799" height="141.625" rx="10" fill="#fff" stroke="#242427" stroke-width="4"/><path d="M246.012 69h23.773v2.956a4 4 0 0 1-4 4h-15.773a4 4 0 0 1-4-4V69z" fill="#242427"/><path d="M278.594 76.389h4.402M278.594 78.127h4.402M278.594 79.865h4.402" stroke="#9B9B9B" stroke-linecap="round"/><path d="M232.805 78.773v1.9a.5.5 0 0 0 .5.5h4.283a.5.5 0 0 0 .5-.5v-1.9a.501.501 0 0 0-.149-.356l-2.141-2.115a.5.5 0 0 0-.703 0l-2.142 2.115a.5.5 0 0 0-.148.356z" fill="#9B9B9B"/><path fill="#fff" d="M234.566 79.432h1.761v1.739h-1.761z"/><rect x="232.805" y="106.391" width="12.327" height="12.173" rx=".5" fill="#979899"/><rect x="248.87" y="108.348" width="19.817" height=".435" rx=".217" stroke="#457292" stroke-width=".435"/><rect x="248.652" y="110.74" width="34.34" height=".87" rx=".435" fill="#E2E2E2"/><rect x="248.652" y="110.74" width="34.34" height=".87" rx=".435" fill="#E2E2E2"/><rect x="248.652" y="110.74" width="34.34" height=".87" rx=".435" fill="#E2E2E2"/><rect x="248.652" y="110.74" width="34.34" height=".87" rx=".435" fill="#E2E2E2"/><rect x="248.652" y="110.74" width="34.34" height=".87" rx=".435" fill="#E2E2E2"/><rect x="248.652" y="110.74" width="34.34" height=".87" rx=".435" fill="#E2E2E2"/><rect x="248.652" y="113.348" width="29.057" height=".87" rx=".435" fill="#E2E2E2"/><rect x="248.652" y="113.348" width="29.057" height=".87" rx=".435" fill="#E2E2E2"/><rect x="248.652" y="113.348" width="29.057" height=".87" rx=".435" fill="#E2E2E2"/><rect x="248.652" y="113.348" width="29.057" height=".87" rx=".435" fill="#E2E2E2"/><rect x="248.652" y="113.348" width="29.057" height=".87" rx=".435" fill="#E2E2E2"/><rect x="248.652" y="113.348" width="29.057" height=".87" rx=".435" fill="#E2E2E2"/><rect x="248.652" y="115.955" width="17.61" height=".87" rx=".435" fill="#E2E2E2"/><rect x="248.652" y="115.955" width="17.61" height=".87" rx=".435" fill="#E2E2E2"/><rect x="248.652" y="115.955" width="17.61" height=".87" rx=".435" fill="#E2E2E2"/><rect x="248.652" y="115.955" width="17.61" height=".87" rx=".435" fill="#E2E2E2"/><rect x="248.652" y="115.955" width="17.61" height=".87" rx=".435" fill="#E2E2E2"/><rect x="248.652" y="115.955" width="17.61" height=".87" rx=".435" fill="#E2E2E2"/><rect x="232.805" y="127.258" width="12.327" height="12.173" rx=".5" fill="#979899"/><rect x="248.87" y="129.213" width="19.817" height=".435" rx=".217" stroke="#457292" stroke-width=".435"/><rect x="248.652" y="131.605" width="34.34" height=".87" rx=".435" fill="#E2E2E2"/><rect x="248.652" y="131.605" width="34.34" height=".87" rx=".435" fill="#E2E2E2"/><rect x="248.652" y="131.605" width="34.34" height=".87" rx=".435" fill="#E2E2E2"/><rect x="248.652" y="131.605" width="34.34" height=".87" rx=".435" fill="#E2E2E2"/><rect x="248.652" y="131.605" width="34.34" height=".87" rx=".435" fill="#E2E2E2"/><rect x="248.652" y="131.605" width="34.34" height=".87" rx=".435" fill="#E2E2E2"/><rect x="248.652" y="134.213" width="29.057" height=".87" rx=".435" fill="#E2E2E2"/><rect x="248.652" y="134.213" width="29.057" height=".87" rx=".435" fill="#E2E2E2"/><rect x="248.652" y="134.213" width="29.057" height=".87" rx=".435" fill="#E2E2E2"/><rect x="248.652" y="134.213" width="29.057" height=".87" rx=".435" fill="#E2E2E2"/><rect x="248.652" y="134.213" width="29.057" height=".87" rx=".435" fill="#E2E2E2"/><rect x="248.652" y="134.213" width="29.057" height=".87" rx=".435" fill="#E2E2E2"/><rect x="248.652" y="136.82" width="17.61" height=".87" rx=".435" fill="#E2E2E2"/><rect x="248.652" y="136.82" width="17.61" height=".87" rx=".435" fill="#E2E2E2"/><rect x="248.652" y="136.82" width="17.61" height=".87" rx=".435" fill="#E2E2E2"/><rect x="248.652" y="136.82" width="17.61" height=".87" rx=".435" fill="#E2E2E2"/><rect x="248.652" y="136.82" width="17.61" height=".87" rx=".435" fill="#E2E2E2"/><rect x="248.652" y="136.82" width="17.61" height=".87" rx=".435" fill="#E2E2E2"/><rect x="232.805" y="148.125" width="12.327" height="12.173" rx=".5" fill="#979899"/><rect x="248.87" y="150.081" width="19.817" height=".435" rx=".217" stroke="#457292" stroke-width=".435"/><rect x="248.652" y="152.473" width="34.34" height=".87" rx=".435" fill="#E2E2E2"/><rect x="248.652" y="152.473" width="34.34" height=".87" rx=".435" fill="#E2E2E2"/><rect x="248.652" y="152.473" width="34.34" height=".87" rx=".435" fill="#E2E2E2"/><rect x="248.652" y="152.473" width="34.34" height=".87" rx=".435" fill="#E2E2E2"/><rect x="248.652" y="152.473" width="34.34" height=".87" rx=".435" fill="#E2E2E2"/><rect x="248.652" y="152.473" width="34.34" height=".87" rx=".435" fill="#E2E2E2"/><rect x="248.652" y="155.08" width="29.057" height=".87" rx=".435" fill="#E2E2E2"/><rect x="248.652" y="155.08" width="29.057" height=".87" rx=".435" fill="#E2E2E2"/><rect x="248.652" y="155.08" width="29.057" height=".87" rx=".435" fill="#E2E2E2"/><rect x="248.652" y="155.08" width="29.057" height=".87" rx=".435" fill="#E2E2E2"/><rect x="248.652" y="155.08" width="29.057" height=".87" rx=".435" fill="#E2E2E2"/><rect x="248.652" y="155.08" width="29.057" height=".87" rx=".435" fill="#E2E2E2"/><rect x="248.652" y="157.689" width="17.61" height=".87" rx=".435" fill="#E2E2E2"/><rect x="248.652" y="157.689" width="17.61" height=".87" rx=".435" fill="#E2E2E2"/><rect x="248.652" y="157.689" width="17.61" height=".87" rx=".435" fill="#E2E2E2"/><rect x="248.652" y="157.689" width="17.61" height=".87" rx=".435" fill="#E2E2E2"/><rect x="248.652" y="157.689" width="17.61" height=".87" rx=".435" fill="#E2E2E2"/><rect x="248.652" y="157.689" width="17.61" height=".87" rx=".435" fill="#E2E2E2"/><rect x="232.805" y="168.994" width="12.327" height="12.173" rx=".5" fill="#979899"/><rect x="248.87" y="170.952" width="19.817" height=".435" rx=".217" stroke="#457292" stroke-width=".435"/><rect x="248.652" y="173.344" width="34.34" height=".87" rx=".435" fill="#E2E2E2"/><rect x="248.652" y="173.344" width="34.34" height=".87" rx=".435" fill="#E2E2E2"/><rect x="248.652" y="173.344" width="34.34" height=".87" rx=".435" fill="#E2E2E2"/><rect x="248.652" y="173.344" width="34.34" height=".87" rx=".435" fill="#E2E2E2"/><rect x="248.652" y="173.344" width="34.34" height=".87" rx=".435" fill="#E2E2E2"/><rect x="248.652" y="173.344" width="34.34" height=".87" rx=".435" fill="#E2E2E2"/><rect x="248.652" y="175.951" width="29.057" height=".87" rx=".435" fill="#E2E2E2"/><rect x="248.652" y="175.951" width="29.057" height=".87" rx=".435" fill="#E2E2E2"/><rect x="248.652" y="175.951" width="29.057" height=".87" rx=".435" fill="#E2E2E2"/><rect x="248.652" y="175.951" width="29.057" height=".87" rx=".435" fill="#E2E2E2"/><rect x="248.652" y="175.951" width="29.057" height=".87" rx=".435" fill="#E2E2E2"/><rect x="248.652" y="175.951" width="29.057" height=".87" rx=".435" fill="#E2E2E2"/><rect x="248.652" y="178.559" width="17.61" height=".87" rx=".435" fill="#E2E2E2"/><rect x="248.652" y="178.559" width="17.61" height=".87" rx=".435" fill="#E2E2E2"/><rect x="248.652" y="178.559" width="17.61" height=".87" rx=".435" fill="#E2E2E2"/><rect x="248.652" y="178.559" width="17.61" height=".87" rx=".435" fill="#E2E2E2"/><rect x="248.652" y="178.559" width="17.61" height=".87" rx=".435" fill="#E2E2E2"/><rect x="248.652" y="178.559" width="17.61" height=".87" rx=".435" fill="#E2E2E2"/><rect x="232.805" y="189.863" width="12.327" height="12.173" rx=".5" fill="#979899"/><rect x="248.87" y="191.819" width="19.817" height=".435" rx=".217" stroke="#457292" stroke-width=".435"/><rect x="248.652" y="194.211" width="34.34" height=".87" rx=".435" fill="#E2E2E2"/><rect x="248.652" y="194.211" width="34.34" height=".87" rx=".435" fill="#E2E2E2"/><rect x="248.652" y="194.211" width="34.34" height=".87" rx=".435" fill="#E2E2E2"/><rect x="248.652" y="194.211" width="34.34" height=".87" rx=".435" fill="#E2E2E2"/><rect x="248.652" y="194.211" width="34.34" height=".87" rx=".435" fill="#E2E2E2"/><rect x="248.652" y="194.211" width="34.34" height=".87" rx=".435" fill="#E2E2E2"/><rect x="248.652" y="196.818" width="29.057" height=".87" rx=".435" fill="#E2E2E2"/><rect x="248.652" y="196.818" width="29.057" height=".87" rx=".435" fill="#E2E2E2"/><rect x="248.652" y="196.818" width="29.057" height=".87" rx=".435" fill="#E2E2E2"/><rect x="248.652" y="196.818" width="29.057" height=".87" rx=".435" fill="#E2E2E2"/><rect x="248.652" y="196.818" width="29.057" height=".87" rx=".435" fill="#E2E2E2"/><rect x="248.652" y="196.818" width="29.057" height=".87" rx=".435" fill="#E2E2E2"/><rect x="248.652" y="199.426" width="17.61" height=".87" rx=".435" fill="#E2E2E2"/><rect x="248.652" y="199.426" width="17.61" height=".87" rx=".435" fill="#E2E2E2"/><rect x="248.652" y="199.426" width="17.61" height=".87" rx=".435" fill="#E2E2E2"/><rect x="248.652" y="199.426" width="17.61" height=".87" rx=".435" fill="#E2E2E2"/><rect x="248.652" y="199.426" width="17.61" height=".87" rx=".435" fill="#E2E2E2"/><rect x="248.652" y="199.426" width="17.61" height=".87" rx=".435" fill="#E2E2E2"/><rect x="232.555" y="88.75" width="50.689" height="9.195" rx="4.598" fill="#F3F3F3" stroke="#979899" stroke-width=".5"/><path d="M238.917 91.466v.37h-.95v3.115h-.455v-3.115h-.955v-.37h2.36zm3.06 2.01c0 .087-.005.178-.015.275h-2.19c.016.27.108.482.275.635.17.15.375.225.615.225.196 0 .36-.045.49-.135a.742.742 0 0 0 .28-.37h.49c-.074.264-.22.479-.44.645-.22.163-.494.245-.82.245-.26 0-.494-.058-.7-.175a1.24 1.24 0 0 1-.48-.495 1.554 1.554 0 0 1-.175-.75c0-.283.056-.531.17-.745.113-.213.271-.377.475-.49.206-.116.443-.175.71-.175.26 0 .49.057.69.17.2.114.353.27.46.47.11.197.165.42.165.67zm-.47-.095a.832.832 0 0 0-.115-.445.727.727 0 0 0-.315-.285.939.939 0 0 0-.435-.1.852.852 0 0 0-.59.22c-.16.147-.252.35-.275.61h1.73zm2.5 1.57-.65-1.02-.625 1.02h-.475l.885-1.36-.885-1.38h.515l.65 1.015.62-1.015h.475l-.88 1.355.885 1.385h-.515zm-6.68-2.365v1.615c0 .134.028.229.085.285.056.053.155.08.295.08h.335v.385h-.41c-.254 0-.444-.058-.57-.175-.127-.117-.19-.308-.19-.575v-1.615h-.355v-.375h.355v-.69h.455v.69h.715v.375h-.715z" fill="#CECECE"/><path d="M277.193 94.43c.864 0 1.62-.623 1.62-1.457 0-.833-.756-1.457-1.62-1.457-.863 0-1.619.624-1.619 1.457 0 .834.756 1.458 1.619 1.458z" stroke="#9B9B9B" stroke-width=".5"/><path d="M278.777 95.094a.29.29 0 0 0 .375 0 .216.216 0 0 0 0-.331l-.375.33zm-.968-.854.968.854.375-.331-.968-.854-.375.33z" fill="#9B9B9B"/></g><g opacity=".5"><path fill="#fff" stroke="#457292" stroke-width=".5" d="M109.75 192.273h61.255v31.318H109.75z"/><rect x="132.236" y="199.787" width="33.019" height=".44" rx=".22" stroke="#457292" stroke-width=".44"/><rect x="132.236" y="202.429" width="33.019" height=".44" rx=".22" stroke="#457292" stroke-width=".44"/><rect x="132.236" y="205.07" width="21.572" height=".44" rx=".22" stroke="#457292" stroke-width=".44"/><path fill="#457292" d="M114.406 195.164h14.969v14.969h-14.969zM115.285 214.535h6.164v6.164h-6.164zM126.73 214.535h6.164v6.164h-6.164zM138.18 214.535h6.164v6.164h-6.164zM149.625 214.535h6.164v6.164h-6.164z"/><path fill="#fff" stroke="#457292" stroke-width=".5" d="M109.75 188.75h61.255v4.022H109.75z"/><circle cx="112.642" cy="190.761" r=".881" fill="#457292"/><circle cx="115.283" cy="190.761" r=".881" fill="#457292"/><circle cx="117.923" cy="190.761" r=".881" fill="#457292"/></g><g filter="url(#f)"><rect x="54.301" y="70.262" width="68.799" height="138.358" rx="8.5" fill="#fff" stroke="#457292"/><path d="M77.695 69.88h23.774v3.045a4 4 0 0 1-4 4H81.695a4 4 0 0 1-4-4V69.88z" fill="#457292"/><path d="M109.391 76.043h4.402M109.391 77.805h4.402M109.391 79.564h4.402" stroke="#457292" stroke-width=".5" stroke-linecap="square"/><path d="M63.602 77.049v2.217a.3.3 0 0 0 .3.3h4.683a.3.3 0 0 0 .3-.3V77.05a.3.3 0 0 0-.088-.212l-2.342-2.342a.3.3 0 0 0-.424 0l-2.342 2.342a.3.3 0 0 0-.087.212z" stroke="#457292" stroke-width=".5" stroke-linecap="round"/><path fill="#fff" stroke="#457292" stroke-width=".5" d="M65.555 77.115h1.381v2.261h-1.381z"/><rect x="63.355" y="110.135" width="11.066" height="11.066" rx=".75" stroke="#457292" stroke-width=".5" stroke-dasharray="3 3"/><rect x="79.673" y="111.486" width="19.811" height=".44" rx=".22" stroke="#457292" stroke-width=".44"/><rect x="79.453" y="113.906" width="34.34" height=".881" rx=".44" fill="#E2E2E2"/><rect x="79.453" y="113.906" width="34.34" height=".881" rx=".44" fill="#E2E2E2"/><rect x="79.453" y="113.906" width="34.34" height=".881" rx=".44" fill="#E2E2E2"/><rect x="79.453" y="113.906" width="34.34" height=".881" rx=".44" fill="#E2E2E2"/><rect x="79.453" y="113.906" width="34.34" height=".881" rx=".44" fill="#E2E2E2"/><rect x="79.453" y="113.906" width="34.34" height=".881" rx=".44" fill="#E2E2E2"/><rect x="79.453" y="116.549" width="29.057" height=".881" rx=".44" fill="#E2E2E2"/><rect x="79.453" y="116.549" width="29.057" height=".881" rx=".44" fill="#E2E2E2"/><rect x="79.453" y="116.549" width="29.057" height=".881" rx=".44" fill="#E2E2E2"/><rect x="79.453" y="116.549" width="29.057" height=".881" rx=".44" fill="#E2E2E2"/><rect x="79.453" y="116.549" width="29.057" height=".881" rx=".44" fill="#E2E2E2"/><rect x="79.453" y="116.549" width="29.057" height=".881" rx=".44" fill="#E2E2E2"/><rect x="79.453" y="119.189" width="17.61" height=".881" rx=".44" fill="#E2E2E2"/><rect x="79.453" y="119.189" width="17.61" height=".881" rx=".44" fill="#E2E2E2"/><rect x="79.453" y="119.189" width="17.61" height=".881" rx=".44" fill="#E2E2E2"/><rect x="79.453" y="119.189" width="17.61" height=".881" rx=".44" fill="#E2E2E2"/><rect x="79.453" y="119.189" width="17.61" height=".881" rx=".44" fill="#E2E2E2"/><rect x="79.453" y="119.189" width="17.61" height=".881" rx=".44" fill="#E2E2E2"/><rect x="63.355" y="129.506" width="11.066" height="11.066" rx=".75" stroke="#E2E2E2" stroke-width=".5" stroke-dasharray="3 3"/><rect x="79.673" y="130.857" width="19.811" height=".44" rx=".22" stroke="#E2E2E2" stroke-width=".44"/><rect x="79.453" y="133.277" width="34.34" height=".881" rx=".44" fill="#E2E2E2"/><rect x="79.453" y="133.277" width="34.34" height=".881" rx=".44" fill="#E2E2E2"/><rect x="79.453" y="133.277" width="34.34" height=".881" rx=".44" fill="#E2E2E2"/><rect x="79.453" y="133.277" width="34.34" height=".881" rx=".44" fill="#E2E2E2"/><rect x="79.453" y="133.277" width="34.34" height=".881" rx=".44" fill="#E2E2E2"/><rect x="79.453" y="133.277" width="34.34" height=".881" rx=".44" fill="#E2E2E2"/><rect x="79.453" y="135.92" width="29.057" height=".881" rx=".44" fill="#E2E2E2"/><rect x="79.453" y="135.92" width="29.057" height=".881" rx=".44" fill="#E2E2E2"/><rect x="79.453" y="135.92" width="29.057" height=".881" rx=".44" fill="#E2E2E2"/><rect x="79.453" y="135.92" width="29.057" height=".881" rx=".44" fill="#E2E2E2"/><rect x="79.453" y="135.92" width="29.057" height=".881" rx=".44" fill="#E2E2E2"/><rect x="79.453" y="135.92" width="29.057" height=".881" rx=".44" fill="#E2E2E2"/><rect x="79.453" y="138.561" width="17.61" height=".881" rx=".44" fill="#E2E2E2"/><rect x="79.453" y="138.561" width="17.61" height=".881" rx=".44" fill="#E2E2E2"/><rect x="79.453" y="138.561" width="17.61" height=".881" rx=".44" fill="#E2E2E2"/><rect x="79.453" y="138.561" width="17.61" height=".881" rx=".44" fill="#E2E2E2"/><rect x="79.453" y="138.561" width="17.61" height=".881" rx=".44" fill="#E2E2E2"/><rect x="79.453" y="138.561" width="17.61" height=".881" rx=".44" fill="#E2E2E2"/><rect x="63.355" y="148.877" width="11.066" height="11.066" rx=".75" stroke="#457292" stroke-width=".5" stroke-dasharray="3 3"/><rect x="79.673" y="150.228" width="19.811" height=".44" rx=".22" stroke="#457292" stroke-width=".44"/><rect x="79.453" y="152.648" width="34.34" height=".881" rx=".44" fill="#E2E2E2"/><rect x="79.453" y="152.648" width="34.34" height=".881" rx=".44" fill="#E2E2E2"/><rect x="79.453" y="152.648" width="34.34" height=".881" rx=".44" fill="#E2E2E2"/><rect x="79.453" y="152.648" width="34.34" height=".881" rx=".44" fill="#E2E2E2"/><rect x="79.453" y="152.648" width="34.34" height=".881" rx=".44" fill="#E2E2E2"/><rect x="79.453" y="152.648" width="34.34" height=".881" rx=".44" fill="#E2E2E2"/><rect x="79.453" y="155.291" width="29.057" height=".881" rx=".44" fill="#E2E2E2"/><rect x="79.453" y="155.291" width="29.057" height=".881" rx=".44" fill="#E2E2E2"/><rect x="79.453" y="155.291" width="29.057" height=".881" rx=".44" fill="#E2E2E2"/><rect x="79.453" y="155.291" width="29.057" height=".881" rx=".44" fill="#E2E2E2"/><rect x="79.453" y="155.291" width="29.057" height=".881" rx=".44" fill="#E2E2E2"/><rect x="79.453" y="155.291" width="29.057" height=".881" rx=".44" fill="#E2E2E2"/><rect x="79.453" y="157.932" width="17.61" height=".881" rx=".44" fill="#E2E2E2"/><rect x="79.453" y="157.932" width="17.61" height=".881" rx=".44" fill="#E2E2E2"/><rect x="79.453" y="157.932" width="17.61" height=".881" rx=".44" fill="#E2E2E2"/><rect x="79.453" y="157.932" width="17.61" height=".881" rx=".44" fill="#E2E2E2"/><rect x="79.453" y="157.932" width="17.61" height=".881" rx=".44" fill="#E2E2E2"/><rect x="79.453" y="157.932" width="17.61" height=".881" rx=".44" fill="#E2E2E2"/><rect x="63.355" y="168.248" width="11.066" height="11.066" rx=".75" stroke="#E2E2E2" stroke-width=".5" stroke-dasharray="3 3"/><rect x="79.673" y="169.599" width="19.811" height=".44" rx=".22" stroke="#E2E2E2" stroke-width=".44"/><rect x="79.453" y="172.02" width="34.34" height=".881" rx=".44" fill="#E2E2E2"/><rect x="79.453" y="172.02" width="34.34" height=".881" rx=".44" fill="#E2E2E2"/><rect x="79.453" y="172.02" width="34.34" height=".881" rx=".44" fill="#E2E2E2"/><rect x="79.453" y="172.02" width="34.34" height=".881" rx=".44" fill="#E2E2E2"/><rect x="79.453" y="172.02" width="34.34" height=".881" rx=".44" fill="#E2E2E2"/><rect x="79.453" y="172.02" width="34.34" height=".881" rx=".44" fill="#E2E2E2"/><rect x="79.453" y="174.662" width="29.057" height=".881" rx=".44" fill="#E2E2E2"/><rect x="79.453" y="174.662" width="29.057" height=".881" rx=".44" fill="#E2E2E2"/><rect x="79.453" y="174.662" width="29.057" height=".881" rx=".44" fill="#E2E2E2"/><rect x="79.453" y="174.662" width="29.057" height=".881" rx=".44" fill="#E2E2E2"/><rect x="79.453" y="174.662" width="29.057" height=".881" rx=".44" fill="#E2E2E2"/><rect x="79.453" y="174.662" width="29.057" height=".881" rx=".44" fill="#E2E2E2"/><rect x="79.453" y="177.303" width="17.61" height=".881" rx=".44" fill="#E2E2E2"/><rect x="79.453" y="177.303" width="17.61" height=".881" rx=".44" fill="#E2E2E2"/><rect x="79.453" y="177.303" width="17.61" height=".881" rx=".44" fill="#E2E2E2"/><rect x="79.453" y="177.303" width="17.61" height=".881" rx=".44" fill="#E2E2E2"/><rect x="79.453" y="177.303" width="17.61" height=".881" rx=".44" fill="#E2E2E2"/><rect x="79.453" y="177.303" width="17.61" height=".881" rx=".44" fill="#E2E2E2"/><rect x="63.355" y="187.619" width="11.066" height="11.066" rx=".75" stroke="#457292" stroke-width=".5" stroke-dasharray="3 3"/><rect x="79.673" y="188.97" width="19.811" height=".44" rx=".22" stroke="#457292" stroke-width=".44"/><rect x="79.453" y="191.391" width="34.34" height=".881" rx=".44" fill="#E2E2E2"/><rect x="79.453" y="191.391" width="34.34" height=".881" rx=".44" fill="#E2E2E2"/><rect x="79.453" y="191.391" width="34.34" height=".881" rx=".44" fill="#E2E2E2"/><rect x="79.453" y="191.391" width="34.34" height=".881" rx=".44" fill="#E2E2E2"/><rect x="79.453" y="191.391" width="34.34" height=".881" rx=".44" fill="#E2E2E2"/><rect x="79.453" y="191.391" width="34.34" height=".881" rx=".44" fill="#E2E2E2"/><rect x="79.453" y="194.033" width="29.057" height=".881" rx=".44" fill="#E2E2E2"/><rect x="79.453" y="194.033" width="29.057" height=".881" rx=".44" fill="#E2E2E2"/><rect x="79.453" y="194.033" width="29.057" height=".881" rx=".44" fill="#E2E2E2"/><rect x="79.453" y="194.033" width="29.057" height=".881" rx=".44" fill="#E2E2E2"/><rect x="79.453" y="194.033" width="29.057" height=".881" rx=".44" fill="#E2E2E2"/><rect x="79.453" y="194.033" width="29.057" height=".881" rx=".44" fill="#E2E2E2"/><rect x="79.453" y="196.674" width="17.61" height=".881" rx=".44" fill="#E2E2E2"/><rect x="79.453" y="196.674" width="17.61" height=".881" rx=".44" fill="#E2E2E2"/><rect x="79.453" y="196.674" width="17.61" height=".881" rx=".44" fill="#E2E2E2"/><rect x="79.453" y="196.674" width="17.61" height=".881" rx=".44" fill="#E2E2E2"/><rect x="79.453" y="196.674" width="17.61" height=".881" rx=".44" fill="#E2E2E2"/><rect x="79.453" y="196.674" width="17.61" height=".881" rx=".44" fill="#E2E2E2"/><path stroke="#457292" stroke-width=".5" stroke-dasharray="3 3" d="M63.355 87.242h50.689v14.588H63.355z"/><path d="M67.615 99.874c.867 0 1.62-.634 1.62-1.473 0-.84-.753-1.473-1.62-1.473-.867 0-1.619.633-1.619 1.473 0 .839.752 1.473 1.62 1.473z" stroke="#457292" stroke-width=".5"/></g><path fill="#fff" stroke="#457292" stroke-width=".5" d="M27.75 81.273h61.255v20.752H27.75z"/><rect x="50.232" y="88.787" width="33.019" height=".44" rx=".22" stroke="#457292" stroke-width=".44"/><rect x="50.232" y="91.429" width="33.019" height=".44" rx=".22" stroke="#457292" stroke-width=".44"/><rect x="50.232" y="94.07" width="21.572" height=".44" rx=".22" stroke="#457292" stroke-width=".44"/><path fill="#457292" d="M32.402 84.164h14.969v14.969H32.402z"/><path fill="#fff" stroke="#457292" stroke-width=".5" d="M27.75 77.75h61.255v4.022H27.75z"/><circle cx="30.642" cy="79.761" r=".881" fill="#457292"/><circle cx="33.283" cy="79.761" r=".881" fill="#457292"/><circle cx="35.923" cy="79.761" r=".881" fill="#457292"/><g filter="url(#g)"><path d="M115.956 28.768a4 4 0 0 1 1.533-5.445l13.14-7.367a4 4 0 0 1 5.445 1.532l12.716 22.679-20.118 11.28-12.716-22.679z" fill="#FFD5D5"/><path d="m128.672 51.447 20.118-11.28 12.715 22.679a4 4 0 0 1-1.532 5.445l-13.14 7.367a4 4 0 0 1-5.445-1.532l-12.716-22.679z" fill="#BEE0FF"/></g><g filter="url(#h)"><circle cx="305.5" cy="227.5" r="27.5" fill="#FEF9F2"/><g filter="url(#i)"><path d="M305.504 233.275a6.02 6.02 0 0 1-4.198-1.691 5.694 5.694 0 0 1-1.739-4.084c0-1.532.625-3.001 1.739-4.084a6.02 6.02 0 0 1 4.198-1.691c1.574 0 3.084.608 4.198 1.691a5.698 5.698 0 0 1 1.739 4.084 5.698 5.698 0 0 1-1.739 4.084 6.024 6.024 0 0 1-4.198 1.691zm12.603-4.174a12.45 12.45 0 0 0 .119-1.601c0-.545-.051-1.089-.119-1.65l3.579-2.69a.817.817 0 0 0 .204-1.056l-3.393-5.709a.843.843 0 0 0-1.034-.362l-4.224 1.65c-.882-.644-1.798-1.205-2.867-1.617l-.628-4.373a.85.85 0 0 0-.848-.693h-6.785a.851.851 0 0 0-.848.693l-.628 4.373c-1.068.412-1.984.973-2.866 1.617l-4.224-1.65a.844.844 0 0 0-1.035.362l-3.392 5.709a.798.798 0 0 0 .203 1.056l3.579 2.69a13.69 13.69 0 0 0-.118 1.65c0 .545.05 1.073.118 1.601l-3.579 2.739a.798.798 0 0 0-.203 1.056l3.392 5.708c.204.363.662.496 1.035.364l4.224-1.667c.882.66 1.798 1.221 2.866 1.633l.628 4.373a.851.851 0 0 0 .848.693h6.785a.85.85 0 0 0 .848-.693l.628-4.373a12.39 12.39 0 0 0 2.867-1.633l4.224 1.667c.373.132.831-.001 1.034-.364l3.393-5.708a.817.817 0 0 0-.204-1.056l-3.579-2.739z" fill="#90D4FF"/><path d="m321.987 223.56.004-.003a1.317 1.317 0 0 0 .335-1.697l-.006-.011-3.39-5.704a1.345 1.345 0 0 0-1.651-.578l-.001.001-3.968 1.55c-.763-.541-1.568-1.026-2.484-1.409l-.587-4.087h.001l-.003-.013a1.351 1.351 0 0 0-1.341-1.109h-6.785c-.656 0-1.23.462-1.341 1.109l-.002.013-.587 4.087c-.915.383-1.721.868-2.484 1.409l-3.967-1.55-.002-.001a1.343 1.343 0 0 0-1.65.578l-3.389 5.702a1.299 1.299 0 0 0 .328 1.71l.004.003 3.35 2.517c-.052.473-.089.946-.089 1.423 0 .473.036.931.087 1.377l-3.352 2.565v.001a1.299 1.299 0 0 0-.328 1.71l.001.002 3.388 5.7c.34.6 1.066.785 1.634.584l.008-.003.008-.003 3.967-1.565c.765.553 1.571 1.04 2.486 1.423l.587 4.087.002.013a1.352 1.352 0 0 0 1.341 1.109h6.785c.657 0 1.23-.462 1.341-1.109l.002-.013.588-4.091a12.837 12.837 0 0 0 2.485-1.42l3.967 1.566.008.003.009.003c.567.201 1.293.016 1.634-.584l3.39-5.704.006-.011c.32-.57.193-1.291-.335-1.697l-.001-.001-3.352-2.565c.052-.446.088-.904.088-1.377 0-.477-.037-.95-.089-1.423l3.35-2.517zm-16.483 9.215a5.523 5.523 0 0 1-3.85-1.55 5.196 5.196 0 0 1-1.587-3.725c0-1.394.569-2.735 1.587-3.725a5.523 5.523 0 0 1 3.85-1.55 5.52 5.52 0 0 1 3.849 1.55 5.197 5.197 0 0 1 1.588 3.725c0 1.394-.57 2.735-1.588 3.725a5.52 5.52 0 0 1-3.849 1.55z" stroke="#35A9F2"/></g><path d="M313.414 220.312v.001c2.488 2.135 2.617 5.96.388 8.272l-6.984 7.253a1.628 1.628 0 0 1-2.355 0l-6.984-7.253c-2.225-2.313-2.096-6.137.392-8.272v-.001c2.203-1.887 5.447-1.525 7.421.527l.351.363.351-.363 7.42-.527zm0 0c-2.203-1.887-5.443-1.525-7.42.526l7.42-.526z" fill="#F96868" stroke="#FF5252"/></g><g filter="url(#j)"><g filter="url(#k)"><circle cx="174" cy="139" r="48" fill="#FB9EE8"/></g><g filter="url(#l)" fill="#fff" stroke="#3766AC" stroke-width="2"><rect x="147.691" y="117.133" width="45.636" height="38.496" rx="3"/><path d="M192.328 130.4h1v-9.472a3 3 0 0 0-3-3h-39.637a3 3 0 0 0-3 3v9.472h44.637z"/></g></g><path fill="#FBFCC1" stroke="#FFA800" stroke-width=".5" d="M191.75 132.75h2.5v4.5h-2.5zM204.771 136.543l1.722 1.812-3.262 3.1-1.722-1.812zM205.43 150.979v-2.5h4.5v2.5zM191.75 166.979h2.5v-4.5h-2.5zM204.771 163.185l1.722-1.812-3.262-3.1-1.722 1.812zM180.91 136.543l-1.723 1.813 3.262 3.1 1.722-1.813zM180.25 150.979v-2.5h-4.5v2.5zM180.909 163.185l-1.722-1.812 3.262-3.1 1.722 1.812z"/><circle cx="193" cy="150" r="10.25" fill="#FBFCC1" stroke="#FDCD54" stroke-width=".5"/></g></g><defs><filter id="h" x="274" y="200" width="63" height="63" filterUnits="userSpaceOnUse" color-interpolation-filters="sRGB"><feFlood flood-opacity="0" result="BackgroundImageFix"/><feColorMatrix in="SourceAlpha" values="0 0 0 0 0 0 0 0 0 0 0 0 0 0 0 0 0 0 127 0" result="hardAlpha"/><feOffset dy="4"/><feGaussianBlur stdDeviation="2"/><feComposite in2="hardAlpha" operator="out"/><feColorMatrix values="0 0 0 0 0 0 0 0 0 0 0 0 0 0 0 0 0 0 0.25 0"/><feBlend in2="BackgroundImageFix" result="effect1_dropShadow_884_16393"/><feBlend in="SourceGraphic" in2="effect1_dropShadow_884_16393" result="shape"/></filter><filter id="a" x="0" y="0" width="352" height="282" filterUnits="userSpaceOnUse" color-interpolation-filters="sRGB"><feFlood flood-opacity="0" result="BackgroundImageFix"/><feColorMatrix in="SourceAlpha" values="0 0 0 0 0 0 0 0 0 0 0 0 0 0 0 0 0 0 127 0" result="hardAlpha"/><feOffset dx="2" dy="2"/><feGaussianBlur stdDeviation="4"/><feComposite in2="hardAlpha" operator="out"/><feColorMatrix values="0 0 0 0 0 0 0 0 0 0 0 0 0 0 0 0 0 0 0.25 0"/><feBlend in2="BackgroundImageFix" result="effect1_dropShadow_884_16393"/><feBlend in="SourceGraphic" in2="effect1_dropShadow_884_16393" result="shape"/></filter><filter id="d" x="304.598" y="91.748" width="107.875" height="92.082" filterUnits="userSpaceOnUse" color-interpolation-filters="sRGB"><feFlood flood-opacity="0" result="BackgroundImageFix"/><feColorMatrix in="SourceAlpha" values="0 0 0 0 0 0 0 0 0 0 0 0 0 0 0 0 0 0 127 0" result="hardAlpha"/><feOffset dy="4"/><feGaussianBlur stdDeviation="2"/><feComposite in2="hardAlpha" operator="out"/><feColorMatrix values="0 0 0 0 0 0 0 0 0 0 0 0 0 0 0 0 0 0 0.25 0"/><feBlend in2="BackgroundImageFix" result="effect1_dropShadow_884_16393"/><feBlend in="SourceGraphic" in2="effect1_dropShadow_884_16393" result="shape"/></filter><filter id="e" x="216" y="66.738" width="83.797" height="153.625" filterUnits="userSpaceOnUse" color-interpolation-filters="sRGB"><feFlood flood-opacity="0" result="BackgroundImageFix"/><feColorMatrix in="SourceAlpha" values="0 0 0 0 0 0 0 0 0 0 0 0 0 0 0 0 0 0 127 0" result="hardAlpha"/><feOffset dy="4"/><feGaussianBlur stdDeviation="2"/><feComposite in2="hardAlpha" operator="out"/><feColorMatrix values="0 0 0 0 0 0 0 0 0 0 0 0 0 0 0 0 0 0 0.25 0"/><feBlend in2="BackgroundImageFix" result="effect1_dropShadow_884_16393"/><feBlend in="SourceGraphic" in2="effect1_dropShadow_884_16393" result="shape"/></filter><filter id="f" x="49.801" y="69.762" width="77.797" height="147.359" filterUnits="userSpaceOnUse" color-interpolation-filters="sRGB"><feFlood flood-opacity="0" result="BackgroundImageFix"/><feColorMatrix in="SourceAlpha" values="0 0 0 0 0 0 0 0 0 0 0 0 0 0 0 0 0 0 127 0" result="hardAlpha"/><feOffset dy="4"/><feGaussianBlur stdDeviation="2"/><feComposite in2="hardAlpha" operator="out"/><feColorMatrix values="0 0 0 0 0 0 0 0 0 0 0 0 0 0 0 0 0 0 0.25 0"/><feBlend in2="BackgroundImageFix" result="effect1_dropShadow_884_16393"/><feBlend in="SourceGraphic" in2="effect1_dropShadow_884_16393" result="shape"/></filter><filter id="g" x="111.445" y="15.443" width="54.57" height="68.727" filterUnits="userSpaceOnUse" color-interpolation-filters="sRGB"><feFlood flood-opacity="0" result="BackgroundImageFix"/><feColorMatrix in="SourceAlpha" values="0 0 0 0 0 0 0 0 0 0 0 0 0 0 0 0 0 0 127 0" result="hardAlpha"/><feOffset dy="4"/><feGaussianBlur stdDeviation="2"/><feComposite in2="hardAlpha" operator="out"/><feColorMatrix values="0 0 0 0 0 0 0 0 0 0 0 0 0 0 0 0 0 0 0.25 0"/><feBlend in2="BackgroundImageFix" result="effect1_dropShadow_884_16393"/><feBlend in="SourceGraphic" in2="effect1_dropShadow_884_16393" result="shape"/></filter><filter id="c" x="189" y="6" width="159" height="43.94" filterUnits="userSpaceOnUse" color-interpolation-filters="sRGB"><feFlood flood-opacity="0" result="BackgroundImageFix"/><feColorMatrix in="SourceAlpha" values="0 0 0 0 0 0 0 0 0 0 0 0 0 0 0 0 0 0 127 0" result="hardAlpha"/><feOffset dy="4"/><feGaussianBlur stdDeviation="2"/><feComposite in2="hardAlpha" operator="out"/><feColorMatrix values="0 0 0 0 0 0 0 0 0 0 0 0 0 0 0 0 0 0 0.25 0"/><feBlend in2="BackgroundImageFix" result="effect1_dropShadow_884_16393"/><feBlend in="SourceGraphic" in2="effect1_dropShadow_884_16393" result="shape"/></filter><filter id="i" x="284" y="210" width="43" height="43" filterUnits="userSpaceOnUse" color-interpolation-filters="sRGB"><feFlood flood-opacity="0" result="BackgroundImageFix"/><feColorMatrix in="SourceAlpha" values="0 0 0 0 0 0 0 0 0 0 0 0 0 0 0 0 0 0 127 0" result="hardAlpha"/><feOffset dy="4"/><feGaussianBlur stdDeviation="2"/><feComposite in2="hardAlpha" operator="out"/><feColorMatrix values="0 0 0 0 0 0 0 0 0 0 0 0 0 0 0 0 0 0 0.25 0"/><feBlend in2="BackgroundImageFix" result="effect1_dropShadow_884_16393"/><feBlend in="SourceGraphic" in2="effect1_dropShadow_884_16393" result="shape"/></filter><filter id="j" x="122" y="91" width="104" height="104" filterUnits="userSpaceOnUse" color-interpolation-filters="sRGB"><feFlood flood-opacity="0" result="BackgroundImageFix"/><feColorMatrix in="SourceAlpha" values="0 0 0 0 0 0 0 0 0 0 0 0 0 0 0 0 0 0 127 0" result="hardAlpha"/><feOffset dy="4"/><feGaussianBlur stdDeviation="2"/><feComposite in2="hardAlpha" operator="out"/><feColorMatrix values="0 0 0 0 0 0 0 0 0 0 0 0 0 0 0 0 0 0 0.25 0"/><feBlend in2="BackgroundImageFix" result="effect1_dropShadow_884_16393"/><feBlend in="SourceGraphic" in2="effect1_dropShadow_884_16393" result="shape"/></filter><filter id="k" x="122" y="91" width="104" height="104" filterUnits="userSpaceOnUse" color-interpolation-filters="sRGB"><feFlood flood-opacity="0" result="BackgroundImageFix"/><feColorMatrix in="SourceAlpha" values="0 0 0 0 0 0 0 0 0 0 0 0 0 0 0 0 0 0 127 0" result="hardAlpha"/><feOffset dy="4"/><feGaussianBlur stdDeviation="2"/><feComposite in2="hardAlpha" operator="out"/><feColorMatrix values="0 0 0 0 0 0 0 0 0 0 0 0 0 0 0 0 0 0 0.25 0"/><feBlend in2="BackgroundImageFix" result="effect1_dropShadow_884_16393"/><feBlend in="SourceGraphic" in2="effect1_dropShadow_884_16393" result="shape"/></filter><filter id="l" x="142.691" y="116.133" width="55.637" height="48.496" filterUnits="userSpaceOnUse" color-interpolation-filters="sRGB"><feFlood flood-opacity="0" result="BackgroundImageFix"/><feColorMatrix in="SourceAlpha" values="0 0 0 0 0 0 0 0 0 0 0 0 0 0 0 0 0 0 127 0" result="hardAlpha"/><feOffset dy="4"/><feGaussianBlur stdDeviation="2"/><feComposite in2="hardAlpha" operator="out"/><feColorMatrix values="0 0 0 0 0 0 0 0 0 0 0 0 0 0 0 0 0 0 0.25 0"/><feBlend in2="BackgroundImageFix" result="effect1_dropShadow_884_16393"/><feBlend in="SourceGraphic" in2="effect1_dropShadow_884_16393" result="shape"/></filter><clipPath id="b"><rect x="6" y="6" width="336" height="266" rx="30" fill="#fff"/></clipPath></defs></svg>