<svg width="336" height="266" fill="none" xmlns="http://www.w3.org/2000/svg"><g clip-path="url(#a)"><rect width="336" height="266" rx="30" fill="#fff"/><rect width="336" height="266" rx="30" fill="#B2ABFF"/><path d="M139 0v83" stroke="#BF8EFF" stroke-width="5" stroke-linecap="round" stroke-linejoin="round" stroke-dasharray="15 15"/><path d="M298.707 219c-.221 4.737-3.051 13.953-12.601 12.92" stroke="#BF8EFF" stroke-width="5" stroke-linejoin="round" stroke-dasharray="15 15"/><path d="M37 78.453v73.649M298.703 78.453l.303 76.547M47.664 69h239.413M48.633 163h249.105" stroke="#BF8EFF" stroke-width="5" stroke-linecap="round" stroke-linejoin="round" stroke-dasharray="15 15"/><path d="M37 78.387c.221-3.421 3.05-10.075 12.6-9.33M298.707 78.387c-.221-3.421-3.051-10.075-12.601-9.33M37 150c.221 4.737 3.05 13.953 12.6 12.92" stroke="#BF8EFF" stroke-width="5" stroke-linejoin="round" stroke-dasharray="15 15"/><path d="M298.707 150v70M148 230v36M159 221h140" stroke="#BF8EFF" stroke-width="5" stroke-linecap="round" stroke-linejoin="round" stroke-dasharray="15 15"/><path d="M148 230.387c.221-3.421 3.051-10.075 12.601-9.329" stroke="#BF8EFF" stroke-width="5" stroke-linejoin="round" stroke-dasharray="15 15"/><g filter="url(#b)"><g filter="url(#c)"><rect x="17" y="80.033" width="90" height="115" rx="2" transform="rotate(-25 17 80.033)" fill="#fff"/><rect x="16.335" y="79.791" width="91" height="116" rx="2.5" transform="rotate(-25 16.335 79.791)" stroke="url(#d)"/></g><rect x="27.066" y="89.438" width="79.714" height="2.556" rx="1.278" transform="rotate(-25 27.066 89.438)" fill="#DEDEDE"/><rect x="29.227" y="94.072" width="79.714" height="2.556" rx="1.278" transform="rotate(-25 29.227 94.072)" fill="#DEDEDE"/><rect x="31.387" y="98.705" width="41.143" height="2.556" rx="1.278" transform="rotate(-25 31.387 98.705)" fill="#DEDEDE"/><ellipse cx="27.235" cy="83.712" rx="2.571" ry="2.556" transform="rotate(-25 27.235 83.712)" fill="#FF8080"/><ellipse cx="33.059" cy="80.993" rx="2.571" ry="2.556" transform="rotate(-25 33.059 80.993)" fill="#FFFCB3"/><ellipse cx="38.887" cy="78.282" rx="2.571" ry="2.556" transform="rotate(-25 38.887 78.282)" fill="#C7FFB5"/><ellipse cx="40.59" cy="107.806" rx="4.5" ry="4.472" transform="rotate(-25 40.59 107.806)" fill="#FFFCB3"/><ellipse cx="77.875" cy="90.407" rx="4.5" ry="4.472" transform="rotate(-25 77.875 90.407)" fill="#C7FFB5"/><rect x="44.48" y="102.463" width="28.286" height="2.556" rx="1.278" transform="rotate(-25 44.48 102.463)" fill="#DEDEDE"/><rect x="81.769" y="85.08" width="28.286" height="2.556" rx="1.278" transform="rotate(-25 81.77 85.08)" fill="#DEDEDE"/><rect x="46.102" y="105.932" width="28.286" height="2.556" rx="1.278" transform="rotate(-25 46.102 105.932)" fill="#DEDEDE"/><rect x="83.391" y="88.551" width="28.286" height="2.556" rx="1.278" transform="rotate(-25 83.39 88.55)" fill="#DEDEDE"/><rect x="54.059" y="147.34" width="38.571" height="2.556" rx="1.278" transform="rotate(-25 54.059 147.34)" fill="#DEDEDE"/><rect x="56.219" y="151.973" width="38.571" height="2.556" rx="1.278" transform="rotate(-25 56.219 151.973)" fill="#DEDEDE"/><rect x="58.379" y="156.6" width="38.571" height="2.556" rx="1.278" transform="rotate(-25 58.379 156.6)" fill="#DEDEDE"/><rect x="60.543" y="161.24" width="38.571" height="2.556" rx="1.278" transform="rotate(-25 60.543 161.24)" fill="#DEDEDE"/><rect x="62.703" y="165.875" width="38.571" height="2.556" rx="1.278" transform="rotate(-25 62.703 165.875)" fill="#DEDEDE"/><rect x="64.863" y="170.508" width="38.571" height="2.556" rx="1.278" transform="rotate(-25 64.863 170.508)" fill="#DEDEDE"/><rect x="67.023" y="175.133" width="38.571" height="2.556" rx="1.278" transform="rotate(-25 67.023 175.133)" fill="#DEDEDE"/><rect x="91.348" y="129.943" width="38.571" height="2.556" rx="1.278" transform="rotate(-25 91.348 129.943)" fill="#DEDEDE"/><rect x="93.508" y="134.576" width="38.571" height="2.556" rx="1.278" transform="rotate(-25 93.508 134.576)" fill="#DEDEDE"/><rect x="95.668" y="139.203" width="38.571" height="2.556" rx="1.278" transform="rotate(-25 95.668 139.203)" fill="#DEDEDE"/><rect x="97.832" y="143.844" width="38.571" height="2.556" rx="1.278" transform="rotate(-25 97.832 143.844)" fill="#DEDEDE"/><rect x="99.992" y="148.479" width="38.571" height="2.556" rx="1.278" transform="rotate(-25 99.992 148.479)" fill="#DEDEDE"/><rect x="102.152" y="153.111" width="38.571" height="2.556" rx="1.278" transform="rotate(-25 102.152 153.111)" fill="#DEDEDE"/><rect x="104.312" y="157.736" width="38.571" height="2.556" rx="1.278" transform="rotate(-25 104.312 157.736)" fill="#DEDEDE"/><path d="M70.212 130.046a12.87 12.87 0 0 1-3.508 5.158 12.936 12.936 0 0 1-5.527 2.914 12.895 12.895 0 0 1-6.24-.019 12.786 12.786 0 0 1-5.482-2.948 12.7 12.7 0 0 1-3.99-11.367 12.83 12.83 0 0 1 2.434-5.736 12.923 12.923 0 0 1 4.855-3.929l5.4 11.581 12.058 4.346z" fill="#C7FFB5"/><path d="M53.345 113.861c1.399-.569 2.887-.889 4.395-.945l.414 12.784-4.81-11.839z" fill="#FF8C8C"/><path d="M58.31 112.908a12.81 12.81 0 0 1 8.739 3.522l-8.895 9.27.156-12.792z" fill="#C79BFF"/><path d="M67.372 116.749a12.703 12.703 0 0 1 3.288 5.979c.53 2.255.434 4.614-.278 6.825L58.154 125.7l9.218-8.951z" fill="#BB86FF"/><path d="M67.372 116.749a12.703 12.703 0 0 1 3.288 5.979c.53 2.255.434 4.614-.278 6.825L58.154 125.7l9.218-8.951zM80.297 121.453l3.845-1.793 3.183 6.824-3.846 1.793zM84.148 114.666l3.846-1.793 5.091 10.92-3.845 1.792zM95.055 107.926l3.845-1.793 5.729 12.284-3.846 1.793zM88.008 107.887l3.845-1.793 7.002 15.014-3.846 1.793zM105.953 101.178l3.845-1.793 6.365 13.648-3.846 1.793zM111.082 97.135l3.846-1.793 7 15.014-3.845 1.793zM98.914 101.139l3.845-1.793 7.638 16.378-3.846 1.793z" fill="#82B4FF"/><path transform="matrix(.47812 -.8783 .88111 .4729 78.922 113.129)" stroke="#E93434" stroke-width=".25" d="M0-.125h7.56"/><path transform="matrix(.5175 -.85569 .85864 .51257 82.484 106.646)" stroke="#E93434" stroke-width=".25" d="M0-.125h8.106"/><path transform="matrix(.44109 -.89746 .90012 .43565 93.73 99.58)" stroke="#E93434" stroke-width=".25" d="M0-.125h8.012"/><path transform="matrix(-.99642 -.08449 .08983 -.99596 93.156 99.598)" stroke="#E93434" stroke-width=".25" d="M0-.125h6.238"/><path transform="matrix(-.99774 -.06714 .07238 -.99738 105.098 92.775)" stroke="#E93434" stroke-width=".25" d="M0-.125h7.566"/><path transform="matrix(.76704 -.6416 -.64398 -.76505 104.168 92.719)" stroke="#E93434" stroke-width=".25" d="M0-.125h6.816"/><rect x="77.856" y="112.633" width="1.515" height="1.506" rx=".753" transform="rotate(-25 77.856 112.633)" fill="#FF6161"/><rect x="81.434" y="105.969" width="1.515" height="1.506" rx=".753" transform="rotate(-25 81.434 105.969)" fill="#FF6161"/><rect x="85.707" y="99.006" width="1.515" height="1.506" rx=".753" transform="rotate(-25 85.707 99.006)" fill="#FF6161"/><rect x="92.477" y="99.168" width="1.515" height="1.506" rx=".753" transform="rotate(-25 92.477 99.168)" fill="#FF6161"/><rect x="96.059" y="92.512" width="1.515" height="1.506" rx=".753" transform="rotate(-25 96.059 92.512)" fill="#FF6161"/><rect x="103.512" y="92.359" width="1.515" height="1.506" rx=".753" transform="rotate(-25 103.512 92.36)" fill="#FF6161"/><rect x="108.367" y="88.438" width="1.515" height="1.506" rx=".753" transform="rotate(-25 108.367 88.438)" fill="#FF6161"/></g><g filter="url(#e)"><g filter="url(#f)"><rect x="246.602" y="41.998" width="90" height="115" rx="2" transform="rotate(25 246.602 41.998)" fill="#fff"/><rect x="246.36" y="41.334" width="91" height="116" rx="2.5" transform="rotate(25 246.36 41.334)" stroke="url(#g)"/></g><rect x="245.863" y="58.764" width="79.714" height="2.556" rx="1.278" transform="rotate(25 245.863 58.764)" fill="#DEDEDE"/><rect x="243.703" y="63.4" width="79.714" height="2.556" rx="1.278" transform="rotate(25 243.703 63.4)" fill="#DEDEDE"/><rect x="241.543" y="68.023" width="41.143" height="2.556" rx="1.278" transform="rotate(25 241.543 68.023)" fill="#DEDEDE"/><ellipse cx="250.356" cy="55.213" rx="2.571" ry="2.556" transform="rotate(25 250.356 55.213)" fill="#FF8080"/><ellipse cx="256.18" cy="57.928" rx="2.571" ry="2.556" transform="rotate(25 256.18 57.928)" fill="#FFFCB3"/><ellipse cx="262.012" cy="60.649" rx="2.571" ry="2.556" transform="rotate(25 262.012 60.649)" fill="#C7FFB5"/><ellipse cx="242.685" cy="86.879" rx="9" ry="8.944" transform="rotate(25 242.685 86.879)" fill="#FFFCB3"/><rect x="256.957" y="83.662" width="24.429" height="2.556" rx="1.278" transform="rotate(25 256.957 83.662)" fill="#DEDEDE"/><rect x="252.637" y="92.924" width="24.429" height="2.556" rx="1.278" transform="rotate(25 252.637 92.924)" fill="#DEDEDE"/><rect x="254.797" y="88.299" width="24.429" height="2.556" rx="1.278" transform="rotate(25 254.797 88.299)" fill="#DEDEDE"/><rect x="250.477" y="97.559" width="24.429" height="2.556" rx="1.278" transform="rotate(25 250.477 97.559)" fill="#DEDEDE"/><rect x="233.512" y="106.559" width="28.286" height="2.556" rx="1.278" transform="rotate(25 233.512 106.559)" fill="#DEDEDE"/><rect x="230.27" y="113.51" width="28.286" height="2.556" rx="1.278" transform="rotate(25 230.27 113.51)" fill="#DEDEDE"/><rect x="227.031" y="120.455" width="28.286" height="2.556" rx="1.278" transform="rotate(25 227.031 120.455)" fill="#DEDEDE"/><rect x="223.789" y="127.408" width="28.286" height="2.556" rx="1.278" transform="rotate(25 223.789 127.408)" fill="#DEDEDE"/><rect x="220.547" y="134.359" width="28.286" height="2.556" rx="1.278" transform="rotate(25 220.547 134.359)" fill="#DEDEDE"/><rect x="217.309" y="141.305" width="28.286" height="2.556" rx="1.278" transform="rotate(25 217.309 141.305)" fill="#DEDEDE"/><rect x="214.066" y="148.258" width="28.286" height="2.556" rx="1.278" transform="rotate(25 214.066 148.258)" fill="#DEDEDE"/><rect x="226.008" y="101.936" width="4.643" height="4.611" rx=".25" transform="rotate(25 226.008 101.936)" fill="#DCFFCB" stroke="#CAFCB2" stroke-width=".5"/><rect x="222.765" y="108.885" width="4.643" height="4.611" rx=".25" transform="rotate(25 222.765 108.885)" fill="#DCFFCB" stroke="#CAFCB2" stroke-width=".5"/><rect x="219.527" y="115.834" width="4.643" height="4.611" rx=".25" transform="rotate(25 219.527 115.834)" fill="#DCFFCB" stroke="#CAFCB2" stroke-width=".5"/><rect x="216.285" y="122.783" width="4.643" height="4.611" rx=".25" transform="rotate(25 216.285 122.783)" fill="#DCFFCB" stroke="#CAFCB2" stroke-width=".5"/><rect x="213.047" y="129.733" width="4.643" height="4.611" rx=".25" transform="rotate(25 213.047 129.733)" fill="#DCFFCB" stroke="#CAFCB2" stroke-width=".5"/><rect x="209.805" y="136.682" width="4.643" height="4.611" rx=".25" transform="rotate(25 209.805 136.682)" fill="#DCFFCB" stroke="#CAFCB2" stroke-width=".5"/><rect x="206.566" y="143.631" width="4.643" height="4.611" rx=".25" transform="rotate(25 206.566 143.631)" fill="#DCFFCB" stroke="#CAFCB2" stroke-width=".5"/><rect x="271.957" y="124.484" width="28.286" height="2.556" rx="1.278" transform="rotate(25 271.957 124.484)" fill="#DEDEDE"/><rect x="268.715" y="131.436" width="28.286" height="2.556" rx="1.278" transform="rotate(25 268.715 131.436)" fill="#DEDEDE"/><rect x="265.477" y="138.381" width="28.286" height="2.556" rx="1.278" transform="rotate(25 265.477 138.381)" fill="#DEDEDE"/><rect x="262.234" y="145.334" width="28.286" height="2.556" rx="1.278" transform="rotate(25 262.234 145.334)" fill="#DEDEDE"/><rect x="258.992" y="152.285" width="28.286" height="2.556" rx="1.278" transform="rotate(25 258.992 152.285)" fill="#DEDEDE"/><rect x="255.754" y="159.23" width="28.286" height="2.556" rx="1.278" transform="rotate(25 255.754 159.23)" fill="#DEDEDE"/><rect x="252.512" y="166.184" width="28.286" height="2.556" rx="1.278" transform="rotate(25 252.512 166.184)" fill="#DEDEDE"/><rect x="264.453" y="119.863" width="4.643" height="4.611" rx=".25" transform="rotate(25 264.453 119.863)" fill="#FFCBCB" stroke="#FCB2B2" stroke-width=".5"/><rect x="261.211" y="126.813" width="4.643" height="4.611" rx=".25" transform="rotate(25 261.211 126.813)" fill="#FFCBCB" stroke="#FCB2B2" stroke-width=".5"/><rect x="257.972" y="133.762" width="4.643" height="4.611" rx=".25" transform="rotate(25 257.972 133.762)" fill="#FFCBCB" stroke="#FCB2B2" stroke-width=".5"/><rect x="254.73" y="140.711" width="4.643" height="4.611" rx=".25" transform="rotate(25 254.73 140.711)" fill="#FFCBCB" stroke="#FCB2B2" stroke-width=".5"/><rect x="251.492" y="147.66" width="4.643" height="4.611" rx=".25" transform="rotate(25 251.492 147.66)" fill="#FFCBCB" stroke="#FCB2B2" stroke-width=".5"/><rect x="248.25" y="154.61" width="4.643" height="4.611" rx=".25" transform="rotate(25 248.25 154.61)" fill="#FFCBCB" stroke="#FCB2B2" stroke-width=".5"/><rect x="245.012" y="161.559" width="4.643" height="4.611" rx=".25" transform="rotate(25 245.012 161.559)" fill="#FFCBCB" stroke="#FCB2B2" stroke-width=".5"/><path fill="#82B4FF" d="m278.285 107.857 2.68 1.25-2.1 4.504-2.68-1.25zM283.562 107.029l2.68 1.25-3.36 7.205-2.68-1.25zM292.027 109.885l2.68 1.25-3.78 8.106-2.68-1.25zM288.844 106.203l2.68 1.25-4.62 9.907-2.68-1.25zM300.48 112.738l2.68 1.25-4.2 9.007-2.68-1.25zM304.926 113.701l2.68 1.25-4.62 9.907-2.68-1.25zM297.305 109.057l2.68 1.25-5.04 10.807-2.68-1.25z"/><path transform="matrix(.98495 -.17285 .22988 .97322 281.984 103.668)" stroke="#E93434" stroke-width=".25" d="M0-.125h5.173"/><path transform="matrix(.99167 -.12884 .18454 .98283 286.988 102.809)" stroke="#E93434" stroke-width=".25" d="M0-.125h5.56"/><path transform="matrix(.97702 -.21314 .27085 .96262 295.758 105.711)" stroke="#E93434" stroke-width=".25" d="M0-.125h5.47"/><path transform="matrix(-.59463 -.804 .8342 -.55147 295.492 105.414)" stroke="#E93434" stroke-width=".25" d="M0-.125h4.293"/><path transform="matrix(-.60813 -.79384 .82414 -.56638 304.465 108.775)" stroke="#E93434" stroke-width=".25" d="M0-.125h5.21"/><path transform="matrix(.98213 .18822 .15825 -.9874 304.074 108.262)" stroke="#E93434" stroke-width=".25" d="M0-.125h4.735"/><rect x="281.762" y="102.9" width="1.056" height=".994" rx=".497" transform="rotate(25 281.762 102.9)" fill="#FF6161"/><rect x="286.852" y="101.984" width="1.056" height=".994" rx=".497" transform="rotate(25 286.852 101.984)" fill="#FF6161"/><rect x="292.414" y="101.289" width="1.056" height=".994" rx=".497" transform="rotate(25 292.414 101.289)" fill="#FF6161"/><rect x="295.402" y="104.881" width="1.056" height=".994" rx=".497" transform="rotate(25 295.402 104.881)" fill="#FF6161"/><rect x="300.492" y="103.967" width="1.056" height=".994" rx=".497" transform="rotate(25 300.492 103.967)" fill="#FF6161"/><rect x="303.957" y="107.781" width="1.056" height=".994" rx=".497" transform="rotate(25 303.957 107.781)" fill="#FF6161"/><rect x="308.207" y="108.654" width="1.056" height=".994" rx=".497" transform="rotate(25 308.207 108.654)" fill="#FF6161"/></g><g filter="url(#h)"><rect x="120.5" y="61.203" width="101" height="131" rx="2.5" fill="#fff" stroke="url(#i)"/><rect x="152" y="71.699" width="58.772" height="16" rx="2" fill="#C8DEFF"/><circle cx="138.91" cy="79.699" r="8" fill="#C8DEFF"/><path d="M131 94.7a1 1 0 0 1 1-1h78a1 1 0 0 1 1 1v1.767a1 1 0 0 1-1 1h-78a1 1 0 0 1-1-1V94.7z" fill="#D8D8D8"/><rect x="131" y="101.465" width="80" height="3.768" rx="1" fill="#D8D8D8"/><rect x="131" y="109.23" width="80" height="3.768" rx="1" fill="#D8D8D8"/><path d="M131 165.699a1 1 0 0 1 1-1h78a1 1 0 0 1 1 1v1.768a1 1 0 0 1-1 1h-78a1 1 0 0 1-1-1v-1.768z" fill="#D8D8D8"/><rect x="131" y="172.465" width="80" height="3.768" rx="1" fill="#D8D8D8"/><rect x="131" y="180.23" width="80" height="3.768" rx="1" fill="#D8D8D8"/><path d="M137 118.699a1 1 0 0 1 1-1h32a1 1 0 0 1 1 1v2a1 1 0 0 1-1 1h-32a1 1 0 0 1-1-1v-2z" fill="#D8D8D8"/><rect x="131" y="117.699" width="4" height="4" rx="2" fill="#D8D8D8"/><rect x="137" y="125.699" width="34" height="4" rx="1" fill="#D8D8D8"/><rect x="131" y="125.699" width="4" height="4" rx="2" fill="#D8D8D8"/><rect x="137" y="133.699" width="34" height="4" rx="1" fill="#D8D8D8"/><rect x="131" y="133.699" width="4" height="4" rx="2" fill="#D8D8D8"/><path d="M137 142.699a1 1 0 0 1 1-1h32a1 1 0 0 1 1 1v2a1 1 0 0 1-1 1h-32a1 1 0 0 1-1-1v-2z" fill="#D8D8D8"/><rect x="131" y="141.699" width="4" height="4" rx="2" fill="#D8D8D8"/><rect x="131" y="149.465" width="80" height="3.768" rx="1" fill="#D8D8D8"/><rect x="131" y="157.23" width="80" height="3.768" rx="1" fill="#D8D8D8"/><path d="M173.617 137.598a1 1 0 0 1 1-1h2.92a1 1 0 0 1 1 1v6.549h-4.92v-6.549zM180.18 130.055a1 1 0 0 1 1-1h2.92a1 1 0 0 1 1 1v14.098h-4.92v-14.098zM186.742 126.271a1 1 0 0 1 1-1h2.92a1 1 0 0 1 1 1v17.873h-4.92v-17.873zM193.305 130.047a1 1 0 0 1 1-1h2.92a1 1 0 0 1 1 1v14.098h-4.92v-14.098zM199.867 133.072a1 1 0 0 1 1-1h2.92a1 1 0 0 1 1 1v11.079h-4.92v-11.079zM206.43 130.055a1 1 0 0 1 1-1h2.92a1 1 0 0 1 1 1v14.098h-4.92v-14.098z" fill="#82B4FF"/><path transform="matrix(.55572 -.83137 .87007 .49293 176.078 132.818)" stroke="#E93434" stroke-width=".25" d="M0-.125h11.804"/><path transform="matrix(.8229 -.56819 .6316 .7753 182.641 123.01)" stroke="#E93434" stroke-width=".25" d="M0-.125h7.972"/><path transform="matrix(.84222 -.53913 .60268 .79798 202.309 127.203)" stroke="#E93434" stroke-width=".25" d="M0-.125h7.789"/><path transform="matrix(-.82282 -.5683 .63172 -.7752 195.766 123.01)" stroke="#E93434" stroke-width=".25" d="M0-.125h7.972"/><path transform="matrix(-.86658 -.49904 .562 -.82714 202.309 126.777)" stroke="#E93434" stroke-width=".25" d="M0-.125h7.569"/><rect x="175.258" y="132.061" width="1.64" height="1.51" rx=".755" fill="#FF6161"/><rect x="181.82" y="122.25" width="1.64" height="1.51" rx=".755" fill="#FF6161"/><rect x="188.383" y="117.695" width="1.64" height="1.51" rx=".755" fill="#FF6161"/><rect x="194.945" y="122.25" width="1.64" height="1.51" rx=".755" fill="#FF6161"/><rect x="201.488" y="126.02" width="1.64" height="1.51" rx=".755" fill="#FF6161"/><rect x="208.051" y="122.25" width="1.64" height="1.51" rx=".755" fill="#FF6161"/></g><g filter="url(#j)"><g filter="url(#k)"><circle cx="168" cy="133" r="48" fill="#57A2DD"/></g><mask id="l" maskUnits="userSpaceOnUse" x="155.488" y="109.189" width="25" height="10" fill="#000"><path fill="#fff" d="M155.488 109.189h25v10h-25z"/><path d="M157.488 114.389c0-1.12 0-1.68.218-2.108.192-.376.498-.682.874-.874.428-.218.988-.218 2.108-.218h14.035c1.12 0 1.68 0 2.108.218.376.192.682.498.874.874.218.428.218.988.218 2.108v4.721h-20.435v-4.721z"/></mask><path d="M155.488 113.189a4 4 0 0 1 4-4h16.435a4 4 0 0 1 4 4h-24.435zm22.435 5.921h-20.435 20.435zm-22.435 0v-5.921a4 4 0 0 1 4-4v9.921h-4zm20.435-9.921a4 4 0 0 1 4 4v5.921h-4v-9.921z" fill="#333" mask="url(#l)"/><rect x="140.441" y="128.854" width="53.364" height="24.762" rx="1.5" fill="#F09028" stroke="#DE7C25"/><g filter="url(#m)"><mask id="n" maskUnits="userSpaceOnUse" x="139.941" y="118.16" width="55" height="16" fill="#000"><path fill="#fff" d="M139.941 118.16h55v16h-55z"/><path d="M140.941 120.76c0-.56 0-.84.109-1.054.096-.188.249-.341.437-.437.214-.109.494-.109 1.054-.109h49.164c.56 0 .84 0 1.054.109.188.096.341.249.437.437.109.214.109.494.109 1.054v10.378c0 .56 0 .841-.109 1.054a.993.993 0 0 1-.437.437c-.214.109-.494.109-1.054.109h-49.164c-.56 0-.84 0-1.054-.109a.993.993 0 0 1-.437-.437c-.109-.213-.109-.494-.109-1.054V120.76z"/></mask><path d="M140.941 120.76c0-.56 0-.84.109-1.054.096-.188.249-.341.437-.437.214-.109.494-.109 1.054-.109h49.164c.56 0 .84 0 1.054.109.188.096.341.249.437.437.109.214.109.494.109 1.054v10.378c0 .56 0 .841-.109 1.054a.993.993 0 0 1-.437.437c-.214.109-.494.109-1.054.109h-49.164c-.56 0-.84 0-1.054-.109a.993.993 0 0 1-.437-.437c-.109-.213-.109-.494-.109-1.054V120.76z" fill="#F09028"/><path d="m141.487 132.629-.454.891.454-.891zm-.437-.437-.891.454.891-.454zm52.146 0-.891-.454.891.454zm-.437.437.454.891-.454-.891zm0-13.36.454-.891-.454.891zm.437.437-.891.454.891-.454zm-51.709-.437-.454-.891.454.891zm-.437.437-.891-.454.891.454zm1.491.454h49.164v-2h-49.164v2zm49.764.6v10.378h2V120.76h-2zm-.6 10.978h-49.164v2h49.164v-2zm-49.764-.6V120.76h-2v10.378h2zm.6.6c-.296 0-.458 0-.575-.01-.105-.008-.082-.019-.025.01l-.908 1.782c.272.139.542.183.77.201.217.018.475.017.738.017v-2zm-2.6-.6c0 .264 0 .522.017.739.019.228.063.498.201.769l1.782-.908c.03.058.019.081.011-.024a7.786 7.786 0 0 1-.011-.576h-2zm2 .6-1.782.908c.192.377.498.683.874.874l.908-1.782zm50.364-.6c0 .297-.001.459-.01.576-.009.105-.019.082.01.024l1.782.908a2.03 2.03 0 0 0 .201-.769c.018-.217.017-.475.017-.739h-2zm-.6 2.6c.264 0 .521.001.738-.017.229-.018.499-.062.77-.201l-.908-1.782c.058-.029.08-.018-.025-.01-.116.01-.278.01-.575.01v2zm.6-2 .908 1.782c.376-.191.682-.497.874-.874l-1.782-.908zm-.6-11.578c.297 0 .459.001.575.01.105.009.083.019.025-.01l.908-1.782a2.03 2.03 0 0 0-.77-.201c-.217-.018-.474-.017-.738-.017v2zm2.6.6c0-.263.001-.521-.017-.738a2.035 2.035 0 0 0-.201-.77l-1.782.908c-.029-.057-.019-.08-.01.025.009.116.01.279.01.575h2zm-2-.6 1.782-.908a2.006 2.006 0 0 0-.874-.874l-.908 1.782zm-49.764-2c-.263 0-.521-.001-.738.017a2.04 2.04 0 0 0-.77.201l.908 1.782c-.057.029-.08.019.025.01a8.61 8.61 0 0 1 .575-.01v-2zm-.6 2.6c0-.296.001-.459.011-.575.008-.105.019-.082-.011-.025l-1.782-.908a2.035 2.035 0 0 0-.201.77c-.017.217-.017.475-.017.738h2zm-.908-2.382a2.006 2.006 0 0 0-.874.874l1.782.908-.908-1.782z" fill="#DE7C25" mask="url(#n)"/></g><rect x="161.957" y="131.146" width="9.951" height="4.687" rx=".75" fill="#FFF95E" stroke="#C7C137" stroke-width=".5"/></g><g filter="url(#o)"><path fill="#fff" d="m103.152 46.31 11.591-3.106 3.623 13.523-11.59 3.106z"/><path fill="#fff" d="m103.152 46.31 11.591-3.106 3.623 13.523-11.59 3.106z"/><path d="M104.632 40.775c-7.463 3.729-11.056 11.81-7.984 17.959 1.466 2.934 4.219 5.051 7.64 5.787.418.838.993 3.345-.658 8.186 0 0 4.749-2.372 7.075-7.9 1.702-.326 3.47-.86 5.098-1.674 7.464-3.73 11.057-11.81 7.985-17.96-3.072-6.148-11.692-8.127-19.156-4.398zm9.736 16.09-2.714 1.356-1.397-2.794 2.714-1.356 1.397 2.794zm-1.049-8.207c-.128.762-.531 1.313-.934 1.864-.267.483-.333.69-.329 1.037-.132.415.008.695.217 1.114l-2.714 1.356c-.349-.699-.423-1.186-.361-1.74.132-.416.465-1.106.934-1.864.338-.343.469-.758.465-1.106-.004-.347-.077-.834-.217-1.113-.209-.42-.485-.631-.896-.775-.411-.144-.888-.08-1.295.123-.407.203-.608.479-.81.754-.202.276-.198.623.012 1.042l-2.714 1.356c-.353-1.046-.365-2.088.034-2.986.399-.898 1.279-1.512 2.501-2.122 1.221-.61 2.446-.873 3.404-.654.958.22 1.784.855 2.273 1.834.415.49.558 1.118.43 1.88z" fill="#C9A3FC"/><g filter="url(#p)"><path fill="#fff" d="m96.34 63.98-8.089 2.168 3.581 13.364 8.089-2.167z"/><path fill="#fff" d="m96.34 63.98-8.089 2.168 3.581 13.364 8.089-2.167z"/><path d="M93.526 62.347c-7.2 1.93-12.022 7.495-10.703 12.418 1.319 4.923 8.278 7.331 15.478 5.402a19.97 19.97 0 0 0 4.472-1.795c4.568 1.76 9.216.515 9.216.515-3.746-1.778-4.699-3.397-4.943-4.047 1.799-2.19 2.594-4.718 1.959-7.09-1.319-4.923-8.279-7.332-15.479-5.403zm4.592 11.9.597 2.228-2.618.702-.597-2.228 2.618-.701zm-.597-2.227-2.618.702-1.79-6.682 2.618-.702 1.79 6.682z" fill="#FFAFAF"/></g><g filter="url(#q)"><path fill="#fff" d="m115.191 57.059 15.938-4.27 2.33 8.693-15.939 4.27z"/><path fill="#fff" d="m115.191 57.059 15.938-4.27 2.33 8.693-15.939 4.27z"/><path d="M122.533 50.433c6.191-1.659 12.338 1.018 13.672 6 1.335 4.98-2.649 10.372-8.84 12.03-1.396.375-2.79.53-4.125.502-2.532 3.698-6.527 4.769-6.527 4.769 1.919-3.329 1.861-5.21 1.736-5.9-2.345-1.1-4.113-2.97-4.756-5.37-1.335-4.98 2.65-10.372 8.84-12.03zm8.346 8.634-.604-2.254-2.251.604.604 2.254 2.251-.604zm-4.502 1.207-.604-2.254-2.251.603.603 2.254 2.252-.603zm-4.503 1.206-.604-2.254-2.251.604.604 2.253 2.251-.603z" fill="#57A2DD"/></g></g><g filter="url(#r)"><circle cx="296.5" cy="221.5" r="27.5" fill="url(#s)"/><circle cx="296.5" cy="221.5" r="27.5" fill="#E44FE1"/><path d="m305.422 215.535-2.93 4.535a.712.712 0 0 0 .271 1.038l.02.011c.532.281 1.269.67 2.109.578.905-.098 1.738-.712 2.551-1.979.766-1.195.936-2.152.653-2.93-.275-.759-.94-1.225-1.516-1.547a.89.89 0 0 0-1.158.294z" fill="url(#t)" stroke="#E4E74F" stroke-linecap="round"/><path transform="matrix(-.55934 .82894 .848 .53 291.133 211.016)" fill="url(#u)" stroke="#3FC4A4" d="M.144.679h9.839v2.008H.144z"/><path transform="matrix(-.5594 -.8289 .84803 -.52994 294.02 234.031)" fill="url(#v)" stroke="#3FC4A4" d="M.144-.679h12.363v1.99H.144z"/><g filter="url(#w)"><rect x="284" y="233" width="20.773" height="3" rx="1" fill="url(#x)"/><rect x="284.5" y="233.5" width="19.773" height="2" rx=".5" stroke="#3FC4A4"/></g><circle cx="287.082" cy="221.934" r="2.5" fill="#61E6C7" stroke="#3FC4A4"/><path d="M292.087 207.092a.523.523 0 0 1 .704-.15l4.008 2.505-1.976 2.928-4.008-2.505a.478.478 0 0 1-.144-.679l1.416-2.099z" fill="url(#y)" stroke="#3FC4A4"/><mask id="A" maskUnits="userSpaceOnUse" x="293.189" y="206.017" width="14.66" height="16.529" fill="#000"><path fill="#fff" d="M293.189 206.017h14.66v16.529h-14.66z"/><path d="M306.25 208.517a7.84 7.84 0 0 0-2.752-1.05 8.006 8.006 0 0 0-2.964.031 7.795 7.795 0 0 0-2.724 1.106 7.395 7.395 0 0 0-2.071 2.012 7 7 0 0 0-1.102 2.614 6.869 6.869 0 0 0 .035 2.816 7.05 7.05 0 0 0 1.167 2.59 7.442 7.442 0 0 0 2.12 1.969l4.146-6.044 4.145-6.044z"/></mask><path d="M306.25 208.517a7.84 7.84 0 0 0-2.752-1.05 8.006 8.006 0 0 0-2.964.031 7.795 7.795 0 0 0-2.724 1.106 7.395 7.395 0 0 0-2.071 2.012 7 7 0 0 0-1.102 2.614 6.869 6.869 0 0 0 .035 2.816 7.05 7.05 0 0 0 1.167 2.59 7.442 7.442 0 0 0 2.12 1.969l4.146-6.044 4.145-6.044z" fill="url(#z)"/><path d="M306.25 208.517a7.84 7.84 0 0 0-2.752-1.05 8.006 8.006 0 0 0-2.964.031 7.795 7.795 0 0 0-2.724 1.106 7.395 7.395 0 0 0-2.071 2.012 7 7 0 0 0-1.102 2.614 6.869 6.869 0 0 0 .035 2.816 7.05 7.05 0 0 0 1.167 2.59 7.442 7.442 0 0 0 2.12 1.969l4.146-6.044 4.145-6.044z" stroke="#3FC4A4" stroke-width="2" mask="url(#A)"/></g></g><defs><filter id="w" x="276" y="233" width="36.773" height="19" filterUnits="userSpaceOnUse" color-interpolation-filters="sRGB"><feFlood flood-opacity="0" result="BackgroundImageFix"/><feColorMatrix in="SourceAlpha" values="0 0 0 0 0 0 0 0 0 0 0 0 0 0 0 0 0 0 127 0" result="hardAlpha"/><feOffset dy="8"/><feGaussianBlur stdDeviation="4"/><feComposite in2="hardAlpha" operator="out"/><feColorMatrix values="0 0 0 0 0 0 0 0 0 0 0 0 0 0 0 0 0 0 0.1 0"/><feBlend in2="BackgroundImageFix" result="effect1_dropShadow_884_15570"/><feBlend in="SourceGraphic" in2="effect1_dropShadow_884_15570" result="shape"/></filter><filter id="b" x="8.656" y="41.654" width="146.855" height="158.947" filterUnits="userSpaceOnUse" color-interpolation-filters="sRGB"><feFlood flood-opacity="0" result="BackgroundImageFix"/><feColorMatrix in="SourceAlpha" values="0 0 0 0 0 0 0 0 0 0 0 0 0 0 0 0 0 0 127 0" result="hardAlpha"/><feOffset dy="8"/><feGaussianBlur stdDeviation="4"/><feComposite in2="hardAlpha" operator="out"/><feColorMatrix values="0 0 0 0 0 0 0 0 0 0 0 0 0 0 0 0 0 0 0.2 0"/><feBlend in2="BackgroundImageFix" result="effect1_dropShadow_884_15570"/><feBlend in="SourceGraphic" in2="effect1_dropShadow_884_15570" result="shape"/></filter><filter id="e" x="189.656" y="41.654" width="146.855" height="158.947" filterUnits="userSpaceOnUse" color-interpolation-filters="sRGB"><feFlood flood-opacity="0" result="BackgroundImageFix"/><feColorMatrix in="SourceAlpha" values="0 0 0 0 0 0 0 0 0 0 0 0 0 0 0 0 0 0 127 0" result="hardAlpha"/><feOffset dy="8"/><feGaussianBlur stdDeviation="4"/><feComposite in2="hardAlpha" operator="out"/><feColorMatrix values="0 0 0 0 0 0 0 0 0 0 0 0 0 0 0 0 0 0 0.2 0"/><feBlend in2="BackgroundImageFix" result="effect1_dropShadow_884_15570"/><feBlend in="SourceGraphic" in2="effect1_dropShadow_884_15570" result="shape"/></filter><filter id="f" x="189.656" y="41.654" width="146.855" height="158.947" filterUnits="userSpaceOnUse" color-interpolation-filters="sRGB"><feFlood flood-opacity="0" result="BackgroundImageFix"/><feColorMatrix in="SourceAlpha" values="0 0 0 0 0 0 0 0 0 0 0 0 0 0 0 0 0 0 127 0" result="hardAlpha"/><feOffset dy="8"/><feGaussianBlur stdDeviation="4"/><feComposite in2="hardAlpha" operator="out"/><feColorMatrix values="0 0 0 0 0 0 0 0 0 0 0 0 0 0 0 0 0 0 0.1 0"/><feBlend in2="BackgroundImageFix" result="effect1_dropShadow_884_15570"/><feBlend in="SourceGraphic" in2="effect1_dropShadow_884_15570" result="shape"/></filter><filter id="h" x="116" y="60.703" width="110" height="140" filterUnits="userSpaceOnUse" color-interpolation-filters="sRGB"><feFlood flood-opacity="0" result="BackgroundImageFix"/><feColorMatrix in="SourceAlpha" values="0 0 0 0 0 0 0 0 0 0 0 0 0 0 0 0 0 0 127 0" result="hardAlpha"/><feOffset dy="4"/><feGaussianBlur stdDeviation="2"/><feComposite in2="hardAlpha" operator="out"/><feColorMatrix values="0 0 0 0 0 0 0 0 0 0 0 0 0 0 0 0 0 0 0.25 0"/><feBlend in2="BackgroundImageFix" result="effect1_dropShadow_884_15570"/><feBlend in="SourceGraphic" in2="effect1_dropShadow_884_15570" result="shape"/></filter><filter id="j" x="112" y="85" width="112" height="112" filterUnits="userSpaceOnUse" color-interpolation-filters="sRGB"><feFlood flood-opacity="0" result="BackgroundImageFix"/><feColorMatrix in="SourceAlpha" values="0 0 0 0 0 0 0 0 0 0 0 0 0 0 0 0 0 0 127 0" result="hardAlpha"/><feOffset dy="8"/><feGaussianBlur stdDeviation="4"/><feComposite in2="hardAlpha" operator="out"/><feColorMatrix values="0 0 0 0 0 0 0 0 0 0 0 0 0 0 0 0 0 0 0.1 0"/><feBlend in2="BackgroundImageFix" result="effect1_dropShadow_884_15570"/><feBlend in="SourceGraphic" in2="effect1_dropShadow_884_15570" result="shape"/></filter><filter id="k" x="116" y="85" width="104" height="104" filterUnits="userSpaceOnUse" color-interpolation-filters="sRGB"><feFlood flood-opacity="0" result="BackgroundImageFix"/><feColorMatrix in="SourceAlpha" values="0 0 0 0 0 0 0 0 0 0 0 0 0 0 0 0 0 0 127 0" result="hardAlpha"/><feOffset dy="4"/><feGaussianBlur stdDeviation="2"/><feComposite in2="hardAlpha" operator="out"/><feColorMatrix values="0 0 0 0 0 0 0 0 0 0 0 0 0 0 0 0 0 0 0.25 0"/><feBlend in2="BackgroundImageFix" result="effect1_dropShadow_884_15570"/><feBlend in="SourceGraphic" in2="effect1_dropShadow_884_15570" result="shape"/></filter><filter id="m" x="137.941" y="118.16" width="58.363" height="19.578" filterUnits="userSpaceOnUse" color-interpolation-filters="sRGB"><feFlood flood-opacity="0" result="BackgroundImageFix"/><feColorMatrix in="SourceAlpha" values="0 0 0 0 0 0 0 0 0 0 0 0 0 0 0 0 0 0 127 0" result="hardAlpha"/><feOffset dy="2"/><feGaussianBlur stdDeviation="1"/><feComposite in2="hardAlpha" operator="out"/><feColorMatrix values="0 0 0 0 0 0 0 0 0 0 0 0 0 0 0 0 0 0 0.2 0"/><feBlend in2="BackgroundImageFix" result="effect1_dropShadow_884_15570"/><feBlend in="SourceGraphic" in2="effect1_dropShadow_884_15570" result="shape"/></filter><filter id="o" x="78.606" y="38.891" width="61.855" height="49.941" filterUnits="userSpaceOnUse" color-interpolation-filters="sRGB"><feFlood flood-opacity="0" result="BackgroundImageFix"/><feColorMatrix in="SourceAlpha" values="0 0 0 0 0 0 0 0 0 0 0 0 0 0 0 0 0 0 127 0" result="hardAlpha"/><feOffset dy="4"/><feGaussianBlur stdDeviation="2"/><feComposite in2="hardAlpha" operator="out"/><feColorMatrix values="0 0 0 0 0 0 0 0 0 0 0 0 0 0 0 0 0 0 0.25 0"/><feBlend in2="BackgroundImageFix" result="effect1_dropShadow_884_15570"/><feBlend in="SourceGraphic" in2="effect1_dropShadow_884_15570" result="shape"/></filter><filter id="p" x="78.606" y="61.682" width="37.383" height="27.15" filterUnits="userSpaceOnUse" color-interpolation-filters="sRGB"><feFlood flood-opacity="0" result="BackgroundImageFix"/><feColorMatrix in="SourceAlpha" values="0 0 0 0 0 0 0 0 0 0 0 0 0 0 0 0 0 0 127 0" result="hardAlpha"/><feOffset dy="4"/><feGaussianBlur stdDeviation="2"/><feComposite in2="hardAlpha" operator="out"/><feColorMatrix values="0 0 0 0 0 0 0 0 0 0 0 0 0 0 0 0 0 0 0.1 0"/><feBlend in2="BackgroundImageFix" result="effect1_dropShadow_884_15570"/><feBlend in="SourceGraphic" in2="effect1_dropShadow_884_15570" result="shape"/></filter><filter id="q" x="109.434" y="49.941" width="31.027" height="31.793" filterUnits="userSpaceOnUse" color-interpolation-filters="sRGB"><feFlood flood-opacity="0" result="BackgroundImageFix"/><feColorMatrix in="SourceAlpha" values="0 0 0 0 0 0 0 0 0 0 0 0 0 0 0 0 0 0 127 0" result="hardAlpha"/><feOffset dy="4"/><feGaussianBlur stdDeviation="2"/><feComposite in2="hardAlpha" operator="out"/><feColorMatrix values="0 0 0 0 0 0 0 0 0 0 0 0 0 0 0 0 0 0 0.1 0"/><feBlend in2="BackgroundImageFix" result="effect1_dropShadow_884_15570"/><feBlend in="SourceGraphic" in2="effect1_dropShadow_884_15570" result="shape"/></filter><filter id="r" x="261" y="194" width="71" height="71" filterUnits="userSpaceOnUse" color-interpolation-filters="sRGB"><feFlood flood-opacity="0" result="BackgroundImageFix"/><feColorMatrix in="SourceAlpha" values="0 0 0 0 0 0 0 0 0 0 0 0 0 0 0 0 0 0 127 0" result="hardAlpha"/><feOffset dy="8"/><feGaussianBlur stdDeviation="4"/><feComposite in2="hardAlpha" operator="out"/><feColorMatrix values="0 0 0 0 0 0 0 0 0 0 0 0 0 0 0 0 0 0 0.1 0"/><feBlend in2="BackgroundImageFix" result="effect1_dropShadow_884_15570"/><feBlend in="SourceGraphic" in2="effect1_dropShadow_884_15570" result="shape"/></filter><filter id="c" x="8.656" y="41.654" width="146.855" height="158.947" filterUnits="userSpaceOnUse" color-interpolation-filters="sRGB"><feFlood flood-opacity="0" result="BackgroundImageFix"/><feColorMatrix in="SourceAlpha" values="0 0 0 0 0 0 0 0 0 0 0 0 0 0 0 0 0 0 127 0" result="hardAlpha"/><feOffset dy="8"/><feGaussianBlur stdDeviation="4"/><feComposite in2="hardAlpha" operator="out"/><feColorMatrix values="0 0 0 0 0 0 0 0 0 0 0 0 0 0 0 0 0 0 0.1 0"/><feBlend in2="BackgroundImageFix" result="effect1_dropShadow_884_15570"/><feBlend in="SourceGraphic" in2="effect1_dropShadow_884_15570" result="shape"/></filter><linearGradient id="u" x1="9.014" y1="1.163" x2="-.233" y2="3.098" gradientUnits="userSpaceOnUse"><stop stop-color="#44D4B2"/><stop offset=".485" stop-color="#61E5C6"/><stop offset="1" stop-color="#44D4B2"/></linearGradient><linearGradient id="d" x1="17" y1="80.033" x2="127.267" y2="170.266" gradientUnits="userSpaceOnUse"><stop stop-color="#FFC267"/><stop offset=".5" stop-color="#FFF0DA"/><stop offset="1" stop-color="#fff"/></linearGradient><linearGradient id="i" x1="121" y1="61.703" x2="245.208" y2="161.606" gradientUnits="userSpaceOnUse"><stop stop-color="#67BCFF"/><stop offset=".255" stop-color="#D2E9FC"/><stop offset=".54" stop-color="#E2EBF2"/><stop offset="1" stop-color="#fff"/></linearGradient><linearGradient id="s" x1="269" y1="194" x2="324" y2="249" gradientUnits="userSpaceOnUse"><stop stop-color="#fff"/><stop offset=".5" stop-color="#FF5156"/><stop offset="1" stop-color="#E7161C"/></linearGradient><linearGradient id="t" x1="307.488" y1="219.305" x2="304.622" y2="217.183" gradientUnits="userSpaceOnUse"><stop stop-color="#FDFFA5"/><stop offset="1" stop-color="#DADE31"/></linearGradient><linearGradient id="g" x1="246.602" y1="41.998" x2="356.869" y2="132.231" gradientUnits="userSpaceOnUse"><stop stop-color="#FFC267"/><stop offset=".5" stop-color="#FFF0DA"/><stop offset="1" stop-color="#fff"/></linearGradient><linearGradient id="v" x1="13.8" y1="1.908" x2="-1.096" y2="2.002" gradientUnits="userSpaceOnUse"><stop stop-color="#4DDAB9"/><stop offset=".5" stop-color="#62E6C7"/><stop offset="1" stop-color="#48D6B5"/></linearGradient><linearGradient id="x" x1="283.567" y1="233" x2="303.894" y2="238.985" gradientUnits="userSpaceOnUse"><stop stop-color="#44D5B3"/><stop offset=".505" stop-color="#44D5B3"/><stop offset="1" stop-color="#61E6C7"/></linearGradient><linearGradient id="y" x1="292.098" y1="206.003" x2="295.656" y2="211.281" gradientUnits="userSpaceOnUse"><stop stop-color="#66E8C9"/><stop offset=".5" stop-color="#51DCBB"/><stop offset="1" stop-color="#44D4B2"/></linearGradient><linearGradient id="z" x1="296.039" y1="210.011" x2="306.346" y2="217.887" gradientUnits="userSpaceOnUse"><stop stop-color="#41D2B0"/><stop offset=".535" stop-color="#61E5C6"/><stop offset="1" stop-color="#8DF7DE"/></linearGradient><clipPath id="a"><rect width="336" height="266" rx="30" fill="#fff"/></clipPath></defs></svg>