<svg width="336" height="266" fill="none" xmlns="http://www.w3.org/2000/svg"><g clip-path="url(#a)"><rect width="336" height="266" rx="30" fill="#fff"/><rect width="336" height="266" rx="30" fill="#7AAFFF"/><path d="M148 0v69" stroke="#6099FF" stroke-width="5" stroke-linecap="round" stroke-linejoin="round" stroke-dasharray="15 15"/><path d="M298.707 219c-.221 4.737-3.051 13.953-12.601 12.92" stroke="#6099FF" stroke-width="5" stroke-linejoin="round" stroke-dasharray="15 15"/><path d="M37 78.453v73.649M298.703 78.453l.303 76.547M47.664 69h239.413M48.633 163h249.105" stroke="#6099FF" stroke-width="5" stroke-linecap="round" stroke-linejoin="round" stroke-dasharray="15 15"/><path d="M37 78.387c.221-3.421 3.05-10.075 12.6-9.33M298.707 78.387c-.221-3.421-3.051-10.075-12.601-9.33M37 150c.221 4.737 3.05 13.953 12.6 12.92" stroke="#6099FF" stroke-width="5" stroke-linejoin="round" stroke-dasharray="15 15"/><path d="M298.707 150v70M148 230v36M159 221h140" stroke="#6099FF" stroke-width="5" stroke-linecap="round" stroke-linejoin="round" stroke-dasharray="15 15"/><path d="M148 230.387c.221-3.421 3.051-10.075 12.601-9.329" stroke="#6099FF" stroke-width="5" stroke-linejoin="round" stroke-dasharray="15 15"/><g filter="url(#b)"><path d="m125.185 136.293-9.983 6.454 9.564 4.929.419-11.383z" fill="#FF8E92"/><path d="m145.473 113.273-9.359 5.959 9.348 5.092.011-11.051z" fill="#FA777B"/><path d="m50.707 129.597 52.523 30.987.074 12.144-52.618-31.076.021-12.055z" fill="#FEC5C7"/><path d="m124.785 147.715-21.51 12.939-.008 12.032 21.488-13.728.03-11.243z" fill="#FF8E92"/><path d="m124.971 136.766 11.26 6.125-.109 11.947-11.354-7.202.203-10.87z" fill="#FEC5C7"/><path d="m157.656 129.838-21.599 13.321.062 11.681 21.567-13.669-.03-11.333z" fill="#FF8E92"/><path d="m124.18 112.628 10.012-5.536 11.305 6.219-9.271 5.84-12.046-6.523z" fill="#FF4E53"/><path d="m50.703 129.492 20.336-11.254 53.77 29.445-21.462 12.945-52.644-31.136zM80.3 112.764l21.197-12.481 56.152 29.635-21.531 13.252-55.817-30.406z" fill="#FF686C"/><path d="m70.785 118.409 9.908-5.882 44.899 24.398-9.749 6.19-45.058-24.706z" fill="#FF686C"/></g><g filter="url(#c)"><path d="m144.419 92.208 9.368 6.738v10.761l-9.318-6.01-.05-11.489z" fill="#03A74E"/><path d="M218.384 85.978 165.78 116.8l.037 11.844 52.567-30.8V85.978z" fill="#037939"/><path d="m144.35 104.036 21.468 12.633v11.981l-21.585-12.79.117-11.824zM185.594 105.18l10.176 6.5v11.871l-10.177-6.443.001-11.928z" fill="#03A74E"/><path d="m218.383 85.982-21.475-12.43-52.569 30.523 21.496 12.738 52.548-30.83zM187.199 68.053 164.828 55.09l-53.604 31 21.706 13.043 54.269-31.081z" fill="#019444"/><path d="m196.901 73.548-9.892-5.594-42.959 24.249 9.327 6.782 43.524-25.437z" fill="#019444"/><path d="M207.361 116.391v-11.174l-11.593 6.614v11.743l11.593-7.183zM144.504 103.624l.024-11.132-11.594 6.611-.026 11.7 11.596-7.179z" fill="#037939"/><path d="m111.22 86.098 21.721 13.012v11.686l-21.62-12.941-.101-11.757z" fill="#03A74E"/><path d="m207.374 105.228-11.039-6.516-10.74 6.5 10.182 6.627 11.597-6.611z" fill="#019444"/></g><g filter="url(#d)"><path d="m210.767 107.994-.139 11.602 10.93-5.558-10.791-6.044zM178.21 127.467l52.495 30.934-.007 11.977-52.496-31.024.008-11.887z" fill="#FFF881"/><path d="m285.056 126.004-54.201 32.259-.085 12.064 54.286-32.443v-11.88z" fill="#DEE949"/><path d="m178.125 127.568 19.862-11.64 54.275 29.442-21.67 13.093-52.467-30.895zM210.633 108.008l19.972-11.455 54.453 29.463-21.849 13.072-52.576-31.08z" fill="#F3FC77"/><path d="m207.463 121.108 13.066-7.665 43.524 25.153-12.043 6.959-44.547-24.447z" fill="#F3FC77"/><path d="m187.277 146.351 10.317 5.936.023 11.871-10.344-5.936.004-11.871z" fill="#FFF881"/><path d="m209.276 145.508-10.419-6.263-11.589 7.114 10.333 5.995 11.675-6.846z" fill="#F3FC77"/><path d="M209.091 156.969v-11.211l-11.498 6.526-.004 11.872 11.502-7.187z" fill="#DEE949"/></g><g filter="url(#e)"><path d="M183.911 160.882v-10.966l-9.604 5.597 9.604 5.369z" fill="#3875D1"/><path d="m110.25 170.205 52.824 30.423-.065 12.381-52.759-30.916v-11.888z" fill="#9AC0FF"/><path d="m216.422 168.242-53.412 32.785-.008 11.97 53.387-32.602.033-12.153z" fill="#3875D1"/><path d="m126.269 150.124 10.458 5.963-.488 12.435-9.97-7.633v-10.765z" fill="#9AC0FF"/><path d="m147.176 149.005-9.689-5.495-11.227 6.607 10.18 5.965 10.736-7.077z" fill="#73ABFF"/><path d="m147.929 160.655.004-11.308-11.692 6.86-.004 12.36 11.692-7.912z" fill="#D9D9D9"/><path d="m110.246 170.381 45.689-26.456 51.064 30.116-43.945 26.956-52.808-30.616z" fill="#73ABFF"/><path d="m173.664 168.514 22.417-11.856 20.335 11.573-9.607 5.953-7.068 4.222-3.674 2.36-22.403-12.252zM142.96 151.357l21.741-12.414 19.219 11.023-22.045 13-18.915-11.609z" fill="#73ABFF"/></g><g filter="url(#f)"><circle cx="168" cy="133" r="48" fill="#CBA3FF"/><path d="M157.965 126.686h2v-14c0-7.732-6.268-14-14-14s-14 6.268-14 14 6.268 14 14 14h12z" fill="#fff" stroke="url(#g)" stroke-width="4"/><circle cx="146.184" cy="112.938" r="8.727" fill="#69BCE6"/><path d="M145.544 111.333v-1.113h1.939v5.11h-1.246v-3.997h-.693z" fill="#fff"/><path d="M157.965 137.555h2v14c0 7.732-6.268 14-14 14s-14-6.268-14-14 6.268-14 14-14h12z" fill="#fff" stroke="url(#h)" stroke-width="4"/><path d="M176.293 126.686h-2v-14c0-7.732 6.268-14 14-14s14 6.268 14 14-6.268 14-14 14h-12z" fill="#fff" stroke="url(#i)" stroke-width="4"/><circle cx="188.079" cy="112.938" r="8.727" fill="#396C8C"/><path d="M186.277 114.371a25.04 25.04 0 0 0 1.295-1.106c.266-.243.49-.497.672-.763.182-.266.273-.525.273-.777 0-.191-.044-.341-.133-.448-.088-.107-.221-.161-.399-.161a.5.5 0 0 0-.42.203c-.098.131-.147.317-.147.56h-1.155c.01-.397.094-.728.252-.994.164-.266.376-.462.637-.588.266-.126.56-.189.882-.189.556 0 .973.142 1.253.427.285.285.427.656.427 1.113 0 .499-.17.964-.511 1.393a7.54 7.54 0 0 1-1.302 1.246h1.89v.973h-3.514v-.889z" fill="#fff"/><path d="M176.293 137.555h-2v14c0 7.732 6.268 14 14 14s14-6.268 14-14-6.268-14-14-14h-12z" fill="#fff" stroke="url(#j)" stroke-width="4"/><circle cx="146.184" cy="151.319" r="8.727" fill="#307DA2"/><path d="M144.108 149.799c.018-.5.182-.885.49-1.155.308-.271.725-.406 1.253-.406.35 0 .648.06.896.182.252.121.441.287.567.497.13.21.196.445.196.707 0 .308-.077.56-.231.756a1.18 1.18 0 0 1-.539.392v.028c.266.088.476.235.63.441.154.205.231.469.231.791 0 .289-.068.546-.203.77a1.35 1.35 0 0 1-.581.518 1.999 1.999 0 0 1-.903.189c-.56 0-1.008-.138-1.344-.413-.332-.276-.507-.691-.525-1.246h1.162a.718.718 0 0 0 .175.49c.112.116.275.175.49.175.182 0 .322-.052.42-.154a.587.587 0 0 0 .154-.42c0-.224-.073-.385-.217-.483-.14-.103-.367-.154-.679-.154h-.224v-.973h.224c.238 0 .429-.04.574-.119.149-.084.224-.231.224-.441a.53.53 0 0 0-.14-.392.52.52 0 0 0-.385-.14c-.178 0-.311.053-.399.161a.735.735 0 0 0-.147.399h-1.169z" fill="#fff"/><circle cx="188.079" cy="151.319" r="8.727" fill="#1C3E4C"/><path d="M185.978 152.557v-.966l2.212-3.164h1.337v3.094h.574v1.036h-.574v.91h-1.197v-.91h-2.352zm2.436-2.814-1.176 1.778h1.176v-1.778z" fill="#fff"/><g filter="url(#k)"><path stroke="url(#l)" stroke-width="4" d="M160 135.84v-21.12"/></g><g filter="url(#m)"><path stroke="#3C8AB0" stroke-width="4" d="M148.844 137.551h24"/></g><g filter="url(#n)"><path stroke="#204859" stroke-width="4" d="M174.301 152.199v-26.88"/></g><g filter="url(#o)"><path stroke="#3981B0" stroke-width="4" d="M161.895 126.699h24"/></g></g><g filter="url(#p)"><g filter="url(#q)"><circle cx="299.5" cy="221.5" r="27.5" fill="#ACFFBA"/></g><g filter="url(#r)"><rect x="282.004" y="205.998" width="35" height="25" rx="3" fill="#fff" stroke="#D84949" stroke-width="2"/><circle cx="290.504" cy="213.498" r="4" fill="#FBFCC1" stroke="#FFA800"/><circle cx="310.504" cy="213.498" r="3" fill="#71207D" stroke="#38A627"/><path d="M306.973 218.727c1.056 0 2.069.416 2.814 1.156a3.924 3.924 0 0 1 1.164 2.787 3.924 3.924 0 0 1-1.164 2.787 3.995 3.995 0 0 1-2.814 1.157 3.997 3.997 0 0 1-2.815-1.157 3.924 3.924 0 0 1-1.164-2.787c0-1.045.418-2.047 1.164-2.787a3.996 3.996 0 0 1 2.815-1.156zm0 9.855c2.368 0 4.509.777 6.05 1.84 1.573 1.084 2.407 2.377 2.407 3.357v1.722h-16.914v-1.722c0-.98.834-2.273 2.406-3.357 1.542-1.063 3.683-1.84 6.051-1.84z" fill="#014590" stroke="#fff"/></g></g></g><defs><filter id="p" x="268" y="194" width="63" height="63" filterUnits="userSpaceOnUse" color-interpolation-filters="sRGB"><feFlood flood-opacity="0" result="BackgroundImageFix"/><feColorMatrix in="SourceAlpha" values="0 0 0 0 0 0 0 0 0 0 0 0 0 0 0 0 0 0 127 0" result="hardAlpha"/><feOffset dy="4"/><feGaussianBlur stdDeviation="2"/><feComposite in2="hardAlpha" operator="out"/><feColorMatrix values="0 0 0 0 0 0 0 0 0 0 0 0 0 0 0 0 0 0 0.25 0"/><feBlend in2="BackgroundImageFix" result="effect1_dropShadow_884_16151"/><feBlend in="SourceGraphic" in2="effect1_dropShadow_884_16151" result="shape"/></filter><filter id="b" x="46.688" y="100.283" width="115" height="80.445" filterUnits="userSpaceOnUse" color-interpolation-filters="sRGB"><feFlood flood-opacity="0" result="BackgroundImageFix"/><feColorMatrix in="SourceAlpha" values="0 0 0 0 0 0 0 0 0 0 0 0 0 0 0 0 0 0 127 0" result="hardAlpha"/><feOffset dy="4"/><feGaussianBlur stdDeviation="2"/><feComposite in2="hardAlpha" operator="out"/><feColorMatrix values="0 0 0 0 0 0 0 0 0 0 0 0 0 0 0 0 0 0 0.25 0"/><feBlend in2="BackgroundImageFix" result="effect1_dropShadow_884_16151"/><feBlend in="SourceGraphic" in2="effect1_dropShadow_884_16151" result="shape"/></filter><filter id="d" x="174.125" y="96.553" width="114.934" height="81.826" filterUnits="userSpaceOnUse" color-interpolation-filters="sRGB"><feFlood flood-opacity="0" result="BackgroundImageFix"/><feColorMatrix in="SourceAlpha" values="0 0 0 0 0 0 0 0 0 0 0 0 0 0 0 0 0 0 127 0" result="hardAlpha"/><feOffset dy="4"/><feGaussianBlur stdDeviation="2"/><feComposite in2="hardAlpha" operator="out"/><feColorMatrix values="0 0 0 0 0 0 0 0 0 0 0 0 0 0 0 0 0 0 0.25 0"/><feBlend in2="BackgroundImageFix" result="effect1_dropShadow_884_16151"/><feBlend in="SourceGraphic" in2="effect1_dropShadow_884_16151" result="shape"/></filter><filter id="e" x="106.246" y="138.943" width="114.176" height="82.066" filterUnits="userSpaceOnUse" color-interpolation-filters="sRGB"><feFlood flood-opacity="0" result="BackgroundImageFix"/><feColorMatrix in="SourceAlpha" values="0 0 0 0 0 0 0 0 0 0 0 0 0 0 0 0 0 0 127 0" result="hardAlpha"/><feOffset dy="4"/><feGaussianBlur stdDeviation="2"/><feComposite in2="hardAlpha" operator="out"/><feColorMatrix values="0 0 0 0 0 0 0 0 0 0 0 0 0 0 0 0 0 0 0.25 0"/><feBlend in2="BackgroundImageFix" result="effect1_dropShadow_884_16151"/><feBlend in="SourceGraphic" in2="effect1_dropShadow_884_16151" result="shape"/></filter><filter id="f" x="116" y="85" width="104" height="104" filterUnits="userSpaceOnUse" color-interpolation-filters="sRGB"><feFlood flood-opacity="0" result="BackgroundImageFix"/><feColorMatrix in="SourceAlpha" values="0 0 0 0 0 0 0 0 0 0 0 0 0 0 0 0 0 0 127 0" result="hardAlpha"/><feOffset dy="4"/><feGaussianBlur stdDeviation="2"/><feComposite in2="hardAlpha" operator="out"/><feColorMatrix values="0 0 0 0 0 0 0 0 0 0 0 0 0 0 0 0 0 0 0.25 0"/><feBlend in2="BackgroundImageFix" result="effect1_dropShadow_884_16151"/><feBlend in="SourceGraphic" in2="effect1_dropShadow_884_16151" result="shape"/></filter><filter id="k" x="154" y="114.721" width="12" height="29.119" filterUnits="userSpaceOnUse" color-interpolation-filters="sRGB"><feFlood flood-opacity="0" result="BackgroundImageFix"/><feColorMatrix in="SourceAlpha" values="0 0 0 0 0 0 0 0 0 0 0 0 0 0 0 0 0 0 127 0" result="hardAlpha"/><feOffset dy="4"/><feGaussianBlur stdDeviation="2"/><feComposite in2="hardAlpha" operator="out"/><feColorMatrix values="0 0 0 0 0 0 0 0 0 0 0 0 0 0 0 0 0 0 0.25 0"/><feBlend in2="BackgroundImageFix" result="effect1_dropShadow_884_16151"/><feBlend in="SourceGraphic" in2="effect1_dropShadow_884_16151" result="shape"/></filter><filter id="m" x="144.844" y="135.551" width="32" height="12" filterUnits="userSpaceOnUse" color-interpolation-filters="sRGB"><feFlood flood-opacity="0" result="BackgroundImageFix"/><feColorMatrix in="SourceAlpha" values="0 0 0 0 0 0 0 0 0 0 0 0 0 0 0 0 0 0 127 0" result="hardAlpha"/><feOffset dy="4"/><feGaussianBlur stdDeviation="2"/><feComposite in2="hardAlpha" operator="out"/><feColorMatrix values="0 0 0 0 0 0 0 0 0 0 0 0 0 0 0 0 0 0 0.25 0"/><feBlend in2="BackgroundImageFix" result="effect1_dropShadow_884_16151"/><feBlend in="SourceGraphic" in2="effect1_dropShadow_884_16151" result="shape"/></filter><filter id="n" x="168.301" y="125.318" width="12" height="34.881" filterUnits="userSpaceOnUse" color-interpolation-filters="sRGB"><feFlood flood-opacity="0" result="BackgroundImageFix"/><feColorMatrix in="SourceAlpha" values="0 0 0 0 0 0 0 0 0 0 0 0 0 0 0 0 0 0 127 0" result="hardAlpha"/><feOffset dy="4"/><feGaussianBlur stdDeviation="2"/><feComposite in2="hardAlpha" operator="out"/><feColorMatrix values="0 0 0 0 0 0 0 0 0 0 0 0 0 0 0 0 0 0 0.25 0"/><feBlend in2="BackgroundImageFix" result="effect1_dropShadow_884_16151"/><feBlend in="SourceGraphic" in2="effect1_dropShadow_884_16151" result="shape"/></filter><filter id="o" x="157.895" y="124.699" width="32" height="12" filterUnits="userSpaceOnUse" color-interpolation-filters="sRGB"><feFlood flood-opacity="0" result="BackgroundImageFix"/><feColorMatrix in="SourceAlpha" values="0 0 0 0 0 0 0 0 0 0 0 0 0 0 0 0 0 0 127 0" result="hardAlpha"/><feOffset dy="4"/><feGaussianBlur stdDeviation="2"/><feComposite in2="hardAlpha" operator="out"/><feColorMatrix values="0 0 0 0 0 0 0 0 0 0 0 0 0 0 0 0 0 0 0.25 0"/><feBlend in2="BackgroundImageFix" result="effect1_dropShadow_884_16151"/><feBlend in="SourceGraphic" in2="effect1_dropShadow_884_16151" result="shape"/></filter><filter id="c" x="107.219" y="55.092" width="115.164" height="81.559" filterUnits="userSpaceOnUse" color-interpolation-filters="sRGB"><feFlood flood-opacity="0" result="BackgroundImageFix"/><feColorMatrix in="SourceAlpha" values="0 0 0 0 0 0 0 0 0 0 0 0 0 0 0 0 0 0 127 0" result="hardAlpha"/><feOffset dy="4"/><feGaussianBlur stdDeviation="2"/><feComposite in2="hardAlpha" operator="out"/><feColorMatrix values="0 0 0 0 0 0 0 0 0 0 0 0 0 0 0 0 0 0 0.25 0"/><feBlend in2="BackgroundImageFix" result="effect1_dropShadow_884_16151"/><feBlend in="SourceGraphic" in2="effect1_dropShadow_884_16151" result="shape"/></filter><filter id="q" x="268" y="194" width="63" height="63" filterUnits="userSpaceOnUse" color-interpolation-filters="sRGB"><feFlood flood-opacity="0" result="BackgroundImageFix"/><feColorMatrix in="SourceAlpha" values="0 0 0 0 0 0 0 0 0 0 0 0 0 0 0 0 0 0 127 0" result="hardAlpha"/><feOffset dy="4"/><feGaussianBlur stdDeviation="2"/><feComposite in2="hardAlpha" operator="out"/><feColorMatrix values="0 0 0 0 0 0 0 0 0 0 0 0 0 0 0 0 0 0 0.25 0"/><feBlend in2="BackgroundImageFix" result="effect1_dropShadow_884_16151"/><feBlend in="SourceGraphic" in2="effect1_dropShadow_884_16151" result="shape"/></filter><filter id="r" x="277.004" y="204.998" width="45" height="39.002" filterUnits="userSpaceOnUse" color-interpolation-filters="sRGB"><feFlood flood-opacity="0" result="BackgroundImageFix"/><feColorMatrix in="SourceAlpha" values="0 0 0 0 0 0 0 0 0 0 0 0 0 0 0 0 0 0 127 0" result="hardAlpha"/><feOffset dy="4"/><feGaussianBlur stdDeviation="2"/><feComposite in2="hardAlpha" operator="out"/><feColorMatrix values="0 0 0 0 0 0 0 0 0 0 0 0 0 0 0 0 0 0 0.25 0"/><feBlend in2="BackgroundImageFix" result="effect1_dropShadow_884_16151"/><feBlend in="SourceGraphic" in2="effect1_dropShadow_884_16151" result="shape"/></filter><radialGradient id="g" cx="0" cy="0" r="1" gradientUnits="userSpaceOnUse" gradientTransform="rotate(106.39 37.574 115.332) scale(15.1886)"><stop stop-color="#81D8FF"/><stop offset=".427" stop-color="#65B8E2"/><stop offset="1" stop-color="#3580AF"/></radialGradient><radialGradient id="h" cx="0" cy="0" r="1" gradientUnits="userSpaceOnUse" gradientTransform="rotate(21.25 -314.1 428.539) scale(33.1084)"><stop stop-color="#00486C"/><stop offset="1" stop-color="#81D8FF"/></radialGradient><radialGradient id="i" cx="0" cy="0" r="1" gradientUnits="userSpaceOnUse" gradientTransform="rotate(-176.634 103.188 56.791) scale(29.1932)"><stop stop-color="#37A7EE"/><stop offset="1" stop-color="#396988"/></radialGradient><radialGradient id="j" cx="0" cy="0" r="1" gradientUnits="userSpaceOnUse" gradientTransform="rotate(92.49 20.535 155.87) scale(19.7329)"><stop stop-color="#337794"/><stop offset="1" stop-color="#1C3E4C"/></radialGradient><linearGradient id="l" x1="160.75" y1="110.312" x2="185.892" y2="135.312" gradientUnits="userSpaceOnUse"><stop stop-color="#77CCF4"/><stop offset="1" stop-color="#4D8198"/></linearGradient><clipPath id="a"><rect width="336" height="266" rx="30" fill="#fff"/></clipPath></defs></svg>