<svg width="336" height="266" fill="none" xmlns="http://www.w3.org/2000/svg"><g clip-path="url(#a)"><rect width="336" height="266" rx="30" fill="#fff"/><g filter="url(#b)"><rect x="1" width="336" height="266" rx="30" fill="#FFECAC"/></g><path d="M148 0v69" stroke="#FFE079" stroke-width="5" stroke-linecap="round" stroke-linejoin="round" stroke-dasharray="15 15"/><path d="M298.707 219c-.221 4.737-3.051 13.953-12.601 12.92" stroke="#FFE079" stroke-width="5" stroke-linejoin="round" stroke-dasharray="15 15"/><path d="M37 78.453v73.649M298.703 78.453l.303 76.547M47.664 69h239.413M48.633 163h249.105" stroke="#FFE079" stroke-width="5" stroke-linecap="round" stroke-linejoin="round" stroke-dasharray="15 15"/><path d="M37 78.387c.221-3.421 3.05-10.075 12.6-9.33M298.707 78.387c-.221-3.421-3.051-10.075-12.601-9.33M37 150c.221 4.737 3.05 13.953 12.6 12.92" stroke="#FFE079" stroke-width="5" stroke-linejoin="round" stroke-dasharray="15 15"/><path d="M298.707 150v70M148 230v36M159 221h140" stroke="#FFE079" stroke-width="5" stroke-linecap="round" stroke-linejoin="round" stroke-dasharray="15 15"/><path d="M148 230.387c.221-3.421 3.051-10.075 12.601-9.329" stroke="#FFE079" stroke-width="5" stroke-linejoin="round" stroke-dasharray="15 15"/><g filter="url(#c)"><circle cx="290.5" cy="221.5" r="27.5" fill="#FB9EE8"/><g filter="url(#d)" fill="#fff" stroke="#3766AC" stroke-width="2"><rect x="274" y="208" width="27" height="22.909" rx="3"/><path d="M300 216.455h1v-5a3 3 0 0 0-3-3h-21a3 3 0 0 0-3 3v5h26z"/></g><path d="m288.318 231.368 1.282 1.257 1.636-1.596-1.291-1.266M296 219.698c-3.009 0-5.455 2.398-5.455 5.349s2.446 5.349 5.455 5.349 5.455-2.398 5.455-5.349c0-2.96-2.446-5.349-5.455-5.349zm7.273 6.24H306v-1.783h-2.727m-2.509 6.874 1.636 1.596 1.282-1.257-1.627-1.605m1.627-10.957-1.282-1.248-1.636 1.596 1.291 1.266m-5.146-5.18h-1.818v2.675h1.818m-5.673 1.239-1.636-1.596-1.282 1.248 1.627 1.614 1.291-1.266zM286 225.938h2.727v-1.783H286m10.909 8.024h-1.818v2.675h1.818" fill="#FBFCC1"/><path d="m288.318 231.368 1.282 1.257 1.636-1.596-1.291-1.266m13.328-3.825H306v-1.783h-2.727m-2.509 6.874 1.636 1.596 1.282-1.257-1.627-1.605m1.627-10.957-1.282-1.248-1.636 1.596 1.291 1.266m-5.146-5.18h-1.818v2.675h1.818M286 225.938h2.727v-1.783H286m10.909 8.024h-1.818v2.675h1.818M296 219.698c-3.009 0-5.455 2.398-5.455 5.349s2.446 5.349 5.455 5.349 5.455-2.398 5.455-5.349c0-2.96-2.446-5.349-5.455-5.349zm-4.764-.544-1.636-1.596-1.282 1.248 1.627 1.614 1.291-1.266zM296.66 231.959v3.04M296.66 215v3.04" stroke="#FFA800" stroke-width=".5"/><path transform="scale(-1.00971 -.9902) rotate(-45 -423.608 230.785)" stroke="#FFA800" stroke-width=".5" d="M0-.25h2.674"/><path transform="scale(-1.00971 -.9902) rotate(-45 -429.598 245.247)" stroke="#FFA800" stroke-width=".5" d="M0-.25h2.179"/><path transform="matrix(-.70164 .71253 -.72608 -.68761 303.285 218.514)" stroke="#FFA800" stroke-width=".5" d="M0-.25h2.475"/><path stroke="#FFA800" stroke-width=".5" d="M286.25 226.178v-2.256M303.52 226.178v-2.256"/></g><g filter="url(#e)"><path d="m232.156 93.072-27.474-15.06L148 112.924l22.54 12.634 61.616-32.486zM195.461 72.998l-25.683-14.073-59.707 32.655 25.594 14.447 59.796-33.029z" fill="#019444"/><path d="m204.688 78.003-10.751-5.841-46.522 26.261 10.823 8.653 46.45-29.073zM222.571 110.563l-14.689-7.355-16.048 9.339 13.464 7.575 17.273-9.559z" fill="#019444"/><path d="m48.719 125.189 59.823 35-.177 14.114-59.646-35.093v-14.021z" fill="#FEC5C7"/><path d="m170.402 127.123-24.755 14.634-.179 13.237 24.727-15.029.207-12.842z" fill="#FF8E92"/><path d="m48.723 125.146 61.45-33.59 60.517 34.159-61.344 34.965-60.623-35.534z" fill="#FF686C"/><path d="m130.608 107.572 16.752-9.111 15.066 7.623-17.108 9.602-14.71-8.114z" fill="#FF686C"/><path d="m170.637 125.803 26.385-14.475 60.463 35.761-26.395 14.475-60.453-35.761zM209.793 104.535l21.358-12.044 63.175 34.243-23.99 13.136-60.543-35.335z" fill="#F3FC77"/><path d="m206.386 118.995 15.326-8.519 50.245 28.942-13.933 7.955-51.638-28.378z" fill="#F3FC77"/><path d="m179.474 145.125 11.691 6.728.026 13.451-11.722-6.726.005-13.453z" fill="#FFF881"/><path d="m212.765 148.764-17.28-13.38-15.875 9.971 17.084 12.888 16.071-9.479z" fill="#F3FC77"/><path d="m294.094 126.664-62.863 34.942-.289 14.081 63.181-34.609-.029-14.414z" fill="#DEE949"/><path d="m153.602 136.029-12.59-6.605-14.605 8.573 11.017 6.547 16.178-8.515z" fill="#73ABFF"/><path d="m150.961 149.94.004-12.815-13.25 7.773-.004 14.008 13.25-8.966z" fill="#D9D9D9"/><path d="m185.178 163.351 25.304-15.348 22.813 12.502-26.916 15.868-21.201-13.022z" fill="#73ABFF"/><path d="m108.258 160.047 49.606-26.555 62.156 34.045-51.913 28.135-59.849-35.625z" fill="#73ABFF"/><path d="m145.644 139.583 25.173-13.873 22.694 13.043-25.515 14.543-22.352-13.713z" fill="#73ABFF"/><path d="m108.267 160.038 59.828 35.477.001 14.591-59.828-35.857-.001-14.211z" fill="#9AC0FF"/><path d="m233.297 160.463-65.218 35.07v14.58l65.246-35.761-.028-13.889z" fill="#3875D1"/></g><g filter="url(#f)"><g filter="url(#g)"><circle cx="169" cy="133" r="48" fill="#ACFFBA"/></g><g filter="url(#h)"><rect x="139.203" y="106.689" width="59.6" height="42.145" rx="3" fill="#fff" stroke="#D84949" stroke-width="2"/><circle cx="153.293" cy="119.035" r="6.609" fill="#FBFCC1" stroke="#FFA800"/><circle cx="188.203" cy="119.036" r="4.864" fill="#71207D" stroke="#38A627"/><path d="M182.041 127.785a7.35 7.35 0 0 1 5.175 2.127 7.224 7.224 0 0 1 2.142 5.129c0 1.923-.77 3.768-2.142 5.13a7.35 7.35 0 0 1-5.175 2.126 7.35 7.35 0 0 1-5.176-2.126 7.228 7.228 0 0 1-2.142-5.13c0-1.923.77-3.768 2.142-5.129a7.351 7.351 0 0 1 5.176-2.127zm0 17.203c4.212 0 8.022 1.381 10.772 3.276 2.781 1.917 4.362 4.272 4.362 6.167v3.378h-30.269v-3.378c0-1.895 1.581-4.25 4.362-6.167 2.75-1.895 6.56-3.276 10.773-3.276z" fill="#014590" stroke="#fff"/></g></g></g><defs><filter id="b" x="-3" y="0" width="344" height="274" filterUnits="userSpaceOnUse" color-interpolation-filters="sRGB"><feFlood flood-opacity="0" result="BackgroundImageFix"/><feColorMatrix in="SourceAlpha" values="0 0 0 0 0 0 0 0 0 0 0 0 0 0 0 0 0 0 127 0" result="hardAlpha"/><feOffset dy="4"/><feGaussianBlur stdDeviation="2"/><feComposite in2="hardAlpha" operator="out"/><feColorMatrix values="0 0 0 0 0 0 0 0 0 0 0 0 0 0 0 0 0 0 0.25 0"/><feBlend in2="BackgroundImageFix" result="effect1_dropShadow_884_16295"/><feBlend in="SourceGraphic" in2="effect1_dropShadow_884_16295" result="shape"/></filter><filter id="c" x="259" y="194" width="63" height="63" filterUnits="userSpaceOnUse" color-interpolation-filters="sRGB"><feFlood flood-opacity="0" result="BackgroundImageFix"/><feColorMatrix in="SourceAlpha" values="0 0 0 0 0 0 0 0 0 0 0 0 0 0 0 0 0 0 127 0" result="hardAlpha"/><feOffset dy="4"/><feGaussianBlur stdDeviation="2"/><feComposite in2="hardAlpha" operator="out"/><feColorMatrix values="0 0 0 0 0 0 0 0 0 0 0 0 0 0 0 0 0 0 0.25 0"/><feBlend in2="BackgroundImageFix" result="effect1_dropShadow_884_16295"/><feBlend in="SourceGraphic" in2="effect1_dropShadow_884_16295" result="shape"/></filter><filter id="d" x="269" y="207" width="37" height="32.908" filterUnits="userSpaceOnUse" color-interpolation-filters="sRGB"><feFlood flood-opacity="0" result="BackgroundImageFix"/><feColorMatrix in="SourceAlpha" values="0 0 0 0 0 0 0 0 0 0 0 0 0 0 0 0 0 0 127 0" result="hardAlpha"/><feOffset dy="4"/><feGaussianBlur stdDeviation="2"/><feComposite in2="hardAlpha" operator="out"/><feColorMatrix values="0 0 0 0 0 0 0 0 0 0 0 0 0 0 0 0 0 0 0.25 0"/><feBlend in2="BackgroundImageFix" result="effect1_dropShadow_884_16295"/><feBlend in="SourceGraphic" in2="effect1_dropShadow_884_16295" result="shape"/></filter><filter id="e" x="44.719" y="58.926" width="253.609" height="159.188" filterUnits="userSpaceOnUse" color-interpolation-filters="sRGB"><feFlood flood-opacity="0" result="BackgroundImageFix"/><feColorMatrix in="SourceAlpha" values="0 0 0 0 0 0 0 0 0 0 0 0 0 0 0 0 0 0 127 0" result="hardAlpha"/><feOffset dy="4"/><feGaussianBlur stdDeviation="2"/><feComposite in2="hardAlpha" operator="out"/><feColorMatrix values="0 0 0 0 0 0 0 0 0 0 0 0 0 0 0 0 0 0 0.25 0"/><feBlend in2="BackgroundImageFix" result="effect1_dropShadow_884_16295"/><feBlend in="SourceGraphic" in2="effect1_dropShadow_884_16295" result="shape"/></filter><filter id="f" x="117" y="85" width="104" height="104" filterUnits="userSpaceOnUse" color-interpolation-filters="sRGB"><feFlood flood-opacity="0" result="BackgroundImageFix"/><feColorMatrix in="SourceAlpha" values="0 0 0 0 0 0 0 0 0 0 0 0 0 0 0 0 0 0 127 0" result="hardAlpha"/><feOffset dy="4"/><feGaussianBlur stdDeviation="2"/><feComposite in2="hardAlpha" operator="out"/><feColorMatrix values="0 0 0 0 0 0 0 0 0 0 0 0 0 0 0 0 0 0 0.25 0"/><feBlend in2="BackgroundImageFix" result="effect1_dropShadow_884_16295"/><feBlend in="SourceGraphic" in2="effect1_dropShadow_884_16295" result="shape"/></filter><filter id="g" x="117" y="85" width="104" height="104" filterUnits="userSpaceOnUse" color-interpolation-filters="sRGB"><feFlood flood-opacity="0" result="BackgroundImageFix"/><feColorMatrix in="SourceAlpha" values="0 0 0 0 0 0 0 0 0 0 0 0 0 0 0 0 0 0 127 0" result="hardAlpha"/><feOffset dy="4"/><feGaussianBlur stdDeviation="2"/><feComposite in2="hardAlpha" operator="out"/><feColorMatrix values="0 0 0 0 0 0 0 0 0 0 0 0 0 0 0 0 0 0 0.25 0"/><feBlend in2="BackgroundImageFix" result="effect1_dropShadow_884_16295"/><feBlend in="SourceGraphic" in2="effect1_dropShadow_884_16295" result="shape"/></filter><filter id="h" x="134.203" y="105.689" width="69.602" height="60.619" filterUnits="userSpaceOnUse" color-interpolation-filters="sRGB"><feFlood flood-opacity="0" result="BackgroundImageFix"/><feColorMatrix in="SourceAlpha" values="0 0 0 0 0 0 0 0 0 0 0 0 0 0 0 0 0 0 127 0" result="hardAlpha"/><feOffset dy="4"/><feGaussianBlur stdDeviation="2"/><feComposite in2="hardAlpha" operator="out"/><feColorMatrix values="0 0 0 0 0 0 0 0 0 0 0 0 0 0 0 0 0 0 0.25 0"/><feBlend in2="BackgroundImageFix" result="effect1_dropShadow_884_16295"/><feBlend in="SourceGraphic" in2="effect1_dropShadow_884_16295" result="shape"/></filter><clipPath id="a"><rect width="336" height="266" rx="30" fill="#fff"/></clipPath></defs></svg>