<svg width="336" height="266" fill="none" xmlns="http://www.w3.org/2000/svg"><g clip-path="url(#a)"><rect width="336" height="266" rx="30" fill="#fff"/><rect width="336" height="266" rx="30" fill="#FF9494"/><path d="M138 0v69" stroke="#FF8383" stroke-width="5" stroke-linecap="round" stroke-linejoin="round" stroke-dasharray="15 15"/><path d="M298.707 219c-.221 4.737-3.051 13.953-12.601 12.92" stroke="#FF8383" stroke-width="5" stroke-linejoin="round" stroke-dasharray="15 15"/><path d="M37 78.453v73.649M298.703 78.453l.303 76.547M47.664 69h239.413M48.633 163h249.105" stroke="#FF8383" stroke-width="5" stroke-linecap="round" stroke-linejoin="round" stroke-dasharray="15 15"/><path d="M37 78.387c.221-3.421 3.05-10.075 12.6-9.33M298.707 78.387c-.221-3.421-3.051-10.075-12.601-9.33M37 150c.221 4.737 3.05 13.953 12.6 12.92" stroke="#FF8383" stroke-width="5" stroke-linejoin="round" stroke-dasharray="15 15"/><path d="M298.707 150v70M148 230v36M159 221h140" stroke="#FF8383" stroke-width="5" stroke-linecap="round" stroke-linejoin="round" stroke-dasharray="15 15"/><path d="M148 230.387c.221-3.421 3.051-10.075 12.601-9.329" stroke="#FF8383" stroke-width="5" stroke-linejoin="round" stroke-dasharray="15 15"/><g filter="url(#b)"><g filter="url(#c)"><rect x="58" y="70" width="109.554" height="62" rx="2" fill="#fff"/><rect x="57.5" y="69.5" width="110.554" height="63" rx="2.5" stroke="url(#d)"/></g><rect x="66.019" y="79.66" width="93.517" height="7.941" rx="2.25" stroke="#FFBE5C" stroke-width=".5"/><rect x="120.719" y="79.912" width="38.568" height="7.441" rx="2" fill="#B50808"/><rect x="91.227" y="79.912" width="38.568" height="7.441" rx="2" fill="#DA0707"/><rect x="66.269" y="79.912" width="34.031" height="7.441" rx="2" fill="#9F0505"/><rect x="66.269" y="79.912" width="34.031" height="7.441" rx="2" fill="#5CBD54"/><rect x="66.019" y="97.022" width="93.517" height="7.941" rx="2.25" stroke="#FFBE5C" stroke-width=".5"/><rect x="115.879" y="97.273" width="43.408" height="7.441" rx="2" fill="#B50808"/><rect x="99.344" y="97.273" width="24.805" height="7.441" rx="2" fill="#DA0707"/><rect x="66.269" y="97.273" width="41.341" height="7.441" rx="2" fill="#9F0505"/><rect x="66.269" y="97.273" width="41.341" height="7.441" rx="2" fill="#5CBD54"/><rect x="66.019" y="114.389" width="93.517" height="7.941" rx="2.25" stroke="#FFBE5C" stroke-width=".5"/><rect x="115.879" y="114.639" width="43.408" height="7.441" rx="2" fill="#B50808"/><rect x="109.68" y="114.639" width="24.805" height="7.441" rx="2" fill="#DA0707"/><rect x="66.269" y="114.639" width="51.676" height="7.441" rx="2" fill="#9F0505"/><rect x="66.269" y="114.639" width="51.676" height="7.441" rx="2" fill="#5CBD54"/></g><g filter="url(#e)"><rect x="120" y="46" width="82.866" height="53.271" rx="2" fill="#fff"/><rect x="119.5" y="45.5" width="83.866" height="54.271" rx="2.5" stroke="url(#f)"/></g><path d="M193.988 87.445a32.559 32.559 0 0 0-13.42-26.337l-7.654 10.535a19.528 19.528 0 0 1 8.052 15.802h13.022z" fill="url(#g)"/><path d="M178.072 59.464a32.555 32.555 0 0 0-33.268-.006l6.652 11.195a19.534 19.534 0 0 1 19.961.003l6.655-11.192z" fill="url(#h)"/><path d="M142.197 61.182a32.555 32.555 0 0 0-13.318 26.389l13.022-.05a19.541 19.541 0 0 1 2.094-8.876 19.542 19.542 0 0 1 5.896-6.958l-7.694-10.505z" fill="url(#i)"/><circle cx="161.432" cy="85.474" r="4.933" fill="#242427"/><path d="m182.352 75.958-16.338 10.555-2.193-4.647 18.531-5.908z" fill="#242427"/><path d="M182.971 75.242a.5.5 0 0 1 .393.772l-1.848 2.846a.5.5 0 0 1-.865-.045l-1.541-3.024a.5.5 0 0 1 .472-.726l3.389.177z" fill="#242427"/><g filter="url(#j)"><g filter="url(#k)"><rect x="200" y="64" width="77.334" height="91.5" rx="2" fill="#fff"/><rect x="199.5" y="63.5" width="78.334" height="92.5" rx="2.5" stroke="url(#l)"/></g><rect x="221.609" y="73" width="45.411" height="1.619" rx=".81" fill="#DEDEDE"/><rect x="221.609" y="78.672" width="45.411" height="1.619" rx=".81" fill="#DEDEDE"/><rect x="221.609" y="84.328" width="20.183" height="1.619" rx=".81" fill="#DEDEDE"/><rect x="207.48" y="72.75" width="10.5" height="10.5" rx="1.25" fill="#74D96B" stroke="#48C13D" stroke-width=".5"/><rect width="3.125" height="1.25" rx=".625" transform="rotate(46.88 14.986 281.061) skewX(.002)" fill="#fff"/><rect width="3.125" height="1.25" rx=".625" transform="rotate(46.88 14.986 281.061) skewX(.002)" fill="#fff"/><rect width="7.173" height="1.25" rx=".625" transform="scale(-1 1) rotate(46.879 -194.096 -210.587)" fill="#fff"/><rect width="7.173" height="1.25" rx=".625" transform="scale(-1 1) rotate(46.879 -194.096 -210.587)" fill="#fff"/><rect x="221.609" y="103.281" width="45.411" height="1.619" rx=".809" fill="#DEDEDE"/><rect x="221.609" y="108.953" width="45.411" height="1.619" rx=".809" fill="#DEDEDE"/><rect x="221.609" y="114.609" width="20.183" height="1.619" rx=".809" fill="#DEDEDE"/><rect x="207.48" y="103.031" width="10.592" height="13.451" rx="1.25" fill="#74D96B" stroke="#48C13D" stroke-width=".5"/><rect width="3.657" height="1.44" rx=".72" transform="matrix(.58945 .8078 -.6396 .76871 209.91 109.75)" fill="#fff"/><rect width="3.657" height="1.44" rx=".72" transform="matrix(.58945 .8078 -.6396 .76871 209.91 109.75)" fill="#fff"/><rect width="8.394" height="1.44" rx=".72" transform="matrix(-.58946 .8078 .6396 .7687 215.203 105.93)" fill="#fff"/><rect width="8.394" height="1.44" rx=".72" transform="matrix(-.58946 .8078 .6396 .7687 215.203 105.93)" fill="#fff"/><rect x="221.609" y="133.539" width="45.411" height="1.619" rx=".809" fill="#DEDEDE"/><rect x="221.609" y="139.211" width="45.411" height="1.619" rx=".809" fill="#DEDEDE"/><rect x="221.609" y="144.875" width="20.183" height="1.619" rx=".809" fill="#DEDEDE"/><rect x="207.48" y="133.289" width="10.592" height="13.451" rx="1.25" fill="#74D96B" stroke="#48C13D" stroke-width=".5"/><rect width="3.657" height="1.44" rx=".72" transform="matrix(.58945 .8078 -.6396 .76871 209.91 140.008)" fill="#fff"/><rect width="3.657" height="1.44" rx=".72" transform="matrix(.58945 .8078 -.6396 .76871 209.91 140.008)" fill="#fff"/><rect width="8.394" height="1.44" rx=".72" transform="matrix(-.58946 .8078 .6396 .7687 215.203 136.188)" fill="#fff"/><rect width="8.394" height="1.44" rx=".72" transform="matrix(-.58946 .8078 .6396 .7687 215.203 136.188)" fill="#fff"/></g><g filter="url(#m)"><g filter="url(#n)"><rect x="97" y="91" width="123" height="78" rx="2" fill="#fff"/><rect x="96.5" y="90.5" width="124" height="79" rx="2.5" stroke="url(#o)"/></g><path d="M209 153c0-10.609-5.321-20.783-14.791-28.284C184.738 117.214 171.893 113 158.5 113c-13.393 0-26.238 4.214-35.709 11.716C113.321 132.217 108 142.391 108 153h2.243c0-10.137 5.085-19.86 14.134-27.028 9.05-7.168 21.325-11.195 34.123-11.195 12.798 0 25.073 4.027 34.123 11.195 9.049 7.168 14.134 16.891 14.134 27.028H209z" fill="#EBEAEA"/><path d="M190.989 153.06c-.21-8.995-3.434-17.701-9.216-24.894-5.782-7.192-13.833-12.508-23.017-15.198l-.55 1.641c8.817 2.583 16.545 7.686 22.096 14.591 5.551 6.904 8.646 15.263 8.847 23.898l1.84-.038z" fill="#EBEAEA"/><path d="M127.011 153.06c.21-8.995 3.434-17.701 9.216-24.894 5.782-7.192 13.833-12.508 23.017-15.198l.55 1.641c-8.817 2.583-16.545 7.686-22.096 14.591-5.551 6.904-8.646 15.263-8.847 23.898l-1.84-.038z" fill="#EBEAEA"/><path d="M97 93a2 2 0 0 1 2-2h119a2 2 0 0 1 2 2v13H97V93z" fill="#57A2DD"/><path d="M97 93a2 2 0 0 1 2-2h119a2 2 0 0 1 2 2v13H97V93z" fill="#57A2DD"/><rect x="99" y="98.5" width="6" height="1" rx=".5" fill="#fff"/><rect x="99" y="100.5" width="6" height="1" rx=".5" fill="#fff"/><rect x="99" y="102.5" width="6" height="1" rx=".5" fill="#fff"/><path d="M110.905 98.293a.1.1 0 0 1 .19 0l.556 1.711a.1.1 0 0 0 .095.069h1.799c.097 0 .138.124.059.181l-1.455 1.057a.102.102 0 0 0-.037.112l.556 1.711a.1.1 0 0 1-.154.112l-1.455-1.057a.099.099 0 0 0-.118 0l-1.455 1.057a.1.1 0 0 1-.154-.112l.556-1.711a.102.102 0 0 0-.037-.112l-1.455-1.057c-.079-.057-.038-.181.059-.181h1.799a.1.1 0 0 0 .095-.069l.556-1.711z" fill="#fff"/><rect x="117" y="98.5" width="101" height="5" rx="1" fill="#fff"/><circle cx="100.5" cy="94.5" r="1.5" fill="#FF8080"/><circle cx="105.5" cy="94.5" r="1.5" fill="#FFFCB3"/><circle cx="110.5" cy="94.5" r="1.5" fill="#C7FFB5"/></g><g filter="url(#p)"><rect x="66" y="135" width="109" height="62.286" rx="2" fill="#fff"/><rect x="65.5" y="134.5" width="110" height="63.286" rx="2.5" stroke="#57A2DD"/></g><path stroke="#74D96B" stroke-width=".75" stroke-linecap="round" stroke-dasharray="2 2" d="m81.779 162.194 25.256-10.102M107.789 151.842l25.228-6.728"/><path stroke="#74D96B" stroke-width=".75" stroke-linecap="round" stroke-dasharray="1.5 1.5" d="m158.971 152.566-25.228-6.727"/><rect x="78.109" y="159.223" width="6.921" height="6.921" rx="3.46" fill="#74D96B"/><rect x="104.062" y="148.842" width="6.921" height="6.921" rx="3.46" fill="#74D96B"/><rect x="130.016" y="141.92" width="6.921" height="6.921" rx="3.46" fill="#74D96B"/><rect x="155.969" y="148.842" width="6.921" height="6.921" rx="3.46" fill="#74D96B"/><path d="M72.922 174.064a1 1 0 0 1 1-1h15.302a1 1 0 0 1 1 1v16.302H72.922v-16.302zM98.871 163.682a1 1 0 0 1 1-1h15.302a1 1 0 0 1 1 1v26.682H98.871v-26.682zM124.824 156.762a1 1 0 0 1 1-1h15.302a1 1 0 0 1 1 1v33.603h-17.302v-33.603zM150.777 163.682a1 1 0 0 1 1-1h15.302a1 1 0 0 1 1 1v26.682h-17.302v-26.682z" fill="#74D96B"/><g filter="url(#q)"><rect x="166" y="116" width="85.849" height="103.922" rx="1" fill="#fff"/><rect x="165.5" y="115.5" width="86.849" height="104.922" rx="1.5" stroke="url(#r)"/></g><rect x="173.523" y="154.406" width="60.998" height="7.531" rx="1" fill="url(#s)"/><path d="M173.523 147.121a1 1 0 0 1 1-1h68.788a1 1 0 0 1 1 1v1.012a1 1 0 0 1-1 1h-68.788a1 1 0 0 1-1-1v-1.012zM173.523 157.662a1 1 0 0 1 1-1h59.998v3.012h-59.998a1 1 0 0 1-1-1v-1.012z" fill="#EAE7E7"/><rect x="173.523" y="156.662" width="70.787" height="3.012" rx="1" fill="#EAE7E7"/><rect x="173.523" y="167.217" width="70.787" height="3.012" rx="1" fill="#EAE7E7"/><path d="M173.523 178.76a1 1 0 0 1 1-1h33.394a1 1 0 0 1 1 1v1.012a1 1 0 0 1-1 1h-33.394a1 1 0 0 1-1-1v-1.012z" fill="#EAE7E7"/><rect x="173.523" y="188.301" width="35.394" height="3.012" rx="1" fill="#EAE7E7"/><rect x="173.523" y="198.855" width="70.787" height="3.012" rx="1" fill="#EAE7E7"/><rect x="173.523" y="209.381" width="70.787" height="3.012" rx="1" fill="#EAE7E7"/><rect x="193.105" y="123.523" width="50.455" height="14.829" rx="2" fill="#DBE9FD"/><ellipse cx="180.304" cy="131.163" rx="7.531" ry="7.415" fill="#DBE9FD"/><path d="M211.188 190.094a1 1 0 0 1 1-1h2.223a1 1 0 0 1 1 1v5.035h-4.223v-5.035zM216.82 184.064a1 1 0 0 1 1-1h2.224a1 1 0 0 1 1 1v11.069h-4.224v-11.069zM222.449 181.043a1 1 0 0 1 1-1h2.224a1 1 0 0 1 1 1v14.087h-4.224v-14.087zM228.082 184.064a1 1 0 0 1 1-1h2.223a1 1 0 0 1 1 1v11.069h-4.223v-11.069zM233.715 186.471a1 1 0 0 1 1-1h2.223a1 1 0 0 1 1 1v8.654h-4.223v-8.654zM239.348 184.064a1 1 0 0 1 1-1h2.223a1 1 0 0 1 1 1v11.069h-4.223v-11.069z" fill="#82B4FF"/><path transform="matrix(.58315 -.81237 .88447 .4666 213.297 186.076)" stroke="#E93434" stroke-width=".25" d="M0-.125h9.656"/><path transform="matrix(.84114 -.54082 .65845 .75262 218.926 178.227)" stroke="#E93434" stroke-width=".25" d="M0-.125h6.695"/><path transform="matrix(.85898 -.51201 .62993 .77665 235.824 181.594)" stroke="#E93434" stroke-width=".25" d="M0-.125h6.557"/><path transform="matrix(-.84107 -.54093 .65856 -.75252 230.195 178.227)" stroke="#E93434" stroke-width=".25" d="M0-.125h6.695"/><path transform="matrix(-.88129 -.47258 .58943 -.80782 235.824 181.248)" stroke="#E93434" stroke-width=".25" d="M0-.125h6.39"/><rect x="212.594" y="185.475" width="1.408" height="1.207" rx=".603" fill="#FF6161"/><rect x="218.227" y="177.625" width="1.408" height="1.207" rx=".603" fill="#FF6161"/><rect x="223.855" y="173.986" width="1.408" height="1.207" rx=".603" fill="#FF6161"/><rect x="229.488" y="177.625" width="1.408" height="1.207" rx=".603" fill="#FF6161"/><rect x="235.117" y="180.646" width="1.408" height="1.207" rx=".603" fill="#FF6161"/><rect x="240.754" y="177.625" width="1.408" height="1.207" rx=".603" fill="#FF6161"/><rect x="181.062" y="152.115" width="22.469" height="13.787" rx="1" fill="url(#t)"/><rect x="181.062" y="155.875" width="23.345" height="5.271" rx="1" fill="#B8B8B8"/><g filter="url(#u)"><path d="M192.681 143.861a15.384 15.384 0 0 1 15.384 15.384c0 3.811-1.397 7.313-3.692 10.012l.639.639h1.869l11.834 11.833-3.55 3.55-11.834-11.833v-1.87l-.639-.639a15.42 15.42 0 0 1-10.011 3.692 15.384 15.384 0 0 1 0-30.768zm0 4.734a10.606 10.606 0 0 0-10.651 10.65 10.607 10.607 0 0 0 10.651 10.651c5.917 0 10.65-4.734 10.65-10.651s-4.733-10.65-10.65-10.65z" fill="#3766AC"/></g><g filter="url(#v)"><circle cx="168" cy="133" r="48" fill="url(#w)"/><g filter="url(#x)"><circle cx="168" cy="133" r="48" fill="#E44FE2"/></g><path d="m182.28 117.344-5.358 8.292a.713.713 0 0 0 .271 1.038l.121.064c.461.243.969.512 1.5.713.583.221 1.228.374 1.924.325 1.437-.102 2.844-1.038 4.283-3.283 1.35-2.104 1.565-3.696 1.058-4.938-.495-1.214-1.634-1.965-2.648-2.51a.894.894 0 0 0-1.151.299z" fill="url(#y)" stroke="#E4E74F" stroke-linecap="round"/><path transform="matrix(-.55934 .82894 .848 .53 158.895 114.551)" fill="url(#z)" stroke="#3FC4A4" d="M.144.679h17.919V4.93H.144z"/><path transform="matrix(-.5594 -.8289 .84803 -.52994 163.067 155.561)" fill="url(#A)" stroke="#3FC4A4" d="M.144-.679h22.324V3.54H.144z"/><g filter="url(#B)"><rect x="146.18" y="153.072" width="36.258" height="5.236" rx="1" fill="url(#C)"/><rect x="146.68" y="153.572" width="35.258" height="4.236" rx=".5" stroke="#3FC4A4"/></g><circle cx="151.324" cy="133.516" r="4.5" fill="#61E6C7" stroke="#3FC4A4"/><path d="M160.4 107.043a.52.52 0 0 1 .703-.149l7.945 4.964-3.866 5.728-7.944-4.964a.48.48 0 0 1-.144-.68l3.306-4.899z" fill="url(#D)" stroke="#3FC4A4"/><path d="M185.015 110.345a13.676 13.676 0 0 0-4.803-1.832 13.951 13.951 0 0 0-5.173.053c-1.704.341-3.32.997-4.756 1.931a12.888 12.888 0 0 0-3.615 3.513 12.24 12.24 0 0 0-1.923 4.561 11.988 11.988 0 0 0 .061 4.915 12.291 12.291 0 0 0 2.037 4.521 12.977 12.977 0 0 0 3.701 3.438l7.236-10.55 7.235-10.55z" fill="url(#E)" stroke="#3FC4A4"/></g><g filter="url(#F)"><circle cx="298.5" cy="221.5" r="27.5" fill="#CBA3FF"/></g><path d="M293 218h1v-8a8 8 0 1 0-8 8h7z" fill="#fff" stroke="url(#G)" stroke-width="2"/><circle cx="286" cy="210" r="5" fill="#69BCE6"/><path d="M284.712 208.432v-1.272h2.216V213h-1.424v-4.568h-.792z" fill="#fff"/><path d="M293 224h1v8a8 8 0 1 1-8-8h7z" fill="#fff" stroke="url(#H)" stroke-width="2"/><path d="M303 218h-1v-8a8 8 0 1 1 8 8h-7z" fill="#fff" stroke="url(#I)" stroke-width="2"/><circle cx="310" cy="210" r="5" fill="#396C8C"/><path d="M308.027 211.904a29.884 29.884 0 0 0 1.48-1.264 5.02 5.02 0 0 0 .768-.872c.208-.304.312-.6.312-.888 0-.219-.051-.389-.152-.512s-.253-.184-.456-.184a.568.568 0 0 0-.48.232c-.112.149-.168.363-.168.64h-1.32c.011-.453.107-.832.288-1.136.187-.304.429-.528.728-.672.304-.144.64-.216 1.008-.216.635 0 1.112.163 1.432.488.325.325.488.749.488 1.272 0 .571-.195 1.101-.584 1.592-.389.485-.885.96-1.488 1.424h2.16v1.112h-4.016v-1.016z" fill="#fff"/><path d="M303 224h-1v8a8 8 0 1 0 8-8h-7z" fill="#fff" stroke="url(#J)" stroke-width="2"/><circle cx="286" cy="232" r="5" fill="#307DA2"/><path d="M283.986 230.808c.021-.571.208-1.011.56-1.32.352-.309.829-.464 1.432-.464.4 0 .741.069 1.024.208a1.479 1.479 0 0 1 .872 1.376c0 .352-.088.64-.264.864a1.34 1.34 0 0 1-.616.448v.032c.304.101.544.269.72.504.176.235.264.536.264.904 0 .331-.077.624-.232.88a1.533 1.533 0 0 1-.664.592c-.288.144-.632.216-1.032.216-.64 0-1.152-.157-1.536-.472-.379-.315-.579-.789-.6-1.424h1.328c.005.235.072.421.2.56.128.133.315.2.56.2.208 0 .368-.059.48-.176a.668.668 0 0 0 .176-.48c0-.256-.083-.44-.248-.552-.16-.117-.419-.176-.776-.176h-.256v-1.112h.256c.272 0 .491-.045.656-.136.171-.096.256-.264.256-.504 0-.192-.053-.341-.16-.448-.107-.107-.253-.16-.44-.16-.203 0-.355.061-.456.184a.844.844 0 0 0-.168.456h-1.336z" fill="#fff"/><circle cx="310" cy="232" r="5" fill="#1C3E4C"/><path d="M307.685 233.96v-1.104l2.528-3.616h1.528v3.536h.656v1.184h-.656V235h-1.368v-1.04h-2.688zm2.784-3.216-1.344 2.032h1.344v-2.032z" fill="#fff"/><g filter="url(#K)"><path stroke="#307DA2" stroke-width="2" d="M286 224h15"/></g><g filter="url(#L)"><path stroke="#3989BC" stroke-width="2" d="M295 218h15"/></g><g filter="url(#M)"><path stroke="#81D8FF" stroke-width="2" d="M294 223v-13"/></g><g filter="url(#N)"><path stroke="#275164" stroke-width="2" d="M302 232v-13"/></g></g><defs><filter id="v" x="112" y="85" width="112" height="112" filterUnits="userSpaceOnUse" color-interpolation-filters="sRGB"><feFlood flood-opacity="0" result="BackgroundImageFix"/><feColorMatrix in="SourceAlpha" values="0 0 0 0 0 0 0 0 0 0 0 0 0 0 0 0 0 0 127 0" result="hardAlpha"/><feOffset dy="8"/><feGaussianBlur stdDeviation="4"/><feComposite in2="hardAlpha" operator="out"/><feColorMatrix values="0 0 0 0 0 0 0 0 0 0 0 0 0 0 0 0 0 0 0.1 0"/><feBlend in2="BackgroundImageFix" result="effect1_dropShadow_884_15852"/><feBlend in="SourceGraphic" in2="effect1_dropShadow_884_15852" result="shape"/></filter><filter id="b" x="49" y="69" width="127.555" height="80" filterUnits="userSpaceOnUse" color-interpolation-filters="sRGB"><feFlood flood-opacity="0" result="BackgroundImageFix"/><feColorMatrix in="SourceAlpha" values="0 0 0 0 0 0 0 0 0 0 0 0 0 0 0 0 0 0 127 0" result="hardAlpha"/><feOffset dy="8"/><feGaussianBlur stdDeviation="4"/><feComposite in2="hardAlpha" operator="out"/><feColorMatrix values="0 0 0 0 0 0 0 0 0 0 0 0 0 0 0 0 0 0 0.2 0"/><feBlend in2="BackgroundImageFix" result="effect1_dropShadow_884_15852"/><feBlend in="SourceGraphic" in2="effect1_dropShadow_884_15852" result="shape"/></filter><filter id="j" x="191" y="63" width="95.336" height="109.5" filterUnits="userSpaceOnUse" color-interpolation-filters="sRGB"><feFlood flood-opacity="0" result="BackgroundImageFix"/><feColorMatrix in="SourceAlpha" values="0 0 0 0 0 0 0 0 0 0 0 0 0 0 0 0 0 0 127 0" result="hardAlpha"/><feOffset dy="8"/><feGaussianBlur stdDeviation="4"/><feComposite in2="hardAlpha" operator="out"/><feColorMatrix values="0 0 0 0 0 0 0 0 0 0 0 0 0 0 0 0 0 0 0.2 0"/><feBlend in2="BackgroundImageFix" result="effect1_dropShadow_884_15852"/><feBlend in="SourceGraphic" in2="effect1_dropShadow_884_15852" result="shape"/></filter><filter id="k" x="191" y="63" width="95.336" height="109.5" filterUnits="userSpaceOnUse" color-interpolation-filters="sRGB"><feFlood flood-opacity="0" result="BackgroundImageFix"/><feColorMatrix in="SourceAlpha" values="0 0 0 0 0 0 0 0 0 0 0 0 0 0 0 0 0 0 127 0" result="hardAlpha"/><feOffset dy="8"/><feGaussianBlur stdDeviation="4"/><feComposite in2="hardAlpha" operator="out"/><feColorMatrix values="0 0 0 0 0 0 0 0 0 0 0 0 0 0 0 0 0 0 0.1 0"/><feBlend in2="BackgroundImageFix" result="effect1_dropShadow_884_15852"/><feBlend in="SourceGraphic" in2="effect1_dropShadow_884_15852" result="shape"/></filter><filter id="m" x="88" y="90" width="141" height="96" filterUnits="userSpaceOnUse" color-interpolation-filters="sRGB"><feFlood flood-opacity="0" result="BackgroundImageFix"/><feColorMatrix in="SourceAlpha" values="0 0 0 0 0 0 0 0 0 0 0 0 0 0 0 0 0 0 127 0" result="hardAlpha"/><feOffset dy="8"/><feGaussianBlur stdDeviation="4"/><feComposite in2="hardAlpha" operator="out"/><feColorMatrix values="0 0 0 0 0 0 0 0 0 0 0 0 0 0 0 0 0 0 0.2 0"/><feBlend in2="BackgroundImageFix" result="effect1_dropShadow_884_15852"/><feBlend in="SourceGraphic" in2="effect1_dropShadow_884_15852" result="shape"/></filter><filter id="n" x="88" y="90" width="141" height="96" filterUnits="userSpaceOnUse" color-interpolation-filters="sRGB"><feFlood flood-opacity="0" result="BackgroundImageFix"/><feColorMatrix in="SourceAlpha" values="0 0 0 0 0 0 0 0 0 0 0 0 0 0 0 0 0 0 127 0" result="hardAlpha"/><feOffset dy="8"/><feGaussianBlur stdDeviation="4"/><feComposite in2="hardAlpha" operator="out"/><feColorMatrix values="0 0 0 0 0 0 0 0 0 0 0 0 0 0 0 0 0 0 0.1 0"/><feBlend in2="BackgroundImageFix" result="effect1_dropShadow_884_15852"/><feBlend in="SourceGraphic" in2="effect1_dropShadow_884_15852" result="shape"/></filter><filter id="p" x="57" y="134" width="127" height="80.285" filterUnits="userSpaceOnUse" color-interpolation-filters="sRGB"><feFlood flood-opacity="0" result="BackgroundImageFix"/><feColorMatrix in="SourceAlpha" values="0 0 0 0 0 0 0 0 0 0 0 0 0 0 0 0 0 0 127 0" result="hardAlpha"/><feOffset dy="8"/><feGaussianBlur stdDeviation="4"/><feComposite in2="hardAlpha" operator="out"/><feColorMatrix values="0 0 0 0 0 0 0 0 0 0 0 0 0 0 0 0 0 0 0.1 0"/><feBlend in2="BackgroundImageFix" result="effect1_dropShadow_884_15852"/><feBlend in="SourceGraphic" in2="effect1_dropShadow_884_15852" result="shape"/></filter><filter id="q" x="157" y="115" width="103.848" height="121.922" filterUnits="userSpaceOnUse" color-interpolation-filters="sRGB"><feFlood flood-opacity="0" result="BackgroundImageFix"/><feColorMatrix in="SourceAlpha" values="0 0 0 0 0 0 0 0 0 0 0 0 0 0 0 0 0 0 127 0" result="hardAlpha"/><feOffset dy="8"/><feGaussianBlur stdDeviation="4"/><feComposite in2="hardAlpha" operator="out"/><feColorMatrix values="0 0 0 0 0 0 0 0 0 0 0 0 0 0 0 0 0 0 0.1 0"/><feBlend in2="BackgroundImageFix" result="effect1_dropShadow_884_15852"/><feBlend in="SourceGraphic" in2="effect1_dropShadow_884_15852" result="shape"/></filter><filter id="u" x="173.297" y="143.861" width="49.418" height="49.418" filterUnits="userSpaceOnUse" color-interpolation-filters="sRGB"><feFlood flood-opacity="0" result="BackgroundImageFix"/><feColorMatrix in="SourceAlpha" values="0 0 0 0 0 0 0 0 0 0 0 0 0 0 0 0 0 0 127 0" result="hardAlpha"/><feOffset dy="4"/><feGaussianBlur stdDeviation="2"/><feComposite in2="hardAlpha" operator="out"/><feColorMatrix values="0 0 0 0 0 0 0 0 0 0 0 0 0 0 0 0 0 0 0.25 0"/><feBlend in2="BackgroundImageFix" result="effect1_dropShadow_884_15852"/><feBlend in="SourceGraphic" in2="effect1_dropShadow_884_15852" result="shape"/></filter><filter id="e" x="111" y="45" width="100.867" height="71.272" filterUnits="userSpaceOnUse" color-interpolation-filters="sRGB"><feFlood flood-opacity="0" result="BackgroundImageFix"/><feColorMatrix in="SourceAlpha" values="0 0 0 0 0 0 0 0 0 0 0 0 0 0 0 0 0 0 127 0" result="hardAlpha"/><feOffset dy="8"/><feGaussianBlur stdDeviation="4"/><feComposite in2="hardAlpha" operator="out"/><feColorMatrix values="0 0 0 0 0 0 0 0 0 0 0 0 0 0 0 0 0 0 0.1 0"/><feBlend in2="BackgroundImageFix" result="effect1_dropShadow_884_15852"/><feBlend in="SourceGraphic" in2="effect1_dropShadow_884_15852" result="shape"/></filter><filter id="x" x="116" y="85" width="104" height="104" filterUnits="userSpaceOnUse" color-interpolation-filters="sRGB"><feFlood flood-opacity="0" result="BackgroundImageFix"/><feColorMatrix in="SourceAlpha" values="0 0 0 0 0 0 0 0 0 0 0 0 0 0 0 0 0 0 127 0" result="hardAlpha"/><feOffset dy="4"/><feGaussianBlur stdDeviation="2"/><feComposite in2="hardAlpha" operator="out"/><feColorMatrix values="0 0 0 0 0 0 0 0 0 0 0 0 0 0 0 0 0 0 0.25 0"/><feBlend in2="BackgroundImageFix" result="effect1_dropShadow_884_15852"/><feBlend in="SourceGraphic" in2="effect1_dropShadow_884_15852" result="shape"/></filter><filter id="B" x="138.18" y="153.072" width="52.258" height="21.236" filterUnits="userSpaceOnUse" color-interpolation-filters="sRGB"><feFlood flood-opacity="0" result="BackgroundImageFix"/><feColorMatrix in="SourceAlpha" values="0 0 0 0 0 0 0 0 0 0 0 0 0 0 0 0 0 0 127 0" result="hardAlpha"/><feOffset dy="8"/><feGaussianBlur stdDeviation="4"/><feComposite in2="hardAlpha" operator="out"/><feColorMatrix values="0 0 0 0 0 0 0 0 0 0 0 0 0 0 0 0 0 0 0.1 0"/><feBlend in2="BackgroundImageFix" result="effect1_dropShadow_884_15852"/><feBlend in="SourceGraphic" in2="effect1_dropShadow_884_15852" result="shape"/></filter><filter id="F" x="267" y="194" width="63" height="63" filterUnits="userSpaceOnUse" color-interpolation-filters="sRGB"><feFlood flood-opacity="0" result="BackgroundImageFix"/><feColorMatrix in="SourceAlpha" values="0 0 0 0 0 0 0 0 0 0 0 0 0 0 0 0 0 0 127 0" result="hardAlpha"/><feOffset dy="4"/><feGaussianBlur stdDeviation="2"/><feComposite in2="hardAlpha" operator="out"/><feColorMatrix values="0 0 0 0 0 0 0 0 0 0 0 0 0 0 0 0 0 0 0.25 0"/><feBlend in2="BackgroundImageFix" result="effect1_dropShadow_884_15852"/><feBlend in="SourceGraphic" in2="effect1_dropShadow_884_15852" result="shape"/></filter><filter id="K" x="282" y="223" width="23" height="10" filterUnits="userSpaceOnUse" color-interpolation-filters="sRGB"><feFlood flood-opacity="0" result="BackgroundImageFix"/><feColorMatrix in="SourceAlpha" values="0 0 0 0 0 0 0 0 0 0 0 0 0 0 0 0 0 0 127 0" result="hardAlpha"/><feOffset dy="4"/><feGaussianBlur stdDeviation="2"/><feComposite in2="hardAlpha" operator="out"/><feColorMatrix values="0 0 0 0 0 0 0 0 0 0 0 0 0 0 0 0 0 0 0.25 0"/><feBlend in2="BackgroundImageFix" result="effect1_dropShadow_884_15852"/><feBlend in="SourceGraphic" in2="effect1_dropShadow_884_15852" result="shape"/></filter><filter id="L" x="291" y="217" width="23" height="10" filterUnits="userSpaceOnUse" color-interpolation-filters="sRGB"><feFlood flood-opacity="0" result="BackgroundImageFix"/><feColorMatrix in="SourceAlpha" values="0 0 0 0 0 0 0 0 0 0 0 0 0 0 0 0 0 0 127 0" result="hardAlpha"/><feOffset dy="4"/><feGaussianBlur stdDeviation="2"/><feComposite in2="hardAlpha" operator="out"/><feColorMatrix values="0 0 0 0 0 0 0 0 0 0 0 0 0 0 0 0 0 0 0.25 0"/><feBlend in2="BackgroundImageFix" result="effect1_dropShadow_884_15852"/><feBlend in="SourceGraphic" in2="effect1_dropShadow_884_15852" result="shape"/></filter><filter id="M" x="289" y="210" width="10" height="21" filterUnits="userSpaceOnUse" color-interpolation-filters="sRGB"><feFlood flood-opacity="0" result="BackgroundImageFix"/><feColorMatrix in="SourceAlpha" values="0 0 0 0 0 0 0 0 0 0 0 0 0 0 0 0 0 0 127 0" result="hardAlpha"/><feOffset dy="4"/><feGaussianBlur stdDeviation="2"/><feComposite in2="hardAlpha" operator="out"/><feColorMatrix values="0 0 0 0 0 0 0 0 0 0 0 0 0 0 0 0 0 0 0.25 0"/><feBlend in2="BackgroundImageFix" result="effect1_dropShadow_884_15852"/><feBlend in="SourceGraphic" in2="effect1_dropShadow_884_15852" result="shape"/></filter><filter id="N" x="297" y="219" width="10" height="21" filterUnits="userSpaceOnUse" color-interpolation-filters="sRGB"><feFlood flood-opacity="0" result="BackgroundImageFix"/><feColorMatrix in="SourceAlpha" values="0 0 0 0 0 0 0 0 0 0 0 0 0 0 0 0 0 0 127 0" result="hardAlpha"/><feOffset dy="4"/><feGaussianBlur stdDeviation="2"/><feComposite in2="hardAlpha" operator="out"/><feColorMatrix values="0 0 0 0 0 0 0 0 0 0 0 0 0 0 0 0 0 0 0.25 0"/><feBlend in2="BackgroundImageFix" result="effect1_dropShadow_884_15852"/><feBlend in="SourceGraphic" in2="effect1_dropShadow_884_15852" result="shape"/></filter><filter id="c" x="49" y="69" width="127.555" height="80" filterUnits="userSpaceOnUse" color-interpolation-filters="sRGB"><feFlood flood-opacity="0" result="BackgroundImageFix"/><feColorMatrix in="SourceAlpha" values="0 0 0 0 0 0 0 0 0 0 0 0 0 0 0 0 0 0 127 0" result="hardAlpha"/><feOffset dy="8"/><feGaussianBlur stdDeviation="4"/><feComposite in2="hardAlpha" operator="out"/><feColorMatrix values="0 0 0 0 0 0 0 0 0 0 0 0 0 0 0 0 0 0 0.1 0"/><feBlend in2="BackgroundImageFix" result="effect1_dropShadow_884_15852"/><feBlend in="SourceGraphic" in2="effect1_dropShadow_884_15852" result="shape"/></filter><linearGradient id="d" x1="58" y1="70" x2="108.775" y2="163.813" gradientUnits="userSpaceOnUse"><stop stop-color="#FFC267"/><stop offset=".5" stop-color="#FFF0DA"/><stop offset="1" stop-color="#fff"/></linearGradient><linearGradient id="f" x1="202.866" y1="92.434" x2="120" y2="46" gradientUnits="userSpaceOnUse"><stop stop-color="#85E263"/><stop offset=".466" stop-color="#F8FE23"/><stop offset="1" stop-color="#E22E0F"/></linearGradient><linearGradient id="g" x1="193.988" y1="87.445" x2="128.879" y2="87.445" gradientUnits="userSpaceOnUse"><stop stop-color="#74D96B"/><stop offset=".305" stop-color="#B8FC4C"/><stop offset=".63" stop-color="#FAFE21"/><stop offset="1" stop-color="#DE0C0C"/></linearGradient><linearGradient id="h" x1="193.988" y1="87.445" x2="128.879" y2="87.445" gradientUnits="userSpaceOnUse"><stop stop-color="#4DE107"/><stop offset=".305" stop-color="#B8FC4C"/><stop offset=".63" stop-color="#FAFE21"/><stop offset="1" stop-color="#DE0C0C"/></linearGradient><linearGradient id="i" x1="193.988" y1="87.445" x2="128.879" y2="87.445" gradientUnits="userSpaceOnUse"><stop stop-color="#4DE107"/><stop offset=".305" stop-color="#B8FC4C"/><stop offset=".63" stop-color="#FAFE21"/><stop offset="1" stop-color="#DE0C0C"/></linearGradient><linearGradient id="l" x1="200" y1="64" x2="288.825" y2="142.498" gradientUnits="userSpaceOnUse"><stop stop-color="#74D96B"/><stop offset=".5" stop-color="#FFF0DA"/><stop offset="1" stop-color="#fff"/></linearGradient><linearGradient id="o" x1="97" y1="91" x2="164.66" y2="202.562" gradientUnits="userSpaceOnUse"><stop stop-color="#FFC267"/><stop offset=".5" stop-color="#FFF0DA"/><stop offset="1" stop-color="#fff"/></linearGradient><linearGradient id="r" x1="166" y1="116" x2="266.574" y2="202.874" gradientUnits="userSpaceOnUse"><stop stop-color="#67BCFF"/><stop offset=".255" stop-color="#D2E9FC"/><stop offset=".54" stop-color="#E2EBF2"/><stop offset="1" stop-color="#fff"/></linearGradient><linearGradient id="s" x1="173.523" y1="154.406" x2="219.43" y2="184.76" gradientUnits="userSpaceOnUse"><stop stop-color="#8CFFDD"/><stop offset=".535" stop-color="#B9FFEA"/><stop offset="1" stop-color="#CCFFF0"/></linearGradient><linearGradient id="t" x1="181.062" y1="152.115" x2="204.943" y2="155.292" gradientUnits="userSpaceOnUse"><stop stop-color="#8CFFDD"/><stop offset=".535" stop-color="#B9FFEA"/><stop offset="1" stop-color="#CCFFF0"/></linearGradient><linearGradient id="w" x1="120" y1="85" x2="216" y2="181" gradientUnits="userSpaceOnUse"><stop stop-color="#fff"/><stop offset=".5" stop-color="#FF5156"/><stop offset="1" stop-color="#E7161C"/></linearGradient><linearGradient id="y" x1="185.433" y1="123.943" x2="180.431" y2="120.238" gradientUnits="userSpaceOnUse"><stop stop-color="#FDFFA5"/><stop offset="1" stop-color="#DADE31"/></linearGradient><linearGradient id="z" x1="15.734" y1="2.029" x2="-.406" y2="5.407" gradientUnits="userSpaceOnUse"><stop stop-color="#44D4B2"/><stop offset=".485" stop-color="#61E5C6"/><stop offset="1" stop-color="#44D4B2"/></linearGradient><linearGradient id="A" x1="24.087" y1="3.33" x2="-1.913" y2="3.494" gradientUnits="userSpaceOnUse"><stop stop-color="#4DDAB9"/><stop offset=".5" stop-color="#62E6C7"/><stop offset="1" stop-color="#48D6B5"/></linearGradient><linearGradient id="C" x1="145.424" y1="153.072" x2="180.903" y2="163.519" gradientUnits="userSpaceOnUse"><stop stop-color="#44D5B3"/><stop offset=".505" stop-color="#44D5B3"/><stop offset="1" stop-color="#61E6C7"/></linearGradient><linearGradient id="D" x1="160.318" y1="105.958" x2="166.527" y2="115.17" gradientUnits="userSpaceOnUse"><stop stop-color="#66E8C9"/><stop offset=".5" stop-color="#51DCBB"/><stop offset="1" stop-color="#44D4B2"/></linearGradient><linearGradient id="E" x1="167.192" y1="112.953" x2="185.183" y2="126.7" gradientUnits="userSpaceOnUse"><stop stop-color="#41D2B0"/><stop offset=".535" stop-color="#61E5C6"/><stop offset="1" stop-color="#8DF7DE"/></linearGradient><radialGradient id="G" cx="0" cy="0" r="1" gradientUnits="userSpaceOnUse" gradientTransform="rotate(106.39 68.373 214.553) scale(8.86002)"><stop stop-color="#81D8FF"/><stop offset=".427" stop-color="#65B8E2"/><stop offset="1" stop-color="#3580AF"/></radialGradient><radialGradient id="H" cx="0" cy="0" r="1" gradientUnits="userSpaceOnUse" gradientTransform="matrix(18 7 -7 18 279 227)"><stop stop-color="#00486C"/><stop offset="1" stop-color="#81D8FF"/></radialGradient><radialGradient id="I" cx="0" cy="0" r="1" gradientUnits="userSpaceOnUse" gradientTransform="rotate(-176.634 162.394 102.32) scale(17.0294)"><stop stop-color="#37A7EE"/><stop offset="1" stop-color="#396988"/></radialGradient><radialGradient id="J" cx="0" cy="0" r="1" gradientUnits="userSpaceOnUse" gradientTransform="rotate(92.49 43.317 258.545) scale(11.5109)"><stop stop-color="#337794"/><stop offset="1" stop-color="#1C3E4C"/></radialGradient><clipPath id="a"><rect width="336" height="266" rx="30" fill="#fff"/></clipPath></defs></svg>