<svg width="68" height="68" fill="none" xmlns="http://www.w3.org/2000/svg"><g filter="url(#a)" stroke="#1C3343" stroke-linecap="round"><path d="M21.495 27.313H19.29c-.63 13.396 2.838 22.009 14.494 22.647M46.38 27.313h2.205c.63 13.396-2.838 22.009-14.494 22.647M40.656 59H27.422M33.719 50.281v8.099"/></g><path d="M15.564 14.802a.986.986 0 0 0-1.402.102 1.015 1.015 0 0 0 .102 1.419l1.3-1.52zm-1.3 1.52 3.841 3.365 1.3-1.52-3.841-3.365-1.3 1.52z" fill="#9F39E6"/><path d="M18.71 17.93a1 1 0 0 0 0 2v-2zm0 2h8.956v-2h-8.955v2z" fill="#9F39E6"/><g filter="url(#b)"><ellipse cx="11" cy="12.148" rx="5" ry="5.062" fill="#E6BA39"/></g><path d="M9.133 10.105a.3.3 0 0 1 .435-.267l4.036 2.042a.3.3 0 0 1 0 .536l-4.036 2.042a.3.3 0 0 1-.435-.267v-4.086z" fill="#fff"/><path d="M14.266 24.281a1 1 0 0 0 0 2v-2zm0 2h13.432v-2H14.266v2z" fill="#9F39E6"/><g filter="url(#c)"><ellipse cx="9" cy="25.304" rx="5" ry="5.062" fill="#E6BA39"/></g><path d="M6.508 22.636a.3.3 0 0 1 .3-.3h1.275a.3.3 0 0 1 .3.3v5.094a.3.3 0 0 1-.3.3H6.808a.3.3 0 0 1-.3-.3v-5.094zM9.64 22.636a.3.3 0 0 1 .3-.3h1.276a.3.3 0 0 1 .3.3v5.094a.3.3 0 0 1-.3.3H9.94a.3.3 0 0 1-.3-.3v-5.094z" fill="#fff"/><path d="M15.564 36.659a.986.986 0 0 1-1.402-.102 1.015 1.015 0 0 1 .102-1.419l1.3 1.52zm-1.3-1.52 3.841-3.365 1.3 1.52-3.841 3.365-1.3-1.52z" fill="#9F39E6"/><path d="M18.71 33.531a1 1 0 0 1 0-2v2zm0-2h8.956v2h-8.955v-2z" fill="#9F39E6"/><g filter="url(#d)"><ellipse cx="11" cy="37.444" rx="5" ry="5.062" fill="#E6BA39"/></g><path d="M8.5 35.414a.5.5 0 0 1 .5-.5h4a.5.5 0 0 1 .5.5v4.062a.5.5 0 0 1-.5.5H9a.5.5 0 0 1-.5-.5v-4.062z" fill="#fff"/><path d="M53.436 14.802a.986.986 0 0 1 1.402.102c.359.42.313 1.055-.102 1.419l-1.3-1.52zm1.3 1.52-3.841 3.365-1.3-1.52 3.841-3.365 1.3 1.52z" fill="#9F39E6"/><path d="M50.29 17.93a1 1 0 0 1 0 2v-2zm0 2h-8.956v-2h8.955v2z" fill="#9F39E6"/><g filter="url(#e)"><ellipse cx="5" cy="5.062" rx="5" ry="5.062" transform="matrix(-1 0 0 1 63 7.086)" fill="#E6BA39"/></g><path d="M55.983 14.172a.3.3 0 0 1-.27-.433l2.018-4.084a.3.3 0 0 1 .538 0l2.017 4.084a.3.3 0 0 1-.269.433h-4.034z" fill="#fff"/><path d="M54.734 24.273a1 1 0 0 1 0 2v-2zm0 2H41.301v-2h13.433v2z" fill="#9F39E6"/><g filter="url(#f)"><ellipse cx="5" cy="5.062" rx="5" ry="5.062" transform="matrix(-1 0 0 1 64 20.242)" fill="#E6BA39"/></g><path d="M61.017 23.281a.3.3 0 0 1 .27.433l-2.018 4.084a.3.3 0 0 1-.538 0l-2.017-4.084a.3.3 0 0 1 .269-.433h4.034z" fill="#fff"/><path d="M53.436 36.659a.986.986 0 0 0 1.402-.102 1.015 1.015 0 0 0-.102-1.419l-1.3 1.52zm1.3-1.52-3.841-3.365-1.3 1.52 3.841 3.365 1.3-1.52z" fill="#9F39E6"/><path d="M50.29 33.54a1 1 0 0 0 0-2v2zm0-2h-8.956v2h8.955v-2z" fill="#9F39E6"/><g filter="url(#g)"><ellipse cx="5" cy="5.062" rx="5" ry="5.062" transform="matrix(-1 0 0 1 63 32.383)" fill="#E6BA39"/></g><path d="M60 39.489a.3.3 0 0 1-.435.267l-4.036-2.043a.3.3 0 0 1 0-.535l4.035-2.043a.3.3 0 0 1 .436.268v4.086z" fill="#fff"/><g filter="url(#h)"><rect x="24" y="9.469" width="20" height="34.419" rx="10" fill="#A3D1FF"/><rect x="23.5" y="8.969" width="21" height="35.419" rx="10.5" stroke="#1C3343"/></g><path fill="#2E719F" d="M24 28.328h20v6.074H24z"/><path d="M29.633 19.54a.5.5 0 1 0 0-1v1zm-6 0h6v-1h-6v1zM29.633 23.68a.5.5 0 1 0 0-1v1zm-6 0h6v-1h-6v1zM29.633 27.82a.5.5 0 1 0 0-1v1zm-6 0h6v-1h-6v1zM38 19.54a.5.5 0 0 1 0-1v1zm6 0h-6v-1h6v1zM38 23.68a.5.5 0 0 1 0-1v1zm6 0h-6v-1h6v1zM38 27.82a.5.5 0 1 1 0-1v1zm6 0h-6v-1h6v1z" fill="#1C3343"/><g filter="url(#i)"><path d="M44 17.697c4.7 0 8.5-3.855 8.5-8.598C52.5 4.355 48.7.5 44 .5s-8.5 3.856-8.5 8.599 3.8 8.598 8.5 8.598z" fill="#2DD4B3" stroke="#1CD0AC"/><path transform="scale(.99386 1.0061) rotate(45 6.315 51.646)" stroke="#fff" stroke-width="2" d="M0-1h4.553M0-1h4.553"/><path transform="scale(.99386 1.0061) rotate(-45 36.787 -45.093)" stroke="#fff" stroke-width="2" d="M0-1h9.866M0-1h9.866"/></g><defs><filter id="a" x="14.719" y="26.813" width="38.438" height="40.688" filterUnits="userSpaceOnUse" color-interpolation-filters="sRGB"><feFlood flood-opacity="0" result="BackgroundImageFix"/><feColorMatrix in="SourceAlpha" values="0 0 0 0 0 0 0 0 0 0 0 0 0 0 0 0 0 0 127 0" result="hardAlpha"/><feOffset dy="4"/><feGaussianBlur stdDeviation="2"/><feComposite in2="hardAlpha" operator="out"/><feColorMatrix values="0 0 0 0 0 0 0 0 0 0 0 0 0 0 0 0 0 0 0.25 0"/><feBlend in2="BackgroundImageFix" result="effect1_dropShadow_687_252"/><feBlend in="SourceGraphic" in2="effect1_dropShadow_687_252" result="shape"/></filter><filter id="b" x="2" y="7.086" width="18" height="18.125" filterUnits="userSpaceOnUse" color-interpolation-filters="sRGB"><feFlood flood-opacity="0" result="BackgroundImageFix"/><feColorMatrix in="SourceAlpha" values="0 0 0 0 0 0 0 0 0 0 0 0 0 0 0 0 0 0 127 0" result="hardAlpha"/><feOffset dy="4"/><feGaussianBlur stdDeviation="2"/><feComposite in2="hardAlpha" operator="out"/><feColorMatrix values="0 0 0 0 0 0 0 0 0 0 0 0 0 0 0 0 0 0 0.25 0"/><feBlend in2="BackgroundImageFix" result="effect1_dropShadow_687_252"/><feBlend in="SourceGraphic" in2="effect1_dropShadow_687_252" result="shape"/></filter><filter id="c" x="0" y="20.242" width="18" height="18.125" filterUnits="userSpaceOnUse" color-interpolation-filters="sRGB"><feFlood flood-opacity="0" result="BackgroundImageFix"/><feColorMatrix in="SourceAlpha" values="0 0 0 0 0 0 0 0 0 0 0 0 0 0 0 0 0 0 127 0" result="hardAlpha"/><feOffset dy="4"/><feGaussianBlur stdDeviation="2"/><feComposite in2="hardAlpha" operator="out"/><feColorMatrix values="0 0 0 0 0 0 0 0 0 0 0 0 0 0 0 0 0 0 0.25 0"/><feBlend in2="BackgroundImageFix" result="effect1_dropShadow_687_252"/><feBlend in="SourceGraphic" in2="effect1_dropShadow_687_252" result="shape"/></filter><filter id="d" x="2" y="32.383" width="18" height="18.125" filterUnits="userSpaceOnUse" color-interpolation-filters="sRGB"><feFlood flood-opacity="0" result="BackgroundImageFix"/><feColorMatrix in="SourceAlpha" values="0 0 0 0 0 0 0 0 0 0 0 0 0 0 0 0 0 0 127 0" result="hardAlpha"/><feOffset dy="4"/><feGaussianBlur stdDeviation="2"/><feComposite in2="hardAlpha" operator="out"/><feColorMatrix values="0 0 0 0 0 0 0 0 0 0 0 0 0 0 0 0 0 0 0.25 0"/><feBlend in2="BackgroundImageFix" result="effect1_dropShadow_687_252"/><feBlend in="SourceGraphic" in2="effect1_dropShadow_687_252" result="shape"/></filter><filter id="e" x="49" y="7.086" width="18" height="18.125" filterUnits="userSpaceOnUse" color-interpolation-filters="sRGB"><feFlood flood-opacity="0" result="BackgroundImageFix"/><feColorMatrix in="SourceAlpha" values="0 0 0 0 0 0 0 0 0 0 0 0 0 0 0 0 0 0 127 0" result="hardAlpha"/><feOffset dy="4"/><feGaussianBlur stdDeviation="2"/><feComposite in2="hardAlpha" operator="out"/><feColorMatrix values="0 0 0 0 0 0 0 0 0 0 0 0 0 0 0 0 0 0 0.25 0"/><feBlend in2="BackgroundImageFix" result="effect1_dropShadow_687_252"/><feBlend in="SourceGraphic" in2="effect1_dropShadow_687_252" result="shape"/></filter><filter id="f" x="50" y="20.242" width="18" height="18.125" filterUnits="userSpaceOnUse" color-interpolation-filters="sRGB"><feFlood flood-opacity="0" result="BackgroundImageFix"/><feColorMatrix in="SourceAlpha" values="0 0 0 0 0 0 0 0 0 0 0 0 0 0 0 0 0 0 127 0" result="hardAlpha"/><feOffset dy="4"/><feGaussianBlur stdDeviation="2"/><feComposite in2="hardAlpha" operator="out"/><feColorMatrix values="0 0 0 0 0 0 0 0 0 0 0 0 0 0 0 0 0 0 0.25 0"/><feBlend in2="BackgroundImageFix" result="effect1_dropShadow_687_252"/><feBlend in="SourceGraphic" in2="effect1_dropShadow_687_252" result="shape"/></filter><filter id="g" x="49" y="32.383" width="18" height="18.125" filterUnits="userSpaceOnUse" color-interpolation-filters="sRGB"><feFlood flood-opacity="0" result="BackgroundImageFix"/><feColorMatrix in="SourceAlpha" values="0 0 0 0 0 0 0 0 0 0 0 0 0 0 0 0 0 0 127 0" result="hardAlpha"/><feOffset dy="4"/><feGaussianBlur stdDeviation="2"/><feComposite in2="hardAlpha" operator="out"/><feColorMatrix values="0 0 0 0 0 0 0 0 0 0 0 0 0 0 0 0 0 0 0.25 0"/><feBlend in2="BackgroundImageFix" result="effect1_dropShadow_687_252"/><feBlend in="SourceGraphic" in2="effect1_dropShadow_687_252" result="shape"/></filter><filter id="h" x="19" y="8.469" width="30" height="44.422" filterUnits="userSpaceOnUse" color-interpolation-filters="sRGB"><feFlood flood-opacity="0" result="BackgroundImageFix"/><feColorMatrix in="SourceAlpha" values="0 0 0 0 0 0 0 0 0 0 0 0 0 0 0 0 0 0 127 0" result="hardAlpha"/><feOffset dy="4"/><feGaussianBlur stdDeviation="2"/><feComposite in2="hardAlpha" operator="out"/><feColorMatrix values="0 0 0 0 0 0 0 0 0 0 0 0 0 0 0 0 0 0 0.25 0"/><feBlend in2="BackgroundImageFix" result="effect1_dropShadow_687_252"/><feBlend in="SourceGraphic" in2="effect1_dropShadow_687_252" result="shape"/></filter><filter id="i" x="31" y="0" width="26" height="26.195" filterUnits="userSpaceOnUse" color-interpolation-filters="sRGB"><feFlood flood-opacity="0" result="BackgroundImageFix"/><feColorMatrix in="SourceAlpha" values="0 0 0 0 0 0 0 0 0 0 0 0 0 0 0 0 0 0 127 0" result="hardAlpha"/><feOffset dy="4"/><feGaussianBlur stdDeviation="2"/><feComposite in2="hardAlpha" operator="out"/><feColorMatrix values="0 0 0 0 0 0 0 0 0 0 0 0 0 0 0 0 0 0 0.25 0"/><feBlend in2="BackgroundImageFix" result="effect1_dropShadow_687_252"/><feBlend in="SourceGraphic" in2="effect1_dropShadow_687_252" result="shape"/></filter></defs></svg>