<svg width="100" height="134" fill="none" xmlns="http://www.w3.org/2000/svg">
    <g filter="url(#a)">
        <path d="M25.953 73.664h-2V85.77a6 6 0 0 0 6 6h24.06a6 6 0 0 0 6-6V73.665h-34.06Z" fill="#FFEC82" stroke="#1C3343" stroke-width="4"/>
        <path d="M57.663 115.992h-31.36a2.35 2.35 0 0 0-2.35 2.35 5.497 5.497 0 0 0 5.498 5.497h25.065a5.497 5.497 0 0 0 5.497-5.497 2.35 2.35 0 0 0-2.35-2.35Z" fill="#1C3343" stroke="#1C3343" stroke-width="4"/>
        <rect x="17.543" y="98" width="50.167" height="11.694" rx="5.847" fill="#DEDEDE" stroke="#1C3343" stroke-width="4"/>
        <circle cx="42.625" cy="46.172" r="36.625" fill="#FFEC82" stroke="#1C3343" stroke-width="4"/>
        <path fill="#FFEC82" d="M26 77h32v9H26z"/>
        <path d="M23.004 71.18c2.137 2.564 5.899 8.72 3.847 12.824M63.527 72.367c-2.88 2.093-8.235 7.394-6.62 11.849" stroke="#FFEC82" stroke-width="2"/>
    </g>
    <path d="M44.625 41.034a2 2 0 1 0-4 0h4Zm0 48.732V41.034h-4v48.732h4ZM36.93 63.779a2 2 0 1 0-4 0h4Zm0 25.987V63.779h-4v25.987h4Z" fill="#fff"/>
    <path d="m34.93 63.773-7.696-7.356" stroke="#fff" stroke-width="4" stroke-linecap="round"/>
    <path d="M48.32 62.78a2 2 0 1 1 4 0h-4Zm0 26.986V62.779h4v26.987h-4Z" fill="#fff"/>
    <path d="m50.32 62.781 6.413-7.64" stroke="#fff" stroke-width="4" stroke-linecap="round"/>
    <circle cx="21.824" cy="51.011" r="5.847" fill="#FFEC82" stroke="#fff" stroke-width="4"/>
    <circle cx="42.625" cy="34.621" r="5.847" fill="#FFEC82" stroke="#fff" stroke-width="4"/>
    <circle cx="61.421" cy="49.73" r="5.847" fill="#FFEC82" stroke="#fff" stroke-width="4"/>
    <g filter="url(#b)" fill="#357ABD">
        <path d="M70.836 1a1 1 0 0 1 1-1h4.412a1 1 0 0 1 1 1v6.694h-6.412V1ZM86.876 4.619a1 1 0 0 1 1.407-.143l3.418 2.79a1 1 0 0 1 .142 1.407l-4.232 5.186-4.968-4.054 4.233-5.186ZM95 19.692a1 1 0 0 1 .99 1.011l-.047 4.412a1 1 0 0 1-1.01.99l-6.695-.072.068-6.411 6.694.07ZM61.21 4.619a1 1 0 0 0-1.407-.143l-3.418 2.79a1 1 0 0 0-.142 1.407l4.232 5.186 4.968-4.054-4.233-5.186ZM52.602 19.692a1 1 0 0 0-.99 1.011l.047 4.412a1 1 0 0 0 1.01.99l6.694-.072-.067-6.411-6.694.07ZM70.832 41.79a1 1 0 0 0 1 1h4.412a1 1 0 0 0 1-1v-6.695h-6.412v6.694ZM86.872 39.452a1 1 0 0 0 1.407.142l3.418-2.79a1 1 0 0 0 .142-1.406l-4.232-5.187-4.968 4.054 4.233 5.187ZM61.21 39.452a1 1 0 0 1-1.407.142l-3.418-2.79a1 1 0 0 1-.142-1.406l4.232-5.187 4.968 4.054-4.233 5.187Z"/>
        <path d="M90.076 22.444c0 8.853-7.177 16.03-16.03 16.03-8.854 0-16.03-7.177-16.03-16.03 0-8.853 7.176-16.03 16.03-16.03 8.853 0 16.03 7.177 16.03 16.03Zm-24.74 0a8.71 8.71 0 1 0 17.42 0 8.71 8.71 0 0 0-17.42 0Z"/>
    </g>
    <defs>
        <filter id="a" x="0" y="7.547" width="85.25" height="126.289" filterUnits="userSpaceOnUse" color-interpolation-filters="sRGB">
            <feFlood flood-opacity="0" result="BackgroundImageFix"/>
            <feColorMatrix in="SourceAlpha" values="0 0 0 0 0 0 0 0 0 0 0 0 0 0 0 0 0 0 127 0" result="hardAlpha"/>
            <feOffset dy="4"/>
            <feGaussianBlur stdDeviation="2"/>
            <feComposite in2="hardAlpha" operator="out"/>
            <feColorMatrix values="0 0 0 0 0 0 0 0 0 0 0 0 0 0 0 0 0 0 0.25 0"/>
            <feBlend in2="BackgroundImageFix" result="effect1_dropShadow_871_15797"/>
            <feBlend in="SourceGraphic" in2="effect1_dropShadow_871_15797" result="shape"/>
        </filter>
        <filter id="b" x="47.613" y="0" width="52.375" height="50.789" filterUnits="userSpaceOnUse" color-interpolation-filters="sRGB">
            <feFlood flood-opacity="0" result="BackgroundImageFix"/>
            <feColorMatrix in="SourceAlpha" values="0 0 0 0 0 0 0 0 0 0 0 0 0 0 0 0 0 0 127 0" result="hardAlpha"/>
            <feOffset dy="4"/>
            <feGaussianBlur stdDeviation="2"/>
            <feComposite in2="hardAlpha" operator="out"/>
            <feColorMatrix values="0 0 0 0 0 0 0 0 0 0 0 0 0 0 0 0 0 0 0.25 0"/>
            <feBlend in2="BackgroundImageFix" result="effect1_dropShadow_871_15797"/>
            <feBlend in="SourceGraphic" in2="effect1_dropShadow_871_15797" result="shape"/>
        </filter>
    </defs>
</svg>
