<svg width="156" height="156" fill="none" xmlns="http://www.w3.org/2000/svg">
    <g filter="url(#a)">
        <path d="M19.004 79.383c-1.104.026-2.023-.85-2.013-1.954A62.076 62.076 0 0 1 75.65 16.032c1.103-.06 2.02.817 2.044 1.922l.263 11.516c.025 1.104-.85 2.015-1.953 2.088a46.557 46.557 0 0 0-43.487 45.517c-.023 1.104-.893 2.02-1.997 2.046l-11.516.262Z" fill="#87C5FF"/>
        <path d="m71.828 11.117 17.73 11.714c1.253.829 1.18 2.691-.134 3.419l-17.596 9.74V11.117Z" fill="#87C5FF"/>
        <path d="M94.98 20.174c.318-1.057 1.434-1.66 2.482-1.309A62.075 62.075 0 0 1 139.69 74.4c.059 1.103-.821 2.018-1.925 2.041l-12.143.257c-1.105.024-2.014-.853-2.086-1.955a45.924 45.924 0 0 0-30.722-40.404c-1.043-.363-1.645-1.474-1.328-2.532l3.493-11.633Z" fill="#FFEC82"/>
        <path d="m144.195 71.117-10.411 18.525c-.736 1.31-2.599 1.37-3.419.112l-10.979-16.85 24.809-1.787Z" fill="#FFEC82"/>
        <path d="M135.253 94.936c1.059.317 1.663 1.433 1.312 2.48a62.077 62.077 0 0 1-39.862 39.382c-1.052.338-2.16-.279-2.465-1.341l-3.213-11.223c-.304-1.062.313-2.165 1.36-2.514a46.411 46.411 0 0 0 29.155-28.803c.362-1.044 1.472-1.647 2.53-1.33l11.183 3.35Z" fill="#9EFF60"/>
        <path d="m100.988 140.594-20.648-5.023c-1.46-.355-2.021-2.133-1.03-3.262l13.26-15.121 8.418 23.406Z" fill="#9EFF60"/>
        <path d="M73.843 137.596c-.09 1.101-1.056 1.923-2.154 1.797a62.072 62.072 0 0 1-50.84-39.32c-.398-1.03.155-2.172 1.198-2.537l11.796-4.121c1.043-.364 2.18.188 2.59 1.213a45.578 45.578 0 0 0 36.608 28.314c1.096.138 1.916 1.1 1.825 2.201l-1.023 12.453Z" fill="#FF9997"/>
        <path d="m17.316 103.805 4.224-20.826c.3-1.473 2.054-2.102 3.22-1.156l15.62 12.669-23.064 9.313Z" fill="#FF9997"/>
    </g>
    <g filter="url(#b)" fill="#357ABD">
        <path d="M77.14 45.04a1 1 0 0 1 1-1h8.305a1 1 0 0 1 1 1v11.365H77.141V45.039ZM103.301 50.993a1 1 0 0 1 1.407-.142l6.434 5.25a1 1 0 0 1 .143 1.408l-7.186 8.805-7.984-6.515 7.186-8.806ZM116.582 75.692a1 1 0 0 1 .989 1.011l-.087 8.304a1 1 0 0 1-1.011.99l-11.365-.12.109-10.305 11.365.12ZM61.288 50.993a1 1 0 0 0-1.406-.142l-6.435 5.25a1 1 0 0 0-.142 1.408l7.186 8.805 7.984-6.515-7.186-8.806ZM47.23 75.692a1 1 0 0 0-.989 1.011l.088 8.304a1 1 0 0 0 1.01.99l11.366-.12-.11-10.305-11.365.12ZM77.133 111.805a1 1 0 0 0 1 1h8.305a1 1 0 0 0 1-1v-11.366H77.132v11.366ZM103.297 107.913a1 1 0 0 0 1.407.142l6.435-5.251a1 1 0 0 0 .142-1.407l-7.186-8.805-7.984 6.515 7.186 8.806ZM61.288 107.913a1 1 0 0 1-1.406.142l-6.435-5.251a1 1 0 0 1-.142-1.407l7.186-8.805 7.984 6.515-7.186 8.806Z"/>
        <path d="M108.059 80.113c0 14.228-11.534 25.762-25.762 25.762S56.535 94.341 56.535 80.113 68.07 54.352 82.297 54.352s25.762 11.533 25.762 25.761Zm-39.76 0c0 7.731 6.267 13.999 13.998 13.999 7.731 0 13.998-6.268 13.998-13.999 0-7.73-6.267-13.998-13.998-13.998-7.731 0-13.998 6.267-13.998 13.998Z"/>
    </g>
    <defs>
        <filter id="a" x="12.992" y="11.117" width="135.203" height="137.477" filterUnits="userSpaceOnUse" color-interpolation-filters="sRGB">
            <feFlood flood-opacity="0" result="BackgroundImageFix"/>
            <feColorMatrix in="SourceAlpha" values="0 0 0 0 0 0 0 0 0 0 0 0 0 0 0 0 0 0 127 0" result="hardAlpha"/>
            <feOffset dy="4"/>
            <feGaussianBlur stdDeviation="2"/>
            <feComposite in2="hardAlpha" operator="out"/>
            <feColorMatrix values="0 0 0 0 0 0 0 0 0 0 0 0 0 0 0 0 0 0 0.25 0"/>
            <feBlend in2="BackgroundImageFix" result="effect1_dropShadow_872_15944"/>
            <feBlend in="SourceGraphic" in2="effect1_dropShadow_872_15944" result="shape"/>
        </filter>
        <filter id="b" x="42.242" y="44.039" width="79.328" height="76.766" filterUnits="userSpaceOnUse" color-interpolation-filters="sRGB">
            <feFlood flood-opacity="0" result="BackgroundImageFix"/>
            <feColorMatrix in="SourceAlpha" values="0 0 0 0 0 0 0 0 0 0 0 0 0 0 0 0 0 0 127 0" result="hardAlpha"/>
            <feOffset dy="4"/>
            <feGaussianBlur stdDeviation="2"/>
            <feComposite in2="hardAlpha" operator="out"/>
            <feColorMatrix values="0 0 0 0 0 0 0 0 0 0 0 0 0 0 0 0 0 0 0.25 0"/>
            <feBlend in2="BackgroundImageFix" result="effect1_dropShadow_872_15944"/>
            <feBlend in="SourceGraphic" in2="effect1_dropShadow_872_15944" result="shape"/>
        </filter>
    </defs>
</svg>
