<svg width="134" height="149" fill="none" xmlns="http://www.w3.org/2000/svg">
    <mask id="a" maskUnits="userSpaceOnUse" x="62.318" y="29.884" width="67.127" height="34.25" fill="#000">
        <path fill="#fff" d="M62.318 29.884h67.127v34.25H62.318z"/>
        <path d="M120.367 59.906c2.762.01 5.062-2.246 4.469-4.943-1.101-5.002-3.881-9.649-8.046-13.318-5.517-4.86-13.015-7.607-20.843-7.636-7.829-.03-15.347 2.661-20.9 7.48-4.193 3.638-7.007 8.264-8.145 13.258-.614 2.692 1.67 4.965 4.431 4.976l24.517.091 24.517.092Z"/>
    </mask>
    <path d="M120.367 59.906c2.762.01 5.062-2.246 4.469-4.943-1.101-5.002-3.881-9.649-8.046-13.318-5.517-4.86-13.015-7.607-20.843-7.636-7.829-.03-15.347 2.661-20.9 7.48-4.193 3.638-7.007 8.264-8.145 13.258-.614 2.692 1.67 4.965 4.431 4.976l24.517.091 24.517.092Z" fill="#357ABD"/>
    <path d="M120.367 59.906c2.762.01 5.062-2.246 4.469-4.943-1.101-5.002-3.881-9.649-8.046-13.318-5.517-4.86-13.015-7.607-20.843-7.636-7.829-.03-15.347 2.661-20.9 7.48-4.193 3.638-7.007 8.264-8.145 13.258-.614 2.692 1.67 4.965 4.431 4.976l24.517.091 24.517.092Z" stroke="#fff" stroke-width="8" mask="url(#a)"/>
    <circle cx="93.887" cy="16.196" r="14.097" transform="rotate(.214 93.887 16.196)" fill="#357ABD" stroke="#fff" stroke-width="4"/>
    <mask id="b" maskUnits="userSpaceOnUse" x="4.079" y="29.884" width="67.127" height="34.25" fill="#000">
        <path fill="#fff" d="M4.079 29.884h67.127v34.25H4.079z"/>
        <path d="M62.129 59.906c2.761.01 5.062-2.246 4.468-4.943-1.1-5.002-3.88-9.649-8.045-13.318-5.518-4.86-13.015-7.607-20.844-7.636-7.828-.03-15.346 2.661-20.9 7.48-4.192 3.638-7.006 8.264-8.144 13.258-.614 2.692 1.67 4.965 4.43 4.976l24.518.091 24.517.092Z"/>
    </mask>
    <path d="M62.129 59.906c2.761.01 5.062-2.246 4.468-4.943-1.1-5.002-3.88-9.649-8.045-13.318-5.518-4.86-13.015-7.607-20.844-7.636-7.828-.03-15.346 2.661-20.9 7.48-4.192 3.638-7.006 8.264-8.144 13.258-.614 2.692 1.67 4.965 4.43 4.976l24.518.091 24.517.092Z" fill="#357ABD"/>
    <path d="M62.129 59.906c2.761.01 5.062-2.246 4.468-4.943-1.1-5.002-3.88-9.649-8.045-13.318-5.518-4.86-13.015-7.607-20.844-7.636-7.828-.03-15.346 2.661-20.9 7.48-4.192 3.638-7.006 8.264-8.144 13.258-.614 2.692 1.67 4.965 4.43 4.976l24.518.091 24.517.092Z" stroke="#fff" stroke-width="8" mask="url(#b)"/>
    <circle cx="35.649" cy="16.196" r="14.097" transform="rotate(.214 35.649 16.196)" fill="#357ABD" stroke="#fff" stroke-width="4"/>
    <mask id="c" maskUnits="userSpaceOnUse" x="30.174" y="46.712" width="78.145" height="39.291" fill="#000">
        <path fill="#fff" d="M30.174 46.712h78.145v39.291H30.174z"/>
        <path d="M99.145 81.549c2.761.01 5.055-2.239 4.553-4.955-1.157-6.27-4.53-12.119-9.717-16.688-6.538-5.759-15.422-9.014-24.699-9.049-9.277-.034-18.185 3.154-24.766 8.864-5.22 4.53-8.637 10.353-9.842 16.616-.521 2.711 1.755 4.977 4.516 4.988l29.978.112 29.977.112Z"/>
    </mask>
    <path d="M99.145 81.549c2.761.01 5.055-2.239 4.553-4.955-1.157-6.27-4.53-12.119-9.717-16.688-6.538-5.759-15.422-9.014-24.699-9.049-9.277-.034-18.185 3.154-24.766 8.864-5.22 4.53-8.637 10.353-9.842 16.616-.521 2.711 1.755 4.977 4.516 4.988l29.978.112 29.977.112Z" fill="#357ABD"/>
    <path d="M99.145 81.549c2.761.01 5.055-2.239 4.553-4.955-1.157-6.27-4.53-12.119-9.717-16.688-6.538-5.759-15.422-9.014-24.699-9.049-9.277-.034-18.185 3.154-24.766 8.864-5.22 4.53-8.637 10.353-9.842 16.616-.521 2.711 1.755 4.977 4.516 4.988l29.978.112 29.977.112Z" stroke="#fff" stroke-width="8" mask="url(#c)"/>
    <circle cx="66.839" cy="29.763" r="16.334" transform="rotate(.214 66.84 29.763)" fill="#357ABD" stroke="#fff" stroke-width="4"/>
    <g filter="url(#d)" fill="#1C3343" stroke="#fff" stroke-width="4">
        <path d="m38.841 81.257-1.133-.138-.695.906-17.459 22.751-1.372 1.787 1.938 1.15 51.757 30.716c1.467.984 3.076.508 4.064-.037 1.06-.584 2.005-1.526 2.705-2.514.695-.981 1.295-2.212 1.443-3.476a4.89 4.89 0 0 0 .032-.699l2.546 1.447.088.05.092.04c1.465.648 2.892.286 3.94-.311 1.027-.584 1.88-1.482 2.509-2.371.632-.894 1.145-1.932 1.39-2.927.08-.324.141-.682.156-1.055l1.177.688c1.301.784 2.712.71 3.856.232 1.108-.463 2.024-1.312 2.658-2.266.786-1.183 1.313-2.871.97-4.522.897.177 1.781-.018 2.484-.338 1.06-.483 1.971-1.329 2.646-2.185.681-.864 1.263-1.919 1.533-2.983.245-.971.36-2.573-.861-3.729-.975-.924-3.239-2.532-6.066-4.452-2.894-1.966-6.558-4.376-10.478-6.947l-1.333-.874C79.91 94.269 71.68 88.87 66.051 84.818l-.417-.3-.51-.062-26.283-3.2Z"/>
        <path d="m104.312 114.346 1.241.837 1.153-.955 7.51-6.221 1.359-1.126-.948-1.489-14.268-22.395-.66-1.037-1.223.12c-2.76.273-11.406.25-22.645-2.271-2.838-.637-4.772-.903-6.243-.688-1.732.252-2.653 1.143-3.391 1.858l-.007.006-.062.06c-.651.631-1.373 1.33-2.846 2.112-1.566.83-4.05 1.784-8.215 2.693l-.72.157-.445.586c-.538.707-1.088 1.514-1.439 2.374-.36.881-.573 1.978-.191 3.133.378 1.146 1.226 2 2.26 2.643 1.024.639 2.372 1.163 4.04 1.617 3.273.891 6.453.237 9.043-.783 1.952-.77 3.668-1.786 4.969-2.641l31.728 21.41Z"/>
        <path d="m94.421 74.785-1.732 1.082 1.118 1.709 20.463 31.283.7 1.071 1.266-.187c1.152-.171 2.959-.602 4.816-1.357 1.834-.745 3.905-1.881 5.397-3.559.485-.545.689-1.192.787-1.695.101-.527.121-1.09.102-1.642-.04-1.105-.253-2.435-.569-3.877-.634-2.902-1.753-6.573-3.081-10.46-2.66-7.791-6.239-16.675-8.722-22.479l-.918-2.146-1.98 1.236-17.647 11.02ZM24.706 64.863l-1.978-1.329-.966 2.179a8562.024 8562.024 0 0 0-9.581 21.695 2322.474 2322.474 0 0 0-4.158 9.502c-.54 1.244-.986 2.28-1.307 3.037-.289.68-.544 1.29-.622 1.547l1.915.578-1.915-.578a2.288 2.288 0 0 0 .144 1.66c.165.342.386.601.55.772.331.346.751.655 1.143.914.807.535 1.899 1.121 3.045 1.687 2.314 1.144 5.116 2.338 6.989 3.089l1.417.569.922-1.218 22.34-29.505 1.278-1.687-1.757-1.18-17.459-11.732Z"/>
    </g>
    <defs>
        <filter id="d" x="0" y="59.594" width="133.344" height="89.406" filterUnits="userSpaceOnUse" color-interpolation-filters="sRGB">
            <feFlood flood-opacity="0" result="BackgroundImageFix"/>
            <feColorMatrix in="SourceAlpha" values="0 0 0 0 0 0 0 0 0 0 0 0 0 0 0 0 0 0 127 0" result="hardAlpha"/>
            <feOffset dy="4"/>
            <feGaussianBlur stdDeviation="2"/>
            <feComposite in2="hardAlpha" operator="out"/>
            <feColorMatrix values="0 0 0 0 0 0 0 0 0 0 0 0 0 0 0 0 0 0 0.25 0"/>
            <feBlend in2="BackgroundImageFix" result="effect1_dropShadow_872_15842"/>
            <feBlend in="SourceGraphic" in2="effect1_dropShadow_872_15842" result="shape"/>
        </filter>
    </defs>
</svg>
