<svg xmlns="http://www.w3.org/2000/svg" xmlns:xlink="http://www.w3.org/1999/xlink" width="1728" height="1117" fill="none" xmlns:v="https://vecta.io/nano"><style><![CDATA[.B{fill:#4a4a4a}.C{stroke:#ff8484}.D{fill:#ffc5c7}.E{fill:#fff}.F{fill:#e3f4f9}.G{stroke:#a8bbff}.H{stroke:#6587ff}.I{fill:#6587ff}.J{stroke-linecap:round}.K{stroke-dasharray:10 10}]]></style><path d="M0 0h1728v1117H0z" class="E"/><rect x="777.5" y="418.5" width="173" height="161" rx="8.5" class="D"/><rect x="777.5" y="418.5" width="173" height="161" rx="8.5" class="C"/><path d="M822.386 490.278c-1.392 0-2.212-.849-2.212-2.299v-17.095c0-1.465.82-2.315 2.212-2.315s2.211.85 2.211 2.315v6.562h9.522v-6.562c0-1.465.82-2.315 2.212-2.315s2.212.85 2.212 2.315v17.095c0 1.45-.821 2.299-2.212 2.299s-2.212-.849-2.212-2.299v-6.885h-9.522v6.885c0 1.45-.82 2.299-2.211 2.299zm30.409.074c-6.27 0-10.196-4.19-10.196-10.914 0-6.738 3.926-10.942 10.196-10.942 6.254 0 10.195 4.204 10.195 10.942 0 6.724-3.941 10.914-10.195 10.914zm0-3.692c3.457 0 5.668-2.798 5.668-7.222 0-4.438-2.211-7.25-5.668-7.25s-5.684 2.812-5.684 7.25c0 4.424 2.212 7.222 5.684 7.222zm16.229 3.618c-1.245 0-1.978-.761-1.978-2.065v-16.787c0-1.787 1.055-2.857 2.857-2.857 1.538 0 2.387.645 3.032 2.285l5.244 12.994h.117l5.23-12.994c.644-1.625 1.509-2.285 3.061-2.285 1.787 0 2.842 1.055 2.842 2.857v16.787c0 1.304-.732 2.065-1.977 2.065s-1.963-.761-1.963-2.065v-12.481h-.118l-5.229 12.789c-.381.937-.967 1.347-1.89 1.347-.937 0-1.552-.425-1.919-1.333l-5.229-12.803h-.117v12.481c0 1.304-.718 2.065-1.963 2.065zm27.333-.278c-1.392 0-2.212-.85-2.212-2.314v-16.524c0-1.45.82-2.3 2.212-2.3h10.048c1.216 0 2.007.689 2.007 1.831s-.805 1.831-2.007 1.831h-7.836v5.083h7.456c1.098 0 1.845.645 1.845 1.7s-.732 1.699-1.845 1.699h-7.456v5.332h7.836c1.202 0 2.007.688 2.007 1.831s-.791 1.831-2.007 1.831h-10.048zm-67.819 40.278c-1.392 0-2.212-.849-2.212-2.299v-16.817c0-1.45.82-2.3 2.212-2.3h6.387c4.336 0 7.324 2.886 7.324 7.237 0 4.336-3.091 7.236-7.544 7.236h-3.955v4.644c0 1.45-.821 2.299-2.212 2.299zm2.212-10.4h2.988c2.534 0 4.014-1.348 4.014-3.765 0-2.402-1.465-3.75-3.999-3.75h-3.003v7.515zm14.735 10.4c-1.377 0-2.241-.805-2.241-2.08 0-.366.102-.864.293-1.406l5.771-15.718c.615-1.714 1.655-2.505 3.325-2.505 1.729 0 2.754.762 3.384 2.491l5.801 15.732c.205.571.278.967.278 1.406 0 1.216-.923 2.08-2.212 2.08-1.245 0-1.904-.571-2.299-1.948l-1.114-3.34h-7.632l-1.113 3.296c-.41 1.406-1.069 1.992-2.241 1.992zm4.321-8.716h5.64l-2.798-8.657h-.102l-2.74 8.657zm24.682 8.79c-6.314 0-10.181-4.117-10.181-10.987 0-6.767 3.867-10.869 10.078-10.869 4.058 0 7.236 1.904 8.423 4.497.249.513.322.938.322 1.362 0 1.128-.776 1.905-1.933 1.905-.938 0-1.597-.396-2.139-1.289-1.04-1.89-2.578-2.813-4.658-2.813-3.487 0-5.581 2.652-5.581 7.149 0 4.585 2.226 7.382 5.742 7.382 2.886 0 4.893-1.772 4.98-4.394l.015-.337h-3.076c-1.055 0-1.773-.601-1.773-1.611s.704-1.612 1.773-1.612h5.171c1.391 0 2.212.85 2.212 2.3v.322c0 5.376-3.413 8.995-9.375 8.995zm15.716-.352c-1.391 0-2.212-.85-2.212-2.314v-16.524c0-1.45.821-2.3 2.212-2.3h10.049c1.216 0 2.007.689 2.007 1.831s-.806 1.831-2.007 1.831h-7.837v5.083h7.456c1.099 0 1.846.645 1.846 1.7s-.732 1.699-1.846 1.699h-7.456v5.332h7.837c1.201 0 2.007.688 2.007 1.831s-.791 1.831-2.007 1.831h-10.049z" class="B"/><rect x="749.5" y="264.5" width="229" height="81" rx="8.5" fill="#ff9295"/><rect x="749.5" y="264.5" width="229" height="81" rx="8.5" class="C"/><path d="M801.499 316.352c-6.27 0-10.078-4.102-10.078-10.928 0-6.812 3.881-10.928 9.96-10.928 3.956 0 7.017 1.758 8.467 4.805.293.556.44 1.128.44 1.655 0 1.157-.777 1.904-1.949 1.904-.996 0-1.626-.439-2.109-1.464-.967-2.154-2.695-3.238-4.805-3.238-3.339 0-5.493 2.798-5.493 7.251 0 4.512 2.124 7.295 5.508 7.295 2.227 0 3.897-1.011 4.849-3.135.454-.996 1.01-1.391 1.948-1.391 1.245 0 2.065.791 2.065 1.963 0 .498-.117.966-.337 1.479-1.318 2.93-4.467 4.732-8.466 4.732zm22.704 0c-6.27 0-10.196-4.19-10.196-10.914 0-6.738 3.926-10.942 10.196-10.942 6.254 0 10.195 4.204 10.195 10.942 0 6.724-3.941 10.914-10.195 10.914zm0-3.692c3.457 0 5.668-2.798 5.668-7.222 0-4.438-2.211-7.25-5.668-7.25s-5.684 2.812-5.684 7.25c0 4.424 2.212 7.222 5.684 7.222zm16.375 3.618c-1.333 0-2.124-.805-2.124-2.212v-17.285c0-1.406.821-2.212 2.227-2.212.908 0 1.523.367 2.197 1.289l9.141 12.774h.117v-11.836c0-1.421.791-2.227 2.124-2.227s2.109.806 2.109 2.227v17.329c0 1.377-.776 2.153-2.168 2.153-.952 0-1.538-.337-2.212-1.274l-9.169-12.847h-.132v11.909c0 1.407-.791 2.212-2.11 2.212zm27.787 0c-1.391 0-2.212-.849-2.212-2.299v-15.455h-4.365c-1.201 0-2.007-.688-2.007-1.831s.791-1.831 2.007-1.831h13.169c1.201 0 1.992.689 1.992 1.831s-.805 1.831-1.992 1.831h-4.38v15.455c0 1.45-.82 2.299-2.212 2.299zm14.193-.278c-1.391 0-2.212-.85-2.212-2.314v-16.524c0-1.45.821-2.3 2.212-2.3h10.049c1.216 0 2.007.689 2.007 1.831s-.806 1.831-2.007 1.831h-7.837v5.083h7.456c1.099 0 1.846.645 1.846 1.7s-.732 1.699-1.846 1.699h-7.456v5.332h7.837c1.201 0 2.007.688 2.007 1.831s-.791 1.831-2.007 1.831h-10.049zm18.31.278c-1.333 0-2.124-.805-2.124-2.212v-17.285c0-1.406.82-2.212 2.226-2.212.909 0 1.524.367 2.198 1.289l9.14 12.774h.117v-11.836c0-1.421.791-2.227 2.124-2.227s2.11.806 2.11 2.227v17.329c0 1.377-.777 2.153-2.168 2.153-.952 0-1.538-.337-2.212-1.274l-9.17-12.847h-.132v11.909c0 1.407-.791 2.212-2.109 2.212zm27.787 0c-1.392 0-2.212-.849-2.212-2.299v-15.455h-4.365c-1.202 0-2.007-.688-2.007-1.831s.791-1.831 2.007-1.831h13.168c1.202 0 1.993.689 1.993 1.831s-.806 1.831-1.993 1.831h-4.379v15.455c0 1.45-.821 2.299-2.212 2.299z" class="E"/><rect x="54.5" y="54.5" width="216" height="81" rx="8.5" class="D"/><rect x="54.5" y="54.5" width="216" height="81" rx="8.5" class="C"/><use xlink:href="#B" class="B"/><rect x="339.5" y="54.5" width="208" height="81" rx="8.5" class="D"/><rect x="339.5" y="54.5" width="208" height="81" rx="8.5" class="C"/><use xlink:href="#C" class="B"/><rect x="616.5" y="54.5" width="180" height="81" rx="8.5" class="D"/><rect x="616.5" y="54.5" width="180" height="81" rx="8.5" class="C"/><use xlink:href="#D" class="B"/><rect x="865.5" y="54.5" width="223" height="81" rx="8.5" class="D"/><rect x="865.5" y="54.5" width="223" height="81" rx="8.5" class="C"/><use xlink:href="#E" class="B"/><rect x="1157.5" y="54.5" width="201" height="81" rx="8.5" class="D"/><rect x="1157.5" y="54.5" width="201" height="81" rx="8.5" class="C"/><use xlink:href="#F" class="B"/><rect x="1427.5" y="54.5" width="246" height="81" rx="8.5" class="D"/><rect x="1427.5" y="54.5" width="246" height="81" rx="8.5" class="C"/><use xlink:href="#G" class="B"/><rect x="1212.5" y="755.5" width="328" height="81" rx="8.5" fill="#d7fcd1"/><rect x="1212.5" y="755.5" width="328" height="81" rx="8.5" stroke="#2fd5b4"/><path d="M1257.01 807c-1.39 0-2.22-.85-2.22-2.314v-16.524c0-1.45.83-2.3 2.22-2.3h10.05c1.21 0 2 .689 2 1.831s-.8 1.831-2 1.831h-7.84v5.083h7.45c1.1 0 1.85.645 1.85 1.7s-.73 1.699-1.85 1.699h-7.45v5.332h7.84c1.2 0 2 .688 2 1.831s-.79 1.831-2 1.831h-10.05zm17.35.308c-1.12 0-1.93-.718-1.93-1.744 0-.512.16-.922.57-1.464l3.68-4.922-3.66-4.995a2.12 2.12 0 0 1-.46-1.333c0-1.07.88-1.875 2.05-1.875.87 0 1.32.307 1.89 1.215l2.93 4.41h.09l2.87-4.38c.57-.894 1.03-1.245 1.82-1.245 1.2 0 2 .732 2 1.816 0 .527-.16.952-.57 1.48l-3.59 4.79 3.65 5.039c.32.439.47.849.47 1.318 0 1.157-.88 1.89-2.04 1.89-.83 0-1.24-.352-1.72-1.084l-3.12-4.673h-.09l-3.06 4.599c-.59.909-1.01 1.158-1.78 1.158zm16.66-4.322v-8.466h-.82c-1.01 0-1.66-.616-1.66-1.612s.65-1.611 1.66-1.611h.82v-1.743c0-1.377.8-2.227 2.14-2.227 1.33 0 2.14.85 2.14 2.227v1.743h1.5c1.02 0 1.64.63 1.64 1.611s-.62 1.612-1.64 1.612h-1.5v7.514c0 1.113.38 1.582 1.3 1.655l.28.03c1.05.117 1.62.556 1.62 1.552 0 1.26-1.23 1.905-3.03 1.905h-.15c-2.85 0-4.3-1.421-4.3-4.19zm17.71 4.351c-4.91 0-7.8-3.032-7.8-8.115 0-5.054 2.95-8.262 7.59-8.262 4.45 0 7.44 3.047 7.44 7.31 0 1.186-.67 1.86-1.86 1.86h-8.96v.19c0 2.329 1.4 3.853 3.57 3.853 1.57 0 2.6-.527 3.75-1.89.46-.469.84-.63 1.39-.63.93 0 1.67.586 1.67 1.568 0 .337-.1.688-.29 1.04-1.04 1.933-3.47 3.076-6.5 3.076zm-3.55-9.829h6.67c-.09-2.051-1.41-3.384-3.28-3.384-1.88 0-3.24 1.377-3.39 3.384zm16.33 9.8c-1.29 0-2.13-.806-2.13-2.227v-11.953c0-1.362.83-2.153 2.06-2.153 1.2 0 2.02.791 2.02 2.153v1.025h.09c.41-1.948 1.7-3.105 3.27-3.105.57 0 1.02.132 1.33.395.41.323.61.85.61 1.582 0 .674-.2 1.187-.61 1.538s-1.03.542-1.86.557c-1.95.029-2.64 1.128-2.64 2.988v6.973c0 1.421-.83 2.227-2.14 2.227zm12.13 0c-1.24 0-2.14-.762-2.14-2.227v-11.953c0-1.333.78-2.153 2.07-2.153s2.14.82 2.14 2.168v.878h.08c.84-1.948 2.42-3.017 4.84-3.017 3.49 0 5.45 2.197 5.45 5.874v8.203c0 1.465-.9 2.227-2.14 2.227-1.26 0-2.14-.762-2.14-2.227v-7.31c0-2.05-.97-3.222-2.88-3.222-1.92 0-3.14 1.406-3.14 3.442v7.09c0 1.465-.88 2.227-2.14 2.227zm20.99-.059c-2.99 0-5.26-1.934-5.26-4.761 0-2.856 2.2-4.511 6.13-4.746l3.95-.234v-1.04c0-1.465-1.02-2.315-2.64-2.315-1.3 0-2.09.425-3.04 1.656-.47.527-1.01.791-1.7.791-1.04 0-1.79-.674-1.79-1.641a2.22 2.22 0 0 1 .22-.967c.73-1.875 3.25-3.032 6.5-3.032 4.03 0 6.66 2.08 6.66 5.244v8.95c0 1.421-.87 2.154-2.09 2.154-1.15 0-1.96-.645-2.05-1.905v-.805h-.08c-.88 1.67-2.85 2.651-4.81 2.651zm1.41-3.091c1.87 0 3.41-1.216 3.41-2.915v-1.142l-3.31.205c-1.6.117-2.5.835-2.5 1.948 0 1.172.96 1.904 2.4 1.904zm13.82 3.15c-1.24 0-2.13-.762-2.13-2.227v-17.3c0-1.465.89-2.241 2.13-2.241 1.26 0 2.14.776 2.14 2.241v17.3c0 1.465-.88 2.227-2.14 2.227zm23.16.044c-6.27 0-10.08-4.102-10.08-10.928 0-6.812 3.89-10.928 9.96-10.928 3.96 0 7.02 1.758 8.47 4.805.29.556.44 1.128.44 1.655 0 1.157-.78 1.904-1.95 1.904-.99 0-1.62-.439-2.11-1.464-.96-2.154-2.69-3.238-4.8-3.238-3.34 0-5.49 2.798-5.49 7.251 0 4.512 2.12 7.295 5.5 7.295 2.23 0 3.9-1.011 4.85-3.135.46-.996 1.01-1.391 1.95-1.391 1.25 0 2.07.791 2.07 1.963 0 .498-.12.966-.34 1.479-1.32 2.93-4.47 4.732-8.47 4.732zm20.01-.015c-4.75 0-7.78-3.047-7.78-8.203 0-5.083 3.08-8.174 7.78-8.174s7.78 3.076 7.78 8.174c0 5.171-3.03 8.203-7.78 8.203zm0-3.267c2.09 0 3.43-1.772 3.43-4.922 0-3.12-1.35-4.921-3.43-4.921s-3.44 1.801-3.44 4.921c0 3.15 1.33 4.922 3.44 4.922zm13.33 3.238c-1.25 0-2.14-.762-2.14-2.227v-11.953c0-1.333.78-2.153 2.07-2.153 1.28 0 2.13.82 2.13 2.168v.878h.09c.84-1.948 2.42-3.017 4.84-3.017 3.48 0 5.45 2.197 5.45 5.874v8.203c0 1.465-.9 2.227-2.14 2.227-1.26 0-2.14-.762-2.14-2.227v-7.31c0-2.05-.97-3.222-2.89-3.222s-3.13 1.406-3.13 3.442v7.09c0 1.465-.88 2.227-2.14 2.227zm17.49-4.322v-8.466h-.82c-1.01 0-1.66-.616-1.66-1.612s.65-1.611 1.66-1.611h.82v-1.743c0-1.377.8-2.227 2.14-2.227 1.33 0 2.14.85 2.14 2.227v1.743h1.5c1.02 0 1.64.63 1.64 1.611s-.62 1.612-1.64 1.612h-1.5v7.514c0 1.113.38 1.582 1.3 1.655l.28.03c1.05.117 1.62.556 1.62 1.552 0 1.26-1.23 1.905-3.03 1.905h-.15c-2.85 0-4.3-1.421-4.3-4.19zm17.71 4.351c-4.91 0-7.8-3.032-7.8-8.115 0-5.054 2.95-8.262 7.59-8.262 4.46 0 7.44 3.047 7.44 7.31 0 1.186-.67 1.86-1.86 1.86h-8.96v.19c0 2.329 1.4 3.853 3.57 3.853 1.57 0 2.6-.527 3.75-1.89.46-.469.84-.63 1.39-.63.93 0 1.67.586 1.67 1.568 0 .337-.1.688-.29 1.04-1.04 1.933-3.47 3.076-6.5 3.076zm-3.55-9.829h6.67c-.09-2.051-1.41-3.384-3.28-3.384-1.88 0-3.24 1.377-3.39 3.384zm16.33 9.8c-1.24 0-2.13-.762-2.13-2.227v-11.953c0-1.333.77-2.153 2.06-2.153s2.14.82 2.14 2.168v.878h.09c.83-1.948 2.41-3.017 4.83-3.017 3.49 0 5.45 2.197 5.45 5.874v8.203c0 1.465-.89 2.227-2.14 2.227-1.26 0-2.14-.762-2.14-2.227v-7.31c0-2.05-.96-3.222-2.88-3.222s-3.14 1.406-3.14 3.442v7.09c0 1.465-.88 2.227-2.14 2.227zm17.49-4.322v-8.466h-.82c-1.01 0-1.65-.616-1.65-1.612s.64-1.611 1.65-1.611h.82v-1.743c0-1.377.81-2.227 2.14-2.227s2.14.85 2.14 2.227v1.743h1.51c1.01 0 1.64.63 1.64 1.611s-.63 1.612-1.64 1.612h-1.51v7.514c0 1.113.38 1.582 1.3 1.655l.28.03c1.06.117 1.63.556 1.63 1.552 0 1.26-1.23 1.905-3.03 1.905h-.15c-2.86 0-4.31-1.421-4.31-4.19z" class="B"/><rect x="994.5" y="940.5" width="224" height="81" rx="8.5" class="E"/><rect x="994.5" y="940.5" width="224" height="81" rx="8.5" class="H"/><path d="M1039.41 992.278c-1.39 0-2.21-.849-2.21-2.299v-16.817c0-1.45.82-2.3 2.21-2.3h9.89c1.22 0 2.01.689 2.01 1.831s-.81 1.831-2.01 1.831h-7.67v5.655h6.95c1.15 0 1.89.659 1.89 1.743 0 1.099-.73 1.758-1.89 1.758h-6.95v6.299c0 1.45-.82 2.299-2.22 2.299zm19.06-.029c-2.99 0-5.26-1.934-5.26-4.761 0-2.856 2.2-4.511 6.12-4.746l3.96-.234v-1.04c0-1.465-1.03-2.315-2.64-2.315-1.3 0-2.09.425-3.04 1.656-.47.527-1.01.791-1.7.791-1.04 0-1.79-.674-1.79-1.641a2.22 2.22 0 0 1 .22-.967c.73-1.875 3.25-3.032 6.5-3.032 4.03 0 6.65 2.08 6.65 5.244v8.95c0 1.421-.86 2.154-2.08 2.154-1.15 0-1.96-.645-2.05-1.905v-.805h-.08c-.88 1.67-2.85 2.651-4.81 2.651zm1.41-3.091c1.87 0 3.41-1.216 3.41-2.915v-1.142l-3.31.205c-1.6.117-2.51.835-2.51 1.948 0 1.172.97 1.904 2.41 1.904zm18.75 3.179c-4.74 0-7.74-3.106-7.74-8.189 0-5.024 2.99-8.188 7.71-8.188 3.15 0 5.77 1.523 6.62 3.75.14.366.23.747.23 1.055 0 1.054-.82 1.67-1.83 1.67-.85 0-1.36-.337-1.8-1.114-.78-1.377-1.73-2.007-3.09-2.007-2.17 0-3.5 1.788-3.5 4.82 0 3.091 1.33 4.848 3.47 4.848 1.49 0 2.42-.732 3.08-1.845.57-.894 1.04-1.26 1.94-1.26 1 0 1.81.659 1.81 1.714 0 .337-.09.688-.28 1.113-.94 2.139-3.62 3.633-6.62 3.633zm17.6 0c-4.91 0-7.79-3.032-7.79-8.115 0-5.054 2.94-8.262 7.59-8.262 4.45 0 7.44 3.047 7.44 7.31 0 1.186-.68 1.86-1.86 1.86h-8.97v.19c0 2.329 1.41 3.853 3.58 3.853 1.56 0 2.59-.527 3.75-1.89.45-.469.83-.63 1.39-.63.92 0 1.67.586 1.67 1.568 0 .337-.1.688-.29 1.04-1.04 1.933-3.48 3.076-6.51 3.076zm-3.54-9.829h6.66c-.09-2.051-1.4-3.384-3.28-3.384-1.87 0-3.24 1.377-3.38 3.384zm16.39 9.8c-1.23 0-2.1-.733-2.1-2.168v-17.359c0-1.465.9-2.241 2.14-2.241 1.26 0 2.14.776 2.14 2.241v6.24h.09c.86-1.86 2.62-2.973 4.85-2.973 3.97 0 6.38 3.032 6.38 8.1 0 5.054-2.4 8.101-6.37 8.101-2.3 0-4.04-1.113-4.92-2.944h-.09v.835c0 1.421-.88 2.168-2.12 2.168zm5.67-3.501c2.12 0 3.45-1.787 3.45-4.659 0-2.856-1.33-4.672-3.45-4.672-2.08 0-3.5 1.86-3.5 4.672 0 2.842 1.42 4.659 3.5 4.659zm18.47 3.53c-4.75 0-7.78-3.047-7.78-8.203 0-5.083 3.07-8.174 7.78-8.174 4.7 0 7.78 3.076 7.78 8.174 0 5.171-3.04 8.203-7.78 8.203zm0-3.267c2.09 0 3.42-1.772 3.42-4.922 0-3.12-1.34-4.921-3.42-4.921s-3.45 1.801-3.45 4.921c0 3.15 1.34 4.922 3.45 4.922zm18.39 3.267c-4.74 0-7.77-3.047-7.77-8.203 0-5.083 3.07-8.174 7.77-8.174 4.71 0 7.78 3.076 7.78 8.174 0 5.171-3.03 8.203-7.78 8.203zm0-3.267c2.1 0 3.43-1.772 3.43-4.922 0-3.12-1.35-4.921-3.43-4.921s-3.44 1.801-3.44 4.921c0 3.15 1.33 4.922 3.44 4.922zm13.44 3.238c-1.25 0-2.14-.762-2.14-2.227v-17.3c0-1.465.89-2.241 2.14-2.241 1.26 0 2.13.776 2.13 2.241v9.741h.06l5.69-5.698c.57-.6 1.05-.849 1.7-.849 1.09 0 1.9.805 1.9 1.86 0 .644-.19 1.04-.81 1.611l-3.99 3.78 4.38 5.581c.46.63.6 1.01.6 1.567 0 1.143-.84 1.934-2.04 1.934-.91 0-1.42-.323-2.09-1.333l-4.03-5.332-1.37 1.259v3.179c0 1.465-.87 2.227-2.13 2.227z" class="I"/><rect x="1249.5" y="940.5" width="229" height="81" rx="8.5" class="E"/><rect x="1249.5" y="940.5" width="229" height="81" rx="8.5" class="H"/><path d="M1294 992.278c-1.39 0-2.21-.849-2.21-2.299v-17.095c0-1.465.82-2.315 2.21-2.315s2.21.85 2.21 2.315v17.095c0 1.45-.82 2.299-2.21 2.299zm8.7.03c-1.25 0-2.14-.762-2.14-2.227v-11.953c0-1.333.78-2.153 2.07-2.153s2.14.82 2.14 2.168v.878h.08c.84-1.948 2.42-3.017 4.84-3.017 3.48 0 5.45 2.197 5.45 5.874v8.203c0 1.465-.9 2.227-2.14 2.227-1.26 0-2.14-.762-2.14-2.227v-7.31c0-2.05-.97-3.222-2.89-3.222s-3.13 1.406-3.13 3.442v7.09c0 1.465-.88 2.227-2.14 2.227zm22.75.029c-3.61 0-6.01-1.289-6.76-3.135-.1-.278-.16-.556-.16-.791 0-.981.74-1.64 1.73-1.64.69 0 1.28.307 1.86.966.84 1.099 1.8 1.597 3.43 1.597 1.55 0 2.56-.645 2.56-1.685 0-.849-.54-1.303-2.08-1.64l-2.63-.557c-3.08-.659-4.63-2.226-4.63-4.556 0-3.002 2.59-4.936 6.66-4.936 3.25 0 5.64 1.479 6.16 3.252.05.22.1.425.1.63 0 .864-.54 1.465-1.64 1.465-.56 0-1.17-.205-1.56-.66-.74-.952-1.59-1.684-3.13-1.684-1.45 0-2.46.688-2.46 1.699 0 .82.61 1.362 2.18 1.699l2.59.557c3.34.703 4.72 1.934 4.72 4.277 0 3.12-2.8 5.142-6.94 5.142zm11.41-4.351v-8.466h-.82c-1.01 0-1.66-.616-1.66-1.612s.65-1.611 1.66-1.611h.82v-1.743c0-1.377.8-2.227 2.14-2.227 1.33 0 2.13.85 2.13 2.227v1.743h1.51c1.01 0 1.64.63 1.64 1.611s-.63 1.612-1.64 1.612h-1.51v7.514c0 1.113.39 1.582 1.31 1.655l.28.03c1.05.117 1.62.556 1.62 1.552 0 1.26-1.23 1.905-3.03 1.905h-.15c-2.85 0-4.3-1.421-4.3-4.19zm15.22 4.263c-2.99 0-5.26-1.934-5.26-4.761 0-2.856 2.19-4.511 6.12-4.746l3.96-.234v-1.04c0-1.465-1.03-2.315-2.64-2.315-1.3 0-2.1.425-3.05 1.656-.47.527-1.01.791-1.7.791-1.04 0-1.78-.674-1.78-1.641a2.22 2.22 0 0 1 .22-.967c.73-1.875 3.25-3.032 6.5-3.032 4.03 0 6.65 2.08 6.65 5.244v8.95c0 1.421-.86 2.154-2.08 2.154-1.16 0-1.96-.645-2.05-1.905v-.805h-.09c-.88 1.67-2.84 2.651-4.8 2.651zm1.4-3.091c1.88 0 3.42-1.216 3.42-2.915v-1.142l-3.32.205c-1.59.117-2.5.835-2.5 1.948 0 1.172.97 1.904 2.4 1.904zm18.6 8.745c-3.2-.014-5.59-1.23-6.6-2.885-.24-.396-.32-.791-.32-1.187 0-.893.67-1.567 1.74-1.567.56 0 1 .175 1.48.615 1.16 1.099 2.27 1.699 3.69 1.714 2.34.014 3.72-1.275 3.72-3.238v-2.504h-.09c-.73 1.684-2.56 2.812-4.83 2.812-3.91 0-6.37-2.988-6.37-7.778 0-4.922 2.4-7.837 6.44-7.837 2.26 0 3.97 1.186 4.79 2.959h.09v-.864c0-1.451.92-2.168 2.15-2.168s2.13.717 2.13 2.168v13.242c0 4.087-2.96 6.548-8.02 6.518zm.24-9.419c2.14 0 3.51-1.699 3.51-4.541 0-2.827-1.37-4.643-3.51-4.643-2.11 0-3.44 1.787-3.44 4.629 0 2.871 1.32 4.555 3.44 4.555zm13.9 3.824c-1.29 0-2.14-.806-2.14-2.227v-11.953c0-1.362.84-2.153 2.07-2.153 1.2 0 2.02.791 2.02 2.153v1.025h.09c.41-1.948 1.69-3.105 3.26-3.105.57 0 1.03.132 1.34.395.41.323.61.85.61 1.582 0 .674-.2 1.187-.61 1.538-.42.352-1.03.542-1.87.557-1.94.029-2.63 1.128-2.63 2.988v6.973c0 1.421-.84 2.227-2.14 2.227zm14.25-.059c-2.99 0-5.26-1.934-5.26-4.761 0-2.856 2.2-4.511 6.13-4.746l3.95-.234v-1.04c0-1.465-1.02-2.315-2.64-2.315-1.3 0-2.09.425-3.04 1.656-.47.527-1.01.791-1.7.791-1.04 0-1.79-.674-1.79-1.641a2.22 2.22 0 0 1 .22-.967c.73-1.875 3.25-3.032 6.5-3.032 4.03 0 6.65 2.08 6.65 5.244v8.95c0 1.421-.86 2.154-2.08 2.154-1.15 0-1.96-.645-2.05-1.905v-.805h-.08c-.88 1.67-2.85 2.651-4.81 2.651zm1.41-3.091c1.87 0 3.41-1.216 3.41-2.915v-1.142l-3.31.205c-1.6.117-2.51.835-2.51 1.948 0 1.172.97 1.904 2.41 1.904zm13.72 3.15c-1.27 0-2.14-.777-2.14-2.227v-11.924c0-1.435.85-2.182 2.07-2.182 1.21 0 2.06.747 2.06 2.182v.982h.09c.66-1.89 2.35-3.135 4.48-3.135 2.27 0 3.86 1.172 4.38 3.223h.09c.71-1.978 2.58-3.223 4.88-3.223 3.08 0 5.14 2.109 5.14 5.273v8.804c0 1.45-.88 2.227-2.15 2.227-1.26 0-2.13-.777-2.13-2.227v-7.734c0-1.817-.9-2.813-2.56-2.813-1.63 0-2.69 1.187-2.69 2.93v7.617c0 1.45-.8 2.227-2.07 2.227-1.26 0-2.05-.777-2.05-2.227v-7.866c0-1.685-.95-2.681-2.53-2.681-1.63 0-2.73 1.231-2.73 2.988v7.559c0 1.45-.88 2.227-2.14 2.227z" class="I"/><rect x="1509.5" y="940.5" width="206" height="81" rx="8.5" class="E"/><rect x="1509.5" y="940.5" width="206" height="81" rx="8.5" class="H"/><path d="M1560.22 992.278c-1.39 0-2.21-.849-2.21-2.299v-5.875l-6.44-9.96a2.64 2.64 0 0 1-.46-1.495c0-1.201.94-2.08 2.21-2.08.96 0 1.47.352 2.05 1.363l4.84 7.954h.1l4.85-7.954c.56-.967 1.13-1.363 2.01-1.363 1.24 0 2.18.879 2.18 2.051 0 .513-.15.996-.47 1.509l-6.44 9.975v5.875c0 1.45-.83 2.299-2.22 2.299zm16.55.059c-4.74 0-7.77-3.047-7.77-8.203 0-5.083 3.07-8.174 7.77-8.174 4.71 0 7.78 3.076 7.78 8.174 0 5.171-3.03 8.203-7.78 8.203zm0-3.267c2.1 0 3.43-1.772 3.43-4.922 0-3.12-1.35-4.921-3.43-4.921s-3.44 1.801-3.44 4.921c0 3.15 1.34 4.922 3.44 4.922zm16.78 3.223c-3.4 0-5.66-2.212-5.66-5.874v-8.203c0-1.465.9-2.241 2.14-2.241 1.26 0 2.14.776 2.14 2.241v7.309c0 2.095 1.04 3.208 2.93 3.208 1.9 0 3.09-1.362 3.09-3.442v-7.075c0-1.465.89-2.241 2.14-2.241 1.26 0 2.14.776 2.14 2.241v11.924c0 1.421-.84 2.168-2.07 2.168s-2.06-.747-2.06-2.168v-.967h-.09c-.78 1.977-2.33 3.12-4.7 3.12zm18.63-.015c-1.39 0-2.21-.849-2.21-2.299v-15.455h-4.37c-1.2 0-2.01-.688-2.01-1.831s.79-1.831 2.01-1.831h13.17c1.2 0 1.99.689 1.99 1.831s-.8 1.831-1.99 1.831h-4.38v15.455c0 1.45-.82 2.299-2.21 2.299zm15.26.015c-3.4 0-5.65-2.212-5.65-5.874v-8.203c0-1.465.89-2.241 2.13-2.241 1.26 0 2.14.776 2.14 2.241v7.309c0 2.095 1.04 3.208 2.93 3.208 1.91 0 3.09-1.362 3.09-3.442v-7.075c0-1.465.9-2.241 2.14-2.241 1.26 0 2.14.776 2.14 2.241v11.924c0 1.421-.83 2.168-2.06 2.168s-2.07-.747-2.07-2.168v-.967h-.09c-.77 1.977-2.33 3.12-4.7 3.12zm15.1.015c-1.23 0-2.09-.733-2.09-2.168v-17.359c0-1.465.89-2.241 2.14-2.241 1.26 0 2.13.776 2.13 2.241v6.24h.09c.87-1.86 2.62-2.973 4.85-2.973 3.97 0 6.39 3.032 6.39 8.1 0 5.054-2.4 8.101-6.37 8.101-2.3 0-4.05-1.113-4.93-2.944h-.08v.835c0 1.421-.88 2.168-2.13 2.168zm5.67-3.501c2.12 0 3.46-1.787 3.46-4.659 0-2.856-1.34-4.672-3.46-4.672-2.08 0-3.5 1.86-3.5 4.672 0 2.842 1.42 4.659 3.5 4.659zm18.49 3.53c-4.91 0-7.8-3.032-7.8-8.115 0-5.054 2.95-8.262 7.59-8.262 4.45 0 7.44 3.047 7.44 7.31 0 1.186-.67 1.86-1.86 1.86h-8.96v.19c0 2.329 1.4 3.853 3.57 3.853 1.57 0 2.59-.527 3.75-1.89.46-.469.84-.63 1.39-.63.93 0 1.67.586 1.67 1.568 0 .337-.1.688-.29 1.04-1.04 1.933-3.47 3.076-6.5 3.076zm-3.55-9.829h6.67c-.09-2.051-1.41-3.384-3.29-3.384-1.87 0-3.23 1.377-3.38 3.384z" class="I"/><g stroke="#4a4a4a" stroke-width="3" class="J"><path d="M162 198h1388"/><path d="M162 198h1388M366 690h1010"/><path d="M1106 889h506" class="K"/><path d="M162 139v58.168"/><path d="M162 139v58.168M366 748v-58m461 247v-48"/><path d="M1106 937v-48m270 48v-96m236 96v-48" class="K"/></g><rect x="54.5" y="940.5" width="155" height="81" rx="8.5" class="F"/><rect x="54.5" y="940.5" width="155" height="81" rx="8.5" class="G"/><path d="M99.145 992.278c-1.392 0-2.212-.849-2.212-2.299v-16.817c0-1.45.82-2.3 2.212-2.3h9.888c1.216 0 2.007.689 2.007 1.831s-.806 1.831-2.007 1.831h-7.676v5.655h6.958c1.143 0 1.89.659 1.89 1.743 0 1.099-.733 1.758-1.89 1.758h-6.958v6.299c0 1.45-.82 2.299-2.212 2.299zm21.855.059c-4.746 0-7.779-3.047-7.779-8.203 0-5.083 3.076-8.174 7.779-8.174s7.778 3.076 7.778 8.174c0 5.171-3.032 8.203-7.778 8.203zm0-3.267c2.094 0 3.427-1.772 3.427-4.922 0-3.12-1.347-4.921-3.427-4.921s-3.443 1.801-3.443 4.921c0 3.15 1.333 4.922 3.443 4.922zm13.329 3.238c-1.29 0-2.139-.806-2.139-2.227v-11.953c0-1.362.835-2.153 2.065-2.153 1.201 0 2.022.791 2.022 2.153v1.025h.088c.41-1.948 1.699-3.105 3.266-3.105.572 0 1.026.132 1.333.395.41.323.615.85.615 1.582 0 .674-.205 1.187-.615 1.538s-1.025.542-1.86.557c-1.948.029-2.637 1.128-2.637 2.988v6.973c0 1.421-.835 2.227-2.138 2.227zm12.127 0c-1.274 0-2.138-.777-2.138-2.227v-11.924c0-1.435.849-2.182 2.065-2.182s2.065.747 2.065 2.182v.982h.088c.66-1.89 2.344-3.135 4.483-3.135 2.27 0 3.852 1.172 4.38 3.223h.088c.703-1.978 2.578-3.223 4.877-3.223 3.077 0 5.142 2.109 5.142 5.273v8.804c0 1.45-.879 2.227-2.153 2.227-1.26 0-2.124-.777-2.124-2.227v-7.734c0-1.817-.908-2.813-2.564-2.813-1.626 0-2.695 1.187-2.695 2.93v7.617c0 1.45-.791 2.227-2.066 2.227-1.259 0-2.05-.777-2.05-2.227v-7.866c0-1.685-.952-2.681-2.534-2.681-1.626 0-2.725 1.231-2.725 2.988v7.559c0 1.45-.879 2.227-2.139 2.227z" class="B"/><rect x="228.5" y="940.5" width="233" height="81" rx="8.5" class="F"/><rect x="228.5" y="940.5" width="233" height="81" rx="8.5" class="G"/><path d="M278.369 992.278c-1.392 0-2.212-.849-2.212-2.299v-15.455h-4.365c-1.201 0-2.007-.688-2.007-1.831s.791-1.831 2.007-1.831h13.169c1.201 0 1.992.689 1.992 1.831s-.806 1.831-1.992 1.831h-4.38v15.455c0 1.45-.82 2.299-2.212 2.299zm15.38.059c-4.908 0-7.793-3.032-7.793-8.115 0-5.054 2.944-8.262 7.588-8.262 4.453 0 7.441 3.047 7.441 7.31 0 1.186-.674 1.86-1.86 1.86h-8.965v.19c0 2.329 1.406 3.853 3.574 3.853 1.567 0 2.593-.527 3.75-1.89.454-.469.835-.63 1.392-.63.922 0 1.67.586 1.67 1.568 0 .337-.103.688-.293 1.04-1.041 1.933-3.472 3.076-6.504 3.076zm-3.545-9.829h6.665c-.088-2.051-1.407-3.384-3.282-3.384s-3.237 1.377-3.383 3.384zm16.434 9.8c-1.245 0-2.139-.762-2.139-2.227v-17.3c0-1.465.894-2.241 2.139-2.241 1.26 0 2.139.776 2.139 2.241v17.3c0 1.465-.879 2.227-2.139 2.227zm13.446.029c-4.907 0-7.793-3.032-7.793-8.115 0-5.054 2.945-8.262 7.588-8.262 4.453 0 7.442 3.047 7.442 7.31 0 1.186-.674 1.86-1.861 1.86h-8.965v.19c0 2.329 1.407 3.853 3.575 3.853 1.567 0 2.592-.527 3.75-1.89.454-.469.834-.63 1.391-.63.923 0 1.67.586 1.67 1.568 0 .337-.102.688-.293 1.04-1.04 1.933-3.472 3.076-6.504 3.076zm-3.545-9.829h6.665c-.088-2.051-1.406-3.384-3.281-3.384s-3.237 1.377-3.384 3.384zm16.332 15.088c-1.245 0-2.139-.762-2.139-2.227v-17.197c0-1.436.879-2.197 2.11-2.197s2.109.761 2.109 2.212v.849h.088c.85-1.846 2.593-2.988 4.863-2.988 3.985 0 6.431 3.032 6.431 8.1 0 5.054-2.432 8.101-6.357 8.101-2.286 0-4.043-1.113-4.878-2.886h-.088v6.006c0 1.465-.879 2.227-2.139 2.227zm5.596-8.789c2.138 0 3.486-1.802 3.486-4.659 0-2.841-1.348-4.672-3.486-4.672-2.095 0-3.472 1.86-3.472 4.672 0 2.842 1.377 4.659 3.472 4.659zm13.519 3.501c-1.245 0-2.139-.762-2.139-2.227v-17.344c0-1.377.791-2.197 2.11-2.197s2.095.82 2.095 2.197v6.358h.087c.835-1.978 2.549-3.091 4.937-3.091 3.486 0 5.478 2.256 5.478 5.889v8.188c0 1.465-.878 2.227-2.138 2.227-1.245 0-2.139-.762-2.139-2.227v-7.28c0-2.022-.996-3.252-2.944-3.252-2.022 0-3.208 1.421-3.208 3.486v7.046c0 1.465-.879 2.227-2.139 2.227zm23.715.029c-4.746 0-7.779-3.047-7.779-8.203 0-5.083 3.077-8.174 7.779-8.174s7.778 3.076 7.778 8.174c0 5.171-3.032 8.203-7.778 8.203zm0-3.267c2.095 0 3.428-1.772 3.428-4.922 0-3.12-1.348-4.921-3.428-4.921s-3.443 1.801-3.443 4.921c0 3.15 1.333 4.922 3.443 4.922zm13.329 3.238c-1.245 0-2.139-.762-2.139-2.227v-11.953c0-1.333.776-2.153 2.065-2.153s2.139.82 2.139 2.168v.878h.088c.835-1.948 2.417-3.017 4.834-3.017 3.486 0 5.449 2.197 5.449 5.874v8.203c0 1.465-.893 2.227-2.138 2.227-1.26 0-2.139-.762-2.139-2.227v-7.31c0-2.05-.967-3.222-2.886-3.222s-3.135 1.406-3.135 3.442v7.09c0 1.465-.879 2.227-2.138 2.227zm23.568.029c-4.907 0-7.793-3.032-7.793-8.115 0-5.054 2.944-8.262 7.588-8.262 4.453 0 7.441 3.047 7.441 7.31 0 1.186-.674 1.86-1.86 1.86h-8.965v.19c0 2.329 1.406 3.853 3.574 3.853 1.568 0 2.593-.527 3.75-1.89.454-.469.835-.63 1.392-.63.923 0 1.67.586 1.67 1.568 0 .337-.103.688-.293 1.04-1.04 1.933-3.472 3.076-6.504 3.076zm-3.545-9.829h6.665c-.088-2.051-1.406-3.384-3.281-3.384s-3.238 1.377-3.384 3.384z" class="B"/><rect x="480.5" y="940.5" width="229" height="81" rx="8.5" class="F"/><rect x="480.5" y="940.5" width="229" height="81" rx="8.5" class="G"/><path d="M525.132 992c-1.391 0-2.212-.85-2.212-2.314v-16.524c0-1.45.821-2.3 2.212-2.3h10.049c1.216 0 2.007.689 2.007 1.831s-.806 1.831-2.007 1.831h-7.837v5.083h7.456c1.099 0 1.846.645 1.846 1.7s-.733 1.699-1.846 1.699h-7.456v5.332h7.837c1.201 0 2.007.688 2.007 1.831s-.791 1.831-2.007 1.831h-10.049zm17.958.308c-1.274 0-2.139-.777-2.139-2.227v-11.924c0-1.435.85-2.182 2.066-2.182s2.065.747 2.065 2.182v.982h.088c.659-1.89 2.344-3.135 4.483-3.135 2.27 0 3.852 1.172 4.379 3.223h.088c.703-1.978 2.578-3.223 4.878-3.223 3.076 0 5.142 2.109 5.142 5.273v8.804c0 1.45-.879 2.227-2.153 2.227-1.26 0-2.125-.777-2.125-2.227v-7.734c0-1.817-.908-2.813-2.563-2.813-1.626 0-2.695 1.187-2.695 2.93v7.617c0 1.45-.791 2.227-2.066 2.227-1.259 0-2.051-.777-2.051-2.227v-7.866c0-1.685-.952-2.681-2.534-2.681-1.626 0-2.724 1.231-2.724 2.988v7.559c0 1.45-.879 2.227-2.139 2.227zm29.603-.059c-2.988 0-5.258-1.934-5.258-4.761 0-2.856 2.197-4.511 6.123-4.746l3.955-.234v-1.04c0-1.465-1.026-2.315-2.637-2.315-1.304 0-2.095.425-3.047 1.656-.469.527-1.011.791-1.699.791-1.04 0-1.787-.674-1.787-1.641 0-.337.073-.645.219-.967.733-1.875 3.252-3.032 6.504-3.032 4.029 0 6.651 2.08 6.651 5.244v8.95c0 1.421-.864 2.154-2.08 2.154-1.158 0-1.963-.645-2.051-1.905v-.805h-.088c-.879 1.67-2.842 2.651-4.805 2.651zm1.407-3.091c1.875 0 3.413-1.216 3.413-2.915v-1.142l-3.311.205c-1.597.117-2.505.835-2.505 1.948 0 1.172.967 1.904 2.403 1.904zm13.797-14.809c-1.289 0-2.285-.982-2.285-2.212 0-1.245.996-2.212 2.285-2.212s2.285.967 2.285 2.212c0 1.23-.996 2.212-2.285 2.212zm0 17.959c-1.333 0-2.138-.835-2.138-2.227v-11.865c0-1.392.805-2.241 2.138-2.241 1.319 0 2.139.849 2.139 2.241v11.865c0 1.392-.82 2.227-2.139 2.227zm8.437 0c-1.246 0-2.139-.762-2.139-2.227v-17.3c0-1.465.893-2.241 2.139-2.241 1.259 0 2.138.776 2.138 2.241v17.3c0 1.465-.879 2.227-2.138 2.227zm15.949-.308c-1.391 0-2.212-.85-2.212-2.314v-16.802c0-1.465.821-2.315 2.212-2.315s2.212.85 2.212 2.315v15.454h7.5c1.201 0 2.007.688 2.007 1.831s-.791 1.831-2.007 1.831h-9.712zm17.123-17.651c-1.289 0-2.285-.982-2.285-2.212 0-1.245.996-2.212 2.285-2.212s2.285.967 2.285 2.212c0 1.23-.996 2.212-2.285 2.212zm0 17.959c-1.333 0-2.138-.835-2.138-2.227v-11.865c0-1.392.805-2.241 2.138-2.241 1.319 0 2.139.849 2.139 2.241v11.865c0 1.392-.82 2.227-2.139 2.227zm8.334 0c-1.245 0-2.139-.762-2.139-2.227v-11.953c0-1.333.777-2.153 2.066-2.153s2.138.82 2.138 2.168v.878h.088c.835-1.948 2.417-3.017 4.834-3.017 3.487 0 5.45 2.197 5.45 5.874v8.203c0 1.465-.894 2.227-2.139 2.227-1.26 0-2.139-.762-2.139-2.227v-7.31c0-2.05-.967-3.222-2.886-3.222s-3.134 1.406-3.134 3.442v7.09c0 1.465-.879 2.227-2.139 2.227zm18.588 0c-1.245 0-2.139-.762-2.139-2.227v-17.3c0-1.465.894-2.241 2.139-2.241 1.259 0 2.138.776 2.138 2.241v9.741h.059l5.684-5.698c.571-.6 1.054-.849 1.699-.849 1.098 0 1.904.805 1.904 1.86 0 .644-.19 1.04-.806 1.611l-3.999 3.78 4.38 5.581c.469.63.601 1.01.601 1.567 0 1.143-.835 1.934-2.036 1.934-.908 0-1.421-.323-2.095-1.333l-4.028-5.332-1.363 1.259v3.179c0 1.465-.879 2.227-2.138 2.227z" class="B"/><rect x="728.5" y="940.5" width="238" height="81" rx="8.5" class="F"/><rect x="728.5" y="940.5" width="238" height="81" rx="8.5" class="G"/><path d="M778.204 992.278c-1.392 0-2.212-.849-2.212-2.299v-15.455h-4.366c-1.201 0-2.006-.688-2.006-1.831s.791-1.831 2.006-1.831h13.169c1.201 0 1.992.689 1.992 1.831s-.805 1.831-1.992 1.831h-4.38v15.455c0 1.45-.82 2.299-2.211 2.299zm13.153-17.929c-1.289 0-2.286-.982-2.286-2.212 0-1.245.997-2.212 2.286-2.212s2.285.967 2.285 2.212c0 1.23-.996 2.212-2.285 2.212zm0 17.959c-1.333 0-2.139-.835-2.139-2.227v-11.865c0-1.392.806-2.241 2.139-2.241 1.318 0 2.138.849 2.138 2.241v11.865c0 1.392-.82 2.227-2.138 2.227zm8.333 0c-1.274 0-2.138-.777-2.138-2.227v-11.924c0-1.435.849-2.182 2.065-2.182s2.066.747 2.066 2.182v.982h.088c.659-1.89 2.343-3.135 4.482-3.135 2.27 0 3.852 1.172 4.38 3.223h.088c.703-1.978 2.578-3.223 4.878-3.223 3.076 0 5.141 2.109 5.141 5.273v8.804c0 1.45-.879 2.227-2.153 2.227-1.26 0-2.124-.777-2.124-2.227v-7.734c0-1.817-.908-2.813-2.564-2.813-1.626 0-2.695 1.187-2.695 2.93v7.617c0 1.45-.791 2.227-2.065 2.227-1.26 0-2.051-.777-2.051-2.227v-7.866c0-1.685-.952-2.681-2.534-2.681-1.626 0-2.725 1.231-2.725 2.988v7.559c0 1.45-.879 2.227-2.139 2.227zm32.182.029c-4.907 0-7.793-3.032-7.793-8.115 0-5.054 2.944-8.262 7.588-8.262 4.453 0 7.441 3.047 7.441 7.31 0 1.186-.674 1.86-1.86 1.86h-8.965v.19c0 2.329 1.406 3.853 3.574 3.853 1.568 0 2.593-.527 3.75-1.89.454-.469.835-.63 1.392-.63.923 0 1.67.586 1.67 1.568 0 .337-.103.688-.293 1.04-1.04 1.933-3.472 3.076-6.504 3.076zm-3.545-9.829h6.665c-.088-2.051-1.406-3.384-3.281-3.384s-3.238 1.377-3.384 3.384zm28.972 9.77c-1.391 0-2.212-.849-2.212-2.299v-15.455h-4.365c-1.201 0-2.007-.688-2.007-1.831s.791-1.831 2.007-1.831h13.169c1.201 0 1.992.689 1.992 1.831s-.805 1.831-1.992 1.831h-4.38v15.455c0 1.45-.82 2.299-2.212 2.299zm12.655-.029c-2.988 0-5.258-1.934-5.258-4.761 0-2.856 2.197-4.511 6.123-4.746l3.955-.234v-1.04c0-1.465-1.026-2.315-2.637-2.315-1.304 0-2.095.425-3.047 1.656-.469.527-1.011.791-1.699.791-1.04 0-1.787-.674-1.787-1.641 0-.337.073-.645.219-.967.733-1.875 3.252-3.032 6.504-3.032 4.029 0 6.651 2.08 6.651 5.244v8.95c0 1.421-.865 2.154-2.08 2.154-1.158 0-1.963-.645-2.051-1.905v-.805h-.088c-.879 1.67-2.842 2.651-4.805 2.651zm1.407-3.091c1.875 0 3.413-1.216 3.413-2.915v-1.142l-3.311.205c-1.597.117-2.505.835-2.505 1.948 0 1.172.967 1.904 2.403 1.904zm13.783 3.15c-1.231 0-2.095-.733-2.095-2.168v-17.359c0-1.465.893-2.241 2.139-2.241 1.259 0 2.138.776 2.138 2.241v6.24h.088c.864-1.86 2.622-2.973 4.849-2.973 3.969 0 6.386 3.032 6.386 8.1 0 5.054-2.402 8.101-6.372 8.101-2.299 0-4.043-1.113-4.922-2.944h-.087v.835c0 1.421-.879 2.168-2.124 2.168zm5.668-3.501c2.125 0 3.458-1.787 3.458-4.659 0-2.856-1.333-4.672-3.458-4.672-2.08 0-3.5 1.86-3.5 4.672 0 2.842 1.42 4.659 3.5 4.659zm13.505 3.501c-1.245 0-2.138-.762-2.138-2.227v-17.3c0-1.465.893-2.241 2.138-2.241 1.26 0 2.139.776 2.139 2.241v17.3c0 1.465-.879 2.227-2.139 2.227zm13.446.029c-4.907 0-7.793-3.032-7.793-8.115 0-5.054 2.945-8.262 7.588-8.262 4.453 0 7.442 3.047 7.442 7.31 0 1.186-.674 1.86-1.861 1.86h-8.965v.19c0 2.329 1.407 3.853 3.575 3.853 1.567 0 2.592-.527 3.75-1.89.454-.469.835-.63 1.391-.63.923 0 1.67.586 1.67 1.568 0 .337-.102.688-.293 1.04-1.04 1.933-3.471 3.076-6.504 3.076zm-3.545-9.829h6.665c-.087-2.051-1.406-3.384-3.281-3.384s-3.237 1.377-3.384 3.384z" class="B"/><rect x="199.5" y="755.5" width="334" height="81" rx="8.5" fill="#d7fcd1"/><rect x="199.5" y="755.5" width="334" height="81" rx="8.5" stroke="#2fd5b4"/><path d="M249.555 807.352c-4.365 0-7.163-1.744-8.013-4.058-.146-.381-.234-.791-.234-1.187 0-1.171.806-1.948 1.948-1.948.908 0 1.509.352 2.036 1.289.689 1.612 2.344 2.344 4.366 2.344 2.373 0 3.984-1.143 3.984-2.695 0-1.392-.996-2.183-3.647-2.725l-2.242-.439c-4.218-.835-6.284-2.857-6.284-6.006 0-3.867 3.369-6.431 8.071-6.431 3.868 0 6.783 1.626 7.72 4.38a2.86 2.86 0 0 1 .161.981c0 1.055-.761 1.773-1.889 1.773-.996 0-1.612-.396-2.11-1.304-.703-1.597-2.065-2.256-3.882-2.256-2.182 0-3.632 1.026-3.632 2.578 0 1.304 1.01 2.11 3.515 2.608l2.227.454c4.482.894 6.416 2.695 6.416 5.903 0 4.131-3.237 6.739-8.511 6.739zm14.266-18.003c-1.289 0-2.285-.982-2.285-2.212 0-1.245.996-2.212 2.285-2.212s2.286.967 2.286 2.212c0 1.23-.996 2.212-2.286 2.212zm0 17.959c-1.333 0-2.138-.835-2.138-2.227v-11.865c0-1.392.805-2.241 2.138-2.241 1.319 0 2.139.849 2.139 2.241v11.865c0 1.392-.82 2.227-2.139 2.227zm7.338-4.322v-8.466h-.82c-1.011 0-1.655-.616-1.655-1.612s.644-1.611 1.655-1.611h.82v-1.743c0-1.377.806-2.227 2.139-2.227s2.139.85 2.139 2.227v1.743h1.508c1.011 0 1.641.63 1.641 1.611s-.63 1.612-1.641 1.612h-1.508v7.514c0 1.113.38 1.582 1.303 1.655l.279.03c1.054.117 1.626.556 1.626 1.552 0 1.26-1.231 1.905-3.033 1.905h-.146c-2.857 0-4.307-1.421-4.307-4.19zm17.709 4.351c-4.907 0-7.793-3.032-7.793-8.115 0-5.054 2.944-8.262 7.588-8.262 4.453 0 7.441 3.047 7.441 7.31 0 1.186-.674 1.86-1.86 1.86h-8.965v.19c0 2.329 1.406 3.853 3.574 3.853 1.568 0 2.593-.527 3.75-1.89.454-.469.835-.63 1.392-.63.923 0 1.67.586 1.67 1.568 0 .337-.103.688-.293 1.04-1.04 1.933-3.472 3.076-6.504 3.076zm-3.545-9.829h6.665c-.088-2.051-1.406-3.384-3.281-3.384s-3.237 1.377-3.384 3.384zm31.126 9.844c-6.27 0-10.078-4.102-10.078-10.928 0-6.812 3.881-10.928 9.96-10.928 3.956 0 7.017 1.758 8.467 4.805.293.556.44 1.128.44 1.655 0 1.157-.777 1.904-1.949 1.904-.996 0-1.626-.439-2.109-1.464-.967-2.154-2.695-3.238-4.805-3.238-3.339 0-5.493 2.798-5.493 7.251 0 4.512 2.124 7.295 5.508 7.295 2.227 0 3.897-1.011 4.849-3.135.454-.996 1.01-1.391 1.948-1.391 1.245 0 2.065.791 2.065 1.963 0 .498-.117.966-.337 1.479-1.318 2.93-4.467 4.732-8.466 4.732zm20.008-.015c-4.746 0-7.778-3.047-7.778-8.203 0-5.083 3.076-8.174 7.778-8.174s7.779 3.076 7.779 8.174c0 5.171-3.033 8.203-7.779 8.203zm0-3.267c2.095 0 3.428-1.772 3.428-4.922 0-3.12-1.348-4.921-3.428-4.921s-3.442 1.801-3.442 4.921c0 3.15 1.333 4.922 3.442 4.922zm13.329 3.238c-1.274 0-2.139-.777-2.139-2.227v-11.924c0-1.435.85-2.182 2.066-2.182s2.065.747 2.065 2.182v.982h.088c.659-1.89 2.344-3.135 4.483-3.135 2.27 0 3.852 1.172 4.38 3.223h.087c.704-1.978 2.579-3.223 4.878-3.223 3.077 0 5.142 2.109 5.142 5.273v8.804c0 1.45-.879 2.227-2.153 2.227-1.26 0-2.124-.777-2.124-2.227v-7.734c0-1.817-.909-2.813-2.564-2.813-1.626 0-2.695 1.187-2.695 2.93v7.617c0 1.45-.791 2.227-2.066 2.227-1.259 0-2.05-.777-2.05-2.227v-7.866c0-1.685-.953-2.681-2.535-2.681-1.626 0-2.724 1.231-2.724 2.988v7.559c0 1.45-.879 2.227-2.139 2.227zm27.099 5.288c-1.246 0-2.139-.762-2.139-2.227v-17.197c0-1.436.879-2.197 2.109-2.197s2.11.761 2.11 2.212v.849h.088c.849-1.846 2.592-2.988 4.863-2.988 3.984 0 6.43 3.032 6.43 8.1 0 5.054-2.431 8.101-6.357 8.101-2.285 0-4.043-1.113-4.878-2.886h-.088v6.006c0 1.465-.879 2.227-2.138 2.227zm5.595-8.789c2.139 0 3.487-1.802 3.487-4.659 0-2.841-1.348-4.672-3.487-4.672-2.094 0-3.471 1.86-3.471 4.672 0 2.842 1.377 4.659 3.471 4.659zm18.485 3.53c-4.746 0-7.778-3.047-7.778-8.203 0-5.083 3.076-8.174 7.778-8.174s7.779 3.076 7.779 8.174c0 5.171-3.032 8.203-7.779 8.203zm0-3.267c2.095 0 3.428-1.772 3.428-4.922 0-3.12-1.347-4.921-3.428-4.921s-3.442 1.801-3.442 4.921c0 3.15 1.333 4.922 3.442 4.922zm13.329 3.238c-1.245 0-2.138-.762-2.138-2.227v-11.953c0-1.333.776-2.153 2.065-2.153s2.139.82 2.139 2.168v.878h.088c.835-1.948 2.417-3.017 4.834-3.017 3.486 0 5.449 2.197 5.449 5.874v8.203c0 1.465-.894 2.227-2.139 2.227-1.26 0-2.138-.762-2.138-2.227v-7.31c0-2.05-.967-3.222-2.886-3.222s-3.135 1.406-3.135 3.442v7.09c0 1.465-.879 2.227-2.139 2.227zm23.568.029c-4.907 0-7.792-3.032-7.792-8.115 0-5.054 2.944-8.262 7.587-8.262 4.454 0 7.442 3.047 7.442 7.31 0 1.186-.674 1.86-1.861 1.86h-8.964v.19c0 2.329 1.406 3.853 3.574 3.853 1.567 0 2.593-.527 3.75-1.89.454-.469.835-.63 1.391-.63.923 0 1.67.586 1.67 1.568 0 .337-.102.688-.293 1.04-1.04 1.933-3.471 3.076-6.504 3.076zm-3.544-9.829h6.665c-.088-2.051-1.407-3.384-3.282-3.384s-3.237 1.377-3.383 3.384zm16.331 9.8c-1.245 0-2.138-.762-2.138-2.227v-11.953c0-1.333.776-2.153 2.065-2.153s2.139.82 2.139 2.168v.878h.088c.835-1.948 2.417-3.017 4.834-3.017 3.486 0 5.449 2.197 5.449 5.874v8.203c0 1.465-.894 2.227-2.139 2.227-1.259 0-2.138-.762-2.138-2.227v-7.31c0-2.05-.967-3.222-2.886-3.222s-3.135 1.406-3.135 3.442v7.09c0 1.465-.879 2.227-2.139 2.227zm17.489-4.322v-8.466h-.82c-1.011 0-1.655-.616-1.655-1.612s.644-1.611 1.655-1.611h.82v-1.743c0-1.377.806-2.227 2.139-2.227s2.139.85 2.139 2.227v1.743h1.509c1.01 0 1.64.63 1.64 1.611s-.63 1.612-1.64 1.612h-1.509v7.514c0 1.113.381 1.582 1.304 1.655l.278.03c1.055.117 1.626.556 1.626 1.552 0 1.26-1.231 1.905-3.032 1.905h-.147c-2.856 0-4.307-1.421-4.307-4.19zm17.123 4.351c-3.603 0-6.006-1.289-6.753-3.135-.102-.278-.161-.556-.161-.791 0-.981.733-1.64 1.729-1.64.688 0 1.274.307 1.86.966.835 1.099 1.802 1.597 3.428 1.597 1.553 0 2.563-.645 2.563-1.685 0-.849-.542-1.303-2.08-1.64l-2.636-.557c-3.077-.659-4.629-2.226-4.629-4.556 0-3.002 2.592-4.936 6.665-4.936 3.252 0 5.639 1.479 6.152 3.252.059.22.103.425.103.63 0 .864-.542 1.465-1.641 1.465-.557 0-1.172-.205-1.553-.66-.747-.952-1.596-1.684-3.135-1.684-1.45 0-2.461.688-2.461 1.699 0 .82.616 1.362 2.183 1.699l2.593.557c3.34.703 4.717 1.934 4.717 4.277 0 3.12-2.798 5.142-6.944 5.142z" class="B"/><g stroke="#4a4a4a" stroke-width="3" class="J"><path d="M132 889h695m-695 48v-48m463 48v-48"/><path d="M345 937v-96m1031-93v-58M443 139v58.168M706 139v58.168M977 139v58.168M864 199v60m0 91v63m0 231v-60m394-445v58.168M1550 139v58.168"/></g><g transform="matrix(1 0 0 -1 669 730)"><rect x="-.5" y=".5" width="391" height="81" rx="8.5" fill="#ff9295"/><rect x="-.5" y=".5" width="391" height="81" rx="8.5" class="C"/></g><path d="M720.513 700.352c-6.27 0-10.078-4.102-10.078-10.928 0-6.812 3.881-10.928 9.961-10.928 3.955 0 7.016 1.758 8.466 4.805.293.556.44 1.128.44 1.655 0 1.157-.777 1.904-1.948 1.904-.997 0-1.626-.439-2.11-1.464-.967-2.154-2.695-3.238-4.805-3.238-3.339 0-5.493 2.798-5.493 7.251 0 4.512 2.124 7.295 5.508 7.295 2.227 0 3.897-1.011 4.849-3.135.454-.996 1.01-1.391 1.948-1.391 1.245 0 2.065.791 2.065 1.963 0 .498-.117.966-.337 1.479-1.318 2.93-4.467 4.732-8.466 4.732zm22.03 0c-5.42 0-8.863-3.164-8.863-7.823v-11.645c0-1.465.821-2.315 2.212-2.315s2.212.85 2.212 2.315v11.206c0 2.71 1.597 4.482 4.439 4.482 2.827 0 4.424-1.772 4.424-4.482v-11.206c0-1.465.82-2.315 2.212-2.315s2.211.85 2.211 2.315v11.645c0 4.659-3.442 7.823-8.847 7.823zm21.312 0c-4.365 0-7.163-1.744-8.013-4.058-.146-.381-.234-.791-.234-1.187 0-1.171.806-1.948 1.948-1.948.908 0 1.509.352 2.036 1.289.689 1.612 2.344 2.344 4.366 2.344 2.373 0 3.984-1.143 3.984-2.695 0-1.392-.996-2.183-3.647-2.725l-2.242-.439c-4.218-.835-6.284-2.857-6.284-6.006 0-3.867 3.369-6.431 8.071-6.431 3.868 0 6.783 1.626 7.72 4.38a2.86 2.86 0 0 1 .161.981c0 1.055-.761 1.773-1.889 1.773-.996 0-1.612-.396-2.11-1.304-.703-1.597-2.065-2.256-3.882-2.256-2.182 0-3.632 1.026-3.632 2.578 0 1.304 1.01 2.11 3.515 2.608l2.227.454c4.482.894 6.416 2.695 6.416 5.903 0 4.131-3.237 6.739-8.511 6.739zm19.686-.074c-1.391 0-2.212-.849-2.212-2.299v-15.455h-4.365c-1.201 0-2.007-.688-2.007-1.831s.791-1.831 2.007-1.831h13.169c1.201 0 1.992.689 1.992 1.831s-.805 1.831-1.992 1.831h-4.38v15.455c0 1.45-.82 2.299-2.212 2.299zm20.346.074c-6.27 0-10.195-4.19-10.195-10.914 0-6.738 3.925-10.942 10.195-10.942 6.255 0 10.195 4.204 10.195 10.942 0 6.724-3.94 10.914-10.195 10.914zm0-3.692c3.457 0 5.669-2.798 5.669-7.222 0-4.438-2.212-7.25-5.669-7.25s-5.684 2.812-5.684 7.25c0 4.424 2.212 7.222 5.684 7.222zm16.229 3.618c-1.245 0-1.977-.761-1.977-2.065v-16.787c0-1.787 1.054-2.857 2.856-2.857 1.538 0 2.388.645 3.032 2.285l5.244 12.994h.118l5.229-12.994c.645-1.625 1.509-2.285 3.062-2.285 1.787 0 2.841 1.055 2.841 2.857v16.787c0 1.304-.732 2.065-1.977 2.065s-1.963-.761-1.963-2.065v-12.481h-.117l-5.23 12.789c-.38.937-.966 1.347-1.889 1.347-.938 0-1.553-.425-1.919-1.333l-5.23-12.803h-.117v12.481c0 1.304-.718 2.065-1.963 2.065zm27.333-.278c-1.392 0-2.212-.85-2.212-2.314v-16.524c0-1.45.82-2.3 2.212-2.3h10.049c1.216 0 2.007.689 2.007 1.831s-.806 1.831-2.007 1.831h-7.837v5.083h7.456c1.099 0 1.846.645 1.846 1.7s-.733 1.699-1.846 1.699h-7.456v5.332h7.837c1.201 0 2.007.688 2.007 1.831s-.791 1.831-2.007 1.831h-10.049zm18.397.308c-1.377 0-2.212-.85-2.212-2.3v-16.846c0-1.45.821-2.3 2.212-2.3h6.446c4.863 0 7.646 2.564 7.646 6.739 0 2.636-1.304 4.892-3.633 5.888l3.047 5.274c.366.63.469 1.01.469 1.523 0 1.172-.938 2.022-2.227 2.022-1.054 0-1.538-.381-2.256-1.67l-3.515-6.372h-3.765v5.742c0 1.45-.82 2.3-2.212 2.3zm2.212-11.25h3.809c2.226 0 3.53-1.275 3.53-3.37 0-2.05-1.377-3.369-3.574-3.369h-3.765v6.739zm30.877 11.294c-4.365 0-7.163-1.744-8.013-4.058-.146-.381-.234-.791-.234-1.187 0-1.171.805-1.948 1.948-1.948.908 0 1.509.352 2.036 1.289.689 1.612 2.344 2.344 4.365 2.344 2.373 0 3.985-1.143 3.985-2.695 0-1.392-.996-2.183-3.648-2.725l-2.241-.439c-4.219-.835-6.284-2.857-6.284-6.006 0-3.867 3.369-6.431 8.071-6.431 3.867 0 6.782 1.626 7.72 4.38.102.293.161.601.161.981 0 1.055-.762 1.773-1.89 1.773-.996 0-1.611-.396-2.109-1.304-.703-1.597-2.065-2.256-3.882-2.256-2.182 0-3.633 1.026-3.633 2.578 0 1.304 1.011 2.11 3.516 2.608l2.226.454c4.483.894 6.417 2.695 6.417 5.903 0 4.131-3.238 6.739-8.511 6.739zm14.632-.352c-1.391 0-2.212-.85-2.212-2.314v-16.524c0-1.45.821-2.3 2.212-2.3h10.049c1.216 0 2.007.689 2.007 1.831s-.806 1.831-2.007 1.831h-7.837v5.083h7.456c1.099 0 1.846.645 1.846 1.7s-.732 1.699-1.846 1.699h-7.456v5.332h7.837c1.201 0 2.007.688 2.007 1.831s-.791 1.831-2.007 1.831h-10.049zm18.398.308c-1.377 0-2.212-.85-2.212-2.3v-16.846c0-1.45.82-2.3 2.212-2.3h6.445c4.863 0 7.646 2.564 7.646 6.739 0 2.636-1.303 4.892-3.632 5.888l3.047 5.274c.366.63.468 1.01.468 1.523 0 1.172-.937 2.022-2.226 2.022-1.055 0-1.538-.381-2.256-1.67l-3.516-6.372h-3.764v5.742c0 1.45-.821 2.3-2.212 2.3zm2.212-11.25h3.808c2.227 0 3.53-1.275 3.53-3.37 0-2.05-1.377-3.369-3.574-3.369h-3.764v6.739zm24.168 11.22c-1.728 0-2.754-.761-3.398-2.563l-5.889-15.806c-.146-.41-.22-.82-.22-1.245 0-1.245.938-2.095 2.33-2.095 1.186 0 1.889.542 2.255 1.743l4.952 15.132h.102l4.937-15.175c.366-1.187 1.025-1.7 2.182-1.7 1.348 0 2.271.835 2.271 2.036 0 .396-.073.791-.22 1.187l-5.918 15.937c-.644 1.788-1.67 2.549-3.384 2.549zm15.365 0c-1.391 0-2.212-.849-2.212-2.299v-17.095c0-1.465.821-2.315 2.212-2.315s2.212.85 2.212 2.315v17.095c0 1.45-.82 2.299-2.212 2.299zm16.347.074c-6.27 0-10.078-4.102-10.078-10.928 0-6.812 3.882-10.928 9.961-10.928 3.955 0 7.016 1.758 8.466 4.805.293.556.44 1.128.44 1.655 0 1.157-.776 1.904-1.948 1.904-.996 0-1.626-.439-2.11-1.464-.967-2.154-2.695-3.238-4.804-3.238-3.34 0-5.494 2.798-5.494 7.251 0 4.512 2.124 7.295 5.508 7.295 2.227 0 3.897-1.011 4.849-3.135.454-.996 1.011-1.391 1.948-1.391 1.245 0 2.066.791 2.066 1.963 0 .498-.118.966-.337 1.479-1.319 2.93-4.468 4.732-8.467 4.732zm15.383-.352c-1.4 0-2.22-.85-2.22-2.314v-16.524c0-1.45.82-2.3 2.22-2.3h10.05c1.21 0 2 .689 2 1.831s-.8 1.831-2 1.831h-7.84v5.083h7.45c1.1 0 1.85.645 1.85 1.7s-.73 1.699-1.85 1.699h-7.45v5.332h7.84c1.2 0 2 .688 2 1.831s-.79 1.831-2 1.831h-10.05z" class="E"/><rect x="54.5" y="54.5" width="216" height="81" rx="8.5" class="D"/><rect x="54.5" y="54.5" width="216" height="81" rx="8.5" class="C"/><use xlink:href="#B" class="B"/><rect x="339.5" y="54.5" width="208" height="81" rx="8.5" class="D"/><rect x="339.5" y="54.5" width="208" height="81" rx="8.5" class="C"/><use xlink:href="#C" class="B"/><rect x="616.5" y="54.5" width="180" height="81" rx="8.5" class="D"/><rect x="616.5" y="54.5" width="180" height="81" rx="8.5" class="C"/><use xlink:href="#D" class="B"/><rect x="865.5" y="54.5" width="223" height="81" rx="8.5" class="D"/><rect x="865.5" y="54.5" width="223" height="81" rx="8.5" class="C"/><use xlink:href="#E" class="B"/><rect x="1157.5" y="54.5" width="201" height="81" rx="8.5" class="D"/><rect x="1157.5" y="54.5" width="201" height="81" rx="8.5" class="C"/><use xlink:href="#F" class="B"/><rect x="1427.5" y="54.5" width="246" height="81" rx="8.5" class="D"/><rect x="1427.5" y="54.5" width="246" height="81" rx="8.5" class="C"/><use xlink:href="#G" class="B"/><defs ><path id="B" d="M98.241 106.278c-1.377 0-2.241-.805-2.241-2.08 0-.366.102-.864.293-1.406l5.772-15.718c.615-1.714 1.655-2.505 3.325-2.505 1.728 0 2.754.762 3.384 2.49l5.8 15.732c.205.571.279.967.279 1.406 0 1.216-.923 2.08-2.212 2.08-1.245 0-1.904-.571-2.3-1.948l-1.113-3.34h-7.632l-1.113 3.296c-.411 1.406-1.07 1.992-2.242 1.992zm4.322-8.716h5.639l-2.798-8.657h-.102l-2.739 8.657zm18.016 8.746c-1.23 0-2.095-.733-2.095-2.168V86.781c0-1.465.894-2.241 2.139-2.241 1.26 0 2.139.776 2.139 2.241v6.24h.088c.864-1.86 2.622-2.974 4.848-2.974 3.97 0 6.387 3.032 6.387 8.1 0 5.054-2.402 8.101-6.372 8.101-2.3 0-4.043-1.113-4.922-2.944h-.088v.835c0 1.421-.879 2.168-2.124 2.168zm5.669-3.501c2.124 0 3.457-1.787 3.457-4.659 0-2.856-1.333-4.673-3.457-4.673-2.08 0-3.501 1.86-3.501 4.673 0 2.842 1.421 4.659 3.501 4.659zm18.471 3.53c-4.747 0-7.779-3.047-7.779-8.203 0-5.083 3.076-8.174 7.779-8.174s7.778 3.076 7.778 8.174c0 5.171-3.032 8.203-7.778 8.203zm0-3.267c2.094 0 3.427-1.772 3.427-4.922 0-3.12-1.347-4.922-3.427-4.922s-3.443 1.802-3.443 4.922c0 3.15 1.333 4.922 3.443 4.922zm16.771 3.223c-3.399 0-5.654-2.212-5.654-5.874v-8.203c0-1.465.893-2.241 2.138-2.241 1.26 0 2.139.776 2.139 2.241v7.31c0 2.095 1.04 3.208 2.93 3.208 1.904 0 3.09-1.362 3.09-3.442v-7.075c0-1.465.894-2.241 2.139-2.241 1.26 0 2.139.776 2.139 2.241v11.924c0 1.421-.835 2.168-2.066 2.168s-2.065-.747-2.065-2.168v-.967h-.088c-.776 1.977-2.329 3.12-4.702 3.12zm14.047-4.307V93.52h-.821c-1.011 0-1.655-.615-1.655-1.611s.644-1.611 1.655-1.611h.821v-1.743c0-1.377.805-2.227 2.138-2.227s2.139.85 2.139 2.227v1.743h1.509c1.01 0 1.64.63 1.64 1.611s-.63 1.611-1.64 1.611h-1.509v7.515c0 1.113.381 1.582 1.304 1.655l.278.03c1.055.117 1.626.556 1.626 1.552 0 1.26-1.231 1.905-3.032 1.905h-.147c-2.856 0-4.306-1.421-4.306-4.19zm27.097 4.366c-5.42 0-8.863-3.164-8.863-7.823V86.884c0-1.465.821-2.314 2.212-2.314s2.212.85 2.212 2.314V98.09c0 2.71 1.597 4.482 4.439 4.482 2.827 0 4.424-1.772 4.424-4.482V86.884c0-1.465.82-2.314 2.212-2.314s2.211.85 2.211 2.314v11.646c0 4.659-3.442 7.823-8.847 7.823zm19.613-.015c-3.604 0-6.006-1.289-6.753-3.135-.103-.278-.161-.556-.161-.791 0-.981.732-1.64 1.728-1.64.689 0 1.275.307 1.861.966.835 1.099 1.801 1.597 3.427 1.597 1.553 0 2.564-.645 2.564-1.685 0-.849-.542-1.303-2.08-1.64l-2.637-.557c-3.076-.659-4.629-2.227-4.629-4.556 0-3.003 2.593-4.937 6.665-4.937 3.252 0 5.64 1.48 6.153 3.252a2.48 2.48 0 0 1 .102.63c0 .864-.542 1.465-1.641 1.465-.556 0-1.171-.205-1.552-.659-.747-.952-1.597-1.685-3.135-1.685-1.45 0-2.461.688-2.461 1.699 0 .82.615 1.362 2.183 1.699l2.592.557c3.34.703 4.717 1.934 4.717 4.277 0 3.12-2.798 5.142-6.943 5.142z"/><path id="C" d="M389.744 106.352c-4.365 0-7.163-1.744-8.012-4.058-.147-.381-.235-.791-.235-1.187 0-1.171.806-1.948 1.949-1.948.908 0 1.508.352 2.036 1.289.688 1.612 2.343 2.344 4.365 2.344 2.373 0 3.984-1.143 3.984-2.695 0-1.392-.996-2.183-3.647-2.725l-2.241-.44c-4.219-.835-6.285-2.856-6.285-6.006 0-3.867 3.37-6.431 8.072-6.431 3.867 0 6.782 1.626 7.719 4.38a2.86 2.86 0 0 1 .162.981c0 1.055-.762 1.773-1.89 1.773-.996 0-1.611-.396-2.109-1.304-.704-1.597-2.066-2.256-3.882-2.256-2.183 0-3.633 1.025-3.633 2.578 0 1.304 1.011 2.109 3.515 2.608l2.227.454c4.482.894 6.416 2.695 6.416 5.903 0 4.131-3.237 6.739-8.511 6.739zm19.277-.015c-4.908 0-7.793-3.032-7.793-8.115 0-5.054 2.944-8.262 7.587-8.262 4.454 0 7.442 3.047 7.442 7.31 0 1.187-.674 1.86-1.861 1.86h-8.964v.19c0 2.329 1.406 3.853 3.574 3.853 1.567 0 2.593-.527 3.75-1.89.454-.469.835-.63 1.391-.63.923 0 1.67.586 1.67 1.568 0 .337-.102.688-.293 1.04-1.04 1.933-3.471 3.076-6.503 3.076zm-3.545-9.829h6.665c-.088-2.051-1.407-3.384-3.282-3.384s-3.237 1.377-3.383 3.384zm16.331 9.8c-1.289 0-2.138-.806-2.138-2.227V92.128c0-1.362.835-2.153 2.065-2.153 1.201 0 2.022.791 2.022 2.153v1.025h.088c.41-1.948 1.699-3.105 3.266-3.105.571 0 1.026.132 1.333.395.41.322.615.85.615 1.582 0 .674-.205 1.186-.615 1.538s-1.025.542-1.86.557c-1.948.029-2.637 1.128-2.637 2.988v6.973c0 1.421-.835 2.227-2.139 2.227zm16.581 0c-1.64 0-2.519-.66-3.091-2.183l-4.086-10.957c-.132-.381-.235-.835-.235-1.274 0-1.157.923-1.919 2.139-1.919 1.04 0 1.728.557 2.051 1.714l3.178 10.532h.088l3.179-10.577c.293-1.128 1.011-1.67 2.007-1.67 1.186 0 2.08.82 2.08 1.904a3.72 3.72 0 0 1-.235 1.201l-4.086 11.045c-.542 1.509-1.436 2.183-2.989 2.183zm12.67-17.959c-1.289 0-2.285-.981-2.285-2.212 0-1.245.996-2.212 2.285-2.212s2.285.967 2.285 2.212c0 1.23-.996 2.212-2.285 2.212zm0 17.959c-1.333 0-2.139-.835-2.139-2.227V92.216c0-1.392.806-2.241 2.139-2.241 1.318 0 2.139.85 2.139 2.241v11.865c0 1.392-.821 2.227-2.139 2.227zm13.358.029c-4.731 0-7.734-3.106-7.734-8.189 0-5.024 2.988-8.188 7.705-8.188 3.149 0 5.771 1.523 6.621 3.75.146.366.234.747.234 1.055 0 1.055-.82 1.67-1.831 1.67-.849 0-1.362-.337-1.801-1.113-.777-1.377-1.729-2.007-3.091-2.007-2.168 0-3.501 1.787-3.501 4.819 0 3.091 1.333 4.848 3.471 4.848 1.495 0 2.417-.732 3.077-1.845.571-.894 1.04-1.26 1.948-1.26.996 0 1.802.659 1.802 1.714 0 .337-.088.688-.279 1.113-.937 2.139-3.618 3.633-6.621 3.633zm17.606 0c-4.907 0-7.793-3.032-7.793-8.115 0-5.054 2.945-8.262 7.588-8.262 4.454 0 7.442 3.047 7.442 7.31 0 1.187-.674 1.86-1.861 1.86h-8.964v.19c0 2.329 1.406 3.853 3.574 3.853 1.567 0 2.593-.527 3.75-1.89.454-.469.835-.63 1.391-.63.923 0 1.67.586 1.67 1.568 0 .337-.102.688-.293 1.04-1.04 1.933-3.471 3.076-6.504 3.076zm-3.544-9.829h6.665c-.088-2.051-1.407-3.384-3.282-3.384s-3.237 1.377-3.383 3.384zm20.594 9.829c-3.603 0-6.006-1.289-6.753-3.135-.102-.278-.161-.556-.161-.791 0-.981.732-1.64 1.729-1.64.688 0 1.274.307 1.86.966.835 1.099 1.802 1.597 3.428 1.597 1.552 0 2.563-.645 2.563-1.685 0-.849-.542-1.303-2.08-1.64l-2.637-.557c-3.076-.659-4.629-2.227-4.629-4.556 0-3.003 2.593-4.937 6.665-4.937 3.252 0 5.64 1.48 6.153 3.252a2.48 2.48 0 0 1 .102.63c0 .864-.542 1.465-1.64 1.465-.557 0-1.172-.205-1.553-.659-.747-.952-1.597-1.685-3.135-1.685-1.45 0-2.461.688-2.461 1.699 0 .82.615 1.362 2.183 1.699l2.593.557c3.339.703 4.716 1.934 4.716 4.277 0 3.12-2.797 5.142-6.943 5.142z"/><path id="D" d="M661.122 106c-1.392 0-2.212-.85-2.212-2.314V87.162c0-1.45.82-2.3 2.212-2.3h10.049c1.216 0 2.007.688 2.007 1.831s-.806 1.831-2.007 1.831h-7.837v5.083h7.456c1.099 0 1.846.645 1.846 1.699s-.733 1.699-1.846 1.699h-7.456v5.332h7.837c1.201 0 2.007.688 2.007 1.831s-.791 1.831-2.007 1.831h-10.049zm22.411.308c-1.641 0-2.52-.66-3.091-2.183l-4.087-10.957c-.132-.381-.234-.835-.234-1.274 0-1.157.923-1.919 2.139-1.919 1.04 0 1.728.557 2.05 1.714l3.179 10.532h.088l3.179-10.577c.293-1.128 1.01-1.67 2.007-1.67 1.186 0 2.08.82 2.08 1.904a3.72 3.72 0 0 1-.235 1.201l-4.087 11.045c-.542 1.509-1.435 2.183-2.988 2.183zm17.24.029c-4.907 0-7.793-3.032-7.793-8.115 0-5.054 2.944-8.262 7.588-8.262 4.453 0 7.441 3.047 7.441 7.31 0 1.187-.673 1.86-1.86 1.86h-8.965v.19c0 2.329 1.406 3.853 3.574 3.853 1.568 0 2.593-.527 3.75-1.89.455-.469.835-.63 1.392-.63.923 0 1.67.586 1.67 1.568 0 .337-.103.688-.293 1.04-1.04 1.933-3.472 3.076-6.504 3.076zm-3.545-9.829h6.665c-.088-2.051-1.406-3.384-3.281-3.384s-3.237 1.377-3.384 3.384zm16.332 9.8c-1.245 0-2.139-.762-2.139-2.227V92.128c0-1.333.777-2.153 2.066-2.153s2.138.82 2.138 2.168v.879h.088c.835-1.948 2.417-3.018 4.834-3.018 3.487 0 5.449 2.197 5.449 5.874v8.203c0 1.465-.893 2.227-2.138 2.227-1.26 0-2.139-.762-2.139-2.227v-7.309c0-2.051-.967-3.223-2.886-3.223s-3.134 1.406-3.134 3.442v7.09c0 1.465-.879 2.227-2.139 2.227zm17.489-4.322V93.52h-.82c-1.011 0-1.656-.615-1.656-1.611s.645-1.611 1.656-1.611h.82v-1.743c0-1.377.806-2.227 2.139-2.227s2.138.85 2.138 2.227v1.743h1.509c1.011 0 1.641.63 1.641 1.611s-.63 1.611-1.641 1.611h-1.509v7.515c0 1.113.381 1.582 1.304 1.655l.278.03c1.055.117 1.626.556 1.626 1.552 0 1.26-1.23 1.905-3.032 1.905h-.146c-2.857 0-4.307-1.421-4.307-4.19zm17.123 4.351c-3.604 0-6.006-1.289-6.753-3.135-.103-.278-.161-.556-.161-.791 0-.981.732-1.64 1.728-1.64.689 0 1.275.307 1.861.966.835 1.099 1.801 1.597 3.427 1.597 1.553 0 2.564-.645 2.564-1.685 0-.849-.542-1.303-2.08-1.64l-2.637-.557c-3.076-.659-4.629-2.227-4.629-4.556 0-3.003 2.593-4.937 6.665-4.937 3.252 0 5.64 1.48 6.153 3.252a2.48 2.48 0 0 1 .102.63c0 .864-.542 1.465-1.641 1.465-.556 0-1.171-.205-1.552-.659-.747-.952-1.597-1.685-3.135-1.685-1.45 0-2.461.688-2.461 1.699 0 .82.615 1.362 2.183 1.699l2.592.557c3.34.703 4.717 1.934 4.717 4.277 0 3.12-2.798 5.142-6.943 5.142z"/><path id="E" d="M916.346 106.278c-1.729 0-2.754-.761-3.399-2.563l-5.889-15.806a3.67 3.67 0 0 1-.219-1.245c0-1.245.937-2.095 2.329-2.095 1.186 0 1.889.542 2.256 1.743l4.951 15.132h.102l4.937-15.175c.366-1.187 1.025-1.699 2.182-1.699 1.348 0 2.271.835 2.271 2.036 0 .395-.073.791-.22 1.186l-5.918 15.937c-.644 1.788-1.67 2.549-3.383 2.549zm17.943.059c-4.746 0-7.779-3.047-7.779-8.203 0-5.083 3.077-8.174 7.779-8.174s7.778 3.076 7.778 8.174c0 5.171-3.032 8.203-7.778 8.203zm0-3.267c2.094 0 3.427-1.772 3.427-4.922 0-3.12-1.347-4.922-3.427-4.922s-3.443 1.802-3.443 4.922c0 3.15 1.333 4.922 3.443 4.922zm13.431 3.238c-1.245 0-2.139-.762-2.139-2.227v-17.3c0-1.465.894-2.241 2.139-2.241 1.26 0 2.139.776 2.139 2.241v17.3c0 1.465-.879 2.227-2.139 2.227zm11.806-.015c-3.399 0-5.655-2.212-5.655-5.874v-8.203c0-1.465.894-2.241 2.139-2.241 1.26 0 2.139.776 2.139 2.241v7.31c0 2.095 1.04 3.208 2.929 3.208 1.905 0 3.091-1.362 3.091-3.442v-7.075c0-1.465.894-2.241 2.139-2.241 1.26 0 2.138.776 2.138 2.241v11.924c0 1.421-.834 2.168-2.065 2.168s-2.065-.747-2.065-2.168v-.967h-.088c-.777 1.977-2.329 3.12-4.702 3.12zm15.042.015c-1.245 0-2.138-.762-2.138-2.227V92.128c0-1.333.776-2.153 2.065-2.153s2.139.82 2.139 2.168v.879h.088c.835-1.948 2.417-3.018 4.834-3.018 3.486 0 5.449 2.197 5.449 5.874v8.203c0 1.465-.894 2.227-2.139 2.227-1.26 0-2.138-.762-2.138-2.227v-7.309c0-2.051-.967-3.223-2.886-3.223s-3.135 1.406-3.135 3.442v7.09c0 1.465-.879 2.227-2.139 2.227zm17.489-4.322V93.52h-.82c-1.011 0-1.655-.615-1.655-1.611s.644-1.611 1.655-1.611h.82v-1.743c0-1.377.806-2.227 2.139-2.227s2.139.85 2.139 2.227v1.743h1.509c1.01 0 1.64.63 1.64 1.611s-.63 1.611-1.64 1.611h-1.509v7.515c0 1.113.381 1.582 1.303 1.655l.279.03c1.054.117 1.626.556 1.626 1.552 0 1.26-1.231 1.905-3.032 1.905h-.147c-2.856 0-4.307-1.421-4.307-4.19zm17.713 4.351c-4.91 0-7.8-3.032-7.8-8.115 0-5.054 2.95-8.262 7.59-8.262 4.45 0 7.44 3.047 7.44 7.31 0 1.187-.67 1.86-1.86 1.86h-8.96v.19c0 2.329 1.4 3.853 3.57 3.853 1.57 0 2.59-.527 3.75-1.89.46-.469.84-.63 1.39-.63.93 0 1.67.586 1.67 1.568 0 .337-.1.688-.29 1.04-1.04 1.933-3.47 3.076-6.5 3.076zm-3.55-9.829h6.67c-.09-2.051-1.41-3.384-3.28-3.384-1.88 0-3.24 1.377-3.39 3.384zm21.42 9.829c-4.91 0-7.8-3.032-7.8-8.115 0-5.054 2.95-8.262 7.59-8.262 4.45 0 7.44 3.047 7.44 7.31 0 1.187-.67 1.86-1.86 1.86h-8.96v.19c0 2.329 1.4 3.853 3.57 3.853 1.57 0 2.59-.527 3.75-1.89.46-.469.84-.63 1.39-.63.93 0 1.67.586 1.67 1.568 0 .337-.1.688-.29 1.04-1.04 1.933-3.47 3.076-6.5 3.076zm-3.55-9.829h6.67c-.09-2.051-1.41-3.384-3.29-3.384-1.87 0-3.23 1.377-3.38 3.384zm16.33 9.8c-1.29 0-2.14-.806-2.14-2.227V92.128c0-1.362.84-2.153 2.07-2.153 1.2 0 2.02.791 2.02 2.153v1.025h.09c.41-1.948 1.7-3.105 3.27-3.105.57 0 1.02.132 1.33.395.41.322.61.85.61 1.582 0 .674-.2 1.186-.61 1.538s-1.03.542-1.86.557c-1.95.029-2.64 1.128-2.64 2.988v6.973c0 1.421-.83 2.227-2.14 2.227z"/><path id="F" d="M1202.37 106.278c-1.39 0-2.21-.849-2.21-2.299V87.162c0-1.45.82-2.3 2.21-2.3h6.39c4.33 0 7.32 2.886 7.32 7.236 0 4.336-3.09 7.236-7.54 7.236h-3.96v4.644c0 1.45-.82 2.299-2.21 2.299zm2.21-10.4h2.99c2.53 0 4.01-1.348 4.01-3.765 0-2.402-1.46-3.75-4-3.75h-3v7.515zm21.64 10.459c-4.75 0-7.78-3.047-7.78-8.203 0-5.083 3.07-8.174 7.78-8.174 4.7 0 7.77 3.076 7.77 8.174 0 5.171-3.03 8.203-7.77 8.203zm0-3.267c2.09 0 3.42-1.772 3.42-4.922 0-3.12-1.34-4.922-3.42-4.922s-3.45 1.802-3.45 4.922c0 3.15 1.34 4.922 3.45 4.922zm17.02 3.179c-3.93 0-6.41-3.105-6.41-8.13 0-4.98 2.49-8.071 6.43-8.071 2.28 0 4.03 1.201 4.79 2.944h.09v-6.211c0-1.465.9-2.241 2.14-2.241 1.26 0 2.14.776 2.14 2.241v17.359c0 1.421-.88 2.168-2.12 2.168-1.23 0-2.16-.733-2.16-2.168v-.909h-.07c-.69 1.758-2.42 3.018-4.83 3.018zm1.45-3.442c2.12 0 3.48-1.787 3.48-4.659 0-2.856-1.36-4.673-3.48-4.673-2.16 0-3.48 1.802-3.48 4.673 0 2.886 1.32 4.659 3.48 4.659zm18.95 3.53c-4.73 0-7.73-3.106-7.73-8.189 0-5.024 2.98-8.188 7.7-8.188 3.15 0 5.77 1.523 6.62 3.75.15.366.24.747.24 1.055 0 1.055-.82 1.67-1.84 1.67-.84 0-1.36-.337-1.8-1.113-.77-1.377-1.73-2.007-3.09-2.007-2.17 0-3.5 1.787-3.5 4.819 0 3.091 1.33 4.848 3.47 4.848 1.5 0 2.42-.732 3.08-1.845.57-.894 1.04-1.26 1.95-1.26.99 0 1.8.659 1.8 1.714 0 .337-.09.688-.28 1.113-.94 2.139-3.62 3.633-6.62 3.633zm15.03-.088c-2.99 0-5.26-1.934-5.26-4.761 0-2.856 2.2-4.511 6.12-4.746l3.96-.234v-1.04c0-1.465-1.03-2.314-2.64-2.314-1.3 0-2.09.425-3.05 1.655-.47.527-1.01.791-1.7.791-1.04 0-1.78-.674-1.78-1.641a2.22 2.22 0 0 1 .22-.967c.73-1.875 3.25-3.032 6.5-3.032 4.03 0 6.65 2.08 6.65 5.244v8.95c0 1.421-.86 2.154-2.08 2.154-1.16 0-1.96-.645-2.05-1.905v-.805h-.09c-.88 1.67-2.84 2.651-4.8 2.651zm1.4-3.091c1.88 0 3.42-1.216 3.42-2.915v-1.142l-3.31.205c-1.6.117-2.51.835-2.51 1.948 0 1.172.97 1.904 2.4 1.904zm17.99 3.179c-3.6 0-6-1.289-6.75-3.135-.1-.278-.16-.556-.16-.791 0-.981.73-1.64 1.73-1.64.68 0 1.27.307 1.86.966.83 1.099 1.8 1.597 3.42 1.597 1.56 0 2.57-.645 2.57-1.685 0-.849-.54-1.303-2.08-1.64l-2.64-.557c-3.08-.659-4.63-2.227-4.63-4.556 0-3.003 2.59-4.937 6.67-4.937 3.25 0 5.64 1.48 6.15 3.252.06.22.1.425.1.63 0 .864-.54 1.465-1.64 1.465-.56 0-1.17-.205-1.55-.659-.75-.952-1.6-1.685-3.14-1.685-1.45 0-2.46.688-2.46 1.699 0 .82.62 1.362 2.18 1.699l2.6.557c3.34.703 4.71 1.934 4.71 4.277 0 3.12-2.79 5.142-6.94 5.142zm11.41-4.351V93.52h-.82c-1.01 0-1.65-.615-1.65-1.611s.64-1.611 1.65-1.611h.82v-1.743c0-1.377.81-2.227 2.14-2.227s2.14.85 2.14 2.227v1.743h1.51c1.01 0 1.64.63 1.64 1.611s-.63 1.611-1.64 1.611h-1.51v7.515c0 1.113.38 1.582 1.3 1.655l.28.03c1.06.117 1.63.556 1.63 1.552 0 1.26-1.23 1.905-3.04 1.905h-.14c-2.86 0-4.31-1.421-4.31-4.19z"/><path id="G" d="M1477.94 106.352c-4.37 0-7.17-1.744-8.02-4.058a3.5 3.5 0 0 1-.23-1.187c0-1.171.81-1.948 1.95-1.948.91 0 1.51.352 2.03 1.289.69 1.612 2.35 2.344 4.37 2.344 2.37 0 3.98-1.143 3.98-2.695 0-1.392-.99-2.183-3.64-2.725l-2.24-.44c-4.22-.835-6.29-2.856-6.29-6.006 0-3.867 3.37-6.431 8.07-6.431 3.87 0 6.78 1.626 7.72 4.38.1.293.16.601.16.981 0 1.055-.76 1.773-1.89 1.773-.99 0-1.61-.396-2.11-1.304-.7-1.597-2.06-2.256-3.88-2.256-2.18 0-3.63 1.025-3.63 2.578 0 1.304 1.01 2.109 3.52 2.608l2.22.454c4.48.894 6.42 2.695 6.42 5.903 0 4.131-3.24 6.739-8.51 6.739zm17.63-.059c-3.4 0-5.65-2.212-5.65-5.874v-8.203c0-1.465.89-2.241 2.14-2.241 1.26 0 2.14.776 2.14 2.241v7.31c0 2.095 1.04 3.208 2.93 3.208 1.9 0 3.09-1.362 3.09-3.442v-7.075c0-1.465.89-2.241 2.13-2.241 1.26 0 2.14.776 2.14 2.241v11.924c0 1.421-.83 2.168-2.06 2.168s-2.07-.747-2.07-2.168v-.967h-.09c-.77 1.977-2.32 3.12-4.7 3.12zm15.05 5.303c-1.25 0-2.14-.762-2.14-2.227V92.172c0-1.436.88-2.197 2.11-2.197s2.11.762 2.11 2.212v.85h.08c.85-1.846 2.6-2.988 4.87-2.988 3.98 0 6.43 3.032 6.43 8.1 0 5.054-2.43 8.101-6.36 8.101-2.29 0-4.04-1.113-4.88-2.886h-.09v6.006c0 1.465-.87 2.227-2.13 2.227zm5.59-8.789c2.14 0 3.49-1.802 3.49-4.659 0-2.842-1.35-4.673-3.49-4.673-2.09 0-3.47 1.86-3.47 4.673 0 2.842 1.38 4.659 3.47 4.659zm13.42 8.789c-1.25 0-2.14-.762-2.14-2.227V92.172c0-1.436.88-2.197 2.11-2.197s2.11.762 2.11 2.212v.85h.09c.85-1.846 2.59-2.988 4.86-2.988 3.98 0 6.43 3.032 6.43 8.1 0 5.054-2.43 8.101-6.36 8.101-2.28 0-4.04-1.113-4.88-2.886h-.08v6.006c0 1.465-.88 2.227-2.14 2.227zm5.59-8.789c2.14 0 3.49-1.802 3.49-4.659 0-2.842-1.35-4.673-3.49-4.673-2.09 0-3.47 1.86-3.47 4.673 0 2.842 1.38 4.659 3.47 4.659zm18.49 3.53c-4.75 0-7.78-3.047-7.78-8.203 0-5.083 3.08-8.174 7.78-8.174s7.78 3.076 7.78 8.174c0 5.171-3.04 8.203-7.78 8.203zm0-3.267c2.09 0 3.43-1.772 3.43-4.922 0-3.12-1.35-4.922-3.43-4.922s-3.44 1.802-3.44 4.922c0 3.15 1.33 4.922 3.44 4.922zm13.33 3.238c-1.29 0-2.14-.806-2.14-2.227V92.128c0-1.362.83-2.153 2.06-2.153 1.21 0 2.03.791 2.03 2.153v1.025h.08c.41-1.948 1.7-3.105 3.27-3.105.57 0 1.03.132 1.33.395.41.322.62.85.62 1.582 0 .674-.21 1.186-.62 1.538s-1.02.542-1.86.557c-1.95.029-2.63 1.128-2.63 2.988v6.973c0 1.421-.84 2.227-2.14 2.227zm11.13-4.322V93.52h-.82c-1.01 0-1.66-.615-1.66-1.611s.65-1.611 1.66-1.611h.82v-1.743c0-1.377.8-2.227 2.14-2.227 1.33 0 2.14.85 2.14 2.227v1.743h1.51c1.01 0 1.64.63 1.64 1.611s-.63 1.611-1.64 1.611h-1.51v7.515c0 1.113.38 1.582 1.3 1.655l.28.03c1.05.117 1.62.556 1.62 1.552 0 1.26-1.23 1.905-3.03 1.905h-.14c-2.86 0-4.31-1.421-4.31-4.19zm27.1 4.366c-5.42 0-8.87-3.164-8.87-7.823V86.884c0-1.465.82-2.314 2.22-2.314 1.39 0 2.21.85 2.21 2.314V98.09c0 2.71 1.59 4.482 4.44 4.482 2.82 0 4.42-1.772 4.42-4.482V86.884c0-1.465.82-2.314 2.21-2.314s2.21.85 2.21 2.314v11.646c0 4.659-3.44 7.823-8.84 7.823zm19.61-.015c-3.6 0-6.01-1.289-6.75-3.135-.11-.278-.16-.556-.16-.791 0-.981.73-1.64 1.72-1.64.69 0 1.28.307 1.86.966.84 1.099 1.81 1.597 3.43 1.597 1.55 0 2.57-.645 2.57-1.685 0-.849-.55-1.303-2.08-1.64l-2.64-.557c-3.08-.659-4.63-2.227-4.63-4.556 0-3.003 2.59-4.937 6.66-4.937 3.26 0 5.64 1.48 6.16 3.252.06.22.1.425.1.63 0 .864-.54 1.465-1.64 1.465-.56 0-1.17-.205-1.55-.659-.75-.952-1.6-1.685-3.14-1.685-1.45 0-2.46.688-2.46 1.699 0 .82.62 1.362 2.18 1.699l2.6.557c3.34.703 4.71 1.934 4.71 4.277 0 3.12-2.8 5.142-6.94 5.142z"/></defs></svg>