<svg width="430" height="932" viewBox="0 0 430 932" fill="none" xmlns="http://www.w3.org/2000/svg">
<rect width="430" height="932" fill="#1B0D3A"/>
<path d="M183.393 189.216C182.378 189.216 181.756 188.594 181.756 187.515V172.166C181.756 171.087 182.378 170.465 183.393 170.465C184.422 170.465 185.031 171.087 185.031 172.166V178.298H193.943V172.166C193.943 171.087 194.553 170.465 195.568 170.465C196.596 170.465 197.206 171.087 197.206 172.166V187.515C197.206 188.594 196.596 189.216 195.568 189.216C194.553 189.216 193.943 188.594 193.943 187.515V181.053H185.031V187.515C185.031 188.594 184.422 189.216 183.393 189.216ZM206.28 189.267C202.332 189.267 199.767 186.639 199.767 182.271C199.767 177.93 202.357 175.264 206.28 175.264C210.203 175.264 212.793 177.917 212.793 182.271C212.793 186.639 210.228 189.267 206.28 189.267ZM206.28 186.766C208.286 186.766 209.581 185.141 209.581 182.271C209.581 179.415 208.286 177.777 206.28 177.777C204.287 177.777 202.979 179.415 202.979 182.271C202.979 185.141 204.274 186.766 206.28 186.766ZM216.598 189.254C215.646 189.254 215.024 188.645 215.024 187.591V176.889C215.024 175.86 215.646 175.276 216.535 175.276C217.423 175.276 218.058 175.86 218.058 176.889V177.879H218.121C218.705 176.317 220.127 175.289 221.955 175.289C223.86 175.289 225.218 176.267 225.713 177.993H225.789C226.437 176.33 228.037 175.289 229.979 175.289C232.632 175.289 234.371 177.079 234.371 179.771V187.591C234.371 188.645 233.737 189.254 232.797 189.254C231.845 189.254 231.21 188.645 231.21 187.591V180.545C231.21 178.895 230.347 177.955 228.798 177.955C227.275 177.955 226.234 179.072 226.234 180.685V187.591C226.234 188.645 225.637 189.254 224.698 189.254C223.746 189.254 223.162 188.645 223.162 187.591V180.38C223.162 178.882 222.247 177.955 220.775 177.955C219.251 177.955 218.185 179.136 218.185 180.761V187.591C218.185 188.645 217.538 189.254 216.598 189.254ZM243.09 189.267C238.977 189.267 236.552 186.689 236.552 182.322C236.552 178.031 239.028 175.264 242.912 175.264C246.594 175.264 249.108 177.879 249.108 181.535C249.108 182.475 248.574 183.033 247.635 183.033H239.7V183.135C239.7 185.382 241.008 186.829 243.065 186.829C244.487 186.829 245.413 186.334 246.429 185.039C246.759 184.671 247.051 184.531 247.495 184.531C248.206 184.531 248.765 184.988 248.765 185.75C248.765 185.991 248.689 186.271 248.549 186.55C247.66 188.264 245.654 189.267 243.09 189.267ZM239.726 180.951H246.01C245.946 178.996 244.702 177.714 242.925 177.714C241.148 177.714 239.853 179.021 239.726 180.951Z" fill="white"/>
<path d="M130.225 241.305C124.931 241.305 121.669 237.712 121.669 231.834C121.669 225.994 124.982 222.376 130.162 222.376C133.551 222.376 136.23 223.963 137.436 226.642C137.639 227.061 137.741 227.492 137.741 227.873C137.741 228.749 137.17 229.308 136.294 229.308C135.545 229.308 135.049 228.952 134.694 228.152C133.843 226.185 132.18 225.156 130.187 225.156C127.039 225.156 125.02 227.746 125.02 231.834C125.02 235.947 127.026 238.524 130.2 238.524C132.295 238.524 133.907 237.61 134.745 235.681C135.075 234.932 135.494 234.627 136.205 234.627C137.106 234.627 137.728 235.224 137.728 236.087C137.728 236.506 137.627 236.887 137.423 237.318C136.255 239.807 133.653 241.305 130.225 241.305ZM146.409 241.267C142.46 241.267 139.896 238.639 139.896 234.271C139.896 229.93 142.486 227.264 146.409 227.264C150.331 227.264 152.921 229.917 152.921 234.271C152.921 238.639 150.357 241.267 146.409 241.267ZM146.409 238.766C148.414 238.766 149.709 237.141 149.709 234.271C149.709 231.415 148.414 229.777 146.409 229.777C144.415 229.777 143.108 231.415 143.108 234.271C143.108 237.141 144.403 238.766 146.409 238.766ZM156.727 241.254C155.775 241.254 155.153 240.645 155.153 239.591V228.889C155.153 227.86 155.775 227.276 156.663 227.276C157.552 227.276 158.187 227.86 158.187 228.889V229.879H158.25C158.834 228.317 160.256 227.289 162.084 227.289C163.988 227.289 165.347 228.267 165.842 229.993H165.918C166.566 228.33 168.165 227.289 170.108 227.289C172.761 227.289 174.5 229.079 174.5 231.771V239.591C174.5 240.645 173.865 241.254 172.926 241.254C171.974 241.254 171.339 240.645 171.339 239.591V232.545C171.339 230.895 170.476 229.955 168.927 229.955C167.404 229.955 166.363 231.072 166.363 232.685V239.591C166.363 240.645 165.766 241.254 164.826 241.254C163.874 241.254 163.29 240.645 163.29 239.591V232.38C163.29 230.882 162.376 229.955 160.904 229.955C159.38 229.955 158.314 231.136 158.314 232.761V239.591C158.314 240.645 157.666 241.254 156.727 241.254ZM178.813 241.254C177.861 241.254 177.239 240.645 177.239 239.591V228.889C177.239 227.86 177.861 227.276 178.75 227.276C179.639 227.276 180.273 227.86 180.273 228.889V229.879H180.337C180.921 228.317 182.343 227.289 184.171 227.289C186.075 227.289 187.434 228.267 187.929 229.993H188.005C188.652 228.33 190.252 227.289 192.194 227.289C194.848 227.289 196.587 229.079 196.587 231.771V239.591C196.587 240.645 195.952 241.254 195.013 241.254C194.061 241.254 193.426 240.645 193.426 239.591V232.545C193.426 230.895 192.562 229.955 191.014 229.955C189.49 229.955 188.449 231.072 188.449 232.685V239.591C188.449 240.645 187.853 241.254 186.913 241.254C185.961 241.254 185.377 240.645 185.377 239.591V232.38C185.377 230.882 184.463 229.955 182.99 229.955C181.467 229.955 180.4 231.136 180.4 232.761V239.591C180.4 240.645 179.753 241.254 178.813 241.254ZM203.274 241.216C200.672 241.216 198.78 239.578 198.78 237.153C198.78 234.767 200.621 233.332 203.896 233.129L207.464 232.926V231.961C207.464 230.552 206.512 229.739 204.95 229.739C203.719 229.739 202.919 230.158 202.132 231.313C201.802 231.745 201.383 231.948 200.849 231.948C200.075 231.948 199.516 231.44 199.516 230.679C199.516 230.387 199.593 230.107 199.732 229.815C200.418 228.254 202.5 227.264 205.077 227.264C208.416 227.264 210.587 229.028 210.587 231.732V239.667C210.587 240.683 209.939 241.254 209.051 241.254C208.187 241.254 207.591 240.733 207.54 239.794V238.854H207.476C206.702 240.314 205.013 241.216 203.274 241.216ZM204.239 238.829C206.016 238.829 207.464 237.636 207.464 236.011V234.982L204.341 235.173C202.817 235.274 201.941 235.96 201.941 237.026C201.941 238.131 202.868 238.829 204.239 238.829ZM214.913 241.254C213.986 241.254 213.338 240.657 213.338 239.591V228.876C213.338 227.898 213.91 227.276 214.849 227.276C215.776 227.276 216.411 227.898 216.411 228.876V229.815H216.474C217.198 228.216 218.594 227.289 220.664 227.289C223.634 227.289 225.323 229.193 225.323 232.304V239.591C225.323 240.657 224.675 241.254 223.749 241.254C222.822 241.254 222.162 240.657 222.162 239.591V232.938C222.162 231.034 221.273 229.968 219.47 229.968C217.655 229.968 216.5 231.275 216.5 233.205V239.591C216.5 240.657 215.839 241.254 214.913 241.254ZM233.089 241.216C229.7 241.216 227.503 238.537 227.503 234.259C227.503 230.006 229.7 227.314 233.089 227.314C235.019 227.314 236.542 228.317 237.253 229.803H237.329V224.09C237.329 223.023 237.977 222.427 238.904 222.427C239.83 222.427 240.491 223.023 240.491 224.09V239.667C240.491 240.683 239.843 241.254 238.929 241.254C238.015 241.254 237.329 240.695 237.329 239.667V238.613H237.266C236.619 240.162 235.171 241.216 233.089 241.216ZM234.041 238.626C236.035 238.626 237.342 236.938 237.342 234.271C237.342 231.631 236.035 229.917 234.041 229.917C232.01 229.917 230.741 231.605 230.741 234.271C230.741 236.95 231.997 238.626 234.041 238.626ZM248.536 241.267C245.693 241.267 243.699 240.175 243.052 238.562C242.963 238.334 242.925 238.131 242.925 237.94C242.925 237.179 243.484 236.696 244.245 236.696C244.766 236.696 245.21 236.938 245.616 237.471C246.327 238.499 247.14 238.956 248.651 238.956C250.123 238.956 251.101 238.334 251.101 237.318C251.101 236.506 250.593 236.062 249.209 235.744L247.026 235.249C244.398 234.652 243.103 233.357 243.103 231.402C243.103 228.901 245.261 227.264 248.587 227.264C251.177 227.264 253.183 228.533 253.602 230.082C253.64 230.247 253.665 230.399 253.665 230.552C253.665 231.212 253.246 231.682 252.446 231.682C251.989 231.682 251.532 231.517 251.24 231.098C250.618 230.171 249.844 229.587 248.511 229.587C247.127 229.587 246.175 230.26 246.175 231.225C246.175 232.012 246.759 232.545 248.155 232.862L250.301 233.332C253.145 233.979 254.275 235.008 254.275 237.001C254.275 239.578 251.964 241.267 248.536 241.267ZM263.828 241.216C262.812 241.216 262.19 240.594 262.19 239.515V224.166C262.19 223.087 262.812 222.465 263.828 222.465C264.856 222.465 265.466 223.087 265.466 224.166V230.298H274.378V224.166C274.378 223.087 274.987 222.465 276.003 222.465C277.031 222.465 277.64 223.087 277.64 224.166V239.515C277.64 240.594 277.031 241.216 276.003 241.216C274.987 241.216 274.378 240.594 274.378 239.515V233.053H265.466V239.515C265.466 240.594 264.856 241.216 263.828 241.216ZM285.47 241.241C282.55 241.241 280.697 239.35 280.697 236.239V228.939C280.697 227.886 281.344 227.276 282.271 227.276C283.198 227.276 283.858 227.886 283.858 228.952V235.604C283.858 237.534 284.797 238.575 286.575 238.575C288.403 238.575 289.533 237.28 289.533 235.325V228.939C289.533 227.886 290.193 227.276 291.12 227.276C292.034 227.276 292.694 227.886 292.694 228.952V239.654C292.694 240.67 292.085 241.254 291.183 241.254C290.269 241.254 289.647 240.67 289.647 239.654V238.664H289.584C288.873 240.302 287.514 241.241 285.47 241.241ZM297.109 241.254C296.195 241.254 295.573 240.695 295.573 239.667V224.09C295.573 223.023 296.233 222.427 297.16 222.427C298.086 222.427 298.734 223.023 298.734 224.09V229.854H298.81C299.584 228.279 301.108 227.314 303.025 227.314C306.414 227.314 308.573 229.968 308.573 234.271C308.573 238.575 306.427 241.216 303.012 241.216C301.044 241.216 299.534 240.264 298.734 238.702H298.67V239.667C298.67 240.683 298.023 241.254 297.109 241.254ZM302.047 238.626C304.066 238.626 305.335 236.95 305.335 234.271C305.335 231.605 304.066 229.917 302.047 229.917C300.092 229.917 298.721 231.656 298.721 234.271C298.721 236.912 300.092 238.626 302.047 238.626Z" fill="white"/>
<path d="M105.798 293.216C104.782 293.216 104.173 292.594 104.173 291.515V277.448H99.9832C99.0945 277.448 98.4852 276.915 98.4852 276.064C98.4852 275.214 99.0818 274.681 99.9832 274.681H111.625C112.526 274.681 113.123 275.214 113.123 276.064C113.123 276.915 112.513 277.448 111.625 277.448H107.435V291.515C107.435 292.594 106.826 293.216 105.798 293.216ZM116.712 293.254C115.786 293.254 115.126 292.657 115.126 291.591V276.052C115.126 275.049 115.722 274.427 116.687 274.427C117.665 274.427 118.249 275.049 118.249 276.052V281.854H118.312C119.036 280.216 120.521 279.289 122.565 279.289C125.536 279.289 127.275 281.244 127.275 284.329V291.591C127.275 292.657 126.615 293.254 125.688 293.254C124.761 293.254 124.114 292.657 124.114 291.591V284.977C124.114 283.098 123.174 281.968 121.346 281.968C119.442 281.968 118.287 283.288 118.287 285.269V291.591C118.287 292.657 117.639 293.254 116.712 293.254ZM135.994 293.267C131.88 293.267 129.455 290.689 129.455 286.322C129.455 282.031 131.931 279.264 135.816 279.264C139.497 279.264 142.011 281.879 142.011 285.535C142.011 286.475 141.478 287.033 140.538 287.033H132.604V287.135C132.604 289.382 133.912 290.829 135.968 290.829C137.39 290.829 138.317 290.334 139.332 289.039C139.662 288.671 139.954 288.531 140.399 288.531C141.11 288.531 141.668 288.988 141.668 289.75C141.668 289.991 141.592 290.271 141.453 290.55C140.564 292.264 138.558 293.267 135.994 293.267ZM132.629 284.951H138.913C138.85 282.996 137.606 281.714 135.829 281.714C134.051 281.714 132.756 283.021 132.629 284.951ZM151.615 293C150.6 293 149.978 292.365 149.978 291.299V276.382C149.978 275.315 150.6 274.681 151.615 274.681H157.582C160.908 274.681 163.054 276.471 163.054 279.251C163.054 281.219 161.594 282.933 159.715 283.237V283.339C162.203 283.58 163.942 285.37 163.942 287.795C163.942 291.02 161.568 293 157.658 293H151.615ZM153.253 282.399H156.249C158.534 282.399 159.816 281.435 159.816 279.733C159.816 278.134 158.712 277.232 156.757 277.232H153.253V282.399ZM153.253 290.448H156.909C159.321 290.448 160.604 289.445 160.604 287.566C160.604 285.7 159.283 284.723 156.77 284.723H153.253V290.448ZM170.109 293.216C167.507 293.216 165.615 291.578 165.615 289.153C165.615 286.767 167.456 285.332 170.731 285.129L174.299 284.926V283.961C174.299 282.552 173.346 281.739 171.785 281.739C170.554 281.739 169.754 282.158 168.967 283.313C168.637 283.745 168.218 283.948 167.684 283.948C166.91 283.948 166.351 283.44 166.351 282.679C166.351 282.387 166.428 282.107 166.567 281.815C167.253 280.254 169.335 279.264 171.912 279.264C175.251 279.264 177.422 281.028 177.422 283.732V291.667C177.422 292.683 176.774 293.254 175.886 293.254C175.022 293.254 174.426 292.733 174.375 291.794V290.854H174.311C173.537 292.314 171.848 293.216 170.109 293.216ZM171.074 290.829C172.851 290.829 174.299 289.636 174.299 288.011V286.982L171.176 287.173C169.652 287.274 168.776 287.96 168.776 289.026C168.776 290.131 169.703 290.829 171.074 290.829ZM185.366 293.267C182.522 293.267 180.529 292.175 179.881 290.562C179.793 290.334 179.754 290.131 179.754 289.94C179.754 289.179 180.313 288.696 181.075 288.696C181.595 288.696 182.04 288.938 182.446 289.471C183.157 290.499 183.969 290.956 185.48 290.956C186.953 290.956 187.93 290.334 187.93 289.318C187.93 288.506 187.422 288.062 186.039 287.744L183.855 287.249C181.227 286.652 179.932 285.357 179.932 283.402C179.932 280.901 182.09 279.264 185.417 279.264C188.006 279.264 190.012 280.533 190.431 282.082C190.469 282.247 190.495 282.399 190.495 282.552C190.495 283.212 190.076 283.682 189.276 283.682C188.819 283.682 188.362 283.517 188.07 283.098C187.448 282.171 186.673 281.587 185.34 281.587C183.957 281.587 183.004 282.26 183.004 283.225C183.004 284.012 183.588 284.545 184.985 284.862L187.13 285.332C189.974 285.979 191.104 287.008 191.104 289.001C191.104 291.578 188.794 293.267 185.366 293.267ZM194.948 277.651C193.97 277.651 193.196 276.89 193.196 275.938C193.196 274.973 193.97 274.224 194.948 274.224C195.938 274.224 196.712 274.973 196.712 275.938C196.712 276.89 195.938 277.651 194.948 277.651ZM194.948 293.254C193.983 293.254 193.373 292.619 193.373 291.591V280.939C193.373 279.924 193.983 279.276 194.948 279.276C195.912 279.276 196.535 279.924 196.535 280.952V291.591C196.535 292.619 195.912 293.254 194.948 293.254ZM205.304 293.267C201.368 293.267 198.829 290.601 198.829 286.284C198.829 281.993 201.356 279.264 205.279 279.264C207.919 279.264 210.166 280.622 210.814 282.514C210.915 282.78 210.979 283.047 210.979 283.275C210.979 284.062 210.382 284.545 209.62 284.545C208.986 284.545 208.605 284.278 208.237 283.644C207.564 282.412 206.675 281.828 205.367 281.828C203.336 281.828 202.041 283.517 202.041 286.271C202.041 289.064 203.349 290.715 205.355 290.715C206.751 290.715 207.614 290.067 208.224 288.988C208.655 288.277 208.998 288.011 209.684 288.011C210.433 288.011 211.017 288.519 211.017 289.306C211.017 289.547 210.953 289.813 210.826 290.118C210.077 291.959 207.843 293.267 205.304 293.267ZM218.542 293.267C215.698 293.267 213.705 292.175 213.058 290.562C212.969 290.334 212.931 290.131 212.931 289.94C212.931 289.179 213.489 288.696 214.251 288.696C214.771 288.696 215.216 288.938 215.622 289.471C216.333 290.499 217.146 290.956 218.656 290.956C220.129 290.956 221.106 290.334 221.106 289.318C221.106 288.506 220.599 288.062 219.215 287.744L217.031 287.249C214.403 286.652 213.108 285.357 213.108 283.402C213.108 280.901 215.267 279.264 218.593 279.264C221.183 279.264 223.188 280.533 223.607 282.082C223.646 282.247 223.671 282.399 223.671 282.552C223.671 283.212 223.252 283.682 222.452 283.682C221.995 283.682 221.538 283.517 221.246 283.098C220.624 282.171 219.85 281.587 218.517 281.587C217.133 281.587 216.181 282.26 216.181 283.225C216.181 284.012 216.765 284.545 218.161 284.862L220.307 285.332C223.15 285.979 224.28 287.008 224.28 289.001C224.28 291.578 221.97 293.267 218.542 293.267ZM233.834 293C232.818 293 232.196 292.365 232.196 291.299V276.166C232.196 275.087 232.818 274.465 233.834 274.465C234.862 274.465 235.471 275.087 235.471 276.166V290.232H242.492C243.38 290.232 243.99 290.766 243.99 291.616C243.99 292.467 243.393 293 242.492 293H233.834ZM251.744 293.267C247.63 293.267 245.205 290.689 245.205 286.322C245.205 282.031 247.681 279.264 251.566 279.264C255.247 279.264 257.761 281.879 257.761 285.535C257.761 286.475 257.228 287.033 256.288 287.033H248.354V287.135C248.354 289.382 249.662 290.829 251.718 290.829C253.14 290.829 254.067 290.334 255.082 289.039C255.412 288.671 255.704 288.531 256.149 288.531C256.86 288.531 257.418 288.988 257.418 289.75C257.418 289.991 257.342 290.271 257.203 290.55C256.314 292.264 254.308 293.267 251.744 293.267ZM248.379 284.951H254.663C254.6 282.996 253.356 281.714 251.579 281.714C249.801 281.714 248.506 283.021 248.379 284.951ZM265.197 293.267C262.354 293.267 260.361 292.175 259.713 290.562C259.624 290.334 259.586 290.131 259.586 289.94C259.586 289.179 260.145 288.696 260.906 288.696C261.427 288.696 261.871 288.938 262.278 289.471C262.988 290.499 263.801 290.956 265.312 290.956C266.784 290.956 267.762 290.334 267.762 289.318C267.762 288.506 267.254 288.062 265.87 287.744L263.687 287.249C261.059 286.652 259.764 285.357 259.764 283.402C259.764 280.901 261.922 279.264 265.248 279.264C267.838 279.264 269.844 280.533 270.263 282.082C270.301 282.247 270.326 282.399 270.326 282.552C270.326 283.212 269.907 283.682 269.108 283.682C268.651 283.682 268.194 283.517 267.902 283.098C267.279 282.171 266.505 281.587 265.172 281.587C263.788 281.587 262.836 282.26 262.836 283.225C262.836 284.012 263.42 284.545 264.817 284.862L266.962 285.332C269.806 285.979 270.936 287.008 270.936 289.001C270.936 291.578 268.625 293.267 265.197 293.267ZM278.321 293.267C275.478 293.267 273.484 292.175 272.837 290.562C272.748 290.334 272.71 290.131 272.71 289.94C272.71 289.179 273.269 288.696 274.03 288.696C274.551 288.696 274.995 288.938 275.401 289.471C276.112 290.499 276.925 290.956 278.436 290.956C279.908 290.956 280.886 290.334 280.886 289.318C280.886 288.506 280.378 288.062 278.994 287.744L276.811 287.249C274.183 286.652 272.888 285.357 272.888 283.402C272.888 280.901 275.046 279.264 278.372 279.264C280.962 279.264 282.968 280.533 283.387 282.082C283.425 282.247 283.45 282.399 283.45 282.552C283.45 283.212 283.031 283.682 282.231 283.682C281.774 283.682 281.317 283.517 281.025 283.098C280.403 282.171 279.629 281.587 278.296 281.587C276.912 281.587 275.96 282.26 275.96 283.225C275.96 284.012 276.544 284.545 277.94 284.862L280.086 285.332C282.93 285.979 284.06 287.008 284.06 289.001C284.06 291.578 281.749 293.267 278.321 293.267ZM292.207 293.267C288.259 293.267 285.694 290.639 285.694 286.271C285.694 281.93 288.284 279.264 292.207 279.264C296.13 279.264 298.72 281.917 298.72 286.271C298.72 290.639 296.155 293.267 292.207 293.267ZM292.207 290.766C294.213 290.766 295.508 289.141 295.508 286.271C295.508 283.415 294.213 281.777 292.207 281.777C290.214 281.777 288.906 283.415 288.906 286.271C288.906 289.141 290.201 290.766 292.207 290.766ZM302.525 293.254C301.598 293.254 300.951 292.657 300.951 291.591V280.876C300.951 279.898 301.522 279.276 302.462 279.276C303.388 279.276 304.023 279.898 304.023 280.876V281.815H304.087C304.81 280.216 306.207 279.289 308.276 279.289C311.247 279.289 312.935 281.193 312.935 284.304V291.591C312.935 292.657 312.288 293.254 311.361 293.254C310.434 293.254 309.774 292.657 309.774 291.591V284.938C309.774 283.034 308.885 281.968 307.083 281.968C305.267 281.968 304.112 283.275 304.112 285.205V291.591C304.112 292.657 303.452 293.254 302.525 293.254ZM327.363 293.254C326.411 293.254 325.751 292.594 325.751 291.604V277.854H325.688L322.73 279.911C322.412 280.14 322.158 280.229 321.803 280.229C321.117 280.229 320.622 279.733 320.622 279.01C320.622 278.502 320.825 278.121 321.371 277.74L325.116 275.112C325.929 274.541 326.437 274.427 327.122 274.427C328.278 274.427 328.976 275.125 328.976 276.255V291.604C328.976 292.594 328.316 293.254 327.363 293.254Z" fill="white"/>
<path d="M104.198 345.216C103.182 345.216 102.573 344.594 102.573 343.515V329.448H98.3836C97.4949 329.448 96.8855 328.915 96.8855 328.064C96.8855 327.214 97.4822 326.681 98.3836 326.681H110.025C110.927 326.681 111.523 327.214 111.523 328.064C111.523 328.915 110.914 329.448 110.025 329.448H105.836V343.515C105.836 344.594 105.226 345.216 104.198 345.216ZM115.113 345.254C114.186 345.254 113.526 344.657 113.526 343.591V328.052C113.526 327.049 114.123 326.427 115.087 326.427C116.065 326.427 116.649 327.049 116.649 328.052V333.854H116.712C117.436 332.216 118.921 331.289 120.965 331.289C123.936 331.289 125.675 333.244 125.675 336.329V343.591C125.675 344.657 125.015 345.254 124.088 345.254C123.162 345.254 122.514 344.657 122.514 343.591V336.977C122.514 335.098 121.575 333.968 119.747 333.968C117.842 333.968 116.687 335.288 116.687 337.269V343.591C116.687 344.657 116.04 345.254 115.113 345.254ZM134.394 345.267C130.281 345.267 127.856 342.689 127.856 338.322C127.856 334.031 130.331 331.264 134.216 331.264C137.898 331.264 140.412 333.879 140.412 337.535C140.412 338.475 139.878 339.033 138.939 339.033H131.004V339.135C131.004 341.382 132.312 342.829 134.369 342.829C135.79 342.829 136.717 342.334 137.733 341.039C138.063 340.671 138.355 340.531 138.799 340.531C139.51 340.531 140.069 340.988 140.069 341.75C140.069 341.991 139.993 342.271 139.853 342.55C138.964 344.264 136.958 345.267 134.394 345.267ZM131.03 336.951H137.314C137.25 334.996 136.006 333.714 134.229 333.714C132.452 333.714 131.157 335.021 131.03 336.951ZM150.016 345C149 345 148.378 344.365 148.378 343.299V328.382C148.378 327.315 149 326.681 150.016 326.681H155.982C159.309 326.681 161.454 328.471 161.454 331.251C161.454 333.219 159.994 334.933 158.115 335.237V335.339C160.604 335.58 162.343 337.37 162.343 339.795C162.343 343.02 159.969 345 156.059 345H150.016ZM151.653 334.399H154.649C156.935 334.399 158.217 333.435 158.217 331.733C158.217 330.134 157.112 329.232 155.157 329.232H151.653V334.399ZM151.653 342.448H155.31C157.722 342.448 159.004 341.445 159.004 339.566C159.004 337.7 157.684 336.723 155.17 336.723H151.653V342.448ZM168.51 345.216C165.907 345.216 164.015 343.578 164.015 341.153C164.015 338.767 165.856 337.332 169.132 337.129L172.699 336.926V335.961C172.699 334.552 171.747 333.739 170.185 333.739C168.954 333.739 168.154 334.158 167.367 335.313C167.037 335.745 166.618 335.948 166.085 335.948C165.31 335.948 164.752 335.44 164.752 334.679C164.752 334.387 164.828 334.107 164.968 333.815C165.653 332.254 167.735 331.264 170.312 331.264C173.651 331.264 175.822 333.028 175.822 335.732V343.667C175.822 344.683 175.175 345.254 174.286 345.254C173.423 345.254 172.826 344.733 172.775 343.794V342.854H172.712C171.937 344.314 170.249 345.216 168.51 345.216ZM169.474 342.829C171.252 342.829 172.699 341.636 172.699 340.011V338.982L169.576 339.173C168.053 339.274 167.177 339.96 167.177 341.026C167.177 342.131 168.103 342.829 169.474 342.829ZM183.766 345.267C180.922 345.267 178.929 344.175 178.282 342.562C178.193 342.334 178.155 342.131 178.155 341.94C178.155 341.179 178.713 340.696 179.475 340.696C179.996 340.696 180.44 340.938 180.846 341.471C181.557 342.499 182.37 342.956 183.88 342.956C185.353 342.956 186.331 342.334 186.331 341.318C186.331 340.506 185.823 340.062 184.439 339.744L182.255 339.249C179.628 338.652 178.333 337.357 178.333 335.402C178.333 332.901 180.491 331.264 183.817 331.264C186.407 331.264 188.413 332.533 188.832 334.082C188.87 334.247 188.895 334.399 188.895 334.552C188.895 335.212 188.476 335.682 187.676 335.682C187.219 335.682 186.762 335.517 186.47 335.098C185.848 334.171 185.074 333.587 183.741 333.587C182.357 333.587 181.405 334.26 181.405 335.225C181.405 336.012 181.989 336.545 183.385 336.862L185.531 337.332C188.375 337.979 189.504 339.008 189.504 341.001C189.504 343.578 187.194 345.267 183.766 345.267ZM193.348 329.651C192.371 329.651 191.596 328.89 191.596 327.938C191.596 326.973 192.371 326.224 193.348 326.224C194.338 326.224 195.113 326.973 195.113 327.938C195.113 328.89 194.338 329.651 193.348 329.651ZM193.348 345.254C192.383 345.254 191.774 344.619 191.774 343.591V332.939C191.774 331.924 192.383 331.276 193.348 331.276C194.313 331.276 194.935 331.924 194.935 332.952V343.591C194.935 344.619 194.313 345.254 193.348 345.254ZM203.704 345.267C199.769 345.267 197.23 342.601 197.23 338.284C197.23 333.993 199.756 331.264 203.679 331.264C206.32 331.264 208.567 332.622 209.214 334.514C209.316 334.78 209.379 335.047 209.379 335.275C209.379 336.062 208.782 336.545 208.021 336.545C207.386 336.545 207.005 336.278 206.637 335.644C205.964 334.412 205.075 333.828 203.768 333.828C201.737 333.828 200.442 335.517 200.442 338.271C200.442 341.064 201.749 342.715 203.755 342.715C205.152 342.715 206.015 342.067 206.624 340.988C207.056 340.277 207.399 340.011 208.084 340.011C208.833 340.011 209.417 340.519 209.417 341.306C209.417 341.547 209.354 341.813 209.227 342.118C208.478 343.959 206.243 345.267 203.704 345.267ZM216.942 345.267C214.099 345.267 212.105 344.175 211.458 342.562C211.369 342.334 211.331 342.131 211.331 341.94C211.331 341.179 211.89 340.696 212.651 340.696C213.172 340.696 213.616 340.938 214.022 341.471C214.733 342.499 215.546 342.956 217.057 342.956C218.529 342.956 219.507 342.334 219.507 341.318C219.507 340.506 218.999 340.062 217.615 339.744L215.432 339.249C212.804 338.652 211.509 337.357 211.509 335.402C211.509 332.901 213.667 331.264 216.993 331.264C219.583 331.264 221.589 332.533 222.008 334.082C222.046 334.247 222.071 334.399 222.071 334.552C222.071 335.212 221.652 335.682 220.853 335.682C220.396 335.682 219.938 335.517 219.646 335.098C219.024 334.171 218.25 333.587 216.917 333.587C215.533 333.587 214.581 334.26 214.581 335.225C214.581 336.012 215.165 336.545 216.562 336.862L218.707 337.332C221.551 337.979 222.681 339.008 222.681 341.001C222.681 343.578 220.37 345.267 216.942 345.267ZM232.234 345C231.218 345 230.596 344.365 230.596 343.299V328.166C230.596 327.087 231.218 326.465 232.234 326.465C233.262 326.465 233.872 327.087 233.872 328.166V342.232H240.892C241.781 342.232 242.39 342.766 242.39 343.616C242.39 344.467 241.794 345 240.892 345H232.234ZM250.144 345.267C246.031 345.267 243.606 342.689 243.606 338.322C243.606 334.031 246.081 331.264 249.966 331.264C253.648 331.264 256.162 333.879 256.162 337.535C256.162 338.475 255.628 339.033 254.689 339.033H246.754V339.135C246.754 341.382 248.062 342.829 250.119 342.829C251.54 342.829 252.467 342.334 253.483 341.039C253.813 340.671 254.105 340.531 254.549 340.531C255.26 340.531 255.819 340.988 255.819 341.75C255.819 341.991 255.743 342.271 255.603 342.55C254.714 344.264 252.708 345.267 250.144 345.267ZM246.78 336.951H253.064C253 334.996 251.756 333.714 249.979 333.714C248.202 333.714 246.907 335.021 246.78 336.951ZM263.598 345.267C260.754 345.267 258.761 344.175 258.113 342.562C258.025 342.334 257.987 342.131 257.987 341.94C257.987 341.179 258.545 340.696 259.307 340.696C259.827 340.696 260.272 340.938 260.678 341.471C261.389 342.499 262.201 342.956 263.712 342.956C265.185 342.956 266.162 342.334 266.162 341.318C266.162 340.506 265.654 340.062 264.271 339.744L262.087 339.249C259.459 338.652 258.164 337.357 258.164 335.402C258.164 332.901 260.322 331.264 263.649 331.264C266.238 331.264 268.244 332.533 268.663 334.082C268.701 334.247 268.727 334.399 268.727 334.552C268.727 335.212 268.308 335.682 267.508 335.682C267.051 335.682 266.594 335.517 266.302 335.098C265.68 334.171 264.905 333.587 263.572 333.587C262.189 333.587 261.237 334.26 261.237 335.225C261.237 336.012 261.821 336.545 263.217 336.862L265.363 337.332C268.206 337.979 269.336 339.008 269.336 341.001C269.336 343.578 267.026 345.267 263.598 345.267ZM276.722 345.267C273.878 345.267 271.885 344.175 271.237 342.562C271.148 342.334 271.11 342.131 271.11 341.94C271.11 341.179 271.669 340.696 272.431 340.696C272.951 340.696 273.396 340.938 273.802 341.471C274.513 342.499 275.325 342.956 276.836 342.956C278.309 342.956 279.286 342.334 279.286 341.318C279.286 340.506 278.778 340.062 277.395 339.744L275.211 339.249C272.583 338.652 271.288 337.357 271.288 335.402C271.288 332.901 273.446 331.264 276.772 331.264C279.362 331.264 281.368 332.533 281.787 334.082C281.825 334.247 281.851 334.399 281.851 334.552C281.851 335.212 281.432 335.682 280.632 335.682C280.175 335.682 279.718 335.517 279.426 335.098C278.804 334.171 278.029 333.587 276.696 333.587C275.312 333.587 274.36 334.26 274.36 335.225C274.36 336.012 274.944 336.545 276.341 336.862L278.486 337.332C281.33 337.979 282.46 339.008 282.46 341.001C282.46 343.578 280.149 345.267 276.722 345.267ZM290.607 345.267C286.659 345.267 284.095 342.639 284.095 338.271C284.095 333.93 286.684 331.264 290.607 331.264C294.53 331.264 297.12 333.917 297.12 338.271C297.12 342.639 294.555 345.267 290.607 345.267ZM290.607 342.766C292.613 342.766 293.908 341.141 293.908 338.271C293.908 335.415 292.613 333.777 290.607 333.777C288.614 333.777 287.306 335.415 287.306 338.271C287.306 341.141 288.601 342.766 290.607 342.766ZM300.925 345.254C299.999 345.254 299.351 344.657 299.351 343.591V332.876C299.351 331.898 299.922 331.276 300.862 331.276C301.789 331.276 302.423 331.898 302.423 332.876V333.815H302.487C303.211 332.216 304.607 331.289 306.676 331.289C309.647 331.289 311.336 333.193 311.336 336.304V343.591C311.336 344.657 310.688 345.254 309.761 345.254C308.835 345.254 308.174 344.657 308.174 343.591V336.938C308.174 335.034 307.286 333.968 305.483 333.968C303.668 333.968 302.512 335.275 302.512 337.205V343.591C302.512 344.657 301.852 345.254 300.925 345.254ZM321.054 345C320.038 345 319.505 344.441 319.505 343.616C319.505 342.981 319.721 342.601 320.419 341.94L326.018 336.393C328.354 334.082 328.938 333.155 328.938 331.759C328.938 330.121 327.681 328.94 325.916 328.94C324.266 328.94 323.111 329.778 322.463 331.429C322.133 332.089 321.752 332.432 321.003 332.432C320.114 332.432 319.581 331.886 319.581 331.073C319.581 330.832 319.619 330.604 319.683 330.388C320.178 328.407 322.374 326.312 325.942 326.312C329.611 326.312 332.137 328.483 332.137 331.556C332.137 333.701 331.109 335.148 328.074 338.119L323.872 342.258V342.321H331.185C332.048 342.321 332.581 342.854 332.581 343.667C332.581 344.467 332.048 345 331.185 345H321.054Z" fill="white"/>
<path d="M155.932 397.216C154.916 397.216 154.307 396.594 154.307 395.515V381.448H150.117C149.229 381.448 148.619 380.915 148.619 380.064C148.619 379.214 149.216 378.681 150.117 378.681H161.759C162.66 378.681 163.257 379.214 163.257 380.064C163.257 380.915 162.647 381.448 161.759 381.448H157.569V395.515C157.569 396.594 156.96 397.216 155.932 397.216ZM166.846 397.254C165.92 397.254 165.26 396.657 165.26 395.591V380.052C165.26 379.049 165.856 378.427 166.821 378.427C167.799 378.427 168.383 379.049 168.383 380.052V385.854H168.446C169.17 384.216 170.655 383.289 172.699 383.289C175.67 383.289 177.409 385.244 177.409 388.329V395.591C177.409 396.657 176.749 397.254 175.822 397.254C174.895 397.254 174.248 396.657 174.248 395.591V388.977C174.248 387.098 173.308 385.968 171.48 385.968C169.576 385.968 168.421 387.288 168.421 389.269V395.591C168.421 396.657 167.773 397.254 166.846 397.254ZM186.128 397.267C182.014 397.267 179.589 394.689 179.589 390.322C179.589 386.031 182.065 383.264 185.95 383.264C189.631 383.264 192.145 385.879 192.145 389.535C192.145 390.475 191.612 391.033 190.672 391.033H182.738V391.135C182.738 393.382 184.046 394.829 186.102 394.829C187.524 394.829 188.451 394.334 189.466 393.039C189.796 392.671 190.088 392.531 190.533 392.531C191.244 392.531 191.802 392.988 191.802 393.75C191.802 393.991 191.726 394.271 191.587 394.55C190.698 396.264 188.692 397.267 186.128 397.267ZM182.763 388.951H189.047C188.984 386.996 187.74 385.714 185.962 385.714C184.185 385.714 182.89 387.021 182.763 388.951ZM206.561 397.305C202.904 397.305 200.467 395.781 199.756 393.699C199.642 393.395 199.578 393.064 199.578 392.76C199.578 391.846 200.162 391.262 201.026 391.262C201.749 391.262 202.206 391.554 202.562 392.29C203.133 393.877 204.707 394.588 206.662 394.588C208.871 394.588 210.42 393.496 210.42 391.973C210.42 390.652 209.506 389.84 207.119 389.345L205.152 388.938C201.483 388.189 199.769 386.463 199.769 383.784C199.769 380.56 202.6 378.376 206.573 378.376C209.811 378.376 212.324 379.823 213.073 382.248C213.15 382.451 213.188 382.692 213.188 382.997C213.188 383.797 212.616 384.343 211.766 384.343C211.004 384.343 210.534 384.013 210.192 383.302C209.57 381.753 208.262 381.093 206.548 381.093C204.517 381.093 203.07 382.058 203.07 383.594C203.07 384.838 203.984 385.638 206.269 386.12L208.237 386.526C212.096 387.326 213.721 388.875 213.721 391.592C213.721 395.096 210.966 397.305 206.561 397.305ZM216.942 393.674V385.98H216.092C215.305 385.98 214.822 385.511 214.822 384.749C214.822 384 215.305 383.543 216.092 383.543H216.942V381.753C216.942 380.737 217.552 380.103 218.529 380.103C219.494 380.103 220.104 380.737 220.104 381.753V383.543H221.563C222.351 383.543 222.833 384 222.833 384.749C222.833 385.511 222.351 385.98 221.563 385.98H220.104V392.988C220.104 394.004 220.459 394.448 221.373 394.524L221.602 394.55C222.439 394.626 222.871 394.981 222.871 395.718C222.871 396.645 222.059 397.14 220.611 397.14H220.484C218.136 397.14 216.942 395.972 216.942 393.674ZM226.575 397.254C225.623 397.254 225.001 396.632 225.001 395.591V384.876C225.001 383.886 225.61 383.276 226.512 383.276C227.387 383.276 228.01 383.886 228.01 384.876V385.904H228.073C228.441 384.33 229.609 383.314 230.955 383.314C231.45 383.314 231.831 383.441 232.072 383.657C232.364 383.898 232.516 384.279 232.516 384.8C232.516 385.295 232.364 385.663 232.047 385.917C231.742 386.184 231.272 386.323 230.65 386.336C228.847 386.349 228.162 387.479 228.162 389.116V395.591C228.162 396.632 227.527 397.254 226.575 397.254ZM235.789 381.651C234.811 381.651 234.037 380.89 234.037 379.938C234.037 378.973 234.811 378.224 235.789 378.224C236.779 378.224 237.553 378.973 237.553 379.938C237.553 380.89 236.779 381.651 235.789 381.651ZM235.789 397.254C234.824 397.254 234.214 396.619 234.214 395.591V384.939C234.214 383.924 234.824 383.276 235.789 383.276C236.754 383.276 237.376 383.924 237.376 384.952V395.591C237.376 396.619 236.754 397.254 235.789 397.254ZM241.803 397.254C240.876 397.254 240.229 396.657 240.229 395.591V384.876C240.229 383.898 240.8 383.276 241.74 383.276C242.666 383.276 243.301 383.898 243.301 384.876V385.815H243.365C244.088 384.216 245.485 383.289 247.554 383.289C250.525 383.289 252.213 385.193 252.213 388.304V395.591C252.213 396.657 251.566 397.254 250.639 397.254C249.712 397.254 249.052 396.657 249.052 395.591V388.938C249.052 387.034 248.163 385.968 246.361 385.968C244.545 385.968 243.39 387.275 243.39 389.205V395.591C243.39 396.657 242.73 397.254 241.803 397.254ZM260.754 402.065C258.177 402.053 256.196 401.062 255.295 399.615C255.105 399.298 255.029 398.993 255.029 398.663C255.029 397.965 255.549 397.444 256.349 397.444C256.793 397.444 257.111 397.597 257.504 397.978C258.558 399.031 259.497 399.539 260.779 399.552C262.925 399.577 264.207 398.371 264.207 396.581V394.436H264.144C263.446 395.883 261.859 396.86 259.929 396.86C256.552 396.86 254.394 394.245 254.394 390.106C254.394 385.892 256.527 383.314 259.992 383.314C261.909 383.314 263.395 384.305 264.169 385.828H264.22V384.889C264.22 383.848 264.905 383.276 265.807 383.276C266.721 383.276 267.381 383.848 267.381 384.889V396.568C267.381 399.958 264.905 402.091 260.754 402.065ZM260.894 394.397C262.912 394.397 264.233 392.76 264.233 390.132C264.233 387.517 262.912 385.815 260.894 385.815C258.901 385.815 257.631 387.491 257.631 390.132C257.631 392.798 258.901 394.397 260.894 394.397ZM275.351 397.267C272.507 397.267 270.514 396.175 269.866 394.562C269.777 394.334 269.739 394.131 269.739 393.94C269.739 393.179 270.298 392.696 271.06 392.696C271.58 392.696 272.024 392.938 272.431 393.471C273.142 394.499 273.954 394.956 275.465 394.956C276.938 394.956 277.915 394.334 277.915 393.318C277.915 392.506 277.407 392.062 276.023 391.744L273.84 391.249C271.212 390.652 269.917 389.357 269.917 387.402C269.917 384.901 272.075 383.264 275.401 383.264C277.991 383.264 279.997 384.533 280.416 386.082C280.454 386.247 280.479 386.399 280.479 386.552C280.479 387.212 280.061 387.682 279.261 387.682C278.804 387.682 278.347 387.517 278.055 387.098C277.433 386.171 276.658 385.587 275.325 385.587C273.941 385.587 272.989 386.26 272.989 387.225C272.989 388.012 273.573 388.545 274.97 388.862L277.115 389.332C279.959 389.979 281.089 391.008 281.089 393.001C281.089 395.578 278.778 397.267 275.351 397.267Z" fill="white"/>
<path d="M183.308 449.216C182.292 449.216 181.683 448.594 181.683 447.515V433.448H177.493C176.604 433.448 175.995 432.915 175.995 432.064C175.995 431.214 176.592 430.681 177.493 430.681H189.135C190.036 430.681 190.633 431.214 190.633 432.064C190.633 432.915 190.023 433.448 189.135 433.448H184.945V447.515C184.945 448.594 184.336 449.216 183.308 449.216ZM195.149 449.241C192.229 449.241 190.376 447.35 190.376 444.239V436.939C190.376 435.886 191.023 435.276 191.95 435.276C192.877 435.276 193.537 435.886 193.537 436.952V443.604C193.537 445.534 194.476 446.575 196.254 446.575C198.082 446.575 199.212 445.28 199.212 443.325V436.939C199.212 435.886 199.872 435.276 200.799 435.276C201.713 435.276 202.373 435.886 202.373 436.952V447.654C202.373 448.67 201.763 449.254 200.862 449.254C199.948 449.254 199.326 448.67 199.326 447.654V446.664H199.262C198.552 448.302 197.193 449.241 195.149 449.241ZM206.737 449.254C205.81 449.254 205.163 448.657 205.163 447.591V436.876C205.163 435.898 205.734 435.276 206.673 435.276C207.6 435.276 208.235 435.898 208.235 436.876V437.815H208.298C209.022 436.216 210.419 435.289 212.488 435.289C215.459 435.289 217.147 437.193 217.147 440.304V447.591C217.147 448.657 216.5 449.254 215.573 449.254C214.646 449.254 213.986 448.657 213.986 447.591V440.938C213.986 439.034 213.097 437.968 211.295 437.968C209.479 437.968 208.324 439.275 208.324 441.205V447.591C208.324 448.657 207.664 449.254 206.737 449.254ZM221.537 433.651C220.559 433.651 219.785 432.89 219.785 431.938C219.785 430.973 220.559 430.224 221.537 430.224C222.527 430.224 223.301 430.973 223.301 431.938C223.301 432.89 222.527 433.651 221.537 433.651ZM221.537 449.254C220.572 449.254 219.962 448.619 219.962 447.591V436.939C219.962 435.924 220.572 435.276 221.537 435.276C222.501 435.276 223.123 435.924 223.123 436.952V447.591C223.123 448.619 222.501 449.254 221.537 449.254ZM227.551 449.254C226.624 449.254 225.977 448.657 225.977 447.591V436.876C225.977 435.898 226.548 435.276 227.487 435.276C228.414 435.276 229.049 435.898 229.049 436.876V437.815H229.112C229.836 436.216 231.233 435.289 233.302 435.289C236.273 435.289 237.961 437.193 237.961 440.304V447.591C237.961 448.657 237.314 449.254 236.387 449.254C235.46 449.254 234.8 448.657 234.8 447.591V440.938C234.8 439.034 233.911 437.968 232.109 437.968C230.293 437.968 229.138 439.275 229.138 441.205V447.591C229.138 448.657 228.478 449.254 227.551 449.254ZM246.502 454.065C243.925 454.053 241.944 453.062 241.043 451.615C240.853 451.298 240.776 450.993 240.776 450.663C240.776 449.965 241.297 449.444 242.097 449.444C242.541 449.444 242.858 449.597 243.252 449.978C244.306 451.031 245.245 451.539 246.527 451.552C248.673 451.577 249.955 450.371 249.955 448.581V446.436H249.892C249.193 447.883 247.606 448.86 245.677 448.86C242.3 448.86 240.142 446.245 240.142 442.106C240.142 437.892 242.274 435.314 245.74 435.314C247.657 435.314 249.143 436.305 249.917 437.828H249.968V436.889C249.968 435.848 250.653 435.276 251.555 435.276C252.469 435.276 253.129 435.848 253.129 436.889V448.568C253.129 451.958 250.653 454.091 246.502 454.065ZM246.642 446.397C248.66 446.397 249.98 444.76 249.98 442.132C249.98 439.517 248.66 437.815 246.642 437.815C244.648 437.815 243.379 439.491 243.379 442.132C243.379 444.798 244.648 446.397 246.642 446.397Z" fill="white"/>
<path d="M103.173 501.305C97.8281 501.305 94.502 497.674 94.502 491.771C94.502 485.956 97.8154 482.376 103.109 482.376C106.562 482.376 109.317 484.052 110.333 486.413C110.523 486.845 110.574 487.175 110.574 487.505C110.574 488.368 110.003 488.939 109.127 488.939C108.416 488.939 107.921 488.622 107.515 487.886C106.601 486.07 105.115 485.156 103.122 485.156C99.8213 485.156 97.8535 487.606 97.8535 491.732C97.8535 495.947 99.9102 498.524 103.211 498.524C105.979 498.524 107.896 496.772 107.946 494.208L107.959 493.903H104.709C103.896 493.903 103.338 493.421 103.338 492.646C103.338 491.872 103.896 491.402 104.709 491.402H109.533C110.549 491.402 111.158 492.037 111.158 493.104V493.484C111.158 498.245 108.238 501.305 103.173 501.305ZM118.429 501.241C115.51 501.241 113.656 499.35 113.656 496.239V488.939C113.656 487.886 114.304 487.276 115.23 487.276C116.157 487.276 116.817 487.886 116.817 488.952V495.604C116.817 497.534 117.757 498.575 119.534 498.575C121.362 498.575 122.492 497.28 122.492 495.325V488.939C122.492 487.886 123.152 487.276 124.079 487.276C124.993 487.276 125.653 487.886 125.653 488.952V499.654C125.653 500.67 125.044 501.254 124.142 501.254C123.228 501.254 122.606 500.67 122.606 499.654V498.664H122.543C121.832 500.302 120.473 501.241 118.429 501.241ZM130.093 485.651C129.116 485.651 128.341 484.89 128.341 483.938C128.341 482.973 129.116 482.224 130.093 482.224C131.084 482.224 131.858 482.973 131.858 483.938C131.858 484.89 131.084 485.651 130.093 485.651ZM130.093 501.254C129.129 501.254 128.519 500.619 128.519 499.591V488.939C128.519 487.924 129.129 487.276 130.093 487.276C131.058 487.276 131.68 487.924 131.68 488.952V499.591C131.68 500.619 131.058 501.254 130.093 501.254ZM135.41 497.674V489.98H134.559C133.772 489.98 133.289 489.511 133.289 488.749C133.289 488 133.772 487.543 134.559 487.543H135.41V485.753C135.41 484.737 136.019 484.103 136.996 484.103C137.961 484.103 138.571 484.737 138.571 485.753V487.543H140.031C140.818 487.543 141.3 488 141.3 488.749C141.3 489.511 140.818 489.98 140.031 489.98H138.571V496.988C138.571 498.004 138.926 498.448 139.84 498.524L140.069 498.55C140.907 498.626 141.338 498.981 141.338 499.718C141.338 500.645 140.526 501.14 139.079 501.14H138.952C136.603 501.14 135.41 499.972 135.41 497.674ZM147.238 501.216C144.636 501.216 142.744 499.578 142.744 497.153C142.744 494.767 144.585 493.332 147.861 493.129L151.428 492.926V491.961C151.428 490.552 150.476 489.739 148.914 489.739C147.683 489.739 146.883 490.158 146.096 491.313C145.766 491.745 145.347 491.948 144.814 491.948C144.039 491.948 143.481 491.44 143.481 490.679C143.481 490.387 143.557 490.107 143.696 489.815C144.382 488.254 146.464 487.264 149.041 487.264C152.38 487.264 154.551 489.028 154.551 491.732V499.667C154.551 500.683 153.904 501.254 153.015 501.254C152.152 501.254 151.555 500.733 151.504 499.794V498.854H151.441C150.666 500.314 148.978 501.216 147.238 501.216ZM148.203 498.829C149.981 498.829 151.428 497.636 151.428 496.011V494.982L148.305 495.173C146.781 495.274 145.905 495.96 145.905 497.026C145.905 498.131 146.832 498.829 148.203 498.829ZM158.877 501.254C157.925 501.254 157.303 500.632 157.303 499.591V488.876C157.303 487.886 157.912 487.276 158.813 487.276C159.689 487.276 160.312 487.886 160.312 488.876V489.904H160.375C160.743 488.33 161.911 487.314 163.257 487.314C163.752 487.314 164.133 487.441 164.374 487.657C164.666 487.898 164.818 488.279 164.818 488.8C164.818 489.295 164.666 489.663 164.349 489.917C164.044 490.184 163.574 490.323 162.952 490.336C161.149 490.349 160.464 491.479 160.464 493.116V499.591C160.464 500.632 159.829 501.254 158.877 501.254ZM173.8 501.216C172.785 501.216 172.163 500.594 172.163 499.515V484.382C172.163 483.315 172.785 482.681 173.8 482.681H182.56C183.462 482.681 184.058 483.214 184.058 484.064C184.058 484.915 183.449 485.448 182.56 485.448H175.438V490.856H181.9C182.763 490.856 183.335 491.364 183.335 492.189C183.335 493.015 182.763 493.522 181.9 493.522H175.438V499.515C175.438 500.594 174.829 501.216 173.8 501.216ZM187.686 501.254C186.734 501.254 186.112 500.632 186.112 499.591V488.876C186.112 487.886 186.721 487.276 187.622 487.276C188.498 487.276 189.121 487.886 189.121 488.876V489.904H189.184C189.552 488.33 190.72 487.314 192.066 487.314C192.561 487.314 192.942 487.441 193.183 487.657C193.475 487.898 193.627 488.279 193.627 488.8C193.627 489.295 193.475 489.663 193.158 489.917C192.853 490.184 192.383 490.323 191.761 490.336C189.958 490.349 189.273 491.479 189.273 493.116V499.591C189.273 500.632 188.638 501.254 187.686 501.254ZM200.721 501.267C196.608 501.267 194.183 498.689 194.183 494.322C194.183 490.031 196.658 487.264 200.543 487.264C204.225 487.264 206.738 489.879 206.738 493.535C206.738 494.475 206.205 495.033 205.266 495.033H197.331V495.135C197.331 497.382 198.639 498.829 200.696 498.829C202.117 498.829 203.044 498.334 204.06 497.039C204.39 496.671 204.682 496.531 205.126 496.531C205.837 496.531 206.396 496.988 206.396 497.75C206.396 497.991 206.32 498.271 206.18 498.55C205.291 500.264 203.285 501.267 200.721 501.267ZM197.357 492.951H203.641C203.577 490.996 202.333 489.714 200.556 489.714C198.779 489.714 197.484 491.021 197.357 492.951ZM209.858 497.674V489.98H209.008C208.221 489.98 207.738 489.511 207.738 488.749C207.738 488 208.221 487.543 209.008 487.543H209.858V485.753C209.858 484.737 210.468 484.103 211.445 484.103C212.41 484.103 213.02 484.737 213.02 485.753V487.543H214.479C215.267 487.543 215.749 488 215.749 488.749C215.749 489.511 215.267 489.98 214.479 489.98H213.02V496.988C213.02 498.004 213.375 498.448 214.289 498.524L214.518 498.55C215.355 498.626 215.787 498.981 215.787 499.718C215.787 500.645 214.975 501.14 213.527 501.14H213.4C211.052 501.14 209.858 499.972 209.858 497.674ZM223.109 501.267C220.265 501.267 218.272 500.175 217.625 498.562C217.536 498.334 217.498 498.131 217.498 497.94C217.498 497.179 218.056 496.696 218.818 496.696C219.339 496.696 219.783 496.938 220.189 497.471C220.9 498.499 221.713 498.956 223.223 498.956C224.696 498.956 225.674 498.334 225.674 497.318C225.674 496.506 225.166 496.062 223.782 495.744L221.598 495.249C218.971 494.652 217.676 493.357 217.676 491.402C217.676 488.901 219.834 487.264 223.16 487.264C225.75 487.264 227.756 488.533 228.175 490.082C228.213 490.247 228.238 490.399 228.238 490.552C228.238 491.212 227.819 491.682 227.019 491.682C226.562 491.682 226.105 491.517 225.813 491.098C225.191 490.171 224.417 489.587 223.084 489.587C221.7 489.587 220.748 490.26 220.748 491.225C220.748 492.012 221.332 492.545 222.728 492.862L224.874 493.332C227.718 493.979 228.847 495.008 228.847 497.001C228.847 499.578 226.537 501.267 223.109 501.267ZM238.401 501C237.385 501 236.763 500.365 236.763 499.299V484.166C236.763 483.087 237.385 482.465 238.401 482.465C239.429 482.465 240.038 483.087 240.038 484.166V498.232H247.059C247.948 498.232 248.557 498.766 248.557 499.616C248.557 500.467 247.96 501 247.059 501H238.401ZM256.311 501.267C252.197 501.267 249.773 498.689 249.773 494.322C249.773 490.031 252.248 487.264 256.133 487.264C259.815 487.264 262.328 489.879 262.328 493.535C262.328 494.475 261.795 495.033 260.856 495.033H252.921V495.135C252.921 497.382 254.229 498.829 256.285 498.829C257.707 498.829 258.634 498.334 259.65 497.039C259.98 496.671 260.272 496.531 260.716 496.531C261.427 496.531 261.986 496.988 261.986 497.75C261.986 497.991 261.909 498.271 261.77 498.55C260.881 500.264 258.875 501.267 256.311 501.267ZM252.946 492.951H259.231C259.167 490.996 257.923 489.714 256.146 489.714C254.368 489.714 253.073 491.021 252.946 492.951ZM269.765 501.267C266.921 501.267 264.928 500.175 264.28 498.562C264.191 498.334 264.153 498.131 264.153 497.94C264.153 497.179 264.712 496.696 265.474 496.696C265.994 496.696 266.438 496.938 266.845 497.471C267.556 498.499 268.368 498.956 269.879 498.956C271.352 498.956 272.329 498.334 272.329 497.318C272.329 496.506 271.821 496.062 270.438 495.744L268.254 495.249C265.626 494.652 264.331 493.357 264.331 491.402C264.331 488.901 266.489 487.264 269.815 487.264C272.405 487.264 274.411 488.533 274.83 490.082C274.868 490.247 274.894 490.399 274.894 490.552C274.894 491.212 274.475 491.682 273.675 491.682C273.218 491.682 272.761 491.517 272.469 491.098C271.847 490.171 271.072 489.587 269.739 489.587C268.355 489.587 267.403 490.26 267.403 491.225C267.403 492.012 267.987 492.545 269.384 492.862L271.529 493.332C274.373 493.979 275.503 495.008 275.503 497.001C275.503 499.578 273.192 501.267 269.765 501.267ZM282.888 501.267C280.045 501.267 278.052 500.175 277.404 498.562C277.315 498.334 277.277 498.131 277.277 497.94C277.277 497.179 277.836 496.696 278.597 496.696C279.118 496.696 279.562 496.938 279.969 497.471C280.679 498.499 281.492 498.956 283.003 498.956C284.475 498.956 285.453 498.334 285.453 497.318C285.453 496.506 284.945 496.062 283.561 495.744L281.378 495.249C278.75 494.652 277.455 493.357 277.455 491.402C277.455 488.901 279.613 487.264 282.939 487.264C285.529 487.264 287.535 488.533 287.954 490.082C287.992 490.247 288.017 490.399 288.017 490.552C288.017 491.212 287.598 491.682 286.799 491.682C286.342 491.682 285.885 491.517 285.593 491.098C284.971 490.171 284.196 489.587 282.863 489.587C281.479 489.587 280.527 490.26 280.527 491.225C280.527 492.012 281.111 492.545 282.508 492.862L284.653 493.332C287.497 493.979 288.627 495.008 288.627 497.001C288.627 499.578 286.316 501.267 282.888 501.267ZM296.774 501.267C292.826 501.267 290.261 498.639 290.261 494.271C290.261 489.93 292.851 487.264 296.774 487.264C300.697 487.264 303.287 489.917 303.287 494.271C303.287 498.639 300.722 501.267 296.774 501.267ZM296.774 498.766C298.78 498.766 300.075 497.141 300.075 494.271C300.075 491.415 298.78 489.777 296.774 489.777C294.781 489.777 293.473 491.415 293.473 494.271C293.473 497.141 294.768 498.766 296.774 498.766ZM307.092 501.254C306.165 501.254 305.518 500.657 305.518 499.591V488.876C305.518 487.898 306.089 487.276 307.029 487.276C307.955 487.276 308.59 487.898 308.59 488.876V489.815H308.654C309.377 488.216 310.774 487.289 312.843 487.289C315.814 487.289 317.502 489.193 317.502 492.304V499.591C317.502 500.657 316.855 501.254 315.928 501.254C315.001 501.254 314.341 500.657 314.341 499.591V492.938C314.341 491.034 313.453 489.968 311.65 489.968C309.834 489.968 308.679 491.275 308.679 493.205V499.591C308.679 500.657 308.019 501.254 307.092 501.254ZM331.931 501.254C330.979 501.254 330.318 500.594 330.318 499.604V485.854H330.255L327.297 487.911C326.979 488.14 326.726 488.229 326.37 488.229C325.685 488.229 325.189 487.733 325.189 487.01C325.189 486.502 325.393 486.121 325.938 485.74L329.684 483.112C330.496 482.541 331.004 482.427 331.689 482.427C332.845 482.427 333.543 483.125 333.543 484.255V499.604C333.543 500.594 332.883 501.254 331.931 501.254Z" fill="white"/>
<path d="M101.573 553.305C96.2285 553.305 92.9023 549.674 92.9023 543.771C92.9023 537.956 96.2158 534.376 101.51 534.376C104.963 534.376 107.718 536.052 108.733 538.413C108.924 538.845 108.975 539.175 108.975 539.505C108.975 540.368 108.403 540.939 107.527 540.939C106.816 540.939 106.321 540.622 105.915 539.886C105.001 538.07 103.516 537.156 101.522 537.156C98.2217 537.156 96.2539 539.606 96.2539 543.732C96.2539 547.947 98.3105 550.524 101.611 550.524C104.379 550.524 106.296 548.772 106.347 546.208L106.359 545.903H103.109C102.297 545.903 101.738 545.421 101.738 544.646C101.738 543.872 102.297 543.402 103.109 543.402H107.934C108.949 543.402 109.559 544.037 109.559 545.104V545.484C109.559 550.245 106.639 553.305 101.573 553.305ZM116.83 553.241C113.91 553.241 112.056 551.35 112.056 548.239V540.939C112.056 539.886 112.704 539.276 113.631 539.276C114.557 539.276 115.218 539.886 115.218 540.952V547.604C115.218 549.534 116.157 550.575 117.934 550.575C119.763 550.575 120.892 549.28 120.892 547.325V540.939C120.892 539.886 121.553 539.276 122.479 539.276C123.393 539.276 124.054 539.886 124.054 540.952V551.654C124.054 552.67 123.444 553.254 122.543 553.254C121.629 553.254 121.007 552.67 121.007 551.654V550.664H120.943C120.232 552.302 118.874 553.241 116.83 553.241ZM128.494 537.651C127.516 537.651 126.742 536.89 126.742 535.938C126.742 534.973 127.516 534.224 128.494 534.224C129.484 534.224 130.258 534.973 130.258 535.938C130.258 536.89 129.484 537.651 128.494 537.651ZM128.494 553.254C127.529 553.254 126.92 552.619 126.92 551.591V540.939C126.92 539.924 127.529 539.276 128.494 539.276C129.459 539.276 130.081 539.924 130.081 540.952V551.591C130.081 552.619 129.459 553.254 128.494 553.254ZM133.81 549.674V541.98H132.959C132.172 541.98 131.69 541.511 131.69 540.749C131.69 540 132.172 539.543 132.959 539.543H133.81V537.753C133.81 536.737 134.419 536.103 135.397 536.103C136.362 536.103 136.971 536.737 136.971 537.753V539.543H138.431C139.218 539.543 139.701 540 139.701 540.749C139.701 541.511 139.218 541.98 138.431 541.98H136.971V548.988C136.971 550.004 137.327 550.448 138.241 550.524L138.469 550.55C139.307 550.626 139.739 550.981 139.739 551.718C139.739 552.645 138.926 553.14 137.479 553.14H137.352C135.003 553.14 133.81 551.972 133.81 549.674ZM145.639 553.216C143.036 553.216 141.145 551.578 141.145 549.153C141.145 546.767 142.986 545.332 146.261 545.129L149.828 544.926V543.961C149.828 542.552 148.876 541.739 147.315 541.739C146.083 541.739 145.283 542.158 144.496 543.313C144.166 543.745 143.747 543.948 143.214 543.948C142.44 543.948 141.881 543.44 141.881 542.679C141.881 542.387 141.957 542.107 142.097 541.815C142.782 540.254 144.864 539.264 147.442 539.264C150.78 539.264 152.951 541.028 152.951 543.732V551.667C152.951 552.683 152.304 553.254 151.415 553.254C150.552 553.254 149.955 552.733 149.904 551.794V550.854H149.841C149.067 552.314 147.378 553.216 145.639 553.216ZM146.604 550.829C148.381 550.829 149.828 549.636 149.828 548.011V546.982L146.705 547.173C145.182 547.274 144.306 547.96 144.306 549.026C144.306 550.131 145.233 550.829 146.604 550.829ZM157.277 553.254C156.325 553.254 155.703 552.632 155.703 551.591V540.876C155.703 539.886 156.312 539.276 157.214 539.276C158.09 539.276 158.712 539.886 158.712 540.876V541.904H158.775C159.144 540.33 160.312 539.314 161.657 539.314C162.152 539.314 162.533 539.441 162.774 539.657C163.066 539.898 163.219 540.279 163.219 540.8C163.219 541.295 163.066 541.663 162.749 541.917C162.444 542.184 161.975 542.323 161.353 542.336C159.55 542.349 158.864 543.479 158.864 545.116V551.591C158.864 552.632 158.229 553.254 157.277 553.254ZM172.201 553.216C171.185 553.216 170.563 552.594 170.563 551.515V536.382C170.563 535.315 171.185 534.681 172.201 534.681H180.961C181.862 534.681 182.459 535.214 182.459 536.064C182.459 536.915 181.849 537.448 180.961 537.448H173.838V542.856H180.3C181.164 542.856 181.735 543.364 181.735 544.189C181.735 545.015 181.164 545.522 180.3 545.522H173.838V551.515C173.838 552.594 173.229 553.216 172.201 553.216ZM186.086 553.254C185.134 553.254 184.512 552.632 184.512 551.591V540.876C184.512 539.886 185.121 539.276 186.023 539.276C186.899 539.276 187.521 539.886 187.521 540.876V541.904H187.584C187.953 540.33 189.121 539.314 190.466 539.314C190.961 539.314 191.342 539.441 191.583 539.657C191.875 539.898 192.028 540.279 192.028 540.8C192.028 541.295 191.875 541.663 191.558 541.917C191.253 542.184 190.784 542.323 190.162 542.336C188.359 542.349 187.673 543.479 187.673 545.116V551.591C187.673 552.632 187.038 553.254 186.086 553.254ZM199.121 553.267C195.008 553.267 192.583 550.689 192.583 546.322C192.583 542.031 195.059 539.264 198.944 539.264C202.625 539.264 205.139 541.879 205.139 545.535C205.139 546.475 204.606 547.033 203.666 547.033H195.732V547.135C195.732 549.382 197.039 550.829 199.096 550.829C200.518 550.829 201.445 550.334 202.46 549.039C202.79 548.671 203.082 548.531 203.527 548.531C204.238 548.531 204.796 548.988 204.796 549.75C204.796 549.991 204.72 550.271 204.58 550.55C203.692 552.264 201.686 553.267 199.121 553.267ZM195.757 544.951H202.041C201.978 542.996 200.734 541.714 198.956 541.714C197.179 541.714 195.884 543.021 195.757 544.951ZM208.259 549.674V541.98H207.408C206.621 541.98 206.139 541.511 206.139 540.749C206.139 540 206.621 539.543 207.408 539.543H208.259V537.753C208.259 536.737 208.868 536.103 209.846 536.103C210.811 536.103 211.42 536.737 211.42 537.753V539.543H212.88C213.667 539.543 214.149 540 214.149 540.749C214.149 541.511 213.667 541.98 212.88 541.98H211.42V548.988C211.42 550.004 211.775 550.448 212.689 550.524L212.918 550.55C213.756 550.626 214.188 550.981 214.188 551.718C214.188 552.645 213.375 553.14 211.928 553.14H211.801C209.452 553.14 208.259 551.972 208.259 549.674ZM221.51 553.267C218.666 553.267 216.673 552.175 216.025 550.562C215.936 550.334 215.898 550.131 215.898 549.94C215.898 549.179 216.457 548.696 217.219 548.696C217.739 548.696 218.183 548.938 218.59 549.471C219.301 550.499 220.113 550.956 221.624 550.956C223.096 550.956 224.074 550.334 224.074 549.318C224.074 548.506 223.566 548.062 222.182 547.744L219.999 547.249C217.371 546.652 216.076 545.357 216.076 543.402C216.076 540.901 218.234 539.264 221.56 539.264C224.15 539.264 226.156 540.533 226.575 542.082C226.613 542.247 226.638 542.399 226.638 542.552C226.638 543.212 226.22 543.682 225.42 543.682C224.963 543.682 224.506 543.517 224.214 543.098C223.592 542.171 222.817 541.587 221.484 541.587C220.1 541.587 219.148 542.26 219.148 543.225C219.148 544.012 219.732 544.545 221.129 544.862L223.274 545.332C226.118 545.979 227.248 547.008 227.248 549.001C227.248 551.578 224.937 553.267 221.51 553.267ZM236.801 553C235.786 553 235.163 552.365 235.163 551.299V536.166C235.163 535.087 235.786 534.465 236.801 534.465C237.829 534.465 238.439 535.087 238.439 536.166V550.232H245.459C246.348 550.232 246.957 550.766 246.957 551.616C246.957 552.467 246.361 553 245.459 553H236.801ZM254.711 553.267C250.598 553.267 248.173 550.689 248.173 546.322C248.173 542.031 250.649 539.264 254.533 539.264C258.215 539.264 260.729 541.879 260.729 545.535C260.729 546.475 260.196 547.033 259.256 547.033H251.321V547.135C251.321 549.382 252.629 550.829 254.686 550.829C256.108 550.829 257.034 550.334 258.05 549.039C258.38 548.671 258.672 548.531 259.116 548.531C259.827 548.531 260.386 548.988 260.386 549.75C260.386 549.991 260.31 550.271 260.17 550.55C259.281 552.264 257.276 553.267 254.711 553.267ZM251.347 544.951H257.631C257.568 542.996 256.323 541.714 254.546 541.714C252.769 541.714 251.474 543.021 251.347 544.951ZM268.165 553.267C265.321 553.267 263.328 552.175 262.681 550.562C262.592 550.334 262.554 550.131 262.554 549.94C262.554 549.179 263.112 548.696 263.874 548.696C264.395 548.696 264.839 548.938 265.245 549.471C265.956 550.499 266.769 550.956 268.279 550.956C269.752 550.956 270.729 550.334 270.729 549.318C270.729 548.506 270.222 548.062 268.838 547.744L266.654 547.249C264.026 546.652 262.731 545.357 262.731 543.402C262.731 540.901 264.89 539.264 268.216 539.264C270.806 539.264 272.812 540.533 273.23 542.082C273.269 542.247 273.294 542.399 273.294 542.552C273.294 543.212 272.875 543.682 272.075 543.682C271.618 543.682 271.161 543.517 270.869 543.098C270.247 542.171 269.473 541.587 268.14 541.587C266.756 541.587 265.804 542.26 265.804 543.225C265.804 544.012 266.388 544.545 267.784 544.862L269.93 545.332C272.773 545.979 273.903 547.008 273.903 549.001C273.903 551.578 271.593 553.267 268.165 553.267ZM281.289 553.267C278.445 553.267 276.452 552.175 275.804 550.562C275.716 550.334 275.678 550.131 275.678 549.94C275.678 549.179 276.236 548.696 276.998 548.696C277.518 548.696 277.963 548.938 278.369 549.471C279.08 550.499 279.892 550.956 281.403 550.956C282.876 550.956 283.853 550.334 283.853 549.318C283.853 548.506 283.346 548.062 281.962 547.744L279.778 547.249C277.15 546.652 275.855 545.357 275.855 543.402C275.855 540.901 278.013 539.264 281.34 539.264C283.929 539.264 285.935 540.533 286.354 542.082C286.392 542.247 286.418 542.399 286.418 542.552C286.418 543.212 285.999 543.682 285.199 543.682C284.742 543.682 284.285 543.517 283.993 543.098C283.371 542.171 282.596 541.587 281.263 541.587C279.88 541.587 278.928 542.26 278.928 543.225C278.928 544.012 279.512 544.545 280.908 544.862L283.054 545.332C285.897 545.979 287.027 547.008 287.027 549.001C287.027 551.578 284.717 553.267 281.289 553.267ZM295.174 553.267C291.226 553.267 288.662 550.639 288.662 546.271C288.662 541.93 291.252 539.264 295.174 539.264C299.097 539.264 301.687 541.917 301.687 546.271C301.687 550.639 299.123 553.267 295.174 553.267ZM295.174 550.766C297.18 550.766 298.475 549.141 298.475 546.271C298.475 543.415 297.18 541.777 295.174 541.777C293.181 541.777 291.874 543.415 291.874 546.271C291.874 549.141 293.169 550.766 295.174 550.766ZM305.493 553.254C304.566 553.254 303.918 552.657 303.918 551.591V540.876C303.918 539.898 304.49 539.276 305.429 539.276C306.356 539.276 306.991 539.898 306.991 540.876V541.815H307.054C307.778 540.216 309.174 539.289 311.244 539.289C314.214 539.289 315.903 541.193 315.903 544.304V551.591C315.903 552.657 315.255 553.254 314.329 553.254C313.402 553.254 312.742 552.657 312.742 551.591V544.938C312.742 543.034 311.853 541.968 310.05 541.968C308.235 541.968 307.079 543.275 307.079 545.205V551.591C307.079 552.657 306.419 553.254 305.493 553.254ZM325.621 553C324.605 553 324.072 552.441 324.072 551.616C324.072 550.981 324.288 550.601 324.986 549.94L330.585 544.393C332.921 542.082 333.505 541.155 333.505 539.759C333.505 538.121 332.248 536.94 330.483 536.94C328.833 536.94 327.678 537.778 327.03 539.429C326.7 540.089 326.319 540.432 325.57 540.432C324.682 540.432 324.148 539.886 324.148 539.073C324.148 538.832 324.187 538.604 324.25 538.388C324.745 536.407 326.941 534.312 330.509 534.312C334.178 534.312 336.704 536.483 336.704 539.556C336.704 541.701 335.676 543.148 332.642 546.119L328.439 550.258V550.321H335.752C336.615 550.321 337.148 550.854 337.148 551.667C337.148 552.467 336.615 553 335.752 553H325.621Z" fill="white"/>
<path d="M143.646 605.305C138.301 605.305 134.975 601.674 134.975 595.771C134.975 589.956 138.288 586.376 143.582 586.376C147.035 586.376 149.79 588.052 150.806 590.413C150.996 590.845 151.047 591.175 151.047 591.505C151.047 592.368 150.476 592.939 149.6 592.939C148.889 592.939 148.394 592.622 147.988 591.886C147.073 590.07 145.588 589.156 143.595 589.156C140.294 589.156 138.326 591.606 138.326 595.732C138.326 599.947 140.383 602.524 143.684 602.524C146.451 602.524 148.368 600.772 148.419 598.208L148.432 597.903H145.182C144.369 597.903 143.811 597.421 143.811 596.646C143.811 595.872 144.369 595.402 145.182 595.402H150.006C151.022 595.402 151.631 596.037 151.631 597.104V597.484C151.631 602.245 148.711 605.305 143.646 605.305ZM158.902 605.241C155.982 605.241 154.129 603.35 154.129 600.239V592.939C154.129 591.886 154.776 591.276 155.703 591.276C156.63 591.276 157.29 591.886 157.29 592.952V599.604C157.29 601.534 158.229 602.575 160.007 602.575C161.835 602.575 162.965 601.28 162.965 599.325V592.939C162.965 591.886 163.625 591.276 164.552 591.276C165.466 591.276 166.126 591.886 166.126 592.952V603.654C166.126 604.67 165.517 605.254 164.615 605.254C163.701 605.254 163.079 604.67 163.079 603.654V602.664H163.016C162.305 604.302 160.946 605.241 158.902 605.241ZM170.566 589.651C169.589 589.651 168.814 588.89 168.814 587.938C168.814 586.973 169.589 586.224 170.566 586.224C171.556 586.224 172.331 586.973 172.331 587.938C172.331 588.89 171.556 589.651 170.566 589.651ZM170.566 605.254C169.601 605.254 168.992 604.619 168.992 603.591V592.939C168.992 591.924 169.601 591.276 170.566 591.276C171.531 591.276 172.153 591.924 172.153 592.952V603.591C172.153 604.619 171.531 605.254 170.566 605.254ZM175.882 601.674V593.98H175.032C174.245 593.98 173.762 593.511 173.762 592.749C173.762 592 174.245 591.543 175.032 591.543H175.882V589.753C175.882 588.737 176.492 588.103 177.469 588.103C178.434 588.103 179.044 588.737 179.044 589.753V591.543H180.504C181.291 591.543 181.773 592 181.773 592.749C181.773 593.511 181.291 593.98 180.504 593.98H179.044V600.988C179.044 602.004 179.399 602.448 180.313 602.524L180.542 602.55C181.379 602.626 181.811 602.981 181.811 603.718C181.811 604.645 180.999 605.14 179.551 605.14H179.424C177.076 605.14 175.882 603.972 175.882 601.674ZM187.711 605.216C185.109 605.216 183.217 603.578 183.217 601.153C183.217 598.767 185.058 597.332 188.333 597.129L191.901 596.926V595.961C191.901 594.552 190.949 593.739 189.387 593.739C188.156 593.739 187.356 594.158 186.569 595.313C186.239 595.745 185.82 595.948 185.287 595.948C184.512 595.948 183.954 595.44 183.954 594.679C183.954 594.387 184.03 594.107 184.169 593.815C184.855 592.254 186.937 591.264 189.514 591.264C192.853 591.264 195.024 593.028 195.024 595.732V603.667C195.024 604.683 194.376 605.254 193.488 605.254C192.624 605.254 192.028 604.733 191.977 603.794V602.854H191.913C191.139 604.314 189.451 605.216 187.711 605.216ZM188.676 602.829C190.454 602.829 191.901 601.636 191.901 600.011V598.982L188.778 599.173C187.254 599.274 186.378 599.96 186.378 601.026C186.378 602.131 187.305 602.829 188.676 602.829ZM199.35 605.254C198.398 605.254 197.776 604.632 197.776 603.591V592.876C197.776 591.886 198.385 591.276 199.286 591.276C200.162 591.276 200.784 591.886 200.784 592.876V593.904H200.848C201.216 592.33 202.384 591.314 203.73 591.314C204.225 591.314 204.606 591.441 204.847 591.657C205.139 591.898 205.291 592.279 205.291 592.8C205.291 593.295 205.139 593.663 204.821 593.917C204.517 594.184 204.047 594.323 203.425 594.336C201.622 594.349 200.937 595.479 200.937 597.116V603.591C200.937 604.632 200.302 605.254 199.35 605.254ZM220.57 605.305C215.276 605.305 212.013 601.712 212.013 595.834C212.013 589.994 215.327 586.376 220.507 586.376C223.896 586.376 226.575 587.963 227.781 590.642C227.984 591.061 228.086 591.492 228.086 591.873C228.086 592.749 227.514 593.308 226.638 593.308C225.889 593.308 225.394 592.952 225.039 592.152C224.188 590.185 222.525 589.156 220.532 589.156C217.384 589.156 215.365 591.746 215.365 595.834C215.365 599.947 217.371 602.524 220.545 602.524C222.639 602.524 224.252 601.61 225.09 599.681C225.42 598.932 225.839 598.627 226.55 598.627C227.451 598.627 228.073 599.224 228.073 600.087C228.073 600.506 227.971 600.887 227.768 601.318C226.6 603.807 223.998 605.305 220.57 605.305ZM232.475 605.254C231.548 605.254 230.888 604.657 230.888 603.591V588.052C230.888 587.049 231.485 586.427 232.45 586.427C233.427 586.427 234.011 587.049 234.011 588.052V593.854H234.075C234.798 592.216 236.284 591.289 238.328 591.289C241.298 591.289 243.038 593.244 243.038 596.329V603.591C243.038 604.657 242.378 605.254 241.451 605.254C240.524 605.254 239.877 604.657 239.877 603.591V596.977C239.877 595.098 238.937 593.968 237.109 593.968C235.205 593.968 234.049 595.288 234.049 597.269V603.591C234.049 604.657 233.402 605.254 232.475 605.254ZM251.731 605.267C247.783 605.267 245.218 602.639 245.218 598.271C245.218 593.93 247.808 591.264 251.731 591.264C255.654 591.264 258.244 593.917 258.244 598.271C258.244 602.639 255.679 605.267 251.731 605.267ZM251.731 602.766C253.737 602.766 255.032 601.141 255.032 598.271C255.032 595.415 253.737 593.777 251.731 593.777C249.738 593.777 248.43 595.415 248.43 598.271C248.43 601.141 249.725 602.766 251.731 602.766ZM262.049 605.254C261.097 605.254 260.475 604.632 260.475 603.591V592.876C260.475 591.886 261.084 591.276 261.986 591.276C262.862 591.276 263.484 591.886 263.484 592.876V593.904H263.547C263.915 592.33 265.083 591.314 266.429 591.314C266.924 591.314 267.305 591.441 267.546 591.657C267.838 591.898 267.99 592.279 267.99 592.8C267.99 593.295 267.838 593.663 267.521 593.917C267.216 594.184 266.746 594.323 266.124 594.336C264.321 594.349 263.636 595.479 263.636 597.116V603.591C263.636 604.632 263.001 605.254 262.049 605.254ZM274.132 605.216C270.742 605.216 268.546 602.537 268.546 598.259C268.546 594.006 270.742 591.314 274.132 591.314C276.062 591.314 277.585 592.317 278.296 593.803H278.372V588.09C278.372 587.023 279.02 586.427 279.946 586.427C280.873 586.427 281.533 587.023 281.533 588.09V603.667C281.533 604.683 280.886 605.254 279.972 605.254C279.058 605.254 278.372 604.695 278.372 603.667V602.613H278.309C277.661 604.162 276.214 605.216 274.132 605.216ZM275.084 602.626C277.077 602.626 278.385 600.938 278.385 598.271C278.385 595.631 277.077 593.917 275.084 593.917C273.053 593.917 271.783 595.605 271.783 598.271C271.783 600.95 273.04 602.626 275.084 602.626ZM289.579 605.267C286.735 605.267 284.742 604.175 284.095 602.562C284.006 602.334 283.968 602.131 283.968 601.94C283.968 601.179 284.526 600.696 285.288 600.696C285.808 600.696 286.253 600.938 286.659 601.471C287.37 602.499 288.182 602.956 289.693 602.956C291.166 602.956 292.143 602.334 292.143 601.318C292.143 600.506 291.636 600.062 290.252 599.744L288.068 599.249C285.44 598.652 284.145 597.357 284.145 595.402C284.145 592.901 286.304 591.264 289.63 591.264C292.22 591.264 294.225 592.533 294.644 594.082C294.682 594.247 294.708 594.399 294.708 594.552C294.708 595.212 294.289 595.682 293.489 595.682C293.032 595.682 292.575 595.517 292.283 595.098C291.661 594.171 290.887 593.587 289.554 593.587C288.17 593.587 287.218 594.26 287.218 595.225C287.218 596.012 287.802 596.545 289.198 596.862L291.344 597.332C294.187 597.979 295.317 599.008 295.317 601.001C295.317 603.578 293.007 605.267 289.579 605.267Z" fill="white"/>
<path d="M113.577 657.216C112.561 657.216 111.952 656.594 111.952 655.515V641.448H107.762C106.874 641.448 106.264 640.915 106.264 640.064C106.264 639.214 106.861 638.681 107.762 638.681H119.404C120.305 638.681 120.902 639.214 120.902 640.064C120.902 640.915 120.293 641.448 119.404 641.448H115.214V655.515C115.214 656.594 114.605 657.216 113.577 657.216ZM124.492 657.254C123.565 657.254 122.905 656.657 122.905 655.591V640.052C122.905 639.049 123.501 638.427 124.466 638.427C125.444 638.427 126.028 639.049 126.028 640.052V645.854H126.091C126.815 644.216 128.3 643.289 130.344 643.289C133.315 643.289 135.054 645.244 135.054 648.329V655.591C135.054 656.657 134.394 657.254 133.467 657.254C132.54 657.254 131.893 656.657 131.893 655.591V648.977C131.893 647.098 130.954 645.968 129.125 645.968C127.221 645.968 126.066 647.288 126.066 649.269V655.591C126.066 656.657 125.418 657.254 124.492 657.254ZM143.773 657.267C139.659 657.267 137.235 654.689 137.235 650.322C137.235 646.031 139.71 643.264 143.595 643.264C147.277 643.264 149.79 645.879 149.79 649.535C149.79 650.475 149.257 651.033 148.318 651.033H140.383V651.135C140.383 653.382 141.691 654.829 143.747 654.829C145.169 654.829 146.096 654.334 147.112 653.039C147.442 652.671 147.734 652.531 148.178 652.531C148.889 652.531 149.447 652.988 149.447 653.75C149.447 653.991 149.371 654.271 149.232 654.55C148.343 656.264 146.337 657.267 143.773 657.267ZM140.408 648.951H146.693C146.629 646.996 145.385 645.714 143.608 645.714C141.83 645.714 140.535 647.021 140.408 648.951ZM159.394 657.254C158.379 657.254 157.757 656.619 157.757 655.553V640.382C157.757 639.315 158.379 638.681 159.394 638.681H165.031C168.992 638.681 171.366 640.877 171.366 644.381C171.366 646.768 170.147 648.723 168.027 649.548L170.922 654.626C171.201 655.096 171.277 655.375 171.277 655.756C171.277 656.619 170.566 657.254 169.627 657.254C168.852 657.254 168.471 656.975 167.964 656.073L164.701 650.106H161.032V655.553C161.032 656.619 160.41 657.254 159.394 657.254ZM161.032 647.593H164.726C166.808 647.593 168.014 646.438 168.014 644.457C168.014 642.527 166.732 641.334 164.663 641.334H161.032V647.593ZM175.565 657.254C174.638 657.254 173.978 656.657 173.978 655.591V640.052C173.978 639.049 174.575 638.427 175.54 638.427C176.517 638.427 177.101 639.049 177.101 640.052V645.854H177.165C177.888 644.216 179.374 643.289 181.418 643.289C184.388 643.289 186.128 645.244 186.128 648.329V655.591C186.128 656.657 185.467 657.254 184.541 657.254C183.614 657.254 182.966 656.657 182.966 655.591V648.977C182.966 647.098 182.027 645.968 180.199 645.968C178.295 645.968 177.139 647.288 177.139 649.269V655.591C177.139 656.657 176.492 657.254 175.565 657.254ZM190.746 662.002C189.324 662.002 188.549 661.469 188.549 660.504C188.549 659.856 189.006 659.438 189.743 659.438C190.009 659.438 190.136 659.45 190.428 659.45C191.139 659.45 191.875 659.082 192.345 657.901L192.574 657.241L188.168 645.65C188.054 645.333 187.991 645.003 187.991 644.749C187.991 643.886 188.689 643.276 189.616 643.276C190.415 643.276 190.86 643.632 191.126 644.521L194.338 654.309H194.389L197.601 644.508C197.868 643.645 198.325 643.276 199.124 643.276C200.026 643.276 200.661 643.873 200.661 644.711C200.661 644.965 200.597 645.32 200.483 645.625L196.052 657.482C194.833 660.834 193.437 662.002 190.746 662.002ZM203.476 653.674V645.98H202.625C201.838 645.98 201.356 645.511 201.356 644.749C201.356 644 201.838 643.543 202.625 643.543H203.476V641.753C203.476 640.737 204.085 640.103 205.063 640.103C206.028 640.103 206.637 640.737 206.637 641.753V643.543H208.097C208.884 643.543 209.366 644 209.366 644.749C209.366 645.511 208.884 645.98 208.097 645.98H206.637V652.988C206.637 654.004 206.992 654.448 207.906 654.524L208.135 654.55C208.973 654.626 209.404 654.981 209.404 655.718C209.404 656.645 208.592 657.14 207.145 657.14H207.018C204.669 657.14 203.476 655.972 203.476 653.674ZM213.21 657.254C212.283 657.254 211.623 656.657 211.623 655.591V640.052C211.623 639.049 212.22 638.427 213.185 638.427C214.162 638.427 214.746 639.049 214.746 640.052V645.854H214.81C215.533 644.216 217.019 643.289 219.062 643.289C222.033 643.289 223.772 645.244 223.772 648.329V655.591C223.772 656.657 223.112 657.254 222.186 657.254C221.259 657.254 220.611 656.657 220.611 655.591V648.977C220.611 647.098 219.672 645.968 217.844 645.968C215.939 645.968 214.784 647.288 214.784 649.269V655.591C214.784 656.657 214.137 657.254 213.21 657.254ZM228.086 657.254C227.134 657.254 226.512 656.645 226.512 655.591V644.889C226.512 643.86 227.134 643.276 228.022 643.276C228.911 643.276 229.546 643.86 229.546 644.889V645.879H229.609C230.193 644.317 231.615 643.289 233.443 643.289C235.347 643.289 236.706 644.267 237.201 645.993H237.277C237.925 644.33 239.524 643.289 241.467 643.289C244.12 643.289 245.859 645.079 245.859 647.771V655.591C245.859 656.645 245.224 657.254 244.285 657.254C243.333 657.254 242.698 656.645 242.698 655.591V648.545C242.698 646.895 241.835 645.955 240.286 645.955C238.763 645.955 237.721 647.072 237.721 648.685V655.591C237.721 656.645 237.125 657.254 236.185 657.254C235.233 657.254 234.649 656.645 234.649 655.591V648.38C234.649 646.882 233.735 645.955 232.263 645.955C230.739 645.955 229.673 647.136 229.673 648.761V655.591C229.673 656.645 229.025 657.254 228.086 657.254ZM262.37 657.305C257.025 657.305 253.699 653.674 253.699 647.771C253.699 641.956 257.012 638.376 262.306 638.376C265.759 638.376 268.514 640.052 269.53 642.413C269.72 642.845 269.771 643.175 269.771 643.505C269.771 644.368 269.2 644.939 268.324 644.939C267.613 644.939 267.118 644.622 266.711 643.886C265.797 642.07 264.312 641.156 262.319 641.156C259.018 641.156 257.05 643.606 257.05 647.732C257.05 651.947 259.107 654.524 262.408 654.524C265.175 654.524 267.092 652.772 267.143 650.208L267.156 649.903H263.906C263.093 649.903 262.535 649.421 262.535 648.646C262.535 647.872 263.093 647.402 263.906 647.402H268.73C269.746 647.402 270.355 648.037 270.355 649.104V649.484C270.355 654.245 267.435 657.305 262.37 657.305ZM277.626 657.241C274.706 657.241 272.853 655.35 272.853 652.239V644.939C272.853 643.886 273.5 643.276 274.427 643.276C275.354 643.276 276.014 643.886 276.014 644.952V651.604C276.014 653.534 276.953 654.575 278.731 654.575C280.559 654.575 281.689 653.28 281.689 651.325V644.939C281.689 643.886 282.349 643.276 283.276 643.276C284.19 643.276 284.85 643.886 284.85 644.952V655.654C284.85 656.67 284.24 657.254 283.339 657.254C282.425 657.254 281.803 656.67 281.803 655.654V654.664H281.739C281.029 656.302 279.67 657.241 277.626 657.241ZM289.29 641.651C288.312 641.651 287.538 640.89 287.538 639.938C287.538 638.973 288.312 638.224 289.29 638.224C290.28 638.224 291.055 638.973 291.055 639.938C291.055 640.89 290.28 641.651 289.29 641.651ZM289.29 657.254C288.325 657.254 287.716 656.619 287.716 655.591V644.939C287.716 643.924 288.325 643.276 289.29 643.276C290.255 643.276 290.877 643.924 290.877 644.952V655.591C290.877 656.619 290.255 657.254 289.29 657.254ZM294.606 653.674V645.98H293.756C292.969 645.98 292.486 645.511 292.486 644.749C292.486 644 292.969 643.543 293.756 643.543H294.606V641.753C294.606 640.737 295.216 640.103 296.193 640.103C297.158 640.103 297.767 640.737 297.767 641.753V643.543H299.227C300.014 643.543 300.497 644 300.497 644.749C300.497 645.511 300.014 645.98 299.227 645.98H297.767V652.988C297.767 654.004 298.123 654.448 299.037 654.524L299.265 654.55C300.103 654.626 300.535 654.981 300.535 655.718C300.535 656.645 299.722 657.14 298.275 657.14H298.148C295.8 657.14 294.606 655.972 294.606 653.674ZM306.435 657.216C303.833 657.216 301.941 655.578 301.941 653.153C301.941 650.767 303.782 649.332 307.057 649.129L310.625 648.926V647.961C310.625 646.552 309.672 645.739 308.111 645.739C306.879 645.739 306.08 646.158 305.293 647.313C304.962 647.745 304.544 647.948 304.01 647.948C303.236 647.948 302.677 647.44 302.677 646.679C302.677 646.387 302.754 646.107 302.893 645.815C303.579 644.254 305.661 643.264 308.238 643.264C311.577 643.264 313.748 645.028 313.748 647.732V655.667C313.748 656.683 313.1 657.254 312.212 657.254C311.348 657.254 310.752 656.733 310.701 655.794V654.854H310.637C309.863 656.314 308.174 657.216 306.435 657.216ZM307.4 654.829C309.177 654.829 310.625 653.636 310.625 652.011V650.982L307.502 651.173C305.978 651.274 305.102 651.96 305.102 653.026C305.102 654.131 306.029 654.829 307.4 654.829ZM318.074 657.254C317.121 657.254 316.499 656.632 316.499 655.591V644.876C316.499 643.886 317.109 643.276 318.01 643.276C318.886 643.276 319.508 643.886 319.508 644.876V645.904H319.572C319.94 644.33 321.108 643.314 322.454 643.314C322.949 643.314 323.329 643.441 323.571 643.657C323.863 643.898 324.015 644.279 324.015 644.8C324.015 645.295 323.863 645.663 323.545 645.917C323.241 646.184 322.771 646.323 322.149 646.336C320.346 646.349 319.661 647.479 319.661 649.116V655.591C319.661 656.632 319.026 657.254 318.074 657.254Z" fill="white"/>
<path d="M130.446 709.216C129.43 709.216 128.821 708.594 128.821 707.515V693.448H124.631C123.743 693.448 123.133 692.915 123.133 692.064C123.133 691.214 123.73 690.681 124.631 690.681H136.273C137.174 690.681 137.771 691.214 137.771 692.064C137.771 692.915 137.162 693.448 136.273 693.448H132.083V707.515C132.083 708.594 131.474 709.216 130.446 709.216ZM141.361 709.254C140.434 709.254 139.774 708.657 139.774 707.591V692.052C139.774 691.049 140.37 690.427 141.335 690.427C142.313 690.427 142.897 691.049 142.897 692.052V697.854H142.96C143.684 696.216 145.169 695.289 147.213 695.289C150.184 695.289 151.923 697.244 151.923 700.329V707.591C151.923 708.657 151.263 709.254 150.336 709.254C149.409 709.254 148.762 708.657 148.762 707.591V700.977C148.762 699.098 147.822 697.968 145.994 697.968C144.09 697.968 142.935 699.288 142.935 701.269V707.591C142.935 708.657 142.287 709.254 141.361 709.254ZM160.642 709.267C156.528 709.267 154.104 706.689 154.104 702.322C154.104 698.031 156.579 695.264 160.464 695.264C164.146 695.264 166.659 697.879 166.659 701.535C166.659 702.475 166.126 703.033 165.187 703.033H157.252V703.135C157.252 705.382 158.56 706.829 160.616 706.829C162.038 706.829 162.965 706.334 163.98 705.039C164.311 704.671 164.603 704.531 165.047 704.531C165.758 704.531 166.316 704.988 166.316 705.75C166.316 705.991 166.24 706.271 166.101 706.55C165.212 708.264 163.206 709.267 160.642 709.267ZM157.277 700.951H163.562C163.498 698.996 162.254 697.714 160.477 697.714C158.699 697.714 157.404 699.021 157.277 700.951ZM176.263 709C175.248 709 174.626 708.365 174.626 707.299V692.166C174.626 691.087 175.248 690.465 176.263 690.465C177.292 690.465 177.901 691.087 177.901 692.166V706.232H184.921C185.81 706.232 186.42 706.766 186.42 707.616C186.42 708.467 185.823 709 184.921 709H176.263ZM194.173 709.267C190.06 709.267 187.635 706.689 187.635 702.322C187.635 698.031 190.111 695.264 193.996 695.264C197.677 695.264 200.191 697.879 200.191 701.535C200.191 702.475 199.658 703.033 198.718 703.033H190.784V703.135C190.784 705.382 192.091 706.829 194.148 706.829C195.57 706.829 196.496 706.334 197.512 705.039C197.842 704.671 198.134 704.531 198.579 704.531C199.289 704.531 199.848 704.988 199.848 705.75C199.848 705.991 199.772 706.271 199.632 706.55C198.744 708.264 196.738 709.267 194.173 709.267ZM190.809 700.951H197.093C197.03 698.996 195.786 697.714 194.008 697.714C192.231 697.714 190.936 699.021 190.809 700.951ZM206.383 709.216C203.78 709.216 201.889 707.578 201.889 705.153C201.889 702.767 203.73 701.332 207.005 701.129L210.572 700.926V699.961C210.572 698.552 209.62 697.739 208.059 697.739C206.827 697.739 206.028 698.158 205.24 699.313C204.91 699.745 204.491 699.948 203.958 699.948C203.184 699.948 202.625 699.44 202.625 698.679C202.625 698.387 202.701 698.107 202.841 697.815C203.527 696.254 205.609 695.264 208.186 695.264C211.525 695.264 213.696 697.028 213.696 699.732V707.667C213.696 708.683 213.048 709.254 212.159 709.254C211.296 709.254 210.699 708.733 210.649 707.794V706.854H210.585C209.811 708.314 208.122 709.216 206.383 709.216ZM207.348 706.829C209.125 706.829 210.572 705.636 210.572 704.011V702.982L207.449 703.173C205.926 703.274 205.05 703.96 205.05 705.026C205.05 706.131 205.977 706.829 207.348 706.829ZM221.475 709.216C218.085 709.216 215.889 706.537 215.889 702.259C215.889 698.006 218.085 695.314 221.475 695.314C223.404 695.314 224.928 696.317 225.639 697.803H225.715V692.09C225.715 691.023 226.362 690.427 227.289 690.427C228.216 690.427 228.876 691.023 228.876 692.09V707.667C228.876 708.683 228.229 709.254 227.314 709.254C226.4 709.254 225.715 708.695 225.715 707.667V706.613H225.651C225.004 708.162 223.557 709.216 221.475 709.216ZM222.427 706.626C224.42 706.626 225.728 704.938 225.728 702.271C225.728 699.631 224.42 697.917 222.427 697.917C220.396 697.917 219.126 699.605 219.126 702.271C219.126 704.95 220.383 706.626 222.427 706.626ZM245.501 709.305C240.156 709.305 236.83 705.674 236.83 699.771C236.83 693.956 240.143 690.376 245.437 690.376C248.89 690.376 251.645 692.052 252.661 694.413C252.851 694.845 252.902 695.175 252.902 695.505C252.902 696.368 252.331 696.939 251.455 696.939C250.744 696.939 250.249 696.622 249.842 695.886C248.928 694.07 247.443 693.156 245.45 693.156C242.149 693.156 240.181 695.606 240.181 699.732C240.181 703.947 242.238 706.524 245.539 706.524C248.306 706.524 250.223 704.772 250.274 702.208L250.287 701.903H247.037C246.224 701.903 245.666 701.421 245.666 700.646C245.666 699.872 246.224 699.402 247.037 699.402H251.861C252.877 699.402 253.486 700.037 253.486 701.104V701.484C253.486 706.245 250.566 709.305 245.501 709.305ZM260.757 709.241C257.837 709.241 255.984 707.35 255.984 704.239V696.939C255.984 695.886 256.631 695.276 257.558 695.276C258.485 695.276 259.145 695.886 259.145 696.952V703.604C259.145 705.534 260.084 706.575 261.862 706.575C263.69 706.575 264.82 705.28 264.82 703.325V696.939C264.82 695.886 265.48 695.276 266.407 695.276C267.321 695.276 267.981 695.886 267.981 696.952V707.654C267.981 708.67 267.371 709.254 266.47 709.254C265.556 709.254 264.934 708.67 264.934 707.654V706.664H264.871C264.16 708.302 262.801 709.241 260.757 709.241ZM272.421 693.651C271.444 693.651 270.669 692.89 270.669 691.938C270.669 690.973 271.444 690.224 272.421 690.224C273.411 690.224 274.186 690.973 274.186 691.938C274.186 692.89 273.411 693.651 272.421 693.651ZM272.421 709.254C271.456 709.254 270.847 708.619 270.847 707.591V696.939C270.847 695.924 271.456 695.276 272.421 695.276C273.386 695.276 274.008 695.924 274.008 696.952V707.591C274.008 708.619 273.386 709.254 272.421 709.254ZM277.737 705.674V697.98H276.887C276.1 697.98 275.617 697.511 275.617 696.749C275.617 696 276.1 695.543 276.887 695.543H277.737V693.753C277.737 692.737 278.347 692.103 279.324 692.103C280.289 692.103 280.898 692.737 280.898 693.753V695.543H282.358C283.146 695.543 283.628 696 283.628 696.749C283.628 697.511 283.146 697.98 282.358 697.98H280.898V704.988C280.898 706.004 281.254 706.448 282.168 706.524L282.396 706.55C283.234 706.626 283.666 706.981 283.666 707.718C283.666 708.645 282.854 709.14 281.406 709.14H281.279C278.931 709.14 277.737 707.972 277.737 705.674ZM289.566 709.216C286.964 709.216 285.072 707.578 285.072 705.153C285.072 702.767 286.913 701.332 290.188 701.129L293.756 700.926V699.961C293.756 698.552 292.804 697.739 291.242 697.739C290.011 697.739 289.211 698.158 288.424 699.313C288.094 699.745 287.675 699.948 287.141 699.948C286.367 699.948 285.808 699.44 285.808 698.679C285.808 698.387 285.885 698.107 286.024 697.815C286.71 696.254 288.792 695.264 291.369 695.264C294.708 695.264 296.879 697.028 296.879 699.732V707.667C296.879 708.683 296.231 709.254 295.343 709.254C294.479 709.254 293.883 708.733 293.832 707.794V706.854H293.768C292.994 708.314 291.305 709.216 289.566 709.216ZM290.531 706.829C292.308 706.829 293.756 705.636 293.756 704.011V702.982L290.633 703.173C289.109 703.274 288.233 703.96 288.233 705.026C288.233 706.131 289.16 706.829 290.531 706.829ZM301.205 709.254C300.253 709.254 299.63 708.632 299.63 707.591V696.876C299.63 695.886 300.24 695.276 301.141 695.276C302.017 695.276 302.639 695.886 302.639 696.876V697.904H302.703C303.071 696.33 304.239 695.314 305.585 695.314C306.08 695.314 306.461 695.441 306.702 695.657C306.994 695.898 307.146 696.279 307.146 696.8C307.146 697.295 306.994 697.663 306.676 697.917C306.372 698.184 305.902 698.323 305.28 698.336C303.477 698.349 302.792 699.479 302.792 701.116V707.591C302.792 708.632 302.157 709.254 301.205 709.254Z" fill="white"/>
<path d="M80.4006 761.305C75.7668 761.305 72.8723 758.537 72.8723 754.538V744.166C72.8723 743.087 73.4943 742.465 74.51 742.465C75.5383 742.465 76.1477 743.087 76.1477 744.166V754.246C76.1477 756.747 77.6838 758.448 80.4006 758.448C83.1174 758.448 84.6662 756.747 84.6662 754.246V744.166C84.6662 743.087 85.2756 742.465 86.3039 742.465C87.3195 742.465 87.9289 743.087 87.9289 744.166V754.538C87.9289 758.537 85.0471 761.305 80.4006 761.305ZM92.6357 761.254C91.709 761.254 91.0615 760.657 91.0615 759.591V748.876C91.0615 747.898 91.6328 747.276 92.5723 747.276C93.499 747.276 94.1338 747.898 94.1338 748.876V749.815H94.1973C94.9209 748.216 96.3174 747.289 98.3867 747.289C101.357 747.289 103.046 749.193 103.046 752.304V759.591C103.046 760.657 102.398 761.254 101.472 761.254C100.545 761.254 99.8848 760.657 99.8848 759.591V752.938C99.8848 751.034 98.9961 749.968 97.1934 749.968C95.3779 749.968 94.2227 751.275 94.2227 753.205V759.591C94.2227 760.657 93.5625 761.254 92.6357 761.254ZM110.812 761.216C107.423 761.216 105.226 758.537 105.226 754.259C105.226 750.006 107.423 747.314 110.812 747.314C112.742 747.314 114.265 748.317 114.976 749.803H115.053V744.09C115.053 743.023 115.7 742.427 116.627 742.427C117.554 742.427 118.214 743.023 118.214 744.09V759.667C118.214 760.683 117.566 761.254 116.652 761.254C115.738 761.254 115.053 760.695 115.053 759.667V758.613H114.989C114.342 760.162 112.894 761.216 110.812 761.216ZM111.764 758.626C113.758 758.626 115.065 756.938 115.065 754.271C115.065 751.631 113.758 749.917 111.764 749.917C109.733 749.917 108.464 751.605 108.464 754.271C108.464 756.95 109.721 758.626 111.764 758.626ZM127.046 761.267C122.933 761.267 120.508 758.689 120.508 754.322C120.508 750.031 122.984 747.264 126.869 747.264C130.55 747.264 133.064 749.879 133.064 753.535C133.064 754.475 132.531 755.033 131.591 755.033H123.657V755.135C123.657 757.382 124.964 758.829 127.021 758.829C128.443 758.829 129.37 758.334 130.385 757.039C130.715 756.671 131.007 756.531 131.452 756.531C132.163 756.531 132.721 756.988 132.721 757.75C132.721 757.991 132.645 758.271 132.505 758.55C131.617 760.264 129.611 761.267 127.046 761.267ZM123.682 752.951H129.966C129.903 750.996 128.659 749.714 126.881 749.714C125.104 749.714 123.809 751.021 123.682 752.951ZM136.882 761.254C135.93 761.254 135.308 760.632 135.308 759.591V748.876C135.308 747.886 135.917 747.276 136.819 747.276C137.695 747.276 138.317 747.886 138.317 748.876V749.904H138.38C138.748 748.33 139.916 747.314 141.262 747.314C141.757 747.314 142.138 747.441 142.379 747.657C142.671 747.898 142.824 748.279 142.824 748.8C142.824 749.295 142.671 749.663 142.354 749.917C142.049 750.184 141.579 750.323 140.957 750.336C139.155 750.349 138.469 751.479 138.469 753.116V759.591C138.469 760.632 137.834 761.254 136.882 761.254ZM149.638 761.267C146.794 761.267 144.801 760.175 144.154 758.562C144.065 758.334 144.027 758.131 144.027 757.94C144.027 757.179 144.585 756.696 145.347 756.696C145.867 756.696 146.312 756.938 146.718 757.471C147.429 758.499 148.241 758.956 149.752 758.956C151.225 758.956 152.202 758.334 152.202 757.318C152.202 756.506 151.695 756.062 150.311 755.744L148.127 755.249C145.499 754.652 144.204 753.357 144.204 751.402C144.204 748.901 146.363 747.264 149.689 747.264C152.279 747.264 154.284 748.533 154.703 750.082C154.741 750.247 154.767 750.399 154.767 750.552C154.767 751.212 154.348 751.682 153.548 751.682C153.091 751.682 152.634 751.517 152.342 751.098C151.72 750.171 150.946 749.587 149.613 749.587C148.229 749.587 147.277 750.26 147.277 751.225C147.277 752.012 147.861 752.545 149.257 752.862L151.403 753.332C154.246 753.979 155.376 755.008 155.376 757.001C155.376 759.578 153.066 761.267 149.638 761.267ZM158.445 757.674V749.98H157.595C156.808 749.98 156.325 749.511 156.325 748.749C156.325 748 156.808 747.543 157.595 747.543H158.445V745.753C158.445 744.737 159.055 744.103 160.032 744.103C160.997 744.103 161.606 744.737 161.606 745.753V747.543H163.066C163.854 747.543 164.336 748 164.336 748.749C164.336 749.511 163.854 749.98 163.066 749.98H161.606V756.988C161.606 758.004 161.962 758.448 162.876 758.524L163.104 758.55C163.942 758.626 164.374 758.981 164.374 759.718C164.374 760.645 163.562 761.14 162.114 761.14H161.987C159.639 761.14 158.445 759.972 158.445 757.674ZM170.274 761.216C167.672 761.216 165.78 759.578 165.78 757.153C165.78 754.767 167.621 753.332 170.896 753.129L174.464 752.926V751.961C174.464 750.552 173.512 749.739 171.95 749.739C170.719 749.739 169.919 750.158 169.132 751.313C168.802 751.745 168.383 751.948 167.849 751.948C167.075 751.948 166.516 751.44 166.516 750.679C166.516 750.387 166.593 750.107 166.732 749.815C167.418 748.254 169.5 747.264 172.077 747.264C175.416 747.264 177.587 749.028 177.587 751.732V759.667C177.587 760.683 176.939 761.254 176.051 761.254C175.187 761.254 174.591 760.733 174.54 759.794V758.854H174.476C173.702 760.314 172.013 761.216 170.274 761.216ZM171.239 758.829C173.016 758.829 174.464 757.636 174.464 756.011V754.982L171.341 755.173C169.817 755.274 168.941 755.96 168.941 757.026C168.941 758.131 169.868 758.829 171.239 758.829ZM181.913 761.254C180.986 761.254 180.338 760.657 180.338 759.591V748.876C180.338 747.898 180.91 747.276 181.849 747.276C182.776 747.276 183.411 747.898 183.411 748.876V749.815H183.474C184.198 748.216 185.594 747.289 187.664 747.289C190.634 747.289 192.323 749.193 192.323 752.304V759.591C192.323 760.657 191.675 761.254 190.749 761.254C189.822 761.254 189.162 760.657 189.162 759.591V752.938C189.162 751.034 188.273 749.968 186.47 749.968C184.655 749.968 183.5 751.275 183.5 753.205V759.591C183.5 760.657 182.839 761.254 181.913 761.254ZM200.089 761.216C196.7 761.216 194.503 758.537 194.503 754.259C194.503 750.006 196.7 747.314 200.089 747.314C202.019 747.314 203.542 748.317 204.253 749.803H204.329V744.09C204.329 743.023 204.977 742.427 205.904 742.427C206.83 742.427 207.491 743.023 207.491 744.09V759.667C207.491 760.683 206.843 761.254 205.929 761.254C205.015 761.254 204.329 760.695 204.329 759.667V758.613H204.266C203.619 760.162 202.171 761.216 200.089 761.216ZM201.041 758.626C203.035 758.626 204.342 756.938 204.342 754.271C204.342 751.631 203.035 749.917 201.041 749.917C199.01 749.917 197.741 751.605 197.741 754.271C197.741 756.95 198.997 758.626 201.041 758.626ZM211.994 745.651C211.017 745.651 210.242 744.89 210.242 743.938C210.242 742.973 211.017 742.224 211.994 742.224C212.985 742.224 213.759 742.973 213.759 743.938C213.759 744.89 212.985 745.651 211.994 745.651ZM211.994 761.254C211.029 761.254 210.42 760.619 210.42 759.591V748.939C210.42 747.924 211.029 747.276 211.994 747.276C212.959 747.276 213.581 747.924 213.581 748.952V759.591C213.581 760.619 212.959 761.254 211.994 761.254ZM218.009 761.254C217.082 761.254 216.435 760.657 216.435 759.591V748.876C216.435 747.898 217.006 747.276 217.945 747.276C218.872 747.276 219.507 747.898 219.507 748.876V749.815H219.57C220.294 748.216 221.69 747.289 223.76 747.289C226.73 747.289 228.419 749.193 228.419 752.304V759.591C228.419 760.657 227.771 761.254 226.845 761.254C225.918 761.254 225.258 760.657 225.258 759.591V752.938C225.258 751.034 224.369 749.968 222.566 749.968C220.751 749.968 219.596 751.275 219.596 753.205V759.591C219.596 760.657 218.936 761.254 218.009 761.254ZM236.96 766.065C234.383 766.053 232.402 765.062 231.501 763.615C231.31 763.298 231.234 762.993 231.234 762.663C231.234 761.965 231.755 761.444 232.554 761.444C232.999 761.444 233.316 761.597 233.71 761.978C234.763 763.031 235.703 763.539 236.985 763.552C239.131 763.577 240.413 762.371 240.413 760.581V758.436H240.349C239.651 759.883 238.064 760.86 236.135 760.86C232.758 760.86 230.599 758.245 230.599 754.106C230.599 749.892 232.732 747.314 236.198 747.314C238.115 747.314 239.6 748.305 240.375 749.828H240.426V748.889C240.426 747.848 241.111 747.276 242.012 747.276C242.927 747.276 243.587 747.848 243.587 748.889V760.568C243.587 763.958 241.111 766.091 236.96 766.065ZM237.099 758.397C239.118 758.397 240.438 756.76 240.438 754.132C240.438 751.517 239.118 749.815 237.099 749.815C235.106 749.815 233.837 751.491 233.837 754.132C233.837 756.798 235.106 758.397 237.099 758.397ZM258.193 761.216C257.177 761.216 256.568 760.594 256.568 759.515V745.448H252.378C251.49 745.448 250.88 744.915 250.88 744.064C250.88 743.214 251.477 742.681 252.378 742.681H264.02C264.921 742.681 265.518 743.214 265.518 744.064C265.518 744.915 264.909 745.448 264.02 745.448H259.83V759.515C259.83 760.594 259.221 761.216 258.193 761.216ZM268.155 761.216C265.553 761.216 263.661 759.578 263.661 757.153C263.661 754.767 265.502 753.332 268.778 753.129L272.345 752.926V751.961C272.345 750.552 271.393 749.739 269.831 749.739C268.6 749.739 267.8 750.158 267.013 751.313C266.683 751.745 266.264 751.948 265.731 751.948C264.956 751.948 264.398 751.44 264.398 750.679C264.398 750.387 264.474 750.107 264.613 749.815C265.299 748.254 267.381 747.264 269.958 747.264C273.297 747.264 275.468 749.028 275.468 751.732V759.667C275.468 760.683 274.821 761.254 273.932 761.254C273.069 761.254 272.472 760.733 272.421 759.794V758.854H272.358C271.583 760.314 269.895 761.216 268.155 761.216ZM269.12 758.829C270.898 758.829 272.345 757.636 272.345 756.011V754.982L269.222 755.173C267.698 755.274 266.822 755.96 266.822 757.026C266.822 758.131 267.749 758.829 269.12 758.829ZM279.845 761.254C278.931 761.254 278.309 760.695 278.309 759.667V744.09C278.309 743.023 278.969 742.427 279.896 742.427C280.822 742.427 281.47 743.023 281.47 744.09V749.854H281.546C282.32 748.279 283.844 747.314 285.761 747.314C289.15 747.314 291.309 749.968 291.309 754.271C291.309 758.575 289.163 761.216 285.748 761.216C283.78 761.216 282.27 760.264 281.47 758.702H281.406V759.667C281.406 760.683 280.759 761.254 279.845 761.254ZM284.783 758.626C286.802 758.626 288.071 756.95 288.071 754.271C288.071 751.605 286.802 749.917 284.783 749.917C282.828 749.917 281.457 751.656 281.457 754.271C281.457 756.912 282.828 758.626 284.783 758.626ZM295.228 761.254C294.302 761.254 293.641 760.657 293.641 759.591V744.09C293.641 743.023 294.302 742.427 295.228 742.427C296.155 742.427 296.803 743.023 296.803 744.09V759.591C296.803 760.657 296.155 761.254 295.228 761.254ZM303.642 761.216C301.04 761.216 299.148 759.578 299.148 757.153C299.148 754.767 300.989 753.332 304.264 753.129L307.832 752.926V751.961C307.832 750.552 306.88 749.739 305.318 749.739C304.087 749.739 303.287 750.158 302.5 751.313C302.17 751.745 301.751 751.948 301.217 751.948C300.443 751.948 299.884 751.44 299.884 750.679C299.884 750.387 299.961 750.107 300.1 749.815C300.786 748.254 302.868 747.264 305.445 747.264C308.784 747.264 310.955 749.028 310.955 751.732V759.667C310.955 760.683 310.307 761.254 309.419 761.254C308.555 761.254 307.959 760.733 307.908 759.794V758.854H307.844C307.07 760.314 305.381 761.216 303.642 761.216ZM304.607 758.829C306.384 758.829 307.832 757.636 307.832 756.011V754.982L304.709 755.173C303.185 755.274 302.309 755.96 302.309 757.026C302.309 758.131 303.236 758.829 304.607 758.829ZM314.582 757.674V749.98H313.732C312.945 749.98 312.462 749.511 312.462 748.749C312.462 748 312.945 747.543 313.732 747.543H314.582V745.753C314.582 744.737 315.192 744.103 316.169 744.103C317.134 744.103 317.744 744.737 317.744 745.753V747.543H319.204C319.991 747.543 320.473 748 320.473 748.749C320.473 749.511 319.991 749.98 319.204 749.98H317.744V756.988C317.744 758.004 318.099 758.448 319.013 758.524L319.242 758.55C320.079 758.626 320.511 758.981 320.511 759.718C320.511 760.645 319.699 761.14 318.251 761.14H318.124C315.776 761.14 314.582 759.972 314.582 757.674ZM327.351 761.241C324.431 761.241 322.577 759.35 322.577 756.239V748.939C322.577 747.886 323.225 747.276 324.152 747.276C325.078 747.276 325.738 747.886 325.738 748.952V755.604C325.738 757.534 326.678 758.575 328.455 758.575C330.283 758.575 331.413 757.28 331.413 755.325V748.939C331.413 747.886 332.073 747.276 333 747.276C333.914 747.276 334.574 747.886 334.574 748.952V759.654C334.574 760.67 333.965 761.254 333.064 761.254C332.15 761.254 331.528 760.67 331.528 759.654V758.664H331.464C330.753 760.302 329.395 761.241 327.351 761.241ZM338.938 761.254C337.986 761.254 337.364 760.632 337.364 759.591V748.876C337.364 747.886 337.974 747.276 338.875 747.276C339.751 747.276 340.373 747.886 340.373 748.876V749.904H340.437C340.805 748.33 341.973 747.314 343.318 747.314C343.813 747.314 344.194 747.441 344.436 747.657C344.728 747.898 344.88 748.279 344.88 748.8C344.88 749.295 344.728 749.663 344.41 749.917C344.105 750.184 343.636 750.323 343.014 750.336C341.211 750.349 340.525 751.479 340.525 753.116V759.591C340.525 760.632 339.891 761.254 338.938 761.254ZM351.973 761.267C347.86 761.267 345.435 758.689 345.435 754.322C345.435 750.031 347.911 747.264 351.796 747.264C355.477 747.264 357.991 749.879 357.991 753.535C357.991 754.475 357.458 755.033 356.518 755.033H348.584V755.135C348.584 757.382 349.891 758.829 351.948 758.829C353.37 758.829 354.297 758.334 355.312 757.039C355.642 756.671 355.934 756.531 356.379 756.531C357.09 756.531 357.648 756.988 357.648 757.75C357.648 757.991 357.572 758.271 357.432 758.55C356.544 760.264 354.538 761.267 351.973 761.267ZM348.609 752.951H354.893C354.83 750.996 353.586 749.714 351.808 749.714C350.031 749.714 348.736 751.021 348.609 752.951Z" fill="white"/>
</svg>
