<svg xmlns="http://www.w3.org/2000/svg" width="91" height="90" fill="none" xmlns:v="https://vecta.io/nano"><path fill="#f8f8f8" d="M0 0h90v90H0z"/><g fill="#f4930d"><ellipse cx="49.075" cy="42.057" rx="24.528" ry="23.057"/><ellipse cx="74.584" cy="53.143" rx="14.717" ry="13.539"/></g><g fill="#29aae2"><path d="M31.364 46.556c-2.462-.927-4.549-2.522-5.977-4.568s-2.127-4.441-2.002-6.861 1.068-4.746 2.7-6.66 3.875-3.325 6.421-4.038l3.815 11.251-4.957 10.877z"/><ellipse cx="19.249" cy="51.181" rx="18.249" ry="16.483"/></g><g fill="#908689"><path d="M12.769 59.226h51.019v10.792H12.769z"/><path d="M37.301 59.226V40.585c0-2.709-2.196-4.906-4.906-4.906h0c-2.709 0-4.906 2.196-4.906 4.906v18.641H37.3zm7.847-12.754h6.868v17.66h-6.868zm-28.453 9.811h2.943v5.887h-2.943zm10.528 4.541h.981v1.821h-.981zM2.695 69.017h88.301 0a2.73 2.73 0 0 1-2.731 2.731H5.426a2.73 2.73 0 0 1-2.731-2.731h0z"/></g><g fill="#f5f5f5"><rect x="2.695" y="64.462" width="11.58" height="4.918" rx="2.459"/><rect x="63.102" y="64.621" width="27.898" height="4.918" rx="2.459"/><rect width="22.441" height="4.324" rx="2.162" transform="matrix(.303258 -.952908 .907599 .419838 9.60547 68.2582)"/><rect width="32.4" height="4.324" rx="2.162" transform="matrix(.303258 -.952908 .907599 .419838 37.832 68.2582)"/><rect width="19.476" height="4.29" rx="2.145" transform="matrix(.255485 -.966813 .933505 .358564 54.1484 68.6956)"/><rect width="19.566" height="4.316" rx="2.158" transform="matrix(-.293505 -.955957 -.913189 .407536 67.5273 68.567)"/><rect width="32.57" height="4.294" rx="2.147" transform="matrix(-.260877 -.965372 -.93077 .365604 59.1094 68.6649)"/><rect width="22.388" height="4.385" rx="2.193" transform="matrix(-.378303 -.925682 -.859751 .510714 27.0469 67.4694)"/><rect width="46.287" height="4.223" rx="2.111" transform="matrix(.204413 -.978885 .956891 .290446 21.6797 68.1501)"/><rect width="46.76" height="4.211" rx="2.105" transform="matrix(-.180587 -.983559 -.966184 .257854 42.9805 68.7469)"/></g></svg>