<svg xmlns="http://www.w3.org/2000/svg" xmlns:xlink="http://www.w3.org/1999/xlink" width="92" height="92" fill="none" xmlns:v="https://vecta.io/nano"><path fill="#f8f8f8" d="M.996 1h90v90h-90z"/><g stroke="#51ceb2"><circle cx="45.996" cy="46" r="45.5" fill="#1abd95"/><circle cx="45.994" cy="46" r="33.467" fill="url(#A)"/><circle cx="45.997" cy="46" r="22.258" fill="url(#B)"/></g><g fill="#fff"><path d="M44.512 54.077h3.791v3.626h-3.791z"/><path d="M44.512 54.077h3.791v3.626h-3.791z"/><path d="M44.512 54.077h3.791v3.626h-3.791z"/><use xlink:href="#C"/><use xlink:href="#C"/><use xlink:href="#C"/><path d="M38.049 43.318c-.492-.111-.985.199-1.048.699-.136 1.097-.078 2.212.174 3.294.322 1.379.951 2.667 1.84 3.768s2.016 1.987 3.296 2.592 2.68.912 4.096.9 2.81-.345 4.079-.972 2.38-1.533 3.25-2.65 1.476-2.416 1.774-3.8c.233-1.086.272-2.202.116-3.297-.071-.499-.57-.8-1.06-.681h0c-.49.119-.785.613-.726 1.114.098.825.059 1.663-.117 2.48a7.57 7.57 0 0 1-4.047 5.196 7.57 7.57 0 0 1-6.586.058 7.57 7.57 0 0 1-4.138-5.124 7.57 7.57 0 0 1-.16-2.477c.05-.502-.253-.991-.745-1.101h0z"/><rect x="40.555" y="31.165" width="10.879" height="19.451" rx="5.44"/></g><path d="M42.699 36.604a3.46 3.46 0 0 1 3.462-3.462h0a3.46 3.46 0 0 1 3.462 3.462v5.604h-6.923v-5.604z" fill="#3ec7a7"/><g fill="#fff"><circle cx="42.865" cy="36.44" r="1.154"/><circle cx="42.865" cy="39.736" r="1.154"/><circle cx="49.459" cy="36.44" r="1.154"/><circle cx="49.459" cy="39.736" r="1.154"/></g><defs><radialGradient id="A" cx="0" cy="0" r="1" gradientUnits="userSpaceOnUse" gradientTransform="translate(45.9944 46) rotate(90) scale(32.967)"><stop stop-color="#24c09b"/><stop offset=".485" stop-color="#4dc6a9"/><stop offset="1" stop-color="#24c09b"/></radialGradient><radialGradient id="B" cx="0" cy="0" r="1" gradientUnits="userSpaceOnUse" gradientTransform="translate(45.9965 46) rotate(90) scale(21.7582)"><stop stop-color="#34af92"/><stop offset=".475" stop-color="#3fb498"/><stop offset="1" stop-color="#7dc8b6"/></radialGradient><path id="C" d="M40.063 59.187a1.98 1.98 0 0 1 1.978-1.978h8.901a1.98 1.98 0 0 1 1.978 1.978h0-12.857 0z"/></defs></svg>