<svg xmlns="http://www.w3.org/2000/svg" xmlns:xlink="http://www.w3.org/1999/xlink" width="98" height="101" fill="none" xmlns:v="https://vecta.io/nano"><style><![CDATA[.B{fill:#3f85ff}.C{stroke:#9e9e9e}.D{color-interpolation-filters:sRGB}.E{flood-opacity:0}.F{fill:#e3e4e6}.G{stroke-width:.5}]]></style><path fill="#f8f8f8" d="M-.004 0h90v90h-90z"/><path d="M28.673 46.604a23.66 23.66 0 0 1-4.865-8.201c-1.052-3.042-1.478-6.27-1.252-9.485a23.84 23.84 0 0 1 2.567-9.209 23.53 23.53 0 0 1 5.963-7.418c2.467-2.034 5.318-3.534 8.379-4.407a22.97 22.97 0 0 1 9.417-.671 23.07 23.07 0 0 1 8.905 3.175 23.4 23.4 0 0 1 6.929 6.499l-12.503 9.048a7.96 7.96 0 0 0-2.356-2.21c-.926-.566-1.956-.933-3.028-1.079a7.81 7.81 0 0 0-3.202.228c-1.041.297-2.01.807-2.849 1.499a8 8 0 0 0-2.027 2.522c-.499.972-.796 2.038-.873 3.131s.068 2.191.426 3.225.921 1.983 1.654 2.788L28.673 46.604z" fill="#ff695a"/><path d="M65.062 17.392c2.634 3.954 4.023 8.624 3.985 13.395s-1.502 9.418-4.199 13.328l-12.59-8.923a8.1 8.1 0 0 0 .073-9.086l12.732-8.715z" fill="#4284f7"/><path d="M8.31 70.695a23.55 23.55 0 0 1-5.851-7.51 23.85 23.85 0 0 1-2.427-9.248 23.89 23.89 0 0 1 1.395-9.465c1.098-3.025 2.796-5.79 4.988-8.124s4.834-4.188 7.761-5.448 6.077-1.898 9.257-1.875a23.01 23.01 0 0 1 9.23 2.006c2.909 1.301 5.525 3.192 7.685 5.557L29.078 47.169c-.735-.804-1.624-1.447-2.613-1.889a7.82 7.82 0 0 0-6.286-.044 7.91 7.91 0 0 0-2.639 1.852 8.04 8.04 0 0 0-1.696 2.762c-.373 1.029-.535 2.124-.474 3.218a8.11 8.11 0 0 0 .825 3.144c.484.98 1.161 1.849 1.989 2.553L8.31 70.695z" fill="#fef988"/><path d="M9.088 71.481c4.257 3.621 9.65 5.578 15.207 5.519l-.162-15.572a7.85 7.85 0 0 1-5.17-1.876L9.088 71.481z" fill="#9fffb9"/><path d="M49.952 37.042c2.654-2.796 5.948-4.884 9.589-6.081s7.517-1.465 11.285-.781 7.311 2.3 10.315 4.704 5.378 5.522 6.91 9.078 2.175 7.44 1.873 11.308-1.541 7.601-3.607 10.868a23.41 23.41 0 0 1-8.235 7.861c-3.341 1.894-7.091 2.924-10.918 2.998l-.293-15.57a7.83 7.83 0 0 0 3.712-1.019 7.96 7.96 0 0 0 2.8-2.673 8.1 8.1 0 0 0 1.226-3.695 8.12 8.12 0 0 0-.637-3.845 8.01 8.01 0 0 0-2.349-3.086c-1.022-.817-2.226-1.367-3.507-1.599s-2.599-.141-3.837.266a7.9 7.9 0 0 0-3.26 2.068l-11.068-10.8z" fill="#92b9ff"/><path d="M22.496 61.268h17.069v15.73H24.496a2 2 0 0 1-2-2v-13.73z" fill="#31ad52"/><path d="M22.496 61.268h17.069v15.73H24.496a2 2 0 0 1-2-2v-13.73z" fill="#9efeb7"/><path fill="#85c395" d="M39.566 61.268h28.707v15.73H39.566z"/><path fill="#92b9ff" d="M39.566 61.268h28.707v15.73H39.566z"/><g class="B"><rect x="-.004" y="43.111" width="2.621" height="7.069" rx="1"/><rect x="3.492" y="42.227" width="2.621" height="9.72" rx="1"/><rect x="6.988" y="41.344" width="2.621" height="11.487" rx="1"/><rect x="10.481" y="40.46" width="2.621" height="12.37" rx="1"/><rect x="13.977" y="43.111" width="2.621" height="8.836" rx="1"/><rect x="17.473" y="38.693" width="2.621" height="16.788" rx="1"/><rect x="20.969" y="37.809" width="2.621" height="18.556" rx="1"/><rect x="24.461" y="36.926" width="2.621" height="20.323" rx="1"/><rect x="27.957" y="41.344" width="2.621" height="10.603" rx="1"/><rect x="31.453" y="38.693" width="2.621" height="16.788" rx="1"/></g><g filter="url(#D)" class="B"><rect x="37.57" y="17.487" width="6.99" height="55.667" rx="3.495"/></g><g filter="url(#E)" class="B"><rect x="48.926" y="6" width="6.99" height="77.756" rx="3.495"/></g><g filter="url(#F)" class="B"><rect x="60.285" y="9.534" width="6.99" height="70.688" rx="3.495"/></g><g filter="url(#G)" class="B"><rect x="71.648" y="6" width="6.99" height="78.64" rx="3.495"/></g><g filter="url(#H)" class="B"><rect x="83" y="14.836" width="6.99" height="60.085" rx="3.495"/></g><g class="F"><path d="M63.227 52.472h1.907V54.3h-1.907z"/><path d="M63.227 52.472h1.907V54.3h-1.907z"/><path d="M63.227 52.472h1.907V54.3h-1.907z"/></g><path d="M63.227 52.472h1.907V54.3h-1.907z" class="C G"/><g class="F"><use xlink:href="#I"/><use xlink:href="#I"/><use xlink:href="#I"/></g><use xlink:href="#I" class="C G"/><mask id="A" fill="#fff"><path d="M58.877 45.315c-.313-.071-.628.126-.667.445a6.1 6.1 0 0 0 .11 2.118 6.06 6.06 0 0 0 1.168 2.419c.565.707 1.28 1.276 2.093 1.664a5.91 5.91 0 0 0 5.19-.046 5.98 5.98 0 0 0 2.063-1.701 6.06 6.06 0 0 0 1.126-2.439 6.1 6.1 0 0 0 .073-2.119c-.045-.318-.363-.51-.675-.433h0c-.31.076-.496.389-.459.706.063.533.039 1.074-.073 1.601-.152.716-.462 1.388-.907 1.965s-1.013 1.046-1.662 1.37a4.76 4.76 0 0 1-4.181.037c-.655-.313-1.231-.771-1.686-1.341a4.88 4.88 0 0 1-.941-1.949 4.91 4.91 0 0 1-.101-1.599c.032-.318-.16-.627-.471-.697h0z"/></mask><g class="C F"><path d="M58.877 45.315c-.313-.071-.628.126-.667.445a6.1 6.1 0 0 0 .11 2.118 6.06 6.06 0 0 0 1.168 2.419c.565.707 1.28 1.276 2.093 1.664a5.91 5.91 0 0 0 5.19-.046 5.98 5.98 0 0 0 2.063-1.701 6.06 6.06 0 0 0 1.126-2.439 6.1 6.1 0 0 0 .073-2.119c-.045-.318-.363-.51-.675-.433h0c-.31.076-.496.389-.459.706.063.533.039 1.074-.073 1.601-.152.716-.462 1.388-.907 1.965s-1.013 1.046-1.662 1.37a4.76 4.76 0 0 1-4.181.037c-.655-.313-1.231-.771-1.686-1.341a4.88 4.88 0 0 1-.941-1.949 4.91 4.91 0 0 1-.101-1.599c.032-.318-.16-.627-.471-.697h0z" mask="url(#A)"/><rect x="60.715" y="37.763" width="6.406" height="11.986" rx="3.203" class="G"/></g><mask id="B" fill="#fff"><path d="M54.545 58.018c-.407.49-1.139.557-1.594.111-2.157-2.11-3.702-4.786-4.455-7.74-.848-3.33-.646-6.845.578-10.053s3.41-5.949 6.251-7.839 6.195-2.835 9.593-2.703 6.67 1.336 9.358 3.441 4.659 5.009 5.635 8.302a16.67 16.67 0 0 1-.189 10.068c-.975 2.885-2.719 5.434-5.03 7.369-.489.409-1.213.287-1.582-.234h0c-.363-.512-.242-1.218.236-1.626a14.2 14.2 0 0 0 4.224-6.253c.946-2.8 1.003-5.83.163-8.664s-2.536-5.333-4.849-7.145a13.94 13.94 0 0 0-8.054-2.962 13.92 13.92 0 0 0-8.255 2.326c-2.445 1.627-4.325 3.985-5.379 6.746s-1.228 5.786-.498 8.651a14.23 14.23 0 0 0 3.737 6.565c.444.443.51 1.155.11 1.637h0z"/></mask><path d="M54.545 58.018c-.407.49-1.139.557-1.594.111-2.157-2.11-3.702-4.786-4.455-7.74-.848-3.33-.646-6.845.578-10.053s3.41-5.949 6.251-7.839 6.195-2.835 9.593-2.703 6.67 1.336 9.358 3.441 4.659 5.009 5.635 8.302a16.67 16.67 0 0 1-.189 10.068c-.975 2.885-2.719 5.434-5.03 7.369-.489.409-1.213.287-1.582-.234h0c-.363-.512-.242-1.218.236-1.626a14.2 14.2 0 0 0 4.224-6.253c.946-2.8 1.003-5.83.163-8.664s-2.536-5.333-4.849-7.145a13.94 13.94 0 0 0-8.054-2.962 13.92 13.92 0 0 0-8.255 2.326c-2.445 1.627-4.325 3.985-5.379 6.746s-1.228 5.786-.498 8.651a14.23 14.23 0 0 0 3.737 6.565c.444.443.51 1.155.11 1.637h0z" fill="#d9d9d9" mask="url(#B)" class="C"/><mask id="C" fill="#fff"><path d="M48.96 64.184c-.448.54-1.253.612-1.763.132-3.45-3.246-5.918-7.43-7.098-12.062a25.26 25.26 0 0 1 .876-15.236c1.856-4.862 5.168-9.016 9.473-11.881s9.389-4.297 14.539-4.096a24.55 24.55 0 0 1 14.184 5.216c4.075 3.191 7.061 7.591 8.541 12.583s1.38 10.328-.286 15.259c-1.529 4.526-4.308 8.505-7.994 11.473-.547.44-1.344.306-1.749-.267h0c-.399-.564-.267-1.342.269-1.778 3.273-2.66 5.741-6.211 7.105-10.246 1.498-4.432 1.588-9.227.258-13.714s-4.014-8.441-7.676-11.309-8.119-4.507-12.747-4.688a22.03 22.03 0 0 0-13.066 3.681c-3.869 2.575-6.846 6.308-8.514 10.678s-1.943 9.157-.787 13.693c1.052 4.13 3.243 7.863 6.305 10.771.501.475.572 1.26.131 1.792h0z"/></mask><path d="M48.96 64.184c-.448.54-1.253.612-1.763.132-3.45-3.246-5.918-7.43-7.098-12.062a25.26 25.26 0 0 1 .876-15.236c1.856-4.862 5.168-9.016 9.473-11.881s9.389-4.297 14.539-4.096a24.55 24.55 0 0 1 14.184 5.216c4.075 3.191 7.061 7.591 8.541 12.583s1.38 10.328-.286 15.259c-1.529 4.526-4.308 8.505-7.994 11.473-.547.44-1.344.306-1.749-.267h0c-.399-.564-.267-1.342.269-1.778 3.273-2.66 5.741-6.211 7.105-10.246 1.498-4.432 1.588-9.227.258-13.714s-4.014-8.441-7.676-11.309-8.119-4.507-12.747-4.688a22.03 22.03 0 0 0-13.066 3.681c-3.869 2.575-6.846 6.308-8.514 10.678s-1.943 9.157-.787 13.693c1.052 4.13 3.243 7.863 6.305 10.771.501.475.572 1.26.131 1.792h0z" fill="#d9d9d9" mask="url(#C)" class="C"/><defs><filter id="D" x="29.57" y="17.487" width="22.988" height="71.667" filterUnits="userSpaceOnUse" class="D"><feFlood result="A" class="E"/><feColorMatrix in="SourceAlpha" values="0 0 0 0 0 0 0 0 0 0 0 0 0 0 0 0 0 0 127 0" result="B"/><feOffset dy="8"/><feGaussianBlur stdDeviation="4"/><feComposite in2="B" operator="out"/><feColorMatrix values="0 0 0 0 1 0 0 0 0 1 0 0 0 0 1 0 0 0 1 0"/><feBlend in2="A"/><feBlend in="SourceGraphic"/></filter><filter id="E" x="40.926" y="6" width="22.988" height="93.756" filterUnits="userSpaceOnUse" class="D"><feFlood result="A" class="E"/><feColorMatrix in="SourceAlpha" values="0 0 0 0 0 0 0 0 0 0 0 0 0 0 0 0 0 0 127 0" result="B"/><feOffset dy="8"/><feGaussianBlur stdDeviation="4"/><feComposite in2="B" operator="out"/><feColorMatrix values="0 0 0 0 1 0 0 0 0 1 0 0 0 0 1 0 0 0 1 0"/><feBlend in2="A"/><feBlend in="SourceGraphic"/></filter><filter id="F" x="52.285" y="9.534" width="22.988" height="86.688" filterUnits="userSpaceOnUse" class="D"><feFlood result="A" class="E"/><feColorMatrix in="SourceAlpha" values="0 0 0 0 0 0 0 0 0 0 0 0 0 0 0 0 0 0 127 0" result="B"/><feOffset dy="8"/><feGaussianBlur stdDeviation="4"/><feComposite in2="B" operator="out"/><feColorMatrix values="0 0 0 0 1 0 0 0 0 1 0 0 0 0 1 0 0 0 1 0"/><feBlend in2="A"/><feBlend in="SourceGraphic"/></filter><filter id="G" x="63.648" y="6" width="22.988" height="94.64" filterUnits="userSpaceOnUse" class="D"><feFlood result="A" class="E"/><feColorMatrix in="SourceAlpha" values="0 0 0 0 0 0 0 0 0 0 0 0 0 0 0 0 0 0 127 0" result="B"/><feOffset dy="8"/><feGaussianBlur stdDeviation="4"/><feComposite in2="B" operator="out"/><feColorMatrix values="0 0 0 0 1 0 0 0 0 1 0 0 0 0 1 0 0 0 1 0"/><feBlend in2="A"/><feBlend in="SourceGraphic"/></filter><filter id="H" x="75" y="14.836" width="22.988" height="76.085" filterUnits="userSpaceOnUse" class="D"><feFlood result="A" class="E"/><feColorMatrix in="SourceAlpha" values="0 0 0 0 0 0 0 0 0 0 0 0 0 0 0 0 0 0 127 0" result="B"/><feOffset dy="8"/><feGaussianBlur stdDeviation="4"/><feComposite in2="B" operator="out"/><feColorMatrix values="0 0 0 0 1 0 0 0 0 1 0 0 0 0 1 0 0 0 1 0"/><feBlend in2="A"/><feBlend in="SourceGraphic"/></filter><path id="I" d="M61.422 54.482h5.622a1.02 1.02 0 0 1 .989.77h-7.6a1.02 1.02 0 0 1 .989-.77z"/></defs></svg>