<svg xmlns="http://www.w3.org/2000/svg" xmlns:xlink="http://www.w3.org/1999/xlink" width="90" height="92" fill="none" xmlns:v="https://vecta.io/nano"><path fill="#f8f8f8" d="M-.004 1h90v90h-90z"/><g fill="#3d382a"><path d="M6.497 61.083c-3.004-4.807-.25-11.265 1.502-13.894L8 58.454c1.627-3.129 5.182-7.811 6.384-1.502s0 9.638-.751 10.514c-1.127-.125-4.132-1.577-7.136-6.384zM32.785 73.85c.376-8.887-.526-26.436-7.135-25.535s-9.015 6.008-9.763 10.89c-.723 2.555-.378 10.514 1.878 16.523 2.253 3.38 3.002-3.123 7.51 0 4.88 3.38 7.135 0 7.51-1.878z"/><path d="M35.039 62.209c0-4.816-3.63-10.014-5.633-12.016 0 10.514.601 30.116 3.004 24.409 3.004-7.135 2.629-6.008 2.629-12.392zM24.532 80.234c-2.697-2.711-.626-3.88.751-4.131 3.38-1.878-6.383-3.38-7.134 0s7.878 5.633 6.384 4.131zM9.503 49.817c-.376 3.004-1.001 1.752-1.502 0l-.376 9.012c1.878-2.253 6.759-.376 6.759-.751 0-7.235 3.004-9.763 4.882-10.139-.375-10.139.751-9.012 0-10.515-1.126-1.126-5.257.751-6.759 1.502-1.385.692-3.004 7.51 0 3.38 1.414-1.944 1.502-.751 1.878-.751-.25 1.001-.526 2.779.376 1.878s1.627-1.126 1.878-1.126c.125 1.252-.751 4.131-2.629 6.759-2.469 3.457-.751 7.51-1.878 5.633-1.312-2.186-1.127-5.633-.751-7.51-.751 0-1.738 1.511-1.878 2.629z"/><use xlink:href="#B"/><use xlink:href="#B"/><use xlink:href="#C"/><use xlink:href="#C"/><path d="M45.551 37.801c1.502 1.502-2.378 6.634-4.506 9.012-.376.25-1.202.225-1.502-1.878-.507-3.555.876-4.381 1.502-5.257.876-1.252 3.004-3.38 4.506-1.878zm-20.654 6.008c-.3.601.125 1.752.376 2.253 0 .375-.751.751-1.128 0-.695-1.384-1.455-1.114-.75-3.755 1.503-5.633 4.893-5.901 4.506-5.257-1.126 1.877-2.628 6.008-3.004 6.759zM48.178 1.376C26.03 2.279 18.513 26.911 19.64 38.927c4.632-6.384 17.349-17.424 29.666-9.012s8.638 19.902 6.384 22.531L35.036 75.728c-1.377 2.378-2.629 7.285 3.38 7.886a167.13 167.13 0 0 0 14.645.751c6.008-3.88 20.203-16.898 28.915-37.927s1.878-30.417-5.257-34.547C74.09 8.135 66.58.625 48.178 1.376z"/></g><path d="M72.965 14.894C64.327-.502 42.298 9.512 36.54 19.025c-2.253 4.882-1.33 3.248 3.004 2.629 2.629-.376 11.039 2.329 10.513.375-2.628-9.763-9.388-4.506-6.008-8.261 5.633-1.877 10.514 2.253 20.278 10.89 1.434 1.269-3.004-3.004-2.629-5.633.256-.854 5.483-2.372 6.384 3.755 1.878 12.768 3.256 18.901 4.132 20.653 3.754-9.012 3.713-23.259.751-28.539z" fill="#fff"/><g fill="#3d382a"><path d="M32.408 34.046c-.751-3.38-1.877-3.38-4.506-3.004 2.629-1.878 3.004-2.682 9.763-4.131 5.257-1.127 12.017 2.325 10.139 2.253-9.763-.375-7.321-.715-11.641 1.878-1.878 1.127-3.573 3.824-3.755 3.004zm10.893 22.155c5.963 1.052 9.763-1.878 11.265-2.253l-18.775 21.78c-.377-1.127 1.249-3.662 1.127-4.882-.601-6.008.751-6.008 1.502-5.257-.25.626-.376 1.953 1.127 2.253s.876-3.129.375-4.882c-1.502-2.503-3.004-7.886 3.38-6.759zM25.274 85.116c3.605-.3 7.51-5.132 9.012-7.51-1.502 5.633 4.882 5.257 3.38 5.633-4.506 1.126-4.506 1.627-6.009 2.629-3.63-.125-9.989-.451-6.384-.751zm22.155 2.628l-4.882-3.755 14.27-2.629s2.929 10.74 1.127 7.135-4.005-4.256-4.882-4.131l-3.755 2.629-1.878.751z"/><path d="M62.825 79.107c-3.198.267-4.882 5.132-4.882 6.759-1.127-3.004-2.299-3.709-1.502-4.506.751-.751 20.779-25.785 25.535-35.299 2.504 2.754 6.759 9.388 2.253 20.278-4.011 9.696-10.514 12.517-13.143 12.767-1.878.751-3.756-.376-8.261 0z"/></g><path d="M71.086 47.564c-3.063 1.532-4.882 9.638-5.633 13.143-1.128-.751-2.254-1.127-2.629-2.629-1.005-4.024 2.503-8.637 4.882-12.392 2.253 0 4.13 1.502 3.38 1.877zm3.753 3.004c-1.548 0-3.755 7.761-4.506 11.265 0 .751-1.504 0-1.879-1.502-1.005-4.024 1.378-7.51 3.756-11.266 2.253 0 3.004 1.502 2.628 1.502z" fill="#fff"/><path d="M38.043 19.776l1.877 2.253 10.89 1.127c-.125-.25-.901-.976-3.004-1.878-3.755-3.38-7.51-2.378-9.763-1.502z" fill="#3d382a"/><path d="M13.05 66.966a.5.5 0 1 0-.659.753l.659-.753zm1.548-7.885l-.497.051h0l.497-.051zm4.139-10.799l.116.486h0l-.116-.486zm1.243-11.356a.5.5 0 1 0-1 0h1zm-.521.499a.5.5 0 1 0 .047-.999l-.047.999zm-8.613 4.007l-.494-.076.494.076zm1.833.82l-.42-.272h0l.42.272zm.103-.127l.347.36h0l-.347-.36zm1.444.433l.493.082h0l-.493-.082zm1.054.821l.341.366h0l-.341-.366zm.123-.157l.43.255h0l-.43-.255zm-3.806 4.218l-.4-.3h0l.4.3zm-3.001-1.126l-.465-.185h0l.465.185zm3.886 21.467a.5.5 0 0 0 .482-.876l-.482.876zM76.143 12.03a.5.5 0 1 0 .849-.528l-.849.528zM44.273 1.627l-.078-.494.078.494zM19.448 39.454a.5.5 0 1 0 .834-.552l-.834.552zm27.128 47.167a.5.5 0 1 0-.868.496l.868-.496zM58.909 91l-.467.18.946-.322-.479.142zm8.637-11.641l-.087.492h0l.087-.492zm14.645-33.045l-.451-.215-.155.325.259.25.347-.359zm-5.398-34.989a.5.5 0 1 0-.47.883l.47-.883zm-57.385 27.63a.5.5 0 0 0 .894.448l-.894-.448zm12.839-5.409l.5.003v-.059l-.014-.058-.487.114zm7.505-4.131l.098.49.03-.006.029-.01-.158-.474zm-6.008 4.131l.355.352h0l-.355-.352zm8.577 22.652a.5.5 0 0 0 .558-.434.5.5 0 0 0-.434-.558l-.124.992zm-2.942 5.888l.461-.194h0l-.461.194zm-.261 5.768l-.075.494h0l.075-.494zm-.503-.644l-.499.026h0l.499-.026zm-1.113-2.121l.277.416h0l-.277-.416zm-15.77 20.278l.017-.5h0l-.017.5zm9.717.706l.051-.497h0l-.051.497zm.698-.283l.366.341h0l-.366-.341zm13.612 1.402a.5.5 0 1 0 .764-.646l-.764.646zm-9.949-64.604l-.162-.473h0l.162.473zm3.573-.683l.121-.485h0l-.121.485zm8.637-.751l-.312.39h0l.312-.39zm-3.38-5.633l.197.46h0l-.197-.46zm-.796-1.438l.411.285h0l-.411-.285zm.103-.115l.325.38h0l-.325-.38zm17.747 5.717l-.416.277h0l.416-.277zm-26.726 2.05l.462.19h0l-.462-.19zm38.228 19.261l-.485-.121h0l.485.121zm-.039.117l-.46-.196h0l.46.196zm-2.605-1.934l-.489.102h0l.489-.102zm-8.484-20.576l-.128-.483h0l.128.483zm3.672 41.698l-.485-.122h0l.485.122zm4.811-12.11l-.32-.384h0l.32.384zm-3.38-1.878l.416.277h0l-.416-.277zm-4.882 10.139l-.487-.112-.003.015-.003.015.493.082zm3.107 4.219l-.04-.498h0l.04.498zm5.173 1.44l.489.104h0l-.489-.104zm3.646-10.892l.352.355h0l-.352-.355zM71.65 49.53l.436.245h0l-.436-.245zm-3.703 9.129l-.491-.095-.002.013-.002.013.495.069zm2.311 3.801l.002.5h0l-.002-.5zm-44.83 18.51a.5.5 0 1 0 .239-.971l-.239.971zm1.605-3.865a.5.5 0 0 0 .659-.752l-.659.752zm7.843-17.274l-.479.144.004.012.004.012.471-.168zm-7.19 16.514a.5.5 0 0 0-.64.768l.64-.768zm-2.058 4.618a.5.5 0 1 0-.291-.957l.291.957zm-9.158-9.491l-.489.103h0l.489-.103zm.105-14.133a.5.5 0 1 0-.962-.274l.962.274zm-.957-.269a.5.5 0 1 0 .965.263l-.965-.263zm16.748-11.983l-.216-.451h0l.216.451zm-.12 1.12l.313-.39h0l-.313.39zm-5.59-2.238l.299.401h0l-.299-.401zm2.21.09l-.354.354h0l.354-.354zm-1.852.898l.044-.498h0l-.044.498zm14.62 1.73l.4.3h0l-.4-.3zm4.131-9.012l-.354.354h0l.354-.354zm-3.755.751l.312.39.022-.017.02-.02-.354-.354zm-2.629 6.384l.474-.158h0l-.474.158zm-11.677-7.089l.408.289h0l-.408-.289zm-2.596 7.464l.447-.224h0l-.447.224zm-1.47.063l.442-.234h0l-.442.234zm-.052-.132l-.482.133h0l.482-.133zm2.648-7.818l-.277-.416h0l.277.416zm1.527.323l-.457-.203h0l.457.203zM12.391 67.719c.304.266.753.511 1.26.42.529-.095.921-.517 1.182-1.137s.435-1.532.492-2.809c.057-1.284-.003-2.97-.23-5.163l-.995.103c.224 2.163.28 3.797.226 5.016-.054 1.226-.219 2.001-.414 2.465s-.38.531-.437.541c-.079.014-.228-.016-.425-.188l-.659.753zm2.704-8.689c-.393-3.799.126-6.269.943-7.828.813-1.551 1.931-2.223 2.814-2.433l-.231-.973c-1.176.279-2.527 1.145-3.469 2.942-.937 1.788-1.458 4.473-1.052 8.395l.995-.103zm3.757-10.261c.563-.134 1.127-.62 1.127-1.328h-1c0 .121-.114.297-.358.355l.231.973zm.654-12.342c-1.36-.065-3.441.088-5.277.773s-3.537 1.946-3.878 4.157l.988.152c.261-1.694 1.561-2.747 3.238-3.372s3.612-.771 4.881-.711l.047-.999zm-9.155 4.93c-.149.967-.177 1.66-.083 2.117.047.227.139.473.337.644a.79.79 0 0 0 .723.162c.204-.05.386-.166.533-.28.153-.12.303-.267.445-.424.283-.313.561-.696.791-1.051l-.839-.544c-.212.328-.458.664-.694.925a2.64 2.64 0 0 1-.319.306c-.046.036-.084.061-.114.077s-.044.02-.044.02c.015-.004.098-.011.171.052.044.038.016.047-.012-.09-.056-.27-.055-.81.092-1.763l-.988-.152zm2.778 1.129c.144-.139.309-.277.465-.381.17-.113.275-.148.31-.151.008-.001-.029.005-.079-.023s-.074-.07-.073-.069a.51.51 0 0 1 .022.163c.002.106-.008.254-.041.452l.986.164c.076-.456.084-.86-.045-1.168a.84.84 0 0 0-.368-.42c-.173-.095-.354-.11-.505-.094-.282.03-.553.176-.759.312a4.44 4.44 0 0 0-.606.494l.694.72zm.604-.009c-.075.451-.09.825-.022 1.116.073.312.269.61.639.689.298.063.576-.054.75-.149a2.69 2.69 0 0 0 .521-.387l-.682-.731a1.71 1.71 0 0 1-.321.242.46.46 0 0 1-.098.043c-.018.005-.002-.003.037.005.047.01.092.037.121.071.023.027.017.036.006-.009-.023-.098-.034-.317.034-.725l-.986-.164zm2.1 1.002a4.51 4.51 0 0 1 .397-.572 1.77 1.77 0 0 1 .187-.196c.058-.05.09-.067.097-.07s-.053.023-.137-.005-.118-.085-.113-.075c.009.015.034.074.056.206s.035.306.035.543h1c0-.518-.055-.946-.218-1.238-.09-.161-.235-.317-.451-.387s-.411-.028-.556.033c-.267.111-.498.346-.666.547a5.5 5.5 0 0 0-.49.703l.86.511zm.522-.169c0 .511-.24 1.091-.682 1.801s-1.014 1.449-1.623 2.326c-1.184 1.706-2.402 3.802-2.2 6.426l.997-.077c-.173-2.258.862-4.105 2.025-5.779l1.651-2.368c.462-.745.832-1.526.832-2.329h-1zM11.85 53.862c.047.608.037.946.009 1.096-.006.034-.01.039-.005.026.003-.006.031-.074.113-.136.106-.079.243-.104.366-.072.097.025.148.075.154.081.013.013-.01-.008-.059-.104a3.41 3.41 0 0 1-.151-.356c-.112-.301-.231-.702-.342-1.166-.222-.929-.399-2.074-.415-3.119-.017-1.078.142-1.926.477-2.373l-.8-.6c-.551.734-.694 1.885-.677 2.988.017 1.136.208 2.355.443 3.336.117.492.248.933.377 1.281.064.174.131.332.199.464.062.122.145.262.254.367.054.052.15.132.289.168.166.043.342.011.484-.094.118-.088.179-.203.21-.276.034-.079.054-.162.068-.238.052-.288.051-.74.004-1.352l-.997.077zm.147-6.122c.156-.208.287-.436.321-.667.018-.122.014-.287-.076-.446-.096-.169-.25-.261-.396-.299-.251-.065-.503.018-.674.096a2.6 2.6 0 0 0-.606.403c-.816.707-1.721 2.161-1.721 4.368h1c0-1.924.784-3.099 1.376-3.612.149-.129.276-.208.366-.249.115-.052.1-.014.008-.038-.067-.017-.162-.068-.222-.174-.055-.096-.046-.176-.044-.194s-.006.044-.132.212l.8.6zm-3.153 3.455c0 .469-.03.747-.064.888-.019.079-.027.058.013.009.025-.03.08-.084.173-.115.099-.033.194-.025.267 0 .113.039.147.109.118.069-.017-.023-.046-.074-.084-.16-.075-.171-.158-.424-.236-.744-.156-.637-.28-1.48-.296-2.333-.016-.859.077-1.685.326-2.311l-.929-.369c-.318.801-.414 1.777-.396 2.699.018.929.152 1.845.324 2.551a5.76 5.76 0 0 0 .291.907c.052.12.113.237.184.337a.78.78 0 0 0 .369.298c.112.039.246.049.382.003a.62.62 0 0 0 .278-.194c.107-.129.158-.287.188-.409.064-.261.093-.638.093-1.126h-1zm.217-4.697a.88.88 0 0 0 .07-.307.54.54 0 0 0-.131-.363c-.154-.176-.358-.19-.475-.172a.61.61 0 0 0-.218.08.92.92 0 0 0-.115.082c-.063.052-.127.116-.19.184-.248.27-.602.751-.987 1.385-.774 1.274-1.715 3.24-2.199 5.537s-.514 4.953.567 7.575c1.083 2.628 3.261 5.172 7.098 7.283l.482-.876c-3.673-2.02-5.673-4.404-6.655-6.787-.985-2.389-.968-4.828-.513-6.988s1.345-4.022 2.075-5.224c.367-.604.682-1.024.869-1.228a1.04 1.04 0 0 1 .09-.09c-.02.012-.072.044-.155.056-.097.015-.286.005-.429-.159a.46.46 0 0 1-.115-.305c.001-.072.021-.104 0-.051l.929.369zm6.56-2.753c.092-.086.161-.181.212-.267l-.86-.511c-.017.029-.029.041-.034.046l.682.731zm-2.522-1.221c.013-.02.023-.031.03-.039l-.694-.72c-.071.069-.129.142-.176.215l.839.544zm63.894-31.022C74 6.688 63.306-1.899 44.195 1.133l.157.988c18.742-2.974 29.026 5.46 31.791 9.909l.849-.528zM44.195 1.133c-11.504 1.825-18.275 10.54-21.876 19.13-1.803 4.301-2.824 8.596-3.254 12.039-.215 1.721-.283 3.239-.223 4.444.03.603.091 1.136.186 1.582.093.438.224.827.414 1.116l.836-.548c-.091-.138-.19-.388-.272-.775-.08-.379-.137-.856-.165-1.423-.056-1.134.007-2.592.217-4.271.419-3.359 1.418-7.565 3.183-11.776 3.535-8.433 10.092-16.781 21.111-18.529l-.157-.988zM19.442 39.446l.005.008.834-.552-.005-.008-.834.552zm26.265 47.671c.336.587 1.074 1.157 2.165 1.067 1.06-.087 2.359-.789 3.897-2.481l-.74-.673c-1.466 1.613-2.546 2.1-3.238 2.157-.661.054-1.05-.278-1.215-.566l-.868.496zm6.061-1.414c.664-.73 1.271-.901 1.816-.814.588.094 1.221.504 1.864 1.179 1.279 1.345 2.377 3.508 2.994 5.111l.933-.359c-.635-1.652-1.791-3.957-3.202-5.441-.703-.739-1.525-1.333-2.431-1.478-.949-.151-1.875.207-2.713 1.129l.74.673zm7.62 5.154c-.676-2.273-1.035-5.499-.045-7.9.487-1.181 1.296-2.153 2.56-2.737 1.275-.589 3.066-.808 5.556-.369l.174-.985c-2.617-.462-4.631-.255-6.149.446-1.528.706-2.498 1.888-3.065 3.264-1.119 2.713-.69 6.207.011 8.566l.959-.285zm8.071-11.006c3.368.594 6.721-.577 9.646-2.774s5.46-5.445 7.226-9.095c3.514-7.267 4.068-16.363-1.792-22.029l-.695.719c5.405 5.225 5.02 13.777 1.587 20.874-1.708 3.532-4.149 6.644-6.926 8.731s-5.856 3.121-8.872 2.589l-.174.985zm15.183-33.322c2.026-4.242 4.175-11.079 4.029-17.829-.147-6.766-2.609-13.509-9.878-17.376l-.47.883c6.85 3.644 9.207 9.981 9.348 16.515.142 6.55-1.952 13.231-3.932 17.376l.902.431zm-62.34-7.126l.004-.008-.894-.448-.004.008.894.448zm.004-.008c1.276-2.546 3.933-5.475 6.428-6.971 1.258-.754 2.381-1.087 3.226-.937.407.072.762.258 1.059.589.303.336.566.845.74 1.586l.973-.229c-.201-.854-.524-1.531-.97-2.026-.452-.501-1.009-.794-1.627-.904-1.206-.215-2.593.271-3.915 1.064-2.665 1.597-5.451 4.671-6.808 7.381l.894.448zm21.609 16.799c3.119.573 7.712.625 11.288-1.162 1.801-.9 3.354-2.271 4.311-4.279s1.294-4.596.757-7.898l-.987.161c.514 3.156.174 5.531-.673 7.308s-2.217 2.997-3.855 3.815c-3.302 1.65-7.646 1.626-10.661 1.073l-.181.984zm16.356-13.34c-1.07-6.571-3.95-10.658-7.5-12.796-3.54-2.132-7.675-2.283-11.176-1.116l.316.949c3.263-1.087 7.089-.937 10.344 1.024 3.246 1.955 5.996 5.753 7.029 12.1l.987-.161zM39.655 28.925c-.727.145-1.724.648-2.796 1.37-1.088.732-2.302 1.724-3.469 2.898l.709.705c1.123-1.131 2.287-2.08 3.318-2.774 1.046-.704 1.908-1.114 2.434-1.219l-.196-.981zm-6.265 4.269c-.281.283-.5.297-.592.282-.054-.009-.078-.028-.082-.031s.032.027.031.105l-1-.006c-.003.532.474.85.886.919.47.078 1.001-.095 1.466-.563l-.709-.705zm9.056 22.012c-1.068-.133-2.63.026-3.592 1.124-.994 1.134-1.161 3.038.065 5.95l.922-.388c-1.177-2.796-.843-4.209-.235-4.902.64-.73 1.781-.908 2.716-.791l.124-.992zm-3.527 7.074c1.048 2.49 1.215 3.849 1.069 4.524-.067.312-.192.436-.291.494-.114.066-.282.095-.504.062l-.149.989c.363.055.783.031 1.157-.187.388-.226.65-.618.765-1.146.218-1.004-.07-2.618-1.125-5.124l-.922.388zm.196 4.904c-.031-.583-.117-1.308-.32-1.836-.097-.252-.255-.556-.533-.73a.86.86 0 0 0-.53-.131c-.189.015-.359.089-.507.187l.555.832c.047-.031.056-.024.031-.022-.032.003-.063-.008-.08-.018-.006-.004.054.041.13.24.144.376.225.97.255 1.531l.999-.053zm-1.889-2.51c-.436.29-.688.839-.847 1.363-.167.551-.265 1.2-.313 1.831s-.049 1.268-.012 1.798c.018.265.047.51.084.719.036.199.087.402.167.561l.894-.447c-.014-.029-.045-.119-.077-.292-.03-.163-.054-.37-.071-.61a11.67 11.67 0 0 1 .011-1.652c.045-.589.135-1.161.273-1.619.147-.485.316-.735.444-.82l-.555-.832zm-.921 6.272c-.037-.073-.033-.123-.032-.092.001.016 0 .051-.006.11a4.26 4.26 0 0 1-.093.505c-.103.436-.283 1.033-.547 1.736a24.53 24.53 0 0 1-2.574 4.983c-2.399 3.553-6.109 6.859-11.303 6.68l-.034.999c5.696.196 9.683-3.444 12.166-7.12 1.246-1.845 2.131-3.723 2.682-5.191.276-.734.47-1.372.585-1.859a5.19 5.19 0 0 0 .114-.631c.009-.087.014-.174.01-.257a.77.77 0 0 0-.073-.311l-.894.447zM21.749 84.868l-2.263-.078-.499-.017-.113-.003c-.009 0-.026 0-.041 0a.47.47 0 0 0-.033.001.95.95 0 0 0-.064.009c-.064.018-.362.305-.368.657a.94.94 0 0 0 .348.316c.016.004.04.008.049.01a.55.55 0 0 0 .028.004c.072.007 1.032.049 2.394.117 2.764.138 7.305.387 10.209.686l.102-.995c-2.934-.302-7.502-.552-10.262-.69l-1.683-.082-.488-.023-.176-.009c.001 0 .011.001.024.003a.87.87 0 0 1 .047.01.94.94 0 0 1 .348.316c-.006.352-.303.639-.367.657-.021.004-.053.008-.063.009-.016.001-.027.001-.029.001l.104.003.496.017 2.262.079.034-.999zm10.764 1.263c1.154-1.24 3.502-2.121 6.095-2.096 2.572.025 5.278.943 7.15 3.157l.764-.646c-2.103-2.486-5.114-3.484-7.904-3.511-2.769-.027-5.43.902-6.837 2.414l.732.681zm-1.115.439c.447.046.847-.151 1.115-.439l-.732-.681c-.094.101-.199.134-.281.126l-.102.995zm7.795-19.211c-.002 0-.012 0-.031-.025s-.044-.083-.048-.15l-.999.053c.024.449.306 1.018.927 1.111l.149-.989zm-3.221-44.298c.592-.202 1.26-.417 1.874-.556.639-.145 1.131-.186 1.416-.115l.243-.97c-.535-.134-1.234-.037-1.879.11-.669.152-1.378.381-1.977.585l.323.946zm3.29-.671c.204.051.45.089.67.018a.65.65 0 0 0 .356-.269.66.66 0 0 0 .098-.406c-.015-.206-.115-.394-.198-.524-.092-.146-.212-.296-.342-.438a5.75 5.75 0 0 0-.916-.807 3.38 3.38 0 0 0-.496-.294c-.154-.072-.351-.143-.553-.143v1c-.015 0 .024-.001.13.049.096.045.214.115.346.207.263.184.54.429.75.66.105.116.185.218.236.3.061.097.049.112.046.064a.34.34 0 0 1 .056-.204.35.35 0 0 1 .184-.147c.059-.019.047.007-.125-.036l-.243.97zm-1.381-2.863c.01 0 .087-.001.18.048a.47.47 0 0 1 .248.386c.008.137-.047.228-.058.246-.017.028-.03.04-.025.035.028-.028.139-.114.361-.229.425-.22 1.134-.485 2.043-.618 1.803-.264 4.382-.008 7.079 2.149l.625-.781c-2.936-2.349-5.802-2.657-7.848-2.357-1.016.149-1.833.447-2.358.72-.253.131-.473.274-.611.413-.036.037-.081.086-.118.148-.032.052-.096.172-.087.332a.53.53 0 0 0 .285.441.61.61 0 0 0 .286.067v-1zm9.827 2.017c.713.57 1.284.933 1.727 1.087.22.077.469.125.711.065.279-.069.469-.263.56-.503.08-.211.077-.441.052-.64-.027-.207-.086-.432-.166-.661-.159-.46-.416-.992-.73-1.537-.629-1.089-1.526-2.292-2.449-3.159-.46-.433-.948-.802-1.431-1.025s-1.025-.328-1.537-.109l.394.919c.145-.062.373-.064.725.098s.745.451 1.165.845c.837.787 1.677 1.908 2.268 2.931.295.511.52.983.651 1.363a2.44 2.44 0 0 1 .119.463c.016.126.001.167.004.158a.21.21 0 0 1 .134-.114c.031-.008 0 .01-.14-.038-.275-.096-.737-.368-1.432-.924l-.625.781zm-3.264-6.483c-.24.103-.427.166-.57.201a.81.81 0 0 1-.254.033c-.024-.003.023-.002.074.053s.049.101.048.088c-.003-.05.024-.19.132-.421.099-.212.238-.443.381-.648l-.821-.57c-.164.237-.336.517-.465.795-.121.259-.242.588-.225.897.009.167.06.367.213.533s.357.244.552.266c.357.04.805-.083 1.329-.308l-.394-.919zm-.172-.713c.615-.525 2.084-1.01 4.49-.301 2.398.706 5.676 2.591 9.795 6.709l.707-.707c-4.188-4.188-7.606-6.192-10.219-6.961-2.606-.767-4.465-.317-5.422.5l.649.761zm14.285 6.408c1.971 1.971 3.316 3.179 4.184 3.812.417.304.788.524 1.095.59.158.034.4.049.615-.107.221-.161.274-.4.283-.557.016-.293-.1-.649-.234-.974-.145-.352-.351-.763-.594-1.204-.486-.884-1.139-1.923-1.795-2.908l-.832.554c.648.973 1.284 1.987 1.751 2.836.234.425.42.8.545 1.102.062.151.105.276.132.376a1.03 1.03 0 0 1 .025.117.41.41 0 0 1 .004.034c.005-.013.009-.029.017-.048.017-.041.052-.094.111-.136.119-.086.219-.054.183-.062-.08-.017-.299-.117-.716-.42-.8-.583-2.098-1.743-4.065-3.711l-.707.707zm-14.302-6.388c.009-.013.015-.018.017-.02l-.649-.761a1.09 1.09 0 0 0-.189.21l.821.57zm-8.825 7.556c1.766-4.288 5.724-8.241 10.527-11.003S56.332 6.63 61.281 7.11c4.922.478 9.224 2.94 11.591 8.208 2.384 5.304 2.837 13.523-.163 25.557l.97.242c3.024-12.128 2.621-20.608.104-26.209-2.533-5.638-7.176-8.285-12.406-8.793-5.204-.505-10.988 1.104-15.92 3.94s-9.078 6.936-10.953 11.489l.925.381zm37.266 18.992l-.686 1.65c-.095.206-.167.333-.219.401-.073.094-.009-.044.181-.025.171.017.194.14.109-.003-.066-.111-.152-.31-.258-.637-.209-.646-.459-1.679-.782-3.226l-.979.204c.322 1.548.582 2.627.809 3.33.113.348.226.632.35.839.104.176.306.453.653.487.366.036.603-.222.708-.358.125-.162.236-.376.336-.594.196-.426.438-1.065.698-1.677l-.92-.392zm-1.655-1.84c-.447-2.144-.722-4.617-1.005-7.118-.282-2.489-.57-5.005-1.046-7.19-.472-2.171-1.145-4.099-2.246-5.356-.559-.638-1.235-1.11-2.051-1.344s-1.73-.22-2.754.05l.256.967c.889-.235 1.617-.23 2.222-.056s1.121.524 1.575 1.042c.925 1.055 1.555 2.769 2.021 4.909.463 2.126.746 4.59 1.029 7.09.281 2.487.562 5.011 1.02 7.21l.979-.204zm1.669 1.797c-.003.014-.009.03-.014.042l.92.392c.026-.062.048-.128.064-.192l-.97-.242zm-10.6-21.467c-.046-.069-.052-.148-.031-.21a.16.16 0 0 1 .116-.111l-.256-.967c-.843.223-1.094 1.194-.661 1.843l.832-.554zm-26.461 2.708c-.105.036-.171.003-.203-.029-.017-.017-.028-.037-.032-.058s-.005-.053.015-.104l-.925-.381a1.13 1.13 0 0 0 .234 1.25c.306.306.774.425 1.233.268l-.323-.946zm30.575 38.308c.74-2.934 1.493-5.57 2.279-7.651.393-1.04.79-1.932 1.191-2.647.405-.721.799-1.236 1.176-1.55l-.64-.768c-.51.425-.976 1.059-1.408 1.829-.435.775-.852 1.716-1.255 2.784-.806 2.135-1.57 4.814-2.313 7.759l.97.244zm4.646-11.848c.652-.543.943-1.194.727-1.85-.194-.587-.744-.993-1.293-1.232-.568-.248-1.251-.373-1.882-.32-.622.052-1.284.288-1.667.864l.832.555c.147-.221.455-.383.919-.422a3.02 3.02 0 0 1 1.398.24c.445.194.681.44.744.629.04.12.058.373-.417.769l.64.768zm-4.116-2.539C64.503 49.41 62.95 51.358 61.8 56.34l.974.225c1.103-4.781 2.554-6.589 4.81-9.974l-.832-.555zm-4.959 10.334c-.205 1.236.398 2.457 1.126 3.319.371.439.795.812 1.214 1.073.401.251.866.442 1.3.407l-.079-.997c-.114.009-.354-.048-.691-.259-.32-.2-.668-.501-.979-.87-.638-.755-1.04-1.687-.903-2.51l-.986-.164zm3.459 3.808a.24.24 0 0 1-.014.042c-.001.004.011-.009.034-.021s.053-.023.082-.026l.079.997c.525-.042.73-.513.789-.747l-.97-.244zm5.803 2.038c.561-2.639 1.132-5.01 1.728-6.882.298-.936.599-1.737.903-2.38.307-.65.603-1.105.879-1.378l-.703-.711c-.397.393-.753.97-1.079 1.661-.33.698-.646 1.545-.952 2.505-.611 1.919-1.19 4.329-1.753 6.977l.978.208zm3.509-10.64c.517-.512.723-1.097.564-1.669-.148-.532-.577-.917-1.024-1.148-.454-.236-1.006-.357-1.523-.306s-1.063.29-1.367.831l.872.49c.099-.175.292-.296.594-.326a1.8 1.8 0 0 1 .965.198c.307.159.474.361.521.528.036.128.034.356-.304.69l.703.711zm-3.351-2.291c-1.707 3.04-2.886 4.795-3.758 9.279l.982.191c.837-4.307 1.938-5.934 3.648-8.98l-.872-.49zm-3.762 9.305c-.151 1.08.282 2.157.826 2.939a4.56 4.56 0 0 0 .918.99c.304.235.681.443 1.063.441l-.003-1c-.043 0-.198-.039-.447-.232-.23-.178-.483-.444-.71-.771-.462-.664-.76-1.489-.657-2.23l-.99-.138zm2.626 3.418c-.004.016-.008.029-.011.038a.23.23 0 0 1 .063-.052c.038-.021.082-.033.126-.033l.003 1c.279-.001.481-.15.6-.304.112-.144.168-.309.197-.441l-.978-.208zM25.667 80c-1.043-.257-1.534-.723-1.731-1.154-.199-.437-.147-.946.113-1.397s.709-.802 1.224-.911c.498-.105 1.115.003 1.76.567l.659-.752c-.856-.75-1.788-.97-2.625-.794-.82.173-1.495.715-1.884 1.389s-.514 1.528-.157 2.312c.36.789 1.159 1.403 2.401 1.71l.239-.971zm8.738-20c.433 1.212.544 3.12.352 5.28-.19 2.145-.673 4.474-1.376 6.498-.71 2.042-1.621 3.7-2.625 4.575-.494.43-.979.645-1.455.661s-1.009-.162-1.616-.668l-.64.768c.745.621 1.514.924 2.289.899s1.468-.374 2.079-.906c1.205-1.05 2.186-2.912 2.912-5.001a28.99 28.99 0 0 0 1.428-6.739c.196-2.206.1-4.287-.406-5.704l-.942.336zm-9.068 20.007c-1.334.406-2.933.422-4.426-.682-1.513-1.118-3.007-3.451-3.952-7.955l-.979.205c.968 4.615 2.54 7.227 4.336 8.554 1.816 1.342 3.767 1.304 5.312.834l-.291-.957zm-8.378-8.637c-1.485-7.081-1.105-11.501-.384-14.03l-.962-.274c-.777 2.729-1.141 7.321.367 14.509l.979-.205zm-.377-14.035a14.1 14.1 0 0 1 2.984-5.515c1.378-1.554 3.033-2.646 4.742-2.949 1.683-.298 3.485.156 5.229 1.828 1.761 1.688 3.465 4.624 4.86 9.276l.958-.287c-1.421-4.736-3.191-7.855-5.126-9.711-1.953-1.872-4.07-2.45-6.095-2.091-1.999.354-3.842 1.609-5.315 3.27a15.1 15.1 0 0 0-3.2 5.915l.965.263zm16-11.795c.834-.4 1.727-.672 2.37-.597.302.035.51.142.651.314.146.179.275.495.275 1.057h1c0-.704-.16-1.275-.501-1.691-.346-.422-.821-.617-1.31-.674-.938-.109-2.05.273-2.918.689l.433.902zm3.296.774c0 .591-.141.813-.232.892-.082.071-.246.129-.586.055-.695-.151-1.649-.757-2.5-1.441l-.627.779c.859.691 1.971 1.434 2.914 1.639.479.104 1.027.092 1.453-.275.417-.36.578-.944.578-1.649h-1zm-3.728-1.675c-.793.381-.88 1.427-.217 1.96l.627-.779c-.058-.046-.075-.104-.07-.155s.032-.095.092-.125l-.433-.902zm-5.194-.267c.262-.195.525-.309.769-.32.223-.01.489.062.789.362l.707-.707c-.476-.476-1.007-.678-1.541-.654-.513.023-.967.252-1.322.517l.598.802zm1.558.043c.096.096.138.158.154.189s-.01-.002.002-.074c.028-.169.166-.157-.009-.104-.138.042-.359.07-.654.075a9.07 9.07 0 0 1-.948-.04l-.088.996c.356.031.721.05 1.055.043.327-.006.656-.037.926-.118.232-.07.632-.248.705-.691.034-.209-.023-.4-.103-.552s-.196-.295-.333-.431l-.707.707zm-2.156-.844a1 1 0 0 0-.357 1.177 1.13 1.13 0 0 0 .97.71l.088-.996c-.086-.008-.117-.054-.123-.07-.005.01-.008.001.02-.019l-.598-.802zm15.677 3.419c.948-1.264 2.297-3.239 3.262-5.06.48-.907.879-1.801 1.078-2.563.099-.38.156-.753.134-1.092s-.126-.687-.39-.951l-.707.707c.036.036.087.118.099.308s-.019.45-.104.775c-.17.65-.527 1.464-.994 2.347-.932 1.759-2.248 3.689-3.178 4.928l.8.6zm4.084-9.666c-.787-.787-1.767-.756-2.566-.475-.786.276-1.486.816-1.896 1.226l.707.707c.341-.341.918-.778 1.521-.99.591-.207 1.112-.176 1.527.239l.707-.707zm-4.421.714a9.36 9.36 0 0 0-2.249 2.706c-.651 1.202-1.052 2.696-.542 4.226l.949-.316c-.391-1.173-.104-2.37.472-3.434s1.411-1.935 1.994-2.401l-.625-.781zm-2.791 6.932c.234.701.48 1.231.736 1.62s.534.663.846.813c.326.157.652.159.936.053a1.37 1.37 0 0 0 .61-.467l-.8-.6c-.051.068-.11.112-.157.129-.033.012-.078.02-.155-.017-.092-.044-.248-.163-.443-.459s-.406-.738-.623-1.388l-.949.316zm-11.61-7.536a21.88 21.88 0 0 0-2.157 3.821c-.31.731-.561 1.483-.673 2.183-.111.691-.096 1.392.195 1.973l.894-.447c-.156-.312-.197-.769-.102-1.368.094-.59.313-1.26.606-1.95.586-1.379 1.438-2.767 2.052-3.634l-.816-.578zm-2.635 7.977c.1.2.157.355.186.47s.024.173.023.181c0 0 .012-.053.074-.098.056-.041.099-.034.084-.035-.044-.003-.189-.046-.392-.213-.191-.157-.393-.393-.555-.699l-.883.469c.222.418.506.757.802 1.002.283.234.624.418.963.44a.86.86 0 0 0 .567-.152c.188-.136.289-.335.325-.537.066-.368-.065-.808-.298-1.274l-.894.447zm-.592-.425c-.685-2.483-.297-5.447 2.442-7.268l-.553-.833c-3.213 2.136-3.612 5.617-2.853 8.367l.964-.266zm2.442-7.268c.241-.16.446-.251.604-.294a.56.56 0 0 1 .276-.025c.012.004-.031-.011-.051-.066-.013-.038.012-.019-.035.088l.914.406c.111-.251.163-.543.066-.823-.103-.298-.342-.486-.613-.565-.496-.145-1.119.05-1.714.445l.553.833zm-2.431 7.298c-.003-.007-.008-.017-.011-.03l-.964.266c.021.078.051.156.092.233l.883-.469zm4.032-7.004c.034-.048.073-.109.107-.184l-.914-.406.807.591zM19.98 47.44V36.926h-1V47.44h1z" fill="#252525"/><defs ><path id="B" d="M36.166 45.311c-.901-1.502-3.129-.375-4.131.376 1.202 1.202 2.754 1.752 3.38 1.878.626-.125 1.652-.751.751-2.253z"/><path id="C" d="M27.016 43.841c.605-.45 1.55.3 1.947.732-.715.291-1.526.282-1.841.242-.287-.137-.711-.524-.106-.973z"/></defs></svg>