<svg width="67" height="53" viewBox="0 0 67 53" fill="none" xmlns="http://www.w3.org/2000/svg">
<g clip-path="url(#clip0_631_12942)">
<rect width="67" height="53" fill="white"/>
<rect width="67" height="53" rx="5" fill="#F8F8F8"/>
<path d="M17 0L17 35" stroke="#E9EBEC" stroke-linecap="round"/>
<path d="M8 40L8 49" stroke="#E9EBEC" stroke-linecap="round"/>
<path d="M24 40L24 49" stroke="#E9EBEC" stroke-linecap="round"/>
<path d="M43 36.5H57" stroke="#E9EBEC" stroke-linecap="round"/>
<path d="M1 9.5L11 9.5" stroke="#E9EBEC" stroke-linecap="round"/>
<path d="M28 32L66 32" stroke="#E9EBEC" stroke-linecap="round"/>
<path d="M1 32L14 32" stroke="#E9EBEC" stroke-linecap="round"/>
<path d="M47 0L47 8" stroke="#E9EBEC" stroke-linecap="round"/>
<g filter="url(#filter0_d_631_12942)">
<rect x="42" y="27" width="22" height="12" rx="1" fill="white"/>
<rect x="42.05" y="27.05" width="21.9" height="11.9" rx="0.95" stroke="#E3E4E6" stroke-width="0.1"/>
</g>
<rect x="44" y="29" width="3" height="3" rx="0.5" fill="#E3E4E6"/>
<rect x="48" y="30" width="14" height="1" rx="0.5" fill="#E3E4E6"/>
<rect x="44" y="34" width="3" height="3" rx="0.5" fill="#E3E4E6"/>
<rect x="48" y="35" width="14" height="1" rx="0.5" fill="#E3E4E6"/>
<g filter="url(#filter1_d_631_12942)">
<rect x="3" y="35" width="27" height="5" rx="1" fill="#EAF5EA"/>
<rect x="3.05" y="35.05" width="26.9" height="4.9" rx="0.95" stroke="#235811" stroke-width="0.1"/>
</g>
<rect x="4" y="36" width="3" height="3" rx="1.5" fill="#235811"/>
<rect x="8" y="37" width="21" height="1" rx="0.5" fill="#235811"/>
<rect x="46.05" y="10.05" width="18.9" height="4.9" rx="0.95" fill="url(#paint0_linear_631_12942)" stroke="#E3E4E6" stroke-width="0.1"/>
<rect x="46.05" y="20.05" width="18.9" height="4.9" rx="0.95" fill="url(#paint1_linear_631_12942)" stroke="#E3E4E6" stroke-width="0.1"/>
<g filter="url(#filter2_d_631_12942)">
<rect x="14" y="6" width="29" height="25" rx="1" fill="white"/>
<rect x="14.05" y="6.05" width="28.9" height="24.9" rx="0.95" stroke="#E3E4E6" stroke-width="0.1"/>
</g>
<rect x="22" y="8" width="19" height="4" rx="0.5" fill="#E3E4E6"/>
<rect x="16" y="14" width="25" height="1.11111" rx="0.5" fill="#E3E4E6"/>
<rect x="16" y="16.2222" width="20.5882" height="1.11111" rx="0.5" fill="#E3E4E6"/>
<rect x="16" y="18.4443" width="16.1765" height="1.11111" rx="0.5" fill="#E3E4E6"/>
<rect x="16" y="20.6665" width="25" height="1.11111" rx="0.5" fill="#E3E4E6"/>
<rect x="16" y="22.8892" width="20.5882" height="1.11111" rx="0.5" fill="#E3E4E6"/>
<rect x="16" y="26" width="7" height="3" rx="0.5" fill="#D5FFC6"/>
<circle cx="18" cy="10" r="2" fill="#E3E4E6"/>
<g filter="url(#filter3_d_631_12942)">
<circle cx="43" cy="6" r="4" fill="url(#paint2_linear_631_12942)"/>
</g>
<path d="M44.935 4.89821C45.0217 4.81155 45.0217 4.66713 44.935 4.58492L44.4151 4.06499C44.3329 3.97834 44.1884 3.97834 44.1018 4.06499L43.693 4.4716L44.5262 5.30482M41 7.16678V8H41.8332L44.2907 5.54034L43.4574 4.70712L41 7.16678Z" fill="white"/>
<g filter="url(#filter4_d_631_12942)">
<circle cx="6" cy="10" r="3" fill="white"/>
<circle cx="6" cy="10" r="2.95" stroke="#979899" stroke-width="0.1"/>
</g>
<path d="M5.66797 9L7.0013 9" stroke="#6E94D3" stroke-width="0.5" stroke-linecap="round"/>
<path d="M5 9L5.00667 9" stroke="#6E94D3" stroke-width="0.5" stroke-linecap="round"/>
<path d="M5.66797 10L7.0013 10" stroke="#6E94D3" stroke-width="0.5" stroke-linecap="round"/>
<path d="M5 10L5.00667 10" stroke="#6E94D3" stroke-width="0.5" stroke-linecap="round"/>
<path d="M5.66797 11L7.0013 11" stroke="#6E94D3" stroke-width="0.5" stroke-linecap="round"/>
<path d="M5 11L5.00667 11" stroke="#6E94D3" stroke-width="0.5" stroke-linecap="round"/>
<g filter="url(#filter5_d_631_12942)">
<circle cx="16" cy="45" r="3" fill="white"/>
<circle cx="16" cy="45" r="2.95" stroke="#979899" stroke-width="0.1"/>
</g>
<path d="M15.5714 44L15.1429 44.8H15.7857V46H14.5V44.8L14.9286 44H15.5714ZM17.2857 44L16.8571 44.8H17.5V46H16.2143V44.8L16.6429 44H17.2857Z" fill="url(#paint3_linear_631_12942)"/>
</g>
<defs>
<filter id="filter0_d_631_12942" x="40" y="25" width="30" height="20" filterUnits="userSpaceOnUse" color-interpolation-filters="sRGB">
<feFlood flood-opacity="0" result="BackgroundImageFix"/>
<feColorMatrix in="SourceAlpha" type="matrix" values="0 0 0 0 0 0 0 0 0 0 0 0 0 0 0 0 0 0 127 0" result="hardAlpha"/>
<feOffset dx="2" dy="2"/>
<feGaussianBlur stdDeviation="2"/>
<feComposite in2="hardAlpha" operator="out"/>
<feColorMatrix type="matrix" values="0 0 0 0 0 0 0 0 0 0 0 0 0 0 0 0 0 0 0.1 0"/>
<feBlend mode="normal" in2="BackgroundImageFix" result="effect1_dropShadow_631_12942"/>
<feBlend mode="normal" in="SourceGraphic" in2="effect1_dropShadow_631_12942" result="shape"/>
</filter>
<filter id="filter1_d_631_12942" x="1" y="33" width="35" height="13" filterUnits="userSpaceOnUse" color-interpolation-filters="sRGB">
<feFlood flood-opacity="0" result="BackgroundImageFix"/>
<feColorMatrix in="SourceAlpha" type="matrix" values="0 0 0 0 0 0 0 0 0 0 0 0 0 0 0 0 0 0 127 0" result="hardAlpha"/>
<feOffset dx="2" dy="2"/>
<feGaussianBlur stdDeviation="2"/>
<feComposite in2="hardAlpha" operator="out"/>
<feColorMatrix type="matrix" values="0 0 0 0 0 0 0 0 0 0 0 0 0 0 0 0 0 0 0.1 0"/>
<feBlend mode="normal" in2="BackgroundImageFix" result="effect1_dropShadow_631_12942"/>
<feBlend mode="normal" in="SourceGraphic" in2="effect1_dropShadow_631_12942" result="shape"/>
</filter>
<filter id="filter2_d_631_12942" x="12" y="4" width="37" height="33" filterUnits="userSpaceOnUse" color-interpolation-filters="sRGB">
<feFlood flood-opacity="0" result="BackgroundImageFix"/>
<feColorMatrix in="SourceAlpha" type="matrix" values="0 0 0 0 0 0 0 0 0 0 0 0 0 0 0 0 0 0 127 0" result="hardAlpha"/>
<feOffset dx="2" dy="2"/>
<feGaussianBlur stdDeviation="2"/>
<feComposite in2="hardAlpha" operator="out"/>
<feColorMatrix type="matrix" values="0 0 0 0 0 0 0 0 0 0 0 0 0 0 0 0 0 0 0.1 0"/>
<feBlend mode="normal" in2="BackgroundImageFix" result="effect1_dropShadow_631_12942"/>
<feBlend mode="normal" in="SourceGraphic" in2="effect1_dropShadow_631_12942" result="shape"/>
</filter>
<filter id="filter3_d_631_12942" x="35" y="2" width="16" height="16" filterUnits="userSpaceOnUse" color-interpolation-filters="sRGB">
<feFlood flood-opacity="0" result="BackgroundImageFix"/>
<feColorMatrix in="SourceAlpha" type="matrix" values="0 0 0 0 0 0 0 0 0 0 0 0 0 0 0 0 0 0 127 0" result="hardAlpha"/>
<feOffset dy="4"/>
<feGaussianBlur stdDeviation="2"/>
<feComposite in2="hardAlpha" operator="out"/>
<feColorMatrix type="matrix" values="0 0 0 0 0 0 0 0 0 0 0 0 0 0 0 0 0 0 0.1 0"/>
<feBlend mode="normal" in2="BackgroundImageFix" result="effect1_dropShadow_631_12942"/>
<feBlend mode="normal" in="SourceGraphic" in2="effect1_dropShadow_631_12942" result="shape"/>
</filter>
<filter id="filter4_d_631_12942" x="-1" y="7" width="14" height="14" filterUnits="userSpaceOnUse" color-interpolation-filters="sRGB">
<feFlood flood-opacity="0" result="BackgroundImageFix"/>
<feColorMatrix in="SourceAlpha" type="matrix" values="0 0 0 0 0 0 0 0 0 0 0 0 0 0 0 0 0 0 127 0" result="hardAlpha"/>
<feOffset dy="4"/>
<feGaussianBlur stdDeviation="2"/>
<feComposite in2="hardAlpha" operator="out"/>
<feColorMatrix type="matrix" values="0 0 0 0 0 0 0 0 0 0 0 0 0 0 0 0 0 0 0.1 0"/>
<feBlend mode="normal" in2="BackgroundImageFix" result="effect1_dropShadow_631_12942"/>
<feBlend mode="normal" in="SourceGraphic" in2="effect1_dropShadow_631_12942" result="shape"/>
</filter>
<filter id="filter5_d_631_12942" x="9" y="42" width="14" height="14" filterUnits="userSpaceOnUse" color-interpolation-filters="sRGB">
<feFlood flood-opacity="0" result="BackgroundImageFix"/>
<feColorMatrix in="SourceAlpha" type="matrix" values="0 0 0 0 0 0 0 0 0 0 0 0 0 0 0 0 0 0 127 0" result="hardAlpha"/>
<feOffset dy="4"/>
<feGaussianBlur stdDeviation="2"/>
<feComposite in2="hardAlpha" operator="out"/>
<feColorMatrix type="matrix" values="0 0 0 0 0 0 0 0 0 0 0 0 0 0 0 0 0 0 0.1 0"/>
<feBlend mode="normal" in2="BackgroundImageFix" result="effect1_dropShadow_631_12942"/>
<feBlend mode="normal" in="SourceGraphic" in2="effect1_dropShadow_631_12942" result="shape"/>
</filter>
<linearGradient id="paint0_linear_631_12942" x1="55.5" y1="10" x2="55.5" y2="15" gradientUnits="userSpaceOnUse">
<stop stop-color="#F6F6F6"/>
<stop offset="1" stop-color="#F2F2F2"/>
</linearGradient>
<linearGradient id="paint1_linear_631_12942" x1="46" y1="23.5" x2="65" y2="23" gradientUnits="userSpaceOnUse">
<stop stop-color="#F8F8F8"/>
<stop offset="1" stop-color="#F4F4F4"/>
</linearGradient>
<linearGradient id="paint2_linear_631_12942" x1="39" y1="10" x2="47" y2="2" gradientUnits="userSpaceOnUse">
<stop stop-color="#2759AB"/>
<stop offset="1" stop-color="#6E94D3"/>
</linearGradient>
<linearGradient id="paint3_linear_631_12942" x1="14.5" y1="46" x2="18" y2="44" gradientUnits="userSpaceOnUse">
<stop stop-color="#1645A0"/>
<stop offset="1" stop-color="#57A2DD"/>
</linearGradient>
<clipPath id="clip0_631_12942">
<rect width="67" height="53" fill="white"/>
</clipPath>
</defs>
</svg>
