<svg viewBox="0 0 320 568" preserveAspectRatio="none" xmlns="http://www.w3.org/2000/svg">
  <g clip-path="url(#clip0_321_323)">
    <rect width="100%" height="100%" fill="#4FBDD2"/>
    <mask id="mask0_321_323" style="mask-type:luminance" maskUnits="userSpaceOnUse" x="0" y="0" width="100%" height="100%">
      <rect width="100%" height="100%" fill="white"/>
    </mask>
    <g mask="url(#mask0_321_323)">
<path opacity="0.154622" fill-rule="evenodd" clip-rule="evenodd" d="M175.507 43.8467C173.871 40.6292 171.725 40.0116 170.011 42.9139C135.619 102.308 101.225 161.749 66.836 221.182C48.8077 252.339 30.7807 283.494 12.7561 314.638C11.308 316.923 10.3403 321.518 10 326.537V331.996C10.3737 339.174 12.1795 345.501 14.4684 346.226C33.7144 355.141 52.9579 364.083 72.1953 373.022L74.3481 374.023C76.4809 374.93 78.5429 377.219 80.4141 380.63L82.3558 384.12C94.2212 405.446 106.091 426.779 117.962 448.109C134.777 478.316 151.594 508.516 168.408 538.681C169.56 540.702 170.927 541.669 172.223 540.586C173.198 539.704 174.091 538.112 174.974 536.539C175.281 535.993 175.586 535.449 175.893 534.938L175.933 534.869L176.477 533.928C193.036 505.274 209.596 476.62 226.155 447.967C252.804 401.845 279.452 355.727 306.095 309.62C307.618 307.245 309.143 304.342 310 299.458V284.506C309.47 281.375 308.704 278.732 307.73 277.039C290.366 246.406 272.997 215.788 255.63 185.171C228.916 138.078 202.203 90.986 175.507 43.8467ZM178.163 531.028C177.406 532.337 176.65 533.646 175.893 534.955C175.808 535.097 175.723 535.241 175.638 535.387C175.723 535.241 175.808 535.097 175.893 534.956V534.955L176.313 534.229C176.93 533.162 177.546 532.095 178.163 531.028ZM174.084 394.221C175.854 397.511 177.624 400.802 179.399 404.056C179.813 405.006 180.302 404.752 180.578 403.357C184.154 388.906 187.723 374.42 191.292 359.934L191.293 359.929L191.295 359.923L191.297 359.917C194.067 348.672 196.838 337.427 199.611 326.199C199.986 324.622 200.588 324.315 201.184 324.012C201.451 323.876 201.716 323.741 201.959 323.492C207.274 319.865 212.587 316.201 217.902 312.536L217.903 312.536L217.907 312.533C226.987 306.272 236.072 300.008 245.176 293.918C243.105 290.142 241.024 286.423 238.941 282.701L238.939 282.696C237.229 279.641 235.518 276.583 233.811 273.49C233.423 272.58 232.951 272.932 232.511 273.261L232.508 273.263C232.479 273.284 232.451 273.305 232.423 273.326C230.699 274.755 228.973 276.177 227.248 277.599L227.248 277.599C220.029 283.548 212.804 289.502 205.617 295.991C204.839 296.777 204.047 297.52 203.223 297.705C204.408 293.314 205.675 289.167 206.943 285.016C207.502 283.187 208.061 281.357 208.614 279.505C210.684 272.19 212.778 264.918 214.875 257.639L214.875 257.637L214.876 257.635C216.019 253.666 217.163 249.695 218.303 245.713C216.485 242.496 214.674 239.251 212.863 236.008L212.858 235.999C210.635 232.018 208.413 228.039 206.179 224.11C204.808 229.262 203.478 234.543 202.147 239.827L202.147 239.827C200.335 247.024 198.521 254.226 196.601 261.111C195.332 266.075 194.068 271.043 192.804 276.008C190.996 283.11 189.189 290.207 187.375 297.282C187.073 298.783 186.55 299.145 186.042 299.497C185.912 299.587 185.784 299.675 185.66 299.782C177.911 304.757 170.182 309.97 162.454 315.182L162.454 315.182C154.89 320.283 147.326 325.384 139.744 330.263C140.515 332.208 141.383 333.757 142.252 335.307L142.252 335.308L142.253 335.309C142.556 335.85 142.86 336.392 143.159 336.951C144.229 338.97 145.306 340.957 146.384 342.946L146.384 342.947L146.386 342.95L146.386 342.95C147.661 345.302 148.938 347.657 150.206 350.073C150.274 350.191 150.343 350.316 150.412 350.443C150.869 351.275 151.354 352.159 151.9 351.364C154.766 349.098 157.639 346.88 160.513 344.661L160.513 344.661L160.514 344.66L160.515 344.659C167.271 339.443 174.032 334.223 180.73 328.358C181.762 327.387 182.801 326.411 183.883 326.07C181.056 335.893 178.197 345.613 175.298 355.22C174.517 358.059 173.729 360.881 172.942 363.702L172.941 363.707L172.941 363.708L172.94 363.709L172.94 363.71C171.203 369.937 169.465 376.167 167.786 382.592C169.89 386.426 171.987 390.323 174.084 394.221ZM112.427 284.078C110.276 279.207 108.162 273.067 107.384 264.643C106.618 256.516 107.672 247.859 109.221 241.425C111.611 231.563 114.815 224.322 118.049 217.672C122.088 209.374 126.383 202.548 130.675 195.727L130.675 195.726C132.25 193.223 133.825 190.72 135.386 188.146C144.284 173.858 153.203 159.505 162.087 145.087C163.439 147.48 164.788 149.903 166.138 152.327L166.142 152.334C167.921 155.529 169.701 158.726 171.49 161.858C171.935 162.575 172.315 163.59 172.701 164.669C165.572 176.038 158.463 187.531 151.358 199.017L151.34 199.047C148.329 203.914 145.319 208.78 142.309 213.635C141.25 215.382 140.185 217.093 139.119 218.804L139.119 218.804C136.406 223.161 133.691 227.521 131.074 232.491C129.06 236.49 127.026 240.661 125.475 246.503C124.631 249.638 124.08 254.146 124.578 258.231C125.121 262.972 126.568 265.619 127.901 267.799C131.488 273.136 135.604 272.855 139.397 270.338C144.338 266.698 148.982 259.858 153.478 252.496C159.841 242.089 166.212 231.73 172.585 221.37L172.595 221.353C177.784 212.917 182.973 204.479 188.16 196.013C188.28 195.849 188.403 195.637 188.529 195.42L188.529 195.42C188.999 194.614 189.506 193.743 189.986 195.029C191.436 197.611 192.881 200.208 194.326 202.802L194.328 202.805C195.914 205.654 197.498 208.501 199.087 211.325C199.357 211.579 199.866 213.06 199.291 213.44C192.236 224.917 185.194 236.456 178.148 248L178.116 248.052C173.947 254.884 169.776 261.718 165.6 268.542C156.035 284.35 145.854 297.705 135.073 301.008C127.247 303.193 119.037 298.366 112.427 284.078Z" fill="white"/>
</g>
</g>
<defs>
<clipPath id="clip0_321_323">
<rect width="100%" height="100%" fill="white"/>
</clipPath>
</defs>
</svg>
