<svg width="462" height="793" fill="none" xmlns="http://www.w3.org/2000/svg"><path fill="#EFF1F3" d="M4 0h454v793H4z"/><g filter="url(#a)"><path fill="#F7F9FB" d="M191 32h267v708H191z"/><path fill="#F7F9FB" stroke="#000" d="M221.5 86.5h167v272h-167z"/><path fill="#F7F9FB" stroke="#000" d="M235.5 104.5h139v198h-139z"/><path fill="#F7F9FB" stroke="#000" d="M240.5 154.5h129v143h-129z"/><path stroke="#000" d="m240.629 297.665 129-143M370.371 297.665l-129-143"/><mask id="b" fill="#fff"><path d="M429 86h29v273h-29V86z"/></mask><path d="M429 86h29v273h-29V86z" fill="#F7F9FB"/><path d="M429 86v-1h-1v1h1zm0 273h-1v1h1v-1zm0-272h29v-2h-29v2zm29 271h-29v2h29v-2zm-28 1V86h-2v273h2z" fill="#000" mask="url(#b)"/><mask id="c" fill="#fff"><path d="M235 99h140v7H235v-7z"/></mask><path d="M235 99h140v7H235v-7z" fill="#F7F9FB"/><path d="M235 99v-1h-1v1h1zm140 0h1v-1h-1v1zm0 7v1h1v-1h-1zm-140 0h-1v1h1v-1zm0-6h140v-2H235v2zm139-1v7h2v-7h-2zm1 6H235v2h140v-2zm-139 1v-7h-2v7h2z" fill="#000" mask="url(#c)"/><mask id="d" fill="#fff"><path d="M438 105h20v58h-20v-58z"/></mask><path d="M438 105h20v58h-20v-58z" fill="#F7F9FB"/><path d="M438 105v-1h-1v1h1zm0 58h-1v1h1v-1zm0-57h20v-2h-20v2zm20 56h-20v2h20v-2zm-19 1v-58h-2v58h2z" fill="#000" mask="url(#d)"/><mask id="e" fill="#fff"><path d="M438 172h20v81h-20v-81z"/></mask><path d="M438 172h20v81h-20v-81z" fill="#F7F9FB"/><path d="M438 172v-1h-1v1h1zm0 81h-1v1h1v-1zm0-80h20v-2h-20v2zm20 79h-20v2h20v-2zm-19 1v-81h-2v81h2z" fill="#000" mask="url(#e)"/><mask id="f" fill="#fff"><path d="M445 177h13v25h-13v-25z"/></mask><path d="M445 177h13v25h-13v-25z" fill="#F7F9FB"/><path d="M445 177v-1h-1v1h1zm0 25h-1v1h1v-1zm0-24h13v-2h-13v2zm13 23h-13v2h13v-2zm-12 1v-25h-2v25h2z" fill="#000" mask="url(#f)"/><mask id="g" fill="#fff"><path d="M445 222h13v25h-13v-25z"/></mask><path d="M445 222h13v25h-13v-25z" fill="#F7F9FB"/><path d="M445 222v-1h-1v1h1zm0 25h-1v1h1v-1zm0-24h13v-2h-13v2zm13 23h-13v2h13v-2zm-12 1v-25h-2v25h2z" fill="#000" mask="url(#g)"/><mask id="h" fill="#fff"><path d="M445 205h13v14h-13v-14z"/></mask><path d="M445 205h13v14h-13v-14z" fill="#F7F9FB"/><path d="M445 205v-1h-1v1h1zm0 14h-1v1h1v-1zm0-13h13v-2h-13v2zm13 12h-13v2h13v-2zm-12 1v-14h-2v14h2z" fill="#000" mask="url(#h)"/><mask id="i" fill="#fff"><path d="M438 266h20v46h-20v-46z"/></mask><path d="M438 266h20v46h-20v-46z" fill="#F7F9FB"/><path d="M438 266v-1h-1v1h1zm0 46h-1v1h1v-1zm0-45h20v-2h-20v2zm20 44h-20v2h20v-2zm-19 1v-46h-2v46h2z" fill="#000" mask="url(#i)"/><mask id="j" fill="#fff"><path d="M438 99h20v7h-20v-7z"/></mask><path d="M438 99h20v7h-20v-7z" fill="#F7F9FB"/><path d="M438 99v-1h-1v1h1zm0 7h-1v1h1v-1zm0-6h20v-2h-20v2zm20 5h-20v2h20v-2zm-19 1v-7h-2v7h2z" fill="#000" mask="url(#j)"/><path fill="#F7F9FB" stroke="#000" d="M221.5 405.5h167v272h-167z"/><path fill="#F7F9FB" stroke="#000" d="M235.5 421.5h139v14h-139z"/><mask id="k" fill="#fff"><path d="M429 405h29v273h-29V405z"/></mask><path d="M429 405h29v273h-29V405z" fill="#F7F9FB"/><path d="M429 405v-1h-1v1h1zm0 273h-1v1h1v-1zm0-272h29v-2h-29v2zm29 271h-29v2h29v-2zm-28 1V405h-2v273h2z" fill="#000" mask="url(#k)"/><mask id="l" fill="#fff"><path d="M439.875 421H458v7h-18.125v-7z"/></mask><path d="M439.875 421H458v7h-18.125v-7z" fill="#F7F9FB"/><path d="M439.875 421v-1h-1v1h1zm0 7h-1v1h1v-1zm0-6H458v-2h-18.125v2zM458 427h-18.125v2H458v-2zm-17.125 1v-7h-2v7h2z" fill="#000" mask="url(#l)"/><mask id="m" fill="#fff"><path d="M439.875 442H458v199h-18.125V442z"/></mask><path d="M439.875 442H458v199h-18.125V442z" fill="#F7F9FB"/><path d="M439.875 442v-1h-1v1h1zm0 199h-1v1h1v-1zm0-198H458v-2h-18.125v2zM458 640h-18.125v2H458v-2zm-17.125 1V442h-2v199h2z" fill="#000" mask="url(#m)"/><path fill="#F7F9FB" stroke="#000" d="M235.5 481.5h139v182h-139z"/><path fill="#F7F9FB" stroke="#000" d="M240.5 486.5h61v29h-61z"/><mask id="n" fill="#fff"><path d="M240 521h130v40H240v-40z"/></mask><path d="M240 521h130v40H240v-40z" fill="#F7F9FB"/><path d="M240 522h130v-2H240v2zm130 38H240v2h130v-2z" fill="#000" mask="url(#n)"/><mask id="o" fill="#fff"><path d="M240 599h130v26H240v-26z"/></mask><path d="M240 599h130v26H240v-26z" fill="#F7F9FB"/><path d="M240 600h130v-2H240v2zm130 24H240v2h130v-2z" fill="#000" mask="url(#o)"/><path fill="#F7F9FB" stroke="#000" d="M240.5 566.5h61v29h-61zM240.5 629.5h61v29h-61zM308.5 486.5h61v29h-61zM308.5 566.5h61v29h-61zM308.5 629.5h61v29h-61z"/><path fill="#F7F9FB" stroke="#000" stroke-width=".5" d="M255.25 458.25h99.5v.5h-99.5z"/></g><g filter="url(#p)"><path fill="#F7F9FB" d="M4 228h45v267H4z"/><mask id="q" maskUnits="userSpaceOnUse" x="4" y="344" width="38" height="67" fill="#000"><path fill="#fff" d="M4 344h38v67H4z"/><path d="M4 345h37v65H4v-65z"/></mask><path d="M4 345h37v65H4v-65z" fill="#EFE5CB"/><path d="M41 345h1v-1h-1v1zm0 65v1h1v-1h-1zM4 346h37v-2H4v2zm36-1v65h2v-65h-2zm1 64H4v2h37v-2z" fill="#F1DCC3" mask="url(#q)"/><mask id="r" maskUnits="userSpaceOnUse" x="4" y="256" width="38" height="62" fill="#000"><path fill="#fff" d="M4 256h38v62H4z"/><path d="M4 257h37v60H4v-60z"/></mask><path d="M4 257h37v60H4v-60z" fill="#0867C2"/><path d="M41 257h1v-1h-1v1zm0 60v1h1v-1h-1zM4 258h37v-2H4v2zm36-1v60h2v-60h-2zm1 59H4v2h37v-2z" fill="#085A9E" mask="url(#r)"/><mask id="s" maskUnits="userSpaceOnUse" x="4" y="270" width="30" height="34" fill="#000"><path fill="#fff" d="M4 270h30v34H4z"/><path d="M4 271h29v32H4v-32z"/></mask><path d="M4 271h29v32H4v-32z" fill="#F2F8F8"/><path d="M33 271h1v-1h-1v1zm0 32v1h1v-1h-1zM4 272h29v-2H4v2zm28-1v32h2v-32h-2zm1 31H4v2h29v-2z" fill="#5D98D1" mask="url(#s)"/><mask id="t" maskUnits="userSpaceOnUse" x="4" y="424" width="38" height="38" fill="#000"><path fill="#fff" d="M4 424h38v38H4z"/><path d="M4 425h37v36H4v-36z"/></mask><path d="M4 425h37v36H4v-36z" fill="#F08E9D"/><path d="M41 425h1v-1h-1v1zm0 36v1h1v-1h-1zM4 426h37v-2H4v2zm36-1v36h2v-36h-2zm1 35H4v2h37v-2z" fill="#D3858B" mask="url(#t)"/><mask id="u" maskUnits="userSpaceOnUse" x="4" y="409" width="38" height="17" fill="#000"><path fill="#fff" d="M4 409h38v17H4z"/><path d="M4 410h37v15H4v-15z"/></mask><path d="M4 410h37v15H4v-15z" fill="#F6BBCA"/><path d="M41 410h1v-1h-1v1zm0 15v1h1v-1h-1zM4 411h37v-2H4v2zm36-1v15h2v-15h-2zm1 14H4v2h37v-2z" fill="#FDCDDF" mask="url(#u)"/></g><g filter="url(#v)"><path fill="#F7F9FB" d="M45 602h76v130H45z"/><mask id="w" maskUnits="userSpaceOnUse" x="49" y="660" width="32" height="17" fill="#000"><path fill="#fff" d="M49 660h32v17H49z"/><path d="M50 661h30v15H50v-15z"/></mask><path d="M50 661h30v15H50v-15z" fill="#8D8FE5"/><path d="M50 661v-1h-1v1h1zm30 0h1v-1h-1v1zm0 15v1h1v-1h-1zm-30 0h-1v1h1v-1zm0-14h30v-2H50v2zm29-1v15h2v-15h-2zm1 14H50v2h30v-2zm-29 1v-15h-2v15h2z" fill="#8184C3" mask="url(#w)"/><mask id="x" maskUnits="userSpaceOnUse" x="84" y="660" width="33" height="17" fill="#000"><path fill="#fff" d="M84 660h33v17H84z"/><path d="M85 661h31v15H85v-15z"/></mask><path d="M85 661h31v15H85v-15z" fill="#8D8FE5"/><path d="M85 661v-1h-1v1h1zm31 0h1v-1h-1v1zm0 15v1h1v-1h-1zm-31 0h-1v1h1v-1zm0-14h31v-2H85v2zm30-1v15h2v-15h-2zm1 14H85v2h31v-2zm-30 1v-15h-2v15h2z" fill="#8184C3" mask="url(#x)"/><mask id="y" maskUnits="userSpaceOnUse" x="49" y="606" width="68" height="51" fill="#000"><path fill="#fff" d="M49 606h68v51H49z"/><path d="M50 607h66v49H50v-49z"/></mask><path d="M50 607h66v49H50v-49z" fill="#195CB0"/><path d="M50 607v-1h-1v1h1zm66 0h1v-1h-1v1zm0 49v1h1v-1h-1zm-66 0h-1v1h1v-1zm0-48h66v-2H50v2zm65-1v49h2v-49h-2zm1 48H50v2h66v-2zm-65 1v-49h-2v49h2z" fill="#085A9E" mask="url(#y)"/><path d="M50 625h33v31H50v-31z" fill="#06459D"/><path d="M83 625h33v31H83v-31z" fill="#0B4CA1"/><path d="M83 607h33v18H83v-18z" fill="#1455AD"/><mask id="z" maskUnits="userSpaceOnUse" x="49" y="680" width="68" height="48" fill="#000"><path fill="#fff" d="M49 680h68v48H49z"/><path d="M50 681h66v46H50v-46z"/></mask><path d="M50 681h66v46H50v-46z" fill="#EBA5BB"/><path d="M50 681v-1h-1v1h1zm66 0h1v-1h-1v1zm0 46v1h1v-1h-1zm-66 0h-1v1h1v-1zm0-45h66v-2H50v2zm65-1v46h2v-46h-2zm1 45H50v2h66v-2zm-65 1v-46h-2v46h2z" fill="#D3AFBD" mask="url(#z)"/></g><g filter="url(#A)"><path d="M4 53h64.274L72 222H4V53z" fill="#EFF5F7"/><path fill="#EA2361" stroke="#D86D98" d="M27.5 56.5h38v23h-38z"/><mask id="B" maskUnits="userSpaceOnUse" x="5" y="56" width="19" height="24" fill="#000"><path fill="#fff" d="M5 56h19v24H5z"/><path d="M5 57h18v22H5V57z"/></mask><path d="M5 57h18v22H5V57z" fill="#E41D65"/><path d="M23 57h1v-1h-1v1zm0 22v1h1v-1h-1zM5 58h18v-2H5v2zm17-1v22h2V57h-2zm1 21H5v2h18v-2z" fill="#C6195F" mask="url(#B)"/><path fill="#DD1558" stroke="#CB5D90" d="M27.5 82.5h38v23h-38z"/><mask id="C" maskUnits="userSpaceOnUse" x="5" y="82" width="19" height="24" fill="#000"><path fill="#fff" d="M5 82h19v24H5z"/><path d="M5 83h18v22H5V83z"/></mask><path d="M5 83h18v22H5V83z" fill="#DA2061"/><path d="M23 83h1v-1h-1v1zm0 22v1h1v-1h-1zM5 84h18v-2H5v2zm17-1v22h2V83h-2zm1 21H5v2h18v-2z" fill="#B72C6F" mask="url(#C)"/><path fill="#D32066" stroke="#B14D81" d="M27.5 108.5h38v23h-38z"/><mask id="D" maskUnits="userSpaceOnUse" x="5" y="108" width="19" height="24" fill="#000"><path fill="#fff" d="M5 108h19v24H5z"/><path d="M5 109h18v22H5v-22z"/></mask><path d="M5 109h18v22H5v-22z" fill="#D4276F"/><path d="M23 109h1v-1h-1v1zm0 22v1h1v-1h-1zM5 110h18v-2H5v2zm17-1v22h2v-22h-2zm1 21H5v2h18v-2z" fill="#B92668" mask="url(#D)"/><path fill="#C92770" stroke="#BC4687" d="M27.5 134.5h38v23h-38z"/><mask id="E" maskUnits="userSpaceOnUse" x="5" y="134" width="19" height="24" fill="#000"><path fill="#fff" d="M5 134h19v24H5z"/><path d="M5 135h18v22H5v-22z"/></mask><path d="M5 135h18v22H5v-22z" fill="#B52676"/><path d="M23 135h1v-1h-1v1zm0 22v1h1v-1h-1zM5 136h18v-2H5v2zm17-1v22h2v-22h-2zm1 21H5v2h18v-2z" fill="#AF2D72" mask="url(#E)"/><path fill="#C81E61" stroke="#AB2663" d="M27.5 160.5h38v23h-38z"/><mask id="F" maskUnits="userSpaceOnUse" x="5" y="160" width="19" height="24" fill="#000"><path fill="#fff" d="M5 160h19v24H5z"/><path d="M5 161h18v22H5v-22z"/></mask><path d="M5 161h18v22H5v-22z" fill="#9A3280"/><path d="M23 161h1v-1h-1v1zm0 22v1h1v-1h-1zM5 162h18v-2H5v2zm17-1v22h2v-22h-2zm1 21H5v2h18v-2z" fill="#85286D" mask="url(#F)"/><path fill="#C088B9" stroke="#B387B8" d="M27.5 186.5h38v23h-38z"/><mask id="G" maskUnits="userSpaceOnUse" x="5" y="186" width="19" height="24" fill="#000"><path fill="#fff" d="M5 186h19v24H5z"/><path d="M5 187h18v22H5v-22z"/></mask><path d="M5 187h18v22H5v-22z" fill="#CD8ACA"/><path d="M23 187h1v-1h-1v1zm0 22v1h1v-1h-1zM5 188h18v-2H5v2zm17-1v22h2v-22h-2zm1 21H5v2h18v-2z" fill="#C280B4" mask="url(#G)"/></g><g filter="url(#H)"><path d="M57 394h88.849L151 554H57V394z" fill="#EFF5F7"/><path fill="#FACB05" stroke="#F0BF47" d="M104.5 398.5h38v14h-38zM62.5 398.5h38v14h-38z"/><path fill="#F9AE04" stroke="#F2A62C" d="M104.5 416.5h38v19h-38zM62.5 416.5h38v19h-38z"/><path fill="#F79E06" stroke="#F59A2A" d="M104.5 439.5h38v18h-38zM62.5 439.5h38v18h-38z"/><path fill="#F58313" stroke="#D3883F" d="M104.5 461.5h38v19h-38zM62.5 461.5h38v19h-38z"/><path fill="#F0970D" stroke="#CC853D" d="M104.5 484.5h38v19h-38zM62.5 484.5h38v19h-38z"/><path fill="#F0A10C" stroke="#E38D19" d="M104.5 507.5h38v16h-38z"/><path fill="#F1A514" stroke="#D48E28" d="M104.5 527.5h38v14h-38z"/><path fill="#F0A10C" stroke="#E38D19" d="M62.5 507.5h38v16h-38z"/><path fill="#F1A514" stroke="#D48E28" d="M62.5 527.5h38v14h-38z"/></g><g filter="url(#I)"><path fill="#F7F9FB" d="M54 206h103v102H54z"/><path fill="#C1C9ED" stroke="#AEB7D8" d="M71.5 224.5h67v16h-67z"/><path fill="#93A6DD" stroke="#7E92CB" d="M71.5 240.5h67v49h-67z"/></g><defs><filter id="a" x="187" y="32" width="275" height="716" filterUnits="userSpaceOnUse" color-interpolation-filters="sRGB"><feFlood flood-opacity="0" result="BackgroundImageFix"/><feColorMatrix in="SourceAlpha" values="0 0 0 0 0 0 0 0 0 0 0 0 0 0 0 0 0 0 127 0" result="hardAlpha"/><feOffset dy="4"/><feGaussianBlur stdDeviation="2"/><feComposite in2="hardAlpha" operator="out"/><feColorMatrix values="0 0 0 0 0 0 0 0 0 0 0 0 0 0 0 0 0 0 0.25 0"/><feBlend in2="BackgroundImageFix" result="effect1_dropShadow_698_243"/><feBlend in="SourceGraphic" in2="effect1_dropShadow_698_243" result="shape"/></filter><filter id="p" x="0" y="228" width="53" height="275" filterUnits="userSpaceOnUse" color-interpolation-filters="sRGB"><feFlood flood-opacity="0" result="BackgroundImageFix"/><feColorMatrix in="SourceAlpha" values="0 0 0 0 0 0 0 0 0 0 0 0 0 0 0 0 0 0 127 0" result="hardAlpha"/><feOffset dy="4"/><feGaussianBlur stdDeviation="2"/><feComposite in2="hardAlpha" operator="out"/><feColorMatrix values="0 0 0 0 0 0 0 0 0 0 0 0 0 0 0 0 0 0 0.25 0"/><feBlend in2="BackgroundImageFix" result="effect1_dropShadow_698_243"/><feBlend in="SourceGraphic" in2="effect1_dropShadow_698_243" result="shape"/></filter><filter id="v" x="41" y="602" width="84" height="138" filterUnits="userSpaceOnUse" color-interpolation-filters="sRGB"><feFlood flood-opacity="0" result="BackgroundImageFix"/><feColorMatrix in="SourceAlpha" values="0 0 0 0 0 0 0 0 0 0 0 0 0 0 0 0 0 0 127 0" result="hardAlpha"/><feOffset dy="4"/><feGaussianBlur stdDeviation="2"/><feComposite in2="hardAlpha" operator="out"/><feColorMatrix values="0 0 0 0 0 0 0 0 0 0 0 0 0 0 0 0 0 0 0.25 0"/><feBlend in2="BackgroundImageFix" result="effect1_dropShadow_698_243"/><feBlend in="SourceGraphic" in2="effect1_dropShadow_698_243" result="shape"/></filter><filter id="A" x="0" y="53" width="76" height="177" filterUnits="userSpaceOnUse" color-interpolation-filters="sRGB"><feFlood flood-opacity="0" result="BackgroundImageFix"/><feColorMatrix in="SourceAlpha" values="0 0 0 0 0 0 0 0 0 0 0 0 0 0 0 0 0 0 127 0" result="hardAlpha"/><feOffset dy="4"/><feGaussianBlur stdDeviation="2"/><feComposite in2="hardAlpha" operator="out"/><feColorMatrix values="0 0 0 0 0 0 0 0 0 0 0 0 0 0 0 0 0 0 0.25 0"/><feBlend in2="BackgroundImageFix" result="effect1_dropShadow_698_243"/><feBlend in="SourceGraphic" in2="effect1_dropShadow_698_243" result="shape"/></filter><filter id="H" x="53" y="394" width="102" height="168" filterUnits="userSpaceOnUse" color-interpolation-filters="sRGB"><feFlood flood-opacity="0" result="BackgroundImageFix"/><feColorMatrix in="SourceAlpha" values="0 0 0 0 0 0 0 0 0 0 0 0 0 0 0 0 0 0 127 0" result="hardAlpha"/><feOffset dy="4"/><feGaussianBlur stdDeviation="2"/><feComposite in2="hardAlpha" operator="out"/><feColorMatrix values="0 0 0 0 0 0 0 0 0 0 0 0 0 0 0 0 0 0 0.25 0"/><feBlend in2="BackgroundImageFix" result="effect1_dropShadow_698_243"/><feBlend in="SourceGraphic" in2="effect1_dropShadow_698_243" result="shape"/></filter><filter id="I" x="50" y="206" width="111" height="110" filterUnits="userSpaceOnUse" color-interpolation-filters="sRGB"><feFlood flood-opacity="0" result="BackgroundImageFix"/><feColorMatrix in="SourceAlpha" values="0 0 0 0 0 0 0 0 0 0 0 0 0 0 0 0 0 0 127 0" result="hardAlpha"/><feOffset dy="4"/><feGaussianBlur stdDeviation="2"/><feComposite in2="hardAlpha" operator="out"/><feColorMatrix values="0 0 0 0 0 0 0 0 0 0 0 0 0 0 0 0 0 0 0.25 0"/><feBlend in2="BackgroundImageFix" result="effect1_dropShadow_698_243"/><feBlend in="SourceGraphic" in2="effect1_dropShadow_698_243" result="shape"/></filter></defs></svg>