<svg width="1440" height="1024" viewBox="0 0 1440 1024" fill="none" xmlns="http://www.w3.org/2000/svg">
<g clip-path="url(#clip0_321_311)">
<rect width="1440" height="1024" fill="white"/>
<rect width="1440" height="1024" fill="#4FBDD2"/>
<mask id="mask0_321_311" style="mask-type:luminance" maskUnits="userSpaceOnUse" x="36" y="0" width="1313" height="922">
<rect x="36" width="1313" height="922" fill="white"/>
</mask>
<g mask="url(#mask0_321_311)">
<path opacity="0.154622" fill-rule="evenodd" clip-rule="evenodd" d="M747.26 54.6764C740.333 49.142 731.248 48.0798 723.993 53.0718C578.408 155.229 432.812 257.465 287.237 359.687C210.911 413.284 134.59 466.876 58.2796 520.45C52.1493 524.38 48.053 532.284 46.6122 540.916V541.945C48.1942 554.577 55.8387 565.712 65.5286 566.989C146.807 582.639 228.076 598.338 309.319 614.033L309.569 614.081L309.572 614.082L319.019 615.907C328.048 617.503 336.777 621.531 344.699 627.536L352.811 633.597L352.885 633.652C474.276 724.352 595.766 815.127 717.208 905.719C722.084 909.276 727.869 910.979 733.356 909.071C737.482 907.52 741.265 904.717 745.003 901.948C746.301 900.986 747.594 900.029 748.893 899.129L749.46 898.721C933.017 766.652 1116.57 634.582 1300.08 502.566C1306.53 498.386 1312.98 493.278 1316.61 484.682V468.621C1314.37 463.235 1311.13 458.689 1307 455.777C1233.52 403.104 1160.01 350.456 1086.51 297.809C973.402 216.79 860.295 135.774 747.26 54.6764ZM1316.61 484.712C1312.98 493.308 1306.53 498.424 1300.08 502.604C1116.39 634.756 932.639 766.954 748.893 899.16C747.602 900.056 746.317 901.009 745.026 901.966C741.281 904.743 737.49 907.554 733.356 909.109C731.973 909.586 730.572 909.837 729.171 909.888C730.572 909.839 731.973 909.593 733.356 909.123C737.482 907.607 741.266 904.867 745.003 902.161C746.301 901.221 747.594 900.285 748.893 899.406C932.639 770.193 1116.39 640.98 1300.08 511.818C1306.53 507.733 1312.98 502.741 1316.61 494.339V484.712ZM727.121 909.822C723.658 909.481 720.255 907.99 717.208 905.757C595.807 815.195 474.357 724.451 353.007 633.782L352.915 633.713L352.9 633.701L344.699 627.574C336.777 621.569 328.048 617.548 319.019 615.945L308.134 613.842L308.044 613.825L307.84 613.785C227.09 598.186 146.314 582.582 65.5286 567.019C55.8387 565.758 48.1942 554.615 46.6122 541.983V550.306C48.1942 562.652 55.8387 573.535 65.5286 574.783C147.038 590.123 228.537 605.51 310.011 620.893L319.019 622.594C328.048 624.154 336.777 628.091 344.699 633.96L352.991 640.015C474.346 728.637 595.801 817.331 717.208 905.847C720.255 908.02 723.658 909.485 727.121 909.822ZM741.234 651.434C748.726 657.225 756.221 663.018 763.737 668.747C765.489 670.419 767.557 669.971 768.726 667.516C783.853 642.096 798.953 616.615 814.052 591.134L814.081 591.086L814.086 591.077C825.821 571.274 837.556 551.471 849.302 531.7C850.886 528.923 853.437 528.383 855.958 527.849C857.088 527.61 858.212 527.372 859.24 526.934C881.739 520.55 904.234 514.1 926.736 507.648L926.742 507.647C965.184 496.625 1003.65 485.597 1042.19 474.877C1033.43 468.232 1024.62 461.688 1015.81 455.139L1015.8 455.135L1015.8 455.13C1008.55 449.749 1001.31 444.365 994.079 438.919C992.438 437.316 990.438 437.936 988.575 438.515L988.571 438.516C988.448 438.554 988.325 438.592 988.203 438.63C980.91 441.143 973.613 443.643 966.314 446.144L966.305 446.147L966.296 446.15C935.738 456.622 905.152 467.104 874.727 478.526C871.433 479.909 868.077 481.216 864.591 481.543C869.607 473.815 874.971 466.515 880.339 459.209L880.34 459.207L880.342 459.204C882.708 455.985 885.074 452.765 887.412 449.506C896.174 436.633 905.037 423.835 913.911 411.024L913.919 411.013L913.937 410.986C918.77 404.008 923.607 397.025 928.431 390.024C920.733 384.36 913.064 378.648 905.395 372.937C895.981 365.927 886.568 358.917 877.106 351.998C871.301 361.065 865.67 370.362 860.037 379.663C852.365 392.332 844.688 405.009 836.555 417.127C831.199 425.846 825.858 434.571 820.518 443.292L820.485 443.347L820.469 443.372L820.438 443.424C812.799 455.901 805.165 468.369 797.502 480.798C796.223 483.44 794.009 484.077 791.856 484.697C791.309 484.855 790.765 485.011 790.242 485.199C757.437 493.956 724.723 503.13 692.011 512.304L692.004 512.306C659.983 521.285 627.963 530.265 595.863 538.852C599.128 542.276 602.803 545.003 606.481 547.733C607.766 548.687 609.052 549.641 610.321 550.625C614.853 554.182 619.414 557.681 623.98 561.184L623.982 561.185C629.379 565.325 634.783 569.471 640.153 573.724C640.336 573.855 640.519 573.991 640.703 574.129C640.809 574.209 640.916 574.29 641.023 574.371L641.026 574.374C642.958 575.838 645.013 577.395 647.323 575.996C659.455 572.007 671.613 568.104 683.776 564.199L683.788 564.195L683.789 564.195C712.389 555.013 741.013 545.823 769.37 535.5C773.738 533.79 778.139 532.072 782.716 531.472C770.749 548.763 758.647 565.872 746.375 582.784C743.065 587.784 739.73 592.754 736.396 597.724C729.04 608.686 721.682 619.652 714.576 630.964C723.48 637.711 732.354 644.57 741.231 651.432L741.234 651.434ZM480.221 457.554C471.113 448.981 462.163 438.173 458.869 423.344C455.626 409.039 460.09 393.8 466.649 382.475C476.763 365.115 490.329 352.369 504.019 340.664C521.118 326.057 539.3 314.042 557.47 302.034C564.138 297.628 570.803 293.223 577.413 288.691C615.082 263.54 652.836 238.276 690.449 212.897C696.172 217.109 701.885 221.375 707.599 225.643L707.61 225.65C715.143 231.276 722.68 236.905 730.254 242.418C732.135 243.68 733.745 245.466 735.378 247.366C705.208 267.374 675.121 287.599 645.051 307.812L645.042 307.818L645.01 307.839C632.246 316.42 619.484 324.999 606.72 333.557C602.239 336.632 597.732 339.642 593.223 342.652L593.216 342.657L593.216 342.657C581.73 350.327 570.237 358.001 559.158 366.749C550.632 373.788 542.021 381.13 535.456 391.414C531.885 396.932 529.552 404.867 531.659 412.057C533.959 420.402 540.083 425.062 545.728 428.9C560.909 438.294 578.334 437.8 594.392 433.369C615.308 426.962 634.971 414.922 654 401.963C680.919 383.658 707.869 365.439 734.824 347.216L734.879 347.179C756.861 332.317 778.847 317.454 800.823 302.539C801.329 302.251 801.852 301.877 802.387 301.495C804.373 300.077 806.522 298.543 808.552 300.806C814.681 305.344 820.789 309.906 826.893 314.465L826.934 314.496C833.647 319.51 840.355 324.52 847.08 329.491C848.221 329.94 850.38 332.547 847.945 333.215C818.079 353.416 788.27 373.724 758.448 394.042L758.44 394.047C740.744 406.104 723.042 418.164 705.32 430.207C664.826 458.033 621.727 481.542 576.086 487.357C542.959 491.202 508.2 482.705 480.221 457.554Z" fill="white"/>
</g>
</g>
<defs>
<clipPath id="clip0_321_311">
<rect width="1440" height="1024" fill="white"/>
</clipPath>
</defs>
</svg>
