<svg viewBox="0 0 834 1024" preserveAspectRatio="none" fill="none" xmlns="http://www.w3.org/2000/svg">
  <g clip-path="url(#clip0_322_333)">
    <rect width="100%" height="100%" fill="white"/>
    <rect width="100%" height="100%" fill="#4FBDD2"/>
    <mask id="mask0_322_333" style="mask-type:luminance" maskUnits="userSpaceOnUse" x="0" y="0" width="800" height="1024">
      <rect width="100%" height="100%" fill="white"/>
    </mask>
    <g mask="url(#mask0_322_333)">
<path opacity="0.154622" fill-rule="evenodd" clip-rule="evenodd" d="M457.63 60.7251C453.502 54.5786 448.086 53.3988 443.762 58.9431C356.982 172.403 270.197 285.951 183.424 399.484C137.93 459.008 92.4393 518.527 46.9545 578.027C43.3004 582.392 40.8588 591.17 40 600.757V611.186C40.943 624.898 45.4996 636.985 51.2754 638.371C99.7355 655.364 148.189 672.41 196.628 689.45L202.372 691.471C207.753 693.203 212.957 697.576 217.678 704.094L222.524 710.688C293.839 807.724 365.211 904.838 436.556 1001.77C437.085 1001.07 437.613 1000.39 438.144 999.744C542.314 866.969 646.485 734.195 750.628 601.474C754.282 597.275 757.944 592.146 760 583.512V583.543C757.944 592.176 754.282 597.314 750.628 601.512C646.485 734.233 542.314 867 438.144 999.775C437.618 1000.42 437.093 1001.1 436.569 1001.78C437.618 1003.21 438.668 1004.63 439.717 1006.06C442.624 1009.92 446.072 1011.77 449.342 1009.7C451.802 1008.01 454.057 1004.97 456.285 1001.97C457.059 1000.92 457.829 999.883 458.604 998.907C568.128 855.399 677.652 711.891 787.146 568.44C790.989 563.903 794.838 558.358 797 549.027V520.464C795.663 514.482 793.73 509.433 791.271 506.199C747.464 447.693 703.647 389.213 659.831 330.734C592.415 240.76 525.001 150.788 457.63 60.7251ZM433.798 750.983C438.046 756.799 442.294 762.616 446.556 768.37C447.549 770.049 448.721 769.599 449.384 767.133C457.966 741.587 466.532 715.978 475.098 690.371C481.752 670.481 488.405 650.591 495.065 630.733C495.963 627.944 497.409 627.402 498.838 626.865C499.479 626.625 500.116 626.386 500.699 625.947C513.452 619.536 526.203 613.059 538.959 606.581L538.961 606.58C560.757 595.509 582.565 584.433 604.418 573.666C599.45 566.989 594.454 560.414 589.455 553.834L589.451 553.828C585.346 548.425 581.24 543.02 577.143 537.552C576.212 535.942 575.079 536.566 574.023 537.147L574.017 537.15L573.91 537.209C573.877 537.227 573.844 537.245 573.812 537.262C569.674 539.788 565.534 542.301 561.393 544.814C544.069 555.331 526.728 565.858 509.479 577.33C507.612 578.719 505.709 580.032 503.733 580.36C506.576 572.599 509.617 565.267 512.66 557.93L512.661 557.929L512.661 557.928C514.003 554.694 515.344 551.459 516.67 548.185C521.639 535.253 526.665 522.397 531.697 509.527C534.441 502.51 537.187 495.488 539.925 488.447C535.565 482.763 531.22 477.032 526.876 471.301L526.871 471.294L526.866 471.287C521.529 464.247 516.192 457.207 510.828 450.257C507.537 459.363 504.345 468.699 501.152 478.04L501.151 478.042C496.801 490.765 492.449 503.497 487.838 515.667C484.796 524.441 481.761 533.222 478.728 541.998L478.725 542.006L478.722 542.015C474.384 554.566 470.049 567.109 465.698 579.612C464.973 582.266 463.718 582.905 462.497 583.528C462.187 583.686 461.878 583.843 461.582 584.032C442.985 592.826 424.439 602.039 405.895 611.252L405.888 611.255L405.887 611.256L405.881 611.258C387.73 620.276 369.579 629.293 351.383 637.916C353.234 641.355 355.317 644.094 357.402 646.835L357.404 646.837C358.132 647.794 358.861 648.752 359.58 649.74C362.147 653.309 364.731 656.821 367.318 660.337L367.323 660.343L367.324 660.345L367.326 660.348C370.385 664.505 373.448 668.667 376.492 672.937C376.656 673.146 376.821 673.367 376.987 673.59C378.082 675.061 379.247 676.625 380.557 675.22C387.436 671.213 394.33 667.292 401.227 663.37L401.23 663.368C417.445 654.146 433.673 644.917 449.749 634.549C452.225 632.832 454.721 631.107 457.315 630.504C450.531 647.87 443.67 665.052 436.712 682.036C434.836 687.059 432.945 692.049 431.055 697.041C426.885 708.051 422.714 719.064 418.685 730.424C423.733 737.201 428.763 744.089 433.796 750.98L433.798 750.983ZM285.827 556.268C280.663 547.658 275.589 536.803 273.722 521.911C271.883 507.545 274.414 492.24 278.133 480.866C283.866 463.431 291.557 450.63 299.319 438.875C309.013 424.205 319.32 412.138 329.621 400.079C333.401 395.654 337.181 391.229 340.928 386.678C362.284 361.419 383.687 336.046 405.011 310.558C408.255 314.787 411.492 319.069 414.731 323.354L414.741 323.367L414.747 323.375C419.015 329.022 423.286 334.672 427.577 340.206C428.644 341.473 429.557 343.267 430.483 345.175C413.376 365.272 396.317 385.586 379.267 405.89C372.025 414.514 364.784 423.135 357.543 431.738C355.003 434.825 352.447 437.848 349.891 440.872L349.887 440.877L349.886 440.877C343.375 448.58 336.859 456.287 330.578 465.073C325.745 472.141 320.863 479.515 317.141 489.843C315.117 495.385 313.794 503.354 314.989 510.575C316.292 518.957 319.765 523.636 322.965 527.491C331.572 536.925 341.45 536.429 350.554 531.979C362.412 525.544 373.559 513.453 384.347 500.438C399.619 482.041 414.909 463.73 430.201 445.416C442.663 430.491 455.127 415.564 467.585 400.586C467.872 400.296 468.169 399.921 468.472 399.537C469.598 398.113 470.817 396.572 471.967 398.846C475.45 403.413 478.92 408.006 482.389 412.595L482.389 412.596L482.397 412.605C486.2 417.637 490 422.665 493.81 427.654C494.457 428.104 495.68 430.723 494.3 431.394C477.365 451.685 460.463 472.085 443.552 492.494C433.521 504.601 423.487 516.711 413.442 528.804C390.485 556.749 366.051 580.359 340.175 586.199C321.395 590.061 301.689 581.527 285.827 556.268Z" fill="white"/>
</g>
</g>
<defs>
<clipPath id="clip0_322_333">
<rect width="100%" height="100%" fill="white"/>
</clipPath>
</defs>
</svg>
