<svg width="67" height="53" viewBox="0 0 67 53" fill="none" xmlns="http://www.w3.org/2000/svg">
<g clip-path="url(#clip0_624_12410)">
<rect width="67" height="53" rx="10" fill="#E6E6E6" fill-opacity="0.27"/>
<line y1="-0.5" x2="40.0546" y2="-0.5" transform="matrix(-0.798909 0.601452 -0.629765 -0.776786 33 5.81836)" stroke="#DDE0E4" stroke-opacity="0.2"/>
<line x1="66.2922" y1="32.2422" x2="38.2922" y2="52.4057" stroke="#DDE0E4" stroke-opacity="0.2"/>
<line x1="66" y1="35.2271" x2="40" y2="35.2271" stroke="#DDE0E4" stroke-opacity="0.2"/>
<line x1="66" y1="6.31836" x2="31" y2="6.31836" stroke="#DDE0E4" stroke-opacity="0.2"/>
<g filter="url(#filter0_d_624_12410)">
<rect x="11" y="22.2002" width="29.9993" height="28.9089" rx="2" fill="white"/>
<rect x="10.85" y="22.0502" width="30.2993" height="29.2089" rx="2.15" stroke="#E3E4E6" stroke-width="0.3"/>
</g>
<path d="M11 24.2002C11 23.0956 11.8954 22.2002 13 22.2002H18.4998V51.1091H13C11.8954 51.1091 11 50.2137 11 49.1091V24.2002Z" fill="white"/>
<rect x="18.5" y="22.2002" width="3.74991" height="28.9089" fill="#DBE9FD"/>
<rect x="18.5" y="22.2002" width="3.74991" height="28.9089" fill="#DBE9FD"/>
<rect x="18.5" y="22.2002" width="3.74991" height="28.9089" fill="#DBE9FD"/>
<rect x="29.75" y="22.2002" width="3.74991" height="28.9089" fill="#DBE9FD"/>
<rect x="29.75" y="22.2002" width="3.74991" height="28.9089" fill="#DBE9FD"/>
<rect x="29.75" y="22.2002" width="3.74991" height="28.9089" fill="#DBE9FD"/>
<rect x="22.25" y="22.2002" width="7.49982" height="28.9089" fill="white"/>
<path d="M33.5 22.2002H38.9998C40.1044 22.2002 40.9998 23.0956 40.9998 24.2002V49.1091C40.9998 50.2137 40.1044 51.1091 38.9998 51.1091H33.5V22.2002Z" fill="white"/>
<g filter="url(#filter1_d_624_12410)">
<rect x="33.15" y="5.96836" width="29.7" height="28.6091" rx="1.85" fill="white" stroke="#E3E4E6" stroke-width="0.3"/>
<rect x="36.75" y="9.43164" width="22.5" height="21.6818" rx="2" fill="#E4E4E4"/>
<line y1="-0.25" x2="31.2466" y2="-0.25" transform="matrix(0.720078 0.693893 -0.720078 0.693893 36.75 9.43164)" stroke="white" stroke-width="0.5"/>
<line y1="-0.25" x2="31.2466" y2="-0.25" transform="matrix(0.720078 0.693893 -0.720078 0.693893 36.75 9.43164)" stroke="white" stroke-width="0.5"/>
<line y1="-0.25" x2="31.2466" y2="-0.25" transform="matrix(0.720078 0.693893 -0.720078 0.693893 36.75 9.43164)" stroke="white" stroke-width="0.5"/>
<line y1="-0.25" x2="31.2466" y2="-0.25" transform="matrix(0.720078 0.693893 -0.720078 0.693893 36.75 9.43164)" stroke="white" stroke-width="0.5"/>
<line y1="-0.25" x2="31.2466" y2="-0.25" transform="matrix(0.720078 0.693893 -0.720078 0.693893 36.75 9.43164)" stroke="white" stroke-width="0.5"/>
<line y1="-0.25" x2="31.2466" y2="-0.25" transform="matrix(-0.720078 0.693893 0.720078 0.693893 59.25 9.43164)" stroke="white" stroke-width="0.5"/>
<line y1="-0.25" x2="31.2466" y2="-0.25" transform="matrix(-0.720078 0.693893 0.720078 0.693893 59.25 9.43164)" stroke="white" stroke-width="0.5"/>
<line y1="-0.25" x2="31.2466" y2="-0.25" transform="matrix(-0.720078 0.693893 0.720078 0.693893 59.25 9.43164)" stroke="white" stroke-width="0.5"/>
<line y1="-0.25" x2="31.2466" y2="-0.25" transform="matrix(-0.720078 0.693893 0.720078 0.693893 59.25 9.43164)" stroke="white" stroke-width="0.5"/>
<line y1="-0.25" x2="31.2466" y2="-0.25" transform="matrix(-0.720078 0.693893 0.720078 0.693893 59.25 9.43164)" stroke="white" stroke-width="0.5"/>
</g>
<g filter="url(#filter2_d_624_12410)">
<ellipse cx="33" cy="5.81818" rx="5" ry="4.81818" fill="url(#paint0_linear_624_12410)"/>
<line x1="37.9" y1="7.84561" x2="28.1" y2="7.84561" stroke="white" stroke-opacity="0.42" stroke-width="0.2" stroke-linecap="round" stroke-dasharray="1 1"/>
<line x1="37.9" y1="2.06387" x2="28.1" y2="2.06387" stroke="white" stroke-opacity="0.42" stroke-width="0.2" stroke-linecap="round" stroke-dasharray="1 1"/>
<line x1="37.9" y1="4.95449" x2="28.1" y2="4.95449" stroke="white" stroke-opacity="0.42" stroke-width="0.2" stroke-linecap="round" stroke-dasharray="1 1"/>
<line x1="33.1" y1="1.1" x2="33.1" y2="10.5364" stroke="white" stroke-opacity="0.42" stroke-width="0.2" stroke-linecap="round" stroke-dasharray="1 1"/>
<line x1="36.1" y1="2.30459" x2="36.1" y2="9.33186" stroke="white" stroke-opacity="0.42" stroke-width="0.2" stroke-linecap="round" stroke-dasharray="1 1"/>
<line x1="30.1" y1="2.06387" x2="30.1" y2="9.57296" stroke="white" stroke-opacity="0.42" stroke-width="0.2" stroke-linecap="round" stroke-dasharray="1 1"/>
<g filter="url(#filter3_d_624_12410)">
<path d="M30.1444 7.86289C29.958 7.86289 29.8327 7.74878 29.8327 7.579C29.8327 7.53169 29.8438 7.47046 29.8717 7.39531L31.0935 4.0833C31.1742 3.86064 31.3106 3.75767 31.5305 3.75767C31.7476 3.75767 31.8812 3.85786 31.9646 4.08052L33.1893 7.39531C33.2171 7.47324 33.2282 7.52612 33.2282 7.579C33.2282 7.74321 33.0974 7.86289 32.9165 7.86289C32.7495 7.86289 32.6577 7.78496 32.602 7.60684L32.2958 6.74126H30.7595L30.4562 7.60405C30.3977 7.78496 30.3059 7.86289 30.1444 7.86289ZM30.9182 6.23193H32.1372L31.5333 4.47017H31.5166L30.9182 6.23193ZM34.528 7.86846C33.9546 7.86846 33.5511 7.51221 33.5511 6.98618C33.5511 6.47407 33.9463 6.15957 34.6393 6.12061L35.4437 6.07329V5.84785C35.4437 5.52222 35.2238 5.32739 34.8564 5.32739C34.5669 5.32739 34.3749 5.43037 34.2079 5.69756C34.1467 5.78662 34.0687 5.82559 33.963 5.82559C33.8127 5.82559 33.7042 5.72539 33.7042 5.5751C33.7042 5.51387 33.7208 5.44707 33.757 5.38027C33.9101 5.04907 34.3526 4.83755 34.8787 4.83755C35.5884 4.83755 36.042 5.21328 36.042 5.80054V7.56787C36.042 7.75713 35.9224 7.87124 35.7526 7.87124C35.5856 7.87124 35.4715 7.7627 35.4659 7.58457V7.33687H35.452C35.2822 7.6625 34.9093 7.86846 34.528 7.86846ZM34.6922 7.39253C35.1125 7.39253 35.4437 7.10308 35.4437 6.72178V6.49077L34.72 6.5353C34.361 6.56035 34.1578 6.71899 34.1578 6.96948C34.1578 7.22554 34.3721 7.39253 34.6922 7.39253Z" fill="white"/>
</g>
</g>
<g filter="url(#filter4_d_624_12410)">
<circle cx="6" cy="15.9365" r="4" fill="white"/>
</g>
<path d="M7.46823 15.9366C7.36214 15.9366 7.2604 15.8945 7.18539 15.8195C7.11037 15.7444 7.06823 15.6427 7.06823 15.5366C7.06823 15.4305 7.11037 15.3288 7.18539 15.2538C7.2604 15.1788 7.36214 15.1366 7.46823 15.1366C7.57432 15.1366 7.67606 15.1788 7.75107 15.2538C7.82609 15.3288 7.86823 15.4305 7.86823 15.5366C7.86823 15.6427 7.82609 15.7444 7.75107 15.8195C7.67606 15.8945 7.57432 15.9366 7.46823 15.9366ZM6.66823 14.87C6.56214 14.87 6.4604 14.8278 6.38539 14.7528C6.31037 14.6778 6.26823 14.576 6.26823 14.47C6.26823 14.3639 6.31037 14.2621 6.38539 14.1871C6.4604 14.1121 6.56214 14.07 6.66823 14.07C6.77432 14.07 6.87606 14.1121 6.95107 14.1871C7.02609 14.2621 7.06823 14.3639 7.06823 14.47C7.06823 14.576 7.02609 14.6778 6.95107 14.7528C6.87606 14.8278 6.77432 14.87 6.66823 14.87ZM5.3349 14.87C5.22881 14.87 5.12707 14.8278 5.05205 14.7528C4.97704 14.6778 4.9349 14.576 4.9349 14.47C4.9349 14.3639 4.97704 14.2621 5.05205 14.1871C5.12707 14.1121 5.22881 14.07 5.3349 14.07C5.44098 14.07 5.54272 14.1121 5.61774 14.1871C5.69275 14.2621 5.7349 14.3639 5.7349 14.47C5.7349 14.576 5.69275 14.6778 5.61774 14.7528C5.54272 14.8278 5.44098 14.87 5.3349 14.87ZM4.5349 15.9366C4.42881 15.9366 4.32707 15.8945 4.25205 15.8195C4.17704 15.7444 4.1349 15.6427 4.1349 15.5366C4.1349 15.4305 4.17704 15.3288 4.25205 15.2538C4.32707 15.1788 4.42881 15.1366 4.5349 15.1366C4.64098 15.1366 4.74272 15.1788 4.81774 15.2538C4.89275 15.3288 4.9349 15.4305 4.9349 15.5366C4.9349 15.6427 4.89275 15.7444 4.81774 15.8195C4.74272 15.8945 4.64098 15.9366 4.5349 15.9366ZM6.00156 13.5366C5.36504 13.5366 4.75459 13.7895 4.30451 14.2396C3.85442 14.6897 3.60156 15.3001 3.60156 15.9366C3.60156 16.5731 3.85442 17.1836 4.30451 17.6337C4.75459 18.0838 5.36504 18.3366 6.00156 18.3366C6.10765 18.3366 6.20939 18.2945 6.28441 18.2195C6.35942 18.1444 6.40156 18.0427 6.40156 17.9366C6.40156 17.8326 6.36156 17.7393 6.29756 17.67C6.23623 17.598 6.19623 17.5046 6.19623 17.4033C6.19623 17.2972 6.23837 17.1955 6.31339 17.1204C6.3884 17.0454 6.49014 17.0033 6.59623 17.0033H7.06823C7.42185 17.0033 7.76099 16.8628 8.01104 16.6128C8.26109 16.3627 8.40156 16.0236 8.40156 15.67C8.40156 14.4913 7.3269 13.5366 6.00156 13.5366Z" fill="#71207D"/>
<circle cx="13" cy="15.9365" r="2" fill="#131457"/>
<circle cx="18" cy="15.9365" r="2" fill="#3766AC"/>
<circle cx="23" cy="15.9365" r="2" fill="#6E94D3"/>
<g filter="url(#filter5_d_624_12410)">
<circle cx="46" cy="43.8818" r="4" fill="white"/>
</g>
<path d="M48.3236 42.5598C48.4276 42.4558 48.4276 42.2825 48.3236 42.1838L47.6997 41.5599C47.601 41.4559 47.4277 41.4559 47.3237 41.5599L46.8331 42.0479L47.833 43.0477M43.6016 45.2821V46.2819H44.6014L47.5503 43.3303L46.5505 42.3305L43.6016 45.2821Z" fill="#F99393"/>
<circle cx="53" cy="43.8818" r="2" fill="#242427"/>
<circle cx="58" cy="43.8818" r="2" fill="#333333"/>
<circle cx="63" cy="43.8818" r="2" fill="#979899"/>
</g>
<defs>
<filter id="filter0_d_624_12410" x="7.69922" y="18.9004" width="38.6016" height="37.5088" filterUnits="userSpaceOnUse" color-interpolation-filters="sRGB">
<feFlood flood-opacity="0" result="BackgroundImageFix"/>
<feColorMatrix in="SourceAlpha" type="matrix" values="0 0 0 0 0 0 0 0 0 0 0 0 0 0 0 0 0 0 127 0" result="hardAlpha"/>
<feOffset dx="1" dy="1"/>
<feGaussianBlur stdDeviation="2"/>
<feComposite in2="hardAlpha" operator="out"/>
<feColorMatrix type="matrix" values="0 0 0 0 0 0 0 0 0 0 0 0 0 0 0 0 0 0 0.05 0"/>
<feBlend mode="normal" in2="BackgroundImageFix" result="effect1_dropShadow_624_12410"/>
<feBlend mode="normal" in="SourceGraphic" in2="effect1_dropShadow_624_12410" result="shape"/>
</filter>
<filter id="filter1_d_624_12410" x="31" y="3.81836" width="36" height="34.9092" filterUnits="userSpaceOnUse" color-interpolation-filters="sRGB">
<feFlood flood-opacity="0" result="BackgroundImageFix"/>
<feColorMatrix in="SourceAlpha" type="matrix" values="0 0 0 0 0 0 0 0 0 0 0 0 0 0 0 0 0 0 127 0" result="hardAlpha"/>
<feOffset dx="1" dy="1"/>
<feGaussianBlur stdDeviation="1.5"/>
<feComposite in2="hardAlpha" operator="out"/>
<feColorMatrix type="matrix" values="0 0 0 0 0 0 0 0 0 0 0 0 0 0 0 0 0 0 0.05 0"/>
<feBlend mode="normal" in2="BackgroundImageFix" result="effect1_dropShadow_624_12410"/>
<feBlend mode="normal" in="SourceGraphic" in2="effect1_dropShadow_624_12410" result="shape"/>
</filter>
<filter id="filter2_d_624_12410" x="28" y="1" width="26" height="25.6362" filterUnits="userSpaceOnUse" color-interpolation-filters="sRGB">
<feFlood flood-opacity="0" result="BackgroundImageFix"/>
<feColorMatrix in="SourceAlpha" type="matrix" values="0 0 0 0 0 0 0 0 0 0 0 0 0 0 0 0 0 0 127 0" result="hardAlpha"/>
<feOffset dx="8" dy="8"/>
<feGaussianBlur stdDeviation="4"/>
<feComposite in2="hardAlpha" operator="out"/>
<feColorMatrix type="matrix" values="0 0 0 0 0 0 0 0 0 0 0 0 0 0 0 0 0 0 0.1 0"/>
<feBlend mode="normal" in2="BackgroundImageFix" result="effect1_dropShadow_624_12410"/>
<feBlend mode="normal" in="SourceGraphic" in2="effect1_dropShadow_624_12410" result="shape"/>
</filter>
<filter id="filter3_d_624_12410" x="25.832" y="3.75781" width="14.2109" height="12.1133" filterUnits="userSpaceOnUse" color-interpolation-filters="sRGB">
<feFlood flood-opacity="0" result="BackgroundImageFix"/>
<feColorMatrix in="SourceAlpha" type="matrix" values="0 0 0 0 0 0 0 0 0 0 0 0 0 0 0 0 0 0 127 0" result="hardAlpha"/>
<feOffset dy="4"/>
<feGaussianBlur stdDeviation="2"/>
<feComposite in2="hardAlpha" operator="out"/>
<feColorMatrix type="matrix" values="0 0 0 0 0 0 0 0 0 0 0 0 0 0 0 0 0 0 0.25 0"/>
<feBlend mode="normal" in2="BackgroundImageFix" result="effect1_dropShadow_624_12410"/>
<feBlend mode="normal" in="SourceGraphic" in2="effect1_dropShadow_624_12410" result="shape"/>
</filter>
<filter id="filter4_d_624_12410" x="2" y="11.9365" width="24" height="24" filterUnits="userSpaceOnUse" color-interpolation-filters="sRGB">
<feFlood flood-opacity="0" result="BackgroundImageFix"/>
<feColorMatrix in="SourceAlpha" type="matrix" values="0 0 0 0 0 0 0 0 0 0 0 0 0 0 0 0 0 0 127 0" result="hardAlpha"/>
<feOffset dx="8" dy="8"/>
<feGaussianBlur stdDeviation="4"/>
<feComposite in2="hardAlpha" operator="out"/>
<feColorMatrix type="matrix" values="0 0 0 0 0 0 0 0 0 0 0 0 0 0 0 0 0 0 0.1 0"/>
<feBlend mode="normal" in2="BackgroundImageFix" result="effect1_dropShadow_624_12410"/>
<feBlend mode="normal" in="SourceGraphic" in2="effect1_dropShadow_624_12410" result="shape"/>
</filter>
<filter id="filter5_d_624_12410" x="42" y="39.8818" width="24" height="24" filterUnits="userSpaceOnUse" color-interpolation-filters="sRGB">
<feFlood flood-opacity="0" result="BackgroundImageFix"/>
<feColorMatrix in="SourceAlpha" type="matrix" values="0 0 0 0 0 0 0 0 0 0 0 0 0 0 0 0 0 0 127 0" result="hardAlpha"/>
<feOffset dx="8" dy="8"/>
<feGaussianBlur stdDeviation="4"/>
<feComposite in2="hardAlpha" operator="out"/>
<feColorMatrix type="matrix" values="0 0 0 0 0 0 0 0 0 0 0 0 0 0 0 0 0 0 0.1 0"/>
<feBlend mode="normal" in2="BackgroundImageFix" result="effect1_dropShadow_624_12410"/>
<feBlend mode="normal" in="SourceGraphic" in2="effect1_dropShadow_624_12410" result="shape"/>
</filter>
<linearGradient id="paint0_linear_624_12410" x1="28" y1="10.6364" x2="37.6298" y2="0.64322" gradientUnits="userSpaceOnUse">
<stop stop-color="#6E94D3"/>
<stop offset="1" stop-color="#B9CFF3"/>
</linearGradient>
<clipPath id="clip0_624_12410">
<rect width="67" height="53" rx="10" fill="white"/>
</clipPath>
</defs>
</svg>
