<svg xmlns="http://www.w3.org/2000/svg" width="428" height="343" fill="none"><path fill="#BBB" stroke="#000" stroke-width="10" d="M159 262.008h110v76H159z"/><path stroke="#000" stroke-linecap="round" stroke-width="10" d="M121 338.008h185.5"/><path fill="#FFF0C6" stroke="#000" stroke-width="10" d="M418 235h5V20c0-8.284-6.716-15-15-15H20C11.716 5 5 11.716 5 20v215h413Z"/><path fill="url(#a)" d="M301.118 154.372c1.104 0 2.003.895 1.965 1.999-.399 11.365-4.186 22.35-10.875 31.46-7.08 9.643-17.027 16.663-28.339 19.998a52.95 52.95 0 0 1-34.367-1.511c-10.993-4.315-20.318-12.181-26.568-22.41s-9.086-22.267-8.079-34.294c1.007-12.028 5.801-23.393 13.66-32.38s18.355-15.107 29.903-17.438a53 53 0 0 1 32.344 3.68c.992.448 1.399 1.628.934 2.613l-1.25 2.646c-.478 1.013-1.694 1.431-2.718.977a46.36 46.36 0 0 0-28-3.087c-10.103 2.039-19.286 7.394-26.161 15.256s-11.07 17.806-11.951 28.328c-.881 10.523 1.6 21.054 7.068 30.003s13.627 15.831 23.243 19.606a46.33 46.33 0 0 0 30.067 1.321c9.897-2.917 18.599-9.058 24.793-17.495 5.803-7.903 9.11-17.419 9.505-27.273.044-1.104.935-1.999 2.04-1.999z"/><ellipse cx="254.226" cy="156.484" fill="#fff" rx="48.89" ry="46.773"/><path fill="#FFA310" d="m259.5 115.383 15.099-20.324c.96-1.292 2.977-.978 3.498.546l8.162 23.858c.486 1.42-.709 2.85-2.193 2.624l-23.261-3.534c-1.492-.227-2.205-1.959-1.305-3.17"/><rect width="6.163" height="10.113" x="246.016" y="91.172" fill="#FFA410" rx="2"/><rect width="17.255" height="10.113" x="240.258" y="82.742" fill="#FFA410" rx="2"/><g fill="#9747FF" filter="url(#b)"><path d="m251.947 149.242 63.975-12.437c2.421-.471 3.382 3.002 1.064 3.843l-59.57 21.616a2 2 0 0 1-2.485-1.015l-4.405-9.178a2 2 0 0 1 1.421-2.829"/><ellipse cx="248.837" cy="157.047" rx="10.626" ry="10.898"/></g><path stroke="#E06D25" stroke-linecap="round" stroke-width="4" d="M167.695 121.188h21.18M134.562 132.023h35.843M136.195 141.844h19.551M124.781 155.398h45.618M142.711 168.93h30.411M153.023 177.062l33.127.001M150.711 188.234h43.96"/><path fill="url(#c)" d="M170.809 72.56c-17.773.667-78.611 60.007-106.809 89.594 14.207-14.907 82.534-50.229 118.16-66.067 1.495-.665 2.668-1.885 3.085-3.467 2.149-8.156 1.623-20.662-14.436-20.06"/><path fill="url(#d)" d="M235.45 37.558c-20.269 3.155-40.355 16.11-50.175 24.178-2.563 2.105-2.51 5.853-.599 8.535 3.391 4.759 5.133 9.735 6.023 13.756.889 4.016 5.012 7.102 8.96 5.926l46.563-13.876c1.712-.51 3.129-1.749 3.767-3.424 5.743-15.098 8.259-38.644-14.539-35.095"/><path fill="url(#e)" d="M258.328 65.1c3.736-15.609-5.907-33.033 2.153-30.656l42.134 11.04c3.754.983 5.584 5.227 3.729 8.65l-14.01 25.859c-1.718 3.17-5.836 4.148-9.068 2.579-6.226-3.022-13.606-5.176-19.363-6.565-4.366-1.053-6.623-6.529-5.575-10.907"/><path fill="url(#f)" d="m348.117 102.869-27.286 8.825c-3.213 1.039-6.729-.049-8.85-2.676-4.697-5.819-12.955-15.657-17.265-18.47-6.241-4.075 24.625-35.418 24.625-35.415 0 .002 20.255 21.832 32.19 34.696 3.978 4.286 2.15 11.24-3.414 13.04"/><path fill="url(#g)" d="M322.009 141.368c-.112-4.357-.316-9.793-.683-14.427-.353-4.468 2.498-8.911 6.855-9.923 12.009-2.79 33.422-7.763 33.421-7.75s-.033 23.267-.632 34.493c-.182 3.418-2.881 5.665-6.301 5.657l-24.551-.056c-4.408-.01-7.995-3.585-8.109-7.994"/><path fill="#BBB" stroke="#000" stroke-width="10" d="M10 232H5v35c0 8.284 6.716 15 15 15h388c8.284 0 15-6.716 15-15v-35H10Z"/><defs><linearGradient id="a" x1="286" x2="247.5" y1="97.5" y2="213" gradientUnits="userSpaceOnUse"><stop stop-color="#FFA007"/><stop offset="1" stop-color="#FFBA4B"/></linearGradient><linearGradient id="c" x1="186.154" x2="60.494" y1="48.818" y2="173.558" gradientUnits="userSpaceOnUse"><stop stop-color="#FF3737"/><stop offset="1" stop-color="#770303"/></linearGradient><linearGradient id="d" x1="194.128" x2="276.29" y1="94.295" y2="44.01" gradientUnits="userSpaceOnUse"><stop stop-color="#E72E2E"/><stop offset="1" stop-color="#B97218"/></linearGradient><linearGradient id="e" x1="251.477" x2="312.823" y1="73.406" y2="54.714" gradientUnits="userSpaceOnUse"><stop stop-color="#C5601E"/><stop offset="1" stop-color="#BFCB25"/></linearGradient><linearGradient id="f" x1="289.641" x2="377.611" y1="90.805" y2="108.207" gradientUnits="userSpaceOnUse"><stop stop-color="#BFC124"/><stop offset="1" stop-color="#5A5811"/></linearGradient><linearGradient id="g" x1="317.641" x2="365.121" y1="117.347" y2="151.436" gradientUnits="userSpaceOnUse"><stop stop-color="#B8B422"/><stop offset="1" stop-color="#193708"/></linearGradient><filter id="b" width="88.102" height="39.188" x="234.211" y="136.758" color-interpolation-filters="sRGB" filterUnits="userSpaceOnUse"><feFlood flood-opacity="0" result="BackgroundImageFix"/><feColorMatrix in="SourceAlpha" result="hardAlpha" values="0 0 0 0 0 0 0 0 0 0 0 0 0 0 0 0 0 0 127 0"/><feOffset dy="4"/><feGaussianBlur stdDeviation="2"/><feComposite in2="hardAlpha" operator="out"/><feColorMatrix values="0 0 0 0 0 0 0 0 0 0 0 0 0 0 0 0 0 0 0.25 0"/><feBlend in2="BackgroundImageFix" result="effect1_dropShadow_667_204"/><feBlend in="SourceGraphic" in2="effect1_dropShadow_667_204" result="shape"/></filter></defs></svg>