<svg xmlns="http://www.w3.org/2000/svg" width="428" height="343" fill="none"><path fill="#BBB" stroke="#000" stroke-width="10" d="M159 262h110v76H159z"/><path stroke="#000" stroke-linecap="round" stroke-width="10" d="M121 338h185.5"/><path fill="#FFF0C6" stroke="#000" stroke-width="10" d="M418 235h5V20c0-8.284-6.716-15-15-15H20C11.716 5 5 11.716 5 20v215h413Z"/><path fill="#BBB" stroke="#000" stroke-width="10" d="M10 232H5v35c0 8.284 6.716 15 15 15h388c8.284 0 15-6.716 15-15v-35H10Z"/><mask id="a" width="130.223" height="60.485" x="22.86" y="121.384" fill="#000" maskUnits="userSpaceOnUse"><path fill="#fff" d="M22.86 121.384h130.223v60.485H22.86z"/><path d="M139.711 173.615c2.761.01 5.045-2.232 4.649-4.965-1.418-9.786-7.093-18.982-16.202-26.046-10.642-8.253-25.1-12.921-40.193-12.977-15.094-.057-29.586 4.503-40.29 12.676-9.161 6.996-14.905 16.149-16.396 25.925-.417 2.729 1.85 4.988 4.612 4.999l51.91.194z"/></mask><path fill="#4887FC" d="M139.711 173.615c2.761.01 5.045-2.232 4.649-4.965-1.418-9.786-7.093-18.982-16.202-26.046-10.642-8.253-25.1-12.921-40.193-12.977-15.094-.057-29.586 4.503-40.29 12.676-9.161 6.996-14.905 16.149-16.396 25.925-.417 2.729 1.85 4.988 4.612 4.999l51.91.194z"/><path stroke="#000" stroke-width="16" d="M139.711 173.615c2.761.01 5.045-2.232 4.649-4.965-1.418-9.786-7.093-18.982-16.202-26.046-10.642-8.253-25.1-12.921-40.193-12.977-15.094-.057-29.586 4.503-40.29 12.676-9.161 6.996-14.905 16.149-16.396 25.925-.417 2.729 1.85 4.988 4.612 4.999l51.91.194z" mask="url(#a)"/><path fill="#4887FC" stroke="#000" stroke-width="8" d="M87.446 112.001c18.777.07 35.374-12.623 35.438-29.849S106.447 52.109 87.67 52.039c-18.778-.07-35.375 12.623-35.439 29.849S68.668 111.93 87.445 112Z"/><mask id="b" width="84.193" height="45.273" x="168.116" y="116.248" fill="#000" maskUnits="userSpaceOnUse"><path fill="#fff" d="M168.116 116.248h84.193v45.273h-84.193z"/><path d="M243.469 157.774c2.761.009 5.043-2.232 4.692-4.971a38.1 38.1 0 0 0-10.901-22.119c-7.221-7.202-17.039-11.267-27.295-11.301-10.255-.033-20.108 3.968-27.391 11.124a38.2 38.2 0 0 0-11.091 22.047c-.375 2.736 1.888 4.992 4.649 5.001l33.669.109z"/></mask><path fill="#A8FF5B" d="M243.469 157.774c2.761.009 5.043-2.232 4.692-4.971a38.1 38.1 0 0 0-10.901-22.119c-7.221-7.202-17.039-11.267-27.295-11.301-10.255-.033-20.108 3.968-27.391 11.124a38.2 38.2 0 0 0-11.091 22.047c-.375 2.736 1.888 4.992 4.649 5.001l33.669.109z"/><path stroke="#000" stroke-width="6" d="M243.469 157.774c2.761.009 5.043-2.232 4.692-4.971a38.1 38.1 0 0 0-10.901-22.119c-7.221-7.202-17.039-11.267-27.295-11.301-10.255-.033-20.108 3.968-27.391 11.124a38.2 38.2 0 0 0-11.091 22.047c-.375 2.736 1.888 4.992 4.649 5.001l33.669.109z" mask="url(#b)"/><path fill="#A8FF5B" stroke="#000" stroke-width="3" d="M203.398 111.363c10.159.033 18.992-6.649 19.03-15.556s-8.737-15.647-18.896-15.68-18.992 6.649-19.03 15.556 8.736 15.647 18.896 15.68Z"/><mask id="c" width="91.21" height="49.295" x="220.432" y="98.417" fill="#000" maskUnits="userSpaceOnUse"><path fill="#fff" d="M220.432 98.417h91.21v49.295h-91.21z"/><path d="M301.777 143.24c2.761.009 5.042-2.231 4.709-4.972-1.083-8.922-5.153-17.288-11.642-23.73-7.687-7.632-18.139-11.939-29.056-11.975s-21.405 4.204-29.158 11.785c-6.544 6.401-10.686 14.74-11.846 23.655-.356 2.739 1.905 4.993 4.667 5.002l36.163.118z"/></mask><path fill="#4685FF" d="M301.777 143.24c2.761.009 5.042-2.231 4.709-4.972-1.083-8.922-5.153-17.288-11.642-23.73-7.687-7.632-18.139-11.939-29.056-11.975s-21.405 4.204-29.158 11.785c-6.544 6.401-10.686 14.74-11.846 23.655-.356 2.739 1.905 4.993 4.667 5.002l36.163.118z"/><path stroke="#000" stroke-width="8" d="M301.777 143.24c2.761.009 5.042-2.231 4.709-4.972-1.083-8.922-5.153-17.288-11.642-23.73-7.687-7.632-18.139-11.939-29.056-11.975s-21.405 4.204-29.158 11.785c-6.544 6.401-10.686 14.74-11.846 23.655-.356 2.739 1.905 4.993 4.667 5.002l36.163.118z" mask="url(#c)"/><path fill="#4685FF" stroke="#000" stroke-width="4" d="M266.256 89.12c12.076.04 22.617-7.996 22.663-18.75s-10.425-18.858-22.501-18.897c-12.075-.04-22.616 7.996-22.662 18.75-.046 10.755 10.425 18.858 22.5 18.897Z"/><mask id="d" width="98.24" height="56.318" x="285.914" y="78.359" fill="#000" maskUnits="userSpaceOnUse"><path fill="#fff" d="M285.914 78.359h98.24v56.318h-98.24z"/><path d="M373.254 128.905c2.761.009 5.037-2.229 4.755-4.975-1.044-10.172-5.392-19.729-12.405-27.056-8.151-8.515-19.235-13.32-30.813-13.357-11.579-.038-22.704 4.695-30.928 13.157-7.076 7.28-11.506 16.809-12.637 26.974-.306 2.744 1.951 4.997 4.712 5.006l38.658.126z"/></mask><path fill="#A67EFF" d="M373.254 128.905c2.761.009 5.037-2.229 4.755-4.975-1.044-10.172-5.392-19.729-12.405-27.056-8.151-8.515-19.235-13.32-30.813-13.357-11.579-.038-22.704 4.695-30.928 13.157-7.076 7.28-11.506 16.809-12.637 26.974-.306 2.744 1.951 4.997 4.712 5.006l38.658.126z"/><path stroke="#000" stroke-width="10" d="M373.254 128.905c2.761.009 5.037-2.229 4.755-4.975-1.044-10.172-5.392-19.729-12.405-27.056-8.151-8.515-19.235-13.32-30.813-13.357-11.579-.038-22.704 4.695-30.928 13.157-7.076 7.28-11.506 16.809-12.637 26.974-.306 2.744 1.951 4.997 4.712 5.006l38.658.126z" mask="url(#d)"/><path fill="#A67EFF" stroke="#000" stroke-width="5" d="M334.004 67.58c12.888.041 24.365-8.373 24.415-19.895.049-11.52-11.355-20.01-24.243-20.052-12.889-.041-24.366 8.373-24.415 19.894-.05 11.522 11.354 20.01 24.243 20.052Z"/><path fill="url(#e)" d="M277.922 154.669v55.232H224.45v-79.284z"/><path fill="url(#f)" d="M170.977 167.754V210h56.131v-79.156z"/><path fill="url(#g)" d="M277.922 154.672v55.231h53.472v-91.309z"/><path fill="url(#h)" d="M384.859 84.734v125.161h-53.471v-91.309z"/><path stroke="#FFF0C6" stroke-linecap="round" stroke-width="20" d="m170.977 168.437 52.251-38.433a4 4 0 0 1 4.067-.4l43.047 20.178a4 4 0 0 0 3.891-.277L385.327 76.68"/><g stroke="#000" stroke-linecap="round" stroke-width="10" filter="url(#i)"><path d="m170.977 163.617 52.251-38.433a4 4 0 0 1 4.067-.4l43.047 20.177c1.257.59 2.73.485 3.891-.276l111.094-72.826M365.883 68.96l23.349-.474M382.633 88.11l6.313-19.547"/></g><defs><linearGradient id="e" x1="227.595" x2="265.791" y1="130.172" y2="227.574" gradientUnits="userSpaceOnUse"><stop stop-color="#FF9959"/><stop offset="1" stop-color="#A46604"/></linearGradient><linearGradient id="f" x1="199.042" x2="199.042" y1="130.844" y2="210" gradientUnits="userSpaceOnUse"><stop stop-color="#EB4444"/><stop offset="1" stop-color="#852727"/></linearGradient><linearGradient id="g" x1="262.719" x2="316.709" y1="121.712" y2="220.182" gradientUnits="userSpaceOnUse"><stop stop-color="#F8FF23"/><stop offset="1" stop-color="#748527"/></linearGradient><linearGradient id="h" x1="316.185" x2="369.559" y1="93.643" y2="217.392" gradientUnits="userSpaceOnUse"><stop stop-color="#CFDA24"/><stop offset="1" stop-color="#3F9916"/></linearGradient><filter id="i" width="236.344" height="113.039" x="161.977" y="63.578" color-interpolation-filters="sRGB" filterUnits="userSpaceOnUse"><feFlood flood-opacity="0" result="BackgroundImageFix"/><feColorMatrix in="SourceAlpha" result="hardAlpha" values="0 0 0 0 0 0 0 0 0 0 0 0 0 0 0 0 0 0 127 0"/><feOffset dy="4"/><feGaussianBlur stdDeviation="2"/><feComposite in2="hardAlpha" operator="out"/><feColorMatrix values="0 0 0 0 0.45 0 0 0 0 0.45 0 0 0 0 0.45 0 0 0 0.68 0"/><feBlend in2="BackgroundImageFix" result="effect1_dropShadow_666_217"/><feBlend in="SourceGraphic" in2="effect1_dropShadow_666_217" result="shape"/></filter></defs></svg>