<svg width="336" height="266" fill="none" xmlns="http://www.w3.org/2000/svg"><g clip-path="url(#a)"><rect width="336" height="266" rx="30" fill="#fff"/><rect width="336" height="266" rx="30" fill="#F8A1FF"/><path d="M139 0v83" stroke="#F68BFF" stroke-width="5" stroke-linecap="round" stroke-linejoin="round" stroke-dasharray="15 15"/><path d="M298.706 219c-.221 4.737-3.051 13.953-12.601 12.92" stroke="#F68BFF" stroke-width="5" stroke-linejoin="round" stroke-dasharray="15 15"/><path d="M37 78.453v73.649M298.705 78.453l.303 76.547M47.663 69h239.413M48.63 163h249.106" stroke="#F68BFF" stroke-width="5" stroke-linecap="round" stroke-linejoin="round" stroke-dasharray="15 15"/><path d="M37 78.387c.221-3.421 3.05-10.075 12.6-9.33M298.706 78.387c-.221-3.421-3.051-10.075-12.601-9.33M37 150c.221 4.737 3.05 13.953 12.6 12.92" stroke="#F68BFF" stroke-width="5" stroke-linejoin="round" stroke-dasharray="15 15"/><path d="M298.706 150v70M148 230v36M159 221h140" stroke="#F68BFF" stroke-width="5" stroke-linecap="round" stroke-linejoin="round" stroke-dasharray="15 15"/><path d="M148 230.387c.221-3.421 3.051-10.075 12.601-9.329" stroke="#F68BFF" stroke-width="5" stroke-linejoin="round" stroke-dasharray="15 15"/><g filter="url(#b)"><path fill="#fff" d="M295 56h12v14h-12z"/><path fill="#fff" d="M295 56h12v14h-12z"/><path d="M297.862 51.033c-8.174 1.67-13.736 8.547-12.36 15.281.656 3.214 2.768 5.971 5.881 7.567.188.919.094 3.489-2.754 7.738 0 0 5.202-1.063 8.879-5.8 1.728.125 3.574.066 5.358-.298 8.174-1.67 13.736-8.546 12.36-15.28-1.376-6.735-9.189-10.878-17.364-9.208zm5.239 18.062-2.972.608-.626-3.061 2.973-.608.625 3.061zm1.112-8.199c-.321.704-.853 1.131-1.385 1.559-.383.397-.501.58-.587.917-.234.367-.172.673-.078 1.132l-2.972.607c-.157-.765-.102-1.254.101-1.774.235-.367.736-.948 1.385-1.559a1.57 1.57 0 0 0 .736-.947c.086-.337.14-.826.078-1.132-.094-.46-.305-.735-.665-.98-.36-.246-.837-.308-1.283-.217-.446.091-.712.305-.978.52-.265.213-.352.55-.258 1.009l-2.972.607c-.071-1.102.188-2.111.806-2.875.618-.764 1.627-1.13 2.964-1.403 1.338-.274 2.59-.21 3.458.25.868.46 1.502 1.288 1.72 2.359.274.582.251 1.224-.07 1.927z" fill="#C9A3FC"/><g filter="url(#c)"><path fill="#fff" d="M283.85 71.305h-8.374V85.14h8.374z"/><path fill="#fff" d="M283.85 71.305h-8.374V85.14h8.374z"/><path d="M281.553 69C274.099 69 268 73.128 268 78.224s6.099 9.224 13.553 9.224c1.68 0 3.293-.207 4.784-.576 3.957 2.882 8.768 2.882 8.768 2.882-3.157-2.686-3.659-4.497-3.727-5.188 2.304-1.65 3.727-3.886 3.727-6.342 0-5.096-6.098-9.224-13.552-9.224zm1.355 12.683v2.306h-2.711v-2.306h2.711zm0-2.306h-2.711v-6.918h2.711v6.918z" fill="#FFAFAF"/></g><g filter="url(#d)"><path fill="#fff" d="M303.847 69.5h16.5v9h-16.5z"/><path fill="#fff" d="M303.847 69.5h16.5v9h-16.5z"/><path d="M312.653 65c6.409 0 11.653 4.177 11.653 9.333 0 5.157-5.244 9.334-11.653 9.334-1.445 0-2.832-.21-4.113-.584C305.137 86 301 86 301 86c2.715-2.718 3.146-4.55 3.205-5.25-1.981-1.668-3.205-3.932-3.205-6.417 0-5.156 5.244-9.333 11.653-9.333zm5.827 10.5v-2.333h-2.331V75.5h2.331zm-4.662 0v-2.333h-2.33V75.5h2.33zm-4.661 0v-2.333h-2.33V75.5h2.33z" fill="#57A2DD"/></g></g><g filter="url(#e)"><circle cx="37" cy="70" r="17" fill="url(#f)"/><mask id="g" maskUnits="userSpaceOnUse" x="31.276" y="60.273" width="12" height="5" fill="#000"><path fill="#fff" d="M31.276 60.273h12v5h-12z"/><path d="M33.276 65.079c0-.75 0-1.124.1-1.427a2 2 0 0 1 1.278-1.28c.303-.099.678-.099 1.428-.099h1.626c.75 0 1.125 0 1.428.1a2 2 0 0 1 1.278 1.279c.1.303.1.677.1 1.427h-7.238z"/></mask><path d="M31.276 64.273a4 4 0 0 1 4-4h3.238a4 4 0 0 1 4 4H31.276zm9.238.806h-7.238 7.238zm-9.238 0v-.806a4 4 0 0 1 4-4v4.806h-4zm7.238-4.806a4 4 0 0 1 4 4v.806h-4v-4.806z" fill="#333" mask="url(#g)"/><rect x="26.918" y="68.203" width="19.546" height="9.416" rx="1.5" fill="#F09028" stroke="#DE7C25"/><g filter="url(#h)"><mask id="i" maskUnits="userSpaceOnUse" x="26.418" y="64.094" width="21" height="7" fill="#000"><path fill="#fff" d="M26.418 64.094h21v7h-21z"/><path d="M27.418 66.694c0-.56 0-.84.109-1.054a1 1 0 0 1 .437-.437c.214-.11.494-.11 1.054-.11h15.345c.56 0 .84 0 1.054.11a1 1 0 0 1 .437.437c.11.214.11.494.11 1.054v1.609c0 .56 0 .84-.11 1.054a.999.999 0 0 1-.437.437c-.214.109-.494.109-1.054.109H29.018c-.56 0-.84 0-1.054-.11a.999.999 0 0 1-.437-.436c-.109-.214-.109-.494-.109-1.054v-1.61z"/></mask><path d="M27.418 66.694c0-.56 0-.84.109-1.054a1 1 0 0 1 .437-.437c.214-.11.494-.11 1.054-.11h15.345c.56 0 .84 0 1.054.11a1 1 0 0 1 .437.437c.11.214.11.494.11 1.054v1.609c0 .56 0 .84-.11 1.054a.999.999 0 0 1-.437.437c-.214.109-.494.109-1.054.109H29.018c-.56 0-.84 0-1.054-.11a.999.999 0 0 1-.437-.436c-.109-.214-.109-.494-.109-1.054v-1.61z" fill="#F09028"/><path d="m27.964 69.794-.454.89.454-.89zm17.89-.437.891.454-.89-.454zm-.437.437-.454-.891.454.89zm0-4.591.454-.891-.454.89zm-17.453 0-.454-.891.454.89zm-.437.437-.891-.454.891.454zm1.491.454h15.345v-2H29.018v2zm15.945.6v1.609h2v-1.61h-2zm-.6 2.209H29.018v2h15.345v-2zm-15.945-.6v-1.61h-2v1.61h2zm.6.6c-.297 0-.459-.001-.575-.01-.105-.01-.083-.02-.025.01l-.908 1.782c.271.138.541.182.77.2.217.018.474.018.738.018v-2zm-2.6-.6c0 .263 0 .521.017.738.019.228.063.498.201.77l1.782-.908c.03.057.019.08.01-.025a8.143 8.143 0 0 1-.01-.575h-2zm2 .6-1.782.908a2 2 0 0 0 .874.874l.908-1.782zm16.545-.6c0 .296 0 .459-.01.575-.009.105-.019.082.01.025l1.782.908c.139-.272.183-.542.202-.77.017-.217.016-.475.016-.738h-2zm-.6 2.6c.264 0 .522 0 .739-.017.228-.019.498-.063.77-.201l-.909-1.782c.058-.03.08-.02-.024-.01-.117.009-.279.01-.576.01v2zm.6-2 .908 1.782a2 2 0 0 0 .874-.874l-1.782-.908zm-.6-2.81c.297 0 .46.001.576.011.105.009.082.02.024-.01l.908-1.782a2.022 2.022 0 0 0-.77-.201c-.216-.018-.474-.017-.738-.017v2zm2.6.6c0-.263.001-.52-.017-.737a2.022 2.022 0 0 0-.2-.77l-1.783.908c-.029-.058-.019-.08-.01.024.01.117.01.28.01.576h2zm-2-.6 1.782-.907a2 2 0 0 0-.874-.874l-.908 1.782zm-15.945-2c-.264 0-.521 0-.738.018a2.022 2.022 0 0 0-.77.2l.908 1.783c-.058.03-.08.019.025.01.116-.01.278-.01.575-.01v-2zm-.6 2.6c0-.296 0-.458.01-.575.009-.105.02-.082-.01-.024l-1.782-.908a2.022 2.022 0 0 0-.201.77c-.018.216-.017.474-.017.738h2zm-.908-2.381a2 2 0 0 0-.874.874l1.782.908-.908-1.782z" fill="#DE7C25" mask="url(#i)"/></g><rect x="34.699" y="69.18" width="3.847" height="1.983" rx=".75" fill="#FFF95E" stroke="#C7C137" stroke-width=".5"/></g><g filter="url(#j)"><circle cx="298.5" cy="221.5" r="27.5" fill="url(#k)"/><circle cx="298.5" cy="221.5" r="27.5" fill="url(#l)"/><path d="m303.939 217.309 2.931-4.535a.328.328 0 0 1 .427-.111c1.105.617 2.148 1.586.703 3.837-1.555 2.425-2.834 1.793-3.959 1.2a.269.269 0 0 1-.102-.391z" fill="url(#m)" stroke="#E4E74F" stroke-width=".5" stroke-linecap="round"/><path transform="matrix(-.55934 .82894 .848 .53 293.31 210.92)" fill="url(#n)" stroke="#45D5B3" stroke-width=".5" d="M.072.34h10.339v2.508H.072z"/><path transform="matrix(-.5594 -.8289 .84803 -.52994 295.619 234.501)" fill="url(#o)" stroke="#45D5B3" stroke-width=".5" d="M.072-.34h12.863v2.49H.072z"/><g filter="url(#p)"><rect x="286" y="233" width="20.773" height="3" rx="1" fill="url(#q)"/><rect x="286.25" y="233.25" width="20.273" height="2.5" rx=".75" stroke="#45D5B3" stroke-width=".5"/></g><path d="M291.968 221.67c0 1.35-1.235 2.491-2.818 2.491s-2.817-1.141-2.817-2.491 1.234-2.49 2.817-2.49c1.583 0 2.818 1.14 2.818 2.49z" fill="#61E6C7" stroke="#45D5B3" stroke-width=".5"/><path d="M293.666 206.829a1.043 1.043 0 0 1 1.408-.299l4.432 2.77-2.535 3.756-4.433-2.77a.958.958 0 0 1-.288-1.358l1.416-2.099z" fill="url(#r)" stroke="#45D5B3" stroke-width=".5"/><path d="M308.252 208.517a7.84 7.84 0 0 0-2.752-1.05 8.006 8.006 0 0 0-2.964.031 7.808 7.808 0 0 0-2.725 1.106 7.404 7.404 0 0 0-2.07 2.012 7 7 0 0 0-1.102 2.614 6.869 6.869 0 0 0 .035 2.816 7.05 7.05 0 0 0 1.167 2.59 7.442 7.442 0 0 0 2.12 1.969l4.145-6.044 4.146-6.044z" fill="url(#s)" stroke="#45D5B3" stroke-width=".5"/></g><g filter="url(#t)"><g filter="url(#u)"><rect x="54" y="99.039" width="90" height="115" rx="2" transform="rotate(-25 54 99.04)" fill="#fff"/><rect x="53.336" y="98.797" width="91" height="116" rx="2.5" transform="rotate(-25 53.336 98.797)" stroke="url(#v)"/></g><rect x="64.065" y="108.445" width="79.714" height="2.556" rx="1.278" transform="rotate(-25 64.065 108.445)" fill="#DEDEDE"/><rect x="66.224" y="113.078" width="79.714" height="2.556" rx="1.278" transform="rotate(-25 66.224 113.078)" fill="#DEDEDE"/><rect x="68.385" y="117.719" width="41.143" height="2.556" rx="1.278" transform="rotate(-25 68.385 117.719)" fill="#DEDEDE"/><ellipse cx="64.234" cy="102.722" rx="2.571" ry="2.556" transform="rotate(-25 64.234 102.722)" fill="#FF8080"/><ellipse cx="70.059" cy="100.003" rx="2.571" ry="2.556" transform="rotate(-25 70.059 100.003)" fill="#FFFCB3"/><ellipse cx="75.885" cy="97.292" rx="2.571" ry="2.556" transform="rotate(-25 75.885 97.292)" fill="#C7FFB5"/><ellipse cx="77.591" cy="126.808" rx="4.5" ry="4.472" transform="rotate(-25 77.59 126.808)" fill="#FFFCB3"/><ellipse cx="114.875" cy="109.417" rx="4.5" ry="4.472" transform="rotate(-25 114.875 109.417)" fill="#C7FFB5"/><rect x="81.481" y="121.469" width="28.286" height="2.556" rx="1.278" transform="rotate(-25 81.481 121.469)" fill="#DEDEDE"/><rect x="118.768" y="104.086" width="28.286" height="2.556" rx="1.278" transform="rotate(-25 118.768 104.086)" fill="#DEDEDE"/><rect x="83.103" y="124.938" width="28.286" height="2.556" rx="1.278" transform="rotate(-25 83.103 124.938)" fill="#DEDEDE"/><rect x="120.39" y="107.555" width="28.286" height="2.556" rx="1.278" transform="rotate(-25 120.39 107.555)" fill="#DEDEDE"/><rect x="91.06" y="166.344" width="38.571" height="2.556" rx="1.278" transform="rotate(-25 91.06 166.344)" fill="#DEDEDE"/><rect x="93.22" y="170.977" width="38.571" height="2.556" rx="1.278" transform="rotate(-25 93.22 170.977)" fill="#DEDEDE"/><rect x="95.38" y="175.602" width="38.571" height="2.556" rx="1.278" transform="rotate(-25 95.38 175.602)" fill="#DEDEDE"/><rect x="97.543" y="180.242" width="38.571" height="2.556" rx="1.278" transform="rotate(-25 97.543 180.242)" fill="#DEDEDE"/><rect x="99.703" y="184.875" width="38.571" height="2.556" rx="1.278" transform="rotate(-25 99.703 184.875)" fill="#DEDEDE"/><rect x="101.862" y="189.516" width="38.571" height="2.556" rx="1.278" transform="rotate(-25 101.862 189.516)" fill="#DEDEDE"/><rect x="104.022" y="194.141" width="38.571" height="2.556" rx="1.278" transform="rotate(-25 104.022 194.141)" fill="#DEDEDE"/><rect x="128.349" y="148.953" width="38.571" height="2.556" rx="1.278" transform="rotate(-25 128.349 148.953)" fill="#DEDEDE"/><rect x="130.509" y="153.586" width="38.571" height="2.556" rx="1.278" transform="rotate(-25 130.509 153.586)" fill="#DEDEDE"/><rect x="132.669" y="158.211" width="38.571" height="2.556" rx="1.278" transform="rotate(-25 132.669 158.211)" fill="#DEDEDE"/><rect x="134.832" y="162.852" width="38.571" height="2.556" rx="1.278" transform="rotate(-25 134.832 162.852)" fill="#DEDEDE"/><rect x="136.992" y="167.484" width="38.571" height="2.556" rx="1.278" transform="rotate(-25 136.992 167.484)" fill="#DEDEDE"/><rect x="139.151" y="172.125" width="38.571" height="2.556" rx="1.278" transform="rotate(-25 139.151 172.125)" fill="#DEDEDE"/><rect x="141.312" y="176.75" width="38.571" height="2.556" rx="1.278" transform="rotate(-25 141.312 176.75)" fill="#DEDEDE"/><path d="M107.212 149.056a12.876 12.876 0 0 1-3.508 5.158 12.934 12.934 0 0 1-5.527 2.914 12.895 12.895 0 0 1-6.24-.02 12.774 12.774 0 0 1-5.482-2.947 12.7 12.7 0 0 1-3.99-11.367 12.826 12.826 0 0 1 2.434-5.736 12.913 12.913 0 0 1 4.855-3.929l5.4 11.58 12.058 4.347z" fill="#C7FFB5"/><path d="M90.345 132.871c1.399-.569 2.887-.889 4.395-.945l.414 12.783-4.81-11.838z" fill="#FF8C8C"/><path d="M95.31 131.918a12.81 12.81 0 0 1 8.739 3.522l-8.895 9.269.156-12.791z" fill="#C79BFF"/><path d="M104.372 135.759a12.703 12.703 0 0 1 3.288 5.979c.53 2.255.434 4.614-.278 6.825l-12.228-3.854 9.218-8.95z" fill="#BB86FF"/><path d="M104.372 135.759a12.703 12.703 0 0 1 3.288 5.979c.53 2.255.434 4.614-.278 6.825l-12.228-3.854 9.218-8.95zM117.298 140.461l3.845-1.793 3.183 6.824-3.846 1.793zM121.153 133.672l3.845-1.793 5.092 10.919-3.845 1.793zM132.058 126.938l3.845-1.793 5.729 12.284-3.846 1.793zM125.013 126.898l3.845-1.793 7.002 15.014-3.846 1.793zM142.955 120.188l3.845-1.793 6.365 13.648-3.846 1.793zM148.086 116.141l3.845-1.793 7.002 15.014-3.846 1.793zM135.915 120.148l3.845-1.793 7.638 16.378-3.846 1.793z" fill="#82B4FF"/><path transform="matrix(.47812 -.8783 .88111 .4729 115.921 132.141)" stroke="#E93434" stroke-width=".25" d="M0-.125h7.56"/><path transform="matrix(.5175 -.85569 .85864 .51257 119.481 125.656)" stroke="#E93434" stroke-width=".25" d="M0-.125h8.106"/><path transform="matrix(.44109 -.89746 .90012 .43565 130.729 118.586)" stroke="#E93434" stroke-width=".25" d="M0-.125h8.012"/><path transform="matrix(-.99642 -.08449 .08983 -.99596 130.153 118.609)" stroke="#E93434" stroke-width=".25" d="M0-.125h6.238"/><path transform="matrix(-.99774 -.06714 .07238 -.99738 142.097 111.781)" stroke="#E93434" stroke-width=".25" d="M0-.125h7.566"/><path transform="matrix(.76704 -.6416 -.64398 -.76505 141.166 111.727)" stroke="#E93434" stroke-width=".25" d="M0-.125h6.816"/><rect x="114.853" y="131.641" width="1.515" height="1.506" rx=".753" transform="rotate(-25 114.853 131.641)" fill="#FF6161"/><rect x="118.434" y="124.977" width="1.515" height="1.506" rx=".753" transform="rotate(-25 118.434 124.977)" fill="#FF6161"/><rect x="122.707" y="118.016" width="1.515" height="1.506" rx=".753" transform="rotate(-25 122.707 118.016)" fill="#FF6161"/><rect x="129.474" y="118.172" width="1.515" height="1.506" rx=".753" transform="rotate(-25 129.474 118.172)" fill="#FF6161"/><rect x="133.057" y="111.523" width="1.515" height="1.506" rx=".753" transform="rotate(-25 133.057 111.523)" fill="#FF6161"/><rect x="140.51" y="111.367" width="1.515" height="1.506" rx=".753" transform="rotate(-25 140.51 111.367)" fill="#FF6161"/><rect x="145.366" y="107.445" width="1.515" height="1.506" rx=".753" transform="rotate(-25 145.366 107.445)" fill="#FF6161"/></g><g filter="url(#w)"><g filter="url(#x)"><rect x="200.25" y="61.969" width="90" height="115" rx="2" transform="rotate(25 200.25 61.969)" fill="#fff"/><rect x="200.008" y="61.304" width="91" height="116" rx="2.5" transform="rotate(25 200.008 61.304)" stroke="url(#y)"/></g><rect x="199.513" y="78.734" width="79.714" height="2.556" rx="1.278" transform="rotate(25 199.513 78.734)" fill="#DEDEDE"/><rect x="197.351" y="83.367" width="79.714" height="2.556" rx="1.278" transform="rotate(25 197.351 83.367)" fill="#DEDEDE"/><rect x="195.194" y="87.992" width="41.143" height="2.556" rx="1.278" transform="rotate(25 195.194 87.992)" fill="#DEDEDE"/><ellipse cx="204.007" cy="75.184" rx="2.571" ry="2.556" transform="rotate(25 204.007 75.184)" fill="#FF8080"/><ellipse cx="209.832" cy="77.903" rx="2.571" ry="2.556" transform="rotate(25 209.832 77.903)" fill="#FFFCB3"/><ellipse cx="215.662" cy="80.622" rx="2.571" ry="2.556" transform="rotate(25 215.662 80.622)" fill="#C7FFB5"/><ellipse cx="196.333" cy="106.847" rx="9" ry="8.944" transform="rotate(25 196.333 106.847)" fill="#FFFCB3"/><rect x="210.605" y="103.633" width="24.429" height="2.556" rx="1.278" transform="rotate(25 210.605 103.633)" fill="#DEDEDE"/><rect x="206.287" y="112.891" width="24.429" height="2.556" rx="1.278" transform="rotate(25 206.287 112.891)" fill="#DEDEDE"/><rect x="208.443" y="108.266" width="24.429" height="2.556" rx="1.278" transform="rotate(25 208.443 108.266)" fill="#DEDEDE"/><rect x="204.125" y="117.531" width="24.429" height="2.556" rx="1.278" transform="rotate(25 204.125 117.531)" fill="#DEDEDE"/><rect x="187.163" y="126.531" width="28.286" height="2.556" rx="1.278" transform="rotate(25 187.163 126.531)" fill="#DEDEDE"/><rect x="183.921" y="133.484" width="28.286" height="2.556" rx="1.278" transform="rotate(25 183.921 133.484)" fill="#DEDEDE"/><rect x="180.683" y="140.43" width="28.286" height="2.556" rx="1.278" transform="rotate(25 180.683 140.43)" fill="#DEDEDE"/><rect x="177.44" y="147.383" width="28.286" height="2.556" rx="1.278" transform="rotate(25 177.44 147.383)" fill="#DEDEDE"/><rect x="174.199" y="154.336" width="28.286" height="2.556" rx="1.278" transform="rotate(25 174.199 154.336)" fill="#DEDEDE"/><rect x="170.961" y="161.281" width="28.286" height="2.556" rx="1.278" transform="rotate(25 170.961 161.281)" fill="#DEDEDE"/><rect x="167.719" y="168.227" width="28.286" height="2.556" rx="1.278" transform="rotate(25 167.719 168.227)" fill="#DEDEDE"/><rect x="179.657" y="121.91" width="4.643" height="4.611" rx=".25" transform="rotate(25 179.657 121.91)" fill="#DCFFCB" stroke="#CAFCB2" stroke-width=".5"/><rect x="176.417" y="128.856" width="4.643" height="4.611" rx=".25" transform="rotate(25 176.417 128.856)" fill="#DCFFCB" stroke="#CAFCB2" stroke-width=".5"/><rect x="173.177" y="135.809" width="4.643" height="4.611" rx=".25" transform="rotate(25 173.177 135.809)" fill="#DCFFCB" stroke="#CAFCB2" stroke-width=".5"/><rect x="169.935" y="142.754" width="4.643" height="4.611" rx=".25" transform="rotate(25 169.935 142.754)" fill="#DCFFCB" stroke="#CAFCB2" stroke-width=".5"/><rect x="166.695" y="149.707" width="4.643" height="4.611" rx=".25" transform="rotate(25 166.695 149.707)" fill="#DCFFCB" stroke="#CAFCB2" stroke-width=".5"/><rect x="163.455" y="156.653" width="4.643" height="4.611" rx=".25" transform="rotate(25 163.455 156.653)" fill="#DCFFCB" stroke="#CAFCB2" stroke-width=".5"/><rect x="160.215" y="163.606" width="4.643" height="4.611" rx=".25" transform="rotate(25 160.215 163.606)" fill="#DCFFCB" stroke="#CAFCB2" stroke-width=".5"/><rect x="225.603" y="144.453" width="28.286" height="2.556" rx="1.278" transform="rotate(25 225.603 144.453)" fill="#DEDEDE"/><rect x="222.36" y="151.406" width="28.286" height="2.556" rx="1.278" transform="rotate(25 222.36 151.406)" fill="#DEDEDE"/><rect x="219.122" y="158.352" width="28.286" height="2.556" rx="1.278" transform="rotate(25 219.122 158.352)" fill="#DEDEDE"/><rect x="215.88" y="165.305" width="28.286" height="2.556" rx="1.278" transform="rotate(25 215.88 165.305)" fill="#DEDEDE"/><rect x="212.639" y="172.258" width="28.286" height="2.556" rx="1.278" transform="rotate(25 212.639 172.258)" fill="#DEDEDE"/><rect x="209.4" y="179.203" width="28.286" height="2.556" rx="1.278" transform="rotate(25 209.4 179.203)" fill="#DEDEDE"/><rect x="206.158" y="186.148" width="28.286" height="2.556" rx="1.278" transform="rotate(25 206.158 186.148)" fill="#DEDEDE"/><rect x="218.1" y="139.832" width="4.643" height="4.611" rx=".25" transform="rotate(25 218.1 139.832)" fill="#FFCBCB" stroke="#FCB2B2" stroke-width=".5"/><rect x="214.86" y="146.778" width="4.643" height="4.611" rx=".25" transform="rotate(25 214.86 146.778)" fill="#FFCBCB" stroke="#FCB2B2" stroke-width=".5"/><rect x="211.62" y="153.731" width="4.643" height="4.611" rx=".25" transform="rotate(25 211.62 153.731)" fill="#FFCBCB" stroke="#FCB2B2" stroke-width=".5"/><rect x="208.379" y="160.676" width="4.643" height="4.611" rx=".25" transform="rotate(25 208.379 160.676)" fill="#FFCBCB" stroke="#FCB2B2" stroke-width=".5"/><rect x="205.139" y="167.629" width="4.643" height="4.611" rx=".25" transform="rotate(25 205.139 167.629)" fill="#FFCBCB" stroke="#FCB2B2" stroke-width=".5"/><rect x="201.898" y="174.574" width="4.643" height="4.611" rx=".25" transform="rotate(25 201.898 174.574)" fill="#FFCBCB" stroke="#FCB2B2" stroke-width=".5"/><rect x="198.658" y="181.528" width="4.643" height="4.611" rx=".25" transform="rotate(25 198.658 181.528)" fill="#FFCBCB" stroke="#FCB2B2" stroke-width=".5"/><path fill="#82B4FF" d="m231.933 127.828 2.68 1.25-2.1 4.504-2.68-1.25zM237.211 127l2.68 1.25-3.36 7.205-2.68-1.25zM245.674 129.859l2.68 1.25-3.78 8.106-2.68-1.25zM242.49 126.172l2.68 1.25-4.62 9.907-2.68-1.25zM254.13 132.711l2.68 1.25-4.2 9.007-2.68-1.25zM258.572 133.672l2.68 1.25-4.62 9.907-2.68-1.25zM250.952 129.031l2.68 1.25-5.04 10.807-2.68-1.25z"/><path transform="matrix(.98495 -.17285 .22988 .97322 235.633 123.641)" stroke="#E93434" stroke-width=".25" d="M0-.125h5.173"/><path transform="matrix(.99167 -.12884 .18454 .98283 240.638 122.773)" stroke="#E93434" stroke-width=".25" d="M0-.125h5.56"/><path transform="matrix(.97702 -.21314 .27085 .96262 249.407 125.68)" stroke="#E93434" stroke-width=".25" d="M0-.125h5.47"/><path transform="matrix(-.59463 -.804 .8342 -.55147 249.144 125.383)" stroke="#E93434" stroke-width=".25" d="M0-.125h4.293"/><path transform="matrix(-.60813 -.79384 .82414 -.56638 258.114 128.742)" stroke="#E93434" stroke-width=".25" d="M0-.125h5.21"/><path transform="matrix(.98213 .18822 .15825 -.9874 257.725 128.227)" stroke="#E93434" stroke-width=".25" d="M0-.125h4.735"/><rect x="235.411" y="122.867" width="1.056" height=".994" rx=".497" transform="rotate(25 235.411 122.867)" fill="#FF6161"/><rect x="240.5" y="121.953" width="1.056" height=".994" rx=".497" transform="rotate(25 240.5 121.953)" fill="#FF6161"/><rect x="246.062" y="121.258" width="1.056" height=".994" rx=".497" transform="rotate(25 246.062 121.258)" fill="#FF6161"/><rect x="249.052" y="124.852" width="1.056" height=".994" rx=".497" transform="rotate(25 249.052 124.852)" fill="#FF6161"/><rect x="254.144" y="123.938" width="1.056" height=".994" rx=".497" transform="rotate(25 254.144 123.938)" fill="#FF6161"/><rect x="257.608" y="127.75" width="1.056" height=".994" rx=".497" transform="rotate(25 257.608 127.75)" fill="#FF6161"/><rect x="261.857" y="128.625" width="1.056" height=".994" rx=".497" transform="rotate(25 261.857 128.625)" fill="#FF6161"/></g><g filter="url(#z)"><rect x="120.5" y="61.203" width="101" height="131" rx="2.5" fill="#fff" stroke="url(#A)"/><rect x="152" y="71.695" width="58.772" height="16" rx="2" fill="#C8DEFF"/><circle cx="138.91" cy="79.695" r="8" fill="#C8DEFF"/><path d="M131 94.695a1 1 0 0 1 1-1h78a1 1 0 0 1 1 1v1.768a1 1 0 0 1-1 1h-78a1 1 0 0 1-1-1v-1.768z" fill="#D8D8D8"/><rect x="131" y="101.461" width="80" height="3.768" rx="1" fill="#D8D8D8"/><rect x="131" y="109.227" width="80" height="3.768" rx="1" fill="#D8D8D8"/><path d="M131 165.695a1 1 0 0 1 1-1h78a1 1 0 0 1 1 1v1.768a1 1 0 0 1-1 1h-78a1 1 0 0 1-1-1v-1.768z" fill="#D8D8D8"/><rect x="131" y="172.461" width="80" height="3.768" rx="1" fill="#D8D8D8"/><rect x="131" y="180.227" width="80" height="3.768" rx="1" fill="#D8D8D8"/><path d="M137 118.695a1 1 0 0 1 1-1h32a1 1 0 0 1 1 1v2a1 1 0 0 1-1 1h-32a1 1 0 0 1-1-1v-2z" fill="#D8D8D8"/><rect x="131" y="117.695" width="4" height="4" rx="2" fill="#D8D8D8"/><rect x="137" y="125.695" width="34" height="4" rx="1" fill="#D8D8D8"/><rect x="131" y="125.695" width="4" height="4" rx="2" fill="#D8D8D8"/><rect x="137" y="133.695" width="34" height="4" rx="1" fill="#D8D8D8"/><rect x="131" y="133.695" width="4" height="4" rx="2" fill="#D8D8D8"/><path d="M137 142.695a1 1 0 0 1 1-1h32a1 1 0 0 1 1 1v2a1 1 0 0 1-1 1h-32a1 1 0 0 1-1-1v-2z" fill="#D8D8D8"/><rect x="131" y="141.695" width="4" height="4" rx="2" fill="#D8D8D8"/><rect x="131" y="149.461" width="80" height="3.768" rx="1" fill="#D8D8D8"/><rect x="131" y="157.227" width="80" height="3.768" rx="1" fill="#D8D8D8"/><path d="M173.617 137.602a1 1 0 0 1 1-1h2.92a1 1 0 0 1 1 1v6.549h-4.92v-6.549zM180.18 130.055a1 1 0 0 1 1-1h2.92a1 1 0 0 1 1 1v14.098h-4.92v-14.098zM186.742 126.273a1 1 0 0 1 1-1h2.92a1 1 0 0 1 1 1v17.873h-4.92v-17.873zM193.305 130.047a1 1 0 0 1 1-1h2.92a1 1 0 0 1 1 1v14.098h-4.92v-14.098zM199.867 133.07a1 1 0 0 1 1-1h2.92a1 1 0 0 1 1 1v11.079h-4.92V133.07zM206.43 130.055a1 1 0 0 1 1-1h2.92a1 1 0 0 1 1 1v14.098h-4.92v-14.098z" fill="#82B4FF"/><path transform="matrix(.55572 -.83137 .87007 .49293 176.078 132.82)" stroke="#E93434" stroke-width=".25" d="M0-.125h11.804"/><path transform="matrix(.8229 -.56819 .6316 .7753 182.641 123.008)" stroke="#E93434" stroke-width=".25" d="M0-.125h7.972"/><path transform="matrix(.84222 -.53913 .60268 .79798 202.309 127.203)" stroke="#E93434" stroke-width=".25" d="M0-.125h7.789"/><path transform="matrix(-.82282 -.5683 .63172 -.7752 195.766 123.008)" stroke="#E93434" stroke-width=".25" d="M0-.125h7.972"/><path transform="matrix(-.86658 -.49904 .562 -.82714 202.309 126.773)" stroke="#E93434" stroke-width=".25" d="M0-.125h7.569"/><rect x="175.258" y="132.062" width="1.64" height="1.51" rx=".755" fill="#FF6161"/><rect x="181.82" y="122.25" width="1.64" height="1.51" rx=".755" fill="#FF6161"/><rect x="188.383" y="117.695" width="1.64" height="1.51" rx=".755" fill="#FF6161"/><rect x="194.945" y="122.25" width="1.64" height="1.51" rx=".755" fill="#FF6161"/><rect x="201.488" y="126.016" width="1.64" height="1.51" rx=".755" fill="#FF6161"/><rect x="208.051" y="122.25" width="1.64" height="1.51" rx=".755" fill="#FF6161"/></g></g><defs><filter id="c" x="264" y="69" width="35.105" height="28.758" filterUnits="userSpaceOnUse" color-interpolation-filters="sRGB"><feFlood flood-opacity="0" result="BackgroundImageFix"/><feColorMatrix in="SourceAlpha" values="0 0 0 0 0 0 0 0 0 0 0 0 0 0 0 0 0 0 127 0" result="hardAlpha"/><feOffset dy="4"/><feGaussianBlur stdDeviation="2"/><feComposite in2="hardAlpha" operator="out"/><feColorMatrix values="0 0 0 0 0 0 0 0 0 0 0 0 0 0 0 0 0 0 0.1 0"/><feBlend in2="BackgroundImageFix" result="effect1_dropShadow_741_15913"/><feBlend in="SourceGraphic" in2="effect1_dropShadow_741_15913" result="shape"/></filter><filter id="b" x="264" y="50.664" width="64.307" height="47.094" filterUnits="userSpaceOnUse" color-interpolation-filters="sRGB"><feFlood flood-opacity="0" result="BackgroundImageFix"/><feColorMatrix in="SourceAlpha" values="0 0 0 0 0 0 0 0 0 0 0 0 0 0 0 0 0 0 127 0" result="hardAlpha"/><feOffset dy="4"/><feGaussianBlur stdDeviation="2"/><feComposite in2="hardAlpha" operator="out"/><feColorMatrix values="0 0 0 0 0 0 0 0 0 0 0 0 0 0 0 0 0 0 0.25 0"/><feBlend in2="BackgroundImageFix" result="effect1_dropShadow_741_15913"/><feBlend in="SourceGraphic" in2="effect1_dropShadow_741_15913" result="shape"/></filter><filter id="e" x="12" y="53" width="50" height="50" filterUnits="userSpaceOnUse" color-interpolation-filters="sRGB"><feFlood flood-opacity="0" result="BackgroundImageFix"/><feColorMatrix in="SourceAlpha" values="0 0 0 0 0 0 0 0 0 0 0 0 0 0 0 0 0 0 127 0" result="hardAlpha"/><feOffset dy="8"/><feGaussianBlur stdDeviation="4"/><feComposite in2="hardAlpha" operator="out"/><feColorMatrix values="0 0 0 0 0 0 0 0 0 0 0 0 0 0 0 0 0 0 0.1 0"/><feBlend in2="BackgroundImageFix" result="effect1_dropShadow_741_15913"/><feBlend in="SourceGraphic" in2="effect1_dropShadow_741_15913" result="shape"/></filter><filter id="h" x="24.418" y="64.094" width="24.546" height="10.813" filterUnits="userSpaceOnUse" color-interpolation-filters="sRGB"><feFlood flood-opacity="0" result="BackgroundImageFix"/><feColorMatrix in="SourceAlpha" values="0 0 0 0 0 0 0 0 0 0 0 0 0 0 0 0 0 0 127 0" result="hardAlpha"/><feOffset dy="2"/><feGaussianBlur stdDeviation="1"/><feComposite in2="hardAlpha" operator="out"/><feColorMatrix values="0 0 0 0 0 0 0 0 0 0 0 0 0 0 0 0 0 0 0.2 0"/><feBlend in2="BackgroundImageFix" result="effect1_dropShadow_741_15913"/><feBlend in="SourceGraphic" in2="effect1_dropShadow_741_15913" result="shape"/></filter><filter id="j" x="263" y="194" width="71" height="71" filterUnits="userSpaceOnUse" color-interpolation-filters="sRGB"><feFlood flood-opacity="0" result="BackgroundImageFix"/><feColorMatrix in="SourceAlpha" values="0 0 0 0 0 0 0 0 0 0 0 0 0 0 0 0 0 0 127 0" result="hardAlpha"/><feOffset dy="8"/><feGaussianBlur stdDeviation="4"/><feComposite in2="hardAlpha" operator="out"/><feColorMatrix values="0 0 0 0 0 0 0 0 0 0 0 0 0 0 0 0 0 0 0.1 0"/><feBlend in2="BackgroundImageFix" result="effect1_dropShadow_741_15913"/><feBlend in="SourceGraphic" in2="effect1_dropShadow_741_15913" result="shape"/></filter><filter id="p" x="278" y="233" width="36.773" height="19" filterUnits="userSpaceOnUse" color-interpolation-filters="sRGB"><feFlood flood-opacity="0" result="BackgroundImageFix"/><feColorMatrix in="SourceAlpha" values="0 0 0 0 0 0 0 0 0 0 0 0 0 0 0 0 0 0 127 0" result="hardAlpha"/><feOffset dy="8"/><feGaussianBlur stdDeviation="4"/><feComposite in2="hardAlpha" operator="out"/><feColorMatrix values="0 0 0 0 0 0 0 0 0 0 0 0 0 0 0 0 0 0 0.1 0"/><feBlend in2="BackgroundImageFix" result="effect1_dropShadow_741_15913"/><feBlend in="SourceGraphic" in2="effect1_dropShadow_741_15913" result="shape"/></filter><filter id="t" x="45.657" y="60.664" width="146.854" height="158.945" filterUnits="userSpaceOnUse" color-interpolation-filters="sRGB"><feFlood flood-opacity="0" result="BackgroundImageFix"/><feColorMatrix in="SourceAlpha" values="0 0 0 0 0 0 0 0 0 0 0 0 0 0 0 0 0 0 127 0" result="hardAlpha"/><feOffset dy="8"/><feGaussianBlur stdDeviation="4"/><feComposite in2="hardAlpha" operator="out"/><feColorMatrix values="0 0 0 0 0 0 0 0 0 0 0 0 0 0 0 0 0 0 0.2 0"/><feBlend in2="BackgroundImageFix" result="effect1_dropShadow_741_15913"/><feBlend in="SourceGraphic" in2="effect1_dropShadow_741_15913" result="shape"/></filter><filter id="u" x="45.657" y="60.664" width="146.854" height="158.945" filterUnits="userSpaceOnUse" color-interpolation-filters="sRGB"><feFlood flood-opacity="0" result="BackgroundImageFix"/><feColorMatrix in="SourceAlpha" values="0 0 0 0 0 0 0 0 0 0 0 0 0 0 0 0 0 0 127 0" result="hardAlpha"/><feOffset dy="8"/><feGaussianBlur stdDeviation="4"/><feComposite in2="hardAlpha" operator="out"/><feColorMatrix values="0 0 0 0 0 0 0 0 0 0 0 0 0 0 0 0 0 0 0.1 0"/><feBlend in2="BackgroundImageFix" result="effect1_dropShadow_741_15913"/><feBlend in="SourceGraphic" in2="effect1_dropShadow_741_15913" result="shape"/></filter><filter id="w" x="143.306" y="61.625" width="146.854" height="158.945" filterUnits="userSpaceOnUse" color-interpolation-filters="sRGB"><feFlood flood-opacity="0" result="BackgroundImageFix"/><feColorMatrix in="SourceAlpha" values="0 0 0 0 0 0 0 0 0 0 0 0 0 0 0 0 0 0 127 0" result="hardAlpha"/><feOffset dy="8"/><feGaussianBlur stdDeviation="4"/><feComposite in2="hardAlpha" operator="out"/><feColorMatrix values="0 0 0 0 0 0 0 0 0 0 0 0 0 0 0 0 0 0 0.2 0"/><feBlend in2="BackgroundImageFix" result="effect1_dropShadow_741_15913"/><feBlend in="SourceGraphic" in2="effect1_dropShadow_741_15913" result="shape"/></filter><filter id="x" x="143.306" y="61.625" width="146.854" height="158.945" filterUnits="userSpaceOnUse" color-interpolation-filters="sRGB"><feFlood flood-opacity="0" result="BackgroundImageFix"/><feColorMatrix in="SourceAlpha" values="0 0 0 0 0 0 0 0 0 0 0 0 0 0 0 0 0 0 127 0" result="hardAlpha"/><feOffset dy="8"/><feGaussianBlur stdDeviation="4"/><feComposite in2="hardAlpha" operator="out"/><feColorMatrix values="0 0 0 0 0 0 0 0 0 0 0 0 0 0 0 0 0 0 0.1 0"/><feBlend in2="BackgroundImageFix" result="effect1_dropShadow_741_15913"/><feBlend in="SourceGraphic" in2="effect1_dropShadow_741_15913" result="shape"/></filter><filter id="z" x="116" y="60.703" width="110" height="140" filterUnits="userSpaceOnUse" color-interpolation-filters="sRGB"><feFlood flood-opacity="0" result="BackgroundImageFix"/><feColorMatrix in="SourceAlpha" values="0 0 0 0 0 0 0 0 0 0 0 0 0 0 0 0 0 0 127 0" result="hardAlpha"/><feOffset dy="4"/><feGaussianBlur stdDeviation="2"/><feComposite in2="hardAlpha" operator="out"/><feColorMatrix values="0 0 0 0 0 0 0 0 0 0 0 0 0 0 0 0 0 0 0.25 0"/><feBlend in2="BackgroundImageFix" result="effect1_dropShadow_741_15913"/><feBlend in="SourceGraphic" in2="effect1_dropShadow_741_15913" result="shape"/></filter><filter id="d" x="297" y="65" width="31.307" height="29" filterUnits="userSpaceOnUse" color-interpolation-filters="sRGB"><feFlood flood-opacity="0" result="BackgroundImageFix"/><feColorMatrix in="SourceAlpha" values="0 0 0 0 0 0 0 0 0 0 0 0 0 0 0 0 0 0 127 0" result="hardAlpha"/><feOffset dy="4"/><feGaussianBlur stdDeviation="2"/><feComposite in2="hardAlpha" operator="out"/><feColorMatrix values="0 0 0 0 0 0 0 0 0 0 0 0 0 0 0 0 0 0 0.1 0"/><feBlend in2="BackgroundImageFix" result="effect1_dropShadow_741_15913"/><feBlend in="SourceGraphic" in2="effect1_dropShadow_741_15913" result="shape"/></filter><linearGradient id="q" x1="285.567" y1="233" x2="305.894" y2="238.985" gradientUnits="userSpaceOnUse"><stop stop-color="#44D5B3"/><stop offset=".505" stop-color="#44D5B3"/><stop offset="1" stop-color="#61E6C7"/></linearGradient><linearGradient id="k" x1="271" y1="194" x2="326" y2="249" gradientUnits="userSpaceOnUse"><stop stop-color="#fff"/><stop offset=".5" stop-color="#FF5156"/><stop offset="1" stop-color="#E7161C"/></linearGradient><linearGradient id="m" x1="308.491" y1="216.315" x2="305.625" y2="214.193" gradientUnits="userSpaceOnUse"><stop stop-color="#FDFFA5"/><stop offset="1" stop-color="#DADE31"/></linearGradient><linearGradient id="n" x1="9.014" y1="1.163" x2="-.233" y2="3.098" gradientUnits="userSpaceOnUse"><stop stop-color="#44D4B2"/><stop offset=".485" stop-color="#61E5C6"/><stop offset="1" stop-color="#44D4B2"/></linearGradient><linearGradient id="o" x1="13.8" y1="1.908" x2="-1.096" y2="2.002" gradientUnits="userSpaceOnUse"><stop stop-color="#4DDAB9"/><stop offset=".5" stop-color="#62E6C7"/><stop offset="1" stop-color="#48D6B5"/></linearGradient><linearGradient id="l" x1="271" y1="194" x2="326" y2="249" gradientUnits="userSpaceOnUse"><stop stop-color="#FFD3A1"/><stop offset=".5" stop-color="#FFAB7B"/><stop offset="1" stop-color="#FF6737"/></linearGradient><linearGradient id="r" x1="294.101" y1="206.005" x2="297.659" y2="211.283" gradientUnits="userSpaceOnUse"><stop stop-color="#66E8C9"/><stop offset=".5" stop-color="#51DCBB"/><stop offset="1" stop-color="#44D4B2"/></linearGradient><linearGradient id="s" x1="298.041" y1="210.011" x2="308.348" y2="217.887" gradientUnits="userSpaceOnUse"><stop stop-color="#41D2B0"/><stop offset=".535" stop-color="#61E5C6"/><stop offset="1" stop-color="#8DF7DE"/></linearGradient><linearGradient id="v" x1="54" y1="99.039" x2="164.267" y2="189.272" gradientUnits="userSpaceOnUse"><stop stop-color="#FFC267"/><stop offset=".5" stop-color="#FFF0DA"/><stop offset="1" stop-color="#fff"/></linearGradient><linearGradient id="y" x1="200.25" y1="61.969" x2="310.517" y2="152.202" gradientUnits="userSpaceOnUse"><stop stop-color="#FFC267"/><stop offset=".5" stop-color="#FFF0DA"/><stop offset="1" stop-color="#fff"/></linearGradient><linearGradient id="A" x1="121" y1="61.703" x2="245.208" y2="161.606" gradientUnits="userSpaceOnUse"><stop stop-color="#67BCFF"/><stop offset=".255" stop-color="#D2E9FC"/><stop offset=".54" stop-color="#E2EBF2"/><stop offset="1" stop-color="#fff"/></linearGradient><radialGradient id="f" cx="0" cy="0" r="1" gradientUnits="userSpaceOnUse" gradientTransform="rotate(45 -53.977 50.642) scale(48.0833 74.6854)"><stop stop-color="#A2FFE9"/><stop offset=".58" stop-color="#59E1C1"/><stop offset="1" stop-color="#30C8A4"/></radialGradient><clipPath id="a"><rect width="336" height="266" rx="30" fill="#fff"/></clipPath></defs></svg>