<svg width="352" height="282" fill="none" xmlns="http://www.w3.org/2000/svg"><g filter="url(#a)"><g clip-path="url(#b)"><rect x="6" y="6" width="336" height="266" rx="30" fill="#fff"/><rect x="6" y="6" width="336" height="266" rx="30" fill="#FFDF94"/><path d="M154 6v69" stroke="#FFD06F" stroke-width="5" stroke-linecap="round" stroke-linejoin="round" stroke-dasharray="15 15"/><path d="M305 214c-.221 4.737-3.051 13.953-12.601 12.92" stroke="#FFD06F" stroke-width="5" stroke-linejoin="round" stroke-dasharray="15 15"/><path d="M43 84.453v73.649M305 84v131M53.663 75h239.413M54.63 169h249.106" stroke="#FFD06F" stroke-width="5" stroke-linecap="round" stroke-linejoin="round" stroke-dasharray="15 15"/><path d="M43 84.387c.221-3.421 3.05-10.075 12.6-9.33M304.706 84.387c-.221-3.421-3.051-10.075-12.601-9.33M43 156c.221 4.737 3.05 13.953 12.6 12.92" stroke="#FFD06F" stroke-width="5" stroke-linejoin="round" stroke-dasharray="15 15"/><path d="M154 236v36M165 227h128" stroke="#FFD06F" stroke-width="5" stroke-linecap="round" stroke-linejoin="round" stroke-dasharray="15 15"/><path d="M154 236.387c.221-3.421 3.051-10.075 12.601-9.329" stroke="#FFD06F" stroke-width="5" stroke-linejoin="round" stroke-dasharray="15 15"/><g filter="url(#c)"><circle cx="43.5" cy="75.5" r="17.5" fill="url(#d)"/><path d="M44.155 83.453h-1.946a.3.3 0 0 1-.3-.3v-18.49a.3.3 0 0 1 .3-.3h1.946a.3.3 0 0 1 .3.3v18.49a.3.3 0 0 1-.3.3z" fill="#963905" stroke="#7E3004" stroke-linecap="round"/><path d="M38.727 70.424v-3.218a.3.3 0 0 1 .3-.3h12.13a.3.3 0 0 1 .171.054l2.317 1.609a.3.3 0 0 1 0 .493l-2.317 1.609a.3.3 0 0 1-.17.053h-12.13a.3.3 0 0 1-.3-.3zM47.637 77.424v-3.218a.3.3 0 0 0-.3-.3H35.676a.3.3 0 0 0-.153.042l-2.722 1.61a.3.3 0 0 0 0 .516l2.722 1.609a.3.3 0 0 0 .153.041h11.66a.3.3 0 0 0 .3-.3zM46.7 87.271h-7.037a.299.299 0 0 1-.299-.3c.012-1.638.213-3.506 3.676-3.518 3.73-.012 3.946 1.877 3.959 3.518a.299.299 0 0 1-.3.3z" fill="#963905" stroke="#7E3004" stroke-linecap="round"/></g><g filter="url(#e)"><circle cx="299.5" cy="226.5" r="27.5" fill="url(#f)"/><g filter="url(#g)"><path d="M286.05 218.297c0 1.21-.617 5.446 2.472 9.683 2.966 4.357 4.119 7.06 4.325 7.867h11.739c1.236-2.824 2.688-5.301 4.325-7.867 3.089-4.842 2.265-6.254 3.089-9.683" stroke="#fff"/><path d="M299 231.8c7.479 0 13.5-6.358 13.5-14.15 0-7.792-6.021-14.15-13.5-14.15s-13.5 6.358-13.5 14.15c0 7.792 6.021 14.15 13.5 14.15z" stroke="#fff"/><path d="M293.087 235.182h5.14c-.643-1.3-.585-2.666 0-3.245.648-.642.856-.649 1.284-.649.784 0 .649.656 2.57.649.648-.002 1.291-.642 1.285-1.948-.006-1.292-.006-1.306-.643-2.598-.636-1.291-1.921.008-3.212 0-.636.008-1.279-.642-1.285-1.298l1.291-5.833c-.006-.014.022-.007-.006-.014-2.563-.64-5.154-2.605-5.802-1.962-.637.651-1.542 1.302-1.285 2.6.386 1.949.643 1.689-1.285 1.949-1.284 0-.647.344-.642-1.299.006-1.947.675-1.286.026-2.587h-4.502c-.215 2.382 1.29 6.496 2.569 8.443 1.779 2.706 3.212 4.547 4.497 7.792z" fill="#FF686C" stroke="#fff" stroke-width=".3"/><path d="M298.232 226.1c0-1.558.856-4.545 1.285-5.844 1.07.216 2.543-.021 5.139 1.299.642.326 1.258-1.969.642-3.247-.214-.65.514-1.949 2.57-1.949s1.285 3.464.643 5.196c1.9-.021 3.212-.189 3.212 0-.001 1.948-3.213 6.493-3.213 6.493l-3.854 7.144c-3.854 0-3.855.02-6.424 0-2.596-.021-.669-3.268.642-3.897 1.259-.669 3.341 1.039 3.855 0 .642-1.298.642-2.597 0-3.896-.514-1.039-1.137-.2-1.928 0-.856.216-2.569.26-2.569-1.299z" fill="#73ABFF" stroke="#fff" stroke-width=".3"/><path d="m304.656 221.554-5.14-1.299c.848-1.305 2.47-5.865.617-5.865h-3.213c-1.284 0-1.927-1.039-1.927-2.597 0-1.559.857-1.948 1.285-1.948.214-.217.771-.39 1.285.649.514 1.039 1.713 1.299 2.57 1.299.428-.217 2.184-1.039 3.212-2.598 1.285-1.948-3.212-5.195-2.57-5.195 11.307 2.078 11.804 12.575 10.947 17.554-.642.433-3.212 0-3.212 0s1.928-5.195-.642-5.195-2.57 1.948-1.927 2.597c.642.65 0 2.598-1.285 2.598z" fill="#F3FC77" stroke="#fff" stroke-width=".3"/><path d="M286 218.936c.642-11.679 7.067-14.926 14.133-14.936 4.112-.008 3.855 3.467 3.212 5.205 0 0-1.284 2.598-3.212 2.598-3.212-.65-2.569-1.948-3.854-1.948-1.454 0-1.625 2.903-.643 3.896 1.285 1.299 1.568.26 3.855.26 2.57 0 1.285 4.069 0 6.234l-2.57-.649c-1.285-.65-2.698-1.689-3.212-.65-.642 1.299 0 1.679 0 2.598 0 .649-.385 1.948-1.927 1.948-1.927 0-1.927-1.299-1.927-1.948 0-.65.214-1.732.642-2.598l-4.497-.01z" fill="#019444" stroke="#fff" stroke-width=".3"/><path d="m292.615 240.406 11.471 2.6M297.113 245.602l-3.65-.484a.244.244 0 0 0-.275.241v0c0 .134.109.243.243.243h9.96m0-1.04.111.024c.6.133.504 1.016-.111 1.016v0m0-1.04v1.04m0-1.04-10.203-1.56M299.588 237.805l3.65.483a.242.242 0 0 0 .274-.24v0a.242.242 0 0 0-.242-.243h-9.96m0 1.04-.111-.025c-.6-.132-.504-1.015.111-1.015v0m0 1.04v-1.04m0 1.04 10.202 1.56" stroke="#D0D0D0" stroke-linecap="round"/><path d="M302 246.5c.552 0 1.014.461.821.978-.21.561-.599 1.077-1.139 1.497-.844.656-1.989 1.025-3.182 1.025-1.193 0-2.338-.369-3.182-1.025-.54-.42-.929-.936-1.139-1.497-.193-.517.269-.978.821-.978h7z" fill="url(#h)"/></g></g><g filter="url(#i)"><path d="m92.41 119.27 34.541 17.121-27.633-24.731 6.909-5.707-25.33 1.902 6.908 20.926 4.605-9.511z" fill="#F3FC77"/><path d="m103.425 91.78 32.954 41.723-14.269-46.356 14.271-2.637-32.954-12.711-11.77 27.24 11.768-7.258z" fill="#FF686C"/><path d="m185.844 102.646-30.598 32.667L169.469 96.5l-14.265-1.13 32.973-10.856 9.435 25.392-11.768-7.26z" fill="#019444"/><path d="m227.875 117.639-60.884 20.22 49.626-36.764-16.682-9.39 47.064 3.686L235.24 128l-7.365-10.361z" fill="#73ABFF"/><path d="M148.47 93.266c-14.848 14.61-6.187 36.526 0 45.657-3.536-6.595-6.364-24.655 10.605-44.135 16.969-19.48 19.444-35.51 18.56-41.091l18.56 4.566L164.378 40l-18.56 15.219 13.257-1.522c2.652 7.102 4.243 24.959-10.605 39.57z" fill="#8C3FEF"/></g><g filter="url(#j)"><path d="m192.55 109.225-79.027-.444a5.251 5.251 0 0 0-5.257 5.74l5.713 60.944a5.25 5.25 0 0 0 5.257 4.76l79.737-.444a5.25 5.25 0 0 0 5.191-5.808l-6.424-60.057a5.25 5.25 0 0 0-5.19-4.691z" fill="#9ACFC2" stroke="#242427" stroke-width=".5"/><path d="M118.655 180.25h121.091a8.75 8.75 0 0 1-8.746 8.5H118.655a3.75 3.75 0 0 1-3.75-3.75v-1a3.75 3.75 0 0 1 3.75-3.75z" fill="#9ACFC2" stroke="#000" stroke-width=".5"/><g filter="url(#k)"><path d="m188.842 114.16-69.769-.386a4.252 4.252 0 0 0-4.255 4.654l5.048 52.955a4.25 4.25 0 0 0 4.254 3.847l70.397-.385a4.25 4.25 0 0 0 4.202-4.71l-5.676-52.185a4.25 4.25 0 0 0-4.201-3.79z" fill="#fff" stroke="#000" stroke-width=".5"/><path d="M157.633 142.504c-2.443-.104-6.905-1.792-9.76-2.527-2.189 1.747-6.167 5.351-4.568 5.793 2.681.74 3.513 4.457 3.14 6.62-.187 1.087 16.604 11.145 17.289 11.587.856.551 1.33-.002 2.125-.552.648-.448 1.203.302 2.034-.948 1.387.25 2.151-.08 1.664-1.25-.832-2-4.197-6.262-6.1-8.837 4.436-.75 8.248-3.488 5.257-4.388-4.98-1.498-9.409-5.427-11.081-5.498z" fill="#C74811" stroke="#000" stroke-width=".5"/><path d="M157.209 145.492c2.474 1.012 7.88 3.642 9.707 6.069" stroke="#000" stroke-width=".5"/><path d="m159.02 153.5 8.873 9M157.356 157.508c2.774 1.666 8.32 5.2 8.32 6M166.598 148c-.231.362-.639 1.21-.427 1.705M166.633 160.947c.408-.445 1.321-1.283 1.713-1.069M164.348 162.049c.408-.446 1.321-1.283 1.713-1.069" stroke="#000" stroke-width=".5" stroke-linecap="round"/><path d="M162.348 162.977c.396-.404 1.283-1.163 1.664-.969" stroke="#000" stroke-width=".5" stroke-linecap="round"/><path d="M171.221 159.977c0 1.6-.925 1.333-1.387 1-.832-1.75-7.21-7.75-6.655-8 .443-.2 2.68-1 3.605-1.25 1.571 2 4.437 6.65 4.437 8.25z" fill="#C74811" stroke="#000" stroke-width=".5"/><path d="m166.433 151.375.35.875-3.051 1.25-1.109-1.5 3.81-.625z" fill="#C74811"/><path d="M168.448 159.115c.476-.459 1.542-1.324 1.999-1.103" stroke="#000" stroke-width=".5" stroke-linecap="round"/><path d="M149.592 141.225c1.473-1.443-18.677-6.97-31.351-27.213l-1.706.388-1.28 1.153-.236 1.074v-.001c.826 7.975 1.735 17.39 3.084 20.393 1.032 2.297 16.611 8.257 24.588 11.469 3.589-3.637 4.687-5.093 6.901-7.263z" fill="#FC5C02" stroke="#000" stroke-width=".5"/><path d="M156.579 141.977h6.101c5.823 1.166 15.751 3.9 8.874 5.5-8.597 2-8.874-1.75-12.757-1.25-3.882.5-8.042 1.75-9.705.5-1.331-1-.185-1.75.554-2 1.607 0 3.27-.25 4.16-1 1.087-.917 2.126-1.667 2.773-1.75z" fill="#FDBA9F" stroke="#000" stroke-width=".5"/><path d="M150.699 146.227c.462-.334 1.22-1.1.555-1.5" stroke="#000" stroke-width=".5" stroke-linecap="round"/><path d="m188.815 121.053 3.9-4.023c.509 5.431 2.137 16.129 1.845 19.188-.192 2.004-13.908 7.033-19.733 10.28-5.835 2.633-13-4.69-11.336-5.889 13.91-10.02 19.747-13.128 25.324-19.556z" fill="#0A8686" stroke="#000" stroke-width=".5"/><path d="M147.649 153.736c1.386-1.5 3.05-4.003 4.99-4.002 1.339.001 1.044 1.501.369 2.958.787-1.131 1.719-2.077 2.404-1.706.75.405.191 1.975-.564 3.413.945-1.405 2.156-2.799 3.06-2.663 1.331.2-.185 3.583-1.109 5.25 1.016-1.418 2.716-3.652 3.605-3.252 1.11.5-2.219 7.252-4.16 7.252-1.553 0-2.311-.833-2.496-1.25-.924 0-2.662-.25-2.218-1.25-.832.083-2.995-.1-2.773-1.5-1.109.25-2.495-1-1.94-2 .496-.894.832-1.166.832-1.25z" fill="#FDBB96"/><path d="M151.53 158.486c-.444 1 1.294 1.25 2.218 1.25.185.417.943 1.25 2.496 1.25 1.941 0 5.27-6.752 4.16-7.252-.889-.4-2.589 1.834-3.605 3.252.924-1.667 2.44-5.05 1.109-5.25-1.331-.2-3.328 2.917-4.16 4.5 1.017-1.5 2.773-4.65 1.664-5.25-1.109-.6-2.865 2.25-3.605 3.75 1.109-1.501 2.877-5 .832-5.002-1.94-.001-3.604 2.502-4.99 4.002 0 .084-.336.356-.832 1.25-.555 1 .831 2.25 1.94 2m2.773 1.5c.443-1 .089-.2 0 0zm0 0c-.832.083-2.995-.1-2.773-1.5m0 0c.222-1.4.185-.583 0 0z" stroke="#000" stroke-width=".5" stroke-linecap="round"/><path d="M151.253 150.977c.185.25.665.7 1.109.5M156.245 153.484c.185.25.666.7 1.109.5M154.025 152.477c.093.227.333.636.555.454M159.019 154.977c.138.227.499.636.831.454" stroke="#000" stroke-width=".5" stroke-linecap="round"/><path d="m173.734 128.203-36.499-.208a4.35 4.35 0 0 0-4.356 4.751l2.582 27.911a4.35 4.35 0 0 0 4.356 3.949l36.819-.208a4.35 4.35 0 0 0 4.301-4.806l-2.902-27.496a4.35 4.35 0 0 0-4.301-3.893z" fill="#fff" fill-opacity=".6" stroke="#61B844" stroke-width=".7"/><g filter="url(#l)"><path d="M170.664 147.651c2.313-.006 4.238-1.673 4.232-3.787-.007-2.113-1.943-3.771-4.256-3.765-2.314.006-4.239 1.673-4.232 3.787.006 2.114 1.942 3.771 4.256 3.765z" fill="#FFC351" stroke="#F8901F" stroke-width=".5"/><path d="M171.244 145.708c.566-.002 1.06-.235 1.17-.598l-.513-.173c-.073.216-.268.374-.658.375l-1.435.003c.242-.199.438-.465.437-.794a.613.613 0 0 0-.03-.198l1.025-.003-.001-.396-1.225.003c-.241-.312-.534-.474-.535-.791-.001-.383.458-.695 1.023-.697.439-.001.818.186.962.45l.541-.156c-.235-.406-.819-.692-1.504-.69-.891.002-1.61.491-1.608 1.094.001.353.233.574.442.792l-.439.001.001.396.723-.001a.533.533 0 0 1 .039.198c.002.535-.759.794-.759.794l.001.397 2.343-.006z" fill="#F8901F"/><rect width="10.864" height="1.41" rx=".705" transform="matrix(1 -.00256 .00315 1 165.235 149.664)" fill="#F8901F"/><rect width="10.864" height="1.41" rx=".705" transform="matrix(1 -.00256 .00315 1 165.244 152.484)" fill="#F8901F"/><rect width="10.864" height="1.41" rx=".705" transform="matrix(1 -.00256 .00315 1 165.255 155.305)" fill="#F8901F"/><rect width="10.864" height="1.41" rx=".705" transform="matrix(1 -.00256 .00315 1 165.264 158.125)" fill="#F8901F"/><rect width="10.864" height="1.41" rx=".705" transform="matrix(1 -.00256 .00315 1 165.24 151.078)" fill="#FFC351"/><rect width="10.864" height="1.41" rx=".705" transform="matrix(1 -.00256 .00315 1 165.25 153.891)" fill="#FFC351"/><rect width="10.864" height="1.41" rx=".705" transform="matrix(1 -.00256 .00315 1 165.26 156.719)" fill="#FFC351"/><rect width="10.864" height="1.41" rx=".705" transform="matrix(1 -.00256 .00315 1 165.267 159.539)" fill="#FFC351"/><path d="M157.252 150.503c2.314-.006 4.239-1.673 4.233-3.787-.007-2.114-1.943-3.771-4.256-3.765-2.314.006-4.239 1.673-4.233 3.787.007 2.113 1.943 3.771 4.256 3.765z" fill="#FFC351" stroke="#F8901F" stroke-width=".5"/><path d="m155.805 147.343.575-.001c0 .22.395.406.864.405.468-.001.862-.19.861-.41-.001-.224-.3-.305-.933-.411-.61-.106-1.369-.239-1.371-.805-.001-.365.42-.676 1.004-.781l-.002-.444.863-.002.001.444c.585.102 1.008.411 1.009.775l-.575.002c0-.22-.395-.407-.864-.405-.468.001-.862.189-.861.409.001.224.3.305.933.411.61.107 1.37.239 1.371.806.001.364-.42.675-1.004.781l.002.444-.863.002-.001-.444c-.585-.103-1.008-.411-1.009-.776z" fill="#F8901F"/><rect width="10.864" height="1.41" rx=".705" transform="matrix(1 -.00256 .00315 1 151.825 152.516)" fill="#F8901F"/><rect width="10.864" height="1.41" rx=".705" transform="matrix(1 -.00256 .00315 1 151.834 155.336)" fill="#F8901F"/><rect width="10.864" height="1.41" rx=".705" transform="matrix(1 -.00256 .00315 1 151.843 158.156)" fill="#F8901F"/><rect width="10.864" height="1.41" rx=".705" transform="matrix(1 -.00256 .00315 1 151.83 153.93)" fill="#FFC351"/><rect width="10.864" height="1.41" rx=".705" transform="matrix(1 -.00256 .00315 1 151.839 156.742)" fill="#FFC351"/><rect width="10.864" height="1.41" rx=".705" transform="matrix(1 -.00256 .00315 1 151.849 159.57)" fill="#FFC351"/><path d="M143.842 153.37c2.314-.006 4.239-1.673 4.232-3.787-.006-2.114-1.942-3.771-4.256-3.765-2.313.006-4.238 1.673-4.232 3.787.007 2.114 1.943 3.771 4.256 3.765z" fill="#FFC351" stroke="#F8901F" stroke-width=".5"/><path d="M144.601 151.121c-.547.001-1.025-.332-1.262-.82l1.259-.003.217-.471-1.622.004a1.656 1.656 0 0 1-.001-.47l1.403-.003.217-.471-1.478.004c.235-.49.71-.825 1.257-.826.352-.001.676.137.926.366l.386-.417a1.888 1.888 0 0 0-1.314-.537c-.857.002-1.581.592-1.854 1.415l-.765.002-.217.471.888-.002c-.013.077-.013.155-.013.235 0 .08.001.157.014.235l-.669.001-.217.471.984-.002c.278.822 1.005 1.408 1.862 1.405a1.88 1.88 0 0 0 1.311-.544l-.391-.415a1.344 1.344 0 0 1-.921.372z" fill="#F8901F"/><rect width="10.864" height="1.41" rx=".705" transform="matrix(1 -.00256 .00315 1 138.416 155.383)" fill="#F8901F"/><rect width="10.864" height="1.41" rx=".705" transform="matrix(1 -.00256 .00315 1 138.425 158.203)" fill="#F8901F"/><rect width="10.864" height="1.41" rx=".705" transform="matrix(1 -.00256 .00315 1 138.421 156.797)" fill="#FFC351"/><rect width="10.864" height="1.41" rx=".705" transform="matrix(1 -.00256 .00315 1 138.43 159.609)" fill="#FFC351"/><path d="m167.194 132.682 1.918 1.865 2.306 1.841a.3.3 0 0 0 .472-.141l1.657-5.015a.3.3 0 0 0-.351-.387l-5.86 1.329a.3.3 0 0 0-.142.508z" fill="#96CF98"/><path d="m137.495 142.104 5.574-4.25a.301.301 0 0 1 .362-.001l5.418 4.084a.302.302 0 0 0 .363 0l9.51-7.232a.299.299 0 0 1 .351-.009l4.77 3.273a.298.298 0 0 0 .341-.001l4.928-3.421m0 0-1.918-1.865a.3.3 0 0 1 .142-.508l5.86-1.329a.3.3 0 0 1 .351.387l-1.657 5.015a.3.3 0 0 1-.472.141l-2.306-1.841z" stroke="#96CF98" stroke-linecap="round"/></g></g><path d="M113.818 117.322c.438-1.365 2.205-4.125 5.778-4.252" stroke="#9ACFC2" stroke-width=".8" stroke-linecap="round"/></g><path d="M185 147c.909 0 1.781.348 2.424.967a3.237 3.237 0 0 1 1.005 2.333c0 .875-.362 1.715-1.005 2.333a3.497 3.497 0 0 1-2.424.967 3.497 3.497 0 0 1-2.424-.967 3.237 3.237 0 0 1-1.005-2.333c0-.875.362-1.715 1.005-2.333A3.497 3.497 0 0 1 185 147zm-2.571 8.25h5.142c.91 0 1.782.348 2.425.967A3.236 3.236 0 0 1 191 158.55v9.075h-2.571V180h-6.858v-12.375H179v-9.075c0-.875.361-1.715 1.004-2.333a3.498 3.498 0 0 1 2.425-.967zM216 147c.909 0 1.781.348 2.424.967a3.237 3.237 0 0 1 1.005 2.333c0 .875-.362 1.715-1.005 2.333a3.497 3.497 0 0 1-2.424.967 3.497 3.497 0 0 1-2.424-.967 3.237 3.237 0 0 1-1.005-2.333c0-.875.362-1.715 1.005-2.333A3.497 3.497 0 0 1 216 147zm-2.571 8.25h5.142c.91 0 1.782.348 2.425.967A3.236 3.236 0 0 1 222 158.55v9.075h-2.571V180h-6.858v-12.375H210v-9.075c0-.875.361-1.715 1.004-2.333a3.498 3.498 0 0 1 2.425-.967z" fill="#019444"/><path d="M200.5 142c.985 0 1.93.4 2.626 1.113a3.843 3.843 0 0 1 1.088 2.687 3.843 3.843 0 0 1-1.088 2.687 3.67 3.67 0 0 1-2.626 1.113c-.985 0-1.93-.4-2.626-1.113a3.843 3.843 0 0 1-1.088-2.687c0-1.008.391-1.974 1.088-2.687A3.67 3.67 0 0 1 200.5 142zm-2.786 9.5h5.572c.985 0 1.93.4 2.626 1.113A3.843 3.843 0 0 1 207 155.3v10.45h-2.786V180h-7.428v-14.25H194V155.3c0-1.008.391-1.974 1.088-2.687a3.67 3.67 0 0 1 2.626-1.113z" fill="#FF686C"/><path d="M231 147c.909 0 1.781.348 2.424.967a3.237 3.237 0 0 1 1.005 2.333c0 .875-.362 1.715-1.005 2.333a3.497 3.497 0 0 1-2.424.967 3.497 3.497 0 0 1-2.424-.967 3.237 3.237 0 0 1-1.005-2.333c0-.875.362-1.715 1.005-2.333A3.497 3.497 0 0 1 231 147zm-2.571 8.25h5.142c.91 0 1.782.348 2.425.967A3.236 3.236 0 0 1 237 158.55v9.075h-2.571V180h-6.858v-12.375H225v-9.075c0-.875.361-1.715 1.004-2.333a3.498 3.498 0 0 1 2.425-.967z" fill="#019444"/><g filter="url(#m)"><circle cx="304.989" cy="153.901" r="2.901" fill="#019444"/><path d="M304.171 158.101c0-.874-1.001-2.092-1.502-2.456 2.003 0 5.223-.58 4.062.58-1.313 1.312-1.161 1.434-1.161 1.876 0 .442.103 1.273.854 2.183h-3.004c.25-.546.751-1.309.751-2.183z" fill="#019444"/><circle cx="304.874" cy="160.858" r="1.741" fill="#019444"/><circle cx="2.901" cy="2.901" r="2.901" transform="matrix(0 -1 -1 0 322.979 171.906)" fill="#019444"/><path d="M315.88 169.834c.874 0 2.092 1.001 2.456 1.502 0-2.003.581-5.223-.579-4.062-1.313 1.313-1.434 1.161-1.877 1.161-.442 0-1.273-.103-2.183-.855v3.005c.546-.25 1.31-.751 2.183-.751z" fill="#019444"/><circle cx="1.741" cy="1.741" r="1.741" transform="matrix(0 -1 -1 0 314.854 170.859)" fill="#019444"/><circle cx="294.585" cy="158.594" r="2.901" transform="rotate(-45 294.585 158.594)" fill="#019444"/><path d="M296.973 162.136c-.618-.617-2.187-.771-2.799-.674 1.416-1.416 3.282-4.103 3.282-2.462 0 1.856.193 1.834.506 2.147.313.313.973.827 2.148.94l-2.125 2.124c-.209-.563-.395-1.457-1.012-2.075z" fill="#019444"/><circle cx="299.426" cy="163.602" r="1.741" transform="rotate(-45 299.426 163.602)" fill="#019444"/><circle cx="315.165" cy="158.595" r="2.901" transform="rotate(45 315.165 158.595)" fill="#019444"/><path d="M311.618 160.979c.618-.617.771-2.187.675-2.798 1.416 1.416 4.103 3.282 2.462 3.282-1.856-.001-1.834.193-2.147.506-.313.313-.827.973-.94 2.148l-2.124-2.125c.563-.209 1.457-.395 2.074-1.013z" fill="#019444"/><circle cx="310.16" cy="163.431" r="1.741" transform="rotate(45 310.16 163.431)" fill="#019444"/><circle cx="2.901" cy="2.901" r="2.901" transform="matrix(1 0 0 -1 302.087 187.008)" fill="#019444"/><path d="M304.17 179.907c0 .874-1.001 2.092-1.502 2.456 2.003 0 5.223.58 4.062-.58-1.313-1.313-1.161-1.434-1.161-1.876 0-.443.103-1.273.855-2.183h-3.005c.25.546.751 1.309.751 2.183z" fill="#019444"/><circle cx="1.741" cy="1.741" r="1.741" transform="matrix(1 0 0 -1 303.132 178.891)" fill="#019444"/><circle cx="2.901" cy="2.901" r="2.901" transform="matrix(0 1 1 0 287 166.109)" fill="#8C3FEF"/><path d="M294.098 168.182c-.874 0-2.092-1.002-2.456-1.502 0 2.003-.58 5.222.58 4.062 1.312-1.313 1.434-1.161 1.876-1.161.442 0 1.273.103 2.183.854v-3.004c-.546.25-1.309.751-2.183.751z" fill="#8C3FEF"/><circle cx="1.741" cy="1.741" r="1.741" transform="matrix(0 1 1 0 295.124 167.156)" fill="#8C3FEF"/><circle cx="320.076" cy="169.011" r="2.901" transform="rotate(90 320.076 169.011)" fill="#019444"/><path d="M315.879 168.182c.874 0 2.092-1.002 2.456-1.502 0 2.003.581 5.222-.579 4.062-1.313-1.313-1.434-1.161-1.877-1.161-.442 0-1.273.103-2.183.854v-3.004c.546.25 1.31.751 2.183.751z" fill="#019444"/><circle cx="313.113" cy="168.897" r="1.741" transform="rotate(90 313.113 168.897)" fill="#019444"/><circle cx="2.901" cy="2.901" r="2.901" transform="scale(1 -1) rotate(-45 -71.312 -440.34)" fill="#019444"/><path d="M296.973 175.856c-.618.618-2.187.771-2.799.674 1.416 1.417 3.282 4.103 3.282 2.463 0-1.857.193-1.835.506-2.148.313-.313.973-.827 2.148-.94l-2.125-2.124c-.209.563-.395 1.457-1.012 2.075z" fill="#019444"/><circle cx="1.741" cy="1.741" r="1.741" transform="scale(1 -1) rotate(-45 -62.027 -445.663)" fill="#019444"/><circle cx="2.901" cy="2.901" r="2.901" transform="scale(1 -1) rotate(45 379.096 288.683)" fill="#019444"/><path d="M311.618 177.021c.617.617.77 2.187.674 2.798 1.416-1.416 4.103-3.282 2.462-3.282-1.856.001-1.834-.193-2.147-.506-.313-.313-.827-.973-.94-2.148l-2.124 2.125c.563.209 1.457.395 2.075 1.013z" fill="#019444"/><circle cx="1.741" cy="1.741" r="1.741" transform="scale(1 -1) rotate(45 368.775 285.88)" fill="#019444"/></g><g filter="url(#n)"><path fill="#8C3FEF" d="M37 153h12v14H37z"/><path d="M40.862 150.033c-8.174 1.671-13.736 8.547-12.36 15.281.657 3.214 2.768 5.971 5.881 7.567.188.919.094 3.489-2.754 7.738 0 0 5.202-1.063 8.879-5.8 1.728.125 3.574.066 5.358-.298 8.174-1.67 13.736-8.547 12.36-15.281-1.376-6.734-9.19-10.877-17.364-9.207zm5.24 18.062-2.973.608-.626-3.061 2.973-.608.625 3.061zm1.11-8.199c-.32.704-.852 1.131-1.384 1.559-.383.397-.5.58-.587.917-.234.367-.172.673-.078 1.132l-2.972.607c-.157-.765-.102-1.254.101-1.774.235-.367.736-.948 1.385-1.559.415-.244.65-.611.736-.947.086-.337.14-.826.078-1.132-.094-.459-.305-.735-.665-.98-.36-.246-.837-.308-1.283-.217-.446.092-.712.305-.977.519-.267.214-.353.55-.259 1.009l-2.972.608c-.07-1.102.188-2.111.806-2.875.618-.764 1.627-1.13 2.965-1.403 1.337-.274 2.589-.21 3.457.25.868.46 1.502 1.287 1.72 2.359.274.582.25 1.224-.07 1.927z" fill="#8C3FEF"/><g filter="url(#o)" fill="#FF686C"><path d="M54.85 162.305h-8.374v13.836h8.374z"/><path d="M54.85 162.305h-8.374v13.836h8.374z"/><path d="M52.553 160C45.099 160 39 164.128 39 169.224s6.099 9.224 13.553 9.224c1.68 0 3.293-.207 4.784-.576 3.957 2.882 8.769 2.882 8.769 2.882-3.158-2.686-3.66-4.497-3.727-5.188 2.303-1.649 3.727-3.886 3.727-6.342 0-5.096-6.1-9.224-13.553-9.224zm1.355 12.683v2.306h-2.71v-2.306h2.71zm0-2.306h-2.71v-6.918h2.71v6.918z"/></g></g><g filter="url(#p)"><path d="m320.102 81.845-2.781-1.587a12.272 12.272 0 0 0 0-4.529l2.781-1.587a.775.775 0 0 0 .359-.903 16.024 16.024 0 0 0-3.571-6.104.792.792 0 0 0-.966-.148l-2.782 1.587a12.348 12.348 0 0 0-3.969-2.264v-3.168a.775.775 0 0 0-.614-.755 16.6 16.6 0 0 0-7.129 0 .775.775 0 0 0-.614.755v3.174a12.746 12.746 0 0 0-3.969 2.265l-2.775-1.587a.782.782 0 0 0-.966.148 15.93 15.93 0 0 0-3.572 6.103.769.769 0 0 0 .359.903l2.782 1.588a12.271 12.271 0 0 0 0 4.528l-2.782 1.588a.777.777 0 0 0-.359.903 16.025 16.025 0 0 0 3.572 6.103c.248.264.652.33.966.148l2.781-1.587a12.361 12.361 0 0 0 3.97 2.265v3.174c0 .361.254.677.613.755 2.396.529 4.851.503 7.13 0a.774.774 0 0 0 .613-.755v-3.174a12.74 12.74 0 0 0 3.97-2.265l2.781 1.587c.32.181.718.123.966-.148a15.93 15.93 0 0 0 3.572-6.103.793.793 0 0 0-.366-.91zm-15.107 1.31c-2.88 0-5.224-2.316-5.224-5.162 0-2.845 2.344-5.16 5.224-5.16 2.879 0 5.223 2.315 5.223 5.16 0 2.846-2.344 5.162-5.223 5.162z" fill="#019444"/><path d="M300.659 95.22c-.003-.047-.007-.095-.007-.142l.059-19.587c.001-.391.233-.742.579-.926 3.259-1.733 5.462-5.177 5.474-9.184.012-3.952-2.253-7.342-5.481-9.028-.611-.32-1.295.158-1.297.848l-.022 7.2a1 1 0 0 1-.984.996l-4.703.077a1 1 0 0 1-1.016-.992l-.062-7.298c-.006-.685-.684-1.158-1.292-.842-3.321 1.726-5.54 5.29-5.552 9.261-.012 3.995 2.157 7.36 5.39 8.992.36.181.603.541.602.945l-.059 19.634c-.003.892.664 1.55 1.556 1.536l5.13-.084c.973.093 1.739-.65 1.685-1.406z" fill="#FF686C"/></g></g></g><defs><filter id="m" x="283" y="151" width="43.978" height="44.008" filterUnits="userSpaceOnUse" color-interpolation-filters="sRGB"><feFlood flood-opacity="0" result="BackgroundImageFix"/><feColorMatrix in="SourceAlpha" values="0 0 0 0 0 0 0 0 0 0 0 0 0 0 0 0 0 0 127 0" result="hardAlpha"/><feOffset dy="4"/><feGaussianBlur stdDeviation="2"/><feComposite in2="hardAlpha" operator="out"/><feColorMatrix values="0 0 0 0 0 0 0 0 0 0 0 0 0 0 0 0 0 0 0.25 0"/><feBlend in2="BackgroundImageFix" result="effect1_dropShadow_866_15857"/><feBlend in="SourceGraphic" in2="effect1_dropShadow_866_15857" result="shape"/></filter><filter id="a" x="0" y="0" width="352" height="282" filterUnits="userSpaceOnUse" color-interpolation-filters="sRGB"><feFlood flood-opacity="0" result="BackgroundImageFix"/><feColorMatrix in="SourceAlpha" values="0 0 0 0 0 0 0 0 0 0 0 0 0 0 0 0 0 0 127 0" result="hardAlpha"/><feOffset dx="2" dy="2"/><feGaussianBlur stdDeviation="4"/><feComposite in2="hardAlpha" operator="out"/><feColorMatrix values="0 0 0 0 0 0 0 0 0 0 0 0 0 0 0 0 0 0 0.25 0"/><feBlend in2="BackgroundImageFix" result="effect1_dropShadow_866_15857"/><feBlend in="SourceGraphic" in2="effect1_dropShadow_866_15857" result="shape"/></filter><filter id="e" x="268" y="199" width="63" height="63" filterUnits="userSpaceOnUse" color-interpolation-filters="sRGB"><feFlood flood-opacity="0" result="BackgroundImageFix"/><feColorMatrix in="SourceAlpha" values="0 0 0 0 0 0 0 0 0 0 0 0 0 0 0 0 0 0 127 0" result="hardAlpha"/><feOffset dy="4"/><feGaussianBlur stdDeviation="2"/><feComposite in2="hardAlpha" operator="out"/><feColorMatrix values="0 0 0 0 0 0 0 0 0 0 0 0 0 0 0 0 0 0 0.25 0"/><feBlend in2="BackgroundImageFix" result="effect1_dropShadow_866_15857"/><feBlend in="SourceGraphic" in2="effect1_dropShadow_866_15857" result="shape"/></filter><filter id="g" x="279" y="197" width="40" height="59" filterUnits="userSpaceOnUse" color-interpolation-filters="sRGB"><feFlood flood-opacity="0" result="BackgroundImageFix"/><feColorMatrix in="SourceAlpha" values="0 0 0 0 0 0 0 0 0 0 0 0 0 0 0 0 0 0 127 0" result="hardAlpha"/><feOffset/><feGaussianBlur stdDeviation="3"/><feComposite in2="hardAlpha" operator="out"/><feColorMatrix values="0 0 0 0 1 0 0 0 0 0.952941 0 0 0 0 0.533333 0 0 0 1 0"/><feBlend in2="BackgroundImageFix" result="effect1_dropShadow_866_15857"/><feBlend in="SourceGraphic" in2="effect1_dropShadow_866_15857" result="shape"/></filter><filter id="i" x="76.897" y="40" width="174.103" height="106.922" filterUnits="userSpaceOnUse" color-interpolation-filters="sRGB"><feFlood flood-opacity="0" result="BackgroundImageFix"/><feColorMatrix in="SourceAlpha" values="0 0 0 0 0 0 0 0 0 0 0 0 0 0 0 0 0 0 127 0" result="hardAlpha"/><feOffset dy="4"/><feGaussianBlur stdDeviation="2"/><feComposite in2="hardAlpha" operator="out"/><feColorMatrix values="0 0 0 0 0 0 0 0 0 0 0 0 0 0 0 0 0 0 0.25 0"/><feBlend in2="BackgroundImageFix" result="effect1_dropShadow_866_15857"/><feBlend in="SourceGraphic" in2="effect1_dropShadow_866_15857" result="shape"/></filter><filter id="j" x="103.993" y="108.531" width="140.007" height="88.469" filterUnits="userSpaceOnUse" color-interpolation-filters="sRGB"><feFlood flood-opacity="0" result="BackgroundImageFix"/><feColorMatrix in="SourceAlpha" values="0 0 0 0 0 0 0 0 0 0 0 0 0 0 0 0 0 0 127 0" result="hardAlpha"/><feOffset dy="4"/><feGaussianBlur stdDeviation="2"/><feComposite in2="hardAlpha" operator="out"/><feColorMatrix values="0 0 0 0 0 0 0 0 0 0 0 0 0 0 0 0 0 0 0.25 0"/><feBlend in2="BackgroundImageFix" result="effect1_dropShadow_866_15857"/><feBlend in="SourceGraphic" in2="effect1_dropShadow_866_15857" result="shape"/></filter><filter id="k" x="114.549" y="113.523" width="84.445" height="65.953" filterUnits="userSpaceOnUse" color-interpolation-filters="sRGB"><feFlood flood-opacity="0" result="BackgroundImageFix"/><feBlend in="SourceGraphic" in2="BackgroundImageFix" result="shape"/><feColorMatrix in="SourceAlpha" values="0 0 0 0 0 0 0 0 0 0 0 0 0 0 0 0 0 0 127 0" result="hardAlpha"/><feOffset dy="4"/><feGaussianBlur stdDeviation="2"/><feComposite in2="hardAlpha" operator="arithmetic" k2="-1" k3="1"/><feColorMatrix values="0 0 0 0 0 0 0 0 0 0 0 0 0 0 0 0 0 0 0.25 0"/><feBlend in2="shape" result="effect1_innerShadow_866_15857"/></filter><filter id="l" x="132.995" y="130.336" width="47.138" height="38.68" filterUnits="userSpaceOnUse" color-interpolation-filters="sRGB"><feFlood flood-opacity="0" result="BackgroundImageFix"/><feColorMatrix in="SourceAlpha" values="0 0 0 0 0 0 0 0 0 0 0 0 0 0 0 0 0 0 127 0" result="hardAlpha"/><feOffset dy="4"/><feGaussianBlur stdDeviation="2"/><feComposite in2="hardAlpha" operator="out"/><feColorMatrix values="0 0 0 0 0 0 0 0 0 0 0 0 0 0 0 0 0 0 0.25 0"/><feBlend in2="BackgroundImageFix" result="effect1_dropShadow_866_15857"/><feBlend in="SourceGraphic" in2="effect1_dropShadow_866_15857" result="shape"/></filter><filter id="c" x="22" y="58" width="43" height="43" filterUnits="userSpaceOnUse" color-interpolation-filters="sRGB"><feFlood flood-opacity="0" result="BackgroundImageFix"/><feColorMatrix in="SourceAlpha" values="0 0 0 0 0 0 0 0 0 0 0 0 0 0 0 0 0 0 127 0" result="hardAlpha"/><feOffset dy="4"/><feGaussianBlur stdDeviation="2"/><feComposite in2="hardAlpha" operator="out"/><feColorMatrix values="0 0 0 0 0 0 0 0 0 0 0 0 0 0 0 0 0 0 0.25 0"/><feBlend in2="BackgroundImageFix" result="effect1_dropShadow_866_15857"/><feBlend in="SourceGraphic" in2="effect1_dropShadow_866_15857" result="shape"/></filter><filter id="n" x="24.293" y="149.664" width="45.813" height="39.094" filterUnits="userSpaceOnUse" color-interpolation-filters="sRGB"><feFlood flood-opacity="0" result="BackgroundImageFix"/><feColorMatrix in="SourceAlpha" values="0 0 0 0 0 0 0 0 0 0 0 0 0 0 0 0 0 0 127 0" result="hardAlpha"/><feOffset dy="4"/><feGaussianBlur stdDeviation="2"/><feComposite in2="hardAlpha" operator="out"/><feColorMatrix values="0 0 0 0 0 0 0 0 0 0 0 0 0 0 0 0 0 0 0.25 0"/><feBlend in2="BackgroundImageFix" result="effect1_dropShadow_866_15857"/><feBlend in="SourceGraphic" in2="effect1_dropShadow_866_15857" result="shape"/></filter><filter id="o" x="35" y="160" width="35.105" height="28.758" filterUnits="userSpaceOnUse" color-interpolation-filters="sRGB"><feFlood flood-opacity="0" result="BackgroundImageFix"/><feColorMatrix in="SourceAlpha" values="0 0 0 0 0 0 0 0 0 0 0 0 0 0 0 0 0 0 127 0" result="hardAlpha"/><feOffset dy="4"/><feGaussianBlur stdDeviation="2"/><feComposite in2="hardAlpha" operator="out"/><feColorMatrix values="0 0 0 0 0 0 0 0 0 0 0 0 0 0 0 0 0 0 0.1 0"/><feBlend in2="BackgroundImageFix" result="effect1_dropShadow_866_15857"/><feBlend in="SourceGraphic" in2="effect1_dropShadow_866_15857" result="shape"/></filter><filter id="p" x="282.354" y="56.242" width="42.144" height="48.469" filterUnits="userSpaceOnUse" color-interpolation-filters="sRGB"><feFlood flood-opacity="0" result="BackgroundImageFix"/><feColorMatrix in="SourceAlpha" values="0 0 0 0 0 0 0 0 0 0 0 0 0 0 0 0 0 0 127 0" result="hardAlpha"/><feOffset dy="4"/><feGaussianBlur stdDeviation="2"/><feComposite in2="hardAlpha" operator="out"/><feColorMatrix values="0 0 0 0 0 0 0 0 0 0 0 0 0 0 0 0 0 0 0.25 0"/><feBlend in2="BackgroundImageFix" result="effect1_dropShadow_866_15857"/><feBlend in="SourceGraphic" in2="effect1_dropShadow_866_15857" result="shape"/></filter><linearGradient id="d" x1="26" y1="58" x2="61" y2="93" gradientUnits="userSpaceOnUse"><stop stop-color="#FFDC8A"/><stop offset=".515" stop-color="#FFCD5A"/><stop offset="1" stop-color="#FF9E00"/></linearGradient><linearGradient id="f" x1="272" y1="199" x2="327" y2="254" gradientUnits="userSpaceOnUse"><stop stop-color="#A4C6FF"/><stop offset=".515" stop-color="#83B1FF"/><stop offset="1" stop-color="#6E94D3"/></linearGradient><radialGradient id="h" cx="0" cy="0" r="1" gradientUnits="userSpaceOnUse" gradientTransform="matrix(0 2 -2.57143 0 298.5 248)"><stop stop-color="#242427"/><stop offset="1" stop-color="#525259"/></radialGradient><clipPath id="b"><rect x="6" y="6" width="336" height="266" rx="30" fill="#fff"/></clipPath></defs></svg>