<svg width="336" height="266" fill="none" xmlns="http://www.w3.org/2000/svg"><g clip-path="url(#a)"><rect width="336" height="266" rx="30" fill="#fff"/><rect width="336" height="266" rx="30" fill="#9DAFFC"/><path d="M148 0v69" stroke="#8AA0FF" stroke-width="5" stroke-linecap="round" stroke-linejoin="round" stroke-dasharray="15 15"/><path d="M298.706 219c-.221 4.737-3.051 13.953-12.601 12.92" stroke="#8AA0FF" stroke-width="5" stroke-linejoin="round" stroke-dasharray="15 15"/><path d="M37 78.453v73.649M298.705 78.453l.303 76.547M47.663 69h239.413M48.63 163h249.106" stroke="#8AA0FF" stroke-width="5" stroke-linecap="round" stroke-linejoin="round" stroke-dasharray="15 15"/><path d="M37 78.387c.221-3.421 3.05-10.075 12.6-9.33M298.706 78.387c-.221-3.421-3.051-10.075-12.601-9.33M37 150c.221 4.737 3.05 13.953 12.6 12.92" stroke="#8AA0FF" stroke-width="5" stroke-linejoin="round" stroke-dasharray="15 15"/><path d="M298.706 150v70M148 230v36M159 221h140" stroke="#8AA0FF" stroke-width="5" stroke-linecap="round" stroke-linejoin="round" stroke-dasharray="15 15"/><path d="M148 230.387c.221-3.421 3.051-10.075 12.601-9.329" stroke="#8AA0FF" stroke-width="5" stroke-linejoin="round" stroke-dasharray="15 15"/><path d="M80 128.922c5.808 5.686 16.212 19.229 11.364 27.913-4.849 8.685 4.292 16.025 9.469 18.609 5.051-.387 15.303-3.876 15.909-14.732.758-13.569-37.878-3.101-15.909 29.077 17.576 25.743 51.515 1.163 66.288-14.345 3.662-7.495 5.909-21.71-14.394-18.609-25.379 3.877-7.576 47.298 14.394 32.954 21.97-14.345 50-1.939 51.515-29.077 1.212-21.71-15.909-17.833-24.621-13.181-5.303 8.529-6.591 26.518 30.682 30.24 46.59 4.652 41.287-95.76-19.697-90.332-48.788 4.342-51.642 18.867-46.97 25.587 2.778 5.169 12.197 12.406 27.652 0 15.454-12.406-11.995-32.049-27.652-40.32-11.237-5.815-38.409-13.957-57.197 0-18.788 13.957 2.778 38.381 15.909 48.848" stroke="#235811" stroke-width="2" stroke-linecap="round" stroke-linejoin="round" stroke-dasharray="4 4"/><path d="m139.009 136.387-6.643 4.295 6.365 3.28.278-7.575z" fill="#FF8E92"/><path d="m152.506 121.074-6.227 3.966 6.22 3.388.007-7.354z" fill="#FA777B"/><path d="m89.444 131.933 34.952 20.621.049 8.082-35.016-20.68.015-8.023z" fill="#FEC5C7"/><path d="m138.743 143.992-14.314 8.611-.006 8.007 14.3-9.136.02-7.482z" fill="#FF8E92"/><path d="m138.864 136.71 7.493 4.076-.073 7.95-7.555-4.792.135-7.234z" fill="#FEC5C7"/><path d="m160.616 132.094-14.373 8.865.041 7.773 14.352-9.096-.02-7.542z" fill="#FF8E92"/><path d="m138.341 120.64 6.663-3.684 7.523 4.139-6.17 3.886-8.016-4.341z" fill="#FF4E53"/><path d="m89.444 131.859 13.533-7.489 35.783 19.595-14.283 8.614-35.033-20.72zM109.141 120.727l14.105-8.306 37.367 19.721-14.328 8.819-37.144-20.234z" fill="#FF686C"/><path d="m102.809 124.484 6.594-3.914 29.879 16.236-6.488 4.119-29.985-16.441z" fill="#FF686C"/><path d="m151.81 107.053 6.235 4.484v7.161l-6.202-3.999-.033-7.646z" fill="#03A74E"/><path d="m201.034 102.907-35.006 20.511.025 7.882 34.982-20.497-.001-7.896z" fill="#037939"/><path d="m151.766 114.923 14.286 8.407v7.973l-14.364-8.511.078-7.869zM179.213 115.688l6.772 4.325v7.9l-6.772-4.288v-7.937z" fill="#03A74E"/><path d="m201.032 102.906-14.29-8.272-34.984 20.312 14.305 8.477 34.969-20.517zM180.278 90.977l-14.887-8.626-35.672 20.629 14.445 8.68 36.114-20.683z" fill="#019444"/><path d="m186.737 94.631-6.583-3.722-28.588 16.137 6.207 4.513 28.964-16.928z" fill="#019444"/><path d="M193.7 123.136V115.7l-7.715 4.402v7.815l7.715-4.781zM151.872 114.639l.016-7.408-7.716 4.4-.017 7.786 7.717-4.778z" fill="#037939"/><path d="m129.72 102.98 14.455 8.658v7.777l-14.387-8.612-.068-7.823z" fill="#03A74E"/><path d="m193.707 115.707-7.346-4.337-7.147 4.326 6.776 4.41 7.717-4.399z" fill="#019444"/><path d="m195.963 117.555-.092 7.721 7.274-3.699-7.182-4.022zM174.296 130.519l34.934 20.586-.005 7.971-34.935-20.646.006-7.911z" fill="#FFF881"/><path d="m245.4 129.548-36.069 21.468-.056 8.027 36.125-21.589v-7.906z" fill="#DEE949"/><path d="m174.242 130.578 13.218-7.746 36.118 19.592-14.421 8.713-34.915-20.559zM195.873 117.562l13.291-7.622 36.236 19.607-14.539 8.698-34.988-20.683z" fill="#F3FC77"/><path d="m193.762 126.281 8.695-5.101 28.964 16.739-8.014 4.631-29.645-16.269z" fill="#F3FC77"/><path d="m180.329 143.08 6.865 3.95.016 7.9-6.884-3.95.003-7.9z" fill="#FFF881"/><path d="m194.971 142.519-6.934-4.169-7.712 4.735 6.876 3.989 7.77-4.555z" fill="#F3FC77"/><path d="M194.845 150.145v-7.46l-7.652 4.343-.002 7.9 7.654-4.783z" fill="#DEE949"/><path d="M178.09 152.748v-7.298l-6.391 3.725 6.391 3.573z" fill="#3875D1"/><path d="m129.069 158.958 35.152 20.245-.043 8.24-35.109-20.574v-7.911z" fill="#9AC0FF"/><path d="m199.726 157.648-35.545 21.818-.005 7.965 35.528-21.695.022-8.088z" fill="#3875D1"/><path d="m139.73 145.598 6.96 3.968-.324 8.275-6.635-5.079-.001-7.164z" fill="#9AC0FF"/><path d="m153.646 144.849-6.448-3.656-7.471 4.396 6.775 3.97 7.144-4.71z" fill="#73ABFF"/><path d="m154.147 152.604.002-7.526-7.78 4.565-.003 8.226 7.781-5.265z" fill="#D9D9D9"/><path d="m129.07 159.078 30.405-17.606 33.981 20.042-29.244 17.939-35.142-20.375z" fill="#73ABFF"/><path d="m171.273 157.836 14.918-7.89 13.533 7.702-6.394 3.961-4.703 2.81-2.445 1.571-14.909-8.154zM150.836 146.418l14.468-8.261 12.79 7.335-14.67 8.651-12.588-7.725z" fill="#73ABFF"/><circle cx="168" cy="132.492" r="40" fill="url(#b)" fill-opacity=".5"/><path fill="#DBDBDB" d="M158.827 162.961v-2.202h8.807v2.202zM158.827 166.625v-2.202h8.807v2.202z"/><path fill="#DBDBDB" d="M160.295 164.43v-1.468h7.339v1.468z"/><path fill="#AEAEB1" d="M176.442 162.961v-2.202h-8.807v2.202zM174.974 164.43v-1.468h-7.339v1.468z"/><path fill="#AEAEB1" d="M176.442 166.625v-2.202h-8.807v2.202z"/><path d="M171.304 170.297a3.67 3.67 0 0 0 3.67-3.67h-14.679a3.67 3.67 0 0 0 3.669 3.67h7.34z" fill="#242427"/><path fill="#F5FA31" d="M167.634 160.75v-13.211h8.807v13.211z"/><path fill="#F0F976" d="M158.826 160.75v-13.211h8.807v13.211z"/><path d="M167.634 113.711a18.358 18.358 0 0 1 12.974 5.374 18.35 18.35 0 0 1 0 25.949 18.343 18.343 0 0 1-12.974 5.374v-36.697z" fill="#F5FA31"/><path d="M167.634 113.711a18.35 18.35 0 0 0-12.975 31.323 18.348 18.348 0 0 0 12.975 5.374v-36.697z" fill="#F3FC77"/><rect width="1.468" height="11.009" rx=".734" transform="scale(1 -1) rotate(-70 9.479 -194.406)" fill="#F7FF86"/><rect width="1.468" height="11.009" rx=".734" transform="scale(1 -1) rotate(40 229.362 156.35)" fill="#F7FF86"/><rect width="1.468" height="11.009" rx=".734" transform="scale(1 -1) rotate(-40 -60.838 -303.49)" fill="#F7FF86"/><rect width="1.468" height="11.009" rx=".734" transform="scale(1 -1) rotate(70 158.647 44.73)" fill="#F7FF86"/><rect width="1.468" height="11.009" rx=".734" transform="matrix(0 -1 -1 0 144.882 132.867)" fill="#F7FF86"/><rect width="1.468" height="11.009" rx=".734" transform="matrix(0 -1 -1 0 202.13 132.867)" fill="#F7FF86"/><rect width="1.468" height="11.009" rx=".734" transform="matrix(1 0 0 -1 166.9 105.703)" fill="#F7FF86"/><g filter="url(#c)"><path d="M161.762 139.29c-.35 0-.686-.135-.933-.376a1.266 1.266 0 0 1-.387-.908c0-.341.139-.668.387-.909a1.343 1.343 0 0 1 1.867 0c.248.241.387.568.387.909 0 .34-.139.667-.387.908a1.339 1.339 0 0 1-.934.376zm2.803-.928c.016-.118.027-.235.027-.356s-.011-.243-.027-.367l.796-.598a.182.182 0 0 0 .046-.235l-.755-1.27c-.045-.081-.147-.114-.23-.081l-.939.367a2.722 2.722 0 0 0-.638-.359l-.139-.973a.19.19 0 0 0-.189-.154h-1.509a.19.19 0 0 0-.189.154l-.139.973a2.722 2.722 0 0 0-.638.359l-.939-.367a.19.19 0 0 0-.231.081l-.754 1.27a.179.179 0 0 0 .045.235l.796.598a3.062 3.062 0 0 0-.026.367c0 .121.011.238.026.356l-.796.609a.178.178 0 0 0-.045.235l.754 1.269c.046.081.148.11.231.081l.939-.371c.196.147.4.272.638.364l.139.972a.19.19 0 0 0 .189.154h1.509a.19.19 0 0 0 .189-.154l.139-.972c.238-.096.442-.217.638-.364l.939.371c.083.029.185 0 .23-.081l.755-1.269a.182.182 0 0 0-.046-.235l-.796-.609z" fill="url(#d)"/></g><g filter="url(#e)"><path d="M167.635 130.796a3.214 3.214 0 0 1-2.241-.903 3.038 3.038 0 0 1-.929-2.179c0-.818.334-1.602.929-2.18a3.214 3.214 0 0 1 2.241-.903c.84 0 1.646.325 2.24.903.595.578.929 1.362.929 2.18 0 .817-.334 1.601-.929 2.179-.594.578-1.4.903-2.24.903zm6.727-2.228c.036-.282.063-.564.063-.854 0-.291-.027-.582-.063-.881l1.91-1.436a.435.435 0 0 0 .109-.563l-1.811-3.048a.45.45 0 0 0-.552-.194l-2.255.881c-.47-.343-.959-.643-1.53-.863l-.335-2.334a.454.454 0 0 0-.453-.37h-3.621a.454.454 0 0 0-.453.37l-.335 2.334c-.571.22-1.059.52-1.53.863l-2.255-.881a.45.45 0 0 0-.552.194l-1.811 3.048a.425.425 0 0 0 .109.563l1.91 1.436c-.036.299-.063.59-.063.881 0 .29.027.572.063.854l-1.91 1.462a.427.427 0 0 0-.109.564l1.811 3.047c.109.194.353.264.552.194l2.255-.89c.471.352.959.652 1.53.872l.335 2.334c.036.211.226.37.453.37h3.621a.454.454 0 0 0 .453-.37l.335-2.334a6.618 6.618 0 0 0 1.53-.872l2.255.89c.199.07.444 0 .552-.194l1.811-3.047a.436.436 0 0 0-.109-.564l-1.91-1.462z" fill="url(#f)"/></g><g filter="url(#g)"><path d="M173.14 135.884a2.011 2.011 0 0 1-1.401-.564 1.9 1.9 0 0 1-.58-1.362c0-.511.209-1.001.58-1.363a2.011 2.011 0 0 1 1.401-.564c.525 0 1.029.203 1.4.564a1.9 1.9 0 0 1 .58 1.363c0 .511-.208 1.001-.58 1.362a2.009 2.009 0 0 1-1.4.564zm4.204-1.392c.023-.176.04-.353.04-.534a4.51 4.51 0 0 0-.04-.551l1.194-.897a.272.272 0 0 0 .068-.352l-1.132-1.905c-.067-.121-.22-.171-.345-.121l-1.409.55a4.171 4.171 0 0 0-.956-.539l-.21-1.459a.283.283 0 0 0-.283-.231h-2.263a.284.284 0 0 0-.283.231l-.21 1.459a4.171 4.171 0 0 0-.956.539l-1.409-.55a.281.281 0 0 0-.345.121l-1.132 1.905a.265.265 0 0 0 .068.352l1.194.897a4.51 4.51 0 0 0-.04.551c0 .181.017.358.04.534l-1.194.913a.267.267 0 0 0-.068.353l1.132 1.904c.068.121.221.165.345.121l1.409-.556c.294.221.6.408.956.545l.21 1.459a.284.284 0 0 0 .283.231h2.263a.283.283 0 0 0 .283-.231l.21-1.459c.356-.143.662-.324.956-.545l1.409.556c.125.044.278 0 .345-.121l1.132-1.904a.273.273 0 0 0-.068-.353l-1.194-.913z" fill="url(#h)"/></g><g filter="url(#i)"><path d="m104.984 185.585 1.844-.472 1.705 13.146-1.844.471-1.705-13.145zm8.474 3.479-4.19-1.042-.805-1.888 7.493 1.864-3.843 6.692-.805-1.887 2.15-3.739zm-15.898 6.782 3.841-6.699.805 1.887-2.147 3.746 4.187 1.036.805 1.887-7.49-1.857z" fill="#fff"/><path d="m104.922 185.343-.215.054.029.22 1.705 13.145.037.28.273-.069 1.844-.472.215-.055-.029-.219-1.705-13.146-.037-.28-.273.07-1.844.472zm4.286 2.921 3.868.962-1.985 3.452-.062.109.049.114.805 1.887.197.462.25-.435 3.843-6.692.165-.288-.321-.08-7.494-1.863-.487-.122.197.462.805 1.888.049.114.121.03zm-11.864 7.457-.165.288.321.079 7.491 1.858.487.12-.197-.461-.805-1.887-.049-.115-.121-.03-3.866-.956 1.983-3.459.062-.108-.049-.114-.805-1.887-.197-.462-.25.435-3.84 6.699z" stroke="#D32F2F" stroke-width=".5"/></g><g filter="url(#j)"><path d="M77.889 123h-6.667L69 120.5l2.222-2.5h6.667v-3.75L79 113l1.111 1.25v1.25h6.667L89 118l-2.222 2.5H80.11v2.5h6.667L89 125.5l-2.222 2.5H80.11v7.5c.59 0 1.155.263 1.572.732.416.469.65 1.105.65 1.768h-6.666c0-.663.234-1.299.65-1.768.417-.469.983-.732 1.572-.732V123z" fill="#fff"/><path d="M86.778 122.75H80.36v-2h6.529l.075-.084 2.222-2.5.148-.166-.148-.166-2.222-2.5-.075-.084h-6.529v-1.095l-.063-.071-1.111-1.25-.187-.21-.187.21-1.111 1.25-.063.071v3.595H71.11l-.075.084-2.222 2.5-.148.166.148.166 2.222 2.5.075.084h6.529v12.014a2.382 2.382 0 0 0-1.508.802 2.92 2.92 0 0 0-.714 1.934v.25h7.166V138a2.92 2.92 0 0 0-.714-1.934 2.382 2.382 0 0 0-1.508-.802v-7.014h6.529l.075-.084 2.222-2.5.148-.166-.148-.166-2.222-2.5-.075-.084h-.112z" stroke="#BD2831" stroke-width=".5"/></g><g filter="url(#k)"><path d="M180.61 88.378a2.909 2.909 0 0 0-1.976.563c-.545.415-.878 1.008-.926 1.649-.048.64.192 1.277.668 1.769a2.907 2.907 0 0 0 1.869.853 2.913 2.913 0 0 0 1.977-.563c.544-.414.877-1.008.925-1.649.049-.64-.192-1.277-.667-1.769a2.912 2.912 0 0 0-1.87-.853zm-.486 6.445c-1.203-.09-2.323-.602-3.116-1.421-.793-.82-1.194-1.88-1.113-2.949.081-1.068.636-2.057 1.543-2.748.907-.692 2.092-1.029 3.294-.938 1.202.09 2.323.602 3.116 1.422.793.82 1.193 1.88 1.112 2.948-.08 1.069-.635 2.057-1.542 2.748-.907.692-2.092 1.03-3.294.938zm.76-10.07c-4.533-.342-8.593 1.871-10.428 5.29 1.301 3.655 4.983 6.452 9.515 6.795 4.533.342 8.593-1.872 10.428-5.29-1.301-3.655-4.983-6.453-9.515-6.795z" fill="#fff"/><path d="m170.236 89.924-.053.098.037.104c1.338 3.757 5.111 6.612 9.733 6.96 4.621.35 8.78-1.906 10.667-5.42l.052-.097-.037-.105c-1.338-3.757-5.111-6.612-9.732-6.96-4.622-.35-8.781 1.906-10.667 5.42zm10.393-1.795a3.16 3.16 0 0 0-2.147.613c-.597.455-.969 1.112-1.023 1.829-.054.717.215 1.422.737 1.962a3.16 3.16 0 0 0 2.03.928 3.16 3.16 0 0 0 2.147-.613c.597-.455.969-1.111 1.023-1.829.055-.717-.215-1.422-.737-1.962a3.16 3.16 0 0 0-2.03-.928zm-.487 6.445c-1.145-.086-2.207-.573-2.955-1.346-.747-.772-1.118-1.764-1.043-2.756.075-.992.591-1.917 1.445-2.568.856-.652 1.979-.974 3.124-.888 1.145.087 2.207.573 2.955 1.346.747.773 1.118 1.764 1.043 2.757-.075.992-.591 1.916-1.445 2.568-.855.652-1.979.974-3.124.887z" stroke="#D32F2F" stroke-width=".5"/></g><g filter="url(#l)"><mask id="m" maskUnits="userSpaceOnUse" x="224" y="88" width="22" height="22" fill="#000"><path fill="#fff" d="M224 88h22v22h-22z"/><path d="M237.19 101.19 229 105l3.81-8.19L241 93m-6-4a10.002 10.002 0 0 0-10 10 10.001 10.001 0 1 0 10-10zm0 8.9a1.1 1.1 0 1 0 0 2.199 1.1 1.1 0 0 0 0-2.199z"/></mask><path d="M237.19 101.19 229 105l3.81-8.19L241 93m-6-4a10.002 10.002 0 0 0-10 10 10.001 10.001 0 1 0 10-10zm0 8.9a1.1 1.1 0 1 0 0 2.199 1.1 1.1 0 0 0 0-2.199z" fill="#fff"/><path d="m229 105-.453-.211-.578 1.242 1.242-.578L229 105zm3.81-8.19-.211-.453-.165.077-.077.165.453.211zM225 99h-.5.5zm10 10v.5-.5zm1.979-8.263-8.19 3.81.422.906 8.19-3.81-.422-.906zm-7.526 4.474 3.81-8.19-.906-.422-3.81 8.19.906.422zm3.568-7.948 8.19-3.81-.422-.906-8.19 3.81.422.906zM235 88.5c-1.379 0-2.744.272-4.018.8l.383.923A9.494 9.494 0 0 1 235 89.5v-1zm-4.018.8a10.5 10.5 0 0 0-3.407 2.275l.707.707a9.51 9.51 0 0 1 3.083-2.059l-.383-.924zm-3.407 2.275A10.5 10.5 0 0 0 224.5 99h1a9.502 9.502 0 0 1 2.782-6.718l-.707-.707zM224.5 99c0 2.785 1.106 5.455 3.075 7.425l.707-.707A9.503 9.503 0 0 1 225.5 99h-1zm3.075 7.425a10.506 10.506 0 0 0 3.407 2.276l.383-.924a9.52 9.52 0 0 1-3.083-2.059l-.707.707zm3.407 2.276c1.274.527 2.639.799 4.018.799v-1a9.501 9.501 0 0 1-3.635-.723l-.383.924zm4.018.799c2.785 0 5.455-1.106 7.425-3.075l-.707-.707A9.503 9.503 0 0 1 235 108.5v1zm7.425-3.075A10.502 10.502 0 0 0 245.5 99h-1a9.503 9.503 0 0 1-2.782 6.718l.707.707zM245.5 99c0-1.379-.272-2.744-.799-4.018l-.924.383A9.508 9.508 0 0 1 244.5 99h1zm-.799-4.018a10.505 10.505 0 0 0-2.276-3.407l-.707.707a9.51 9.51 0 0 1 2.059 3.083l.924-.383zm-2.276-3.407a10.5 10.5 0 0 0-3.407-2.276l-.383.924a9.51 9.51 0 0 1 3.083 2.06l.707-.708zm-3.407-2.276A10.499 10.499 0 0 0 235 88.5v1c1.248 0 2.483.246 3.635.723l.383-.924zM235 97.4a1.6 1.6 0 0 0-1.131.469l.707.707A.599.599 0 0 1 235 98.4v-1zm-1.131.469A1.6 1.6 0 0 0 233.4 99h1c0-.16.063-.312.176-.424l-.707-.707zM233.4 99c0 .424.169.831.469 1.131l.707-.707A.599.599 0 0 1 234.4 99h-1zm.469 1.131c.3.3.707.469 1.131.469v-1a.599.599 0 0 1-.424-.176l-.707.707zm1.131.469a1.6 1.6 0 0 0 1.131-.469l-.707-.707a.599.599 0 0 1-.424.176v1zm1.131-.469c.3-.3.469-.707.469-1.131h-1c0 .16-.063.312-.176.424l.707.707zM236.6 99a1.6 1.6 0 0 0-.469-1.131l-.707.707a.599.599 0 0 1 .176.424h1zm-.469-1.131A1.6 1.6 0 0 0 235 97.4v1c.159 0 .312.063.424.176l.707-.707z" fill="#D32F2F" mask="url(#m)"/></g><path d="m240.47 93.975.105-.226-.453-.212-.105.227.453.211zm-3.364 7.217 3.364-7.217-.453-.21-3.364 7.215.453.212z" fill="#D32F2F"/><g filter="url(#n)"><path d="M219.545 174.6v-2.7c0-.999-.647-1.8-1.454-1.8h-4.364v-2.7h1.455V162h-4.364v5.4h1.455v2.7h-4.364c-.807 0-1.454.801-1.454 1.8v2.7H205v5.4h4.364v-5.4h-1.455v-2.7h4.364v2.7h-1.455v5.4h4.364v-5.4h-1.455v-2.7h4.364v2.7h-1.455v5.4H221v-5.4h-1.455zm-7.272-10.8h1.454v1.8h-1.454v-1.8zm-4.364 14.4h-1.454v-1.8h1.454v1.8zm5.818 0h-1.454v-1.8h1.454v1.8zm5.818 0h-1.454v-1.8h1.454v1.8z" fill="#fff"/><path d="M209.364 174.35h-1.205v-2.2h3.864v2.2h-1.455v5.9h4.864v-5.9h-1.455v-2.2h3.864v2.2h-1.455v5.9h4.864v-5.9h-1.455v-2.45c0-1.085-.712-2.05-1.704-2.05h-4.114v-2.2h1.455v-5.9h-4.864v5.9h1.455v2.2h-4.114c-.992 0-1.704.965-1.704 2.05v2.45h-1.455v5.9h4.864v-5.9h-.25zm3.159-10.3h.954v1.3h-.954v-1.3zm-4.864 13.9h-.954v-1.3h.954v1.3zm5.818 0h-.954v-1.3h.954v1.3zm5.818 0h-.954v-1.3h.954v1.3z" stroke="#D32F2F" stroke-width=".5"/></g><g filter="url(#o)"><path d="M243.667 131c-.925 0-1.667.841-1.667 1.889V148h10v-15.111c0-1.048-.742-1.889-1.667-1.889h-6.666zm0 1.889h6.666v13.222h-6.666v-13.222zm4.166 5.667v1.888h1.667v-1.888h-1.667z" fill="#fff"/><path d="M241.75 148v.25h10.5v-15.361c0-1.156-.825-2.139-1.917-2.139h-6.666c-1.092 0-1.917.983-1.917 2.139V148zm6.083-9.694h-.25v2.388h2.167v-2.388h-1.917zm-3.916-5.167h6.166v12.722h-6.166v-12.722z" stroke="#D32F2F" stroke-width=".5"/></g><g filter="url(#p)"><mask id="q" maskUnits="userSpaceOnUse" x="253" y="140" width="7" height="8" fill="#000"><path fill="#fff" d="M253 140h7v8h-7z"/><path d="M254 144.429c0 .682.263 1.336.732 1.818a2.467 2.467 0 0 0 1.768.753c0-1.429-1.119-2.571-2.5-2.571zm2.5-2.143c.184 0 .361.075.491.209a.726.726 0 0 1 0 1.01.684.684 0 0 1-.982 0 .726.726 0 0 1 0-1.01.684.684 0 0 1 .491-.209zm-1.778 1.357c0 .189.073.371.204.505.13.134.306.209.491.209a.658.658 0 0 0 .389-.126v.055c0 .189.073.371.203.505a.684.684 0 0 0 .982 0 .726.726 0 0 0 .203-.505v-.055a.658.658 0 0 0 .389.126c.384 0 .695-.32.695-.714a.713.713 0 0 0-.397-.643.717.717 0 0 0 .397-.643.705.705 0 0 0-.695-.714.644.644 0 0 0-.389.126v-.055a.726.726 0 0 0-.203-.505.684.684 0 0 0-.982 0 .726.726 0 0 0-.203.505v.055a.644.644 0 0 0-.389-.126.683.683 0 0 0-.491.209.723.723 0 0 0 .193 1.148.713.713 0 0 0-.397.643zM256.5 147c.663 0 1.299-.271 1.768-.753a2.607 2.607 0 0 0 .732-1.818c-1.389 0-2.5 1.142-2.5 2.571z"/></mask><path d="M254 144.429c0 .682.263 1.336.732 1.818a2.467 2.467 0 0 0 1.768.753c0-1.429-1.119-2.571-2.5-2.571zm2.5-2.143c.184 0 .361.075.491.209a.726.726 0 0 1 0 1.01.684.684 0 0 1-.982 0 .726.726 0 0 1 0-1.01.684.684 0 0 1 .491-.209zm-1.778 1.357c0 .189.073.371.204.505.13.134.306.209.491.209a.658.658 0 0 0 .389-.126v.055c0 .189.073.371.203.505a.684.684 0 0 0 .982 0 .726.726 0 0 0 .203-.505v-.055a.658.658 0 0 0 .389.126c.384 0 .695-.32.695-.714a.713.713 0 0 0-.397-.643.717.717 0 0 0 .397-.643.705.705 0 0 0-.695-.714.644.644 0 0 0-.389.126v-.055a.726.726 0 0 0-.203-.505.684.684 0 0 0-.982 0 .726.726 0 0 0-.203.505v.055a.644.644 0 0 0-.389-.126.683.683 0 0 0-.491.209.723.723 0 0 0 .193 1.148.713.713 0 0 0-.397.643zM256.5 147c.663 0 1.299-.271 1.768-.753a2.607 2.607 0 0 0 .732-1.818c-1.389 0-2.5 1.142-2.5 2.571z" fill="#fff"/><path d="M254 144.429v-.5h-.5v.5h.5zm2.5 2.571v.5-.5zm0-4.714v-.5.5zm-1.778 1.357h-.5.5zm.695.714v.5-.5zm.389-.126h.5v-.984l-.795.581.295.403zm0 .055h-.5.5zm1.388 0h.5-.5zm0-.055.295-.403-.795-.581v.984h.5zm.687-1.231-.22-.449-.917.449.917.449.22-.449zm-.687-1.231h-.5v1.006l.802-.608-.302-.398zm0-.055h-.5.5zm-1.388 0h.5-.5zm0 .055-.302.398.802.608v-1.006h-.5zm-.389-.126v-.5.5zm-.695.714h-.5.5zm.397.643.22.449.917-.449-.917-.449-.22.449zm3.881 1.429h.5v-.5h-.5v.5zm-5.5 0c0 .81.313 1.589.874 2.166l.717-.697a2.107 2.107 0 0 1-.591-1.469h-1zm.874 2.166a2.963 2.963 0 0 0 2.126.905v-1a1.964 1.964 0 0 1-1.409-.602l-.717.697zM257 147c0-1.692-1.331-3.071-3-3.071v1c1.092 0 2 .906 2 2.071h1zm-.5-4.214c.047 0 .095.019.133.057l.717-.697a1.187 1.187 0 0 0-.85-.36v1zm.133.057c.038.04.061.096.061.157h1c0-.318-.122-.625-.344-.854l-.717.697zm.061.157a.228.228 0 0 1-.061.157l.717.697c.222-.229.344-.536.344-.854h-1zm-.061.157a.188.188 0 0 1-.133.057v1c.321 0 .627-.131.85-.36l-.717-.697zm-.133.057a.188.188 0 0 1-.133-.057l-.717.697c.223.229.529.36.85.36v-1zm-.133-.057a.228.228 0 0 1-.061-.157h-1c0 .318.122.625.344.854l.717-.697zm-.061-.157c0-.061.023-.117.061-.157l-.717-.697a1.226 1.226 0 0 0-.344.854h1zm.061-.157a.188.188 0 0 1 .133-.057v-1c-.321 0-.627.131-.85.36l.717.697zm-2.145.8c0 .317.123.625.345.853l.717-.697a.224.224 0 0 1-.062-.156h-1zm.345.853c.223.23.528.361.85.361v-1a.185.185 0 0 1-.133-.058l-.717.697zm.85.361c.256 0 .495-.084.684-.222l-.59-.807a.17.17 0 0 1-.094.029v1zm-.111-.626V144.286h1V144.231h-1zm0 .055c0 .317.122.625.344.853l.717-.697a.223.223 0 0 1-.061-.156h-1zm.344.853c.223.23.529.361.85.361v-1a.185.185 0 0 1-.133-.058l-.717.697zm.85.361c.321 0 .627-.131.85-.361l-.717-.697a.185.185 0 0 1-.133.058v1zm.85-.361c.222-.228.344-.536.344-.853h-1a.223.223 0 0 1-.061.156l.717.697zm.344-.853V144.231h-1V144.286h1zm-.795.349c.189.138.428.222.684.222v-1a.17.17 0 0 1-.094-.029l-.59.807zm.684.222c.673 0 1.195-.557 1.195-1.214h-1c0 .131-.101.214-.195.214v1zm1.195-1.214c0-.482-.278-.896-.678-1.092l-.439.898a.213.213 0 0 1 .117.194h1zm-.678-.194c.401-.196.678-.614.678-1.092h-1a.218.218 0 0 1-.117.194l.439.898zm.678-1.092c0-.657-.522-1.214-1.195-1.214v1c.094 0 .195.083.195.214h1zm-1.195-1.214c-.25 0-.493.078-.691.227l.604.797a.15.15 0 0 1 .087-.024v-1zm.111.626V141.714h-1V141.769h1zm0-.055c0-.317-.122-.625-.344-.853l-.717.697a.223.223 0 0 1 .061.156h1zm-.344-.853a1.184 1.184 0 0 0-.85-.361v1c.047 0 .095.019.133.058l.717-.697zm-.85-.361c-.321 0-.627.131-.85.361l.717.697a.185.185 0 0 1 .133-.058v-1zm-.85.361a1.224 1.224 0 0 0-.344.853h1c0-.061.023-.117.061-.156l-.717-.697zm-.344.853v.055h1V141.714h-1zm.802-.344a1.147 1.147 0 0 0-.691-.227v1a.15.15 0 0 1 .087.024l.604-.797zm-.691-.227c-.322 0-.627.131-.85.361l.717.697a.185.185 0 0 1 .133-.058v-1zm-.85.361a1.225 1.225 0 0 0-.345.853h1c0-.061.024-.117.062-.156l-.717-.697zm-.345.853c0 .478.277.896.678 1.092l.439-.898a.218.218 0 0 1-.117-.194h-1zm.678.194c-.4.196-.678.61-.678 1.092h1c0-.09.05-.161.117-.194l-.439-.898zm1.6 4.949c.8 0 1.565-.327 2.126-.905l-.717-.697a1.964 1.964 0 0 1-1.409.602v1zm2.126-.905a3.108 3.108 0 0 0 .874-2.166h-1c0 .553-.214 1.082-.591 1.469l.717.697zm.374-2.666c-1.678 0-3 1.38-3 3.071h1c0-1.166.9-2.071 2-2.071v-1z" fill="#D32F2F" mask="url(#q)"/></g><g filter="url(#r)"><path d="M242 147.75h-.25v.5h.25v-.5zm16 0h-16v.5h16v-.5z" fill="#D32F2F"/></g><g filter="url(#s)"><mask id="t" maskUnits="userSpaceOnUse" x="126" y="51" width="23" height="22" fill="#000"><path fill="#fff" d="M126 51h23v22h-23z"/><path d="M131.158 66.21 128 69.305v-8.884h3.158m5.263 3.853-1.653-1.41-1.505 1.389V56.21h3.158m5.263 6.315-3.158 3.158V52h3.158m2.958 10.326-1.905-1.905H148v5.263l-1.884-1.884-7.59 7.526-3.652-3.179L130.895 72H128l6.811-6.674 3.715 3.137"/></mask><path d="M131.158 66.21 128 69.305v-8.884h3.158m5.263 3.853-1.653-1.41-1.505 1.389V56.21h3.158m5.263 6.315-3.158 3.158V52h3.158m2.958 10.326-1.905-1.905H148v5.263l-1.884-1.884-7.59 7.526-3.652-3.179L130.895 72H128l6.811-6.674 3.715 3.137" fill="#fff"/><path d="M128 69.305h-.5v1.19l.85-.833-.35-.357zm0-8.884v-.5h-.5v.5h.5zm6.768 2.442.325-.38-.338-.288-.326.3.339.368zm-1.505 1.39h-.5v1.142l.839-.775-.339-.367zm0-8.042v-.5h-.5v.5h.5zm5.263 9.473h-.5v1.207l.854-.853-.354-.354zm0-13.684v-.5h-.5v.5h.5zm4.211 8.421v-.5h-1.207l.853.854.354-.354zm5.263 0h.5v-.5h-.5v.5zm0 5.263-.354.354.854.853v-1.207h-.5zm-1.884-1.884.353-.354-.352-.352-.353.351.352.355zm-7.59 7.526-.328.378.351.305.329-.328-.352-.355zm-3.652-3.179.328-.377-.346-.301-.33.32.348.358zM130.895 72v.5h.202l.146-.14-.348-.36zM128 72l-.35-.357-.875.857H128V72zm6.811-6.674.322-.382-.348-.293-.324.318.35.357zm-4.003.527-3.158 3.095.7.714 3.158-3.094-.7-.715zm-2.308 3.452v-8.884h-1v8.884h1zm-.5-8.384h3.158v-1H128v1zm8.746 2.972-1.653-1.41-.649.76 1.652 1.411.65-.76zm-2.317-1.397-1.505 1.39.678.734 1.506-1.39-.679-.734zm-.666 1.757V56.21h-1v8.042h1zm-.5-7.542h3.158v-1h-3.158v1zm8.068 5.462-3.158 3.158.707.707 3.158-3.158-.707-.707zm-2.305 3.511V52h-1v13.684h1zm-.5-13.184h3.158v-1h-3.158v1zm6.47 9.473-1.906-1.905-.707.707 1.906 1.905.707-.707zm-2.259-1.052H148v-1h-5.263v1zm4.763-.5v5.263h1v-5.263h-1zm.854 4.91-1.885-1.885-.707.708 1.884 1.884.708-.707zm-2.59-1.886-7.59 7.526.704.71 7.59-7.526-.704-.71zm-6.909 7.504-3.653-3.179-.657.755 3.653 3.178.657-.754zm-4.329-3.16-3.979 3.852.696.718 3.978-3.852-.695-.719zm-3.631 3.711H128v1h2.895v-1zm-2.545.857 6.81-6.674-.699-.714-6.811 6.674.7.714zm6.138-6.649 3.716 3.137.645-.764-3.716-3.137-.645.764z" fill="#D32F2F" mask="url(#t)"/></g><path d="m131.535 60.147.006-.25-.5-.01-.006.25.5.01zm-.142 6.429.142-6.429-.5-.01-.142 6.428.5.01zM136.536 55.999v-.25h-.5v.25h.5zm0 8.571V56h-.5v8.571h.5zM141.679 51.998v-.25h-.5v.25h.5zm0 11.143V51.998h-.5V63.14h.5zM144.463 62.466l.177-.177-.354-.354-.177.177.354.354zm-6 6 6-6-.354-.354-6 6 .354.354z" fill="#D32F2F"/><g filter="url(#u)"><circle cx="37.5" cy="69.5" r="17.5" fill="url(#v)"/><rect x="26.5" y="59.773" width="20.209" height="17.24" rx="2.5" fill="#fff" stroke="#D84949"/><path d="M30.528 66.422h9.409M30.43 70.602h5.83" stroke="#D32F2F" stroke-linecap="round"/><path d="M39.935 74.422v-2.46M39.935 71.96h6.469M46.403 71.96V69.5" stroke="#07289C" stroke-linecap="round" stroke-dasharray="2 2"/><path d="M39.74 79.23c1.272 0 2.265-1.072 2.265-2.346 0-1.273-.993-2.345-2.264-2.345-1.272 0-2.264 1.072-2.264 2.346 0 1.273.992 2.345 2.264 2.345z" fill="#FBFCC1" stroke="#FFA800"/><path d="M46.237 69.386c1.271 0 2.264-1.071 2.264-2.345 0-1.274-.993-2.346-2.264-2.346-1.272 0-2.264 1.072-2.264 2.346s.992 2.345 2.264 2.345z" fill="#71207D" stroke="#38A627"/></g><g filter="url(#w)"><circle cx="298.5" cy="221.5" r="27.5" fill="url(#x)"/><g filter="url(#y)"><rect x="281" y="206" width="35" height="20.71" rx="3" fill="#fff" stroke="#D84949" stroke-width="2"/><mask id="z" maskUnits="userSpaceOnUse" x="291.314" y="217.164" width="15" height="11" fill="#000"><path fill="#fff" d="M291.314 217.164h15v11h-15z"/><path d="M303.686 225.712c0-.859-.134-1.711-.395-2.506a6.847 6.847 0 0 0-1.124-2.124 5.295 5.295 0 0 0-1.682-1.419 4.262 4.262 0 0 0-1.985-.499c-.681 0-1.355.169-1.984.499a5.299 5.299 0 0 0-1.683 1.419 6.89 6.89 0 0 0-1.124 2.124 8.09 8.09 0 0 0-.395 2.506h10.372z"/></mask><path d="M303.686 225.712c0-.859-.134-1.711-.395-2.506a6.847 6.847 0 0 0-1.124-2.124 5.295 5.295 0 0 0-1.682-1.419 4.262 4.262 0 0 0-1.985-.499c-.681 0-1.355.169-1.984.499a5.299 5.299 0 0 0-1.683 1.419 6.89 6.89 0 0 0-1.124 2.124 8.09 8.09 0 0 0-.395 2.506h10.372z" stroke="#fff" stroke-width="4" mask="url(#z)"/><path d="M288.195 215.313c1.594 0 2.978-1.174 2.978-2.731 0-1.556-1.384-2.73-2.978-2.73-1.594 0-2.978 1.174-2.978 2.73 0 1.557 1.384 2.731 2.978 2.731z" fill="#FBFCC1" stroke="#FFA800"/><path d="M310.495 213.082c.909 0 1.739-.675 1.739-1.615s-.83-1.615-1.739-1.615c-.91 0-1.739.675-1.739 1.615s.829 1.615 1.739 1.615z" fill="#71207D" stroke="#38A627"/><path d="M298.5 218.227c1.188 0 2.327.468 3.167 1.301a4.426 4.426 0 0 1 1.312 3.142 4.424 4.424 0 0 1-1.312 3.142 4.494 4.494 0 0 1-3.167 1.302 4.494 4.494 0 0 1-3.167-1.302 4.423 4.423 0 0 1 0-6.284 4.498 4.498 0 0 1 3.167-1.301zm0 9.855c4.949 0 8.957 3.242 8.957 5.697v2.222h-17.914v-2.222c0-2.455 4.008-5.697 8.957-5.697z" fill="#131457"/></g></g></g><defs><filter id="s" x="122.775" y="51.5" width="29.725" height="29" filterUnits="userSpaceOnUse" color-interpolation-filters="sRGB"><feFlood flood-opacity="0" result="BackgroundImageFix"/><feColorMatrix in="SourceAlpha" values="0 0 0 0 0 0 0 0 0 0 0 0 0 0 0 0 0 0 127 0" result="hardAlpha"/><feOffset dy="4"/><feGaussianBlur stdDeviation="2"/><feComposite in2="hardAlpha" operator="out"/><feColorMatrix values="0 0 0 0 0 0 0 0 0 0 0 0 0 0 0 0 0 0 0.25 0"/><feBlend in2="BackgroundImageFix" result="effect1_dropShadow_836_15687"/><feBlend in="SourceGraphic" in2="effect1_dropShadow_836_15687" result="shape"/></filter><filter id="c" x="154.092" y="134.336" width="15.34" height="15.336" filterUnits="userSpaceOnUse" color-interpolation-filters="sRGB"><feFlood flood-opacity="0" result="BackgroundImageFix"/><feColorMatrix in="SourceAlpha" values="0 0 0 0 0 0 0 0 0 0 0 0 0 0 0 0 0 0 127 0" result="hardAlpha"/><feOffset dy="4"/><feGaussianBlur stdDeviation="2"/><feComposite in2="hardAlpha" operator="out"/><feColorMatrix values="0 0 0 0 0 0 0 0 0 0 0 0 0 0 0 0 0 0 0.25 0"/><feBlend in2="BackgroundImageFix" result="effect1_dropShadow_836_15687"/><feBlend in="SourceGraphic" in2="effect1_dropShadow_836_15687" result="shape"/></filter><filter id="g" x="163.634" y="128.453" width="19.009" height="19.008" filterUnits="userSpaceOnUse" color-interpolation-filters="sRGB"><feFlood flood-opacity="0" result="BackgroundImageFix"/><feColorMatrix in="SourceAlpha" values="0 0 0 0 0 0 0 0 0 0 0 0 0 0 0 0 0 0 127 0" result="hardAlpha"/><feOffset dy="4"/><feGaussianBlur stdDeviation="2"/><feComposite in2="hardAlpha" operator="out"/><feColorMatrix values="0 0 0 0 0 0 0 0 0 0 0 0 0 0 0 0 0 0 0.25 0"/><feBlend in2="BackgroundImageFix" result="effect1_dropShadow_836_15687"/><feBlend in="SourceGraphic" in2="effect1_dropShadow_836_15687" result="shape"/></filter><filter id="i" x="92.797" y="184.492" width="27.923" height="22.859" filterUnits="userSpaceOnUse" color-interpolation-filters="sRGB"><feFlood flood-opacity="0" result="BackgroundImageFix"/><feColorMatrix in="SourceAlpha" values="0 0 0 0 0 0 0 0 0 0 0 0 0 0 0 0 0 0 127 0" result="hardAlpha"/><feOffset dy="4"/><feGaussianBlur stdDeviation="2"/><feComposite in2="hardAlpha" operator="out"/><feColorMatrix values="0 0 0 0 0 0 0 0 0 0 0 0 0 0 0 0 0 0 0.25 0"/><feBlend in2="BackgroundImageFix" result="effect1_dropShadow_836_15687"/><feBlend in="SourceGraphic" in2="effect1_dropShadow_836_15687" result="shape"/></filter><filter id="j" x="64.331" y="112.25" width="29.338" height="34.25" filterUnits="userSpaceOnUse" color-interpolation-filters="sRGB"><feFlood flood-opacity="0" result="BackgroundImageFix"/><feColorMatrix in="SourceAlpha" values="0 0 0 0 0 0 0 0 0 0 0 0 0 0 0 0 0 0 127 0" result="hardAlpha"/><feOffset dy="4"/><feGaussianBlur stdDeviation="2"/><feComposite in2="hardAlpha" operator="out"/><feColorMatrix values="0 0 0 0 0 0 0 0 0 0 0 0 0 0 0 0 0 0 0.25 0"/><feBlend in2="BackgroundImageFix" result="effect1_dropShadow_836_15687"/><feBlend in="SourceGraphic" in2="effect1_dropShadow_836_15687" result="shape"/></filter><filter id="k" x="165.91" y="84.219" width="29.034" height="21.156" filterUnits="userSpaceOnUse" color-interpolation-filters="sRGB"><feFlood flood-opacity="0" result="BackgroundImageFix"/><feColorMatrix in="SourceAlpha" values="0 0 0 0 0 0 0 0 0 0 0 0 0 0 0 0 0 0 127 0" result="hardAlpha"/><feOffset dy="4"/><feGaussianBlur stdDeviation="2"/><feComposite in2="hardAlpha" operator="out"/><feColorMatrix values="0 0 0 0 0 0 0 0 0 0 0 0 0 0 0 0 0 0 0.25 0"/><feBlend in2="BackgroundImageFix" result="effect1_dropShadow_836_15687"/><feBlend in="SourceGraphic" in2="effect1_dropShadow_836_15687" result="shape"/></filter><filter id="l" x="220.5" y="88.5" width="29" height="29" filterUnits="userSpaceOnUse" color-interpolation-filters="sRGB"><feFlood flood-opacity="0" result="BackgroundImageFix"/><feColorMatrix in="SourceAlpha" values="0 0 0 0 0 0 0 0 0 0 0 0 0 0 0 0 0 0 127 0" result="hardAlpha"/><feOffset dy="4"/><feGaussianBlur stdDeviation="2"/><feComposite in2="hardAlpha" operator="out"/><feColorMatrix values="0 0 0 0 0 0 0 0 0 0 0 0 0 0 0 0 0 0 0.25 0"/><feBlend in2="BackgroundImageFix" result="effect1_dropShadow_836_15687"/><feBlend in="SourceGraphic" in2="effect1_dropShadow_836_15687" result="shape"/></filter><filter id="n" x="200.5" y="161.5" width="25" height="27" filterUnits="userSpaceOnUse" color-interpolation-filters="sRGB"><feFlood flood-opacity="0" result="BackgroundImageFix"/><feColorMatrix in="SourceAlpha" values="0 0 0 0 0 0 0 0 0 0 0 0 0 0 0 0 0 0 127 0" result="hardAlpha"/><feOffset dy="4"/><feGaussianBlur stdDeviation="2"/><feComposite in2="hardAlpha" operator="out"/><feColorMatrix values="0 0 0 0 0 0 0 0 0 0 0 0 0 0 0 0 0 0 0.25 0"/><feBlend in2="BackgroundImageFix" result="effect1_dropShadow_836_15687"/><feBlend in="SourceGraphic" in2="effect1_dropShadow_836_15687" result="shape"/></filter><filter id="o" x="237.5" y="130.5" width="19" height="26" filterUnits="userSpaceOnUse" color-interpolation-filters="sRGB"><feFlood flood-opacity="0" result="BackgroundImageFix"/><feColorMatrix in="SourceAlpha" values="0 0 0 0 0 0 0 0 0 0 0 0 0 0 0 0 0 0 127 0" result="hardAlpha"/><feOffset dy="4"/><feGaussianBlur stdDeviation="2"/><feComposite in2="hardAlpha" operator="out"/><feColorMatrix values="0 0 0 0 0 0 0 0 0 0 0 0 0 0 0 0 0 0 0.25 0"/><feBlend in2="BackgroundImageFix" result="effect1_dropShadow_836_15687"/><feBlend in="SourceGraphic" in2="effect1_dropShadow_836_15687" result="shape"/></filter><filter id="p" x="249.5" y="140.5" width="14" height="15" filterUnits="userSpaceOnUse" color-interpolation-filters="sRGB"><feFlood flood-opacity="0" result="BackgroundImageFix"/><feColorMatrix in="SourceAlpha" values="0 0 0 0 0 0 0 0 0 0 0 0 0 0 0 0 0 0 127 0" result="hardAlpha"/><feOffset dy="4"/><feGaussianBlur stdDeviation="2"/><feComposite in2="hardAlpha" operator="out"/><feColorMatrix values="0 0 0 0 0 0 0 0 0 0 0 0 0 0 0 0 0 0 0.25 0"/><feBlend in2="BackgroundImageFix" result="effect1_dropShadow_836_15687"/><feBlend in="SourceGraphic" in2="effect1_dropShadow_836_15687" result="shape"/></filter><filter id="r" x="237.75" y="147.75" width="24.25" height="8.5" filterUnits="userSpaceOnUse" color-interpolation-filters="sRGB"><feFlood flood-opacity="0" result="BackgroundImageFix"/><feColorMatrix in="SourceAlpha" values="0 0 0 0 0 0 0 0 0 0 0 0 0 0 0 0 0 0 127 0" result="hardAlpha"/><feOffset dy="4"/><feGaussianBlur stdDeviation="2"/><feComposite in2="hardAlpha" operator="out"/><feColorMatrix values="0 0 0 0 0 0 0 0 0 0 0 0 0 0 0 0 0 0 0.25 0"/><feBlend in2="BackgroundImageFix" result="effect1_dropShadow_836_15687"/><feBlend in="SourceGraphic" in2="effect1_dropShadow_836_15687" result="shape"/></filter><filter id="e" x="154.825" y="118.906" width="25.614" height="25.617" filterUnits="userSpaceOnUse" color-interpolation-filters="sRGB"><feFlood flood-opacity="0" result="BackgroundImageFix"/><feColorMatrix in="SourceAlpha" values="0 0 0 0 0 0 0 0 0 0 0 0 0 0 0 0 0 0 127 0" result="hardAlpha"/><feOffset dy="4"/><feGaussianBlur stdDeviation="2"/><feComposite in2="hardAlpha" operator="out"/><feColorMatrix values="0 0 0 0 0 0 0 0 0 0 0 0 0 0 0 0 0 0 0.25 0"/><feBlend in2="BackgroundImageFix" result="effect1_dropShadow_836_15687"/><feBlend in="SourceGraphic" in2="effect1_dropShadow_836_15687" result="shape"/></filter><filter id="u" x="16" y="52" width="43" height="43" filterUnits="userSpaceOnUse" color-interpolation-filters="sRGB"><feFlood flood-opacity="0" result="BackgroundImageFix"/><feColorMatrix in="SourceAlpha" values="0 0 0 0 0 0 0 0 0 0 0 0 0 0 0 0 0 0 127 0" result="hardAlpha"/><feOffset dy="4"/><feGaussianBlur stdDeviation="2"/><feComposite in2="hardAlpha" operator="out"/><feColorMatrix values="0 0 0 0 0 0 0 0 0 0 0 0 0 0 0 0 0 0 0.25 0"/><feBlend in2="BackgroundImageFix" result="effect1_dropShadow_836_15687"/><feBlend in="SourceGraphic" in2="effect1_dropShadow_836_15687" result="shape"/></filter><filter id="w" x="267" y="194" width="63" height="63" filterUnits="userSpaceOnUse" color-interpolation-filters="sRGB"><feFlood flood-opacity="0" result="BackgroundImageFix"/><feColorMatrix in="SourceAlpha" values="0 0 0 0 0 0 0 0 0 0 0 0 0 0 0 0 0 0 127 0" result="hardAlpha"/><feOffset dy="4"/><feGaussianBlur stdDeviation="2"/><feComposite in2="hardAlpha" operator="out"/><feColorMatrix values="0 0 0 0 0 0 0 0 0 0 0 0 0 0 0 0 0 0 0.25 0"/><feBlend in2="BackgroundImageFix" result="effect1_dropShadow_836_15687"/><feBlend in="SourceGraphic" in2="effect1_dropShadow_836_15687" result="shape"/></filter><filter id="y" x="276" y="205" width="45" height="39" filterUnits="userSpaceOnUse" color-interpolation-filters="sRGB"><feFlood flood-opacity="0" result="BackgroundImageFix"/><feColorMatrix in="SourceAlpha" values="0 0 0 0 0 0 0 0 0 0 0 0 0 0 0 0 0 0 127 0" result="hardAlpha"/><feOffset dy="4"/><feGaussianBlur stdDeviation="2"/><feComposite in2="hardAlpha" operator="out"/><feColorMatrix values="0 0 0 0 0 0 0 0 0 0 0 0 0 0 0 0 0 0 0.25 0"/><feBlend in2="BackgroundImageFix" result="effect1_dropShadow_836_15687"/><feBlend in="SourceGraphic" in2="effect1_dropShadow_836_15687" result="shape"/></filter><linearGradient id="b" x1="128" y1="92.492" x2="208" y2="172.492" gradientUnits="userSpaceOnUse"><stop stop-color="#97BCF3"/><stop offset=".475" stop-color="#C1DAFF"/><stop offset="1" stop-color="#E6F0FF"/></linearGradient><linearGradient id="d" x1="170.324" y1="137.582" x2="155.645" y2="137.451" gradientUnits="userSpaceOnUse"><stop stop-color="#068273"/><stop offset=".625" stop-color="#27B2A1"/><stop offset="1" stop-color="#85E7DB"/></linearGradient><linearGradient id="f" x1="179.376" y1="126.539" x2="159.412" y2="125.966" gradientUnits="userSpaceOnUse"><stop stop-color="#35416B"/><stop offset="1" stop-color="#455F91"/></linearGradient><linearGradient id="h" x1="180.478" y1="133.224" x2="168.001" y2="132.866" gradientUnits="userSpaceOnUse"><stop stop-color="#D76548"/><stop offset="1" stop-color="#EA8083"/></linearGradient><linearGradient id="v" x1="20" y1="52" x2="55" y2="87" gradientUnits="userSpaceOnUse"><stop stop-color="#fff"/><stop offset=".515" stop-color="#9192FF"/><stop offset="1" stop-color="#6264EA"/></linearGradient><linearGradient id="x" x1="271" y1="194" x2="326" y2="249" gradientUnits="userSpaceOnUse"><stop stop-color="#FFCEBE"/><stop offset=".515" stop-color="#FE916F"/><stop offset="1" stop-color="#FF5E2B"/></linearGradient><clipPath id="a"><rect width="336" height="266" rx="30" fill="#fff"/></clipPath></defs></svg>