<svg width="336" height="266" fill="none" xmlns="http://www.w3.org/2000/svg"><g clip-path="url(#a)"><rect width="336" height="266" rx="30" fill="#FCE0D2"/><rect width="336" height="266" rx="30" fill="#C3FFD9"/><path d="M148 0v69" stroke="#96FFBC" stroke-width="5" stroke-linecap="round" stroke-linejoin="round" stroke-dasharray="15 15"/><path d="M298.706 219c-.221 4.737-3.051 13.953-12.601 12.92" stroke="#96FFBC" stroke-width="5" stroke-linejoin="round" stroke-dasharray="15 15"/><path d="M37 78.453v73.649M298.705 78.453l.303 76.547M47.663 69h239.413M48.63 163h249.106" stroke="#96FFBC" stroke-width="5" stroke-linecap="round" stroke-linejoin="round" stroke-dasharray="15 15"/><path d="M37 78.387c.221-3.421 3.05-10.075 12.6-9.33M298.706 78.387c-.221-3.421-3.051-10.075-12.601-9.33M37 150c.221 4.737 3.05 13.953 12.6 12.92" stroke="#96FFBC" stroke-width="5" stroke-linejoin="round" stroke-dasharray="15 15"/><path d="M298.706 150v70M148 230v36M159 221h140" stroke="#96FFBC" stroke-width="5" stroke-linecap="round" stroke-linejoin="round" stroke-dasharray="15 15"/><path d="M148 230.387c.221-3.421 3.051-10.075 12.601-9.329" stroke="#96FFBC" stroke-width="5" stroke-linejoin="round" stroke-dasharray="15 15"/><path d="M88.834 135.929c5.808 5.687 16.212 19.23 11.364 27.914-4.849 8.684 4.293 16.025 9.469 18.609 5.051-.387 15.303-3.877 15.909-14.732.758-13.569-37.878-3.101-15.909 29.077 17.576 25.742 51.515 1.163 66.288-14.345 3.662-7.495 5.909-21.71-14.394-18.609-25.379 3.877-7.576 47.298 14.394 32.954 21.97-14.345 50-1.939 51.515-29.077 1.212-21.711-15.909-17.834-24.621-13.181-5.303 8.529-6.591 26.518 30.682 30.239 46.59 4.653 41.287-95.759-19.697-90.331-48.788 4.342-51.642 18.867-46.97 25.587 2.778 5.169 12.197 12.406 27.651 0 15.455-12.406-11.994-32.05-27.651-40.32-11.237-5.815-38.409-13.957-57.197 0-18.788 13.957 2.778 38.381 15.909 48.848" stroke="#235811" stroke-width="2" stroke-linecap="round" stroke-linejoin="round" stroke-dasharray="4 4"/><g filter="url(#b)"><path fill="#fff" d="M220.181 169.734h8.525v10.058h-8.525z"/><path fill="#fff" d="M220.181 169.734h8.525v10.058h-8.525z"/><path d="M222.214 166.185c-5.807 1.2-9.759 6.141-8.781 10.979.466 2.309 1.966 4.289 4.178 5.436.133.66.066 2.506-1.957 5.559 0 0 3.696-.764 6.308-4.167 1.228.09 2.539.048 3.806-.214 5.807-1.2 9.759-6.14 8.782-10.978-.978-4.838-6.529-7.815-12.336-6.615zm3.722 12.977-2.112.436-.444-2.199 2.111-.436.445 2.199zm.789-5.891c-.228.506-.606.813-.983 1.12-.273.285-.356.417-.417.659-.167.263-.123.483-.056.813l-2.112.436c-.111-.549-.072-.901.073-1.274.166-.264.522-.681.983-1.12.295-.175.462-.439.523-.681.061-.241.1-.593.056-.813a1.033 1.033 0 0 0-.473-.704c-.255-.177-.594-.221-.911-.156-.317.066-.506.219-.695.373-.189.154-.25.395-.183.725l-2.112.437c-.05-.792.134-1.517.573-2.066.439-.549 1.156-.812 2.106-1.008.95-.196 1.839-.151 2.456.18.617.33 1.067.925 1.222 1.694.195.418.178.88-.05 1.385z" fill="#C9A3FC"/><g filter="url(#c)"><path fill="#fff" d="M212.26 180.742h-5.949v9.94h5.949z"/><path fill="#fff" d="M212.26 180.742h-5.949v9.94h5.949z"/><path d="M210.628 179.086c-5.296 0-9.628 2.965-9.628 6.627 0 3.661 4.332 6.627 9.628 6.627 1.194 0 2.339-.149 3.398-.414 2.812 2.07 6.23 2.07 6.23 2.07-2.243-1.93-2.6-3.23-2.648-3.727 1.637-1.185 2.648-2.792 2.648-4.556 0-3.662-4.333-6.627-9.628-6.627zm.963 9.112v1.657h-1.926v-1.657h1.926zm0-1.657h-1.926v-4.97h1.926v4.97z" fill="#FFAFAF"/></g><g filter="url(#d)"><path fill="#fff" d="M226.465 179.445h11.722v6.466h-11.722z"/><path fill="#fff" d="M226.465 179.445h11.722v6.466h-11.722z"/><path d="M232.721 176.211c4.553 0 8.279 3.001 8.279 6.705 0 3.705-3.726 6.706-8.279 6.706-1.027 0-2.012-.151-2.922-.419-2.418 2.095-5.357 2.095-5.357 2.095 1.929-1.953 2.236-3.269 2.277-3.772-1.407-1.198-2.277-2.824-2.277-4.61 0-3.704 3.726-6.705 8.279-6.705zm4.139 7.544v-1.677h-1.655v1.677h1.655zm-3.311 0v-1.677h-1.656v1.677h1.656zm-3.312 0v-1.677h-1.655v1.677h1.655z" fill="#57A2DD"/></g></g><path transform="matrix(.73833 .67444 -.66787 .74427 78.331 124.078)" fill="url(#e)" d="M0 0h11.374v3.398H0z"/><g filter="url(#f)"><path d="m94.014 127.951-20.82-4.982 8.784 17.927 2.595-6.578-7.859-8.438 9.742 6.121 7.558-4.05z" fill="#fff"/><path d="m94.131 128.173.583-.312-.643-.154-20.82-4.983-.514-.123.234.479 8.784 17.927.248.506.206-.524 2.595-6.578.059-.148-.109-.117-6.554-7.036 8.124 5.104.122.076.127-.068 7.558-4.049z" stroke="#D32F2F" stroke-width=".5"/></g><g filter="url(#g)"><path d="M260.548 129.05a4.744 4.744 0 0 1-3.308-1.333 4.487 4.487 0 0 1-1.37-3.217c0-1.207.493-2.364 1.37-3.217a4.744 4.744 0 0 1 3.308-1.333c1.24 0 2.43.479 3.307 1.333a4.484 4.484 0 0 1 1.371 3.217 4.484 4.484 0 0 1-1.371 3.217 4.741 4.741 0 0 1-3.307 1.333zm9.93-3.289c.053-.416.093-.832.093-1.261 0-.429-.04-.858-.093-1.3l2.82-2.119a.643.643 0 0 0 .16-.832l-2.673-4.498a.665.665 0 0 0-.815-.286l-3.328 1.3c-.695-.507-1.416-.949-2.258-1.274l-.495-3.445a.67.67 0 0 0-.668-.546h-5.346a.67.67 0 0 0-.668.546l-.495 3.445c-.842.325-1.563.767-2.258 1.274l-3.328-1.3a.665.665 0 0 0-.815.286l-2.673 4.498a.629.629 0 0 0 .16.832l2.82 2.119a10.71 10.71 0 0 0-.094 1.3c0 .429.04.845.094 1.261l-2.82 2.158a.629.629 0 0 0-.16.832l2.673 4.498c.16.286.521.39.815.286l3.328-1.313c.695.52 1.416.962 2.258 1.287l.495 3.445a.67.67 0 0 0 .668.546h5.346a.67.67 0 0 0 .668-.546l.495-3.445a9.793 9.793 0 0 0 2.258-1.287l3.328 1.313c.294.104.655 0 .815-.286l2.673-4.498a.643.643 0 0 0-.16-.832l-2.82-2.158z" fill="url(#h)"/><path d="m273.448 121.281.002-.002a.892.892 0 0 0 .226-1.152l-.003-.006-2.671-4.495a.918.918 0 0 0-1.124-.394v.001l-3.2 1.25c-.635-.455-1.302-.86-2.068-1.171l-.473-3.302-.002-.006a.919.919 0 0 0-.914-.754h-5.346a.92.92 0 0 0-.915.754l-.001.006-.474 3.302c-.765.311-1.432.716-2.067 1.171l-3.2-1.25-.001-.001a.916.916 0 0 0-1.123.394l-2.67 4.493-.001.001a.88.88 0 0 0 .223 1.159l.002.002 2.705 2.033c-.046.396-.079.79-.079 1.186 0 .394.033.775.078 1.15l-2.706 2.07v.001a.88.88 0 0 0-.222 1.16l2.67 4.493c.229.405.724.535 1.115.397l.009-.003 3.198-1.263a9.53 9.53 0 0 0 2.069 1.183l.474 3.302.001.006a.92.92 0 0 0 .915.754h5.346c.45 0 .84-.316.914-.754h.001l.001-.006.474-3.304c.763-.32 1.43-.714 2.068-1.181l3.199 1.263.009.003c.391.138.886.008 1.115-.397l2.671-4.495.003-.006a.892.892 0 0 0-.226-1.152v-.001l-2.706-2.07c.045-.375.077-.756.077-1.15 0-.396-.033-.79-.078-1.186l2.705-2.033zm-12.9 7.519a4.493 4.493 0 0 1-3.133-1.262 4.237 4.237 0 0 1-1.295-3.038c0-1.138.465-2.231 1.295-3.038a4.493 4.493 0 0 1 3.133-1.262c1.176 0 2.303.455 3.133 1.262.83.807 1.295 1.9 1.295 3.038a4.237 4.237 0 0 1-1.295 3.038 4.497 4.497 0 0 1-3.133 1.262z" stroke="#235811" stroke-width=".5"/></g><g filter="url(#i)"><path d="M189.002 92.15a3.285 3.285 0 0 1-2.29-.923 3.108 3.108 0 0 1-.948-2.227c0-.835.341-1.637.948-2.227a3.285 3.285 0 0 1 2.29-.923c.859 0 1.683.332 2.29.923.607.59.948 1.392.948 2.227s-.341 1.637-.948 2.227a3.285 3.285 0 0 1-2.29.923zm7.332-1.927a1.073 1.073 0 0 1-.401-.923 5.941 5.941 0 0 0-.002-.626 1.063 1.063 0 0 1 .407-.92l1.491-1.121a.446.446 0 0 0 .111-.576l-1.851-3.114a.46.46 0 0 0-.564-.198l-1.793.7a1.066 1.066 0 0 1-.962-.11 6.723 6.723 0 0 0-.578-.333c-.322-.164-.566-.46-.618-.819l-.259-1.805a.464.464 0 0 0-.462-.378h-3.701a.464.464 0 0 0-.463.378l-.259 1.805c-.052.358-.296.655-.618.819-.2.102-.391.213-.577.333a1.069 1.069 0 0 1-.963.11l-1.793-.7a.46.46 0 0 0-.564.198l-1.851 3.114a.436.436 0 0 0 .111.576l1.491 1.12c.286.215.428.565.407.921a5.066 5.066 0 0 0-.001.626c.02.356-.119.706-.402.923l-1.495 1.144a.436.436 0 0 0-.111.576l1.851 3.114c.111.198.36.27.564.198l1.785-.704c.322-.127.685-.074.976.115.184.12.374.23.572.332.322.164.566.46.618.819l.259 1.805a.464.464 0 0 0 .463.378h3.701a.464.464 0 0 0 .462-.378l.261-1.814c.05-.353.288-.647.607-.81a6.69 6.69 0 0 0 .58-.333c.292-.188.655-.242.977-.114l1.785.704a.47.47 0 0 0 .564-.198l1.851-3.114a.446.446 0 0 0-.111-.576l-1.495-1.144z" fill="#fff"/><path d="m197.979 86.833.002-.002a.696.696 0 0 0 .177-.896l-.003-.006-1.849-3.111a.711.711 0 0 0-.873-.306l-1.792.7a.816.816 0 0 1-.736-.088 6.99 6.99 0 0 0-.599-.345c-.263-.133-.446-.367-.484-.631l-.259-1.805-.001-.007a.715.715 0 0 0-.709-.586h-3.701a.713.713 0 0 0-.709.586h-.001l-.001.007-.259 1.805c-.038.264-.221.498-.483.631a6.84 6.84 0 0 0-.599.345.819.819 0 0 1-.737.089l-1.792-.7a.712.712 0 0 0-.873.305l-1.848 3.11a.686.686 0 0 0 .173.903l.002.002 1.491 1.12a.813.813 0 0 1 .307.706 6.416 6.416 0 0 0-.001.655.826.826 0 0 1-.304.71l-1.495 1.144a.686.686 0 0 0-.173.904l1.848 3.11c.18.317.564.415.864.309l.009-.003 1.784-.705a.825.825 0 0 1 .749.093c.191.123.388.239.594.344.263.135.446.368.484.632l.259 1.805.002.007a.713.713 0 0 0 .709.586h3.701c.347 0 .65-.244.709-.586l.001-.007.26-1.813a.849.849 0 0 1 .473-.623c.209-.106.409-.222.602-.346a.831.831 0 0 1 .751-.092l1.784.705.009.003c.3.106.684.008.864-.309l1.849-3.111.003-.006a.696.696 0 0 0-.177-.896l-1.495-1.144a.826.826 0 0 1-.304-.711 5.413 5.413 0 0 0-.001-.654.813.813 0 0 1 .307-.707l1.491-1.12zm-8.977 5.067a3.036 3.036 0 0 1-2.116-.852 2.859 2.859 0 0 1-.872-2.048c0-.767.313-1.504.872-2.048a3.036 3.036 0 0 1 2.116-.852c.795 0 1.556.307 2.116.852.559.544.872 1.281.872 2.048 0 .767-.313 1.504-.872 2.048a3.036 3.036 0 0 1-2.116.852z" stroke="#BD2831" stroke-width=".5"/></g><g filter="url(#j)" stroke="#BD2831" stroke-width=".5"><path d="M103.304 99.295c5.282 0 9.553-4.381 9.553-9.773 0-5.391-4.271-9.772-9.553-9.772-5.282 0-9.554 4.38-9.554 9.772s4.272 9.773 9.554 9.773z" fill="#fff"/><path d="M103.304 98.217c4.7 0 8.501-3.898 8.501-8.695 0-4.796-3.801-8.694-8.501-8.694-4.7 0-8.5 3.898-8.5 8.694 0 4.797 3.8 8.695 8.5 8.695z" fill="#fff"/><rect x="102.704" y="83.695" width="1.202" height="5.89" rx=".601"/><rect x=".342" y="-.075" width="1.214" height="5.802" rx=".607" transform="matrix(-.52904 .8486 -.83727 -.5468 108.582 91.804)"/><path d="M104.282 89.523a.994.994 0 0 1-.979 1.008.994.994 0 0 1-.979-1.008.994.994 0 0 1 .979-1.007c.535 0 .979.445.979 1.007z" fill="#fff"/></g><g filter="url(#k)"><path d="m154.282 201.192 3.029.317-.244 2.43-3.029-.317.244-2.43zm3.397-13.557c5.384.745 7.298 5.365 3.759 8.308-.919.722-2.325 1.115-3.06 1.725-.743.602-.824 1.412-.905 2.222l-3.029-.318c.135-1.352.249-2.494 1.007-3.233.747-.74 2.148-1.077 3.04-1.523 2.624-1.558 2.276-4.189-1.055-4.751-.804-.084-1.6.091-2.213.487-.614.396-.995.981-1.059 1.625l-3.029-.318c.129-1.288.891-2.457 2.118-3.25 1.227-.792 2.819-1.142 4.426-.974z" fill="#fff"/><path d="m154.307 200.943-.249-.026-.025.249-.243 2.43-.025.248.249.026 3.028.318.249.026.025-.249.243-2.429.025-.249-.249-.026-3.028-.318zm3.405-13.556-.008-.001c-1.657-.173-3.307.187-4.587 1.013-1.282.827-2.093 2.06-2.231 3.434l-.025.249.249.026 3.029.318.248.026.025-.249c.056-.558.387-1.08.947-1.441.559-.361 1.294-.526 2.044-.449 1.612.274 2.401 1.027 2.548 1.799.147.776-.32 1.733-1.581 2.484-.274.137-.588.259-.927.391-.2.078-.409.16-.624.249-.558.234-1.133.518-1.544.924-.422.412-.656.929-.803 1.502-.145.565-.209 1.205-.276 1.871l-.001.013-.025.249.249.026 3.029.317.248.026.025-.248c.083-.822.162-1.525.815-2.053l.003-.002c.334-.278.83-.513 1.393-.78l.015-.007c.553-.263 1.161-.552 1.646-.934l.006-.004c1.843-1.533 2.294-3.54 1.534-5.271-.753-1.717-2.668-3.097-5.421-3.478z" stroke="#BD2831" stroke-width=".5"/></g><g filter="url(#l)" stroke="#BD2831"><rect x="-.643" y="-.274" width="19" height="13" rx="1.5" transform="matrix(.9232 -.3843 .36322 .9317 95.05 170.648)" fill="#fff"/><path d="m96.509 172.312 8.976.731 6.116-6.607" stroke-width=".5" stroke-linecap="round" stroke-linejoin="round"/></g><g filter="url(#m)"><path d="m212.882 104.117 1.071 1.206-13.526 15.215-1.072-1.206 13.527-15.215zM217.596 109.414l.861.968-13.853 15.582-.861-.968 13.853-15.582z" fill="#D32F2F"/><path d="m213.962 105.312 1.937 2.179-13.244 14.897-1.937-2.179 13.244-14.897z" fill="#FF4141"/><path d="m215.888 107.5 1.714 1.928-12.887 14.496-1.714-1.928 12.887-14.496z" fill="#F15050"/><path d="M199 124.066v-4.341l.429-.483h2.144v1.93h2.144v1.929l1.286.482v1.93l-.429.482h-3.859L199 124.066z" fill="#FFDFAE"/><path d="M199 125.992v-1.93l1.715 1.93H199z" fill="#000"/><path d="M216.755 99.747a.867.867 0 0 1 1.328 0l4.252 4.783a1.153 1.153 0 0 1 0 1.495l-2.873 3.231-5.581-6.277 2.874-3.232z" fill="#FF9A8C"/></g><g filter="url(#n)"><circle cx="168" cy="133" r="40" fill="url(#o)" fill-opacity=".5"/><path fill="#DBDBDB" d="M158.826 163.453v-2.202h8.807v2.202zM158.826 167.125v-2.202h8.807v2.202zM160.294 164.922v-1.468h7.339v1.468z"/><path fill="#AEAEB1" d="M176.44 163.453v-2.202h-8.807v2.202zM174.973 164.922v-1.468h-7.339v1.468zM176.44 167.125v-2.202h-8.807v2.202z"/><path d="M171.303 170.789a3.67 3.67 0 0 0 3.67-3.67h-14.679a3.67 3.67 0 0 0 3.669 3.67h7.34z" fill="#242427"/><path fill="#E7EA6D" d="M167.634 161.258v-13.211h8.807v13.211z"/><path fill="#F7FF86" d="M158.827 161.258v-13.211h8.807v13.211z"/><path d="M167.634 114.219c2.409 0 4.795.474 7.022 1.396a18.362 18.362 0 0 1 9.93 9.931 18.348 18.348 0 0 1-16.952 25.37v-36.697z" fill="#E7EA6D"/><path d="M167.634 114.219a18.35 18.35 0 0 0-18.349 18.348 18.35 18.35 0 0 0 18.349 18.349v-36.697z" fill="#F7FF86"/><rect width="1.468" height="11.009" rx=".734" transform="scale(1 -1) rotate(-70 9.116 -194.66)" fill="#F7FF86"/><rect width="1.468" height="11.009" rx=".734" transform="scale(1 -1) rotate(40 230.037 156.103)" fill="#F7FF86"/><rect width="1.468" height="11.009" rx=".734" transform="scale(1 -1) rotate(-40 -61.525 -303.74)" fill="#F7FF86"/><rect width="1.468" height="11.009" rx=".734" transform="scale(1 -1) rotate(70 159.004 44.48)" fill="#F7FF86"/><rect width="1.468" height="11.009" rx=".734" transform="matrix(0 -1 -1 0 144.882 133.359)" fill="#F7FF86"/><rect width="1.468" height="11.009" rx=".734" transform="matrix(0 -1 -1 0 202.13 133.359)" fill="#F7FF86"/><rect width="1.468" height="11.009" rx=".734" transform="matrix(1 0 0 -1 166.9 106.203)" fill="#F7FF86"/><g filter="url(#p)"><path d="M161.763 139.782c-.35 0-.686-.135-.933-.376a1.266 1.266 0 0 1-.387-.908c0-.341.139-.667.387-.908.247-.241.583-.377.933-.377.351 0 .686.136.934.377s.387.567.387.908c0 .34-.139.667-.387.908a1.339 1.339 0 0 1-.934.376zm2.803-.928c.016-.118.027-.235.027-.356s-.011-.242-.027-.367l.796-.598a.182.182 0 0 0 .046-.235l-.755-1.27c-.045-.081-.147-.114-.23-.081l-.939.367a2.742 2.742 0 0 0-.638-.359l-.14-.973a.189.189 0 0 0-.188-.154h-1.509a.19.19 0 0 0-.189.154l-.139.973a2.722 2.722 0 0 0-.638.359l-.939-.367a.19.19 0 0 0-.231.081l-.754 1.27a.178.178 0 0 0 .045.235l.796.598a3.076 3.076 0 0 0-.026.367c0 .121.011.238.026.356l-.796.609a.178.178 0 0 0-.045.235l.754 1.27c.046.08.148.11.231.08l.939-.37c.196.146.4.271.638.363l.139.972a.189.189 0 0 0 .189.155h1.509a.189.189 0 0 0 .188-.155l.14-.972c.238-.095.441-.217.638-.363l.939.37c.083.03.185 0 .23-.08l.755-1.27a.182.182 0 0 0-.046-.235l-.796-.609z" fill="url(#q)"/></g><g filter="url(#r)"><path d="M167.636 131.312a3.214 3.214 0 0 1-2.241-.903 3.038 3.038 0 0 1-.929-2.18c0-.817.334-1.601.929-2.179a3.21 3.21 0 0 1 2.241-.903c.84 0 1.646.324 2.24.903.595.578.929 1.362.929 2.179 0 .818-.334 1.602-.929 2.18-.594.578-1.4.903-2.24.903zm6.727-2.228c.036-.282.063-.564.063-.855 0-.29-.027-.581-.063-.881l1.91-1.435a.436.436 0 0 0 .109-.564l-1.811-3.047a.45.45 0 0 0-.552-.194l-2.255.881c-.471-.344-.959-.643-1.53-.863l-.335-2.334a.453.453 0 0 0-.453-.37h-3.621a.453.453 0 0 0-.453.37l-.335 2.334c-.571.22-1.059.519-1.53.863l-2.255-.881a.45.45 0 0 0-.552.194l-1.811 3.047a.427.427 0 0 0 .109.564l1.91 1.435c-.036.3-.063.591-.063.881 0 .291.027.573.063.855l-1.91 1.462a.425.425 0 0 0-.109.563l1.811 3.048c.108.193.353.264.552.193l2.255-.889c.471.352.959.652 1.53.872l.335 2.334c.036.211.226.37.453.37h3.621a.454.454 0 0 0 .453-.37l.335-2.334a6.64 6.64 0 0 0 1.53-.872l2.255.889a.46.46 0 0 0 .552-.193l1.811-3.048a.435.435 0 0 0-.109-.563l-1.91-1.462z" fill="url(#s)"/></g><g filter="url(#t)"><path d="M173.14 136.392a2.011 2.011 0 0 1-1.401-.564 1.902 1.902 0 0 1-.58-1.362c0-.511.209-1.001.58-1.363a2.011 2.011 0 0 1 1.401-.564c.525 0 1.029.203 1.4.564a1.9 1.9 0 0 1 .58 1.363c0 .51-.208 1.001-.58 1.362a2.009 2.009 0 0 1-1.4.564zm4.204-1.393a4.09 4.09 0 0 0 .04-.533 4.51 4.51 0 0 0-.04-.551l1.194-.897a.272.272 0 0 0 .068-.352l-1.132-1.905c-.067-.121-.22-.171-.345-.121l-1.409.55a4.135 4.135 0 0 0-.956-.539l-.21-1.459a.283.283 0 0 0-.283-.231h-2.263a.284.284 0 0 0-.283.231l-.21 1.459a4.135 4.135 0 0 0-.956.539l-1.409-.55a.281.281 0 0 0-.345.121l-1.132 1.905a.265.265 0 0 0 .068.352l1.194.897a4.51 4.51 0 0 0-.04.551c0 .181.017.357.04.533l-1.194.914a.266.266 0 0 0-.068.353l1.132 1.904c.068.121.221.165.345.121l1.409-.556c.294.22.6.408.956.545l.21 1.459a.284.284 0 0 0 .283.231h2.263a.283.283 0 0 0 .283-.231l.21-1.459c.356-.143.662-.325.956-.545l1.409.556c.125.044.278 0 .345-.121l1.132-1.904a.273.273 0 0 0-.068-.353l-1.194-.914z" fill="url(#u)"/></g></g><g filter="url(#v)"><circle cx="290.5" cy="221.5" r="27.5" fill="url(#w)"/><rect x="273" y="206" width="32.185" height="27.52" rx="3" fill="#fff" stroke="#D84949" stroke-width="2"/><path d="M279.544 216.664h14.784M279.39 223.234h9.163" stroke="#D32F2F" stroke-width="2" stroke-linecap="round"/><path d="M294.274 229v-4M294.274 225h10.81M305.084 225v-4" stroke="#07289C" stroke-linecap="round" stroke-dasharray="2 2"/><path d="M293.948 236.499c1.913 0 3.448-1.575 3.448-3.499 0-1.925-1.535-3.5-3.448-3.5-1.912 0-3.448 1.575-3.448 3.5 0 1.924 1.536 3.499 3.448 3.499z" fill="#FBFCC1" stroke="#FFA800"/><path d="M304.805 220.499c1.912 0 3.448-1.575 3.448-3.499 0-1.925-1.536-3.5-3.448-3.5-1.913 0-3.449 1.575-3.449 3.5 0 1.924 1.536 3.499 3.449 3.499z" fill="#71207D" stroke="#38A627"/></g><circle cx="37.5" cy="69.5" r="17.5" fill="url(#x)"/><g filter="url(#y)"><path d="M36.378 59.633c4.054 0 7.254 3.076 7.468 7.106l2.026 2.651c.214.319 0 .849-.426.849h-1.6v3.182c0 1.166-.96 2.12-2.134 2.12h-1.067v3.183h-7.467v-4.985c-2.56-1.167-4.267-3.712-4.267-6.682 0-4.136 3.307-7.424 7.467-7.424z" fill="url(#z)"/><g filter="url(#A)"><path fill="#fff" d="M36.188 63.438h2.325v3.025h-2.325z"/><path d="M36.743 62.367c-1.584.361-2.662 1.847-2.395 3.302.127.694.536 1.29 1.14 1.635.036.198.018.754-.534 1.672 0 0 1.008-.23 1.72-1.254.335.028.693.015 1.038-.064 1.584-.36 2.661-1.846 2.395-3.301-.267-1.455-1.78-2.35-3.364-1.99zm1.015 3.903-.576.131-.121-.661.575-.131.122.66zm.215-1.772c-.062.152-.165.245-.268.337-.075.086-.097.126-.114.198-.045.08-.033.146-.015.245l-.576.131a.687.687 0 0 1 .02-.383c.045-.08.142-.205.268-.337a.336.336 0 0 0 .143-.205.711.711 0 0 0 .015-.244.314.314 0 0 0-.13-.212.3.3 0 0 0-.248-.047.403.403 0 0 0-.189.112c-.052.046-.068.119-.05.218l-.576.131c-.014-.238.036-.456.156-.62.12-.166.315-.245.575-.304.259-.059.501-.045.67.054.168.1.29.278.333.51a.527.527 0 0 1-.014.416z" fill="#7EE25B"/></g><g filter="url(#B)"><path fill="#fff" d="M34.625 66.766h-1.622v2.989h1.622z"/><path fill="#fff" d="M34.625 66.766h-1.622v2.989h1.622z"/><g filter="url(#C)"><path d="M33.856 66.234c-1.594 0-2.898.898-2.898 2.006 0 1.108 1.304 2.005 2.898 2.005.36 0 .704-.045 1.023-.125.846.627 1.875.627 1.875.627-.675-.584-.782-.978-.797-1.128.493-.359.797-.845.797-1.38 0-1.107-1.304-2.005-2.898-2.005zm.29 2.758v.501h-.58v-.501h.58zm0-.501h-.58v-1.505h.58v1.505z" fill="#19BBA8"/></g></g><g filter="url(#D)"><path fill="#fff" d="M37.903 66.359H41.1v1.945h-3.197z"/><path fill="#fff" d="M37.903 66.359H41.1v1.945h-3.197z"/><path d="M39.61 65.383c1.241 0 2.257.902 2.257 2.016 0 1.115-1.016 2.017-2.258 2.017-.28 0-.548-.045-.797-.126-.659.63-1.46.63-1.46.63.526-.587.61-.983.62-1.134a1.9 1.9 0 0 1-.62-1.387c0-1.114 1.016-2.016 2.257-2.016zm1.128 2.269v-.505h-.451v.504h.451zm-.903 0v-.505h-.452v.504h.452zm-.903 0v-.505h-.452v.504h.452z" fill="#2D8AD3"/></g></g></g><defs><filter id="y" x="24.91" y="59.633" width="25.046" height="27.094" filterUnits="userSpaceOnUse" color-interpolation-filters="sRGB"><feFlood flood-opacity="0" result="BackgroundImageFix"/><feColorMatrix in="SourceAlpha" values="0 0 0 0 0 0 0 0 0 0 0 0 0 0 0 0 0 0 127 0" result="hardAlpha"/><feOffset dy="4"/><feGaussianBlur stdDeviation="2"/><feComposite in2="hardAlpha" operator="out"/><feColorMatrix values="0 0 0 0 0 0 0 0 0 0 0 0 0 0 0 0 0 0 0.25 0"/><feBlend in2="BackgroundImageFix" result="effect1_dropShadow_834_16683"/><feBlend in="SourceGraphic" in2="effect1_dropShadow_834_16683" result="shape"/></filter><filter id="b" x="197" y="165.922" width="48" height="36.078" filterUnits="userSpaceOnUse" color-interpolation-filters="sRGB"><feFlood flood-opacity="0" result="BackgroundImageFix"/><feColorMatrix in="SourceAlpha" values="0 0 0 0 0 0 0 0 0 0 0 0 0 0 0 0 0 0 127 0" result="hardAlpha"/><feOffset dy="4"/><feGaussianBlur stdDeviation="2"/><feComposite in2="hardAlpha" operator="out"/><feColorMatrix values="0 0 0 0 0 0 0 0 0 0 0 0 0 0 0 0 0 0 0.25 0"/><feBlend in2="BackgroundImageFix" result="effect1_dropShadow_834_16683"/><feBlend in="SourceGraphic" in2="effect1_dropShadow_834_16683" result="shape"/></filter><filter id="d" x="220.442" y="176.211" width="24.558" height="23.086" filterUnits="userSpaceOnUse" color-interpolation-filters="sRGB"><feFlood flood-opacity="0" result="BackgroundImageFix"/><feColorMatrix in="SourceAlpha" values="0 0 0 0 0 0 0 0 0 0 0 0 0 0 0 0 0 0 127 0" result="hardAlpha"/><feOffset dy="4"/><feGaussianBlur stdDeviation="2"/><feComposite in2="hardAlpha" operator="out"/><feColorMatrix values="0 0 0 0 0 0 0 0 0 0 0 0 0 0 0 0 0 0 0.1 0"/><feBlend in2="BackgroundImageFix" result="effect1_dropShadow_834_16683"/><feBlend in="SourceGraphic" in2="effect1_dropShadow_834_16683" result="shape"/></filter><filter id="f" x="68.279" y="122.234" width="31.135" height="27.898" filterUnits="userSpaceOnUse" color-interpolation-filters="sRGB"><feFlood flood-opacity="0" result="BackgroundImageFix"/><feColorMatrix in="SourceAlpha" values="0 0 0 0 0 0 0 0 0 0 0 0 0 0 0 0 0 0 127 0" result="hardAlpha"/><feOffset dy="4"/><feGaussianBlur stdDeviation="2"/><feComposite in2="hardAlpha" operator="out"/><feColorMatrix values="0 0 0 0 0 0 0 0 0 0 0 0 0 0 0 0 0 0 0.25 0"/><feBlend in2="BackgroundImageFix" result="effect1_dropShadow_834_16683"/><feBlend in="SourceGraphic" in2="effect1_dropShadow_834_16683" result="shape"/></filter><filter id="g" x="243.045" y="111" width="35" height="35" filterUnits="userSpaceOnUse" color-interpolation-filters="sRGB"><feFlood flood-opacity="0" result="BackgroundImageFix"/><feColorMatrix in="SourceAlpha" values="0 0 0 0 0 0 0 0 0 0 0 0 0 0 0 0 0 0 127 0" result="hardAlpha"/><feOffset dy="4"/><feGaussianBlur stdDeviation="2"/><feComposite in2="hardAlpha" operator="out"/><feColorMatrix values="0 0 0 0 0 0 0 0 0 0 0 0 0 0 0 0 0 0 0.25 0"/><feBlend in2="BackgroundImageFix" result="effect1_dropShadow_834_16683"/><feBlend in="SourceGraphic" in2="effect1_dropShadow_834_16683" result="shape"/></filter><filter id="i" x="175.5" y="79.5" width="27" height="27" filterUnits="userSpaceOnUse" color-interpolation-filters="sRGB"><feFlood flood-opacity="0" result="BackgroundImageFix"/><feColorMatrix in="SourceAlpha" values="0 0 0 0 0 0 0 0 0 0 0 0 0 0 0 0 0 0 127 0" result="hardAlpha"/><feOffset dy="4"/><feGaussianBlur stdDeviation="2"/><feComposite in2="hardAlpha" operator="out"/><feColorMatrix values="0 0 0 0 0 0 0 0 0 0 0 0 0 0 0 0 0 0 0.25 0"/><feBlend in2="BackgroundImageFix" result="effect1_dropShadow_834_16683"/><feBlend in="SourceGraphic" in2="effect1_dropShadow_834_16683" result="shape"/></filter><filter id="j" x="89.5" y="79.5" width="27.607" height="28.047" filterUnits="userSpaceOnUse" color-interpolation-filters="sRGB"><feFlood flood-opacity="0" result="BackgroundImageFix"/><feColorMatrix in="SourceAlpha" values="0 0 0 0 0 0 0 0 0 0 0 0 0 0 0 0 0 0 127 0" result="hardAlpha"/><feOffset dy="4"/><feGaussianBlur stdDeviation="2"/><feComposite in2="hardAlpha" operator="out"/><feColorMatrix values="0 0 0 0 0 0 0 0 0 0 0 0 0 0 0 0 0 0 0.25 0"/><feBlend in2="BackgroundImageFix" result="effect1_dropShadow_834_16683"/><feBlend in="SourceGraphic" in2="effect1_dropShadow_834_16683" result="shape"/></filter><filter id="k" x="146.588" y="187.094" width="21.148" height="25.398" filterUnits="userSpaceOnUse" color-interpolation-filters="sRGB"><feFlood flood-opacity="0" result="BackgroundImageFix"/><feColorMatrix in="SourceAlpha" values="0 0 0 0 0 0 0 0 0 0 0 0 0 0 0 0 0 0 127 0" result="hardAlpha"/><feOffset dy="4"/><feGaussianBlur stdDeviation="2"/><feComposite in2="hardAlpha" operator="out"/><feColorMatrix values="0 0 0 0 0 0 0 0 0 0 0 0 0 0 0 0 0 0 0.25 0"/><feBlend in2="BackgroundImageFix" result="effect1_dropShadow_834_16683"/><feBlend in="SourceGraphic" in2="effect1_dropShadow_834_16683" result="shape"/></filter><filter id="l" x="90.302" y="163.297" width="30.373" height="27.5" filterUnits="userSpaceOnUse" color-interpolation-filters="sRGB"><feFlood flood-opacity="0" result="BackgroundImageFix"/><feColorMatrix in="SourceAlpha" values="0 0 0 0 0 0 0 0 0 0 0 0 0 0 0 0 0 0 127 0" result="hardAlpha"/><feOffset dy="4"/><feGaussianBlur stdDeviation="2"/><feComposite in2="hardAlpha" operator="out"/><feColorMatrix values="0 0 0 0 0 0 0 0 0 0 0 0 0 0 0 0 0 0 0.25 0"/><feBlend in2="BackgroundImageFix" result="effect1_dropShadow_834_16683"/><feBlend in="SourceGraphic" in2="effect1_dropShadow_834_16683" result="shape"/></filter><filter id="m" x="198" y="99.438" width="25.61" height="33.555" filterUnits="userSpaceOnUse" color-interpolation-filters="sRGB"><feFlood flood-opacity="0" result="BackgroundImageFix"/><feColorMatrix in="SourceAlpha" values="0 0 0 0 0 0 0 0 0 0 0 0 0 0 0 0 0 0 127 0" result="hardAlpha"/><feOffset dy="6"/><feGaussianBlur stdDeviation=".5"/><feComposite in2="hardAlpha" operator="out"/><feColorMatrix values="0 0 0 0 0 0 0 0 0 0 0 0 0 0 0 0 0 0 0.2 0"/><feBlend in2="BackgroundImageFix" result="effect1_dropShadow_834_16683"/><feBlend in="SourceGraphic" in2="effect1_dropShadow_834_16683" result="shape"/></filter><filter id="n" x="124" y="93" width="88" height="88" filterUnits="userSpaceOnUse" color-interpolation-filters="sRGB"><feFlood flood-opacity="0" result="BackgroundImageFix"/><feColorMatrix in="SourceAlpha" values="0 0 0 0 0 0 0 0 0 0 0 0 0 0 0 0 0 0 127 0" result="hardAlpha"/><feOffset dy="4"/><feGaussianBlur stdDeviation="2"/><feComposite in2="hardAlpha" operator="out"/><feColorMatrix values="0 0 0 0 0 0 0 0 0 0 0 0 0 0 0 0 0 0 0.25 0"/><feBlend in2="BackgroundImageFix" result="effect1_dropShadow_834_16683"/><feBlend in="SourceGraphic" in2="effect1_dropShadow_834_16683" result="shape"/></filter><filter id="p" x="154.093" y="134.828" width="15.34" height="15.336" filterUnits="userSpaceOnUse" color-interpolation-filters="sRGB"><feFlood flood-opacity="0" result="BackgroundImageFix"/><feColorMatrix in="SourceAlpha" values="0 0 0 0 0 0 0 0 0 0 0 0 0 0 0 0 0 0 127 0" result="hardAlpha"/><feOffset dy="4"/><feGaussianBlur stdDeviation="2"/><feComposite in2="hardAlpha" operator="out"/><feColorMatrix values="0 0 0 0 0 0 0 0 0 0 0 0 0 0 0 0 0 0 0.25 0"/><feBlend in2="BackgroundImageFix" result="effect1_dropShadow_834_16683"/><feBlend in="SourceGraphic" in2="effect1_dropShadow_834_16683" result="shape"/></filter><filter id="r" x="154.826" y="119.422" width="25.614" height="25.617" filterUnits="userSpaceOnUse" color-interpolation-filters="sRGB"><feFlood flood-opacity="0" result="BackgroundImageFix"/><feColorMatrix in="SourceAlpha" values="0 0 0 0 0 0 0 0 0 0 0 0 0 0 0 0 0 0 127 0" result="hardAlpha"/><feOffset dy="4"/><feGaussianBlur stdDeviation="2"/><feComposite in2="hardAlpha" operator="out"/><feColorMatrix values="0 0 0 0 0 0 0 0 0 0 0 0 0 0 0 0 0 0 0.25 0"/><feBlend in2="BackgroundImageFix" result="effect1_dropShadow_834_16683"/><feBlend in="SourceGraphic" in2="effect1_dropShadow_834_16683" result="shape"/></filter><filter id="t" x="163.634" y="128.961" width="19.009" height="19.008" filterUnits="userSpaceOnUse" color-interpolation-filters="sRGB"><feFlood flood-opacity="0" result="BackgroundImageFix"/><feColorMatrix in="SourceAlpha" values="0 0 0 0 0 0 0 0 0 0 0 0 0 0 0 0 0 0 127 0" result="hardAlpha"/><feOffset dy="4"/><feGaussianBlur stdDeviation="2"/><feComposite in2="hardAlpha" operator="out"/><feColorMatrix values="0 0 0 0 0 0 0 0 0 0 0 0 0 0 0 0 0 0 0.25 0"/><feBlend in2="BackgroundImageFix" result="effect1_dropShadow_834_16683"/><feBlend in="SourceGraphic" in2="effect1_dropShadow_834_16683" result="shape"/></filter><filter id="v" x="259" y="194" width="63" height="63" filterUnits="userSpaceOnUse" color-interpolation-filters="sRGB"><feFlood flood-opacity="0" result="BackgroundImageFix"/><feColorMatrix in="SourceAlpha" values="0 0 0 0 0 0 0 0 0 0 0 0 0 0 0 0 0 0 127 0" result="hardAlpha"/><feOffset dy="4"/><feGaussianBlur stdDeviation="2"/><feComposite in2="hardAlpha" operator="out"/><feColorMatrix values="0 0 0 0 0 0 0 0 0 0 0 0 0 0 0 0 0 0 0.25 0"/><feBlend in2="BackgroundImageFix" result="effect1_dropShadow_834_16683"/><feBlend in="SourceGraphic" in2="effect1_dropShadow_834_16683" result="shape"/></filter><filter id="c" x="197" y="179.086" width="27.256" height="22.914" filterUnits="userSpaceOnUse" color-interpolation-filters="sRGB"><feFlood flood-opacity="0" result="BackgroundImageFix"/><feColorMatrix in="SourceAlpha" values="0 0 0 0 0 0 0 0 0 0 0 0 0 0 0 0 0 0 127 0" result="hardAlpha"/><feOffset dy="4"/><feGaussianBlur stdDeviation="2"/><feComposite in2="hardAlpha" operator="out"/><feColorMatrix values="0 0 0 0 0 0 0 0 0 0 0 0 0 0 0 0 0 0 0.1 0"/><feBlend in2="BackgroundImageFix" result="effect1_dropShadow_834_16683"/><feBlend in="SourceGraphic" in2="effect1_dropShadow_834_16683" result="shape"/></filter><filter id="A" x="30.308" y="62.289" width="13.84" height="14.688" filterUnits="userSpaceOnUse" color-interpolation-filters="sRGB"><feFlood flood-opacity="0" result="BackgroundImageFix"/><feColorMatrix in="SourceAlpha" values="0 0 0 0 0 0 0 0 0 0 0 0 0 0 0 0 0 0 127 0" result="hardAlpha"/><feOffset dy="4"/><feGaussianBlur stdDeviation="2"/><feComposite in2="hardAlpha" operator="out"/><feColorMatrix values="0 0 0 0 0 0 0 0 0 0 0 0 0 0 0 0 0 0 0.25 0"/><feBlend in2="BackgroundImageFix" result="effect1_dropShadow_834_16683"/><feBlend in="SourceGraphic" in2="effect1_dropShadow_834_16683" result="shape"/></filter><filter id="B" x="26.958" y="66.234" width="13.796" height="12.516" filterUnits="userSpaceOnUse" color-interpolation-filters="sRGB"><feFlood flood-opacity="0" result="BackgroundImageFix"/><feColorMatrix in="SourceAlpha" values="0 0 0 0 0 0 0 0 0 0 0 0 0 0 0 0 0 0 127 0" result="hardAlpha"/><feOffset dy="4"/><feGaussianBlur stdDeviation="2"/><feComposite in2="hardAlpha" operator="out"/><feColorMatrix values="0 0 0 0 0 0 0 0 0 0 0 0 0 0 0 0 0 0 0.1 0"/><feBlend in2="BackgroundImageFix" result="effect1_dropShadow_834_16683"/><feBlend in="SourceGraphic" in2="effect1_dropShadow_834_16683" result="shape"/></filter><filter id="C" x="26.958" y="66.234" width="13.796" height="12.516" filterUnits="userSpaceOnUse" color-interpolation-filters="sRGB"><feFlood flood-opacity="0" result="BackgroundImageFix"/><feColorMatrix in="SourceAlpha" values="0 0 0 0 0 0 0 0 0 0 0 0 0 0 0 0 0 0 127 0" result="hardAlpha"/><feOffset dy="4"/><feGaussianBlur stdDeviation="2"/><feComposite in2="hardAlpha" operator="out"/><feColorMatrix values="0 0 0 0 0 0 0 0 0 0 0 0 0 0 0 0 0 0 0.25 0"/><feBlend in2="BackgroundImageFix" result="effect1_dropShadow_834_16683"/><feBlend in="SourceGraphic" in2="effect1_dropShadow_834_16683" result="shape"/></filter><filter id="D" x="33.352" y="65.383" width="12.516" height="12.539" filterUnits="userSpaceOnUse" color-interpolation-filters="sRGB"><feFlood flood-opacity="0" result="BackgroundImageFix"/><feColorMatrix in="SourceAlpha" values="0 0 0 0 0 0 0 0 0 0 0 0 0 0 0 0 0 0 127 0" result="hardAlpha"/><feOffset dy="4"/><feGaussianBlur stdDeviation="2"/><feComposite in2="hardAlpha" operator="out"/><feColorMatrix values="0 0 0 0 0 0 0 0 0 0 0 0 0 0 0 0 0 0 0.25 0"/><feBlend in2="BackgroundImageFix" result="effect1_dropShadow_834_16683"/><feBlend in="SourceGraphic" in2="effect1_dropShadow_834_16683" result="shape"/></filter><linearGradient id="e" x1="6.457" y1=".317" x2="6.835" y2="3.572" gradientUnits="userSpaceOnUse"><stop stop-color="#fff"/><stop offset="1" stop-color="#DEDEDE"/></linearGradient><linearGradient id="h" x1="290.878" y1="123" x2="238.878" y2="122.536" gradientUnits="userSpaceOnUse"><stop stop-color="#068273"/><stop offset=".625" stop-color="#27B2A1"/><stop offset="1" stop-color="#85E7DB"/></linearGradient><linearGradient id="q" x1="170.325" y1="138.074" x2="155.646" y2="137.944" gradientUnits="userSpaceOnUse"><stop stop-color="#068273"/><stop offset=".625" stop-color="#27B2A1"/><stop offset="1" stop-color="#85E7DB"/></linearGradient><linearGradient id="s" x1="179.377" y1="127.055" x2="159.413" y2="126.482" gradientUnits="userSpaceOnUse"><stop stop-color="#35416B"/><stop offset="1" stop-color="#455F91"/></linearGradient><linearGradient id="u" x1="180.478" y1="133.732" x2="168.001" y2="133.373" gradientUnits="userSpaceOnUse"><stop stop-color="#D76548"/><stop offset="1" stop-color="#EA8083"/></linearGradient><linearGradient id="w" x1="263" y1="194" x2="318" y2="249" gradientUnits="userSpaceOnUse"><stop stop-color="#fff"/><stop offset=".515" stop-color="#9192FF"/><stop offset="1" stop-color="#6264EA"/></linearGradient><linearGradient id="z" x1="29.763" y1="58.765" x2="44.076" y2="78.48" gradientUnits="userSpaceOnUse"><stop stop-color="#F4AAFF"/><stop offset=".5" stop-color="#EE78FF"/><stop offset="1" stop-color="#C705E3"/></linearGradient><radialGradient id="o" cx="0" cy="0" r="1" gradientUnits="userSpaceOnUse" gradientTransform="rotate(45 -76.545 269.294) scale(56.5685)"><stop stop-color="#fff"/><stop offset="1" stop-color="#E6F0FF"/></radialGradient><radialGradient id="x" cx="0" cy="0" r="1" gradientUnits="userSpaceOnUse" gradientTransform="matrix(13.36361 13.99996 -21.7455 20.75709 23.818 57.727)"><stop stop-color="#C9FFDD"/><stop offset=".553" stop-color="#B0FFCD"/><stop offset="1" stop-color="#A7FFC7"/></radialGradient><clipPath id="a"><rect width="336" height="266" rx="30" fill="#fff"/></clipPath></defs></svg>