<svg width="336" height="266" fill="none" xmlns="http://www.w3.org/2000/svg"><g clip-path="url(#a)"><rect width="336" height="266" rx="30" fill="#fff"/><rect width="336" height="266" rx="30" fill="#FFBAA4"/><path d="M148 0v69" stroke="#FFAB91" stroke-width="5" stroke-linecap="round" stroke-linejoin="round" stroke-dasharray="15 15"/><path d="M298.706 219c-.221 4.737-3.051 13.953-12.601 12.92" stroke="#FFAB91" stroke-width="5" stroke-linejoin="round" stroke-dasharray="15 15"/><path d="M37 78.453v73.649M298.705 78.453l.303 76.547M47.663 69h239.413M48.63 163h249.106" stroke="#FFAB91" stroke-width="5" stroke-linecap="round" stroke-linejoin="round" stroke-dasharray="15 15"/><path d="M37 78.387c.221-3.421 3.05-10.075 12.6-9.33M298.706 78.387c-.221-3.421-3.051-10.075-12.601-9.33M37 150c.221 4.737 3.05 13.953 12.6 12.92" stroke="#FFAB91" stroke-width="5" stroke-linejoin="round" stroke-dasharray="15 15"/><path d="M298.706 150v70M148 230v36M159 221h140" stroke="#FFAB91" stroke-width="5" stroke-linecap="round" stroke-linejoin="round" stroke-dasharray="15 15"/><path d="M148 230.387c.221-3.421 3.051-10.075 12.601-9.329" stroke="#FFAB91" stroke-width="5" stroke-linejoin="round" stroke-dasharray="15 15"/><g filter="url(#b)"><circle cx="290.5" cy="221.5" r="27.5" fill="url(#c)"/><g filter="url(#d)"><rect x="275.25" y="208.797" width="26.5" height="22.409" rx="2.75" fill="#fff" stroke="#fff" stroke-width="1.5"/><path d="M300.05 219.286v2.143c5.539 0 8.839 5.071 5.782 8.871l-1.892-1.557c1.424-2.372-.678-5.172-3.89-5.172v2.143l-3.908-3.214 3.908-3.214zm0 15.714v-2.143c-5.54 0-8.84-5.071-5.783-8.871l1.892 1.557c-1.424 2.371.678 5.171 3.891 5.171v-2.143l3.907 3.215L300.05 235zm1.736-27.143h-1.736V205h-3.474v2.857h-13.893V205h-3.473v2.857h-1.737c-.921 0-1.804.301-2.456.837-.651.536-1.017 1.263-1.017 2.02v20c0 .758.366 1.485 1.017 2.021.652.535 1.535.836 2.456.836h15.63a8.825 8.825 0 0 1-2.605-2.857h-13.025v-14.285h24.313v2.271c1.233.157 2.414.5 3.473 1.029v-9.015c0-.757-.366-1.484-1.017-2.02-.651-.536-1.535-.837-2.456-.837zm0 5.714h-24.313v-2.857h24.313" fill="#3766AC"/><path d="M276.5 212v4a2 2 0 0 0 2 2H301a2 2 0 0 0 2-2v-4a2 2 0 0 0-2-2h-22.5a2 2 0 0 0-2 2z" fill="#fff" stroke="#3766AC" stroke-width="2" stroke-linecap="round"/></g><g filter="url(#e)"><circle cx="298.8" cy="227.602" r="10" fill="#fff"/></g><path d="m291.318 233.9 1.282 1.24 1.636-1.574-1.291-1.25m6.055-9.933c-3.009 0-5.455 2.367-5.455 5.279s2.446 5.279 5.455 5.279 5.455-2.367 5.455-5.279c0-2.921-2.446-5.279-5.455-5.279zm7.273 6.159H309v-1.76h-2.727m-2.509 6.784 1.636 1.574 1.282-1.24-1.627-1.584m1.627-10.812-1.282-1.232-1.636 1.575 1.291 1.249m-5.146-5.112h-1.818v2.64h1.818m-5.673 1.223-1.636-1.575-1.282 1.232 1.627 1.592 1.291-1.249zM289 228.542h2.727v-1.76H289m10.909 7.919h-1.818v2.639h1.818" fill="#FBFCC1"/><path d="m291.318 233.9 1.282 1.24 1.636-1.574-1.291-1.25m13.328-3.774H309v-1.76h-2.727m-2.509 6.784 1.636 1.574 1.282-1.24-1.627-1.584m1.627-10.812-1.282-1.232-1.636 1.575 1.291 1.249m-5.146-5.112h-1.818v2.64h1.818M289 228.542h2.727v-1.76H289m10.909 7.919h-1.818v2.639h1.818M299 222.383c-3.009 0-5.455 2.367-5.455 5.279s2.446 5.279 5.455 5.279 5.455-2.367 5.455-5.279c0-2.921-2.446-5.279-5.455-5.279zm-4.764-.536-1.636-1.575-1.282 1.232 1.627 1.592 1.291-1.249zM299.66 234.492v3M299.66 217.75v3" stroke="#FFA800" stroke-width=".5"/><path transform="scale(-1.01624 -.9835) rotate(-45 -429.211 230.028)" stroke="#FFA800" stroke-width=".5" d="M0-.25h2.657"/><path transform="scale(-1.01624 -.9835) rotate(-45 -435.165 244.4)" stroke="#FFA800" stroke-width=".5" d="M0-.25h2.165"/><path transform="matrix(-.70634 .70787 -.7306 -.6828 306.284 221.219)" stroke="#FFA800" stroke-width=".5" d="M0-.25h2.459"/><path stroke="#FFA800" stroke-width=".5" d="M289.25 228.781v-2.226M306.52 228.781v-2.226"/></g><path d="m199.444 114.742-13.462-7.379-27.773 17.106 11.044 6.191 30.191-15.918zM181.462 104.906l-12.584-6.895-29.256 16 12.54 7.079 29.3-16.184z" fill="#019444"/><path d="m185.983 107.357-5.268-2.862-22.795 12.868 5.303 4.24 22.76-14.246zM194.754 123.313l-7.198-3.603-7.863 4.576 6.598 3.712 8.463-4.685z" fill="#019444"/><path d="m109.559 130.474 29.312 17.15-.086 6.916-29.226-17.196v-6.87z" fill="#FEC5C7"/><path d="m169.181 131.422-12.13 7.17-.088 6.486 12.116-7.364.102-6.292z" fill="#FF8E92"/><path d="m109.563 130.461 30.11-16.459 29.653 16.737-30.058 17.133-29.705-17.411z" fill="#FF686C"/><path d="m149.683 121.846 8.208-4.464 7.383 3.735-8.383 4.705-7.208-3.976z" fill="#FF686C"/><path d="m169.298 130.781 12.928-7.092 29.626 17.522-12.933 7.093-29.621-17.523zM188.484 120.359l10.465-5.901 30.956 16.778-11.755 6.437-29.666-17.314z" fill="#F3FC77"/><path d="m186.816 127.444 7.51-4.175 24.619 14.182-6.827 3.897-25.302-13.904z" fill="#F3FC77"/><path d="m173.631 140.245 5.728 3.296.013 6.591-5.744-3.295.003-6.592z" fill="#FFF881"/><path d="m189.945 142.029-8.467-6.556-7.779 4.886 8.371 6.315 7.875-4.645z" fill="#F3FC77"/><path d="m229.794 131.195-30.802 17.122-.142 6.899 30.959-16.958-.015-7.063z" fill="#DEE949"/><path d="m160.955 135.789-6.169-3.236-7.156 4.2 5.398 3.208 7.927-4.172z" fill="#73ABFF"/><path d="m159.663 142.606.002-6.279-6.492 3.809-.003 6.863 6.493-4.393z" fill="#D9D9D9"/><path d="m176.426 149.174 12.399-7.52 11.178 6.126-13.189 7.775-10.388-6.381z" fill="#73ABFF"/><path d="m138.736 147.555 24.307-13.012 30.455 16.682-25.436 13.786-29.326-17.456z" fill="#73ABFF"/><path d="m157.055 137.529 12.334-6.798 11.12 6.391-12.502 7.126-10.952-6.719z" fill="#73ABFF"/><path d="m138.743 147.551 29.315 17.383v7.149l-29.314-17.569-.001-6.963z" fill="#9AC0FF"/><path d="m200.003 147.758-31.956 17.184v7.144l31.97-17.523-.014-6.805z" fill="#3875D1"/><g filter="url(#f)"><path d="M163.254 119.986c0-.57.226-1.117.628-1.52a2.136 2.136 0 0 1 3.03 0c.402.403.628.95.628 1.52v8.712a1 1 0 0 0 .893.995l1.544.166a.976.976 0 0 1 .299.081l10.443 4.644c1.135.516 1.821 1.656 1.821 2.903v9.374a3.331 3.331 0 0 1-3.214 3.225h-13.929a2.897 2.897 0 0 1-2.143-.925l-9.7-8.342a1.001 1.001 0 0 1-.07-1.45l.856-.893a2.12 2.12 0 0 1 1.586-.688h.219c.165 0 .329.041.474.12l5.161 2.783a1 1 0 0 0 1.474-.881v-19.824zm2.143-8.6c2.273 0 4.454.906 6.061 2.519a8.613 8.613 0 0 1 2.511 6.081c0 2.594-1.11 4.868-2.882 6.431-.577.509-1.404.046-1.404-.723v-.448c0-.283.122-.549.319-.753a6.481 6.481 0 0 0 1.824-4.507 6.464 6.464 0 0 0-1.883-4.561 6.417 6.417 0 0 0-9.092 0 6.477 6.477 0 0 0-.058 9.068c.196.204.318.47.318.753v.448c0 .769-.826 1.232-1.404.723-1.772-1.563-2.881-3.837-2.881-6.431 0-2.281.903-4.468 2.51-6.081a8.558 8.558 0 0 1 6.061-2.519zm0-4.3c3.41 0 6.68 1.359 9.092 3.778a12.923 12.923 0 0 1 3.765 9.122 12.95 12.95 0 0 1-3.467 8.82.955.955 0 0 1-1.098.209l-.056-.026c-.675-.305-.8-1.221-.305-1.771a10.781 10.781 0 0 0-.355-14.833 10.695 10.695 0 0 0-7.576-3.149 10.697 10.697 0 0 0-7.576 3.149 10.769 10.769 0 0 0-3.138 7.601c0 4.174 2.364 7.79 5.837 9.567.354.181.591.537.591.935v.248c0 .691-.685 1.172-1.307.868-4.298-2.096-7.264-6.51-7.264-11.618 0-3.421 1.355-6.703 3.766-9.122a12.835 12.835 0 0 1 9.091-3.778z" fill="#fff"/><path d="m180.925 134.129-.003-.001-10.443-4.645a1.481 1.481 0 0 0-.448-.121l-1.545-.166a.501.501 0 0 1-.446-.498v-8.712c0-.702-.278-1.376-.773-1.873a2.642 2.642 0 0 0-4.513 1.873v19.824a.5.5 0 0 1-.737.441l-5.16-2.783a1.502 1.502 0 0 0-.712-.18h-.219c-.728 0-1.443.287-1.952.847l-.851.889.361.345-.361-.345a1.499 1.499 0 0 0 .105 2.174l9.68 8.325a3.396 3.396 0 0 0 2.489 1.063H179.344a3.833 3.833 0 0 0 3.696-3.707V137.487c0-1.43-.788-2.755-2.115-3.358zm-21.34-2.075.219-.45-.219.45c.994.485 2.026-.304 2.026-1.318v-.248a1.56 1.56 0 0 0-.863-1.38 10.226 10.226 0 0 1-5.565-9.122c0-2.719 1.076-5.326 2.992-7.248a10.19 10.19 0 0 1 14.444 0 10.28 10.28 0 0 1 .338 14.145c-.686.761-.562 2.096.47 2.562l.057.025a1.455 1.455 0 0 0 1.671-.324c2.223-2.407 3.599-5.618 3.599-9.16 0-3.553-1.407-6.962-3.911-9.475a13.337 13.337 0 0 0-9.446-3.925 13.333 13.333 0 0 0-9.445 3.925 13.422 13.422 0 0 0-3.912 9.475c0 5.307 3.081 9.89 7.545 12.068zm12.227-18.502a9.055 9.055 0 0 0-12.83 0 9.115 9.115 0 0 0-2.656 6.434c0 2.742 1.174 5.151 3.051 6.806.454.4 1.032.424 1.484.184.441-.234.75-.712.75-1.282v-.448c0-.43-.185-.817-.458-1.1a5.977 5.977 0 0 1 .053-8.368 5.915 5.915 0 0 1 8.383 0 5.961 5.961 0 0 1 1.737 4.208 5.981 5.981 0 0 1-1.684 4.16c-.273.283-.459.67-.459 1.1v.448c0 .57.309 1.048.751 1.282.451.24 1.03.216 1.484-.184 1.877-1.655 3.051-4.064 3.051-6.806a9.116 9.116 0 0 0-2.657-6.434z" stroke="#000"/></g><path d="M175.441 68.267c.041-1.795 1.531-3.224 3.322-3.092a64.997 64.997 0 0 1 56.498 43.097c.6 1.692-.385 3.507-2.104 4.021-1.72.515-3.522-.466-4.132-2.154a58.502 58.502 0 0 0-50.415-38.457c-1.789-.142-3.211-1.62-3.169-3.415z" fill="#6AD1F7"/><path d="M233.801 114.61c1.739-.447 3.519.598 3.879 2.357a64.997 64.997 0 0 1-19.779 60.968c-1.324 1.212-3.379 1.013-4.523-.37-1.145-1.382-.945-3.424.372-4.644a58.5 58.5 0 0 0 17.626-54.332c-.35-1.761.687-3.531 2.425-3.979z" fill="#4D87D9"/><path d="M208.867 180.964c1.013 1.482.638 3.512-.892 4.45a65.003 65.003 0 0 1-68.254-.188c-1.525-.946-1.889-2.978-.868-4.454 1.022-1.476 3.042-1.836 4.572-.898a58.507 58.507 0 0 0 60.875.168c1.535-.93 3.553-.559 4.567.922z" fill="#897CE4"/><path d="M135.526 178.299c-1.118 1.404-3.169 1.642-4.515.455a65.003 65.003 0 0 1-20.608-62.185c.371-1.756 2.157-2.791 3.893-2.332 1.735.458 2.761 2.235 2.4 3.993a58.504 58.504 0 0 0 18.371 55.433c1.339 1.194 1.578 3.233.459 4.636z" fill="#ED66A8"/><path d="M115.637 109.831c-1.697-.586-2.604-2.441-1.934-4.106a64.994 64.994 0 0 1 53.564-40.375c1.786-.186 3.318 1.197 3.415 2.99.096 1.792-1.28 3.313-3.064 3.51a58.502 58.502 0 0 0-47.763 36.002c-.68 1.661-2.522 2.565-4.218 1.979z" fill="#78E3C2"/><g filter="url(#g)"><path d="M230.941 59h2.118v2.028h.529c.421 0 .825.16 1.123.446.298.285.465.672.465 1.076v3.55l-.465.446 1.736 2.88c1.175-1.106 1.906-2.637 1.906-4.34h2.118c0 2.454-1.133 4.654-2.933 6.145l3.324 5.518L241 79l-1.98-1.237-3.251-5.406a8.744 8.744 0 0 1-3.769.842 8.744 8.744 0 0 1-3.769-.842l-3.251 5.406L223 79l.138-2.251 6.151-10.203-.465-.447v-3.55c0-.403.167-.79.465-1.075a1.625 1.625 0 0 1 1.123-.446h.529V59zm-1.652 11.592a6.545 6.545 0 0 0 2.711.578c.964 0 1.885-.203 2.711-.578l-1.546-2.566h-.011a1.687 1.687 0 0 1-2.308 0h-.011l-1.546 2.566zM232 63.057c-.281 0-.55.107-.749.297a.995.995 0 0 0-.31.717c0 .269.112.527.31.717.199.19.468.297.749.297.281 0 .55-.107.749-.297a.995.995 0 0 0 .31-.717.995.995 0 0 0-.31-.717 1.084 1.084 0 0 0-.749-.297z" fill="#6AD1F6"/><path d="M230.941 58.75h-.25v2.028h-.279c-.484 0-.951.184-1.296.515a1.739 1.739 0 0 0-.542 1.257V66.206l.077.074.321.308-6.048 10.031-.032.053-.004.061-.138 2.252-.029.484.411-.257 1.98-1.237.051-.032.031-.052 3.135-5.213a9.026 9.026 0 0 0 3.671.77c1.31 0 2.564-.276 3.671-.77l3.135 5.213.031.052.051.032 1.98 1.237.411.257-.029-.484-.138-2.252-.004-.061-.032-.053-3.215-5.335c1.758-1.531 2.86-3.74 2.86-6.199v-.25h-2.618v.25c0 1.52-.608 2.9-1.606 3.94l-1.469-2.437.321-.308.077-.074V62.55c0-.473-.196-.924-.542-1.256a1.874 1.874 0 0 0-1.296-.515h-.279V58.75h-2.368zM232 70.92a6.32 6.32 0 0 1-2.348-.445l1.254-2.081a1.934 1.934 0 0 0 2.188 0l1.254 2.081a6.32 6.32 0 0 1-2.348.445zm-.576-7.386a.833.833 0 0 1 .576-.227c.218 0 .425.083.576.227.15.145.233.338.233.537 0 .2-.083.392-.233.537a.833.833 0 0 1-.576.227.833.833 0 0 1-.576-.227.745.745 0 0 1-.233-.537c0-.2.083-.392.233-.537z" stroke="#0B7FAA" stroke-width=".5"/></g><g filter="url(#h)"><path d="M251 139v-4l-5.625 5 5.625 5v-4c1.79 0 3.507.632 4.773 1.757 1.266 1.126 1.977 2.652 1.977 4.243 0 1.591-.711 3.117-1.977 4.243C254.507 152.368 252.79 153 251 153c-1.79 0-3.507-.632-4.773-1.757-1.266-1.126-1.977-2.652-1.977-4.243H242c0 2.122.948 4.157 2.636 5.657 1.688 1.5 3.977 2.343 6.364 2.343s4.676-.843 6.364-2.343c1.688-1.5 2.636-3.535 2.636-5.657s-.948-4.157-2.636-5.657c-1.688-1.5-3.977-2.343-6.364-2.343z" fill="#4D87D9"/><path d="M251.25 145v-3.746c1.641.056 3.198.66 4.357 1.69 1.216 1.081 1.893 2.541 1.893 4.056 0 1.515-.677 2.975-1.893 4.056-1.217 1.082-2.874 1.694-4.607 1.694s-3.39-.612-4.607-1.694c-1.216-1.081-1.893-2.541-1.893-4.056v-.25h-2.75v.25c0 2.198.983 4.299 2.72 5.844 1.736 1.543 4.086 2.406 6.53 2.406s4.794-.863 6.53-2.406c1.737-1.545 2.72-3.646 2.72-5.844 0-2.198-.983-4.299-2.72-5.844-1.677-1.49-3.926-2.346-6.28-2.403V134.443l-.416.37-5.625 5-.21.187.21.187 5.625 5 .416.37V145z" stroke="#1B509C" stroke-width=".5"/></g><g filter="url(#i)" stroke="#33268F" stroke-width=".5"><path fill="#FFEB84" d="M172.25 202.914h7.5v8.833h-7.5z"/><path d="M166.579 211.361h1.436v3.083a2.478 2.478 0 0 0 2.498 2.473h.874v3.333h8.367v-5.304c2.669-1.311 4.496-4.012 4.496-7.168 0-4.429-3.621-8.028-8.117-8.028-4.343 0-7.854 3.34-8.113 7.559l-2.11 2.748v.001c-.406.519.003 1.303.669 1.303zm10.989-1.611h-2.871v-1.473l-.126-.072c-1.49-.855-2.005-2.735-1.145-4.189.864-1.463 2.783-1.997 4.269-1.154a3.088 3.088 0 0 1 1.144 4.233c-.27.452-.665.842-1.143 1.109l-.128.072v1.474zm-2.309 2.222v-.611h1.747v.611h-1.747z" fill="#897CE4"/></g><g filter="url(#j)" fill="#ED66A8" stroke="#B61A66" stroke-width=".5"><path d="m75.307 144.717-3.482.391-1.435-3.21-.232-.518-.226.52-1.4 3.221-3.506-.368-.565-.06.338.457 2.087 2.819-2.065 2.853-.331.458.562-.063 3.482-.392 1.435 3.211.231.518.227-.52 1.4-3.222 3.505.369.566.06-.338-.457-2.087-2.819 2.064-2.853.332-.458-.562.063zM89.627 144.717l-3.482.391-1.435-3.21-.231-.518-.227.52-1.4 3.221-3.505-.368-.566-.06.338.457 2.087 2.819-2.064 2.853-.332.458.562-.063 3.482-.392 1.435 3.211.232.518.226-.52 1.4-3.222 3.506.369.565.06-.338-.457-2.087-2.819 2.065-2.853.331-.458-.562.063zM103.948 144.717l-3.482.391-1.435-3.21-.231-.518-.226.52-1.401 3.221-3.505-.368-.566-.06.339.457 2.087 2.819-2.065 2.853-.332.458.562-.063 3.483-.392 1.435 3.211.231.518.226-.52 1.401-3.222 3.505.369.565.06-.338-.457-2.087-2.819 2.065-2.853.331-.458-.562.063z"/></g><g filter="url(#k)"><mask id="l" maskUnits="userSpaceOnUse" x="104" y="57.305" width="27" height="22" fill="#000"><path fill="#fff" d="M104 57.305h27v22h-27z"/><path d="M117.784 58.305 106 64.87l11.784 6.565 9.641-5.373v7.561h2.143V64.87m-19.283 4.573v4.377l7.499 4.18 7.499-4.18v-4.376l-7.499 4.18-7.499-4.18z"/></mask><path d="M117.784 58.305 106 64.87l11.784 6.565 9.641-5.373v7.561h2.143V64.87m-19.283 4.573v4.377l7.499 4.18 7.499-4.18v-4.376l-7.499 4.18-7.499-4.18z" fill="#78E3C2"/><path d="m106 64.87-.243-.437-.784.437.784.437.243-.437zm11.784 6.565-.243.437.243.135.243-.135-.243-.437zm9.641-5.373h.5v-.85l-.743.414.243.436zm0 7.561h-.5v.5h.5v-.5zm2.143 0v.5h.5v-.5h-.5zm-19.283-4.18.244-.436-.744-.415v.852h.5zm0 4.377h-.5v.294l.257.143.243-.437zm7.499 4.18-.243.437.243.136.243-.136-.243-.437zm7.499-4.18.243.437.257-.143v-.294h-.5zm0-4.376h.5v-.852l-.744.415.244.436zm-7.499 4.18-.243.436.243.136.243-.136-.243-.437zm-.243-15.756-11.784 6.565.486.874 11.784-6.566-.486-.873zm-11.784 7.439 11.784 6.565.486-.874-11.784-6.565-.486.874zm12.27 6.565 9.642-5.373-.487-.873-9.641 5.372.486.874zm8.898-5.81v7.561h1v-7.56h-1zm.5 8.061h2.143v-1h-2.143v1zm2.643-.5V64.87h-1v8.753h1zm-20.283-4.18v4.377h1v-4.376h-1zm.257 4.814 7.499 4.18.486-.874-7.498-4.18-.487.874zm7.985 4.18 7.499-4.18-.487-.874-7.498 4.18.486.874zm7.756-4.617v-4.376h-1v4.376h1zm-.744-4.813-7.498 4.18.486.873 7.499-4.18-.487-.873zm-7.012 4.18-7.498-4.18-.487.873 7.499 4.18.486-.873z" fill="#03AF75" mask="url(#l)"/><path d="m117.469 58 12.53 7.124" stroke="#03AF75" stroke-width=".5" stroke-linecap="round"/></g><g filter="url(#m)"><circle cx="29.5" cy="69.5" r="17.5" fill="url(#n)"/><g filter="url(#o)"><rect x="18" y="59.273" width="23" height="13.906" rx="3" fill="#fff" stroke="#D84949" stroke-width="2"/><mask id="p" maskUnits="userSpaceOnUse" x="24.2" y="66.016" width="11" height="9" fill="#000"><path fill="#fff" d="M24.2 66.016h11v9h-11z"/><path d="M32.8 72.183c0-.548-.085-1.09-.251-1.595a4.367 4.367 0 0 0-.715-1.352 3.367 3.367 0 0 0-1.07-.903c-.401-.21-.83-.317-1.264-.317-.433 0-.862.107-1.263.317-.4.21-.764.516-1.07.903a4.37 4.37 0 0 0-.716 1.352 5.134 5.134 0 0 0-.25 1.595h6.6z"/></mask><path d="M32.8 72.183c0-.548-.085-1.09-.251-1.595a4.367 4.367 0 0 0-.715-1.352 3.367 3.367 0 0 0-1.07-.903c-.401-.21-.83-.317-1.264-.317-.433 0-.862.107-1.263.317-.4.21-.764.516-1.07.903a4.37 4.37 0 0 0-.716 1.352 5.134 5.134 0 0 0-.25 1.595h6.6z" stroke="#fff" stroke-width="4" mask="url(#p)"/><path d="M22.942 65.745c1.096 0 2.077-.81 2.077-1.92 0-1.107-.98-1.919-2.077-1.919-1.096 0-2.077.812-2.077 1.92 0 1.108.98 1.92 2.077 1.92z" fill="#FBFCC1" stroke="#FFA800"/><path d="M37.133 64.326c.661 0 1.288-.494 1.288-1.21s-.627-1.21-1.288-1.21c-.66 0-1.288.494-1.288 1.21s.627 1.21 1.288 1.21z" fill="#71207D" stroke="#38A627"/><path d="M29.5 67.422c.756 0 1.48.298 2.015.828.535.53.835 1.25.835 2s-.3 1.469-.835 2c-.534.53-1.26.827-2.015.827-.756 0-1.481-.298-2.015-.828a2.817 2.817 0 0 1-.835-2c0-.75.3-1.469.835-1.999a2.861 2.861 0 0 1 2.015-.828zm0 6.272c3.15 0 5.7 2.063 5.7 3.625v1.414H23.8v-1.414c0-1.562 2.55-3.625 5.7-3.625z" fill="#131457"/></g></g></g><defs><filter id="j" x="59.922" y="140.758" width="49.157" height="22.414" filterUnits="userSpaceOnUse" color-interpolation-filters="sRGB"><feFlood flood-opacity="0" result="BackgroundImageFix"/><feColorMatrix in="SourceAlpha" values="0 0 0 0 0 0 0 0 0 0 0 0 0 0 0 0 0 0 127 0" result="hardAlpha"/><feOffset dy="4"/><feGaussianBlur stdDeviation="2"/><feComposite in2="hardAlpha" operator="out"/><feColorMatrix values="0 0 0 0 0 0 0 0 0 0 0 0 0 0 0 0 0 0 0.25 0"/><feBlend in2="BackgroundImageFix" result="effect1_dropShadow_850_15962"/><feBlend in="SourceGraphic" in2="effect1_dropShadow_850_15962" result="shape"/></filter><filter id="b" x="259" y="194" width="63" height="63" filterUnits="userSpaceOnUse" color-interpolation-filters="sRGB"><feFlood flood-opacity="0" result="BackgroundImageFix"/><feColorMatrix in="SourceAlpha" values="0 0 0 0 0 0 0 0 0 0 0 0 0 0 0 0 0 0 127 0" result="hardAlpha"/><feOffset dy="4"/><feGaussianBlur stdDeviation="2"/><feComposite in2="hardAlpha" operator="out"/><feColorMatrix values="0 0 0 0 0 0 0 0 0 0 0 0 0 0 0 0 0 0 0.25 0"/><feBlend in2="BackgroundImageFix" result="effect1_dropShadow_850_15962"/><feBlend in="SourceGraphic" in2="effect1_dropShadow_850_15962" result="shape"/></filter><filter id="e" x="284.8" y="217.602" width="28" height="28" filterUnits="userSpaceOnUse" color-interpolation-filters="sRGB"><feFlood flood-opacity="0" result="BackgroundImageFix"/><feColorMatrix in="SourceAlpha" values="0 0 0 0 0 0 0 0 0 0 0 0 0 0 0 0 0 0 127 0" result="hardAlpha"/><feOffset dy="4"/><feGaussianBlur stdDeviation="2"/><feComposite in2="hardAlpha" operator="out"/><feColorMatrix values="0 0 0 0 0 0 0 0 0 0 0 0 0 0 0 0 0 0 0.25 0"/><feBlend in2="BackgroundImageFix" result="effect1_dropShadow_850_15962"/><feBlend in="SourceGraphic" in2="effect1_dropShadow_850_15962" result="shape"/></filter><filter id="f" x="147.54" y="106.086" width="40" height="53" filterUnits="userSpaceOnUse" color-interpolation-filters="sRGB"><feFlood flood-opacity="0" result="BackgroundImageFix"/><feColorMatrix in="SourceAlpha" values="0 0 0 0 0 0 0 0 0 0 0 0 0 0 0 0 0 0 127 0" result="hardAlpha"/><feOffset dy="4"/><feGaussianBlur stdDeviation="2"/><feComposite in2="hardAlpha" operator="out"/><feColorMatrix values="0 0 0 0 0 0 0 0 0 0 0 0 0 0 0 0 0 0 0.25 0"/><feBlend in2="BackgroundImageFix" result="effect1_dropShadow_850_15962"/><feBlend in="SourceGraphic" in2="effect1_dropShadow_850_15962" result="shape"/></filter><filter id="g" x="218.441" y="58.5" width="27.117" height="29.438" filterUnits="userSpaceOnUse" color-interpolation-filters="sRGB"><feFlood flood-opacity="0" result="BackgroundImageFix"/><feColorMatrix in="SourceAlpha" values="0 0 0 0 0 0 0 0 0 0 0 0 0 0 0 0 0 0 127 0" result="hardAlpha"/><feOffset dy="4"/><feGaussianBlur stdDeviation="2"/><feComposite in2="hardAlpha" operator="out"/><feColorMatrix values="0 0 0 0 0 0 0 0 0 0 0 0 0 0 0 0 0 0 0.25 0"/><feBlend in2="BackgroundImageFix" result="effect1_dropShadow_850_15962"/><feBlend in="SourceGraphic" in2="effect1_dropShadow_850_15962" result="shape"/></filter><filter id="h" x="237.5" y="133.883" width="27" height="29.617" filterUnits="userSpaceOnUse" color-interpolation-filters="sRGB"><feFlood flood-opacity="0" result="BackgroundImageFix"/><feColorMatrix in="SourceAlpha" values="0 0 0 0 0 0 0 0 0 0 0 0 0 0 0 0 0 0 127 0" result="hardAlpha"/><feOffset dy="4"/><feGaussianBlur stdDeviation="2"/><feComposite in2="hardAlpha" operator="out"/><feColorMatrix values="0 0 0 0 0 0 0 0 0 0 0 0 0 0 0 0 0 0 0.25 0"/><feBlend in2="BackgroundImageFix" result="effect1_dropShadow_850_15962"/><feBlend in="SourceGraphic" in2="effect1_dropShadow_850_15962" result="shape"/></filter><filter id="i" x="161.496" y="199.5" width="27.004" height="29" filterUnits="userSpaceOnUse" color-interpolation-filters="sRGB"><feFlood flood-opacity="0" result="BackgroundImageFix"/><feColorMatrix in="SourceAlpha" values="0 0 0 0 0 0 0 0 0 0 0 0 0 0 0 0 0 0 127 0" result="hardAlpha"/><feOffset dy="4"/><feGaussianBlur stdDeviation="2"/><feComposite in2="hardAlpha" operator="out"/><feColorMatrix values="0 0 0 0 0 0 0 0 0 0 0 0 0 0 0 0 0 0 0.25 0"/><feBlend in2="BackgroundImageFix" result="effect1_dropShadow_850_15962"/><feBlend in="SourceGraphic" in2="effect1_dropShadow_850_15962" result="shape"/></filter><filter id="d" x="270" y="205" width="41" height="38" filterUnits="userSpaceOnUse" color-interpolation-filters="sRGB"><feFlood flood-opacity="0" result="BackgroundImageFix"/><feColorMatrix in="SourceAlpha" values="0 0 0 0 0 0 0 0 0 0 0 0 0 0 0 0 0 0 127 0" result="hardAlpha"/><feOffset dy="4"/><feGaussianBlur stdDeviation="2"/><feComposite in2="hardAlpha" operator="out"/><feColorMatrix values="0 0 0 0 0 0 0 0 0 0 0 0 0 0 0 0 0 0 0.25 0"/><feBlend in2="BackgroundImageFix" result="effect1_dropShadow_850_15962"/><feBlend in="SourceGraphic" in2="effect1_dropShadow_850_15962" result="shape"/></filter><filter id="k" x="100.973" y="57.75" width="33.276" height="28.82" filterUnits="userSpaceOnUse" color-interpolation-filters="sRGB"><feFlood flood-opacity="0" result="BackgroundImageFix"/><feColorMatrix in="SourceAlpha" values="0 0 0 0 0 0 0 0 0 0 0 0 0 0 0 0 0 0 127 0" result="hardAlpha"/><feOffset dy="4"/><feGaussianBlur stdDeviation="2"/><feComposite in2="hardAlpha" operator="out"/><feColorMatrix values="0 0 0 0 0 0 0 0 0 0 0 0 0 0 0 0 0 0 0.25 0"/><feBlend in2="BackgroundImageFix" result="effect1_dropShadow_850_15962"/><feBlend in="SourceGraphic" in2="effect1_dropShadow_850_15962" result="shape"/></filter><filter id="m" x="8" y="52" width="43" height="43" filterUnits="userSpaceOnUse" color-interpolation-filters="sRGB"><feFlood flood-opacity="0" result="BackgroundImageFix"/><feColorMatrix in="SourceAlpha" values="0 0 0 0 0 0 0 0 0 0 0 0 0 0 0 0 0 0 127 0" result="hardAlpha"/><feOffset dy="4"/><feGaussianBlur stdDeviation="2"/><feComposite in2="hardAlpha" operator="out"/><feColorMatrix values="0 0 0 0 0 0 0 0 0 0 0 0 0 0 0 0 0 0 0.25 0"/><feBlend in2="BackgroundImageFix" result="effect1_dropShadow_850_15962"/><feBlend in="SourceGraphic" in2="effect1_dropShadow_850_15962" result="shape"/></filter><filter id="o" x="13" y="58.273" width="33" height="28.461" filterUnits="userSpaceOnUse" color-interpolation-filters="sRGB"><feFlood flood-opacity="0" result="BackgroundImageFix"/><feColorMatrix in="SourceAlpha" values="0 0 0 0 0 0 0 0 0 0 0 0 0 0 0 0 0 0 127 0" result="hardAlpha"/><feOffset dy="4"/><feGaussianBlur stdDeviation="2"/><feComposite in2="hardAlpha" operator="out"/><feColorMatrix values="0 0 0 0 0 0 0 0 0 0 0 0 0 0 0 0 0 0 0.25 0"/><feBlend in2="BackgroundImageFix" result="effect1_dropShadow_850_15962"/><feBlend in="SourceGraphic" in2="effect1_dropShadow_850_15962" result="shape"/></filter><linearGradient id="c" x1="263" y1="194" x2="318" y2="249" gradientUnits="userSpaceOnUse"><stop stop-color="#BCF8E9"/><stop offset=".515" stop-color="#65E5C5"/><stop offset="1" stop-color="#4DCDAD"/></linearGradient><linearGradient id="n" x1="12" y1="52" x2="47" y2="87" gradientUnits="userSpaceOnUse"><stop stop-color="#FFCEBE"/><stop offset=".515" stop-color="#FE916F"/><stop offset="1" stop-color="#FF5E2B"/></linearGradient><clipPath id="a"><rect width="336" height="266" rx="30" fill="#fff"/></clipPath></defs></svg>