<svg width="352" height="282" fill="none" xmlns="http://www.w3.org/2000/svg"><g filter="url(#a)"><g clip-path="url(#b)"><rect x="6" y="6" width="336" height="266" rx="30" fill="#fff"/><rect x="6" y="6" width="336" height="266" rx="30" fill="#65E5C5"/><path d="M154 6v69" stroke="#5ED3B6" stroke-width="5" stroke-linecap="round" stroke-linejoin="round" stroke-dasharray="15 15"/><path d="M304.706 225c-.221 4.737-3.051 13.953-12.601 12.92" stroke="#5ED3B6" stroke-width="5" stroke-linejoin="round" stroke-dasharray="15 15"/><path d="M43 84.453v73.649M304.705 84.453l.303 76.547M53.663 75h239.413M54.63 169h249.106" stroke="#5ED3B6" stroke-width="5" stroke-linecap="round" stroke-linejoin="round" stroke-dasharray="15 15"/><path d="M43 84.387c.221-3.421 3.05-10.075 12.6-9.33M304.706 84.387c-.221-3.421-3.051-10.075-12.601-9.33M43 156c.221 4.737 3.05 13.953 12.6 12.92" stroke="#5ED3B6" stroke-width="5" stroke-linejoin="round" stroke-dasharray="15 15"/><path d="M304.706 156v70M154 236v36M165 227h140" stroke="#5ED3B6" stroke-width="5" stroke-linecap="round" stroke-linejoin="round" stroke-dasharray="15 15"/><path d="M154 236.387c.221-3.421 3.051-10.075 12.601-9.329" stroke="#5ED3B6" stroke-width="5" stroke-linejoin="round" stroke-dasharray="15 15"/><g filter="url(#c)"><circle cx="296.5" cy="227.5" r="27.5" fill="url(#d)"/><g filter="url(#e)"><path d="M299.561 240.969c5.147-1.057 12.74-4.089 1.93-7.755-10.809-3.666-6.959-2.454-6.572-2.102-11.582-1.41-12.344-6.363-5.781-8.12 7.409-1.985 15.056-5.645 7.721-8.461-5.319-2.041-10.037 2.233-11.582 4.23M299.445 240.969h-10.561" stroke="#5B5B5B" stroke-width="2" stroke-linecap="round"/><path d="m297.491 217.68 1.038 1.339-13.948 16.905-1.038-1.34 13.948-16.904zM302.057 223.578l.833 1.076-14.283 17.314-.834-1.076 14.284-17.314z" fill="#D32F2F"/><path d="m298.537 219.016 1.876 2.42-13.657 16.551-1.876-2.42 13.657-16.551z" fill="#FF4141"/><path d="m300.403 221.438 1.661 2.142-13.29 16.106-1.66-2.143 13.289-16.105z" fill="#F15050"/><path d="m283.052 239.851.121-4.823.442-.536h2.144l-.054 2.144h2.144l-.054 2.143 1.273.536-.054 2.144-.442.536h-3.859l-1.661-2.144z" fill="#FFDFAE"/><path d="m282.998 241.996.054-2.144 1.661 2.144h-1.715z" fill="#000"/><path d="M301.528 212.781c.355-.431.915-.431 1.249 0l4.195 5.413c.334.431.316 1.13-.039 1.561l-3.004 3.64-5.405-6.974 3.004-3.64z" fill="#FF8CB5"/></g></g><g filter="url(#f)"><rect x="134.5" y="59.5" width="78" height="159.278" rx="8.5" fill="#fff" stroke="#9E9E9E"/><path fill="#D9D9D9" stroke="#979899" stroke-width=".5" d="M143.917 70.75h5.389v5.389h-5.389z"/><path stroke="#979899" stroke-width=".5" d="m144.344 70.823 4.889 4.889M144.344 70.823l4.889 4.889M149.232 71.177l-4.888 4.889M149.232 71.177l-4.888 4.889"/><path fill="#D9D9D9" stroke="#979899" stroke-width=".5" d="M197.694 70.75h5.389v5.389h-5.389z"/><path stroke="#979899" stroke-width=".5" d="m198.121 70.823 4.889 4.889M198.121 70.823l4.889 4.889M203.01 71.177l-4.889 4.889M203.01 71.177l-4.889 4.889"/><circle cx="173.5" cy="100.943" r="13.083" fill="#F3F3F3" stroke="#979899" stroke-width=".5"/><circle cx="180.223" cy="96.663" r="2.444" fill="#D9D9D9"/><path d="M169.956 98.275c.778-1.287 2.645-1.287 3.423 0l2.274 3.76c.807 1.333-.153 3.035-1.711 3.035h-4.549c-1.558 0-2.518-1.702-1.711-3.035l2.274-3.76z" fill="#D9D9D9"/><path d="M173.657 100.473a2 2 0 0 1 3.354 0l1.079 1.662c.865 1.33-.09 3.089-1.677 3.089h-2.158c-1.587 0-2.542-1.759-1.678-3.089l1.08-1.662z" fill="#D9D9D9"/><rect x="158.221" y="122.32" width="18.333" height="3.667" rx="1.833" fill="#9B9B9B"/><rect x="177.776" y="122.32" width="10.389" height="3.667" rx="1.833" fill="#9B9B9B"/><rect x="149.056" y="201.164" width="33" height="3.667" rx="1.833" fill="#D9D9D9"/><rect x="183.277" y="201.164" width="13.444" height="3.667" rx="1.833" fill="#9B9B9B"/><path fill="#F3F3F3" stroke="#979899" stroke-width=".5" d="M143.917 135.531h59.167v29.833h-59.167z"/><rect x="147.583" y="186.25" width="51.222" height="9.056" rx="1.25" fill="#F3F3F3" stroke="#979899" stroke-width=".5"/><rect x="145.389" y="139.445" width="22" height="3.056" rx="1.528" fill="#C7C7C7"/><rect x="183.277" y="157.172" width="17.722" height="3.056" rx="1.528" fill="#E2E2E2"/><rect x="183.277" y="157.172" width="17.722" height="3.056" rx="1.528" fill="#E2E2E2"/><rect x="183.277" y="157.172" width="17.722" height="3.056" rx="1.528" fill="#E2E2E2"/><rect x="183.277" y="157.172" width="17.722" height="3.056" rx="1.528" fill="#E2E2E2"/><rect x="183.277" y="157.172" width="17.722" height="3.056" rx="1.528" fill="#E2E2E2"/><rect x="183.277" y="157.172" width="17.722" height="3.056" rx="1.528" fill="#E2E2E2"/><rect x="145.389" y="146.781" width="18.333" height="3.056" rx="1.528" fill="#E2E2E2"/><rect x="145.389" y="146.781" width="18.333" height="3.056" rx="1.528" fill="#E2E2E2"/><rect x="145.389" y="146.781" width="18.333" height="3.056" rx="1.528" fill="#E2E2E2"/><rect x="145.389" y="146.781" width="18.333" height="3.056" rx="1.528" fill="#E2E2E2"/><rect x="145.389" y="146.781" width="18.333" height="3.056" rx="1.528" fill="#E2E2E2"/><rect x="145.389" y="146.781" width="18.333" height="3.056" rx="1.528" fill="#E2E2E2"/><rect x="145.389" y="151.664" width="17.111" height="3.056" rx="1.528" fill="#E2E2E2"/><rect x="145.389" y="151.664" width="17.111" height="3.056" rx="1.528" fill="#E2E2E2"/><rect x="145.389" y="151.664" width="17.111" height="3.056" rx="1.528" fill="#E2E2E2"/><rect x="145.389" y="151.664" width="17.111" height="3.056" rx="1.528" fill="#E2E2E2"/><rect x="145.389" y="151.664" width="17.111" height="3.056" rx="1.528" fill="#E2E2E2"/><rect x="145.389" y="151.664" width="17.111" height="3.056" rx="1.528" fill="#E2E2E2"/><rect x="171.056" y="157.172" width="11" height="3.056" rx="1.528" fill="#E2E2E2"/><rect x="171.056" y="157.172" width="11" height="3.056" rx="1.528" fill="#E2E2E2"/><rect x="171.056" y="157.172" width="11" height="3.056" rx="1.528" fill="#E2E2E2"/><rect x="171.056" y="157.172" width="11" height="3.056" rx="1.528" fill="#E2E2E2"/><rect x="171.056" y="157.172" width="11" height="3.056" rx="1.528" fill="#E2E2E2"/><rect x="171.056" y="157.172" width="11" height="3.056" rx="1.528" fill="#E2E2E2"/><rect x="164.943" y="146.781" width="9.778" height="3.056" rx="1.528" fill="#E2E2E2"/><rect x="164.943" y="146.781" width="9.778" height="3.056" rx="1.528" fill="#E2E2E2"/><rect x="164.943" y="146.781" width="9.778" height="3.056" rx="1.528" fill="#E2E2E2"/><rect x="164.943" y="146.781" width="9.778" height="3.056" rx="1.528" fill="#E2E2E2"/><rect x="164.943" y="146.781" width="9.778" height="3.056" rx="1.528" fill="#E2E2E2"/><rect x="164.943" y="146.781" width="9.778" height="3.056" rx="1.528" fill="#E2E2E2"/><rect x="171.056" y="151.664" width="8.556" height="3.056" rx="1.528" fill="#E2E2E2"/><rect x="171.056" y="151.664" width="8.556" height="3.056" rx="1.528" fill="#E2E2E2"/><rect x="171.056" y="151.664" width="8.556" height="3.056" rx="1.528" fill="#E2E2E2"/><rect x="171.056" y="151.664" width="8.556" height="3.056" rx="1.528" fill="#E2E2E2"/><rect x="171.056" y="151.664" width="8.556" height="3.056" rx="1.528" fill="#E2E2E2"/><rect x="171.056" y="151.664" width="8.556" height="3.056" rx="1.528" fill="#E2E2E2"/><rect x="185.111" y="151.664" width="11" height="3.056" rx="1.528" fill="#E2E2E2"/><rect x="185.111" y="151.664" width="11" height="3.056" rx="1.528" fill="#E2E2E2"/><rect x="185.111" y="151.664" width="11" height="3.056" rx="1.528" fill="#E2E2E2"/><rect x="185.111" y="151.664" width="11" height="3.056" rx="1.528" fill="#E2E2E2"/><rect x="185.111" y="151.664" width="11" height="3.056" rx="1.528" fill="#E2E2E2"/><rect x="185.111" y="151.664" width="11" height="3.056" rx="1.528" fill="#E2E2E2"/><rect x="163.723" y="151.664" width="6.111" height="3.056" rx="1.528" fill="#E2E2E2"/><rect x="163.723" y="151.664" width="6.111" height="3.056" rx="1.528" fill="#E2E2E2"/><rect x="163.723" y="151.664" width="6.111" height="3.056" rx="1.528" fill="#E2E2E2"/><rect x="163.723" y="151.664" width="6.111" height="3.056" rx="1.528" fill="#E2E2E2"/><rect x="163.723" y="151.664" width="6.111" height="3.056" rx="1.528" fill="#E2E2E2"/><rect x="163.723" y="151.664" width="6.111" height="3.056" rx="1.528" fill="#E2E2E2"/><rect x="188.166" y="146.781" width="4.889" height="3.056" rx="1.528" fill="#E2E2E2"/><rect x="188.166" y="146.781" width="4.889" height="3.056" rx="1.528" fill="#E2E2E2"/><rect x="188.166" y="146.781" width="4.889" height="3.056" rx="1.528" fill="#E2E2E2"/><rect x="188.166" y="146.781" width="4.889" height="3.056" rx="1.528" fill="#E2E2E2"/><rect x="188.166" y="146.781" width="4.889" height="3.056" rx="1.528" fill="#E2E2E2"/><rect x="188.166" y="146.781" width="4.889" height="3.056" rx="1.528" fill="#E2E2E2"/><rect x="175.944" y="146.781" width="11" height="3.056" rx="1.528" fill="#E2E2E2"/><rect x="175.944" y="146.781" width="11" height="3.056" rx="1.528" fill="#E2E2E2"/><rect x="175.944" y="146.781" width="11" height="3.056" rx="1.528" fill="#E2E2E2"/><rect x="175.944" y="146.781" width="11" height="3.056" rx="1.528" fill="#E2E2E2"/><rect x="175.944" y="146.781" width="11" height="3.056" rx="1.528" fill="#E2E2E2"/><rect x="175.944" y="146.781" width="11" height="3.056" rx="1.528" fill="#E2E2E2"/><rect x="166.777" y="157.172" width="3.056" height="3.056" rx="1.528" fill="#E2E2E2"/><rect x="166.777" y="157.172" width="3.056" height="3.056" rx="1.528" fill="#E2E2E2"/><rect x="166.777" y="157.172" width="3.056" height="3.056" rx="1.528" fill="#E2E2E2"/><rect x="166.777" y="157.172" width="3.056" height="3.056" rx="1.528" fill="#E2E2E2"/><rect x="166.777" y="157.172" width="3.056" height="3.056" rx="1.528" fill="#E2E2E2"/><rect x="166.777" y="157.172" width="3.056" height="3.056" rx="1.528" fill="#E2E2E2"/><rect x="180.833" y="151.664" width="3.056" height="3.056" rx="1.528" fill="#E2E2E2"/><rect x="180.833" y="151.664" width="3.056" height="3.056" rx="1.528" fill="#E2E2E2"/><rect x="180.833" y="151.664" width="3.056" height="3.056" rx="1.528" fill="#E2E2E2"/><rect x="180.833" y="151.664" width="3.056" height="3.056" rx="1.528" fill="#E2E2E2"/><rect x="180.833" y="151.664" width="3.056" height="3.056" rx="1.528" fill="#E2E2E2"/><rect x="180.833" y="151.664" width="3.056" height="3.056" rx="1.528" fill="#E2E2E2"/><rect x="153.944" y="157.172" width="11.611" height="3.056" rx="1.528" fill="#E2E2E2"/><rect x="153.944" y="157.172" width="11.611" height="3.056" rx="1.528" fill="#E2E2E2"/><rect x="153.944" y="157.172" width="11.611" height="3.056" rx="1.528" fill="#E2E2E2"/><rect x="153.944" y="157.172" width="11.611" height="3.056" rx="1.528" fill="#E2E2E2"/><rect x="153.944" y="157.172" width="11.611" height="3.056" rx="1.528" fill="#E2E2E2"/><rect x="153.944" y="157.172" width="11.611" height="3.056" rx="1.528" fill="#E2E2E2"/><rect x="145.389" y="157.172" width="7.333" height="3.056" rx="1.528" fill="#E2E2E2"/><rect x="145.389" y="157.172" width="7.333" height="3.056" rx="1.528" fill="#E2E2E2"/><rect x="145.389" y="157.172" width="7.333" height="3.056" rx="1.528" fill="#E2E2E2"/><rect x="145.389" y="157.172" width="7.333" height="3.056" rx="1.528" fill="#E2E2E2"/><rect x="145.389" y="157.172" width="7.333" height="3.056" rx="1.528" fill="#E2E2E2"/><rect x="145.389" y="157.172" width="7.333" height="3.056" rx="1.528" fill="#E2E2E2"/><path stroke="#979899" stroke-width=".5" d="m198.731 139.269 2.445 2.444M198.731 139.269l2.445 2.444M201.178 139.622l-2.445 2.445M201.178 139.622l-2.445 2.445"/><circle cx="168.612" cy="177.949" r="1.472" fill="#D9D9D9"/><circle cx="168.612" cy="177.949" r="1.472" stroke="#979899" stroke-width=".5"/><circle cx="168.612" cy="177.949" r="1.472" stroke="#979899" stroke-width=".5"/><circle cx="168.612" cy="177.949" r="1.472" stroke="#979899" stroke-width=".5"/><circle cx="172.278" cy="177.949" r="1.472" fill="#fff"/><circle cx="172.278" cy="177.949" r="1.472" stroke="#979899" stroke-width=".5"/><circle cx="172.278" cy="177.949" r="1.472" stroke="#979899" stroke-width=".5"/><circle cx="172.278" cy="177.949" r="1.472" stroke="#979899" stroke-width=".5"/><circle cx="175.945" cy="177.949" r="1.472" fill="#fff"/><circle cx="175.945" cy="177.949" r="1.472" stroke="#979899" stroke-width=".5"/><circle cx="175.945" cy="177.949" r="1.472" stroke="#979899" stroke-width=".5"/><circle cx="175.945" cy="177.949" r="1.472" stroke="#979899" stroke-width=".5"/><circle cx="179.611" cy="177.949" r="1.472" fill="#fff"/><circle cx="179.611" cy="177.949" r="1.472" stroke="#979899" stroke-width=".5"/><circle cx="179.611" cy="177.949" r="1.472" stroke="#979899" stroke-width=".5"/><circle cx="179.611" cy="177.949" r="1.472" stroke="#979899" stroke-width=".5"/></g><g filter="url(#g)"><path d="m236.129 78.761 6.228 10.164-5.415 3.085-6.51-1.896 5.697-11.353z" fill="#FFDFD8"/><path d="m236.129 78.761 6.228 10.164-5.415 3.085-6.51-1.896 5.697-11.353z" fill="#FFDFD8"/><path d="m236.113 78.765 1.529 2.47-1.432.86-1.037-.12-.544-.209 1.484-3.001z" fill="#333"/><path d="m230.452 90.033 2.136.31 3.364 105.954-2.42-.2-3.08-106.064z" fill="#FFB200"/><path d="m232.556 90.348 3.65-.004 3.444 105.918-3.747.052-3.347-105.966z" fill="#FF9E00"/><path d="m236.157 90.346 6.195-1.463 3.147 106.007-5.851 1.34-3.491-105.884z" fill="#FFB200"/><path fill="#FD9785" d="m233.646 200.938 11.882-1.218-.075 3.035-11.881 1.218z"/><ellipse cx="5.972" cy="1.214" rx="5.972" ry="1.214" transform="matrix(.99479 -.10199 -.02452 .9997 233.602 202.758)" fill="#FD9785"/><path d="M245.183 194.344c-5.701 2.222-10.539 1.655-11.974 1.198-1.433 1.47.203 2.433.004 5.782-.128 2.153 10.601-.347 12.414-1.58.465-3.125.981-5.956-.444-5.4z" fill="#6E94D3"/></g><g filter="url(#h)"><path d="M193 6h151v33.5l-142.711 2.439a4 4 0 0 1-4.034-3.48L193 6z" fill="#BCF8E9"/></g><rect width="2" height="9" rx="1" transform="matrix(.9955 -.04583 .14454 .99297 289.846 25.773)" fill="#8CCABD"/><rect width="2" height="9" rx="1" transform="matrix(.9955 -.04583 .14454 .99297 297.158 25.695)" fill="#8CCABD"/><rect width="2" height="9" rx="1" transform="matrix(.9955 -.04583 .14454 .99297 304.471 25.61)" fill="#8CCABD"/><rect width="2" height="9" rx="1" transform="matrix(.9955 -.04583 .14454 .99297 311.783 25.531)" fill="#8CCABD"/><rect width="2" height="16" rx="1" transform="matrix(.9955 -.04583 .14454 .99297 318.328 18.5)" fill="#8CCABD"/><rect width="2" height="9" rx="1" transform="matrix(.9955 -.04583 .14454 .99297 326.652 25.367)" fill="#8CCABD"/><rect width="2" height="9" rx="1" transform="matrix(.9955 -.04583 .14454 .99297 246.167 25.773)" fill="#8CCABD"/><rect width="2" height="9" rx="1" transform="matrix(.9955 -.04583 .14454 .99297 253.479 25.695)" fill="#8CCABD"/><rect width="2" height="9" rx="1" transform="matrix(.9955 -.04583 .14454 .99297 260.792 25.61)" fill="#8CCABD"/><rect width="2" height="9" rx="1" transform="matrix(.9955 -.04583 .14454 .99297 268.104 25.531)" fill="#8CCABD"/><rect width="2" height="16" rx="1" transform="matrix(.9955 -.04583 .14454 .99297 274.649 18.5)" fill="#8CCABD"/><rect width="2" height="9" rx="1" transform="matrix(.9955 -.04583 .14454 .99297 282.974 25.367)" fill="#8CCABD"/><rect width="2" height="9" rx="1" transform="matrix(.9955 -.04583 .14454 .99297 202.167 25.773)" fill="#8CCABD"/><rect width="2" height="9" rx="1" transform="matrix(.9955 -.04583 .14454 .99297 209.479 25.695)" fill="#8CCABD"/><rect width="2" height="9" rx="1" transform="matrix(.9955 -.04583 .14454 .99297 216.792 25.61)" fill="#8CCABD"/><rect width="2" height="9" rx="1" transform="matrix(.9955 -.04583 .14454 .99297 224.104 25.531)" fill="#8CCABD"/><rect width="2" height="16" rx="1" transform="matrix(.9955 -.04583 .14454 .99297 230.649 18.5)" fill="#8CCABD"/><rect width="2" height="9" rx="1" transform="matrix(.9955 -.04583 .14454 .99297 238.974 25.367)" fill="#8CCABD"/><g filter="url(#i)"><path d="M85.653 33.501a4 4 0 0 1 3.11-4.465l5.907-1.288a4 4 0 0 1 4.559 2.405l19.028 46.942c1.113 2.748-.688 5.802-3.631 6.158l-17.718 2.142a4 4 0 0 1-4.441-3.414L85.653 33.5z" fill="#478E82"/><rect x="87.481" y="28.492" width="23.837" height="55.599" rx="3.5" transform="rotate(-8 87.48 28.492)" fill="#EBEBEB"/></g><g filter="url(#j)"><path d="m91.398 125.886-1.646 17.908c-.152 1.653-.829 3.188-1.88 4.269-1.053 1.082-2.395 1.62-3.73 1.497-1.337-.123-2.558-.897-3.395-2.152-.838-1.255-1.223-2.888-1.07-4.54l1.789-19.465c.095-1.033.518-1.993 1.175-2.668.658-.676 1.496-1.013 2.331-.936.835.077 1.599.561 2.122 1.345.523.784.764 1.805.669 2.838l-1.503 16.351a1.768 1.768 0 0 1-.47 1.067c-.264.27-.599.405-.933.374-.334-.031-.64-.224-.849-.538a1.77 1.77 0 0 1-.267-1.135l1.36-14.794-1.89-.173-1.36 14.793c-.094 1.033.147 2.054.67 2.838.523.784 1.286 1.268 2.121 1.345.835.077 1.674-.26 2.332-.936.657-.675 1.08-1.635 1.175-2.668l1.503-16.351c.152-1.652-.233-3.285-1.07-4.54-.838-1.255-2.059-2.029-3.395-2.152-1.336-.123-2.678.416-3.73 1.497-1.052 1.081-1.728 2.617-1.88 4.269l-1.79 19.466c-.209 2.271.32 4.517 1.472 6.242 1.151 1.726 2.83 2.79 4.668 2.959 1.837.169 3.681-.571 5.128-2.058 1.447-1.487 2.377-3.598 2.586-5.87l1.646-17.908-1.889-.174z" fill="#fff"/></g><g filter="url(#k)"><path d="m83.858 181.187 12.68-12.753c1.17-1.177 2.669-1.929 4.169-2.092 1.5-.163 2.877.277 3.828 1.223.952.946 1.4 2.32 1.245 3.821-.154 1.501-.898 3.005-2.068 4.181L89.93 189.43c-.73.735-1.668 1.205-2.606 1.307-.937.102-1.798-.173-2.392-.764-.595-.591-.875-1.451-.779-2.389.097-.938.562-1.878 1.293-2.613l11.577-11.644a1.771 1.771 0 0 1 1.042-.523c.375-.041.72.069.957.306.238.236.35.58.312.955a1.768 1.768 0 0 1-.517 1.045l-10.475 10.536 1.346 1.337 10.474-10.535c.731-.735 1.196-1.675 1.292-2.613.097-.938-.183-1.798-.778-2.389-.594-.591-1.455-.866-2.393-.764-.937.102-1.874.572-2.605 1.307L84.1 183.634c-1.17 1.176-1.913 2.68-2.067 4.181-.155 1.501.293 2.875 1.245 3.821.951.946 2.328 1.386 3.828 1.223 1.5-.163 3-.915 4.17-2.092l13.782-13.862c1.608-1.618 2.631-3.686 2.843-5.749.212-2.064-.404-3.954-1.712-5.255-1.308-1.3-3.202-1.905-5.264-1.681-2.062.224-4.125 1.259-5.733 2.876l-12.68 12.753 1.346 1.338z" fill="#131457"/></g><g filter="url(#l)"><circle cx="35.5" cy="75.5" r="17.5" fill="url(#m)"/><g filter="url(#n)"><rect x="26.273" y="67.891" width="15.909" height="13.306" rx="2" fill="#fff"/><path d="M41.577 74.09v1.364c3.525 0 5.625 3.228 3.68 5.646l-1.204-.99c.906-1.51-.432-3.292-2.476-3.292v1.364l-2.487-2.046 2.487-2.045zm0 10v-1.363c-3.525 0-5.625-3.227-3.68-5.645l1.205.99c-.907 1.51.43 3.292 2.475 3.292V80l2.486 2.046-2.486 2.045zm1.105-17.272h-1.105V65h-2.21v1.818h-8.841V65h-2.21v1.818H27.21c-.586 0-1.148.192-1.563.533-.414.34-.647.803-.647 1.285v12.728c0 .482.233.944.647 1.285.415.341.977.533 1.563.533h9.946a5.62 5.62 0 0 1-1.657-1.818H27.21v-9.091h15.472v1.445c.785.1 1.536.318 2.21.655v-5.737c0-.482-.233-.944-.647-1.285-.414-.341-.977-.533-1.563-.533zm0 3.636H27.21v-1.818h15.472" fill="#3766AC"/><path d="M26.227 69.82v1.819a2 2 0 0 0 2 2h13.591a2 2 0 0 0 2-2V69.82a2 2 0 0 0-2-2h-13.59a2 2 0 0 0-2 2z" fill="#fff" stroke="#3766AC" stroke-width="2" stroke-linecap="round"/></g><g filter="url(#o)"><circle cx="40.782" cy="79.387" r="6.364" fill="#fff"/></g><path d="m36.021 83.394.816.79 1.041-1.003-.821-.795m3.852-6.321c-1.914 0-3.47 1.506-3.47 3.36 0 1.852 1.556 3.358 3.47 3.358 1.915 0 3.472-1.506 3.472-3.359 0-1.859-1.557-3.359-3.471-3.359zm4.629 3.92h1.735v-1.12h-1.735M43.94 83.18l1.041 1.002.816-.79-1.036-1.007m1.036-6.88-.816-.785-1.041 1.002.821.796m-3.274-3.253h-1.157v1.68h1.157m-3.61.778-1.041-1.003-.816.784 1.036 1.014.821-.796zm-3.332 4.26h1.735v-1.12h-1.735m6.942 5.04h-1.157v1.679h1.157" fill="#FBFCC1"/><path d="m36.021 83.394.816.79 1.041-1.003-.821-.795m8.48-2.402h1.736v-1.12h-1.735m-1.597 4.317 1.041 1.002.816-.79-1.036-1.007m1.036-6.88-.816-.785-1.041 1.002.821.796m-3.274-3.253h-1.157v1.68h1.157m-6.942 5.038h1.735v-1.12h-1.735m6.942 5.04h-1.157v1.679h1.157m-.578-9.518c-1.915 0-3.471 1.506-3.471 3.36 0 1.852 1.556 3.358 3.47 3.358 1.915 0 3.472-1.506 3.472-3.359 0-1.859-1.557-3.359-3.471-3.359zm-3.032-.341-1.041-1.003-.816.784 1.036 1.014.821-.796zM41.42 83.773v1.91M41.42 73.117v1.909" stroke="#FFA800" stroke-width=".5"/><path transform="scale(-1.01624 -.9835) rotate(-45 -119.312 2.24)" stroke="#FFA800" stroke-width=".5" d="M0-.25h1.691"/><path transform="scale(-1.01624 -.9835) rotate(-45 -123.1 11.387)" stroke="#FFA800" stroke-width=".5" d="M0-.25h1.378"/><path transform="matrix(-.70634 .70787 -.7306 -.6828 45.545 75.328)" stroke="#FFA800" stroke-width=".5" d="M0-.25h1.565"/><path stroke="#FFA800" stroke-width=".5" d="M34.613 80.141v-1.417M45.603 80.141v-1.417"/></g></g></g><defs><filter id="j" x="73.742" y="117.445" width="23.545" height="42.477" filterUnits="userSpaceOnUse" color-interpolation-filters="sRGB"><feFlood flood-opacity="0" result="BackgroundImageFix"/><feColorMatrix in="SourceAlpha" values="0 0 0 0 0 0 0 0 0 0 0 0 0 0 0 0 0 0 127 0" result="hardAlpha"/><feOffset dy="4"/><feGaussianBlur stdDeviation="2"/><feComposite in2="hardAlpha" operator="out"/><feColorMatrix values="0 0 0 0 0 0 0 0 0 0 0 0 0 0 0 0 0 0 0.25 0"/><feBlend in2="BackgroundImageFix" result="effect1_dropShadow_851_15571"/><feBlend in="SourceGraphic" in2="effect1_dropShadow_851_15571" result="shape"/></filter><filter id="a" x="0" y="0" width="352" height="282" filterUnits="userSpaceOnUse" color-interpolation-filters="sRGB"><feFlood flood-opacity="0" result="BackgroundImageFix"/><feColorMatrix in="SourceAlpha" values="0 0 0 0 0 0 0 0 0 0 0 0 0 0 0 0 0 0 127 0" result="hardAlpha"/><feOffset dx="2" dy="2"/><feGaussianBlur stdDeviation="4"/><feComposite in2="hardAlpha" operator="out"/><feColorMatrix values="0 0 0 0 0 0 0 0 0 0 0 0 0 0 0 0 0 0 0.25 0"/><feBlend in2="BackgroundImageFix" result="effect1_dropShadow_851_15571"/><feBlend in="SourceGraphic" in2="effect1_dropShadow_851_15571" result="shape"/></filter><filter id="e" x="278.998" y="212.461" width="32.99" height="37.531" filterUnits="userSpaceOnUse" color-interpolation-filters="sRGB"><feFlood flood-opacity="0" result="BackgroundImageFix"/><feColorMatrix in="SourceAlpha" values="0 0 0 0 0 0 0 0 0 0 0 0 0 0 0 0 0 0 127 0" result="hardAlpha"/><feOffset dy="4"/><feGaussianBlur stdDeviation="2"/><feComposite in2="hardAlpha" operator="out"/><feColorMatrix values="0 0 0 0 0 0 0 0 0 0 0 0 0 0 0 0 0 0 0.25 0"/><feBlend in2="BackgroundImageFix" result="effect1_dropShadow_851_15571"/><feBlend in="SourceGraphic" in2="effect1_dropShadow_851_15571" result="shape"/></filter><filter id="f" x="130" y="59" width="87" height="168.281" filterUnits="userSpaceOnUse" color-interpolation-filters="sRGB"><feFlood flood-opacity="0" result="BackgroundImageFix"/><feColorMatrix in="SourceAlpha" values="0 0 0 0 0 0 0 0 0 0 0 0 0 0 0 0 0 0 127 0" result="hardAlpha"/><feOffset dy="4"/><feGaussianBlur stdDeviation="2"/><feComposite in2="hardAlpha" operator="out"/><feColorMatrix values="0 0 0 0 0 0 0 0 0 0 0 0 0 0 0 0 0 0 0.25 0"/><feBlend in2="BackgroundImageFix" result="effect1_dropShadow_851_15571"/><feBlend in="SourceGraphic" in2="effect1_dropShadow_851_15571" result="shape"/></filter><filter id="g" x="226.432" y="78.758" width="23.683" height="133.961" filterUnits="userSpaceOnUse" color-interpolation-filters="sRGB"><feFlood flood-opacity="0" result="BackgroundImageFix"/><feColorMatrix in="SourceAlpha" values="0 0 0 0 0 0 0 0 0 0 0 0 0 0 0 0 0 0 127 0" result="hardAlpha"/><feOffset dy="4"/><feGaussianBlur stdDeviation="2"/><feComposite in2="hardAlpha" operator="out"/><feColorMatrix values="0 0 0 0 0 0 0 0 0 0 0 0 0 0 0 0 0 0 0.25 0"/><feBlend in2="BackgroundImageFix" result="effect1_dropShadow_851_15571"/><feBlend in="SourceGraphic" in2="effect1_dropShadow_851_15571" result="shape"/></filter><filter id="h" x="189" y="6" width="159" height="43.938" filterUnits="userSpaceOnUse" color-interpolation-filters="sRGB"><feFlood flood-opacity="0" result="BackgroundImageFix"/><feColorMatrix in="SourceAlpha" values="0 0 0 0 0 0 0 0 0 0 0 0 0 0 0 0 0 0 127 0" result="hardAlpha"/><feOffset dy="4"/><feGaussianBlur stdDeviation="2"/><feComposite in2="hardAlpha" operator="out"/><feColorMatrix values="0 0 0 0 0 0 0 0 0 0 0 0 0 0 0 0 0 0 0.25 0"/><feBlend in2="BackgroundImageFix" result="effect1_dropShadow_851_15571"/><feBlend in="SourceGraphic" in2="effect1_dropShadow_851_15571" result="shape"/></filter><filter id="i" x="81.614" y="25.625" width="40.975" height="67.797" filterUnits="userSpaceOnUse" color-interpolation-filters="sRGB"><feFlood flood-opacity="0" result="BackgroundImageFix"/><feColorMatrix in="SourceAlpha" values="0 0 0 0 0 0 0 0 0 0 0 0 0 0 0 0 0 0 127 0" result="hardAlpha"/><feOffset dy="4"/><feGaussianBlur stdDeviation="2"/><feComposite in2="hardAlpha" operator="out"/><feColorMatrix values="0 0 0 0 0 0 0 0 0 0 0 0 0 0 0 0 0 0 0.25 0"/><feBlend in2="BackgroundImageFix" result="effect1_dropShadow_851_15571"/><feBlend in="SourceGraphic" in2="effect1_dropShadow_851_15571" result="shape"/></filter><filter id="c" x="265" y="200" width="63" height="63" filterUnits="userSpaceOnUse" color-interpolation-filters="sRGB"><feFlood flood-opacity="0" result="BackgroundImageFix"/><feColorMatrix in="SourceAlpha" values="0 0 0 0 0 0 0 0 0 0 0 0 0 0 0 0 0 0 127 0" result="hardAlpha"/><feOffset dy="4"/><feGaussianBlur stdDeviation="2"/><feComposite in2="hardAlpha" operator="out"/><feColorMatrix values="0 0 0 0 0 0 0 0 0 0 0 0 0 0 0 0 0 0 0.25 0"/><feBlend in2="BackgroundImageFix" result="effect1_dropShadow_851_15571"/><feBlend in="SourceGraphic" in2="effect1_dropShadow_851_15571" result="shape"/></filter><filter id="k" x="78.003" y="164.172" width="33.94" height="36.719" filterUnits="userSpaceOnUse" color-interpolation-filters="sRGB"><feFlood flood-opacity="0" result="BackgroundImageFix"/><feColorMatrix in="SourceAlpha" values="0 0 0 0 0 0 0 0 0 0 0 0 0 0 0 0 0 0 127 0" result="hardAlpha"/><feOffset dy="4"/><feGaussianBlur stdDeviation="2"/><feComposite in2="hardAlpha" operator="out"/><feColorMatrix values="0 0 0 0 0 0 0 0 0 0 0 0 0 0 0 0 0 0 0.25 0"/><feBlend in2="BackgroundImageFix" result="effect1_dropShadow_851_15571"/><feBlend in="SourceGraphic" in2="effect1_dropShadow_851_15571" result="shape"/></filter><filter id="l" x="14" y="58" width="43" height="43" filterUnits="userSpaceOnUse" color-interpolation-filters="sRGB"><feFlood flood-opacity="0" result="BackgroundImageFix"/><feColorMatrix in="SourceAlpha" values="0 0 0 0 0 0 0 0 0 0 0 0 0 0 0 0 0 0 127 0" result="hardAlpha"/><feOffset dy="4"/><feGaussianBlur stdDeviation="2"/><feComposite in2="hardAlpha" operator="out"/><feColorMatrix values="0 0 0 0 0 0 0 0 0 0 0 0 0 0 0 0 0 0 0.25 0"/><feBlend in2="BackgroundImageFix" result="effect1_dropShadow_851_15571"/><feBlend in="SourceGraphic" in2="effect1_dropShadow_851_15571" result="shape"/></filter><filter id="n" x="21" y="65" width="29" height="27.094" filterUnits="userSpaceOnUse" color-interpolation-filters="sRGB"><feFlood flood-opacity="0" result="BackgroundImageFix"/><feColorMatrix in="SourceAlpha" values="0 0 0 0 0 0 0 0 0 0 0 0 0 0 0 0 0 0 127 0" result="hardAlpha"/><feOffset dy="4"/><feGaussianBlur stdDeviation="2"/><feComposite in2="hardAlpha" operator="out"/><feColorMatrix values="0 0 0 0 0 0 0 0 0 0 0 0 0 0 0 0 0 0 0.25 0"/><feBlend in2="BackgroundImageFix" result="effect1_dropShadow_851_15571"/><feBlend in="SourceGraphic" in2="effect1_dropShadow_851_15571" result="shape"/></filter><filter id="o" x="30.418" y="73.023" width="20.727" height="20.727" filterUnits="userSpaceOnUse" color-interpolation-filters="sRGB"><feFlood flood-opacity="0" result="BackgroundImageFix"/><feColorMatrix in="SourceAlpha" values="0 0 0 0 0 0 0 0 0 0 0 0 0 0 0 0 0 0 127 0" result="hardAlpha"/><feOffset dy="4"/><feGaussianBlur stdDeviation="2"/><feComposite in2="hardAlpha" operator="out"/><feColorMatrix values="0 0 0 0 0 0 0 0 0 0 0 0 0 0 0 0 0 0 0.25 0"/><feBlend in2="BackgroundImageFix" result="effect1_dropShadow_851_15571"/><feBlend in="SourceGraphic" in2="effect1_dropShadow_851_15571" result="shape"/></filter><linearGradient id="d" x1="269" y1="200" x2="324" y2="255" gradientUnits="userSpaceOnUse"><stop stop-color="#FFBEB3"/><stop offset=".515" stop-color="#FD9785"/><stop offset="1" stop-color="#F18C7F"/></linearGradient><linearGradient id="m" x1="18" y1="58" x2="53" y2="93" gradientUnits="userSpaceOnUse"><stop stop-color="#BCF8E9"/><stop offset=".515" stop-color="#65E5C5"/><stop offset="1" stop-color="#4DCDAD"/></linearGradient><clipPath id="b"><rect x="6" y="6" width="336" height="266" rx="30" fill="#fff"/></clipPath></defs></svg>