<svg width="336" height="266" fill="none" xmlns="http://www.w3.org/2000/svg"><g clip-path="url(#a)"><rect width="336" height="266" rx="30" fill="#fff"/><rect width="336" height="266" rx="30" fill="#FFD3A1"/><path d="M138 0v69" stroke="#FFC078" stroke-width="5" stroke-linecap="round" stroke-linejoin="round" stroke-dasharray="15 15"/><path d="M298.706 219c-.221 4.737-3.051 13.953-12.601 12.92" stroke="#FFC078" stroke-width="5" stroke-linejoin="round" stroke-dasharray="15 15"/><path d="M37 78.453v73.649M298.705 78.453l.303 76.547M47.663 69h239.413M48.63 163h249.106" stroke="#FFC078" stroke-width="5" stroke-linecap="round" stroke-linejoin="round" stroke-dasharray="15 15"/><path d="M37 78.387c.221-3.421 3.05-10.075 12.6-9.33M298.706 78.387c-.221-3.421-3.051-10.075-12.601-9.33M37 150c.221 4.737 3.05 13.953 12.6 12.92" stroke="#FFC078" stroke-width="5" stroke-linejoin="round" stroke-dasharray="15 15"/><path d="M298.706 150v70M148 230v36M159 221h140" stroke="#FFC078" stroke-width="5" stroke-linecap="round" stroke-linejoin="round" stroke-dasharray="15 15"/><path d="M148 230.387c.221-3.421 3.051-10.075 12.601-9.329" stroke="#FFC078" stroke-width="5" stroke-linejoin="round" stroke-dasharray="15 15"/><g filter="url(#b)"><g filter="url(#c)"><rect x="116" y="74" width="123" height="78" rx="2" fill="#fff"/><rect x="115.5" y="73.5" width="124" height="79" rx="2.5" stroke="url(#d)"/></g><path d="M228 136c0-10.609-5.321-20.783-14.791-28.284C203.738 100.214 190.893 96 177.5 96c-13.393 0-26.238 4.214-35.709 11.716C132.321 115.217 127 125.391 127 136h2.243c0-10.137 5.085-19.86 14.134-27.028 9.05-7.168 21.325-11.195 34.123-11.195 12.798 0 25.073 4.027 34.123 11.195 9.049 7.168 14.134 16.891 14.134 27.028H228z" fill="#EBEAEA"/><path d="M209.989 136.06c-.21-8.995-3.434-17.701-9.216-24.894-5.782-7.192-13.833-12.508-23.017-15.198l-.55 1.641c8.817 2.583 16.545 7.686 22.096 14.591 5.551 6.904 8.646 15.263 8.847 23.898l1.84-.038z" fill="#EBEAEA"/><path d="M146.011 136.06c.21-8.995 3.434-17.701 9.216-24.894 5.782-7.192 13.833-12.508 23.017-15.198l.55 1.641c-8.817 2.583-16.545 7.686-22.096 14.591-5.551 6.904-8.646 15.263-8.847 23.898l-1.84-.038z" fill="#EBEAEA"/><path d="M116 76a2 2 0 0 1 2-2h119a2 2 0 0 1 2 2v13H116V76z" fill="#57A2DD"/><path d="M116 76a2 2 0 0 1 2-2h119a2 2 0 0 1 2 2v13H116V76z" fill="#57A2DD"/><rect x="118" y="81.5" width="6" height="1" rx=".5" fill="#fff"/><rect x="118" y="83.5" width="6" height="1" rx=".5" fill="#fff"/><rect x="118" y="85.5" width="6" height="1" rx=".5" fill="#fff"/><path d="M129.905 81.293a.1.1 0 0 1 .19 0l.556 1.71a.1.1 0 0 0 .095.07h1.799c.097 0 .138.124.059.18l-1.455 1.058a.101.101 0 0 0-.037.112l.556 1.711a.1.1 0 0 1-.154.112l-1.455-1.057a.1.1 0 0 0-.118 0l-1.455 1.057a.1.1 0 0 1-.154-.112l.556-1.71a.101.101 0 0 0-.037-.113l-1.455-1.057c-.079-.057-.038-.181.059-.181h1.799a.1.1 0 0 0 .095-.07l.556-1.71z" fill="#fff"/><rect x="136" y="81.5" width="101" height="5" rx="1" fill="#fff"/><circle cx="119.5" cy="77.5" r="1.5" fill="#FF8080"/><circle cx="124.5" cy="77.5" r="1.5" fill="#FFFCB3"/><circle cx="129.5" cy="77.5" r="1.5" fill="#C7FFB5"/><g filter="url(#e)"><rect x="164" y="138" width="44.605" height="53.996" rx="1" fill="#fff"/><rect x="163.5" y="137.5" width="45.605" height="54.996" rx="1.5" stroke="url(#f)"/></g><rect x="167.912" y="157.953" width="31.693" height="3.913" rx="1" fill="url(#g)"/><path d="M167.912 154.431c0-.432.35-.783.783-.783h35.215a.783.783 0 0 1 0 1.566h-35.215a.783.783 0 0 1-.783-.783zM167.912 159.908c0-.433.35-.783.783-.783h30.91v1.565h-30.91a.782.782 0 0 1-.783-.782z" fill="#EAE7E7"/><rect x="167.912" y="159.125" width="36.78" height="1.565" rx=".783" fill="#EAE7E7"/><rect x="167.912" y="164.609" width="36.78" height="1.565" rx=".783" fill="#EAE7E7"/><path d="M167.912 170.868c0-.432.35-.782.783-.782h16.825a.782.782 0 1 1 0 1.565h-16.825a.782.782 0 0 1-.783-.783z" fill="#EAE7E7"/><rect x="167.912" y="175.562" width="18.39" height="1.565" rx=".783" fill="#EAE7E7"/><rect x="167.912" y="181.047" width="36.78" height="1.565" rx=".783" fill="#EAE7E7"/><rect x="167.912" y="186.516" width="36.78" height="1.565" rx=".783" fill="#EAE7E7"/><rect x="178.085" y="141.906" width="26.215" height="7.705" rx="2" fill="#DBE9FD"/><ellipse cx="171.433" cy="145.876" rx="3.913" ry="3.853" fill="#DBE9FD"/><path d="M187.479 176.977a1 1 0 0 1 1-1h.194a1 1 0 0 1 1 1v2.135h-2.194v-2.135zM190.404 173.844a1 1 0 0 1 1-1h.195a1 1 0 0 1 1 1v5.27h-2.195v-5.27zM193.33 172.273a1 1 0 0 1 1-1h.195a1 1 0 0 1 1 1v6.839h-2.195v-6.839zM196.256 173.844a1 1 0 0 1 1-1h.194a1 1 0 0 1 1 1v5.27h-2.194v-5.27zM199.183 175.094a1 1 0 0 1 1-1h.194a1 1 0 0 1 1 1v4.016h-2.194v-4.016zM202.108 173.844a1 1 0 0 1 1-1h.195a1 1 0 0 1 1 1v5.27h-2.195v-5.27z" fill="#82B4FF"/><path transform="matrix(.58315 -.81237 .88447 .4666 188.575 174.406)" stroke="#E93434" stroke-width=".25" d="M0-.125h5.017"/><path transform="matrix(.84114 -.54082 .65845 .75262 191.502 170.328)" stroke="#E93434" stroke-width=".25" d="M0-.125h3.478"/><path transform="matrix(.85898 -.51201 .62993 .77665 200.28 172.078)" stroke="#E93434" stroke-width=".25" d="M0-.125h3.406"/><path transform="matrix(-.84107 -.54093 .65856 -.75252 197.354 170.328)" stroke="#E93434" stroke-width=".25" d="M0-.125h3.478"/><path transform="matrix(-.88129 -.47258 .58943 -.80782 200.28 171.898)" stroke="#E93434" stroke-width=".25" d="M0-.125h3.32"/><rect x="188.21" y="174.094" width=".731" height=".627" rx=".314" fill="#FF6161"/><rect x="191.136" y="170.016" width=".731" height=".627" rx=".314" fill="#FF6161"/><rect x="194.062" y="168.125" width=".731" height=".627" rx=".314" fill="#FF6161"/><rect x="196.988" y="170.016" width=".731" height=".627" rx=".314" fill="#FF6161"/><rect x="199.914" y="171.586" width=".731" height=".627" rx=".314" fill="#FF6161"/><rect x="202.841" y="170.016" width=".731" height=".627" rx=".314" fill="#FF6161"/><rect x="171.826" y="156.766" width="11.675" height="7.163" rx="1" fill="url(#h)"/><rect x="171.826" y="158.719" width="12.13" height="2.739" rx="1" fill="#B8B8B8"/><g filter="url(#i)"><path d="M177.862 152.477a7.993 7.993 0 0 1 7.994 7.993c0 1.98-.726 3.8-1.919 5.202l.332.332h.972l6.148 6.148-1.844 1.845-6.149-6.149v-.971l-.332-.332a8.017 8.017 0 0 1-5.202 1.918 7.993 7.993 0 1 1 0-15.986zm0 2.459a5.51 5.51 0 0 0-5.533 5.534 5.51 5.51 0 0 0 5.533 5.534 5.51 5.51 0 0 0 5.534-5.534 5.51 5.51 0 0 0-5.534-5.534z" fill="#3766AC"/></g></g><g filter="url(#j)"><g filter="url(#k)"><rect x="136" y="98" width="74.2" height="41.992" rx="2" fill="#fff"/><rect x="135.5" y="97.5" width="75.2" height="42.992" rx="2.5" stroke="url(#l)"/></g><rect x="141.351" y="104.461" width="63.5" height="5.54" rx="2.25" stroke="#FFBE5C" stroke-width=".5"/><rect x="178.479" y="104.711" width="26.122" height="5.04" rx="2" fill="#B50808"/><rect x="158.503" y="104.711" width="26.122" height="5.04" rx="2" fill="#DA0707"/><rect x="141.601" y="104.711" width="23.049" height="5.04" rx="2" fill="#9F0505"/><rect x="141.601" y="104.711" width="23.049" height="5.04" rx="2" fill="#5CBD54"/><rect x="141.351" y="116.219" width="63.5" height="5.54" rx="2.25" stroke="#FFBE5C" stroke-width=".5"/><rect x="175.2" y="116.469" width="29.4" height="5.04" rx="2" fill="#B50808"/><rect x="164.001" y="116.469" width="16.8" height="5.04" rx="2" fill="#DA0707"/><rect x="141.601" y="116.469" width="28" height="5.04" rx="2" fill="#9F0505"/><rect x="141.601" y="116.469" width="28" height="5.04" rx="2" fill="#5CBD54"/><rect x="141.351" y="127.984" width="63.5" height="5.54" rx="2.25" stroke="#FFBE5C" stroke-width=".5"/><rect x="175.2" y="128.234" width="29.4" height="5.04" rx="2" fill="#B50808"/><rect x="171.001" y="128.234" width="16.8" height="5.04" rx="2" fill="#DA0707"/><rect x="141.601" y="128.234" width="35" height="5.04" rx="2" fill="#9F0505"/><rect x="141.601" y="128.234" width="35" height="5.04" rx="2" fill="#5CBD54"/></g><g filter="url(#m)"><rect x="80" y="90" width="58" height="37.286" rx="2" fill="#fff"/><rect x="79.5" y="89.5" width="59" height="38.286" rx="2.5" stroke="url(#n)"/></g><path d="M131.787 119.012a22.789 22.789 0 0 0-9.392-18.434l-5.358 7.374a13.667 13.667 0 0 1 5.636 11.06h9.114z" fill="url(#o)"/><path d="M120.647 99.427a22.784 22.784 0 0 0-23.285-.003l4.656 7.835a13.666 13.666 0 0 1 13.971.002l4.658-7.834z" fill="url(#p)"/><path d="M95.537 100.63a22.788 22.788 0 0 0-9.321 18.47l9.114-.035a13.672 13.672 0 0 1 5.593-11.082l-5.386-7.353z" fill="url(#q)"/><circle cx="109.001" cy="117.632" r="3.452" fill="#242427"/><path d="m123.641 110.971-11.435 7.388-1.536-3.252 12.971-4.136z" fill="#242427"/><path d="M123.815 110.457a.5.5 0 0 1 .393.771l-1.01 1.557a.5.5 0 0 1-.865-.046l-.843-1.653a.5.5 0 0 1 .472-.726l1.853.097z" fill="#242427"/><g filter="url(#r)"><rect x="101" y="138" width="63" height="36" rx="2" fill="#fff"/><rect x="100.5" y="137.5" width="64" height="37" rx="2.5" stroke="#57A2DD"/></g><path stroke="#74D96B" stroke-width=".75" stroke-linecap="round" stroke-dasharray="2 2" d="m110.209 153.513 14.304-5.722M125.266 147.541l14.275-3.807"/><path stroke="#74D96B" stroke-width=".75" stroke-linecap="round" stroke-dasharray="1.5 1.5" d="m154.541 148.266-14.275-3.807"/><rect x="108" y="152" width="4" height="4" rx="2" fill="#74D96B"/><rect x="123" y="146" width="4" height="4" rx="2" fill="#74D96B"/><rect x="138" y="142" width="4" height="4" rx="2" fill="#74D96B"/><rect x="153" y="146" width="4" height="4" rx="2" fill="#74D96B"/><path d="M105 161a1 1 0 0 1 1-1h8a1 1 0 0 1 1 1v9h-10v-9zM120 155a1 1 0 0 1 1-1h8a1 1 0 0 1 1 1v15h-10v-15zM135 151a1 1 0 0 1 1-1h8a1 1 0 0 1 1 1v19h-10v-19zM150 155a1 1 0 0 1 1-1h8a1 1 0 0 1 1 1v15h-10v-15z" fill="#74D96B"/><g filter="url(#s)"><g filter="url(#t)"><rect x="196" y="91" width="60" height="61" rx="2" fill="#fff"/><rect x="195.5" y="90.5" width="61" height="62" rx="2.5" stroke="url(#u)"/></g><rect x="212.768" y="97" width="35.233" height="1.08" rx=".54" fill="#DEDEDE"/><rect x="212.768" y="100.781" width="35.233" height="1.08" rx=".54" fill="#DEDEDE"/><rect x="212.768" y="104.555" width="15.659" height="1.08" rx=".54" fill="#DEDEDE"/><rect x="201.75" y="96.75" width="8.355" height="9.052" rx="1.25" fill="#74D96B" stroke="#48C13D" stroke-width=".5"/><rect width="2.573" height="1.024" rx=".512" transform="matrix(.65213 .7581 -.70024 .7139 203.699 101.281)" fill="#fff"/><rect width="2.573" height="1.024" rx=".512" transform="matrix(.65213 .7581 -.70024 .7139 203.699 101.281)" fill="#fff"/><rect width="5.906" height="1.024" rx=".512" transform="matrix(-.65214 .7581 .70025 .7139 207.815 98.742)" fill="#fff"/><rect width="5.906" height="1.024" rx=".512" transform="matrix(-.65214 .7581 .70025 .7139 207.815 98.742)" fill="#fff"/><rect x="212.768" y="117.195" width="35.233" height="1.079" rx=".54" fill="#DEDEDE"/><rect x="212.768" y="120.977" width="35.233" height="1.079" rx=".54" fill="#DEDEDE"/><rect x="212.768" y="124.75" width="15.659" height="1.079" rx=".54" fill="#DEDEDE"/><rect x="201.75" y="116.945" width="8.33" height="9.134" rx="1.25" fill="#74D96B" stroke="#48C13D" stroke-width=".5"/><rect width="2.584" height="1.027" rx=".513" transform="matrix(.6473 .76224 -.69563 .7184 203.692 121.508)" fill="#fff"/><rect width="2.584" height="1.027" rx=".513" transform="matrix(.6473 .76224 -.69563 .7184 203.692 121.508)" fill="#fff"/><rect width="5.931" height="1.027" rx=".513" transform="matrix(-.6473 .76223 .69564 .71839 207.796 118.961)" fill="#fff"/><rect width="5.931" height="1.027" rx=".513" transform="matrix(-.6473 .76223 .69564 .71839 207.796 118.961)" fill="#fff"/><rect x="212.768" y="137.359" width="35.233" height="1.079" rx=".54" fill="#DEDEDE"/><rect x="212.768" y="141.141" width="35.233" height="1.079" rx=".54" fill="#DEDEDE"/><rect x="212.768" y="144.914" width="15.659" height="1.079" rx=".54" fill="#DEDEDE"/><rect x="201.75" y="137.109" width="8.33" height="9.134" rx="1.25" fill="#74D96B" stroke="#48C13D" stroke-width=".5"/><rect width="2.584" height="1.027" rx=".513" transform="matrix(.6473 .76224 -.69563 .7184 203.692 141.672)" fill="#fff"/><rect width="2.584" height="1.027" rx=".513" transform="matrix(.6473 .76224 -.69563 .7184 203.692 141.672)" fill="#fff"/><rect width="5.931" height="1.027" rx=".513" transform="matrix(-.6473 .76223 .69564 .71839 207.796 139.125)" fill="#fff"/><rect width="5.931" height="1.027" rx=".513" transform="matrix(-.6473 .76223 .69564 .71839 207.796 139.125)" fill="#fff"/></g><g filter="url(#v)"><circle cx="291.5" cy="221.5" r="27.5" fill="url(#w)"/><g filter="url(#x)"><path d="M289.736 205.992c6.37 0 11.399 4.834 11.734 11.167l3.186 4.167c.335.5 0 1.333-.671 1.333h-2.515v5c0 1.833-1.508 3.333-3.352 3.333h-1.677v5h-11.734v-7.833c-4.023-1.833-6.706-5.833-6.706-10.5 0-6.5 5.197-11.667 11.735-11.667z" fill="url(#y)"/><g filter="url(#z)"><path fill="#fff" d="M289.438 211.977h3.653v4.753h-3.653z"/><path d="M290.309 210.289c-2.489.567-4.182 2.902-3.763 5.188.2 1.092.843 2.028 1.79 2.57.058.312.029 1.184-.838 2.627 0 0 1.584-.361 2.703-1.97a5.404 5.404 0 0 0 1.631-.101c2.489-.567 4.182-2.901 3.764-5.188-.419-2.286-2.798-3.693-5.287-3.126zm1.595 6.133-.905.206-.19-1.039.905-.207.19 1.04zm.338-2.784c-.097.239-.259.384-.421.529-.117.135-.153.197-.179.311-.071.125-.052.229-.024.385l-.905.206c-.047-.26-.031-.426.031-.602.072-.125.224-.322.422-.53a.526.526 0 0 0 .224-.321c.026-.115.043-.281.024-.385a.49.49 0 0 0-.203-.332.467.467 0 0 0-.39-.074c-.136.031-.217.104-.298.176-.081.073-.107.187-.079.343l-.904.206c-.022-.374.057-.717.245-.976s.495-.384.903-.476c.407-.093.788-.072 1.052.085.264.156.457.437.524.8.083.198.076.416-.022.655z" fill="#7EE25B"/></g><g filter="url(#A)"><path fill="#fff" d="M286.98 217.195h-2.549v4.698h2.549z"/><path fill="#fff" d="M286.98 217.195h-2.549v4.698h2.549z"/><g filter="url(#B)"><path d="M285.772 216.359c-2.505 0-4.554 1.411-4.554 3.152s2.049 3.151 4.554 3.151c.564 0 1.106-.071 1.607-.197 1.33.985 2.946.985 2.946.985-1.061-.918-1.229-1.536-1.252-1.772.774-.564 1.252-1.328 1.252-2.167 0-1.741-2.049-3.152-4.553-3.152zm.455 4.334v.788h-.911v-.788h.911zm0-.788h-.911v-2.364h.911v2.364z" fill="#19BBA8"/></g></g><g filter="url(#C)"><path fill="#fff" d="M292.133 216.562h5.023v3.056h-5.023z"/><path fill="#fff" d="M292.133 216.562h5.023v3.056h-5.023z"/><path d="M294.813 215.023c1.952 0 3.548 1.419 3.548 3.169 0 1.751-1.596 3.169-3.548 3.169-.439 0-.862-.071-1.252-.198-1.036.991-2.295.991-2.295.991.826-.923.958-1.545.975-1.783-.603-.566-.975-1.335-.975-2.179 0-1.75 1.596-3.169 3.547-3.169zm1.774 3.565v-.792h-.709v.792h.709zm-1.419 0v-.792h-.709v.792h.709zm-1.419 0v-.792h-.709v.792h.709z" fill="#2D8AD3"/></g></g></g><g filter="url(#D)"><circle cx="37.5" cy="69.5" r="17.5" fill="url(#E)"/><circle cx="37.5" cy="69.5" r="17.5" fill="url(#F)"/><path d="m41.02 66.74 1.746-2.703a.322.322 0 0 1 .425-.108c.666.396 1.232 1.02.354 2.388-.946 1.474-1.73 1.173-2.422.814a.268.268 0 0 1-.103-.391z" fill="url(#G)" stroke="#E4E74F" stroke-width=".5" stroke-linecap="round"/><path transform="matrix(-.55934 .82894 .848 .53 34.133 62.803)" fill="url(#H)" stroke="#45D5B3" stroke-width=".5" d="M.072.34H6.47v1.414H.072z"/><path transform="matrix(-.5594 -.8289 .84803 -.52994 35.812 77.603)" fill="url(#I)" stroke="#45D5B3" stroke-width=".5" d="M.072-.34h8.003v1.403H.072z"/><g filter="url(#J)"><rect x="29.545" y="76.82" width="13.219" height="1.909" rx=".954" fill="url(#K)"/><rect x="29.795" y="77.07" width="12.719" height="1.409" rx=".704" stroke="#45D5B3" stroke-width=".5"/></g><path d="M33.252 69.611c0 .8-.735 1.494-1.702 1.494-.968 0-1.702-.695-1.702-1.494 0-.8.734-1.494 1.702-1.494.967 0 1.701.695 1.701 1.494z" fill="#61E6C7" stroke="#45D5B3" stroke-width=".5"/><path d="M34.22 60.47c.309-.458.939-.592 1.407-.3l2.512 1.57-1.613 2.39-2.512-1.569a.959.959 0 0 1-.289-1.359l.495-.733z" fill="url(#L)" stroke="#45D5B3" stroke-width=".5"/><path d="M43.706 61.243a4.988 4.988 0 0 0-1.752-.668 5.082 5.082 0 0 0-1.886.02 4.966 4.966 0 0 0-1.734.703c-.523.34-.971.776-1.318 1.281a4.461 4.461 0 0 0-.7 1.663 4.368 4.368 0 0 0 .022 1.792c.131.59.383 1.15.742 1.648.36.498.818.924 1.35 1.254l2.638-3.847 2.638-3.846z" fill="url(#M)" stroke="#45D5B3" stroke-width=".5"/></g></g><defs><linearGradient id="u" x1="196" y1="91" x2="255.646" y2="152.344" gradientUnits="userSpaceOnUse"><stop stop-color="#74D96B"/><stop offset=".5" stop-color="#FFF0DA"/><stop offset="1" stop-color="#fff"/></linearGradient><linearGradient id="f" x1="164" y1="138" x2="216.257" y2="183.138" gradientUnits="userSpaceOnUse"><stop stop-color="#67BCFF"/><stop offset=".255" stop-color="#D2E9FC"/><stop offset=".54" stop-color="#E2EBF2"/><stop offset="1" stop-color="#fff"/></linearGradient><linearGradient id="g" x1="167.912" y1="157.953" x2="191.764" y2="173.725" gradientUnits="userSpaceOnUse"><stop stop-color="#8CFFDD"/><stop offset=".535" stop-color="#B9FFEA"/><stop offset="1" stop-color="#CCFFF0"/></linearGradient><linearGradient id="h" x1="171.826" y1="156.766" x2="184.234" y2="158.416" gradientUnits="userSpaceOnUse"><stop stop-color="#8CFFDD"/><stop offset=".535" stop-color="#B9FFEA"/><stop offset="1" stop-color="#CCFFF0"/></linearGradient><linearGradient id="l" x1="136" y1="98" x2="170.39" y2="161.539" gradientUnits="userSpaceOnUse"><stop stop-color="#FFC267"/><stop offset=".5" stop-color="#FFF0DA"/><stop offset="1" stop-color="#fff"/></linearGradient><linearGradient id="n" x1="138" y1="122.5" x2="80" y2="90" gradientUnits="userSpaceOnUse"><stop stop-color="#85E263"/><stop offset=".466" stop-color="#F8FE23"/><stop offset="1" stop-color="#E22E0F"/></linearGradient><linearGradient id="o" x1="131.787" y1="119.012" x2="86.216" y2="119.012" gradientUnits="userSpaceOnUse"><stop stop-color="#74D96B"/><stop offset=".305" stop-color="#B8FC4C"/><stop offset=".63" stop-color="#FAFE21"/><stop offset="1" stop-color="#DE0C0C"/></linearGradient><linearGradient id="p" x1="131.787" y1="119.012" x2="86.216" y2="119.012" gradientUnits="userSpaceOnUse"><stop stop-color="#4DE107"/><stop offset=".305" stop-color="#B8FC4C"/><stop offset=".63" stop-color="#FAFE21"/><stop offset="1" stop-color="#DE0C0C"/></linearGradient><linearGradient id="q" x1="131.787" y1="119.012" x2="86.216" y2="119.012" gradientUnits="userSpaceOnUse"><stop stop-color="#4DE107"/><stop offset=".305" stop-color="#B8FC4C"/><stop offset=".63" stop-color="#FAFE21"/><stop offset="1" stop-color="#DE0C0C"/></linearGradient><linearGradient id="d" x1="116" y1="74" x2="183.66" y2="185.562" gradientUnits="userSpaceOnUse"><stop stop-color="#FFC267"/><stop offset=".5" stop-color="#FFF0DA"/><stop offset="1" stop-color="#fff"/></linearGradient><linearGradient id="M" x1="37.208" y1="62.194" x2="43.767" y2="67.206" gradientUnits="userSpaceOnUse"><stop stop-color="#41D2B0"/><stop offset=".535" stop-color="#61E5C6"/><stop offset="1" stop-color="#8DF7DE"/></linearGradient><linearGradient id="y" x1="279.341" y1="204.629" x2="301.833" y2="235.609" gradientUnits="userSpaceOnUse"><stop stop-color="#F4AAFF"/><stop offset=".5" stop-color="#EE78FF"/><stop offset="1" stop-color="#C705E3"/></linearGradient><linearGradient id="E" x1="20" y1="52" x2="55" y2="87" gradientUnits="userSpaceOnUse"><stop stop-color="#fff"/><stop offset=".5" stop-color="#FF5156"/><stop offset="1" stop-color="#E7161C"/></linearGradient><linearGradient id="F" x1="20" y1="52" x2="55" y2="87" gradientUnits="userSpaceOnUse"><stop stop-color="#FFD3A1"/><stop offset=".5" stop-color="#FFAB7B"/><stop offset=".98" stop-color="#FF6737"/></linearGradient><linearGradient id="G" x1="43.858" y1="66.199" x2="42.034" y2="64.849" gradientUnits="userSpaceOnUse"><stop stop-color="#FDFFA5"/><stop offset="1" stop-color="#DADE31"/></linearGradient><linearGradient id="H" x1="5.736" y1=".74" x2="-.148" y2="1.971" gradientUnits="userSpaceOnUse"><stop stop-color="#44D4B2"/><stop offset=".485" stop-color="#61E5C6"/><stop offset="1" stop-color="#44D4B2"/></linearGradient><linearGradient id="I" x1="8.782" y1="1.214" x2="-.697" y2="1.274" gradientUnits="userSpaceOnUse"><stop stop-color="#4DDAB9"/><stop offset=".5" stop-color="#62E6C7"/><stop offset="1" stop-color="#48D6B5"/></linearGradient><linearGradient id="K" x1="29.27" y1="76.82" x2="42.205" y2="80.629" gradientUnits="userSpaceOnUse"><stop stop-color="#44D5B3"/><stop offset=".505" stop-color="#44D5B3"/><stop offset="1" stop-color="#61E6C7"/></linearGradient><linearGradient id="L" x1="34.7" y1="59.644" x2="36.964" y2="63.002" gradientUnits="userSpaceOnUse"><stop stop-color="#66E8C9"/><stop offset=".5" stop-color="#51DCBB"/><stop offset="1" stop-color="#44D4B2"/></linearGradient><filter id="c" x="107" y="73" width="141" height="96" filterUnits="userSpaceOnUse" color-interpolation-filters="sRGB"><feFlood flood-opacity="0" result="BackgroundImageFix"/><feColorMatrix in="SourceAlpha" values="0 0 0 0 0 0 0 0 0 0 0 0 0 0 0 0 0 0 127 0" result="hardAlpha"/><feOffset dy="8"/><feGaussianBlur stdDeviation="4"/><feComposite in2="hardAlpha" operator="out"/><feColorMatrix values="0 0 0 0 0 0 0 0 0 0 0 0 0 0 0 0 0 0 0.1 0"/><feBlend in2="BackgroundImageFix" result="effect1_dropShadow_743_16533"/><feBlend in="SourceGraphic" in2="effect1_dropShadow_743_16533" result="shape"/></filter><filter id="e" x="155" y="137" width="62.605" height="72" filterUnits="userSpaceOnUse" color-interpolation-filters="sRGB"><feFlood flood-opacity="0" result="BackgroundImageFix"/><feColorMatrix in="SourceAlpha" values="0 0 0 0 0 0 0 0 0 0 0 0 0 0 0 0 0 0 127 0" result="hardAlpha"/><feOffset dy="8"/><feGaussianBlur stdDeviation="4"/><feComposite in2="hardAlpha" operator="out"/><feColorMatrix values="0 0 0 0 0 0 0 0 0 0 0 0 0 0 0 0 0 0 0.1 0"/><feBlend in2="BackgroundImageFix" result="effect1_dropShadow_743_16533"/><feBlend in="SourceGraphic" in2="effect1_dropShadow_743_16533" result="shape"/></filter><filter id="i" x="161.869" y="152.477" width="37.52" height="37.523" filterUnits="userSpaceOnUse" color-interpolation-filters="sRGB"><feFlood flood-opacity="0" result="BackgroundImageFix"/><feColorMatrix in="SourceAlpha" values="0 0 0 0 0 0 0 0 0 0 0 0 0 0 0 0 0 0 127 0" result="hardAlpha"/><feOffset dy="8"/><feGaussianBlur stdDeviation="4"/><feComposite in2="hardAlpha" operator="out"/><feColorMatrix values="0 0 0 0 0 0 0 0 0 0 0 0 0 0 0 0 0 0 0.1 0"/><feBlend in2="BackgroundImageFix" result="effect1_dropShadow_743_16533"/><feBlend in="SourceGraphic" in2="effect1_dropShadow_743_16533" result="shape"/></filter><filter id="j" x="127" y="97" width="92.2" height="59.992" filterUnits="userSpaceOnUse" color-interpolation-filters="sRGB"><feFlood flood-opacity="0" result="BackgroundImageFix"/><feColorMatrix in="SourceAlpha" values="0 0 0 0 0 0 0 0 0 0 0 0 0 0 0 0 0 0 127 0" result="hardAlpha"/><feOffset dy="8"/><feGaussianBlur stdDeviation="4"/><feComposite in2="hardAlpha" operator="out"/><feColorMatrix values="0 0 0 0 0 0 0 0 0 0 0 0 0 0 0 0 0 0 0.2 0"/><feBlend in2="BackgroundImageFix" result="effect1_dropShadow_743_16533"/><feBlend in="SourceGraphic" in2="effect1_dropShadow_743_16533" result="shape"/></filter><filter id="k" x="127" y="97" width="92.2" height="59.992" filterUnits="userSpaceOnUse" color-interpolation-filters="sRGB"><feFlood flood-opacity="0" result="BackgroundImageFix"/><feColorMatrix in="SourceAlpha" values="0 0 0 0 0 0 0 0 0 0 0 0 0 0 0 0 0 0 127 0" result="hardAlpha"/><feOffset dy="8"/><feGaussianBlur stdDeviation="4"/><feComposite in2="hardAlpha" operator="out"/><feColorMatrix values="0 0 0 0 0 0 0 0 0 0 0 0 0 0 0 0 0 0 0.1 0"/><feBlend in2="BackgroundImageFix" result="effect1_dropShadow_743_16533"/><feBlend in="SourceGraphic" in2="effect1_dropShadow_743_16533" result="shape"/></filter><filter id="m" x="71" y="89" width="76" height="55.289" filterUnits="userSpaceOnUse" color-interpolation-filters="sRGB"><feFlood flood-opacity="0" result="BackgroundImageFix"/><feColorMatrix in="SourceAlpha" values="0 0 0 0 0 0 0 0 0 0 0 0 0 0 0 0 0 0 127 0" result="hardAlpha"/><feOffset dy="8"/><feGaussianBlur stdDeviation="4"/><feComposite in2="hardAlpha" operator="out"/><feColorMatrix values="0 0 0 0 0 0 0 0 0 0 0 0 0 0 0 0 0 0 0.1 0"/><feBlend in2="BackgroundImageFix" result="effect1_dropShadow_743_16533"/><feBlend in="SourceGraphic" in2="effect1_dropShadow_743_16533" result="shape"/></filter><filter id="r" x="92" y="137" width="81" height="54" filterUnits="userSpaceOnUse" color-interpolation-filters="sRGB"><feFlood flood-opacity="0" result="BackgroundImageFix"/><feColorMatrix in="SourceAlpha" values="0 0 0 0 0 0 0 0 0 0 0 0 0 0 0 0 0 0 127 0" result="hardAlpha"/><feOffset dy="8"/><feGaussianBlur stdDeviation="4"/><feComposite in2="hardAlpha" operator="out"/><feColorMatrix values="0 0 0 0 0 0 0 0 0 0 0 0 0 0 0 0 0 0 0.1 0"/><feBlend in2="BackgroundImageFix" result="effect1_dropShadow_743_16533"/><feBlend in="SourceGraphic" in2="effect1_dropShadow_743_16533" result="shape"/></filter><filter id="s" x="187" y="90" width="78" height="79" filterUnits="userSpaceOnUse" color-interpolation-filters="sRGB"><feFlood flood-opacity="0" result="BackgroundImageFix"/><feColorMatrix in="SourceAlpha" values="0 0 0 0 0 0 0 0 0 0 0 0 0 0 0 0 0 0 127 0" result="hardAlpha"/><feOffset dy="8"/><feGaussianBlur stdDeviation="4"/><feComposite in2="hardAlpha" operator="out"/><feColorMatrix values="0 0 0 0 0 0 0 0 0 0 0 0 0 0 0 0 0 0 0.2 0"/><feBlend in2="BackgroundImageFix" result="effect1_dropShadow_743_16533"/><feBlend in="SourceGraphic" in2="effect1_dropShadow_743_16533" result="shape"/></filter><filter id="t" x="187" y="90" width="78" height="79" filterUnits="userSpaceOnUse" color-interpolation-filters="sRGB"><feFlood flood-opacity="0" result="BackgroundImageFix"/><feColorMatrix in="SourceAlpha" values="0 0 0 0 0 0 0 0 0 0 0 0 0 0 0 0 0 0 127 0" result="hardAlpha"/><feOffset dy="8"/><feGaussianBlur stdDeviation="4"/><feComposite in2="hardAlpha" operator="out"/><feColorMatrix values="0 0 0 0 0 0 0 0 0 0 0 0 0 0 0 0 0 0 0.1 0"/><feBlend in2="BackgroundImageFix" result="effect1_dropShadow_743_16533"/><feBlend in="SourceGraphic" in2="effect1_dropShadow_743_16533" result="shape"/></filter><filter id="v" x="260" y="194" width="63" height="63" filterUnits="userSpaceOnUse" color-interpolation-filters="sRGB"><feFlood flood-opacity="0" result="BackgroundImageFix"/><feColorMatrix in="SourceAlpha" values="0 0 0 0 0 0 0 0 0 0 0 0 0 0 0 0 0 0 127 0" result="hardAlpha"/><feOffset dy="4"/><feGaussianBlur stdDeviation="2"/><feComposite in2="hardAlpha" operator="out"/><feColorMatrix values="0 0 0 0 0 0 0 0 0 0 0 0 0 0 0 0 0 0 0.25 0"/><feBlend in2="BackgroundImageFix" result="effect1_dropShadow_743_16533"/><feBlend in="SourceGraphic" in2="effect1_dropShadow_743_16533" result="shape"/></filter><filter id="x" x="274.001" y="205.992" width="34.786" height="38" filterUnits="userSpaceOnUse" color-interpolation-filters="sRGB"><feFlood flood-opacity="0" result="BackgroundImageFix"/><feColorMatrix in="SourceAlpha" values="0 0 0 0 0 0 0 0 0 0 0 0 0 0 0 0 0 0 127 0" result="hardAlpha"/><feOffset dy="4"/><feGaussianBlur stdDeviation="2"/><feComposite in2="hardAlpha" operator="out"/><feColorMatrix values="0 0 0 0 0 0 0 0 0 0 0 0 0 0 0 0 0 0 0.25 0"/><feBlend in2="BackgroundImageFix" result="effect1_dropShadow_743_16533"/><feBlend in="SourceGraphic" in2="effect1_dropShadow_743_16533" result="shape"/></filter><filter id="z" x="282.482" y="210.164" width="17.177" height="18.508" filterUnits="userSpaceOnUse" color-interpolation-filters="sRGB"><feFlood flood-opacity="0" result="BackgroundImageFix"/><feColorMatrix in="SourceAlpha" values="0 0 0 0 0 0 0 0 0 0 0 0 0 0 0 0 0 0 127 0" result="hardAlpha"/><feOffset dy="4"/><feGaussianBlur stdDeviation="2"/><feComposite in2="hardAlpha" operator="out"/><feColorMatrix values="0 0 0 0 0 0 0 0 0 0 0 0 0 0 0 0 0 0 0.25 0"/><feBlend in2="BackgroundImageFix" result="effect1_dropShadow_743_16533"/><feBlend in="SourceGraphic" in2="effect1_dropShadow_743_16533" result="shape"/></filter><filter id="A" x="277.218" y="216.359" width="17.107" height="15.094" filterUnits="userSpaceOnUse" color-interpolation-filters="sRGB"><feFlood flood-opacity="0" result="BackgroundImageFix"/><feColorMatrix in="SourceAlpha" values="0 0 0 0 0 0 0 0 0 0 0 0 0 0 0 0 0 0 127 0" result="hardAlpha"/><feOffset dy="4"/><feGaussianBlur stdDeviation="2"/><feComposite in2="hardAlpha" operator="out"/><feColorMatrix values="0 0 0 0 0 0 0 0 0 0 0 0 0 0 0 0 0 0 0.1 0"/><feBlend in2="BackgroundImageFix" result="effect1_dropShadow_743_16533"/><feBlend in="SourceGraphic" in2="effect1_dropShadow_743_16533" result="shape"/></filter><filter id="B" x="277.218" y="216.359" width="17.107" height="15.094" filterUnits="userSpaceOnUse" color-interpolation-filters="sRGB"><feFlood flood-opacity="0" result="BackgroundImageFix"/><feColorMatrix in="SourceAlpha" values="0 0 0 0 0 0 0 0 0 0 0 0 0 0 0 0 0 0 127 0" result="hardAlpha"/><feOffset dy="4"/><feGaussianBlur stdDeviation="2"/><feComposite in2="hardAlpha" operator="out"/><feColorMatrix values="0 0 0 0 0 0 0 0 0 0 0 0 0 0 0 0 0 0 0.25 0"/><feBlend in2="BackgroundImageFix" result="effect1_dropShadow_743_16533"/><feBlend in="SourceGraphic" in2="effect1_dropShadow_743_16533" result="shape"/></filter><filter id="C" x="287.266" y="215.023" width="15.096" height="15.133" filterUnits="userSpaceOnUse" color-interpolation-filters="sRGB"><feFlood flood-opacity="0" result="BackgroundImageFix"/><feColorMatrix in="SourceAlpha" values="0 0 0 0 0 0 0 0 0 0 0 0 0 0 0 0 0 0 127 0" result="hardAlpha"/><feOffset dy="4"/><feGaussianBlur stdDeviation="2"/><feComposite in2="hardAlpha" operator="out"/><feColorMatrix values="0 0 0 0 0 0 0 0 0 0 0 0 0 0 0 0 0 0 0.25 0"/><feBlend in2="BackgroundImageFix" result="effect1_dropShadow_743_16533"/><feBlend in="SourceGraphic" in2="effect1_dropShadow_743_16533" result="shape"/></filter><filter id="D" x="12" y="52" width="51" height="51" filterUnits="userSpaceOnUse" color-interpolation-filters="sRGB"><feFlood flood-opacity="0" result="BackgroundImageFix"/><feColorMatrix in="SourceAlpha" values="0 0 0 0 0 0 0 0 0 0 0 0 0 0 0 0 0 0 127 0" result="hardAlpha"/><feOffset dy="8"/><feGaussianBlur stdDeviation="4"/><feComposite in2="hardAlpha" operator="out"/><feColorMatrix values="0 0 0 0 0 0 0 0 0 0 0 0 0 0 0 0 0 0 0.1 0"/><feBlend in2="BackgroundImageFix" result="effect1_dropShadow_743_16533"/><feBlend in="SourceGraphic" in2="effect1_dropShadow_743_16533" result="shape"/></filter><filter id="J" x="21.545" y="76.82" width="29.219" height="17.906" filterUnits="userSpaceOnUse" color-interpolation-filters="sRGB"><feFlood flood-opacity="0" result="BackgroundImageFix"/><feColorMatrix in="SourceAlpha" values="0 0 0 0 0 0 0 0 0 0 0 0 0 0 0 0 0 0 127 0" result="hardAlpha"/><feOffset dy="8"/><feGaussianBlur stdDeviation="4"/><feComposite in2="hardAlpha" operator="out"/><feColorMatrix values="0 0 0 0 0 0 0 0 0 0 0 0 0 0 0 0 0 0 0.1 0"/><feBlend in2="BackgroundImageFix" result="effect1_dropShadow_743_16533"/><feBlend in="SourceGraphic" in2="effect1_dropShadow_743_16533" result="shape"/></filter><filter id="b" x="107" y="73" width="141" height="136" filterUnits="userSpaceOnUse" color-interpolation-filters="sRGB"><feFlood flood-opacity="0" result="BackgroundImageFix"/><feColorMatrix in="SourceAlpha" values="0 0 0 0 0 0 0 0 0 0 0 0 0 0 0 0 0 0 127 0" result="hardAlpha"/><feOffset dy="8"/><feGaussianBlur stdDeviation="4"/><feComposite in2="hardAlpha" operator="out"/><feColorMatrix values="0 0 0 0 0 0 0 0 0 0 0 0 0 0 0 0 0 0 0.2 0"/><feBlend in2="BackgroundImageFix" result="effect1_dropShadow_743_16533"/><feBlend in="SourceGraphic" in2="effect1_dropShadow_743_16533" result="shape"/></filter><radialGradient id="w" cx="0" cy="0" r="1" gradientUnits="userSpaceOnUse" gradientTransform="matrix(21 21.99998 -34.17152 32.6183 270 203)"><stop stop-color="#C9FFDD"/><stop offset=".553" stop-color="#B0FFCD"/><stop offset="1" stop-color="#A7FFC7"/></radialGradient><clipPath id="a"><rect width="336" height="266" rx="30" fill="#fff"/></clipPath></defs></svg>