<svg width="60" height="64" fill="none" xmlns="http://www.w3.org/2000/svg"><path d="M45.572 26.018c6.145 0 11.071-5.056 11.071-11.224 0-6.167-4.925-11.224-11.071-11.224S34.5 8.627 34.5 14.794c0 6.168 4.926 11.224 11.072 11.224z" fill="#fff" stroke="#DFC509" stroke-width="4"/><path d="M44.974.365a.5.5 0 0 1 .48-.365h.869a.5.5 0 0 1 .481.365l.803 2.857a.5.5 0 0 1-.481.635h-2.474a.5.5 0 0 1-.481-.635l.803-2.857zM54.463 3.506a.51.51 0 0 0-.159-.585l-.696-.547a.49.49 0 0 0-.598-.008L50.67 4.12a.509.509 0 0 0-.007.805l1.967 1.543c.261.205.642.1.763-.211l1.071-2.75zM36.685 3.506a.51.51 0 0 1 .16-.585l.696-.547a.49.49 0 0 1 .597-.008L40.48 4.12c.265.199.268.6.007.805L38.52 6.467a.491.491 0 0 1-.764-.211l-1.071-2.75zM53.893 26.673a.51.51 0 0 1-.16.586l-.696.547a.49.49 0 0 1-.597.007l-2.342-1.753a.509.509 0 0 1-.006-.804l1.967-1.544a.491.491 0 0 1 .763.212l1.071 2.75zM58.541 8.521a.51.51 0 0 0 .006-.607l-.523-.715a.49.49 0 0 0-.572-.17l-2.73 1.052a.509.509 0 0 0-.224.773l1.475 2.02c.196.268.59.27.792.003L58.54 8.52zM32.607 8.521a.51.51 0 0 1-.005-.607l.522-.715a.49.49 0 0 1 .573-.17l2.729 1.052c.308.12.42.505.225.773l-1.475 2.02a.491.491 0 0 1-.792.003L32.607 8.52zM57.979 21.659a.51.51 0 0 1 .005.606l-.522.716a.49.49 0 0 1-.573.17l-2.729-1.053a.509.509 0 0 1-.225-.772l1.475-2.02a.491.491 0 0 1 .792-.003l1.777 2.355zM59.594 15.942a.5.5 0 0 0 .369-.474l.016-.902a.5.5 0 0 0-.352-.487l-2.78-.861a.5.5 0 0 0-.647.469l-.044 2.525a.5.5 0 0 0 .631.491l2.807-.761zM31.562 15.942a.5.5 0 0 1-.369-.474l-.015-.902a.5.5 0 0 1 .352-.487l2.779-.861a.5.5 0 0 1 .648.469L35 16.212a.5.5 0 0 1-.63.491l-2.808-.761zM44.974 29.643a.5.5 0 0 0 .48.365h.869a.5.5 0 0 0 .481-.365l.803-2.857a.5.5 0 0 0-.481-.636h-2.474a.5.5 0 0 0-.481.636l.803 2.857z" fill="#DFC509"/><path d="M7.883 31.157a.51.51 0 0 1 .316-.519l.703-.283a.49.49 0 0 1 .576.159l1.577 2.09c.199.264.09.65-.218.775l-2.043.824a.491.491 0 0 1-.674-.416l-.237-2.63zM3.639 34.491a.51.51 0 0 1 .095-.6l.543-.529a.49.49 0 0 1 .593-.072l2.252 1.335a.509.509 0 0 1 .093.8l-1.577 1.538a.491.491 0 0 1-.782-.128L3.64 34.49zM1.034 39.274a.51.51 0 0 1-.165-.584l.27-.71a.49.49 0 0 1 .508-.314l2.604.264c.329.034.539.376.42.686l-.785 2.06a.491.491 0 0 1-.763.212l-2.089-1.614zM.407 42.864a.5.5 0 0 0-.369.473l-.013.774a.5.5 0 0 0 .352.487l2.487.77a.5.5 0 0 0 .647-.468l.039-2.226a.5.5 0 0 0-.631-.492l-2.512.681zM14.704 29.763a.5.5 0 0 0-.481-.365h-.742a.5.5 0 0 0-.481.365l-.72 2.558a.5.5 0 0 0 .482.636h2.18a.5.5 0 0 0 .481-.636l-.719-2.558zM19.836 31.157a.51.51 0 0 0-.316-.519l-.703-.283a.49.49 0 0 0-.576.159l-1.577 2.09c-.199.264-.09.65.217.775l2.044.824a.491.491 0 0 0 .674-.416l.237-2.63zM24.072 34.491a.51.51 0 0 0-.095-.6l-.543-.529a.49.49 0 0 0-.593-.072l-2.252 1.335a.509.509 0 0 0-.093.8l1.577 1.538a.491.491 0 0 0 .782-.128l1.217-2.344zM26.693 39.274a.51.51 0 0 0 .165-.584l-.27-.71a.49.49 0 0 0-.508-.314l-2.604.264a.509.509 0 0 0-.42.686l.785 2.06c.118.31.499.416.763.212l2.089-1.614zM27.32 42.864a.5.5 0 0 1 .368.473l.014.774a.5.5 0 0 1-.353.487l-2.486.77a.5.5 0 0 1-.648-.468l-.038-2.226a.5.5 0 0 1 .63-.492l2.512.681zM7.899 56.25a.51.51 0 0 0 .316.518l.703.283a.49.49 0 0 0 .575-.158l1.577-2.09c.2-.265.091-.651-.217-.776l-2.043-.823a.491.491 0 0 0-.675.415l-.236 2.63zM3.654 52.907a.51.51 0 0 0 .096.6l.542.529a.49.49 0 0 0 .593.072l2.253-1.334a.509.509 0 0 0 .093-.8l-1.577-1.538a.491.491 0 0 0-.782.128l-1.218 2.343zM1.05 48.125a.51.51 0 0 0-.166.584l.27.709a.49.49 0 0 0 .508.314l2.604-.264a.509.509 0 0 0 .42-.686l-.784-2.06a.491.491 0 0 0-.763-.212l-2.09 1.615zM14.72 57.635a.5.5 0 0 1-.482.365h-.742a.5.5 0 0 1-.48-.365l-.72-2.558a.5.5 0 0 1 .482-.635h2.18a.5.5 0 0 1 .48.635l-.718 2.558zM19.86 56.25a.51.51 0 0 1-.317.518l-.703.283a.49.49 0 0 1-.576-.158l-1.576-2.09a.509.509 0 0 1 .217-.776l2.043-.823a.491.491 0 0 1 .674.415l.237 2.63zM24.104 52.907a.51.51 0 0 1-.096.6l-.543.529a.49.49 0 0 1-.593.072l-2.252-1.334a.509.509 0 0 1-.093-.8l1.577-1.538a.491.491 0 0 1 .782.128l1.218 2.343zM26.716 48.125a.51.51 0 0 1 .165.584l-.27.709a.49.49 0 0 1-.508.314l-2.604-.264a.509.509 0 0 1-.42-.686l.785-2.06c.118-.31.5-.416.763-.212l2.089 1.615z" fill="#A1D616"/><path d="M21.976 43.548c0 4.62-3.572 8.11-7.671 8.11-4.1 0-7.672-3.49-7.672-8.11 0-4.62 3.573-8.11 7.672-8.11s7.671 3.49 7.671 8.11z" fill="#fff" stroke="#A1D616" stroke-width="8"/><path d="M44.781 42.517a.51.51 0 0 1 .316-.518l.117-.047a.49.49 0 0 1 .576.159l.657.87c.2.264.09.65-.218.775l-.675.272a.491.491 0 0 1-.674-.415l-.099-1.096zM42.376 44.45a.51.51 0 0 1 .095-.6l.09-.088a.49.49 0 0 1 .593-.072l.939.556a.509.509 0 0 1 .093.8l-.521.508a.491.491 0 0 1-.782-.128l-.507-.976zM40.907 47.183a.51.51 0 0 1-.165-.584l.045-.117a.49.49 0 0 1 .508-.315l1.085.11a.509.509 0 0 1 .42.686l-.26.68a.491.491 0 0 1-.762.213l-.87-.673zM40.57 49.126a.5.5 0 0 0-.368.474l-.002.137a.5.5 0 0 0 .352.486l1.032.32a.5.5 0 0 0 .647-.469l.013-.739a.5.5 0 0 0-.631-.492l-1.042.283zM48.786 41.7a.5.5 0 0 0-.481-.364h-.116a.5.5 0 0 0-.48.365l-.302 1.071a.5.5 0 0 0 .481.635h.718a.5.5 0 0 0 .481-.635l-.3-1.071zM51.727 42.517A.51.51 0 0 0 51.41 42l-.117-.047a.49.49 0 0 0-.576.159l-.657.87c-.2.264-.09.65.217.775l.676.272a.491.491 0 0 0 .674-.415l.099-1.096zM54.132 44.45a.51.51 0 0 0-.096-.6l-.09-.088a.49.49 0 0 0-.593-.072l-.938.556a.509.509 0 0 0-.093.8l.521.508a.491.491 0 0 0 .781-.128l.508-.976zM55.608 47.183a.51.51 0 0 0 .166-.584l-.045-.117a.49.49 0 0 0-.508-.315l-1.085.11a.509.509 0 0 0-.42.686l.259.68c.118.311.499.417.763.213l.87-.673zM55.937 49.126a.5.5 0 0 1 .369.474l.002.137a.5.5 0 0 1-.352.486l-1.032.32a.5.5 0 0 1-.647-.469l-.013-.739a.5.5 0 0 1 .63-.492l1.043.283zM44.79 56.803a.51.51 0 0 0 .315.518l.117.047a.49.49 0 0 0 .576-.158l.657-.87c.199-.265.09-.652-.218-.776l-.675-.272a.491.491 0 0 0-.674.415l-.099 1.096zM42.384 54.878a.51.51 0 0 0 .095.6l.09.088a.49.49 0 0 0 .593.072l.939-.556a.509.509 0 0 0 .093-.8l-.521-.508a.491.491 0 0 0-.782.128l-.507.976zM40.915 52.137a.51.51 0 0 0-.165.584l.045.118a.49.49 0 0 0 .508.314l1.085-.11a.509.509 0 0 0 .42-.686l-.26-.68a.491.491 0 0 0-.762-.213l-.871.673zM48.786 57.62a.5.5 0 0 1-.481.364h-.116a.5.5 0 0 1-.48-.364l-.302-1.072a.5.5 0 0 1 .481-.635h.718a.5.5 0 0 1 .481.635l-.3 1.072zM51.727 56.803a.51.51 0 0 1-.316.518l-.117.047a.49.49 0 0 1-.576-.158l-.657-.87a.509.509 0 0 1 .217-.776l.676-.272a.491.491 0 0 1 .674.415l.099 1.096zM54.124 54.878a.51.51 0 0 1-.095.6l-.09.088a.49.49 0 0 1-.593.072l-.939-.556a.509.509 0 0 1-.093-.8l.521-.508a.491.491 0 0 1 .782.128l.507.976zM55.6 52.137a.51.51 0 0 1 .166.584l-.045.118a.49.49 0 0 1-.508.314l-1.085-.11a.509.509 0 0 1-.42-.686l.259-.68a.491.491 0 0 1 .763-.213l.87.673z" fill="#DF2A2A"/><path d="M53.39 49.818c0 2.986-2.302 5.294-5.007 5.294-2.706 0-5.008-2.308-5.008-5.294 0-2.986 2.302-5.295 5.008-5.295 2.705 0 5.008 2.31 5.008 5.295z" fill="#fff" stroke="#DF2A2A" stroke-width="3"/><g filter="url(#a)"><rect x="29.93" y="7.953" width="6.997" height="6.999" rx="2" fill="#357ABD" stroke="#fff" stroke-width="2"/><rect x="28.438" y="6.461" width="9.995" height="4.5" rx="2.25" fill="#357ABD" stroke="#fff" stroke-width="2"/><mask id="b" maskUnits="userSpaceOnUse" x="12.148" y="12.711" width="43" height="44" fill="#000"><path fill="#fff" d="M12.148 12.711h43v44h-43z"/><path d="M51.196 34.245c1.104 0 2.01.898 1.898 1.997a19.54 19.54 0 0 1-4.22 10.26 19.514 19.514 0 0 1-23.94 5.211 19.53 19.53 0 0 1-9.021-9.353 19.544 19.544 0 0 1 6.058-23.752 19.516 19.516 0 0 1 22.911-.356c.904.634.989 1.906.266 2.74l-.408.471c-.723.836-1.98.913-2.905.308a14.897 14.897 0 0 0-17.094.538 14.91 14.91 0 0 0-4.624 18.13 14.895 14.895 0 0 0 25.16 3.161 14.915 14.915 0 0 0 3.163-7.36c.148-1.096 1.03-1.995 2.134-1.995h.622z"/></mask><path d="M51.196 34.245c1.104 0 2.01.898 1.898 1.997a19.54 19.54 0 0 1-4.22 10.26 19.514 19.514 0 0 1-23.94 5.211 19.53 19.53 0 0 1-9.021-9.353 19.544 19.544 0 0 1 6.058-23.752 19.516 19.516 0 0 1 22.911-.356c.904.634.989 1.906.266 2.74l-.408.471c-.723.836-1.98.913-2.905.308a14.897 14.897 0 0 0-17.094.538 14.91 14.91 0 0 0-4.624 18.13 14.895 14.895 0 0 0 25.16 3.161 14.915 14.915 0 0 0 3.163-7.36c.148-1.096 1.03-1.995 2.134-1.995h.622z" fill="#357ABD"/><path d="M51.196 34.245c1.104 0 2.01.898 1.898 1.997a19.54 19.54 0 0 1-4.22 10.26 19.514 19.514 0 0 1-23.94 5.211 19.53 19.53 0 0 1-9.021-9.353 19.544 19.544 0 0 1 6.058-23.752 19.516 19.516 0 0 1 22.911-.356c.904.634.989 1.906.266 2.74l-.408.471c-.723.836-1.98.913-2.905.308a14.897 14.897 0 0 0-17.094.538 14.91 14.91 0 0 0-4.624 18.13 14.895 14.895 0 0 0 25.16 3.161 14.915 14.915 0 0 0 3.163-7.36c.148-1.096 1.03-1.995 2.134-1.995h.622z" stroke="#fff" stroke-width="4" mask="url(#b)"/><path d="M36.22 51.376c9.845 0 17.976-7.34 17.976-16.57 0-9.232-8.131-16.572-17.977-16.572-9.845 0-17.977 7.34-17.977 16.571 0 9.231 8.132 16.57 17.977 16.57z" fill="#fff" stroke="#fff" stroke-width="2"/><path d="m41.608 20.746 2.71-3.649a1 1 0 0 1 1.749.273l1.465 4.283a1 1 0 0 1-1.097 1.312l-4.174-.634a1 1 0 0 1-.653-1.585z" fill="#357ABD"/><g filter="url(#c)" fill="#9747FF"><path d="M33.787 34.377 53.145 21.37 36.516 36.79l-2.729-2.414z"/><ellipse cx="2.655" cy="2.724" rx="2.655" ry="2.724" transform="rotate(-22.896 100.962 -58.891) skewX(-.022)"/></g></g><defs><filter id="a" x="8.148" y="5.461" width="51.047" height="58.32" filterUnits="userSpaceOnUse" color-interpolation-filters="sRGB"><feFlood flood-opacity="0" result="BackgroundImageFix"/><feColorMatrix in="SourceAlpha" values="0 0 0 0 0 0 0 0 0 0 0 0 0 0 0 0 0 0 127 0" result="hardAlpha"/><feOffset dy="4"/><feGaussianBlur stdDeviation="2"/><feComposite in2="hardAlpha" operator="out"/><feColorMatrix values="0 0 0 0 0 0 0 0 0 0 0 0 0 0 0 0 0 0 0.25 0"/><feBlend in2="BackgroundImageFix" result="effect1_dropShadow_688_392"/><feBlend in="SourceGraphic" in2="effect1_dropShadow_688_392" result="shape"/></filter><filter id="c" x="27.703" y="21.367" width="29.445" height="25.469" filterUnits="userSpaceOnUse" color-interpolation-filters="sRGB"><feFlood flood-opacity="0" result="BackgroundImageFix"/><feColorMatrix in="SourceAlpha" values="0 0 0 0 0 0 0 0 0 0 0 0 0 0 0 0 0 0 127 0" result="hardAlpha"/><feOffset dy="4"/><feGaussianBlur stdDeviation="2"/><feComposite in2="hardAlpha" operator="out"/><feColorMatrix values="0 0 0 0 0 0 0 0 0 0 0 0 0 0 0 0 0 0 0.25 0"/><feBlend in2="BackgroundImageFix" result="effect1_dropShadow_688_392"/><feBlend in="SourceGraphic" in2="effect1_dropShadow_688_392" result="shape"/></filter></defs></svg>