<svg width="151" height="160" fill="none" xmlns="http://www.w3.org/2000/svg"><g filter="url(#a)"><path d="m92.836 29.165-.6-.72H58.005l-.597.675c-7.078 7.997-16.648 21.219-22.343 34.953-5.637 13.594-7.799 28.527 1.386 39.078 9.045 10.391 24.097 12.323 38.569 10.904 14.58-1.43 29.247-6.318 38.326-10.392l.141-.063.129-.084c4.982-3.233 9.021-10.922 7.207-23.106-1.81-12.16-9.438-29-27.986-51.245zM60.25 21.538l.082 1.914H89.53l-1.097-2.743c-.349-.872-.56-2.503.192-4.245.727-1.683 2.466-3.717 6.45-5.24 1.424-.545 2.768-1.275 3.455-2.406.397-.654.567-1.436.385-2.243-.17-.748-.597-1.315-1.005-1.71-.787-.766-1.918-1.3-3.005-1.679-1.141-.398-2.461-.702-3.815-.898-2.652-.384-5.754-.399-8.113.353-1.175.375-2.431 1.024-3.227 2.183a4.2 4.2 0 0 0-.726 1.978c-1.239-2.417-3.385-4.51-6.887-4.789-.593-.047-1.5.003-2.246.67-.751.67-.871 1.548-.888 2.022-.018.487.06.985.117 1.33.021.13.042.248.061.36l.011.061C66.21 4.73 59.782 3.134 53.306 7.724c-.908.643-1.584 1.122-1.978 1.447a4.521 4.521 0 0 0-.341.308c-.088.09-.299.309-.458.628-.159.316-.49 1.24.166 2.144.491.676 1.196.804 1.334.829h.006c.359.066.735.037.873.026l.02-.001.35-.03.299-.026a9.23 9.23 0 0 1 1.51-.014c1.069.09 2.176.435 3.085 1.45.936 1.046 1.906 3.076 2.077 7.053zM52.508 9.122z" fill="#357ABD" stroke="#fff" stroke-width="4"/><rect x="58.68" y="21.039" width="31.928" height="9.288" rx="4.644" fill="#357ABD" stroke="#fff" stroke-width="4"/><path d="M88.123 71.16h-3.971c-.578 0-1.047.445-1.047.992v4.202H72.413V65.872h7.331c.579 0 1.047-.444 1.047-.991v-3.306c0-.547-.468-.991-1.047-.991h-7.33v-5.252c0-2.666 2.143-4.717 5.392-4.717 2.065 0 4.004.95 5.032 1.558.45.265 1.037.17 1.369-.222l2.486-2.935a.957.957 0 0 0-.185-1.411c-1.43-1.022-4.619-2.886-8.864-2.886-7.148 0-12.213 4.358-12.213 10.408v5.457h-2.443c-.579 0-1.048.444-1.048.991v3.306c0 .547.47.991 1.048.991h2.443V76.45H62.29c-.578 0-1.047.444-1.047.992v3.305c0 .547.47.991 1.047.991h25.834c.578 0 1.047-.444 1.047-.991v-8.594c0-.547-.47-.992-1.047-.992z" fill="#fff"/></g><g filter="url(#b)" fill="#1C3343" stroke="#fff" stroke-width="4"><path d="m43.444 84.179-1.133-.138-.695.906L21.53 111.12l-1.372 1.788 1.938 1.149 59.55 35.341c1.552 1.046 3.27.553 4.369-.052 1.17-.645 2.224-1.693 3.01-2.803.783-1.102 1.445-2.471 1.608-3.859.05-.422.052-.867-.01-1.312l3.423 1.945.088.05.092.041c1.571.694 3.11.312 4.262-.344 1.132-.644 2.083-1.641 2.79-2.641.71-1.005 1.282-2.164 1.553-3.265a5.279 5.279 0 0 0 .16-1.672l1.819 1.063c1.4.844 2.921.769 4.167.248 1.209-.506 2.22-1.439 2.922-2.496.953-1.434 1.548-3.507.945-5.46 1.116.384 2.258.169 3.154-.238 1.163-.529 2.176-1.465 2.933-2.427.764-.969 1.411-2.144 1.708-3.319.273-1.081.379-2.781-.905-3.997-1.101-1.042-3.681-2.878-6.941-5.092-3.326-2.259-7.54-5.03-12.049-7.989l-1.537-1.007c-8.646-5.671-18.12-11.885-24.601-16.55l-.417-.3-.51-.063-30.236-3.68z"/><path d="m118.967 121.699 1.241.838 1.154-.956 8.638-7.157 1.36-1.126-.949-1.488-16.413-25.765-.661-1.036-1.223.12c-3.212.317-13.19.286-26.146-2.619-3.268-.733-5.442-1.025-7.073-.788-1.897.276-2.897 1.244-3.742 2.063l-.073.07c-.755.732-1.609 1.56-3.342 2.478-1.833.972-4.718 2.077-9.527 3.127l-.72.157-.446.587c-.613.806-1.227 1.71-1.615 2.662-.397.973-.622 2.157-.213 3.396.406 1.23 1.32 2.162 2.473 2.88 1.143.713 2.663 1.307 4.568 1.825 3.68 1.002 7.268.27 10.213-.89 2.305-.908 4.323-2.121 5.829-3.121l36.667 24.743z"/><path d="m107.581 76.692-1.732 1.082 1.118 1.71 23.541 35.988.7 1.071 1.266-.187c1.302-.193 3.358-.683 5.471-1.542 2.09-.849 4.425-2.135 6.097-4.015.508-.571.728-1.255.835-1.808.111-.575.134-1.199.112-1.821-.045-1.245-.286-2.754-.647-4.407-.726-3.321-2.009-7.532-3.535-12-3.058-8.954-7.171-19.166-10.026-25.839l-.919-2.146-1.98 1.236-20.301 12.678zM25.073 63.94l1.978 1.33 20.085 13.495 1.757 1.18-1.277 1.688-25.7 33.943-.923 1.218-1.417-.569c-2.15-.862-5.366-2.233-8.019-3.544-1.315-.65-2.557-1.317-3.47-1.922-.445-.294-.906-.635-1.265-1.009a3.196 3.196 0 0 1-.578-.811 2.328 2.328 0 0 1-.148-1.691M25.073 63.94 6.096 107.249M25.073 63.94l-.966 2.18m.966-2.18-.966 2.18M6.096 107.247c.083-.277.367-.957.703-1.749.37-.871.882-2.061 1.503-3.493 1.243-2.864 2.928-6.71 4.783-10.93 3.71-8.439 8.106-18.378 11.022-24.957M6.096 107.248l18.011-41.129"/></g><defs><filter id="a" x="24.195" y="0" width="103.07" height="124.469" filterUnits="userSpaceOnUse" color-interpolation-filters="sRGB"><feFlood flood-opacity="0" result="BackgroundImageFix"/><feColorMatrix in="SourceAlpha" values="0 0 0 0 0 0 0 0 0 0 0 0 0 0 0 0 0 0 127 0" result="hardAlpha"/><feOffset dy="4"/><feGaussianBlur stdDeviation="2"/><feComposite in2="hardAlpha" operator="out"/><feColorMatrix values="0 0 0 0 0 0 0 0 0 0 0 0 0 0 0 0 0 0 0.25 0"/><feBlend in2="BackgroundImageFix" result="effect1_dropShadow_672_277"/><feBlend in="SourceGraphic" in2="effect1_dropShadow_672_277" result="shape"/></filter><filter id="b" x="0" y="59.844" width="151" height="100.164" filterUnits="userSpaceOnUse" color-interpolation-filters="sRGB"><feFlood flood-opacity="0" result="BackgroundImageFix"/><feColorMatrix in="SourceAlpha" values="0 0 0 0 0 0 0 0 0 0 0 0 0 0 0 0 0 0 127 0" result="hardAlpha"/><feOffset dy="4"/><feGaussianBlur stdDeviation="2"/><feComposite in2="hardAlpha" operator="out"/><feColorMatrix values="0 0 0 0 0 0 0 0 0 0 0 0 0 0 0 0 0 0 0.25 0"/><feBlend in2="BackgroundImageFix" result="effect1_dropShadow_672_277"/><feBlend in="SourceGraphic" in2="effect1_dropShadow_672_277" result="shape"/></filter></defs></svg>