<svg width="69" height="65" fill="none" xmlns="http://www.w3.org/2000/svg"><g filter="url(#a)"><path d="m19.826 37.822-.001.013v.012c-.102 2.544 1.76 4.421 4.609 5.634 2.863 1.219 6.875 1.847 11.46 1.847 4.008 0 6.773-1.544 8.446-3.917 1.658-2.352 2.2-5.454 1.915-8.518-.284-3.067-1.4-6.153-3.13-8.51s-4.113-4.032-6.931-4.144a.825.825 0 0 1-.115-.011.794.794 0 0 1 .007-.025c.053-.164.193-.425.475-.878.154-.248.344-.543.57-.894a115.63 115.63 0 0 0 2.406-3.869c1.024-1.723 1.397-3.54 1.333-5.143-.064-1.592-.561-3.011-1.33-3.914-.387-.453-.86-.796-1.4-.937-.551-.143-1.127-.063-1.674.255-1.058.613-1.982 2.091-2.66 4.531-1.002 3.607-3.176 6.9-5.558 9.596-2.38 2.693-4.941 4.76-6.678 5.918-.38.254-.635.665-.677 1.13l-1.067 11.824zM36.048 20.23s0 0 0 0h0z" fill="#FCC4AE" stroke="#E59076" stroke-linecap="round"/><rect x="12.852" y="19.492" width="8.497" height="24.559" rx="2.5" fill="#fff" stroke="#1B3140"/><rect x="7.5" y="19.492" width="8.497" height="27.772" rx="2.5" fill="#357ABD" stroke="#1B3140"/><rect x="35.5" y="18.5" width="17" height="7" rx="3.5" fill="#FCC4AE" stroke="#E59076"/><rect x="33.5" y="25.5" width="20" height="7" rx="3.5" fill="#FCC4AE" stroke="#E59076"/><rect x="34.5" y="32.5" width="18" height="7" rx="3.5" fill="#FCC4AE" stroke="#E59076"/><rect x="35.5" y="39.492" width="17" height="7" rx="3.5" fill="#FCC4AE" stroke="#E59076"/></g><g filter="url(#b)"><path d="M18 27.497c7.456 0 13.5-6.044 13.5-13.499C31.5 6.543 25.456.5 18 .5S4.5 6.543 4.5 13.998c0 7.455 6.044 13.499 13.5 13.499z" fill="#FFCE62" stroke="#1B3140"/><path d="M13.18 16.89c1.765 2.087 6.066 5.008 9.148 0" stroke="#1B3140" stroke-linecap="round"/><circle cx="14.621" cy="10.621" r="1.926" fill="#1B3140"/><circle cx="21.363" cy="10.621" r="1.926" fill="#1B3140"/></g><g filter="url(#c)"><path d="M54.525 1.463a.5.5 0 0 1 .95 0l1.658 5.1a.5.5 0 0 0 .475.346h5.364a.5.5 0 0 1 .293.904l-4.338 3.152a.5.5 0 0 0-.182.56l1.657 5.1a.5.5 0 0 1-.77.558l-4.338-3.152a.5.5 0 0 0-.588 0l-4.339 3.152a.5.5 0 0 1-.77-.559l1.658-5.1a.5.5 0 0 0-.182-.559l-4.338-3.152a.5.5 0 0 1 .293-.904h5.364a.5.5 0 0 0 .475-.346l1.658-5.1z" fill="#FFE177"/><path d="m57.608 6.409-1.657-5.1c-.3-.921-1.603-.921-1.902 0l-1.657 5.1h-5.364c-.968 0-1.371 1.24-.587 1.809l4.338 3.152-1.657 5.1c-.3.921.755 1.687 1.539 1.118L55 14.436l4.339 3.152c.784.57 1.838-.197 1.539-1.118l-1.657-5.1 4.338-3.152c.784-.57.381-1.81-.587-1.81h-5.364z" stroke="#FFCE62"/></g><g filter="url(#d)"><path d="M19.142 39.463a.5.5 0 0 1 .95 0l1.658 5.1a.5.5 0 0 0 .476.346h5.363a.5.5 0 0 1 .294.904l-4.34 3.152a.5.5 0 0 0-.18.56l1.657 5.1a.5.5 0 0 1-.77.558l-4.339-3.152a.5.5 0 0 0-.588 0l-4.339 3.152a.5.5 0 0 1-.77-.559l1.658-5.1a.5.5 0 0 0-.181-.559l-4.34-3.152a.5.5 0 0 1 .295-.904h5.363a.5.5 0 0 0 .475-.346l1.658-5.1z" fill="#FFE177"/><path d="m22.226 44.409-1.658-5.1c-.3-.921-1.603-.921-1.902 0l-1.657 5.1h-5.363c-.97 0-1.372 1.24-.588 1.809l4.339 3.152-1.658 5.1c-.299.921.755 1.687 1.54 1.118l4.338-3.152 4.34 3.152c.783.57 1.837-.197 1.538-1.118l-1.657-5.1 4.338-3.152c.784-.57.382-1.81-.587-1.81h-5.363z" stroke="#FFCE62"/></g><g filter="url(#e)"><path d="M45.525 29.463a.5.5 0 0 1 .95 0l1.658 5.1a.5.5 0 0 0 .475.346h5.364a.5.5 0 0 1 .293.904l-4.338 3.152a.5.5 0 0 0-.182.56l1.657 5.1a.5.5 0 0 1-.77.558l-4.338-3.152a.5.5 0 0 0-.588 0l-4.339 3.152a.5.5 0 0 1-.77-.559l1.658-5.1a.5.5 0 0 0-.182-.559l-4.338-3.152a.5.5 0 0 1 .293-.904h5.364a.5.5 0 0 0 .475-.346l1.658-5.1z" fill="#FFE177"/><path d="m48.608 34.409-1.657-5.1c-.3-.922-1.603-.922-1.902 0l-1.657 5.1h-5.364c-.968 0-1.371 1.24-.587 1.809l4.338 3.152-1.657 5.1c-.3.921.755 1.687 1.539 1.118L46 42.436l4.339 3.152c.784.57 1.838-.197 1.539-1.118l-1.657-5.1 4.338-3.152c.784-.57.381-1.81-.587-1.81h-5.364z" stroke="#FFCE62"/></g><defs><filter id="a" x="3" y="4" width="55" height="51.766" filterUnits="userSpaceOnUse" color-interpolation-filters="sRGB"><feFlood flood-opacity="0" result="BackgroundImageFix"/><feColorMatrix in="SourceAlpha" values="0 0 0 0 0 0 0 0 0 0 0 0 0 0 0 0 0 0 127 0" result="hardAlpha"/><feOffset dy="4"/><feGaussianBlur stdDeviation="2"/><feComposite in2="hardAlpha" operator="out"/><feColorMatrix values="0 0 0 0 0 0 0 0 0 0 0 0 0 0 0 0 0 0 0.25 0"/><feBlend in2="BackgroundImageFix" result="effect1_dropShadow_688_451"/><feBlend in="SourceGraphic" in2="effect1_dropShadow_688_451" result="shape"/></filter><filter id="b" x="0" y="0" width="36" height="36" filterUnits="userSpaceOnUse" color-interpolation-filters="sRGB"><feFlood flood-opacity="0" result="BackgroundImageFix"/><feColorMatrix in="SourceAlpha" values="0 0 0 0 0 0 0 0 0 0 0 0 0 0 0 0 0 0 127 0" result="hardAlpha"/><feOffset dy="4"/><feGaussianBlur stdDeviation="2"/><feComposite in2="hardAlpha" operator="out"/><feColorMatrix values="0 0 0 0 0 0 0 0 0 0 0 0 0 0 0 0 0 0 0.25 0"/><feBlend in2="BackgroundImageFix" result="effect1_dropShadow_688_451"/><feBlend in="SourceGraphic" in2="effect1_dropShadow_688_451" result="shape"/></filter><filter id="c" x="41.523" y=".117" width="26.953" height="26.172" filterUnits="userSpaceOnUse" color-interpolation-filters="sRGB"><feFlood flood-opacity="0" result="BackgroundImageFix"/><feColorMatrix in="SourceAlpha" values="0 0 0 0 0 0 0 0 0 0 0 0 0 0 0 0 0 0 127 0" result="hardAlpha"/><feOffset dy="4"/><feGaussianBlur stdDeviation="2"/><feComposite in2="hardAlpha" operator="out"/><feColorMatrix values="0 0 0 0 0 0 0 0 0 0 0 0 0 0 0 0 0 0 0.25 0"/><feBlend in2="BackgroundImageFix" result="effect1_dropShadow_688_451"/><feBlend in="SourceGraphic" in2="effect1_dropShadow_688_451" result="shape"/></filter><filter id="d" x="6.141" y="38.117" width="26.953" height="26.172" filterUnits="userSpaceOnUse" color-interpolation-filters="sRGB"><feFlood flood-opacity="0" result="BackgroundImageFix"/><feColorMatrix in="SourceAlpha" values="0 0 0 0 0 0 0 0 0 0 0 0 0 0 0 0 0 0 127 0" result="hardAlpha"/><feOffset dy="4"/><feGaussianBlur stdDeviation="2"/><feComposite in2="hardAlpha" operator="out"/><feColorMatrix values="0 0 0 0 0 0 0 0 0 0 0 0 0 0 0 0 0 0 0.25 0"/><feBlend in2="BackgroundImageFix" result="effect1_dropShadow_688_451"/><feBlend in="SourceGraphic" in2="effect1_dropShadow_688_451" result="shape"/></filter><filter id="e" x="32.523" y="28.117" width="26.953" height="26.172" filterUnits="userSpaceOnUse" color-interpolation-filters="sRGB"><feFlood flood-opacity="0" result="BackgroundImageFix"/><feColorMatrix in="SourceAlpha" values="0 0 0 0 0 0 0 0 0 0 0 0 0 0 0 0 0 0 127 0" result="hardAlpha"/><feOffset dy="4"/><feGaussianBlur stdDeviation="2"/><feComposite in2="hardAlpha" operator="out"/><feColorMatrix values="0 0 0 0 0 0 0 0 0 0 0 0 0 0 0 0 0 0 0.25 0"/><feBlend in2="BackgroundImageFix" result="effect1_dropShadow_688_451"/><feBlend in="SourceGraphic" in2="effect1_dropShadow_688_451" result="shape"/></filter></defs></svg>