<svg width="175" height="160" fill="none" xmlns="http://www.w3.org/2000/svg"><g filter="url(#a)"><path d="M159.493 107.603c1.105 0 2.005.896 1.956 2-.414 9.42-3.742 18.481-9.529 25.85-6.195 7.89-14.833 13.367-24.48 15.52-9.647 2.154-19.722.856-28.55-3.68-8.83-4.535-15.88-12.034-19.981-21.251a45.46 45.46 0 0 1-2.566-29.414c2.441-9.818 8.082-18.483 15.986-24.556 7.903-6.072 17.593-9.186 27.46-8.825 9.222.338 18.08 3.693 25.291 9.55.842.683.928 1.922.228 2.751L124.78 99.864c-.725.859-2.011.924-3.015.416a7.787 7.787 0 0 0-3.235-.837 7.816 7.816 0 0 0-5.052 1.624 8.184 8.184 0 0 0-2.941 4.517 8.37 8.37 0 0 0 .472 5.412 8.078 8.078 0 0 0 3.676 3.909 7.766 7.766 0 0 0 5.253.677 7.93 7.93 0 0 0 4.504-2.855 8.26 8.26 0 0 0 1.523-3.143c.262-1.073 1.133-1.981 2.238-1.981h31.29z" fill="#357ABD"/><ellipse cx="122.796" cy="110.448" rx="38.694" ry="36.987" fill="#fff"/><path d="m136.031 82.462 8.886-11.96a1 1 0 0 1 1.748.273l4.803 14.04a1 1 0 0 1-1.096 1.312l-13.688-2.08a1 1 0 0 1-.653-1.585z" fill="#357ABD"/><rect x="114.828" y="55.25" width="11.381" height="11.381" rx="1" fill="#357ABD"/><rect x="111.414" y="51.836" width="18.209" height="5.69" rx="2" fill="#357ABD"/><g filter="url(#b)" fill="#9747FF"><path d="m119.504 107.93 44.09-29.613-37.874 35.108-6.216-5.495z"/><ellipse cx="120.826" cy="111.885" rx="6.046" ry="6.201" transform="rotate(-22.885 120.826 111.885)"/></g></g><path d="M60.492 80.992h14.482M37.844 91.008h24.508M38.953 100.094h13.368M31.156 112.617H62.35M43.414 125.133H64.21M50.46 132.664h22.653M48.883 142.992h30.059" stroke="#169F84" stroke-width="4" stroke-linecap="round"/><g filter="url(#c)"><path d="M51.596 37.584C43.076 39.712 19.463 73.16 8.72 89.62c5.532-8.477 36.302-32.531 51.669-43.118.618-3.86-.274-11.046-8.794-8.918z" fill="url(#d)"/><path d="M82.904 14.607c-8.71 2.61-16.843 8.7-21.817 13.331-2.479 2.307-.036 8.167 1.467 11.22 1.82 3.694 5.625 3.71 9.377 2.033l18.063-8.068c1.594-.712 2.821-2.075 3.158-3.783 1.52-7.718.593-17.981-10.248-14.733z" fill="url(#e)"/><path d="M98.564 21.631c-2.185-5.709-6.127-9.772-2.218-10.055l22.537-2.238c4.197-.417 7.519 3.496 6.413 7.55l-2.581 9.458c-.846 3.097-4.011 4.987-7.232 4.883a61.224 61.224 0 0 0-5.429.09c-4.818.278-9.768-5.187-11.49-9.688z" fill="url(#f)"/><path d="m150.733 37.206-5.493 2.564c-2.934 1.369-6.396.828-8.862-1.27-2.84-2.416-6.481-5.332-8.46-6.19-3.554-1.541 10.414-19.279 10.414-19.277l13.867 10.56c4.786 3.645 3.986 11.07-1.466 13.613z" fill="url(#g)"/><path d="M154.221 54.878c-.404-.57-.815-1.142-1.223-1.706-2.359-3.25-2.53-7.885-.085-11.082a5260.795 5260.795 0 0 1 7.721-10.083c.003.006 5.663 8.605 9.29 14.439 1.847 2.971 1.014 6.496-1.809 8.567l-2.448 1.796c-3.668 2.69-8.816 1.776-11.446-1.931z" fill="url(#h)"/></g><defs><linearGradient id="d" x1="58.976" y1="36.228" x2="1.846" y2="98.693" gradientUnits="userSpaceOnUse"><stop stop-color="#E13434"/><stop offset="1" stop-color="#DB1212"/></linearGradient><linearGradient id="e" x1="95.713" y1="17.698" x2="57.226" y2="40.992" gradientUnits="userSpaceOnUse"><stop stop-color="#EE5912"/><stop offset="1" stop-color="#E23939"/></linearGradient><linearGradient id="f" x1="93.608" y1="22.737" x2="127.068" y2="22.844" gradientUnits="userSpaceOnUse"><stop stop-color="#EE5812"/><stop offset="1" stop-color="#E3B10A"/></linearGradient><linearGradient id="g" x1="131.55" y1="22.976" x2="150.53" y2="38.391" gradientUnits="userSpaceOnUse"><stop stop-color="#E88D0B"/><stop offset="1" stop-color="#DDD509"/></linearGradient><linearGradient id="h" x1="155.274" y1="40.748" x2="167.84" y2="57.774" gradientUnits="userSpaceOnUse"><stop stop-color="#E1D508"/><stop offset="1" stop-color="#91D719"/></linearGradient><filter id="a" x="71" y="51.836" width="96.594" height="108.148" filterUnits="userSpaceOnUse" color-interpolation-filters="sRGB"><feFlood flood-opacity="0" result="BackgroundImageFix"/><feColorMatrix in="SourceAlpha" values="0 0 0 0 0 0 0 0 0 0 0 0 0 0 0 0 0 0 127 0" result="hardAlpha"/><feOffset dy="4"/><feGaussianBlur stdDeviation="2"/><feComposite in2="hardAlpha" operator="out"/><feColorMatrix values="0 0 0 0 0 0 0 0 0 0 0 0 0 0 0 0 0 0 0.25 0"/><feBlend in2="BackgroundImageFix" result="effect1_dropShadow_672_211"/><feBlend in="SourceGraphic" in2="effect1_dropShadow_672_211" result="shape"/></filter><filter id="b" x="110.758" y="78.32" width="56.836" height="47.742" filterUnits="userSpaceOnUse" color-interpolation-filters="sRGB"><feFlood flood-opacity="0" result="BackgroundImageFix"/><feColorMatrix in="SourceAlpha" values="0 0 0 0 0 0 0 0 0 0 0 0 0 0 0 0 0 0 127 0" result="hardAlpha"/><feOffset dy="4"/><feGaussianBlur stdDeviation="2"/><feComposite in2="hardAlpha" operator="out"/><feColorMatrix values="0 0 0 0 0 0 0 0 0 0 0 0 0 0 0 0 0 0 0.25 0"/><feBlend in2="BackgroundImageFix" result="effect1_dropShadow_672_211"/><feBlend in="SourceGraphic" in2="effect1_dropShadow_672_211" result="shape"/></filter><filter id="c" x="4.719" y="9.305" width="170.188" height="88.313" filterUnits="userSpaceOnUse" color-interpolation-filters="sRGB"><feFlood flood-opacity="0" result="BackgroundImageFix"/><feColorMatrix in="SourceAlpha" values="0 0 0 0 0 0 0 0 0 0 0 0 0 0 0 0 0 0 127 0" result="hardAlpha"/><feOffset dy="4"/><feGaussianBlur stdDeviation="2"/><feComposite in2="hardAlpha" operator="out"/><feColorMatrix values="0 0 0 0 0 0 0 0 0 0 0 0 0 0 0 0 0 0 0.25 0"/><feBlend in2="BackgroundImageFix" result="effect1_dropShadow_672_211"/><feBlend in="SourceGraphic" in2="effect1_dropShadow_672_211" result="shape"/></filter></defs></svg>