<svg width="135" height="130" fill="none" xmlns="http://www.w3.org/2000/svg"><mask id="a" maskUnits="userSpaceOnUse" x="25.546" y="40.735" width="89.164" height="44.332" fill="#000"><path fill="#fff" d="M25.546 40.735h89.164v44.332H25.546z"/><path d="M105.041 80.211c2.761.01 5.049-2.234 4.614-4.96-1.197-7.495-5.136-14.505-11.307-19.94-7.521-6.626-17.742-10.37-28.414-10.41-10.672-.04-20.92 3.628-28.492 10.197-6.21 5.39-10.202 12.37-11.455 19.854-.455 2.724 1.815 4.986 4.577 4.996l35.238.132 35.239.131z"/></mask><path d="M105.041 80.211c2.761.01 5.049-2.234 4.614-4.96-1.197-7.495-5.136-14.505-11.307-19.94-7.521-6.626-17.742-10.37-28.414-10.41-10.672-.04-20.92 3.628-28.492 10.197-6.21 5.39-10.202 12.37-11.455 19.854-.455 2.724 1.815 4.986 4.577 4.996l35.238.132 35.239.131z" fill="#1C3343"/><path d="M105.041 80.211c2.761.01 5.049-2.234 4.614-4.96-1.197-7.495-5.136-14.505-11.307-19.94-7.521-6.626-17.742-10.37-28.414-10.41-10.672-.04-20.92 3.628-28.492 10.197-6.21 5.39-10.202 12.37-11.455 19.854-.455 2.724 1.815 4.986 4.577 4.996l35.238.132 35.239.131z" stroke="#fff" stroke-width="8" mask="url(#a)"/><circle cx="67.124" cy="20.63" r="18.49" transform="rotate(.214 67.124 20.63)" fill="#1C3343" stroke="#fff" stroke-width="4"/><g filter="url(#b)"><path d="M67.266 84.964v36.317h-29.43V69.148l29.43 15.816z" fill="url(#c)"/><path d="M10.086 93.324v27.957H39.23V68.898L10.086 93.324z" fill="url(#d)"/><path d="M65.61 84.703v36.55h27.763V60.828L65.609 84.703z" fill="url(#e)"/><path d="M120.297 38.46v82.827H92.534V60.862l27.763-22.401z" fill="url(#f)"/></g><path d="m12.984 95.035 24.297-22.778a4 4 0 0 1 4.788-.516L60.143 82.54a4 4 0 0 0 4.616-.364l53.078-44.347M108.328 35.18l11.422-.296M116.516 47.117l3.088-12.186" stroke="#357ABD" stroke-width="10" stroke-linecap="round"/><defs><linearGradient id="c" x1="71.89" y1="98.999" x2="35.546" y2="106.726" gradientUnits="userSpaceOnUse"><stop stop-color="#E88A0B"/><stop offset="1" stop-color="#E45A21"/></linearGradient><linearGradient id="d" x1="42.879" y1="109.509" x2="9.179" y2="113.486" gradientUnits="userSpaceOnUse"><stop stop-color="#E4562E"/><stop stop-color="#E56524"/><stop offset="1" stop-color="#DA0C0C"/></linearGradient><linearGradient id="e" x1="124.321" y1="85.908" x2="57.185" y2="97.521" gradientUnits="userSpaceOnUse"><stop stop-color="#D5D50B"/><stop offset=".54" stop-color="#DED509"/><stop offset="1" stop-color="#EF5C0D"/></linearGradient><linearGradient id="f" x1="148.927" y1="42.933" x2="90.68" y2="49.839" gradientUnits="userSpaceOnUse"><stop stop-color="#24DA30"/><stop offset="1" stop-color="#E2D508"/></linearGradient><filter id="b" x="6.086" y="38.461" width="118.211" height="90.828" filterUnits="userSpaceOnUse" color-interpolation-filters="sRGB"><feFlood flood-opacity="0" result="BackgroundImageFix"/><feColorMatrix in="SourceAlpha" values="0 0 0 0 0 0 0 0 0 0 0 0 0 0 0 0 0 0 127 0" result="hardAlpha"/><feOffset dy="4"/><feGaussianBlur stdDeviation="2"/><feComposite in2="hardAlpha" operator="out"/><feColorMatrix values="0 0 0 0 0 0 0 0 0 0 0 0 0 0 0 0 0 0 0.25 0"/><feBlend in2="BackgroundImageFix" result="effect1_dropShadow_672_289"/><feBlend in="SourceGraphic" in2="effect1_dropShadow_672_289" result="shape"/></filter></defs></svg>