<svg width="40" height="40" viewBox="0 0 40 40" fill="none" xmlns="http://www.w3.org/2000/svg">
<rect width="40" height="40" fill="white"/>
<path d="M20 8V32" stroke="#404040" stroke-width="2" stroke-linecap="square"/>
<path d="M11 10.5H26.7143C26.8511 10.5 26.982 10.5561 27.0764 10.6552L28.9811 12.6552C29.165 12.8483 29.165 13.1517 28.9811 13.3448L27.0764 15.3448C26.982 15.4439 26.8511 15.5 26.7143 15.5H11C10.7239 15.5 10.5 15.2761 10.5 15V11C10.5 10.7239 10.7239 10.5 11 10.5Z" fill="white" stroke="#404040"/>
<path d="M29 19.5H13.2857C13.1489 19.5 13.018 19.5561 12.9236 19.6552L11.0189 21.6552C10.835 21.8483 10.835 22.1517 11.0189 22.3448L12.9236 24.3448C13.018 24.4439 13.1489 24.5 13.2857 24.5H29C29.2761 24.5 29.5 24.2761 29.5 24V20C29.5 19.7239 29.2761 19.5 29 19.5Z" fill="white" stroke="#404040"/>
</svg>
