<svg width="40" height="40" viewBox="0 0 40 40" fill="none" xmlns="http://www.w3.org/2000/svg">
<rect width="40" height="40" fill="white"/>
<mask id="path-2-outside-1_717_362" maskUnits="userSpaceOnUse" x="8" y="8" width="23" height="23" fill="black">
<rect fill="white" x="8" y="8" width="23" height="23"/>
<path d="M29.7445 22.0234L27.9502 20.9818C28.1313 19.9996 28.1313 18.9919 27.9502 18.0097L29.7445 16.9682C29.9509 16.8496 30.0436 16.604 29.9762 16.3754C29.5087 14.8682 28.7126 13.5049 27.6722 12.3702C27.5121 12.1966 27.251 12.1543 27.0488 12.2728L25.2544 13.3143C24.5005 12.6623 23.6328 12.1585 22.6935 11.8283V9.74943C22.6935 9.51234 22.5292 9.30488 22.2975 9.25407C20.7517 8.90689 19.1679 8.92383 17.6979 9.25407C17.4662 9.30488 17.302 9.51234 17.302 9.74943V11.8325C16.3669 12.167 15.4992 12.6708 14.741 13.3186L12.9508 12.277C12.7445 12.1585 12.4875 12.1966 12.3275 12.3744C11.2871 13.5049 10.491 14.8682 10.0234 16.3796C9.95182 16.6083 10.0487 16.8538 10.2551 16.9724L12.0495 18.0139C11.8683 18.9962 11.8683 20.0038 12.0495 20.9861L10.2551 22.0276C10.0487 22.1462 9.95603 22.3917 10.0234 22.6203C10.491 24.1276 11.2871 25.4909 12.3275 26.6256C12.4875 26.7992 12.7487 26.8415 12.9508 26.723L14.7452 25.6814C15.4992 26.3334 16.3669 26.8373 17.3062 27.1675V29.2506C17.3062 29.4877 17.4704 29.6951 17.7021 29.7459C19.248 30.0931 20.8317 30.0762 22.3017 29.7459C22.5334 29.6951 22.6977 29.4877 22.6977 29.2506V27.1675C23.6328 26.833 24.5005 26.3292 25.2586 25.6814L27.053 26.723C27.2594 26.8415 27.5163 26.8034 27.6764 26.6256C28.7168 25.4951 29.5129 24.1318 29.9804 22.6203C30.0436 22.3875 29.9509 22.1419 29.7445 22.0234ZM19.9977 22.8828C18.1402 22.8828 16.628 21.3629 16.628 19.4958C16.628 17.6286 18.1402 16.1087 19.9977 16.1087C21.8553 16.1087 23.3674 17.6286 23.3674 19.4958C23.3674 21.3629 21.8553 22.8828 19.9977 22.8828Z"/>
</mask>
<path d="M29.7445 22.0234L27.9502 20.9818C28.1313 19.9996 28.1313 18.9919 27.9502 18.0097L29.7445 16.9682C29.9509 16.8496 30.0436 16.604 29.9762 16.3754C29.5087 14.8682 28.7126 13.5049 27.6722 12.3702C27.5121 12.1966 27.251 12.1543 27.0488 12.2728L25.2544 13.3143C24.5005 12.6623 23.6328 12.1585 22.6935 11.8283V9.74943C22.6935 9.51234 22.5292 9.30488 22.2975 9.25407C20.7517 8.90689 19.1679 8.92383 17.6979 9.25407C17.4662 9.30488 17.302 9.51234 17.302 9.74943V11.8325C16.3669 12.167 15.4992 12.6708 14.741 13.3186L12.9508 12.277C12.7445 12.1585 12.4875 12.1966 12.3275 12.3744C11.2871 13.5049 10.491 14.8682 10.0234 16.3796C9.95182 16.6083 10.0487 16.8538 10.2551 16.9724L12.0495 18.0139C11.8683 18.9962 11.8683 20.0038 12.0495 20.9861L10.2551 22.0276C10.0487 22.1462 9.95603 22.3917 10.0234 22.6203C10.491 24.1276 11.2871 25.4909 12.3275 26.6256C12.4875 26.7992 12.7487 26.8415 12.9508 26.723L14.7452 25.6814C15.4992 26.3334 16.3669 26.8373 17.3062 27.1675V29.2506C17.3062 29.4877 17.4704 29.6951 17.7021 29.7459C19.248 30.0931 20.8317 30.0762 22.3017 29.7459C22.5334 29.6951 22.6977 29.4877 22.6977 29.2506V27.1675C23.6328 26.833 24.5005 26.3292 25.2586 25.6814L27.053 26.723C27.2594 26.8415 27.5163 26.8034 27.6764 26.6256C28.7168 25.4951 29.5129 24.1318 29.9804 22.6203C30.0436 22.3875 29.9509 22.1419 29.7445 22.0234ZM19.9977 22.8828C18.1402 22.8828 16.628 21.3629 16.628 19.4958C16.628 17.6286 18.1402 16.1087 19.9977 16.1087C21.8553 16.1087 23.3674 17.6286 23.3674 19.4958C23.3674 21.3629 21.8553 22.8828 19.9977 22.8828Z" fill="white"/>
<path d="M29.7445 22.0234L29.2425 22.8883L29.2465 22.8905L29.7445 22.0234ZM27.9502 20.9818L26.9668 20.8005L26.839 21.4931L27.4482 21.8467L27.9502 20.9818ZM27.9502 18.0097L27.4482 17.1448L26.839 17.4984L26.9668 18.191L27.9502 18.0097ZM29.7445 16.9682L29.2465 16.101L29.2425 16.1033L29.7445 16.9682ZM29.9762 16.3754L30.9355 16.0926L30.9313 16.0791L29.9762 16.3754ZM27.6722 12.3702L28.4093 11.6944L28.4074 11.6923L27.6722 12.3702ZM27.0488 12.2728L27.5508 13.1377L27.5546 13.1355L27.0488 12.2728ZM25.2544 13.3143L24.6003 14.0707L25.1397 14.5372L25.7564 14.1792L25.2544 13.3143ZM22.6935 11.8283H21.6935V12.5367L22.3618 12.7716L22.6935 11.8283ZM22.2975 9.25407L22.0784 10.2298L22.0833 10.2309L22.2975 9.25407ZM17.6979 9.25407L17.9121 10.2309L17.9171 10.2298L17.6979 9.25407ZM17.302 11.8325L17.6388 12.7741L18.302 12.5368V11.8325H17.302ZM14.741 13.3186L14.2381 14.1829L14.8512 14.5397L15.3906 14.0789L14.741 13.3186ZM12.9508 12.277L13.4537 11.4127L13.4489 11.4099L12.9508 12.277ZM12.3275 12.3744L13.0633 13.0517L13.0707 13.0434L12.3275 12.3744ZM10.0234 16.3796L10.9777 16.6785L10.9788 16.6752L10.0234 16.3796ZM10.2551 16.9724L10.7571 16.1075L10.7532 16.1052L10.2551 16.9724ZM12.0495 18.0139L13.0329 18.1953L13.1606 17.5026L12.5515 17.1491L12.0495 18.0139ZM12.0495 20.9861L12.5515 21.8509L13.1606 21.4974L13.0329 20.8047L12.0495 20.9861ZM10.2551 22.0276L10.7532 22.8948L10.7571 22.8925L10.2551 22.0276ZM10.0234 22.6203L9.06413 22.9031L9.06832 22.9166L10.0234 22.6203ZM12.3275 26.6256L11.5904 27.3014L11.5923 27.3035L12.3275 26.6256ZM12.9508 26.723L12.4488 25.8581L12.445 25.8603L12.9508 26.723ZM14.7452 25.6814L15.3993 24.925L14.8599 24.4586L14.2432 24.8166L14.7452 25.6814ZM17.3062 27.1675H18.3062V26.4591L17.6378 26.2241L17.3062 27.1675ZM17.7021 29.7459L17.9212 28.7702L17.9163 28.7691L17.7021 29.7459ZM22.3017 29.7459L22.0875 28.7691L22.0826 28.7702L22.3017 29.7459ZM22.6977 27.1675L22.3609 26.2259L21.6977 26.4632V27.1675H22.6977ZM25.2586 25.6814L25.7606 24.8166L25.1478 24.4608L24.6091 24.9211L25.2586 25.6814ZM27.053 26.723L26.551 27.5878L26.5549 27.5901L27.053 26.723ZM27.6764 26.6256L26.9405 25.9483L26.9331 25.9566L27.6764 26.6256ZM29.9804 22.6203L30.9358 22.9159L30.9409 22.8991L30.9455 22.8822L29.9804 22.6203ZM30.2466 21.1585L28.4522 20.117L27.4482 21.8467L29.2425 22.8882L30.2466 21.1585ZM28.9336 21.1632C29.1368 20.0611 29.1368 18.9305 28.9336 17.8283L26.9668 18.191C27.1258 19.0534 27.1258 19.9381 26.9668 20.8005L28.9336 21.1632ZM28.4522 18.8745L30.2466 17.833L29.2425 16.1033L27.4482 17.1448L28.4522 18.8745ZM30.2426 17.8353C30.8681 17.476 31.1277 16.745 30.9354 16.0927L29.017 16.6582C28.9595 16.4631 29.0338 16.2232 29.2465 16.101L30.2426 17.8353ZM30.9313 16.0791C30.4191 14.4279 29.5474 12.9356 28.4092 11.6944L26.9351 13.046C27.8778 14.0741 28.5982 15.3084 29.0211 16.6717L30.9313 16.0791ZM28.4074 11.6923C27.9389 11.1842 27.1638 11.0461 26.543 11.4102L27.5546 13.1355C27.3381 13.2624 27.0854 13.209 26.937 13.0481L28.4074 11.6923ZM26.5468 11.4079L24.7524 12.4495L25.7564 14.1792L27.5508 13.1377L26.5468 11.4079ZM25.9085 12.5579C25.0601 11.8242 24.0831 11.2568 23.0251 10.8849L22.3618 12.7716C23.1824 13.0602 23.9408 13.5004 24.6003 14.0707L25.9085 12.5579ZM23.6935 11.8283V9.74943H21.6935V11.8283H23.6935ZM23.6935 9.74943C23.6935 9.0503 23.2097 8.43036 22.5117 8.27728L22.0833 10.2309C21.8487 10.1794 21.6935 9.97437 21.6935 9.74943H23.6935ZM22.5167 8.27837C20.8229 7.89798 19.0894 7.91655 17.4787 8.27839L17.9171 10.2298C19.2464 9.93112 20.6805 9.91581 22.0784 10.2298L22.5167 8.27837ZM17.4837 8.27728C16.7857 8.43036 16.302 9.0503 16.302 9.74943H18.302C18.302 9.97437 18.1468 10.1794 17.9121 10.2309L17.4837 8.27728ZM16.302 9.74943V11.8325H18.302V9.74943H16.302ZM16.9652 10.8909C15.9149 11.2666 14.9414 11.8321 14.0914 12.5583L15.3906 14.0789C16.057 13.5095 16.8188 13.0673 17.6388 12.7741L16.9652 10.8909ZM15.2439 12.4542L13.4537 11.4127L12.448 13.1414L14.2381 14.1829L15.2439 12.4542ZM13.4489 11.4099C12.8421 11.0614 12.066 11.1702 11.5842 11.7054L13.0707 13.0434C12.909 13.223 12.6468 13.2556 12.4528 13.1442L13.4489 11.4099ZM11.5916 11.6972C10.4522 12.9353 9.58023 14.4285 9.06809 16.0841L10.9788 16.6752C11.4017 15.3079 12.1219 14.0745 13.0633 13.0516L11.5916 11.6972ZM9.06913 16.0808C8.85706 16.7579 9.14477 17.4879 9.75703 17.8395L10.7532 16.1052C10.9526 16.2198 11.0466 16.4587 10.9777 16.6785L9.06913 16.0808ZM9.75308 17.8373L11.5474 18.8788L12.5515 17.1491L10.7571 16.1075L9.75308 17.8373ZM11.066 17.8326C10.8628 18.9347 10.8628 20.0653 11.066 21.1674L13.0329 20.8047C12.8739 19.9424 12.8739 19.0576 13.0329 18.1953L11.066 17.8326ZM11.5474 20.1212L9.75308 21.1627L10.7571 22.8925L12.5515 21.8509L11.5474 20.1212ZM9.75703 21.1605C9.13153 21.5197 8.87193 22.2507 9.06423 22.9031L10.9826 22.3376C11.0401 22.5327 10.9659 22.7726 10.7532 22.8947L9.75703 21.1605ZM9.06832 22.9166C9.58053 24.5679 10.4523 26.0601 11.5904 27.3014L13.0645 25.9498C12.1219 24.9217 11.4014 23.6873 10.9785 22.3241L9.06832 22.9166ZM11.5923 27.3035C12.0608 27.8115 12.8358 27.9496 13.4567 27.5856L12.445 25.8603C12.6615 25.7334 12.9143 25.7868 13.0626 25.9477L11.5923 27.3035ZM13.4529 27.5878L15.2472 26.5463L14.2432 24.8166L12.4488 25.8581L13.4529 27.5878ZM14.0911 26.4378C14.9395 27.1715 15.9165 27.7389 16.9745 28.1109L17.6378 26.2241C16.8172 25.9356 16.0588 25.4953 15.3993 24.925L14.0911 26.4378ZM16.3062 27.1675V29.2506H18.3062V27.1675H16.3062ZM16.3062 29.2506C16.3062 29.9497 16.7899 30.5696 17.4879 30.7227L17.9163 28.7691C18.151 28.8206 18.3062 29.0256 18.3062 29.2506H16.3062ZM17.483 30.7216C19.1767 31.102 20.9102 31.0835 22.5209 30.7216L22.0826 28.7702C20.7532 29.0689 19.3192 29.0842 17.9212 28.7702L17.483 30.7216ZM22.516 30.7227C23.2139 30.5696 23.6977 29.9497 23.6977 29.2506H21.6977C21.6977 29.0256 21.8529 28.8206 22.0875 28.7691L22.516 30.7227ZM23.6977 29.2506V27.1675H21.6977V29.2506H23.6977ZM23.0345 28.1091C24.0847 27.7334 25.0583 27.1679 25.9082 26.4417L24.6091 24.9211C23.9427 25.4905 23.1808 25.9327 22.3609 26.2259L23.0345 28.1091ZM24.7566 26.5463L26.551 27.5878L27.555 25.8581L25.7606 24.8166L24.7566 26.5463ZM26.5549 27.5901C27.1618 27.9386 27.9379 27.8298 28.4196 27.2946L26.9331 25.9566C27.0948 25.777 27.357 25.7444 27.5511 25.8558L26.5549 27.5901ZM28.4122 27.3028C29.5516 26.0647 30.4236 24.5715 30.9358 22.9159L29.0251 22.3248C28.6021 23.6921 27.8819 24.9255 26.9406 25.9484L28.4122 27.3028ZM30.9455 22.8822C31.1186 22.2442 30.8726 21.5181 30.2426 21.1562L29.2465 22.8905C29.0292 22.7657 28.9686 22.5307 29.0153 22.3585L30.9455 22.8822ZM19.9977 21.8828C18.6973 21.8828 17.628 20.8155 17.628 19.4958H15.628C15.628 21.9103 17.583 23.8828 19.9977 23.8828V21.8828ZM17.628 19.4958C17.628 18.1761 18.6973 17.1087 19.9977 17.1087V15.1087C17.583 15.1087 15.628 17.0812 15.628 19.4958H17.628ZM19.9977 17.1087C21.2981 17.1087 22.3674 18.1761 22.3674 19.4958H24.3674C24.3674 17.0812 22.4124 15.1087 19.9977 15.1087V17.1087ZM22.3674 19.4958C22.3674 20.8155 21.2981 21.8828 19.9977 21.8828V23.8828C22.4124 23.8828 24.3674 21.9103 24.3674 19.4958H22.3674Z" fill="#404040" mask="url(#path-2-outside-1_717_362)"/>
<ellipse cx="21.285" cy="19.3475" rx="4.71464" ry="4.84753" fill="white"/>
<path d="M23.9266 21.2972C24.709 20.4209 25.5019 19.3706 25.5019 17.9963C25.5019 17.1208 25.1976 16.2812 24.656 15.6621C24.1144 15.0431 23.3798 14.6953 22.6139 14.6953C21.6897 14.6953 21.0386 14.9954 20.2509 15.8957C19.4633 14.9954 18.8122 14.6953 17.888 14.6953C17.1221 14.6953 16.3875 15.0431 15.8459 15.6621C15.3043 16.2812 15 17.1208 15 17.9963C15 19.3766 15.7876 20.4269 16.5753 21.2972L20.2509 25.4984L23.9266 21.2972Z" fill="white"/>
<path d="M15.6406 20.0968H18.9382L19.2008 19.4967L20.2509 22.1974L21.3011 17.9963L22.0888 20.0968H24.856" fill="white"/>
<path d="M15.6406 20.0968H18.9382L19.2008 19.4967L20.2509 22.1974L21.3011 17.9963L22.0888 20.0968H24.856M23.9266 21.2972C24.709 20.4209 25.5019 19.3706 25.5019 17.9963C25.5019 17.1208 25.1976 16.2812 24.656 15.6621C24.1144 15.0431 23.3798 14.6953 22.6139 14.6953C21.6897 14.6953 21.0386 14.9954 20.2509 15.8957C19.4633 14.9954 18.8122 14.6953 17.888 14.6953C17.1221 14.6953 16.3875 15.0431 15.8459 15.6621C15.3043 16.2812 15 17.1208 15 17.9963C15 19.3766 15.7876 20.4269 16.5753 21.2972L20.2509 25.4984L23.9266 21.2972Z" stroke="#404040" stroke-linecap="round" stroke-linejoin="round"/>
</svg>
