<svg width="40" height="40" fill="none" xmlns="http://www.w3.org/2000/svg"><path fill="#fff" d="M0 0h40v40H0z"/><mask id="a" maskUnits="userSpaceOnUse" x="8" y="8" width="23" height="23" fill="#000"><path fill="#fff" d="M8 8h23v23H8z"/><path d="m29.744 22.023-1.794-1.041a8.197 8.197 0 0 0 0-2.972l1.794-1.042a.513.513 0 0 0 .232-.593 10.557 10.557 0 0 0-2.304-4.005.505.505 0 0 0-.623-.097l-1.795 1.041a7.938 7.938 0 0 0-2.56-1.486V9.75a.507.507 0 0 0-.396-.495 10.536 10.536 0 0 0-4.6 0 .507.507 0 0 0-.396.495v2.083a8.19 8.19 0 0 0-2.561 1.487l-1.79-1.042a.499.499 0 0 0-.623.097 10.496 10.496 0 0 0-2.305 4.006.508.508 0 0 0 .232.592l1.794 1.042a8.193 8.193 0 0 0 0 2.972l-1.794 1.042a.513.513 0 0 0-.232.592 10.559 10.559 0 0 0 2.305 4.006c.16.173.42.215.623.097l1.794-1.042a7.94 7.94 0 0 0 2.561 1.486v2.084c0 .237.164.444.396.495 1.546.347 3.13.33 4.6 0a.507.507 0 0 0 .396-.495v-2.084a8.189 8.189 0 0 0 2.56-1.486l1.795 1.042c.206.119.463.08.623-.097a10.494 10.494 0 0 0 2.304-4.006.524.524 0 0 0-.236-.597zm-9.746.86c-1.858 0-3.37-1.52-3.37-3.387s1.512-3.387 3.37-3.387c1.857 0 3.37 1.52 3.37 3.387s-1.513 3.387-3.37 3.387z"/></mask><path d="m29.744 22.023-1.794-1.041a8.197 8.197 0 0 0 0-2.972l1.794-1.042a.513.513 0 0 0 .232-.593 10.557 10.557 0 0 0-2.304-4.005.505.505 0 0 0-.623-.097l-1.795 1.041a7.938 7.938 0 0 0-2.56-1.486V9.75a.507.507 0 0 0-.396-.495 10.536 10.536 0 0 0-4.6 0 .507.507 0 0 0-.396.495v2.083a8.19 8.19 0 0 0-2.561 1.487l-1.79-1.042a.499.499 0 0 0-.623.097 10.496 10.496 0 0 0-2.305 4.006.508.508 0 0 0 .232.592l1.794 1.042a8.193 8.193 0 0 0 0 2.972l-1.794 1.042a.513.513 0 0 0-.232.592 10.559 10.559 0 0 0 2.305 4.006c.16.173.42.215.623.097l1.794-1.042a7.94 7.94 0 0 0 2.561 1.486v2.084c0 .237.164.444.396.495 1.546.347 3.13.33 4.6 0a.507.507 0 0 0 .396-.495v-2.084a8.189 8.189 0 0 0 2.56-1.486l1.795 1.042c.206.119.463.08.623-.097a10.494 10.494 0 0 0 2.304-4.006.524.524 0 0 0-.236-.597zm-9.746.86c-1.858 0-3.37-1.52-3.37-3.387s1.512-3.387 3.37-3.387c1.857 0 3.37 1.52 3.37 3.387s-1.513 3.387-3.37 3.387z" fill="#fff"/><path d="m29.744 22.023-.502.865.005.002.497-.867zm-1.794-1.041-.983-.181-.128.692.61.354.501-.865zm0-2.972-.502-.865-.609.353.128.693.983-.181zm1.794-1.042-.497-.867-.005.002.502.865zm.232-.593.96-.282-.005-.014-.955.296zm-2.304-4.005.737-.676-.002-.002-.735.678zm-.623-.097.502.865.004-.002-.506-.863zm-1.795 1.041-.654.757.54.466.616-.358-.502-.865zm-2.56-1.486h-1v.709l.668.235.332-.944zm-.396-2.574-.22.976h.005l.215-.976zm-4.6 0 .214.977.005-.001-.22-.976zm-.396 2.579.337.941.663-.237v-.705h-1zm-2.561 1.486-.503.864.613.357.54-.461-.65-.76zm-1.79-1.042.503-.864-.005-.003-.498.867zm-.623.097.735.678.008-.009-.743-.669zm-2.305 4.006.955.299v-.004l-.955-.295zm.232.592.502-.864-.004-.003-.498.867zm1.794 1.042.984.181.128-.692-.61-.354-.502.865zm0 2.972.503.865.609-.354-.128-.692-.983.181zm-1.794 1.042.498.867.004-.003-.502-.864zm-.232.592-.959.283.004.014.955-.297zm2.305 4.006-.738.675.002.003.736-.678zm.623.097-.502-.865-.004.002.506.863zm1.794-1.042.654-.756-.54-.466-.616.358.502.864zm2.561 1.486h1v-.708l-.668-.235-.332.944zm.396 2.579.22-.976h-.006l-.214.976zm4.6 0-.215-.977-.004.001.219.976zm.396-2.578-.337-.942-.663.237v.704h1zm2.56-1.487.503-.864-.613-.356-.539.46.65.76zm1.795 1.042-.502.865.004.002.498-.867zm.623-.097-.735-.678-.008.009.743.669zm2.304-4.006.956.296.005-.017.005-.017-.966-.262zm.267-1.462-1.795-1.041-1.004 1.73 1.794 1.041 1.005-1.73zm-1.313.005a9.198 9.198 0 0 0 0-3.335l-1.967.363a7.197 7.197 0 0 1 0 2.61l1.967.362zm-.482-2.288 1.795-1.042-1.005-1.73-1.794 1.042 1.004 1.73zm1.79-1.04c.626-.359.886-1.09.693-1.742l-1.918.565a.487.487 0 0 1 .23-.557l.996 1.734zm.69-1.756a11.556 11.556 0 0 0-2.523-4.385l-1.474 1.352a9.557 9.557 0 0 1 2.086 3.626l1.91-.593zm-2.525-4.387a1.505 1.505 0 0 0-1.864-.282l1.012 1.726a.495.495 0 0 1-.618-.088l1.47-1.356zm-1.86-.284-1.795 1.042 1.004 1.73 1.795-1.042-1.004-1.73zm-.639 1.15a8.938 8.938 0 0 0-2.883-1.673l-.663 1.887c.82.288 1.579.728 2.238 1.299l1.308-1.513zm-2.215-.73V9.75h-2v2.08h2zm0-2.079c0-.699-.483-1.319-1.181-1.472l-.429 1.954a.493.493 0 0 1-.39-.482h2zm-1.176-1.47a11.536 11.536 0 0 0-5.038 0l.438 1.95a9.535 9.535 0 0 1 4.161 0l.439-1.95zm-5.033-.002a1.507 1.507 0 0 0-1.182 1.472h2c0 .225-.155.43-.39.482l-.428-1.954zM16.302 9.75v2.083h2V9.75h-2zm.663 1.142a9.19 9.19 0 0 0-2.874 1.667l1.3 1.52a7.187 7.187 0 0 1 2.248-1.304l-.674-1.883zm-1.721 1.563-1.79-1.041-1.006 1.728 1.79 1.042 1.006-1.729zm-1.795-1.044a1.499 1.499 0 0 0-1.865.295l1.487 1.338a.502.502 0 0 1-.618.101l.996-1.734zm-1.857.287a11.495 11.495 0 0 0-2.524 4.387l1.91.591a9.494 9.494 0 0 1 2.085-3.623l-1.471-1.355zm-2.523 4.384a1.507 1.507 0 0 0 .688 1.759l.996-1.735c.2.115.294.354.225.573l-1.909-.597zm.684 1.756 1.794 1.042 1.005-1.73-1.795-1.041-1.004 1.73zm1.313-.004a9.198 9.198 0 0 0 0 3.334l1.967-.362a7.197 7.197 0 0 1 0-2.61l-1.967-.362zm.481 2.288-1.794 1.042 1.004 1.73 1.795-1.042-1.005-1.73zm-1.79 1.04a1.513 1.513 0 0 0-.693 1.742l1.919-.565a.487.487 0 0 1-.23.557l-.996-1.735zm-.689 1.756A11.558 11.558 0 0 0 11.59 27.3l1.475-1.351a9.56 9.56 0 0 1-2.086-3.626l-1.91.593zm2.524 4.386a1.505 1.505 0 0 0 1.865.283l-1.012-1.726a.495.495 0 0 1 .618.088l-1.47 1.355zm1.86.285 1.795-1.042-1.004-1.73-1.794 1.042 1.004 1.73zm.64-1.15a8.94 8.94 0 0 0 2.882 1.673l.664-1.887a6.94 6.94 0 0 1-2.239-1.299l-1.308 1.513zm2.214.73v2.083h2v-2.084h-2zm0 2.083c0 .699.484 1.319 1.182 1.472l.428-1.954c.235.052.39.257.39.482h-2zm1.177 1.47c1.694.381 3.427.363 5.038 0l-.438-1.95a9.535 9.535 0 0 1-4.162 0l-.438 1.95zm5.033.002a1.507 1.507 0 0 0 1.182-1.472h-2c0-.225.155-.43.39-.482l.428 1.954zm1.182-1.472v-2.084h-2v2.084h2zm-.663-1.142a9.19 9.19 0 0 0 2.873-1.667l-1.299-1.52a7.188 7.188 0 0 1-2.248 1.304l.674 1.883zm1.722-1.563 1.794 1.042 1.004-1.73-1.794-1.041-1.004 1.73zm1.798 1.044c.607.349 1.383.24 1.865-.295l-1.487-1.338a.502.502 0 0 1 .618-.101l-.996 1.734zm1.857-.287a11.496 11.496 0 0 0 2.524-4.387l-1.91-.591a9.496 9.496 0 0 1-2.085 3.623l1.471 1.355zm2.534-4.42a1.524 1.524 0 0 0-.703-1.727l-.996 1.735a.476.476 0 0 1-.232-.532l1.93.523zm-10.948-1c-1.3 0-2.37-1.067-2.37-2.387h-2c0 2.414 1.955 4.387 4.37 4.387v-2zm-2.37-2.387c0-1.32 1.07-2.387 2.37-2.387v-2c-2.415 0-4.37 1.972-4.37 4.387h2zm2.37-2.387c1.3 0 2.37 1.067 2.37 2.387h2c0-2.415-1.956-4.387-4.37-4.387v2zm2.37 2.387c0 1.32-1.07 2.387-2.37 2.387v2c2.414 0 4.37-1.973 4.37-4.387h-2z" fill="#404040" mask="url(#a)"/><ellipse cx="21.285" cy="19.348" rx="4.715" ry="4.848" fill="#fff"/><path d="M23.927 21.297c.782-.876 1.575-1.926 1.575-3.3 0-.876-.304-1.716-.846-2.335s-1.276-.967-2.042-.967c-.924 0-1.575.3-2.363 1.2-.788-.9-1.439-1.2-2.363-1.2-.766 0-1.5.348-2.042.967-.542.62-.846 1.459-.846 2.334 0 1.38.788 2.43 1.575 3.301l3.676 4.201 3.676-4.2z" fill="#fff"/><path d="M15.64 20.097h3.298l.263-.6 1.05 2.7 1.05-4.2.788 2.1h2.767" fill="#fff"/><path d="M15.64 20.097h3.298l.263-.6 1.05 2.7 1.05-4.2.788 2.1h2.767m-.93 1.2c.783-.876 1.576-1.926 1.576-3.3 0-.876-.304-1.716-.846-2.335s-1.276-.967-2.042-.967c-.924 0-1.575.3-2.363 1.2-.788-.9-1.439-1.2-2.363-1.2-.766 0-1.5.348-2.042.967-.542.62-.846 1.459-.846 2.334 0 1.38.788 2.43 1.575 3.301l3.676 4.201 3.676-4.2z" stroke="#404040" stroke-linecap="round" stroke-linejoin="round"/></svg>