<svg width="40" height="40" viewBox="0 0 40 40" fill="none" xmlns="http://www.w3.org/2000/svg">
<rect width="40" height="40" fill="white"/>
<path d="M11.0781 11.9742C12.4944 9.41609 17.9364 8.917 17.9364 13.0661C17.9364 15.065 8 15.4766 15 18.4638" stroke="#404040" stroke-linecap="round"/>
<path d="M22.287 24.0234C23.7885 24.7234 25.5045 26.4732 24.861 27.5232C24.3237 28.3998 22.9305 29.273 21 28.923" stroke="#404040" stroke-linecap="round"/>
<path d="M22.9999 13.0735L26.9999 17.0565M29.1739 14.8778C29.7026 14.3515 29.9997 13.6376 29.9998 12.8932C29.9999 12.1487 29.703 11.4348 29.1744 10.9083C28.6459 10.3818 27.9289 10.086 27.1813 10.0859C26.4337 10.0858 25.7166 10.3815 25.1879 10.9078L11.8419 24.2C11.6098 24.4305 11.438 24.7143 11.3419 25.0265L10.0209 29.3599C9.99509 29.4461 9.99314 29.5375 10.0153 29.6247C10.0374 29.7118 10.0829 29.7913 10.1467 29.8548C10.2106 29.9183 10.2906 29.9634 10.3781 29.9853C10.4656 30.0073 10.5575 30.0052 10.6439 29.9793L14.9969 28.6649C15.3101 28.5701 15.5951 28.4001 15.8269 28.17L29.1739 14.8778Z" stroke="#404040" stroke-linecap="round" stroke-linejoin="round"/>
</svg>
