<svg width="40" height="40" fill="none" xmlns="http://www.w3.org/2000/svg"><path fill="#fff" d="M0 0h40v40H0z"/><path d="M11.078 11.974c1.416-2.558 6.858-3.057 6.858 1.092 0 1.999-9.936 2.41-2.936 5.398M22.287 24.023c1.502.7 3.218 2.45 2.574 3.5-.537.877-1.93 1.75-3.861 1.4" stroke="#404040" stroke-linecap="round"/><path d="m23 13.073 4 3.983m2.174-2.178a2.8 2.8 0 0 0 0-3.97 2.825 2.825 0 0 0-3.986 0L11.842 24.2a1.99 1.99 0 0 0-.5.826L10.02 29.36a.496.496 0 0 0 .357.625.5.5 0 0 0 .266-.006l4.353-1.314c.313-.095.598-.265.83-.495l13.347-13.292z" stroke="#404040" stroke-linecap="round" stroke-linejoin="round"/></svg>