<svg width="40" height="40" fill="none" xmlns="http://www.w3.org/2000/svg"><path fill="#fff" d="M0 0h40v40H0z"/><rect x="10.5" y="12.5" width="19" height="14.385" rx=".5" fill="#fff" stroke="#404040"/><path d="M14 21.719h6.4M14 16.86h6.4" stroke="#404040" stroke-linecap="round"/><path d="M22.398 20.094h4.8M26.797 19.805V17.45M22.805 22.156v-2.353" stroke="#404040"/><path d="M23.895 23.338a1.11 1.11 0 0 1-1.1 1.12 1.11 1.11 0 0 1-1.1-1.12c0-.624.498-1.12 1.1-1.12.602 0 1.1.496 1.1 1.12zM27.895 16.05a1.11 1.11 0 0 1-1.1 1.119 1.11 1.11 0 0 1-1.1-1.12c0-.624.498-1.12 1.1-1.12.602 0 1.1.496 1.1 1.12z" fill="#fff" stroke="#404040"/></svg>