<svg width="40" height="40" fill="none" xmlns="http://www.w3.org/2000/svg"><path fill="#fff" d="M0 0h40v40H0z"/><path d="M10.924 12.342a2.423 2.423 0 0 0 2.424-2.42A2.423 2.423 0 0 0 10.924 7.5 2.423 2.423 0 0 0 8.5 9.921a2.423 2.423 0 0 0 2.424 2.421z" stroke="#404040"/><path transform="rotate(44.962 -8.055 21.031)" stroke="#404040" d="M0-.5h4.272"/><path d="M30.076 26.657a2.423 2.423 0 0 0-2.424 2.422 2.423 2.423 0 0 0 2.424 2.421 2.423 2.423 0 0 0 2.424-2.421 2.423 2.423 0 0 0-2.424-2.422z" stroke="#404040"/><path transform="rotate(-134.689 19.915 7.632) skewX(-.076)" stroke="#404040" d="M0-.5h3.526"/><path d="M30.076 12.342a2.423 2.423 0 0 1-2.424-2.42A2.423 2.423 0 0 1 30.076 7.5 2.423 2.423 0 0 1 32.5 9.921a2.423 2.423 0 0 1-2.424 2.421z" stroke="#404040"/><path transform="scale(-1.00066 .99934) rotate(45 -28.542 -28.448)" stroke="#404040" d="M0-.5h4.272"/><path d="M20.628 23.011v-2.8m0-2.801h.007m7.005 2.8c0 3.867-3.14 7.002-7.012 7.002-3.872 0-7.01-3.135-7.01-7.002s3.138-7.002 7.01-7.002 7.012 3.135 7.012 7.002z" stroke="#404040" stroke-linecap="round" stroke-linejoin="round"/></svg>