<svg width="40" height="40" viewBox="0 0 40 40" fill="none" xmlns="http://www.w3.org/2000/svg">
<rect width="40" height="40" fill="white"/>
<rect x="10.5" y="12.5" width="19" height="14.3846" rx="0.5" fill="white" stroke="#404040"/>
<path d="M14 21.7188H20.4" stroke="#404040" stroke-linecap="round"/>
<path d="M14 16.8594H20.4" stroke="#404040" stroke-linecap="round"/>
<path d="M22.3984 20.0938L27.1984 20.0938" stroke="#404040"/>
<path d="M26.7969 19.8047L26.7969 17.4513" stroke="#404040"/>
<path d="M22.8047 22.1562L22.8047 19.8028" stroke="#404040"/>
<path d="M23.8953 23.3382C23.8953 23.9621 23.3972 24.4576 22.7953 24.4576C22.1935 24.4576 21.6953 23.9621 21.6953 23.3382C21.6953 22.7142 22.1935 22.2188 22.7953 22.2188C23.3972 22.2188 23.8953 22.7142 23.8953 23.3382Z" fill="white" stroke="#404040"/>
<path d="M27.8953 16.0491C27.8953 16.6731 27.3972 17.1686 26.7953 17.1686C26.1935 17.1686 25.6953 16.6731 25.6953 16.0491C25.6953 15.4252 26.1935 14.9297 26.7953 14.9297C27.3972 14.9297 27.8953 15.4252 27.8953 16.0491Z" fill="white" stroke="#404040"/>
</svg>
