<svg width="40" height="40" viewBox="0 0 40 40" fill="none" xmlns="http://www.w3.org/2000/svg">
<rect width="40" height="40" fill="white"/>
<rect x="9.5" y="11.5" width="21" height="12.0059" rx="1.5" fill="white" stroke="#404040"/>
<path d="M16.1693 15.7474C16.1693 16.2492 15.6986 16.7448 15.0026 16.7448C14.3066 16.7448 13.8359 16.2492 13.8359 15.7474C13.8359 15.2456 14.3066 14.75 15.0026 14.75C15.6986 14.75 16.1693 15.2456 16.1693 15.7474Z" fill="#404040" stroke="#404040"/>
<mask id="path-4-inside-1_719_407" fill="white">
<ellipse cx="24.9974" cy="15.7487" rx="0.833333" ry="0.748701"/>
</mask>
<ellipse cx="24.9974" cy="15.7487" rx="0.833333" ry="0.748701" fill="#404040"/>
<path d="M24.8307 15.7487C24.8307 15.6423 24.8809 15.5679 24.9183 15.5342C24.9541 15.5021 24.9848 15.4974 24.9974 15.4974V17.4974C25.9065 17.4974 26.8307 16.8125 26.8307 15.7487H24.8307ZM24.9974 15.4974C25.01 15.4974 25.0407 15.5021 25.0765 15.5342C25.1139 15.5679 25.1641 15.6423 25.1641 15.7487H23.1641C23.1641 16.8125 24.0883 17.4974 24.9974 17.4974V15.4974ZM25.1641 15.7487C25.1641 15.8551 25.1139 15.9295 25.0765 15.9632C25.0407 15.9953 25.01 16 24.9974 16V14C24.0883 14 23.1641 14.6849 23.1641 15.7487H25.1641ZM24.9974 16C24.9848 16 24.9541 15.9953 24.9183 15.9632C24.8809 15.9295 24.8307 15.8551 24.8307 15.7487H26.8307C26.8307 14.6849 25.9065 14 24.9974 14V16Z" fill="#404040" mask="url(#path-4-inside-1_719_407)"/>
<rect x="13.8438" y="22.2188" width="13.8462" height="2.35841" fill="white"/>
<path d="M24.4898 27.3951H15.5066C15.1073 26.3467 15.4467 24.25 19.9982 24.25C24.5497 24.25 24.8891 26.3467 24.4898 27.3951Z" stroke="#404040" stroke-linecap="square"/>
<path d="M21.8029 20.6553C21.8029 21.692 20.9834 22.5137 19.9952 22.5137C19.007 22.5137 18.1875 21.692 18.1875 20.6553C18.1875 19.6186 19.007 18.7969 19.9952 18.7969C20.9834 18.7969 21.8029 19.6186 21.8029 20.6553Z" fill="white" stroke="#404040"/>
</svg>
