<svg width="40" height="40" fill="none" xmlns="http://www.w3.org/2000/svg"><path fill="#fff" d="M0 0h40v40H0z"/><rect x="9.5" y="11.5" width="21" height="12.006" rx="1.5" fill="#fff" stroke="#404040"/><path d="M16.17 15.747c0 .502-.471.998-1.167.998-.696 0-1.167-.496-1.167-.998 0-.501.47-.997 1.167-.997.696 0 1.166.496 1.166.997z" fill="#404040" stroke="#404040"/><mask id="a" fill="#fff"><ellipse cx="24.997" cy="15.749" rx=".833" ry=".749"/></mask><ellipse cx="24.997" cy="15.749" rx=".833" ry=".749" fill="#404040"/><path d="M24.83 15.749c0-.107.05-.181.088-.215.036-.032.067-.037.08-.037v2c.909 0 1.833-.684 1.833-1.748h-2zm.167-.252c.013 0 .044.005.08.037a.292.292 0 0 1 .087.215h-2c0 1.063.924 1.748 1.833 1.748v-2zm.167.252c0 .106-.05.18-.088.214-.035.032-.066.037-.079.037v-2c-.909 0-1.833.685-1.833 1.749h2zm-.167.251c-.012 0-.043-.005-.079-.037a.292.292 0 0 1-.087-.214h2c0-1.064-.924-1.749-1.834-1.749v2z" fill="#404040" mask="url(#a)"/><path fill="#fff" d="M13.844 22.219H27.69v2.358H13.844z"/><path d="M24.49 27.395h-8.983c-.4-1.048-.06-3.145 4.491-3.145 4.552 0 4.891 2.097 4.492 3.145z" stroke="#404040" stroke-linecap="square"/><path d="M21.803 20.655c0 1.037-.82 1.859-1.808 1.859-.988 0-1.808-.822-1.808-1.859 0-1.036.82-1.858 1.808-1.858.988 0 1.808.822 1.808 1.858z" fill="#fff" stroke="#404040"/></svg>