<svg width="40" height="40" viewBox="0 0 40 40" fill="none" xmlns="http://www.w3.org/2000/svg">
<rect width="40" height="40" fill="white"/>
<path d="M20 20.5556H20.01Z" fill="white"/>
<path d="M24 14.2222V12.1111C24 11.5512 23.7893 11.0142 23.4142 10.6183C23.0391 10.2224 22.5304 10 22 10H18C17.4696 10 16.9609 10.2224 16.5858 10.6183C16.2107 11.0142 16 11.5512 16 12.1111V14.2222" fill="white"/>
<path d="M30 21.6111C27.0328 23.6789 23.5555 24.7813 20 24.7813C16.4445 24.7813 12.9672 23.6789 10 21.6111" fill="white"/>
<path d="M28 14.2222H12C10.8954 14.2222 10 15.1674 10 16.3333V26.8889C10 28.0548 10.8954 29 12 29H28C29.1046 29 30 28.0548 30 26.8889V16.3333C30 15.1674 29.1046 14.2222 28 14.2222Z" fill="white"/>
<path d="M20 20.5556H20.01M24 14.2222V12.1111C24 11.5512 23.7893 11.0142 23.4142 10.6183C23.0391 10.2224 22.5304 10 22 10H18C17.4696 10 16.9609 10.2224 16.5858 10.6183C16.2107 11.0142 16 11.5512 16 12.1111V14.2222M30 21.6111C27.0328 23.6789 23.5555 24.7813 20 24.7813C16.4445 24.7813 12.9672 23.6789 10 21.6111M12 14.2222H28C29.1046 14.2222 30 15.1674 30 16.3333V26.8889C30 28.0548 29.1046 29 28 29H12C10.8954 29 10 28.0548 10 26.8889V16.3333C10 15.1674 10.8954 14.2222 12 14.2222Z" stroke="#404040" stroke-linecap="round" stroke-linejoin="round"/>
</svg>
