<svg width="40" height="40" fill="none" xmlns="http://www.w3.org/2000/svg"><path fill="#fff" d="M0 0h40v40H0zM20 20.556h.01z"/><path d="M24 14.222v-2.11c0-.56-.21-1.098-.586-1.494A1.948 1.948 0 0 0 22 10h-4c-.53 0-1.04.222-1.414.618A2.172 2.172 0 0 0 16 12.111v2.111M30 21.611c-2.967 2.068-6.445 3.17-10 3.17-3.555 0-7.033-1.102-10-3.17" fill="#fff"/><path d="M28 14.222H12c-1.105 0-2 .945-2 2.111V26.89c0 1.166.895 2.111 2 2.111h16c1.105 0 2-.945 2-2.111V16.333c0-1.166-.895-2.11-2-2.11z" fill="#fff"/><path d="M20 20.556h.01M24 14.222v-2.11c0-.56-.21-1.098-.586-1.494A1.948 1.948 0 0 0 22 10h-4c-.53 0-1.04.222-1.414.618A2.172 2.172 0 0 0 16 12.111v2.111m14 7.39c-2.967 2.067-6.445 3.17-10 3.17-3.555 0-7.033-1.103-10-3.17m2-7.39h16c1.105 0 2 .945 2 2.111V26.89C30 28.055 29.105 29 28 29H12c-1.105 0-2-.945-2-2.111V16.333c0-1.166.895-2.11 2-2.11z" stroke="#404040" stroke-linecap="round" stroke-linejoin="round"/></svg>