<svg width="40" height="40" viewBox="0 0 40 40" fill="none" xmlns="http://www.w3.org/2000/svg">
<rect width="40" height="40" fill="white"/>
<path d="M15.5556 9V13.381M24.4444 9V13.381M10 17.7619H30M12.2222 11.1905H27.7778C29.0051 11.1905 30 12.1712 30 13.381V28.7143C30 29.9241 29.0051 30.9048 27.7778 30.9048H12.2222C10.9949 30.9048 10 29.9241 10 28.7143V13.381C10 12.1712 10.9949 11.1905 12.2222 11.1905Z" stroke="#404040" stroke-linecap="round" stroke-linejoin="round"/>
<rect x="15.2422" y="18.9531" width="10.4762" height="10.4762" fill="white"/>
<path d="M20.4803 26.2865C21.6375 26.2865 22.5755 25.3484 22.5755 24.1912C22.5755 23.0341 21.6375 22.096 20.4803 22.096C19.3231 22.096 18.385 23.0341 18.385 24.1912C18.385 25.3484 19.3231 26.2865 20.4803 26.2865Z" fill="#404040"/>
<path d="M20.4803 18.9531V20.0007Z" fill="#404040"/>
<path d="M20.4803 28.3817V29.4293Z" fill="#404040"/>
<path d="M16.7769 20.4879L17.5155 21.2265Z" fill="#404040"/>
<path d="M23.445 27.156L24.1836 27.8946Z" fill="#404040"/>
<path d="M15.2422 24.1912H16.2898Z" fill="#404040"/>
<path d="M24.6708 24.1912H25.7184Z" fill="#404040"/>
<path d="M17.5155 27.156L16.7769 27.8946Z" fill="#404040"/>
<path d="M24.1836 20.4879L23.445 21.2265Z" fill="#404040"/>
<path d="M20.4803 18.9531V20.0007M20.4803 28.3817V29.4293M16.7769 20.4879L17.5155 21.2265M23.445 27.156L24.1836 27.8946M15.2422 24.1912H16.2898M24.6708 24.1912H25.7184M17.5155 27.156L16.7769 27.8946M24.1836 20.4879L23.445 21.2265M22.5755 24.1912C22.5755 25.3484 21.6375 26.2865 20.4803 26.2865C19.3231 26.2865 18.385 25.3484 18.385 24.1912C18.385 23.0341 19.3231 22.096 20.4803 22.096C21.6375 22.096 22.5755 23.0341 22.5755 24.1912Z" stroke="#404040" stroke-linecap="round" stroke-linejoin="round"/>
</svg>
