<svg width="40" height="40" fill="none" xmlns="http://www.w3.org/2000/svg"><path fill="#fff" d="M0 0h40v40H0z"/><path d="M15.556 9v4.381M24.444 9v4.381M10 17.761h20m-17.778-6.57h15.556c1.227 0 2.222.98 2.222 2.19v15.333c0 1.21-.995 2.19-2.222 2.19H12.222c-1.227 0-2.222-.98-2.222-2.19V13.381c0-1.21.995-2.19 2.222-2.19z" stroke="#404040" stroke-linecap="round" stroke-linejoin="round"/><path fill="#fff" d="M15.242 18.953h10.476v10.476H15.242z"/><path d="M20.48 26.287a2.095 2.095 0 1 0 0-4.19 2.095 2.095 0 0 0 0 4.19zM20.48 18.953v1.048zM20.48 28.382v1.047zM16.777 20.488l.738.739zM23.445 27.156l.739.739zM15.242 24.191h1.048zM24.67 24.191h1.048zM17.515 27.156l-.738.739zM24.184 20.488l-.739.739z" fill="#404040"/><path d="M20.48 18.953v1.048m0 8.38v1.048m-3.703-8.941.738.739m5.93 5.929.739.739m-8.942-3.704h1.048m8.38 0h1.048m-8.203 2.965-.738.739m7.407-7.407-.739.739m-.87 2.964a2.095 2.095 0 1 1-4.19 0 2.095 2.095 0 0 1 4.19 0z" stroke="#404040" stroke-linecap="round" stroke-linejoin="round"/></svg>