<svg width="40" height="40" fill="none" xmlns="http://www.w3.org/2000/svg"><path fill="#fff" d="M0 0h40v40H0z"/><path d="m22.222 12.3-3.333 3.3m3.333-3.3 6.128 1.733a1 1 0 0 1 .432 1.673l-6.474 6.409a1 1 0 0 1-1.664-.434L18.889 15.6m3.333-3.3-2.63-2.603a1 1 0 0 0-1.407 0l-1.912 1.892a1 1 0 0 0 0 1.422L18.89 15.6m-1.667-1.65-5.594 5.538a1 1 0 0 0-.189 1.162l3.005 5.95M10 28.8V30a1 1 0 0 0 1 1h6.889a1 1 0 0 0 1-1v-1.2c0-.584-.234-1.143-.651-1.556a2.234 2.234 0 0 0-1.571-.644h-4.445C11 26.6 10 27.59 10 28.8z" stroke="#404040" stroke-linecap="round" stroke-linejoin="round"/></svg>