<svg width="40" height="40" viewBox="0 0 40 40" fill="none" xmlns="http://www.w3.org/2000/svg">
<rect width="40" height="40" fill="white"/>
<path d="M22.2222 12.3L18.8889 15.6M22.2222 12.3L28.3502 14.0333C29.0872 14.2418 29.3258 15.1674 28.7816 15.7062L22.3083 22.1148C21.7689 22.6488 20.8545 22.4107 20.644 21.6814L18.8889 15.6M22.2222 12.3L19.5924 9.69651C19.2027 9.31071 18.575 9.31071 18.1853 9.69651L16.2734 11.5893C15.8781 11.9807 15.8781 12.6193 16.2734 13.0107L18.8889 15.6M17.2222 13.95L11.6282 19.4881C11.32 19.7932 11.2436 20.2623 11.4392 20.6495L14.4444 26.6M10 28.8V30C10 30.5523 10.4477 31 11 31H17.8889C18.4412 31 18.8889 30.5523 18.8889 30V28.8C18.8889 28.2165 18.6548 27.6569 18.238 27.2444C17.8213 26.8318 17.256 26.6 16.6667 26.6H12.2222C11 26.6 10 27.59 10 28.8Z" stroke="#404040" stroke-linecap="round" stroke-linejoin="round"/>
</svg>
