<svg width="40" height="40" fill="none" xmlns="http://www.w3.org/2000/svg"><path fill="#fff" d="M0 0h40v40H0z"/><path d="m30 30.002-4.448-4.778m2.38-6.334c0 4.91-3.705 8.89-8.275 8.89s-8.274-3.98-8.274-8.89S15.087 10 19.657 10c4.57 0 8.274 3.98 8.274 8.89z" stroke="#404040" stroke-linecap="round" stroke-linejoin="round"/><path fill="#fff" d="M10.195 18h5v3h-5z"/><path d="M10 19.5h5.726l.456-1.285L18.005 24 19.83 15l1.367 4.5h4.805" fill="#fff"/><path d="M10 19.5h5.726l.456-1.285L18.005 24 19.83 15l1.367 4.5h4.805" stroke="#404040" stroke-linecap="round" stroke-linejoin="round"/></svg>