<svg width="40" height="40" viewBox="0 0 40 40" fill="none" xmlns="http://www.w3.org/2000/svg">
<rect width="40" height="40" fill="white"/>
<path d="M29.9999 30.0018L25.5525 25.2236M27.9313 18.8897C27.9313 23.7993 24.2268 27.7794 19.6571 27.7794C15.0873 27.7794 11.3828 23.7993 11.3828 18.8897C11.3828 13.98 15.0873 10 19.6571 10C24.2268 10 27.9313 13.98 27.9313 18.8897Z" stroke="#404040" stroke-linecap="round" stroke-linejoin="round"/>
<rect x="10.1953" y="18" width="5.00045" height="3.00027" fill="white"/>
<path d="M10 19.5004H15.7259L16.1818 18.2146L18.0053 24.0008L19.8288 15L21.1965 19.5004H26.0014" fill="white"/>
<path d="M10 19.5004H15.7259L16.1818 18.2146L18.0053 24.0008L19.8288 15L21.1965 19.5004H26.0014" stroke="#404040" stroke-linecap="round" stroke-linejoin="round"/>
</svg>
