<svg width="67" height="53" viewBox="0 0 67 53" fill="none" xmlns="http://www.w3.org/2000/svg">
<g clip-path="url(#clip0_624_12410)">
<rect width="67" height="53" rx="10" fill="#E6E6E6" fill-opacity="0.27"/>
<line x1="58.6016" y1="17.3359" x2="8.92677" y2="17.3359" stroke="#E5E7E9" stroke-opacity="0.7"/>
<line x1="29.0078" y1="43.0688" x2="8.92651" y2="43.0688" stroke="#E5E7E9" stroke-opacity="0.7"/>
<line x1="41.6914" y1="51.9761" x2="33.2361" y2="51.9761" stroke="#E5E7E9" stroke-opacity="0.7"/>
<line x1="58.6016" y1="37.1304" x2="43.8048" y2="37.1304" stroke="#E5E7E9" stroke-opacity="0.7"/>
<line x1="44.3633" y1="48.5073" x2="44.3633" y2="37.6203" stroke="#E5E7E9" stroke-opacity="0.7"/>
<line x1="29.5703" y1="48.5073" x2="29.5703" y2="17.8258" stroke="#E5E7E9" stroke-opacity="0.7"/>
<line x1="22.168" y1="16.8359" x2="22.168" y2="1.00029" stroke="#E5E7E9" stroke-opacity="0.7"/>
<line x1="5.25781" y1="39.6001" x2="5.25781" y2="20.7953" stroke="#E5E7E9" stroke-opacity="0.7"/>
<line x1="62.332" y1="33.6611" x2="62.332" y2="20.7947" stroke="#E5E7E9" stroke-opacity="0.7"/>
<path d="M40.6368 51.9711C41.8698 52.136 44.3359 51.6742 44.3359 48.507" stroke="#E5E7E9" stroke-opacity="0.7"/>
<path d="M8.92966 17.3307C7.69659 17.1657 5.23047 17.6276 5.23047 20.7947" stroke="#E5E7E9" stroke-opacity="0.7"/>
<path d="M8.92966 43.0639C7.69659 43.2288 5.23047 42.7669 5.23047 39.5998" stroke="#E5E7E9" stroke-opacity="0.7"/>
<path d="M33.2382 51.9711C32.0052 52.136 29.5391 51.6742 29.5391 48.507" stroke="#E5E7E9" stroke-opacity="0.7"/>
<path d="M58.6055 17.3307C59.8386 17.1657 62.3047 17.6276 62.3047 20.7947" stroke="#E5E7E9" stroke-opacity="0.7"/>
<path d="M58.6055 37.1254C59.8386 37.2903 62.3047 36.8285 62.3047 33.6613" stroke="#E5E7E9" stroke-opacity="0.7"/>
<rect x="9.98047" y="37.6201" width="22.1951" height="6.9281" rx="1" fill="#F2F2F2"/>
<rect x="9.98047" y="37.6201" width="10.5691" height="2.96918" rx="0.3" fill="white"/>
<rect x="9.98047" y="41.5791" width="10.5691" height="2.96918" rx="0.3" fill="url(#paint0_linear_624_12410)"/>
<rect x="21.6094" y="40.5894" width="2.96918" height="10.5691" rx="0.3" transform="rotate(-90 21.6094 40.5894)" fill="url(#paint1_linear_624_12410)"/>
<rect x="21.6094" y="44.5483" width="2.96918" height="10.5691" rx="0.3" transform="rotate(-90 21.6094 44.5483)" fill="white"/>
<ellipse cx="44.8571" cy="37.6205" rx="6.34146" ry="5.93837" fill="url(#paint2_linear_624_12410)"/>
<path d="M46.9555 34.2852C47.5568 34.2852 48.0554 34.7697 48.0554 35.3541C48.0554 35.942 47.5568 36.423 46.9555 36.423C46.3505 36.423 45.8555 35.942 45.8555 35.3541C45.8555 35.2472 45.8738 35.1474 45.9068 35.0548C45.5145 34.8731 45.0819 34.7697 44.6235 34.7697C43.8456 34.7697 43.0995 35.07 42.5495 35.6046C41.9994 36.1392 41.6903 36.8642 41.6903 37.6202L41.705 37.9194L40.9754 37.9943L40.957 37.6202C40.957 36.6752 41.3433 35.7689 42.0309 35.1007C42.7185 34.4325 43.6511 34.0571 44.6235 34.0571C45.2432 34.0571 45.8262 34.2068 46.3358 34.4704C46.5155 34.3529 46.7281 34.2852 46.9555 34.2852ZM46.9555 34.9978C46.8582 34.9978 46.765 35.0353 46.6962 35.1021C46.6274 35.1689 46.5888 35.2596 46.5888 35.3541C46.5888 35.4486 46.6274 35.5392 46.6962 35.606C46.765 35.6728 46.8582 35.7104 46.9555 35.7104C47.1608 35.7104 47.3221 35.55 47.3221 35.3541C47.3221 35.1545 47.1608 34.9978 46.9555 34.9978ZM42.2916 38.8173C42.8966 38.8173 43.3916 39.2983 43.3916 39.8862C43.3916 39.9931 43.3733 40.0929 43.3403 40.1855C43.7326 40.3672 44.1652 40.4706 44.6235 40.4706C45.4015 40.4706 46.1476 40.1703 46.6976 39.6357C47.2477 39.1011 47.5568 38.3761 47.5568 37.6202L47.5421 37.3209L48.2717 37.246L48.2901 37.6202C48.2901 38.5651 47.9038 39.4714 47.2162 40.1396C46.5286 40.8078 45.596 41.1832 44.6235 41.1832C44.0039 41.1832 43.4209 41.0335 42.9113 40.7699C42.7316 40.8874 42.519 40.9551 42.2916 40.9551C41.6903 40.9551 41.1917 40.4706 41.1917 39.8862C41.1917 39.2983 41.6903 38.8173 42.2916 38.8173ZM42.2916 39.5299C42.0863 39.5299 41.925 39.6903 41.925 39.8862C41.925 40.0858 42.0863 40.2425 42.2916 40.2425C42.3889 40.2425 42.4821 40.205 42.5509 40.1382C42.6197 40.0714 42.6583 39.9807 42.6583 39.8862C42.6583 39.7917 42.6197 39.7011 42.5509 39.6343C42.4821 39.5675 42.3889 39.5299 42.2916 39.5299ZM44.6235 36.1949C45.0125 36.1949 45.3856 36.3451 45.6606 36.6124C45.9356 36.8797 46.0902 37.2422 46.0902 37.6202C46.0902 37.9981 45.9356 38.3606 45.6606 38.6279C45.3856 38.8952 45.0125 39.0454 44.6235 39.0454C44.2346 39.0454 43.8615 38.8952 43.5865 38.6279C43.3115 38.3606 43.1569 37.9981 43.1569 37.6202C43.1569 37.2422 43.3115 36.8797 43.5865 36.6124C43.8615 36.3451 44.2346 36.1949 44.6235 36.1949Z" fill="white"/>
<g filter="url(#filter0_d_624_12410)">
<rect x="16.3203" y="8.91797" width="26.4223" height="24.7432" rx="1" fill="white"/>
<rect x="16.2703" y="8.86797" width="26.5223" height="24.8432" rx="1.05" stroke="#E3E4E6" stroke-width="0.1"/>
</g>
<path d="M19.7656 29.2893C20.9049 27.9022 23.574 25.9603 25.1364 29.2893C26.6988 32.6182 30.6699 27.9024 32.4601 25.1283C33.1111 24.2614 34.8037 23.0477 36.3661 25.1283C37.9285 27.2089 38.9701 25.6482 39.2956 24.6078" stroke="url(#paint3_linear_624_12410)" stroke-linecap="square"/>
<rect x="18.6172" y="11.0698" width="5.13591" height="4.30319" rx="2.1516" fill="#E3E4E6"/>
<rect x="18.6172" y="17.5249" width="1.0758" height="21.8276" rx="0.3" transform="rotate(-90 18.6172 17.5249)" fill="#E3E4E6"/>
<rect x="18.6172" y="19.6763" width="1.0758" height="17.9757" rx="0.3" transform="rotate(-90 18.6172 19.6763)" fill="#E3E4E6"/>
<rect x="25.0391" y="15.373" width="4.30319" height="15.4077" rx="0.3" transform="rotate(-90 25.0391 15.373)" fill="#E3E4E6"/>
<g filter="url(#filter1_d_624_12410)">
<path d="M9.40528 27.7231C9.40528 29.8789 7.53803 31.632 5.22764 31.632C2.91725 31.632 1.05 29.8789 1.05 27.7231C1.05 25.5673 2.91725 23.8142 5.22764 23.8142C7.53803 23.8142 9.40528 25.5673 9.40528 27.7231Z" fill="white" stroke="#C9C9C9" stroke-width="0.1"/>
<path d="M4.08786 28.5757C4.03708 28.5757 3.99997 28.562 3.95114 28.5425L2.48434 27.8999C2.33981 27.8374 2.27536 27.7515 2.27536 27.6284C2.27536 27.5073 2.33591 27.4194 2.48239 27.3569L3.95114 26.7085C3.99997 26.687 4.03708 26.6753 4.08786 26.6753C4.20114 26.6753 4.27536 26.7573 4.27536 26.8628C4.27536 26.9585 4.22067 27.0249 4.12301 27.0601L2.77145 27.6069V27.6245L4.12301 28.187C4.21872 28.2261 4.27536 28.2925 4.27536 28.3862C4.27536 28.4937 4.20114 28.5757 4.08786 28.5757ZM4.71091 29.4175C4.60153 29.4175 4.53122 29.3511 4.53122 29.2534C4.53122 29.2261 4.53708 29.1968 4.54294 29.1772L5.45309 26.0464C5.48434 25.939 5.54294 25.8882 5.64255 25.8882C5.74801 25.8882 5.82028 25.9565 5.82028 26.0562C5.82028 26.0796 5.81833 26.0972 5.81051 26.1245L4.89255 29.271C4.8652 29.3687 4.80661 29.4175 4.71091 29.4175ZM6.2695 28.5757C6.15817 28.5757 6.082 28.4937 6.082 28.3862C6.082 28.2925 6.13864 28.2241 6.23434 28.187L7.58786 27.6421V27.6245L6.23434 27.0601C6.14059 27.0229 6.082 26.9585 6.082 26.8628C6.082 26.7573 6.15817 26.6753 6.2695 26.6753C6.32028 26.6753 6.35934 26.687 6.40622 26.7085L7.87301 27.3511C8.01755 27.4136 8.082 27.4995 8.082 27.6226C8.082 27.7437 8.02145 27.8315 7.87497 27.894L6.40622 28.5425C6.35934 28.562 6.32028 28.5757 6.2695 28.5757Z" fill="#235811"/>
</g>
<g filter="url(#filter2_d_624_12410)">
<path d="M65.9522 27.7231C65.9522 29.8789 64.0849 31.632 61.7745 31.632C59.4641 31.632 57.5969 29.8789 57.5969 27.7231C57.5969 25.5673 59.4641 23.8142 61.7745 23.8142C64.0849 23.8142 65.9522 25.5673 65.9522 27.7231Z" fill="white" stroke="#C9C9C9" stroke-width="0.1"/>
<path d="M63.8917 26.5505L60.9928 29.2075L59.6641 27.9897L60.0047 27.6775L60.9928 28.5809L63.5511 26.2383L63.8917 26.5505Z" fill="#235811"/>
</g>
</g>
<defs>
<filter id="filter0_d_624_12410" x="16.2188" y="8.81787" width="30.625" height="28.9434" filterUnits="userSpaceOnUse" color-interpolation-filters="sRGB">
<feFlood flood-opacity="0" result="BackgroundImageFix"/>
<feColorMatrix in="SourceAlpha" type="matrix" values="0 0 0 0 0 0 0 0 0 0 0 0 0 0 0 0 0 0 127 0" result="hardAlpha"/>
<feOffset dx="2" dy="2"/>
<feGaussianBlur stdDeviation="1"/>
<feComposite in2="hardAlpha" operator="out"/>
<feColorMatrix type="matrix" values="0 0 0 0 0 0 0 0 0 0 0 0 0 0 0 0 0 0 0.05 0"/>
<feBlend mode="normal" in2="BackgroundImageFix" result="effect1_dropShadow_624_12410"/>
<feBlend mode="normal" in="SourceGraphic" in2="effect1_dropShadow_624_12410" result="shape"/>
</filter>
<filter id="filter1_d_624_12410" x="-1" y="23.7642" width="12.457" height="11.918" filterUnits="userSpaceOnUse" color-interpolation-filters="sRGB">
<feFlood flood-opacity="0" result="BackgroundImageFix"/>
<feColorMatrix in="SourceAlpha" type="matrix" values="0 0 0 0 0 0 0 0 0 0 0 0 0 0 0 0 0 0 127 0" result="hardAlpha"/>
<feOffset dy="2"/>
<feGaussianBlur stdDeviation="1"/>
<feComposite in2="hardAlpha" operator="out"/>
<feColorMatrix type="matrix" values="0 0 0 0 0 0 0 0 0 0 0 0 0 0 0 0 0 0 0.12 0"/>
<feBlend mode="normal" in2="BackgroundImageFix" result="effect1_dropShadow_624_12410"/>
<feBlend mode="normal" in="SourceGraphic" in2="effect1_dropShadow_624_12410" result="shape"/>
</filter>
<filter id="filter2_d_624_12410" x="55.5469" y="23.7642" width="12.457" height="11.918" filterUnits="userSpaceOnUse" color-interpolation-filters="sRGB">
<feFlood flood-opacity="0" result="BackgroundImageFix"/>
<feColorMatrix in="SourceAlpha" type="matrix" values="0 0 0 0 0 0 0 0 0 0 0 0 0 0 0 0 0 0 127 0" result="hardAlpha"/>
<feOffset dy="2"/>
<feGaussianBlur stdDeviation="1"/>
<feComposite in2="hardAlpha" operator="out"/>
<feColorMatrix type="matrix" values="0 0 0 0 0 0 0 0 0 0 0 0 0 0 0 0 0 0 0.12 0"/>
<feBlend mode="normal" in2="BackgroundImageFix" result="effect1_dropShadow_624_12410"/>
<feBlend mode="normal" in="SourceGraphic" in2="effect1_dropShadow_624_12410" result="shape"/>
</filter>
<linearGradient id="paint0_linear_624_12410" x1="9.98047" y1="43.0637" x2="20.5496" y2="43.0637" gradientUnits="userSpaceOnUse">
<stop stop-color="#8EE1AD"/>
<stop offset="1" stop-color="#C5F0D5"/>
</linearGradient>
<linearGradient id="paint1_linear_624_12410" x1="23.094" y1="40.5894" x2="23.094" y2="51.1585" gradientUnits="userSpaceOnUse">
<stop stop-color="#FFD27A"/>
<stop offset="1" stop-color="#FDF39D"/>
</linearGradient>
<linearGradient id="paint2_linear_624_12410" x1="38.5156" y1="43.5589" x2="50.3668" y2="30.9032" gradientUnits="userSpaceOnUse">
<stop stop-color="#6ED396"/>
<stop offset="1" stop-color="#B9F3CD"/>
</linearGradient>
<linearGradient id="paint3_linear_624_12410" x1="19.2774" y1="29.2892" x2="39.3833" y2="25.6067" gradientUnits="userSpaceOnUse">
<stop stop-color="#FED17A"/>
<stop offset="1" stop-color="#FBE735"/>
</linearGradient>
<clipPath id="clip0_624_12410">
<rect width="67" height="53" rx="10" fill="white"/>
</clipPath>
</defs>
</svg>
