<svg width="22" height="30" fill="none" xmlns="http://www.w3.org/2000/svg"><path d="m16.795 16.247 2.525 11.936a.6.6 0 0 1-.067.414.764.764 0 0 1-.336.308.965.965 0 0 1-.947-.064l-5.967-3.762a1.884 1.884 0 0 0-.997-.278c-.36 0-.71.098-.998.278l-5.976 3.76a.965.965 0 0 1-.946.064.764.764 0 0 1-.336-.306.6.6 0 0 1-.068-.414l2.523-11.936M21 9.4c0 4.64-4.477 8.4-10 8.4S1 14.04 1 9.4C1 4.76 5.477 1 11 1s10 3.76 10 8.4z" stroke="#fff" stroke-width="2" stroke-linecap="round" stroke-linejoin="round"/></svg>