<svg width="39" height="43" fill="none" xmlns="http://www.w3.org/2000/svg"><path d="M6 39.5H4.5v3H6v-3zm16 0H6v3h16v-3z" fill="#404040"/><path d="M2 38V5" stroke="#404040" stroke-width="3" stroke-linecap="round"/><path d="M36.5 5a1.5 1.5 0 0 0-3 0h3zm0 19V5h-3v19h3z" fill="#404040"/><path d="M35.102 37.86v-9.656" stroke="#404040" stroke-width="3"/><path d="M32 2H5" stroke="#404040" stroke-width="3" stroke-linecap="round"/><path d="M31 35h8l-4 6-4-6z" fill="#404040"/><path d="M2.003 5c-.003-2-.2-3 3-3M2.003 38c-.003 2-.2 3 3 3M34.997 5c.003-2 .2-3-3-3" stroke="#404040" stroke-width="3"/><circle cx="14" cy="12" r="3" fill="#1F4299"/><path d="M8 22a6 6 0 0 1 12 0H8z" fill="#1F4299"/><path d="m23 13.703 1.505 1.38M29.023 11l-4.513 4.138M23 19l1.505 1.38M29.023 16.25l-4.513 4.138" stroke="#A1D616" stroke-linecap="round"/><path stroke="#404040" stroke-width="3" d="M8.016 26.5H29.08M8.016 33.5H29.08"/></svg>