<svg width="30" height="26" fill="none" xmlns="http://www.w3.org/2000/svg"><path d="M28.977 9.572v10.285m-22.383-6v6c0 1.364.884 2.672 2.459 3.637 1.574.964 3.709 1.506 5.935 1.506 2.226 0 4.36-.542 5.935-1.506 1.574-.965 2.458-2.273 2.458-3.637v-6m4.785-2.705c.25-.135.463-.357.61-.64.15-.281.227-.61.224-.946a1.995 1.995 0 0 0-.239-.94 1.503 1.503 0 0 0-.622-.624L16.15 1.309A2.372 2.372 0 0 0 14.988 1c-.4 0-.797.105-1.161.31L1.837 7.994c-.248.133-.46.353-.609.632A2.003 2.003 0 0 0 1 9.565c0 .333.08.66.228.938.149.279.36.498.61.632l11.989 6.7c.364.203.76.309 1.16.309.401 0 .797-.106 1.162-.31l12.017-6.682z" stroke="#fff" stroke-width="2" stroke-linecap="round" stroke-linejoin="round"/></svg>