<svg width="44" height="46" fill="none" xmlns="http://www.w3.org/2000/svg"><path d="M28.667 44V26.315c0-.586-.235-1.148-.651-1.563a2.228 2.228 0 0 0-1.572-.647h-8.888c-.59 0-1.155.233-1.572.647-.416.415-.65.977-.65 1.563V44M2 19.683a4.402 4.402 0 0 1 1.576-3.377L19.13 3.044a4.459 4.459 0 0 1 5.738 0l15.555 13.262A4.423 4.423 0 0 1 42 19.683V39.58a4.41 4.41 0 0 1-1.302 3.126A4.457 4.457 0 0 1 37.556 44H6.444a4.456 4.456 0 0 1-3.142-1.295A4.41 4.41 0 0 1 2 39.58V19.683z" stroke="#000" stroke-width="3" stroke-linecap="round" stroke-linejoin="round"/></svg>