<svg width="100" height="100" viewBox="0 0 100 100" fill="none" xmlns="http://www.w3.org/2000/svg">
<circle cx="50" cy="50" r="50" fill="white"/>
<path d="M78.3874 62.1683L78.3886 62.1689C79.049 62.4561 79.5887 62.9646 79.9146 63.6068C80.2406 64.249 80.3326 64.9847 80.1746 65.6874L80.1743 65.6888L77.3618 77.8765L77.3618 77.8765C77.2059 78.5516 76.8257 79.1538 76.2834 79.5849C75.7411 80.016 75.0686 80.2504 74.3758 80.25M78.3874 62.1683L19.75 25.624H20L19.75 25.6241C19.75 55.8214 44.2257 80.2499 74.3758 80.25M78.3874 62.1683L65.2622 56.5432L65.2617 56.543M78.3874 62.1683L65.2617 56.543M74.3758 80.25L74.3759 80V80.25C74.3759 80.25 74.3758 80.25 74.3758 80.25ZM65.2617 56.543C64.6511 56.2828 63.9726 56.228 63.3282 56.3868C62.6838 56.5456 62.1085 56.9094 61.6887 57.4235L56.0002 64.3736C47.0707 60.1141 39.8742 52.9176 35.6146 43.9881M65.2617 56.543L35.6146 43.9881M35.6146 43.9881L42.5644 38.2998C42.5645 38.2998 42.5646 38.2997 42.5647 38.2996L35.6146 43.9881Z" fill="#8BD5E3" stroke="#4FBDD2" stroke-width="0.5" stroke-linecap="round"/>
<path d="M30 26C30 28.6667 31 34.8 35 38" stroke="#4BA7B9" stroke-width="0.5" stroke-linecap="round"/>
<path d="M62.5 65C63.8506 67.1176 67.7512 71.2587 72.5484 70.8824" stroke="#4BA7B9" stroke-width="0.5" stroke-linecap="round"/>
</svg>
