<svg width="30" height="30" fill="none" xmlns="http://www.w3.org/2000/svg"><path d="M15 4.111C17.1 1.778 18.836 1 21.3 1c2.042 0 4 .901 5.445 2.506C28.189 5.11 29 7.286 29 9.556c0 3.562-2.114 6.284-4.2 8.555L15 29 5.2 18.111C3.1 15.856 1 13.133 1 9.556c0-2.27.811-4.446 2.255-6.05C4.7 1.9 6.658 1 8.7 1c2.464 0 4.2.778 6.3 3.111zm0 0-4.144 4.605a3.42 3.42 0 0 0-.664 1.098 3.705 3.705 0 0 0 0 2.595c.154.41.38.784.664 1.098 1.148 1.275 2.982 1.322 4.2.109l2.898-2.956c.726-.732 1.672-1.138 2.653-1.138.98 0 1.927.406 2.653 1.138l4.144 4.138M23.4 19.667l-2.8-3.111m-1.4 7.777-2.8-3.11" stroke="#fff" stroke-width="2" stroke-linecap="round" stroke-linejoin="round"/></svg>