<svg width="70" height="70" viewBox="0 0 50 50" fill="none" xmlns="http://www.w3.org/2000/svg">
<circle cx="25" cy="25" r="25" fill="white"/>
<path d="M14.75 27.7269V37C14.75 37.4142 15.0858 37.75 15.5 37.75H22C22.4142 37.75 22.75 37.4142 22.75 37V30.5C22.75 30.3619 22.8619 30.25 23 30.25H27C27.1381 30.25 27.25 30.3619 27.25 30.5V37C27.25 37.4142 27.5858 37.75 28 37.75H34.5C34.9142 37.75 35.25 37.4142 35.25 37V27.7269C35.25 27.5106 35.1566 27.3049 34.9939 27.1625L25.4939 18.85C25.2111 18.6025 24.7889 18.6025 24.5061 18.85L15.0061 27.1625C14.8434 27.3049 14.75 27.5106 14.75 27.7269Z" fill="#8BD5E3" stroke="white" stroke-width="0.5" stroke-linecap="round"/>
<path d="M29.75 13V20.75C29.75 21.1642 30.0858 21.5 30.5 21.5H34.5C34.9142 21.5 35.25 21.1642 35.25 20.75V13C35.25 12.5858 34.9142 12.25 34.5 12.25H30.5C30.0858 12.25 29.75 12.5858 29.75 13Z" fill="#4BA7B9" stroke="white" stroke-width="0.5" stroke-linecap="round"/>
<path d="M10.2104 25.5639L11.9878 27.3413C12.2699 27.6234 12.7233 27.6353 13.0198 27.3685L24.8328 16.7369C24.9278 16.6513 25.0722 16.6513 25.1672 16.7369L36.9802 27.3685C37.2767 27.6353 37.7302 27.6234 38.0122 27.3413L39.7896 25.5639C40.1015 25.2521 40.0782 24.7398 39.7394 24.4574L25.4801 12.5747C25.202 12.3429 24.798 12.3429 24.5199 12.5747L10.2606 24.4574L10.4184 24.6468L10.2606 24.4574C9.92176 24.7398 9.89853 25.2521 10.2104 25.5639Z" fill="#4FBDD2" stroke="white" stroke-width="0.5" stroke-linecap="round"/>
</svg>
